%TF.GenerationSoftware,KiCad,Pcbnew,(5.1.8)-1*%
%TF.CreationDate,2021-01-24T12:06:25-05:00*%
%TF.ProjectId,TTS,5454532e-6b69-4636-9164-5f7063625858,rev?*%
%TF.SameCoordinates,Original*%
%TF.FileFunction,Legend,Bot*%
%TF.FilePolarity,Positive*%
%FSLAX46Y46*%
G04 Gerber Fmt 4.6, Leading zero omitted, Abs format (unit mm)*
G04 Created by KiCad (PCBNEW (5.1.8)-1) date 2021-01-24 12:06:25*
%MOMM*%
%LPD*%
G01*
G04 APERTURE LIST*
%ADD10C,0.150000*%
%ADD11C,0.120000*%
G04 APERTURE END LIST*
D10*
X88555580Y-50701866D02*
X88555580Y-50797104D01*
X88603200Y-50892342D01*
X88650819Y-50939961D01*
X88746057Y-50987580D01*
X88936533Y-51035200D01*
X89174628Y-51035200D01*
X89365104Y-50987580D01*
X89460342Y-50939961D01*
X89507961Y-50892342D01*
X89555580Y-50797104D01*
X89555580Y-50701866D01*
X89507961Y-50606628D01*
X89460342Y-50559009D01*
X89365104Y-50511390D01*
X89174628Y-50463771D01*
X88936533Y-50463771D01*
X88746057Y-50511390D01*
X88650819Y-50559009D01*
X88603200Y-50606628D01*
X88555580Y-50701866D01*
X89460342Y-51463771D02*
X89507961Y-51511390D01*
X89555580Y-51463771D01*
X89507961Y-51416152D01*
X89460342Y-51463771D01*
X89555580Y-51463771D01*
X88650819Y-51892342D02*
X88603200Y-51939961D01*
X88555580Y-52035200D01*
X88555580Y-52273295D01*
X88603200Y-52368533D01*
X88650819Y-52416152D01*
X88746057Y-52463771D01*
X88841295Y-52463771D01*
X88984152Y-52416152D01*
X89555580Y-51844723D01*
X89555580Y-52463771D01*
X89460342Y-52892342D02*
X89507961Y-52939961D01*
X89555580Y-52892342D01*
X89507961Y-52844723D01*
X89460342Y-52892342D01*
X89555580Y-52892342D01*
X89555580Y-53892342D02*
X89555580Y-53320914D01*
X89555580Y-53606628D02*
X88555580Y-53606628D01*
X88698438Y-53511390D01*
X88793676Y-53416152D01*
X88841295Y-53320914D01*
X88888914Y-54225676D02*
X89555580Y-54463771D01*
X88888914Y-54701866D01*
X88555580Y-54987580D02*
X88555580Y-55606628D01*
X88936533Y-55273295D01*
X88936533Y-55416152D01*
X88984152Y-55511390D01*
X89031771Y-55559009D01*
X89127009Y-55606628D01*
X89365104Y-55606628D01*
X89460342Y-55559009D01*
X89507961Y-55511390D01*
X89555580Y-55416152D01*
X89555580Y-55130438D01*
X89507961Y-55035200D01*
X89460342Y-54987580D01*
D11*
%TO.C,R2*%
X56352200Y-44876200D02*
X52512200Y-44876200D01*
X56352200Y-46716200D02*
X52512200Y-46716200D01*
%TO.C,R3*%
X56352200Y-44531800D02*
X52512200Y-44531800D01*
X56352200Y-42691800D02*
X52512200Y-42691800D01*
%TO.C,R2*%
D10*
X54497266Y-46299380D02*
X54830600Y-45823190D01*
X55068695Y-46299380D02*
X55068695Y-45299380D01*
X54687742Y-45299380D01*
X54592504Y-45347000D01*
X54544885Y-45394619D01*
X54497266Y-45489857D01*
X54497266Y-45632714D01*
X54544885Y-45727952D01*
X54592504Y-45775571D01*
X54687742Y-45823190D01*
X55068695Y-45823190D01*
X54116314Y-45394619D02*
X54068695Y-45347000D01*
X53973457Y-45299380D01*
X53735361Y-45299380D01*
X53640123Y-45347000D01*
X53592504Y-45394619D01*
X53544885Y-45489857D01*
X53544885Y-45585095D01*
X53592504Y-45727952D01*
X54163933Y-46299380D01*
X53544885Y-46299380D01*
%TO.C,R3*%
X54675066Y-44013380D02*
X55008400Y-43537190D01*
X55246495Y-44013380D02*
X55246495Y-43013380D01*
X54865542Y-43013380D01*
X54770304Y-43061000D01*
X54722685Y-43108619D01*
X54675066Y-43203857D01*
X54675066Y-43346714D01*
X54722685Y-43441952D01*
X54770304Y-43489571D01*
X54865542Y-43537190D01*
X55246495Y-43537190D01*
X54341733Y-43013380D02*
X53722685Y-43013380D01*
X54056019Y-43394333D01*
X53913161Y-43394333D01*
X53817923Y-43441952D01*
X53770304Y-43489571D01*
X53722685Y-43584809D01*
X53722685Y-43822904D01*
X53770304Y-43918142D01*
X53817923Y-43965761D01*
X53913161Y-44013380D01*
X54198876Y-44013380D01*
X54294114Y-43965761D01*
X54341733Y-43918142D01*
%TD*%
M02*
