%TF.GenerationSoftware,KiCad,Pcbnew,(5.1.8)-1*%
%TF.CreationDate,2021-01-24T12:06:25-05:00*%
%TF.ProjectId,TTS,5454532e-6b69-4636-9164-5f7063625858,rev?*%
%TF.SameCoordinates,Original*%
%TF.FileFunction,Legend,Top*%
%TF.FilePolarity,Positive*%
%FSLAX46Y46*%
G04 Gerber Fmt 4.6, Leading zero omitted, Abs format (unit mm)*
G04 Created by KiCad (PCBNEW (5.1.8)-1) date 2021-01-24 12:06:25*
%MOMM*%
%LPD*%
G01*
G04 APERTURE LIST*
%ADD10C,0.100000*%
%ADD11C,0.120000*%
%ADD12C,0.150000*%
G04 APERTURE END LIST*
D10*
%TO.C,J1*%
G36*
X27952700Y-45923200D02*
G01*
X29857700Y-44780200D01*
X29857700Y-47129700D01*
X27952700Y-45923200D01*
G37*
X27952700Y-45923200D02*
X29857700Y-44780200D01*
X29857700Y-47129700D01*
X27952700Y-45923200D01*
D11*
X32969700Y-37661200D02*
X40970200Y-37668200D01*
X40969700Y-54559200D02*
X40970200Y-37668200D01*
X27925200Y-45923200D02*
X36525200Y-45923200D01*
X32969700Y-54559200D02*
X32969700Y-37661200D01*
X32969700Y-54559200D02*
X40969700Y-54559200D01*
%TO.C,U2*%
X85925428Y-65421118D02*
X83770167Y-65421118D01*
X85137599Y-67037564D02*
G75*
G03*
X85137599Y-67037564I-199999J0D01*
G01*
X90087600Y-61290200D02*
G75*
G03*
X90087600Y-61290200I-5150000J0D01*
G01*
%TO.C,A1*%
X47015400Y-52425600D02*
X44475400Y-52425600D01*
X44475400Y-52425600D02*
X44475400Y-55095600D01*
X47015400Y-55095600D02*
X85245400Y-55095600D01*
X41805400Y-55095600D02*
X44475400Y-55095600D01*
X44475400Y-39725600D02*
X44475400Y-37055600D01*
X44475400Y-39725600D02*
X82575400Y-39725600D01*
X82575400Y-39725600D02*
X82575400Y-37055600D01*
X47015400Y-52425600D02*
X47015400Y-55095600D01*
X47015400Y-52425600D02*
X82575400Y-52425600D01*
X82575400Y-52425600D02*
X82575400Y-55095600D01*
X85245400Y-55095600D02*
X85245400Y-37055600D01*
X85245400Y-37055600D02*
X41805400Y-37055600D01*
X41805400Y-37055600D02*
X41805400Y-55095600D01*
%TO.C,C1*%
X66988000Y-48788800D02*
X66988000Y-48083800D01*
X66988000Y-50823800D02*
X66988000Y-50118800D01*
X71228000Y-48788800D02*
X71228000Y-48083800D01*
X71228000Y-50823800D02*
X71228000Y-50118800D01*
X71228000Y-48083800D02*
X66988000Y-48083800D01*
X71228000Y-50823800D02*
X66988000Y-50823800D01*
%TO.C,C2*%
X71329600Y-45413600D02*
X67089600Y-45413600D01*
X71329600Y-42673600D02*
X67089600Y-42673600D01*
X71329600Y-45413600D02*
X71329600Y-44708600D01*
X71329600Y-43378600D02*
X71329600Y-42673600D01*
X67089600Y-45413600D02*
X67089600Y-44708600D01*
X67089600Y-43378600D02*
X67089600Y-42673600D01*
%TO.C,D3*%
X29488000Y-36840800D02*
X28488000Y-35840800D01*
X28488000Y-35840800D02*
X28488000Y-31840800D01*
X28488000Y-31840800D02*
X44918000Y-31840800D01*
X44918000Y-31840800D02*
X44918000Y-36840800D01*
X44918000Y-36840800D02*
X29488000Y-36840800D01*
D10*
%TO.C,D4*%
X34823600Y-59617600D02*
X34823600Y-59367600D01*
X34823600Y-56917600D02*
X34823600Y-57167600D01*
X37423600Y-56417600D02*
G75*
G02*
X38273600Y-57267600I-1000000J-1850000D01*
G01*
X38273600Y-59267600D02*
G75*
G02*
X37423600Y-60117600I-1850000J1000000D01*
G01*
X34816315Y-56911453D02*
G75*
G02*
X35423600Y-56417600I1607285J-1356147D01*
G01*
X35428133Y-60109215D02*
G75*
G02*
X34823600Y-59617600I995467J1841615D01*
G01*
D11*
%TO.C,R1*%
X85493600Y-36594200D02*
X85493600Y-33154200D01*
X85493600Y-33154200D02*
X76253600Y-33154200D01*
X76253600Y-33154200D02*
X76253600Y-36594200D01*
X76253600Y-36594200D02*
X85493600Y-36594200D01*
X86183600Y-34874200D02*
X85493600Y-34874200D01*
X75563600Y-34874200D02*
X76253600Y-34874200D01*
%TO.C,R8*%
X42093400Y-56830200D02*
X42093400Y-60670200D01*
X40253400Y-56830200D02*
X40253400Y-60670200D01*
%TO.C,U1*%
X53624800Y-55620600D02*
X43504800Y-55620600D01*
X43504800Y-55620600D02*
X43504800Y-65740600D01*
X43504800Y-65740600D02*
X53624800Y-65740600D01*
X53624800Y-65740600D02*
X53624800Y-62367266D01*
X53624800Y-62367266D02*
X53264800Y-62367266D01*
X53264800Y-62367266D02*
X53264800Y-58993934D01*
X53264800Y-58993934D02*
X53624800Y-58993934D01*
X53624800Y-58993934D02*
X53624800Y-55620600D01*
X53844800Y-55092600D02*
G75*
G03*
X53844800Y-55092600I-200000J0D01*
G01*
%TO.C,D1*%
X54086200Y-36395000D02*
X54086200Y-33455000D01*
X53846200Y-36395000D02*
X53846200Y-33455000D01*
X53966200Y-36395000D02*
X53966200Y-33455000D01*
X48406200Y-34925000D02*
X49426200Y-34925000D01*
X55886200Y-34925000D02*
X54866200Y-34925000D01*
X49426200Y-36395000D02*
X54866200Y-36395000D01*
X49426200Y-33455000D02*
X49426200Y-36395000D01*
X54866200Y-33455000D02*
X49426200Y-33455000D01*
X54866200Y-36395000D02*
X54866200Y-33455000D01*
%TO.C,D2*%
X69242600Y-36268000D02*
X69242600Y-33328000D01*
X69242600Y-33328000D02*
X63802600Y-33328000D01*
X63802600Y-33328000D02*
X63802600Y-36268000D01*
X63802600Y-36268000D02*
X69242600Y-36268000D01*
X70262600Y-34798000D02*
X69242600Y-34798000D01*
X62782600Y-34798000D02*
X63802600Y-34798000D01*
X68342600Y-36268000D02*
X68342600Y-33328000D01*
X68222600Y-36268000D02*
X68222600Y-33328000D01*
X68462600Y-36268000D02*
X68462600Y-33328000D01*
%TO.C,J2*%
X79003200Y-63881000D02*
X76343200Y-63881000D01*
X79003200Y-63881000D02*
X79003200Y-56201000D01*
X79003200Y-56201000D02*
X76343200Y-56201000D01*
X76343200Y-63881000D02*
X76343200Y-56201000D01*
X76343200Y-66481000D02*
X76343200Y-65151000D01*
X77673200Y-66481000D02*
X76343200Y-66481000D01*
%TO.C,R4*%
X57576200Y-56982600D02*
X57576200Y-60822600D01*
X59416200Y-56982600D02*
X59416200Y-60822600D01*
%TO.C,R5*%
X62057800Y-57033400D02*
X62057800Y-60873400D01*
X60217800Y-57033400D02*
X60217800Y-60873400D01*
%TO.C,R6*%
X62656200Y-57084200D02*
X62656200Y-60924200D01*
X64496200Y-57084200D02*
X64496200Y-60924200D01*
%TO.C,R7*%
X67036200Y-57135000D02*
X67036200Y-60975000D01*
X65196200Y-57135000D02*
X65196200Y-60975000D01*
%TO.C,SW1*%
X44847200Y-46101000D02*
X47507200Y-46101000D01*
X44847200Y-46101000D02*
X44847200Y-48701000D01*
X44847200Y-48701000D02*
X47507200Y-48701000D01*
X47507200Y-46101000D02*
X47507200Y-48701000D01*
X47507200Y-43501000D02*
X47507200Y-44831000D01*
X46177200Y-43501000D02*
X47507200Y-43501000D01*
%TO.C,J3*%
X85166200Y-41570600D02*
X86496200Y-41570600D01*
X86496200Y-41570600D02*
X86496200Y-42900600D01*
X86496200Y-44170600D02*
X86496200Y-51850600D01*
X83836200Y-51850600D02*
X86496200Y-51850600D01*
X83836200Y-44170600D02*
X83836200Y-51850600D01*
X83836200Y-44170600D02*
X86496200Y-44170600D01*
%TO.C,REF\u002A\u002A*%
D12*
X29248266Y-35825580D02*
X28914933Y-35349390D01*
X28676838Y-35825580D02*
X28676838Y-34825580D01*
X29057790Y-34825580D01*
X29153028Y-34873200D01*
X29200647Y-34920819D01*
X29248266Y-35016057D01*
X29248266Y-35158914D01*
X29200647Y-35254152D01*
X29153028Y-35301771D01*
X29057790Y-35349390D01*
X28676838Y-35349390D01*
X29676838Y-35301771D02*
X30010171Y-35301771D01*
X30153028Y-35825580D02*
X29676838Y-35825580D01*
X29676838Y-34825580D01*
X30153028Y-34825580D01*
X30914933Y-35301771D02*
X30581600Y-35301771D01*
X30581600Y-35825580D02*
X30581600Y-34825580D01*
X31057790Y-34825580D01*
X31581600Y-34825580D02*
X31581600Y-35063676D01*
X31343504Y-34968438D02*
X31581600Y-35063676D01*
X31819695Y-34968438D01*
X31438742Y-35254152D02*
X31581600Y-35063676D01*
X31724457Y-35254152D01*
X32343504Y-34825580D02*
X32343504Y-35063676D01*
X32105409Y-34968438D02*
X32343504Y-35063676D01*
X32581600Y-34968438D01*
X32200647Y-35254152D02*
X32343504Y-35063676D01*
X32486361Y-35254152D01*
%TO.C,J1*%
X39597080Y-52606533D02*
X40311366Y-52606533D01*
X40454223Y-52654152D01*
X40549461Y-52749390D01*
X40597080Y-52892247D01*
X40597080Y-52987485D01*
X40597080Y-51606533D02*
X40597080Y-52177961D01*
X40597080Y-51892247D02*
X39597080Y-51892247D01*
X39739938Y-51987485D01*
X39835176Y-52082723D01*
X39882795Y-52177961D01*
%TO.C,REF\u002A\u002A*%
X36453180Y-64630133D02*
X35976990Y-64963466D01*
X36453180Y-65201561D02*
X35453180Y-65201561D01*
X35453180Y-64820609D01*
X35500800Y-64725371D01*
X35548419Y-64677752D01*
X35643657Y-64630133D01*
X35786514Y-64630133D01*
X35881752Y-64677752D01*
X35929371Y-64725371D01*
X35976990Y-64820609D01*
X35976990Y-65201561D01*
X35929371Y-64201561D02*
X35929371Y-63868228D01*
X36453180Y-63725371D02*
X36453180Y-64201561D01*
X35453180Y-64201561D01*
X35453180Y-63725371D01*
X35929371Y-62963466D02*
X35929371Y-63296800D01*
X36453180Y-63296800D02*
X35453180Y-63296800D01*
X35453180Y-62820609D01*
X35453180Y-62296800D02*
X35691276Y-62296800D01*
X35596038Y-62534895D02*
X35691276Y-62296800D01*
X35596038Y-62058704D01*
X35881752Y-62439657D02*
X35691276Y-62296800D01*
X35881752Y-62153942D01*
X35453180Y-61534895D02*
X35691276Y-61534895D01*
X35596038Y-61772990D02*
X35691276Y-61534895D01*
X35596038Y-61296800D01*
X35881752Y-61677752D02*
X35691276Y-61534895D01*
X35881752Y-61392038D01*
X69685066Y-55205780D02*
X69351733Y-54729590D01*
X69113638Y-55205780D02*
X69113638Y-54205780D01*
X69494590Y-54205780D01*
X69589828Y-54253400D01*
X69637447Y-54301019D01*
X69685066Y-54396257D01*
X69685066Y-54539114D01*
X69637447Y-54634352D01*
X69589828Y-54681971D01*
X69494590Y-54729590D01*
X69113638Y-54729590D01*
X70113638Y-54681971D02*
X70446971Y-54681971D01*
X70589828Y-55205780D02*
X70113638Y-55205780D01*
X70113638Y-54205780D01*
X70589828Y-54205780D01*
X71351733Y-54681971D02*
X71018400Y-54681971D01*
X71018400Y-55205780D02*
X71018400Y-54205780D01*
X71494590Y-54205780D01*
X72018400Y-54205780D02*
X72018400Y-54443876D01*
X71780304Y-54348638D02*
X72018400Y-54443876D01*
X72256495Y-54348638D01*
X71875542Y-54634352D02*
X72018400Y-54443876D01*
X72161257Y-54634352D01*
X72780304Y-54205780D02*
X72780304Y-54443876D01*
X72542209Y-54348638D02*
X72780304Y-54443876D01*
X73018400Y-54348638D01*
X72637447Y-54634352D02*
X72780304Y-54443876D01*
X72923161Y-54634352D01*
%TO.C,U2*%
X84119389Y-61333959D02*
X84691809Y-61906379D01*
X84792824Y-61940051D01*
X84860168Y-61940051D01*
X84961183Y-61906379D01*
X85095870Y-61771692D01*
X85129542Y-61670677D01*
X85129542Y-61603333D01*
X85095870Y-61502318D01*
X84523450Y-60929898D01*
X84893840Y-60694196D02*
X84893840Y-60626853D01*
X84927511Y-60525837D01*
X85095870Y-60357479D01*
X85196885Y-60323807D01*
X85264229Y-60323807D01*
X85365244Y-60357479D01*
X85432588Y-60424822D01*
X85499931Y-60559509D01*
X85499931Y-61367631D01*
X85937664Y-60929898D01*
X86918980Y-64438879D02*
X86817965Y-64472551D01*
X86716950Y-64573566D01*
X86649606Y-64708253D01*
X86649606Y-64842940D01*
X86683278Y-64943955D01*
X86784293Y-65112314D01*
X86885308Y-65213329D01*
X87053667Y-65314345D01*
X87154682Y-65348016D01*
X87289369Y-65348016D01*
X87424056Y-65280673D01*
X87491400Y-65213329D01*
X87558743Y-65078642D01*
X87558743Y-65011299D01*
X87323041Y-64775597D01*
X87188354Y-64910284D01*
X87929133Y-64775597D02*
X87222026Y-64068490D01*
X88333194Y-64371536D01*
X87626087Y-63664429D01*
X88669911Y-64034818D02*
X87962804Y-63327711D01*
X88131163Y-63159353D01*
X88265850Y-63092009D01*
X88400537Y-63092009D01*
X88501552Y-63125681D01*
X88669911Y-63226696D01*
X88770926Y-63327711D01*
X88871942Y-63496070D01*
X88905613Y-63597085D01*
X88905613Y-63731772D01*
X88838270Y-63866459D01*
X88669911Y-64034818D01*
X87255698Y-56996680D02*
X86784293Y-57939489D01*
X87727102Y-57468085D01*
X87255698Y-58410894D02*
X87962804Y-57703787D01*
X88131163Y-57872146D01*
X88198507Y-58006833D01*
X88198507Y-58141520D01*
X88164835Y-58242535D01*
X88063820Y-58410894D01*
X87962804Y-58511909D01*
X87794446Y-58612924D01*
X87693430Y-58646596D01*
X87558743Y-58646596D01*
X87424056Y-58579253D01*
X87255698Y-58410894D01*
X87962804Y-59118001D02*
X88669911Y-58410894D01*
X88838270Y-58579253D01*
X88905613Y-58713940D01*
X88905613Y-58848627D01*
X88871942Y-58949642D01*
X88770926Y-59118001D01*
X88669911Y-59219016D01*
X88501552Y-59320031D01*
X88400537Y-59353703D01*
X88265850Y-59353703D01*
X88131163Y-59286359D01*
X87962804Y-59118001D01*
X80846111Y-63787903D02*
X80913454Y-63922590D01*
X81081813Y-64090948D01*
X81182828Y-64124620D01*
X81250172Y-64124620D01*
X81351187Y-64090948D01*
X81418531Y-64023605D01*
X81452202Y-63922590D01*
X81452202Y-63855246D01*
X81418531Y-63754231D01*
X81317515Y-63585872D01*
X81283844Y-63484857D01*
X81283844Y-63417513D01*
X81317515Y-63316498D01*
X81384859Y-63249155D01*
X81485874Y-63215483D01*
X81553218Y-63215483D01*
X81654233Y-63249155D01*
X81822592Y-63417513D01*
X81889935Y-63552200D01*
X81990950Y-64865399D02*
X81923607Y-64865399D01*
X81788920Y-64798055D01*
X81721576Y-64730712D01*
X81654233Y-64596025D01*
X81654233Y-64461338D01*
X81687905Y-64360322D01*
X81788920Y-64191964D01*
X81889935Y-64090948D01*
X82058294Y-63989933D01*
X82159309Y-63956261D01*
X82293996Y-63956261D01*
X82428683Y-64023605D01*
X82496027Y-64090948D01*
X82563370Y-64225635D01*
X82563370Y-64292979D01*
X82563370Y-65572505D02*
X82226653Y-65235788D01*
X82933759Y-64528681D01*
X81401695Y-59381752D02*
X81536382Y-59314409D01*
X81704740Y-59146050D01*
X81738412Y-59045035D01*
X81738412Y-58977691D01*
X81704740Y-58876676D01*
X81637397Y-58809332D01*
X81536382Y-58775661D01*
X81469038Y-58775661D01*
X81368023Y-58809332D01*
X81199664Y-58910348D01*
X81098649Y-58944019D01*
X81031305Y-58944019D01*
X80930290Y-58910348D01*
X80862947Y-58843004D01*
X80829275Y-58741989D01*
X80829275Y-58674645D01*
X80862947Y-58573630D01*
X81031305Y-58405271D01*
X81165992Y-58337928D01*
X82142473Y-58708317D02*
X81435366Y-58001210D01*
X81603725Y-57832851D01*
X81738412Y-57765508D01*
X81873099Y-57765508D01*
X81974115Y-57799180D01*
X82142473Y-57900195D01*
X82243489Y-58001210D01*
X82344504Y-58169569D01*
X82378176Y-58270584D01*
X82378176Y-58405271D01*
X82310832Y-58539958D01*
X82142473Y-58708317D01*
X82613878Y-57832851D02*
X82950595Y-57496134D01*
X82748565Y-58102225D02*
X82277160Y-57159416D01*
X83219969Y-57630821D01*
X85117171Y-65073086D02*
X84645766Y-64601681D01*
X84780453Y-64736368D02*
X84746781Y-64635353D01*
X84746781Y-64568009D01*
X84780453Y-64466994D01*
X84847797Y-64399651D01*
%TO.C,A1*%
X42991066Y-38966685D02*
X42991066Y-38490495D01*
X43276780Y-39061923D02*
X42276780Y-38728590D01*
X43276780Y-38395257D01*
X43276780Y-37538114D02*
X43276780Y-38109542D01*
X43276780Y-37823828D02*
X42276780Y-37823828D01*
X42419638Y-37919066D01*
X42514876Y-38014304D01*
X42562495Y-38109542D01*
%TO.C,C1*%
X65924133Y-50014142D02*
X65876514Y-50061761D01*
X65733657Y-50109380D01*
X65638419Y-50109380D01*
X65495561Y-50061761D01*
X65400323Y-49966523D01*
X65352704Y-49871285D01*
X65305085Y-49680809D01*
X65305085Y-49537952D01*
X65352704Y-49347476D01*
X65400323Y-49252238D01*
X65495561Y-49157000D01*
X65638419Y-49109380D01*
X65733657Y-49109380D01*
X65876514Y-49157000D01*
X65924133Y-49204619D01*
X66876514Y-50109380D02*
X66305085Y-50109380D01*
X66590800Y-50109380D02*
X66590800Y-49109380D01*
X66495561Y-49252238D01*
X66400323Y-49347476D01*
X66305085Y-49395095D01*
%TO.C,C2*%
X65720933Y-44451542D02*
X65673314Y-44499161D01*
X65530457Y-44546780D01*
X65435219Y-44546780D01*
X65292361Y-44499161D01*
X65197123Y-44403923D01*
X65149504Y-44308685D01*
X65101885Y-44118209D01*
X65101885Y-43975352D01*
X65149504Y-43784876D01*
X65197123Y-43689638D01*
X65292361Y-43594400D01*
X65435219Y-43546780D01*
X65530457Y-43546780D01*
X65673314Y-43594400D01*
X65720933Y-43642019D01*
X66101885Y-43642019D02*
X66149504Y-43594400D01*
X66244742Y-43546780D01*
X66482838Y-43546780D01*
X66578076Y-43594400D01*
X66625695Y-43642019D01*
X66673314Y-43737257D01*
X66673314Y-43832495D01*
X66625695Y-43975352D01*
X66054266Y-44546780D01*
X66673314Y-44546780D01*
%TO.C,D3*%
X36015704Y-33015180D02*
X36015704Y-32015180D01*
X36253800Y-32015180D01*
X36396657Y-32062800D01*
X36491895Y-32158038D01*
X36539514Y-32253276D01*
X36587133Y-32443752D01*
X36587133Y-32586609D01*
X36539514Y-32777085D01*
X36491895Y-32872323D01*
X36396657Y-32967561D01*
X36253800Y-33015180D01*
X36015704Y-33015180D01*
X36920466Y-32015180D02*
X37539514Y-32015180D01*
X37206180Y-32396133D01*
X37349038Y-32396133D01*
X37444276Y-32443752D01*
X37491895Y-32491371D01*
X37539514Y-32586609D01*
X37539514Y-32824704D01*
X37491895Y-32919942D01*
X37444276Y-32967561D01*
X37349038Y-33015180D01*
X37063323Y-33015180D01*
X36968085Y-32967561D01*
X36920466Y-32919942D01*
%TO.C,D4*%
X35558504Y-56967380D02*
X35558504Y-55967380D01*
X35796600Y-55967380D01*
X35939457Y-56015000D01*
X36034695Y-56110238D01*
X36082314Y-56205476D01*
X36129933Y-56395952D01*
X36129933Y-56538809D01*
X36082314Y-56729285D01*
X36034695Y-56824523D01*
X35939457Y-56919761D01*
X35796600Y-56967380D01*
X35558504Y-56967380D01*
X36987076Y-56300714D02*
X36987076Y-56967380D01*
X36748980Y-55919761D02*
X36510885Y-56634047D01*
X37129933Y-56634047D01*
%TO.C,R1*%
X78141533Y-35326580D02*
X77808200Y-34850390D01*
X77570104Y-35326580D02*
X77570104Y-34326580D01*
X77951057Y-34326580D01*
X78046295Y-34374200D01*
X78093914Y-34421819D01*
X78141533Y-34517057D01*
X78141533Y-34659914D01*
X78093914Y-34755152D01*
X78046295Y-34802771D01*
X77951057Y-34850390D01*
X77570104Y-34850390D01*
X79093914Y-35326580D02*
X78522485Y-35326580D01*
X78808200Y-35326580D02*
X78808200Y-34326580D01*
X78712961Y-34469438D01*
X78617723Y-34564676D01*
X78522485Y-34612295D01*
%TO.C,R8*%
X41676580Y-58815266D02*
X41200390Y-59148600D01*
X41676580Y-59386695D02*
X40676580Y-59386695D01*
X40676580Y-59005742D01*
X40724200Y-58910504D01*
X40771819Y-58862885D01*
X40867057Y-58815266D01*
X41009914Y-58815266D01*
X41105152Y-58862885D01*
X41152771Y-58910504D01*
X41200390Y-59005742D01*
X41200390Y-59386695D01*
X41105152Y-58243838D02*
X41057533Y-58339076D01*
X41009914Y-58386695D01*
X40914676Y-58434314D01*
X40867057Y-58434314D01*
X40771819Y-58386695D01*
X40724200Y-58339076D01*
X40676580Y-58243838D01*
X40676580Y-58053361D01*
X40724200Y-57958123D01*
X40771819Y-57910504D01*
X40867057Y-57862885D01*
X40914676Y-57862885D01*
X41009914Y-57910504D01*
X41057533Y-57958123D01*
X41105152Y-58053361D01*
X41105152Y-58243838D01*
X41152771Y-58339076D01*
X41200390Y-58386695D01*
X41295628Y-58434314D01*
X41486104Y-58434314D01*
X41581342Y-58386695D01*
X41628961Y-58339076D01*
X41676580Y-58243838D01*
X41676580Y-58053361D01*
X41628961Y-57958123D01*
X41581342Y-57910504D01*
X41486104Y-57862885D01*
X41295628Y-57862885D01*
X41200390Y-57910504D01*
X41152771Y-57958123D01*
X41105152Y-58053361D01*
%TO.C,U1*%
X51928780Y-61493304D02*
X52738304Y-61493304D01*
X52833542Y-61445685D01*
X52881161Y-61398066D01*
X52928780Y-61302828D01*
X52928780Y-61112352D01*
X52881161Y-61017114D01*
X52833542Y-60969495D01*
X52738304Y-60921876D01*
X51928780Y-60921876D01*
X52928780Y-59921876D02*
X52928780Y-60493304D01*
X52928780Y-60207590D02*
X51928780Y-60207590D01*
X52071638Y-60302828D01*
X52166876Y-60398066D01*
X52214495Y-60493304D01*
%TO.C,D1*%
X51001704Y-35326580D02*
X51001704Y-34326580D01*
X51239800Y-34326580D01*
X51382657Y-34374200D01*
X51477895Y-34469438D01*
X51525514Y-34564676D01*
X51573133Y-34755152D01*
X51573133Y-34898009D01*
X51525514Y-35088485D01*
X51477895Y-35183723D01*
X51382657Y-35278961D01*
X51239800Y-35326580D01*
X51001704Y-35326580D01*
X52525514Y-35326580D02*
X51954085Y-35326580D01*
X52239800Y-35326580D02*
X52239800Y-34326580D01*
X52144561Y-34469438D01*
X52049323Y-34564676D01*
X51954085Y-34612295D01*
X58894695Y-34564580D02*
X58894695Y-33564580D01*
X59466123Y-34564580D02*
X59037552Y-33993152D01*
X59466123Y-33564580D02*
X58894695Y-34136009D01*
%TO.C,D2*%
X65479704Y-35351980D02*
X65479704Y-34351980D01*
X65717800Y-34351980D01*
X65860657Y-34399600D01*
X65955895Y-34494838D01*
X66003514Y-34590076D01*
X66051133Y-34780552D01*
X66051133Y-34923409D01*
X66003514Y-35113885D01*
X65955895Y-35209123D01*
X65860657Y-35304361D01*
X65717800Y-35351980D01*
X65479704Y-35351980D01*
X66432085Y-34447219D02*
X66479704Y-34399600D01*
X66574942Y-34351980D01*
X66813038Y-34351980D01*
X66908276Y-34399600D01*
X66955895Y-34447219D01*
X67003514Y-34542457D01*
X67003514Y-34637695D01*
X66955895Y-34780552D01*
X66384466Y-35351980D01*
X67003514Y-35351980D01*
X71340695Y-37350380D02*
X71340695Y-36350380D01*
X71912123Y-37350380D02*
X71483552Y-36778952D01*
X71912123Y-36350380D02*
X71340695Y-36921809D01*
%TO.C,J2*%
X79016266Y-58227980D02*
X79016266Y-58942266D01*
X78968647Y-59085123D01*
X78873409Y-59180361D01*
X78730552Y-59227980D01*
X78635314Y-59227980D01*
X79444838Y-58323219D02*
X79492457Y-58275600D01*
X79587695Y-58227980D01*
X79825790Y-58227980D01*
X79921028Y-58275600D01*
X79968647Y-58323219D01*
X80016266Y-58418457D01*
X80016266Y-58513695D01*
X79968647Y-58656552D01*
X79397219Y-59227980D01*
X80016266Y-59227980D01*
%TO.C,R4*%
X58892781Y-59110265D02*
X58416591Y-59443599D01*
X58892781Y-59681694D02*
X57892781Y-59681694D01*
X57892781Y-59300741D01*
X57940401Y-59205503D01*
X57988020Y-59157884D01*
X58083258Y-59110265D01*
X58226115Y-59110265D01*
X58321353Y-59157884D01*
X58368972Y-59205503D01*
X58416591Y-59300741D01*
X58416591Y-59681694D01*
X58226115Y-58253122D02*
X58892781Y-58253122D01*
X57845162Y-58491218D02*
X58559448Y-58729313D01*
X58559448Y-58110265D01*
%TO.C,R5*%
X61691780Y-59120066D02*
X61215590Y-59453400D01*
X61691780Y-59691495D02*
X60691780Y-59691495D01*
X60691780Y-59310542D01*
X60739400Y-59215304D01*
X60787019Y-59167685D01*
X60882257Y-59120066D01*
X61025114Y-59120066D01*
X61120352Y-59167685D01*
X61167971Y-59215304D01*
X61215590Y-59310542D01*
X61215590Y-59691495D01*
X60691780Y-58215304D02*
X60691780Y-58691495D01*
X61167971Y-58739114D01*
X61120352Y-58691495D01*
X61072733Y-58596257D01*
X61072733Y-58358161D01*
X61120352Y-58262923D01*
X61167971Y-58215304D01*
X61263209Y-58167685D01*
X61501304Y-58167685D01*
X61596542Y-58215304D01*
X61644161Y-58262923D01*
X61691780Y-58358161D01*
X61691780Y-58596257D01*
X61644161Y-58691495D01*
X61596542Y-58739114D01*
%TO.C,R6*%
X64023581Y-59157465D02*
X63547391Y-59490799D01*
X64023581Y-59728894D02*
X63023581Y-59728894D01*
X63023581Y-59347941D01*
X63071201Y-59252703D01*
X63118820Y-59205084D01*
X63214058Y-59157465D01*
X63356915Y-59157465D01*
X63452153Y-59205084D01*
X63499772Y-59252703D01*
X63547391Y-59347941D01*
X63547391Y-59728894D01*
X63023581Y-58300322D02*
X63023581Y-58490799D01*
X63071201Y-58586037D01*
X63118820Y-58633656D01*
X63261677Y-58728894D01*
X63452153Y-58776513D01*
X63833105Y-58776513D01*
X63928343Y-58728894D01*
X63975962Y-58681275D01*
X64023581Y-58586037D01*
X64023581Y-58395560D01*
X63975962Y-58300322D01*
X63928343Y-58252703D01*
X63833105Y-58205084D01*
X63595010Y-58205084D01*
X63499772Y-58252703D01*
X63452153Y-58300322D01*
X63404534Y-58395560D01*
X63404534Y-58586037D01*
X63452153Y-58681275D01*
X63499772Y-58728894D01*
X63595010Y-58776513D01*
%TO.C,R7*%
X66525981Y-59207865D02*
X66049791Y-59541199D01*
X66525981Y-59779294D02*
X65525981Y-59779294D01*
X65525981Y-59398341D01*
X65573601Y-59303103D01*
X65621220Y-59255484D01*
X65716458Y-59207865D01*
X65859315Y-59207865D01*
X65954553Y-59255484D01*
X66002172Y-59303103D01*
X66049791Y-59398341D01*
X66049791Y-59779294D01*
X65525981Y-58874532D02*
X65525981Y-58207865D01*
X66525981Y-58636437D01*
%TO.C,SW1*%
X44843866Y-42465761D02*
X44986723Y-42513380D01*
X45224819Y-42513380D01*
X45320057Y-42465761D01*
X45367676Y-42418142D01*
X45415295Y-42322904D01*
X45415295Y-42227666D01*
X45367676Y-42132428D01*
X45320057Y-42084809D01*
X45224819Y-42037190D01*
X45034342Y-41989571D01*
X44939104Y-41941952D01*
X44891485Y-41894333D01*
X44843866Y-41799095D01*
X44843866Y-41703857D01*
X44891485Y-41608619D01*
X44939104Y-41561000D01*
X45034342Y-41513380D01*
X45272438Y-41513380D01*
X45415295Y-41561000D01*
X45748628Y-41513380D02*
X45986723Y-42513380D01*
X46177200Y-41799095D01*
X46367676Y-42513380D01*
X46605771Y-41513380D01*
X47510533Y-42513380D02*
X46939104Y-42513380D01*
X47224819Y-42513380D02*
X47224819Y-41513380D01*
X47129580Y-41656238D01*
X47034342Y-41751476D01*
X46939104Y-41799095D01*
%TO.C,J3*%
X84832866Y-39582980D02*
X84832866Y-40297266D01*
X84785247Y-40440123D01*
X84690009Y-40535361D01*
X84547152Y-40582980D01*
X84451914Y-40582980D01*
X85213819Y-39582980D02*
X85832866Y-39582980D01*
X85499533Y-39963933D01*
X85642390Y-39963933D01*
X85737628Y-40011552D01*
X85785247Y-40059171D01*
X85832866Y-40154409D01*
X85832866Y-40392504D01*
X85785247Y-40487742D01*
X85737628Y-40535361D01*
X85642390Y-40582980D01*
X85356676Y-40582980D01*
X85261438Y-40535361D01*
X85213819Y-40487742D01*
%TD*%
M02*
