%TF.GenerationSoftware,KiCad,Pcbnew,(5.1.8)-1*%
%TF.CreationDate,2021-01-24T12:06:25-05:00*%
%TF.ProjectId,TTS,5454532e-6b69-4636-9164-5f7063625858,rev?*%
%TF.SameCoordinates,Original*%
%TF.FileFunction,Copper,L1,Top*%
%TF.FilePolarity,Positive*%
%FSLAX46Y46*%
G04 Gerber Fmt 4.6, Leading zero omitted, Abs format (unit mm)*
G04 Created by KiCad (PCBNEW (5.1.8)-1) date 2021-01-24 12:06:25*
%MOMM*%
%LPD*%
G01*
G04 APERTURE LIST*
%TA.AperFunction,WasherPad*%
%ADD10C,3.500000*%
%TD*%
%TA.AperFunction,ComponentPad*%
%ADD11C,1.400000*%
%TD*%
%TA.AperFunction,ComponentPad*%
%ADD12C,1.600000*%
%TD*%
%TA.AperFunction,ComponentPad*%
%ADD13R,1.600000X1.600000*%
%TD*%
%TA.AperFunction,ComponentPad*%
%ADD14O,1.600000X1.600000*%
%TD*%
%TA.AperFunction,ComponentPad*%
%ADD15O,2.000000X2.000000*%
%TD*%
%TA.AperFunction,ComponentPad*%
%ADD16C,2.000000*%
%TD*%
%TA.AperFunction,ComponentPad*%
%ADD17R,2.000000X2.000000*%
%TD*%
%TA.AperFunction,ComponentPad*%
%ADD18O,1.400000X1.400000*%
%TD*%
%TA.AperFunction,ComponentPad*%
%ADD19C,1.500000*%
%TD*%
%TA.AperFunction,ComponentPad*%
%ADD20R,2.200000X2.200000*%
%TD*%
%TA.AperFunction,ComponentPad*%
%ADD21O,2.200000X2.200000*%
%TD*%
%TA.AperFunction,ComponentPad*%
%ADD22R,1.700000X1.700000*%
%TD*%
%TA.AperFunction,ComponentPad*%
%ADD23O,1.700000X1.700000*%
%TD*%
%TA.AperFunction,ViaPad*%
%ADD24C,0.762000*%
%TD*%
%TA.AperFunction,Conductor*%
%ADD25C,0.254000*%
%TD*%
%TA.AperFunction,Conductor*%
%ADD26C,0.100000*%
%TD*%
G04 APERTURE END LIST*
D10*
%TO.P,J1,*%
%TO.N,*%
X36525200Y-39673200D03*
X36525200Y-52173200D03*
D11*
%TO.P,J1,1*%
%TO.N,Net-(D3-Pad3)*%
X36025200Y-44273200D03*
%TO.P,J1,3*%
%TO.N,Net-(D1-Pad1)*%
X36025200Y-47573200D03*
%TO.P,J1,4*%
%TO.N,Net-(D2-Pad1)*%
X37975200Y-46923200D03*
%TO.P,J1,2*%
%TO.N,Net-(D3-Pad2)*%
X37975200Y-44923200D03*
%TD*%
D12*
%TO.P,U2,4*%
%TO.N,GND*%
X86733651Y-63086251D03*
%TO.P,U2,1*%
%TO.N,/A5*%
X83141549Y-63086251D03*
%TO.P,U2,2*%
%TO.N,/A4*%
X83141549Y-59494149D03*
%TO.P,U2,3*%
%TO.N,VDD*%
X86733651Y-59494149D03*
%TD*%
D13*
%TO.P,A1,1*%
%TO.N,/TX*%
X45745400Y-53695600D03*
D14*
%TO.P,A1,17*%
%TO.N,VDD*%
X78765400Y-38455600D03*
%TO.P,A1,2*%
%TO.N,/RX*%
X48285400Y-53695600D03*
%TO.P,A1,18*%
%TO.N,/REF*%
X76225400Y-38455600D03*
%TO.P,A1,3*%
%TO.N,/RST_D*%
X50825400Y-53695600D03*
%TO.P,A1,19*%
%TO.N,/A0*%
X73685400Y-38455600D03*
%TO.P,A1,4*%
%TO.N,GND*%
X53365400Y-53695600D03*
%TO.P,A1,20*%
%TO.N,/A1*%
X71145400Y-38455600D03*
%TO.P,A1,5*%
%TO.N,/D2*%
X55905400Y-53695600D03*
%TO.P,A1,21*%
%TO.N,/A2*%
X68605400Y-38455600D03*
%TO.P,A1,6*%
%TO.N,/D3*%
X58445400Y-53695600D03*
%TO.P,A1,22*%
%TO.N,/A3*%
X66065400Y-38455600D03*
%TO.P,A1,7*%
%TO.N,/D4*%
X60985400Y-53695600D03*
%TO.P,A1,23*%
%TO.N,/A4*%
X63525400Y-38455600D03*
%TO.P,A1,8*%
%TO.N,/D5*%
X63525400Y-53695600D03*
%TO.P,A1,24*%
%TO.N,/A5*%
X60985400Y-38455600D03*
%TO.P,A1,9*%
%TO.N,/D6*%
X66065400Y-53695600D03*
%TO.P,A1,25*%
%TO.N,/A6*%
X58445400Y-38455600D03*
%TO.P,A1,10*%
%TO.N,/D7*%
X68605400Y-53695600D03*
%TO.P,A1,26*%
%TO.N,/A7*%
X55905400Y-38455600D03*
%TO.P,A1,11*%
%TO.N,/D8*%
X71145400Y-53695600D03*
%TO.P,A1,27*%
%TO.N,VCC*%
X53365400Y-38455600D03*
%TO.P,A1,12*%
%TO.N,/D9*%
X73685400Y-53695600D03*
%TO.P,A1,28*%
%TO.N,/RST_A*%
X50825400Y-38455600D03*
%TO.P,A1,13*%
%TO.N,/D10*%
X76225400Y-53695600D03*
%TO.P,A1,29*%
%TO.N,GND*%
X48285400Y-38455600D03*
%TO.P,A1,14*%
%TO.N,/D11*%
X78765400Y-53695600D03*
%TO.P,A1,30*%
%TO.N,/VIN*%
X45745400Y-38455600D03*
%TO.P,A1,15*%
%TO.N,/D12*%
X81305400Y-53695600D03*
%TO.P,A1,16*%
%TO.N,/D13*%
X81305400Y-38455600D03*
%TD*%
D12*
%TO.P,C1,2*%
%TO.N,GND*%
X67858000Y-49453800D03*
%TO.P,C1,1*%
%TO.N,VCC*%
X70358000Y-49453800D03*
%TD*%
%TO.P,C2,1*%
%TO.N,VDD*%
X70459600Y-44043600D03*
%TO.P,C2,2*%
%TO.N,GND*%
X67959600Y-44043600D03*
%TD*%
D15*
%TO.P,D3,1*%
%TO.N,/VIN*%
X30988000Y-34340800D03*
%TO.P,D3,2*%
%TO.N,Net-(D3-Pad2)*%
X34798000Y-34340800D03*
%TO.P,D3,3*%
%TO.N,Net-(D3-Pad3)*%
X38608000Y-34340800D03*
%TO.P,D3,4*%
%TO.N,GND*%
X42418000Y-34340800D03*
%TD*%
D16*
%TO.P,D4,2*%
%TO.N,Net-(D4-Pad2)*%
X35153600Y-58267600D03*
D17*
%TO.P,D4,1*%
%TO.N,GND*%
X37693600Y-58267600D03*
%TD*%
D12*
%TO.P,R1,1*%
%TO.N,Net-(D2-Pad1)*%
X87223600Y-34874200D03*
D14*
%TO.P,R1,2*%
%TO.N,Net-(D1-Pad1)*%
X74523600Y-34874200D03*
%TD*%
D11*
%TO.P,R2,1*%
%TO.N,/A4*%
X56972200Y-45796200D03*
D18*
%TO.P,R2,2*%
%TO.N,VDD*%
X51892200Y-45796200D03*
%TD*%
%TO.P,R3,2*%
%TO.N,VDD*%
X51892200Y-43611800D03*
D11*
%TO.P,R3,1*%
%TO.N,/A5*%
X56972200Y-43611800D03*
%TD*%
%TO.P,R8,1*%
%TO.N,/D7*%
X41173400Y-56210200D03*
D18*
%TO.P,R8,2*%
%TO.N,Net-(D4-Pad2)*%
X41173400Y-61290200D03*
%TD*%
D19*
%TO.P,U1,8*%
%TO.N,VCC*%
X52374800Y-64490600D03*
%TO.P,U1,1*%
%TO.N,/RX*%
X52374800Y-56870600D03*
%TO.P,U1,7*%
%TO.N,Net-(D1-Pad1)*%
X49834800Y-64490600D03*
%TO.P,U1,2*%
%TO.N,/D2*%
X49834800Y-56870600D03*
%TO.P,U1,6*%
%TO.N,Net-(D2-Pad1)*%
X47294800Y-64490600D03*
%TO.P,U1,3*%
%TO.N,/D2*%
X47294800Y-56870600D03*
%TO.P,U1,5*%
%TO.N,GND*%
X44754800Y-64490600D03*
%TO.P,U1,4*%
%TO.N,/TX*%
X44754800Y-56870600D03*
%TD*%
D20*
%TO.P,D1,1*%
%TO.N,Net-(D1-Pad1)*%
X57226200Y-34925000D03*
D21*
%TO.P,D1,2*%
%TO.N,GND*%
X47066200Y-34925000D03*
%TD*%
%TO.P,D2,2*%
%TO.N,GND*%
X61442600Y-34798000D03*
D20*
%TO.P,D2,1*%
%TO.N,Net-(D2-Pad1)*%
X71602600Y-34798000D03*
%TD*%
D22*
%TO.P,J2,1*%
%TO.N,/A5*%
X77673200Y-65151000D03*
D23*
%TO.P,J2,2*%
%TO.N,/A4*%
X77673200Y-62611000D03*
%TO.P,J2,3*%
%TO.N,VDD*%
X77673200Y-60071000D03*
%TO.P,J2,4*%
%TO.N,GND*%
X77673200Y-57531000D03*
%TD*%
D18*
%TO.P,R4,2*%
%TO.N,VCC*%
X58496200Y-61442600D03*
D11*
%TO.P,R4,1*%
%TO.N,/D3*%
X58496200Y-56362600D03*
%TD*%
%TO.P,R5,1*%
%TO.N,/D4*%
X61137800Y-56413400D03*
D18*
%TO.P,R5,2*%
%TO.N,VCC*%
X61137800Y-61493400D03*
%TD*%
%TO.P,R6,2*%
%TO.N,VCC*%
X63576200Y-61544200D03*
D11*
%TO.P,R6,1*%
%TO.N,/D5*%
X63576200Y-56464200D03*
%TD*%
%TO.P,R7,1*%
%TO.N,/D6*%
X66116200Y-56515000D03*
D18*
%TO.P,R7,2*%
%TO.N,VCC*%
X66116200Y-61595000D03*
%TD*%
D22*
%TO.P,SW1,1*%
%TO.N,/RST_A*%
X46177200Y-44831000D03*
D23*
%TO.P,SW1,2*%
%TO.N,GND*%
X46177200Y-47371000D03*
%TD*%
%TO.P,J3,4*%
%TO.N,GND*%
X85166200Y-50520600D03*
%TO.P,J3,3*%
%TO.N,VDD*%
X85166200Y-47980600D03*
%TO.P,J3,2*%
%TO.N,/A4*%
X85166200Y-45440600D03*
D22*
%TO.P,J3,1*%
%TO.N,/A5*%
X85166200Y-42900600D03*
%TD*%
D24*
%TO.N,*%
X75000000Y-56000000D03*
X76000000Y-55700000D03*
X75000000Y-57000000D03*
X75000000Y-58000000D03*
X75000000Y-59000000D03*
X75000000Y-60000000D03*
X75000000Y-61000000D03*
X75000000Y-62000000D03*
X75000000Y-63000000D03*
X75000000Y-64000000D03*
X75000000Y-65000000D03*
X75000000Y-66000000D03*
X75000000Y-66650000D03*
X77000000Y-55700000D03*
X78000000Y-55700000D03*
X79000000Y-55700000D03*
X80000000Y-55700000D03*
X81000000Y-55700000D03*
X82000000Y-55700000D03*
X83000000Y-55700000D03*
X84000000Y-55700000D03*
X85000000Y-55700000D03*
X86000000Y-55700000D03*
X87000000Y-55700000D03*
X88000000Y-55700000D03*
X89000000Y-55700000D03*
X89789000Y-55702200D03*
%TD*%
D25*
%TO.N,VDD*%
X51892200Y-43611800D02*
X51892200Y-45796200D01*
X68822199Y-45681001D02*
X70459600Y-44043600D01*
X59040799Y-46877201D02*
X60236999Y-45681001D01*
X52973201Y-46877201D02*
X59040799Y-46877201D01*
X60236999Y-45681001D02*
X68822199Y-45681001D01*
X51892200Y-45796200D02*
X52973201Y-46877201D01*
X70459600Y-44043600D02*
X75768200Y-44043600D01*
X78765400Y-41046400D02*
X78765400Y-38455600D01*
X75768200Y-44043600D02*
X78765400Y-41046400D01*
X85166200Y-47980600D02*
X82042000Y-47980600D01*
X82042000Y-47980600D02*
X79883000Y-45821600D01*
X79883000Y-39573200D02*
X78765400Y-38455600D01*
X79883000Y-45821600D02*
X79883000Y-39573200D01*
X85306801Y-60920999D02*
X86733651Y-59494149D01*
X78523199Y-60920999D02*
X85306801Y-60920999D01*
X77673200Y-60071000D02*
X78523199Y-60920999D01*
%TO.N,VCC*%
X63627000Y-61595000D02*
X63576200Y-61544200D01*
X66116200Y-61595000D02*
X63627000Y-61595000D01*
X61188600Y-61544200D02*
X61137800Y-61493400D01*
X63576200Y-61544200D02*
X61188600Y-61544200D01*
X58547000Y-61493400D02*
X58496200Y-61442600D01*
X61137800Y-61493400D02*
X58547000Y-61493400D01*
X57264399Y-53301999D02*
X51943000Y-47980600D01*
X57264399Y-60210799D02*
X57264399Y-53301999D01*
X58496200Y-61442600D02*
X57264399Y-60210799D01*
X67246401Y-52565399D02*
X70358000Y-49453800D01*
X67246401Y-60464799D02*
X67246401Y-52565399D01*
X66116200Y-61595000D02*
X67246401Y-60464799D01*
X50811199Y-41009801D02*
X53365400Y-38455600D01*
X50811199Y-46848799D02*
X50811199Y-41009801D01*
X51943000Y-47980600D02*
X50811199Y-46848799D01*
X55448200Y-64490600D02*
X58496200Y-61442600D01*
X52374800Y-64490600D02*
X55448200Y-64490600D01*
%TO.N,Net-(D1-Pad1)*%
X48703799Y-65621601D02*
X49834800Y-64490600D01*
X40463719Y-65621601D02*
X48703799Y-65621601D01*
X33375600Y-58533482D02*
X40463719Y-65621601D01*
X33375600Y-50222800D02*
X33375600Y-58533482D01*
X36025200Y-47573200D02*
X33375600Y-50222800D01*
%TO.N,Net-(D2-Pad1)*%
X38656201Y-47604201D02*
X37975200Y-46923200D01*
X46163799Y-63359599D02*
X47294800Y-64490600D01*
X40873365Y-63359599D02*
X46163799Y-63359599D01*
X39522400Y-62008634D02*
X40873365Y-63359599D01*
X39522400Y-48470400D02*
X39522400Y-62008634D01*
X37975200Y-46923200D02*
X39522400Y-48470400D01*
%TO.N,Net-(D3-Pad2)*%
X38656201Y-38199001D02*
X38656201Y-44242199D01*
X38656201Y-44242199D02*
X37975200Y-44923200D01*
X34798000Y-34340800D02*
X38656201Y-38199001D01*
%TO.N,/TX*%
X44754800Y-54686200D02*
X45745400Y-53695600D01*
X44754800Y-56870600D02*
X44754800Y-54686200D01*
%TO.N,/RX*%
X52374800Y-56870600D02*
X50876200Y-55372000D01*
X49961800Y-55372000D02*
X48285400Y-53695600D01*
X50876200Y-55372000D02*
X49961800Y-55372000D01*
%TO.N,/D2*%
X47294800Y-56870600D02*
X49834800Y-56870600D01*
X55905400Y-55549800D02*
X55905400Y-53695600D01*
X53086000Y-58369200D02*
X55905400Y-55549800D01*
X51333400Y-58369200D02*
X53086000Y-58369200D01*
X49834800Y-56870600D02*
X51333400Y-58369200D01*
%TO.N,/D3*%
X58496200Y-53746400D02*
X58445400Y-53695600D01*
X58496200Y-56362600D02*
X58496200Y-53746400D01*
%TO.N,/D4*%
X60985400Y-56261000D02*
X61137800Y-56413400D01*
X60985400Y-53695600D02*
X60985400Y-56261000D01*
%TO.N,/A4*%
X63525400Y-39243000D02*
X63525400Y-38455600D01*
X56972200Y-45796200D02*
X63525400Y-39243000D01*
X64947800Y-37033200D02*
X63525400Y-38455600D01*
X81630882Y-37033200D02*
X64947800Y-37033200D01*
X83935199Y-39337517D02*
X81630882Y-37033200D01*
X83935199Y-44209599D02*
X83935199Y-39337517D01*
X85166200Y-45440600D02*
X83935199Y-44209599D01*
%TO.N,/D5*%
X63576200Y-53746400D02*
X63525400Y-53695600D01*
X63576200Y-56464200D02*
X63576200Y-53746400D01*
%TO.N,/A5*%
X56972200Y-42468800D02*
X60985400Y-38455600D01*
X56972200Y-43611800D02*
X56972200Y-42468800D01*
X81076800Y-65151000D02*
X83141549Y-63086251D01*
X77673200Y-65151000D02*
X81076800Y-65151000D01*
X85140999Y-42875399D02*
X85140999Y-38531999D01*
X85166200Y-42900600D02*
X85140999Y-42875399D01*
X85140999Y-38531999D02*
X82981800Y-36372800D01*
X63068200Y-36372800D02*
X60985400Y-38455600D01*
X82981800Y-36372800D02*
X63068200Y-36372800D01*
%TO.N,/D6*%
X66116200Y-53746400D02*
X66065400Y-53695600D01*
X66116200Y-56515000D02*
X66116200Y-53746400D01*
%TO.N,/D7*%
X68605400Y-60705682D02*
X68605400Y-53695600D01*
X51831919Y-65621601D02*
X63689481Y-65621601D01*
X51243799Y-63947719D02*
X51243799Y-65033481D01*
X63689481Y-65621601D02*
X68605400Y-60705682D01*
X49424480Y-62128400D02*
X51243799Y-63947719D01*
X47091600Y-62128400D02*
X49424480Y-62128400D01*
X51243799Y-65033481D02*
X51831919Y-65621601D01*
X41173400Y-56210200D02*
X47091600Y-62128400D01*
%TO.N,/RST_A*%
X50825400Y-40182800D02*
X46177200Y-44831000D01*
X50825400Y-38455600D02*
X50825400Y-40182800D01*
%TO.N,Net-(D3-Pad3)*%
X32918400Y-41166400D02*
X36025200Y-44273200D01*
X32918400Y-33788759D02*
X32918400Y-41166400D01*
X34220559Y-32486600D02*
X32918400Y-33788759D01*
X36753800Y-32486600D02*
X34220559Y-32486600D01*
X38608000Y-34340800D02*
X36753800Y-32486600D01*
%TD*%
%TO.N,GND*%
X88518744Y-56600368D02*
X88703644Y-56676956D01*
X88899933Y-56716000D01*
X89100067Y-56716000D01*
X89296356Y-56676956D01*
X89391844Y-56637403D01*
X89492644Y-56679156D01*
X89688933Y-56718200D01*
X89889067Y-56718200D01*
X89962401Y-56703613D01*
X89962401Y-66723628D01*
X76016000Y-66724204D01*
X76016000Y-66549933D01*
X75976956Y-66353644D01*
X75965091Y-66325000D01*
X75976956Y-66296356D01*
X76016000Y-66100067D01*
X76016000Y-65899933D01*
X75976956Y-65703644D01*
X75900368Y-65518744D01*
X75887844Y-65500000D01*
X75900368Y-65481256D01*
X75976956Y-65296356D01*
X76016000Y-65100067D01*
X76016000Y-64899933D01*
X75976956Y-64703644D01*
X75900368Y-64518744D01*
X75887844Y-64500000D01*
X75900368Y-64481256D01*
X75975032Y-64301000D01*
X76185128Y-64301000D01*
X76185128Y-66001000D01*
X76197388Y-66125482D01*
X76233698Y-66245180D01*
X76292663Y-66355494D01*
X76372015Y-66452185D01*
X76468706Y-66531537D01*
X76579020Y-66590502D01*
X76698718Y-66626812D01*
X76823200Y-66639072D01*
X78523200Y-66639072D01*
X78647682Y-66626812D01*
X78767380Y-66590502D01*
X78877694Y-66531537D01*
X78974385Y-66452185D01*
X79053737Y-66355494D01*
X79112702Y-66245180D01*
X79149012Y-66125482D01*
X79161272Y-66001000D01*
X79161272Y-65913000D01*
X81039377Y-65913000D01*
X81076800Y-65916686D01*
X81114223Y-65913000D01*
X81114226Y-65913000D01*
X81226178Y-65901974D01*
X81369815Y-65858402D01*
X81502192Y-65787645D01*
X81618222Y-65692422D01*
X81642084Y-65663346D01*
X82820022Y-64485408D01*
X83000214Y-64521251D01*
X83282884Y-64521251D01*
X83560123Y-64466104D01*
X83821276Y-64357931D01*
X84056308Y-64200888D01*
X84256186Y-64001010D01*
X84413229Y-63765978D01*
X84521402Y-63504825D01*
X84535016Y-63436380D01*
X85334863Y-63436380D01*
X85430047Y-63702542D01*
X85575328Y-63945021D01*
X85765123Y-64154498D01*
X85992138Y-64322922D01*
X86247649Y-64443822D01*
X86383522Y-64485039D01*
X86606651Y-64363144D01*
X86606651Y-63213251D01*
X86860651Y-63213251D01*
X86860651Y-64363144D01*
X87083780Y-64485039D01*
X87349942Y-64389855D01*
X87592421Y-64244574D01*
X87801898Y-64054779D01*
X87970322Y-63827764D01*
X88091222Y-63572253D01*
X88132439Y-63436380D01*
X88010544Y-63213251D01*
X86860651Y-63213251D01*
X86606651Y-63213251D01*
X85456758Y-63213251D01*
X85334863Y-63436380D01*
X84535016Y-63436380D01*
X84576549Y-63227586D01*
X84576549Y-62944916D01*
X84535017Y-62736122D01*
X85334863Y-62736122D01*
X85456758Y-62959251D01*
X86606651Y-62959251D01*
X86606651Y-61809358D01*
X86860651Y-61809358D01*
X86860651Y-62959251D01*
X88010544Y-62959251D01*
X88132439Y-62736122D01*
X88037255Y-62469960D01*
X87891974Y-62227481D01*
X87702179Y-62018004D01*
X87475164Y-61849580D01*
X87219653Y-61728680D01*
X87083780Y-61687463D01*
X86860651Y-61809358D01*
X86606651Y-61809358D01*
X86383522Y-61687463D01*
X86117360Y-61782647D01*
X85874881Y-61927928D01*
X85665404Y-62117723D01*
X85496980Y-62344738D01*
X85376080Y-62600249D01*
X85334863Y-62736122D01*
X84535017Y-62736122D01*
X84521402Y-62667677D01*
X84413229Y-62406524D01*
X84256186Y-62171492D01*
X84056308Y-61971614D01*
X83821276Y-61814571D01*
X83560123Y-61706398D01*
X83442490Y-61682999D01*
X85269378Y-61682999D01*
X85306801Y-61686685D01*
X85344224Y-61682999D01*
X85344227Y-61682999D01*
X85456179Y-61671973D01*
X85599816Y-61628401D01*
X85732193Y-61557644D01*
X85848223Y-61462421D01*
X85872085Y-61433345D01*
X86412124Y-60893306D01*
X86592316Y-60929149D01*
X86874986Y-60929149D01*
X87152225Y-60874002D01*
X87413378Y-60765829D01*
X87648410Y-60608786D01*
X87848288Y-60408908D01*
X88005331Y-60173876D01*
X88113504Y-59912723D01*
X88168651Y-59635484D01*
X88168651Y-59352814D01*
X88113504Y-59075575D01*
X88005331Y-58814422D01*
X87848288Y-58579390D01*
X87648410Y-58379512D01*
X87413378Y-58222469D01*
X87152225Y-58114296D01*
X86874986Y-58059149D01*
X86592316Y-58059149D01*
X86315077Y-58114296D01*
X86053924Y-58222469D01*
X85818892Y-58379512D01*
X85619014Y-58579390D01*
X85461971Y-58814422D01*
X85353798Y-59075575D01*
X85298651Y-59352814D01*
X85298651Y-59635484D01*
X85334494Y-59815676D01*
X84991171Y-60158999D01*
X84419391Y-60158999D01*
X84521402Y-59912723D01*
X84576549Y-59635484D01*
X84576549Y-59352814D01*
X84521402Y-59075575D01*
X84413229Y-58814422D01*
X84256186Y-58579390D01*
X84056308Y-58379512D01*
X83821276Y-58222469D01*
X83560123Y-58114296D01*
X83282884Y-58059149D01*
X83000214Y-58059149D01*
X82722975Y-58114296D01*
X82461822Y-58222469D01*
X82226790Y-58379512D01*
X82026912Y-58579390D01*
X81869869Y-58814422D01*
X81761696Y-59075575D01*
X81706549Y-59352814D01*
X81706549Y-59635484D01*
X81761696Y-59912723D01*
X81863707Y-60158999D01*
X79158200Y-60158999D01*
X79158200Y-59924740D01*
X79101132Y-59637842D01*
X78989190Y-59367589D01*
X78826675Y-59124368D01*
X78619832Y-58917525D01*
X78437666Y-58795805D01*
X78554555Y-58726178D01*
X78770788Y-58531269D01*
X78944841Y-58297920D01*
X79070025Y-58035099D01*
X79114676Y-57887890D01*
X78993355Y-57658000D01*
X77800200Y-57658000D01*
X77800200Y-57678000D01*
X77546200Y-57678000D01*
X77546200Y-57658000D01*
X76353045Y-57658000D01*
X76231724Y-57887890D01*
X76276375Y-58035099D01*
X76401559Y-58297920D01*
X76575612Y-58531269D01*
X76791845Y-58726178D01*
X76908734Y-58795805D01*
X76726568Y-58917525D01*
X76519725Y-59124368D01*
X76357210Y-59367589D01*
X76245268Y-59637842D01*
X76188200Y-59924740D01*
X76188200Y-60217260D01*
X76245268Y-60504158D01*
X76357210Y-60774411D01*
X76519725Y-61017632D01*
X76726568Y-61224475D01*
X76900960Y-61341000D01*
X76726568Y-61457525D01*
X76519725Y-61664368D01*
X76357210Y-61907589D01*
X76245268Y-62177842D01*
X76188200Y-62464740D01*
X76188200Y-62757260D01*
X76245268Y-63044158D01*
X76357210Y-63314411D01*
X76519725Y-63557632D01*
X76651580Y-63689487D01*
X76579020Y-63711498D01*
X76468706Y-63770463D01*
X76372015Y-63849815D01*
X76292663Y-63946506D01*
X76233698Y-64056820D01*
X76197388Y-64176518D01*
X76185128Y-64301000D01*
X75975032Y-64301000D01*
X75976956Y-64296356D01*
X76016000Y-64100067D01*
X76016000Y-63899933D01*
X75976956Y-63703644D01*
X75900368Y-63518744D01*
X75887844Y-63500000D01*
X75900368Y-63481256D01*
X75976956Y-63296356D01*
X76016000Y-63100067D01*
X76016000Y-62899933D01*
X75976956Y-62703644D01*
X75900368Y-62518744D01*
X75887844Y-62500000D01*
X75900368Y-62481256D01*
X75976956Y-62296356D01*
X76016000Y-62100067D01*
X76016000Y-61899933D01*
X75976956Y-61703644D01*
X75900368Y-61518744D01*
X75887844Y-61500000D01*
X75900368Y-61481256D01*
X75976956Y-61296356D01*
X76016000Y-61100067D01*
X76016000Y-60899933D01*
X75976956Y-60703644D01*
X75900368Y-60518744D01*
X75887844Y-60500000D01*
X75900368Y-60481256D01*
X75976956Y-60296356D01*
X76016000Y-60100067D01*
X76016000Y-59899933D01*
X75976956Y-59703644D01*
X75900368Y-59518744D01*
X75887844Y-59500000D01*
X75900368Y-59481256D01*
X75976956Y-59296356D01*
X76016000Y-59100067D01*
X76016000Y-58899933D01*
X75976956Y-58703644D01*
X75900368Y-58518744D01*
X75887844Y-58500000D01*
X75900368Y-58481256D01*
X75976956Y-58296356D01*
X76016000Y-58100067D01*
X76016000Y-57899933D01*
X75976956Y-57703644D01*
X75900368Y-57518744D01*
X75887844Y-57500000D01*
X75900368Y-57481256D01*
X75976956Y-57296356D01*
X76016000Y-57100067D01*
X76016000Y-56899933D01*
X75979414Y-56716000D01*
X76100067Y-56716000D01*
X76296356Y-56676956D01*
X76481256Y-56600368D01*
X76500000Y-56587844D01*
X76518744Y-56600368D01*
X76522508Y-56601927D01*
X76401559Y-56764080D01*
X76276375Y-57026901D01*
X76231724Y-57174110D01*
X76353045Y-57404000D01*
X77546200Y-57404000D01*
X77546200Y-57384000D01*
X77800200Y-57384000D01*
X77800200Y-57404000D01*
X78993355Y-57404000D01*
X79114676Y-57174110D01*
X79070025Y-57026901D01*
X78944841Y-56764080D01*
X78908979Y-56716000D01*
X79100067Y-56716000D01*
X79296356Y-56676956D01*
X79481256Y-56600368D01*
X79500000Y-56587844D01*
X79518744Y-56600368D01*
X79703644Y-56676956D01*
X79899933Y-56716000D01*
X80100067Y-56716000D01*
X80296356Y-56676956D01*
X80481256Y-56600368D01*
X80500000Y-56587844D01*
X80518744Y-56600368D01*
X80703644Y-56676956D01*
X80899933Y-56716000D01*
X81100067Y-56716000D01*
X81296356Y-56676956D01*
X81481256Y-56600368D01*
X81500000Y-56587844D01*
X81518744Y-56600368D01*
X81703644Y-56676956D01*
X81899933Y-56716000D01*
X82100067Y-56716000D01*
X82296356Y-56676956D01*
X82481256Y-56600368D01*
X82500000Y-56587844D01*
X82518744Y-56600368D01*
X82703644Y-56676956D01*
X82899933Y-56716000D01*
X83100067Y-56716000D01*
X83296356Y-56676956D01*
X83481256Y-56600368D01*
X83500000Y-56587844D01*
X83518744Y-56600368D01*
X83703644Y-56676956D01*
X83899933Y-56716000D01*
X84100067Y-56716000D01*
X84296356Y-56676956D01*
X84481256Y-56600368D01*
X84500000Y-56587844D01*
X84518744Y-56600368D01*
X84703644Y-56676956D01*
X84899933Y-56716000D01*
X85100067Y-56716000D01*
X85296356Y-56676956D01*
X85481256Y-56600368D01*
X85500000Y-56587844D01*
X85518744Y-56600368D01*
X85703644Y-56676956D01*
X85899933Y-56716000D01*
X86100067Y-56716000D01*
X86296356Y-56676956D01*
X86481256Y-56600368D01*
X86500000Y-56587844D01*
X86518744Y-56600368D01*
X86703644Y-56676956D01*
X86899933Y-56716000D01*
X87100067Y-56716000D01*
X87296356Y-56676956D01*
X87481256Y-56600368D01*
X87500000Y-56587844D01*
X87518744Y-56600368D01*
X87703644Y-56676956D01*
X87899933Y-56716000D01*
X88100067Y-56716000D01*
X88296356Y-56676956D01*
X88481256Y-56600368D01*
X88500000Y-56587844D01*
X88518744Y-56600368D01*
%TA.AperFunction,Conductor*%
D26*
G36*
X88518744Y-56600368D02*
G01*
X88703644Y-56676956D01*
X88899933Y-56716000D01*
X89100067Y-56716000D01*
X89296356Y-56676956D01*
X89391844Y-56637403D01*
X89492644Y-56679156D01*
X89688933Y-56718200D01*
X89889067Y-56718200D01*
X89962401Y-56703613D01*
X89962401Y-66723628D01*
X76016000Y-66724204D01*
X76016000Y-66549933D01*
X75976956Y-66353644D01*
X75965091Y-66325000D01*
X75976956Y-66296356D01*
X76016000Y-66100067D01*
X76016000Y-65899933D01*
X75976956Y-65703644D01*
X75900368Y-65518744D01*
X75887844Y-65500000D01*
X75900368Y-65481256D01*
X75976956Y-65296356D01*
X76016000Y-65100067D01*
X76016000Y-64899933D01*
X75976956Y-64703644D01*
X75900368Y-64518744D01*
X75887844Y-64500000D01*
X75900368Y-64481256D01*
X75975032Y-64301000D01*
X76185128Y-64301000D01*
X76185128Y-66001000D01*
X76197388Y-66125482D01*
X76233698Y-66245180D01*
X76292663Y-66355494D01*
X76372015Y-66452185D01*
X76468706Y-66531537D01*
X76579020Y-66590502D01*
X76698718Y-66626812D01*
X76823200Y-66639072D01*
X78523200Y-66639072D01*
X78647682Y-66626812D01*
X78767380Y-66590502D01*
X78877694Y-66531537D01*
X78974385Y-66452185D01*
X79053737Y-66355494D01*
X79112702Y-66245180D01*
X79149012Y-66125482D01*
X79161272Y-66001000D01*
X79161272Y-65913000D01*
X81039377Y-65913000D01*
X81076800Y-65916686D01*
X81114223Y-65913000D01*
X81114226Y-65913000D01*
X81226178Y-65901974D01*
X81369815Y-65858402D01*
X81502192Y-65787645D01*
X81618222Y-65692422D01*
X81642084Y-65663346D01*
X82820022Y-64485408D01*
X83000214Y-64521251D01*
X83282884Y-64521251D01*
X83560123Y-64466104D01*
X83821276Y-64357931D01*
X84056308Y-64200888D01*
X84256186Y-64001010D01*
X84413229Y-63765978D01*
X84521402Y-63504825D01*
X84535016Y-63436380D01*
X85334863Y-63436380D01*
X85430047Y-63702542D01*
X85575328Y-63945021D01*
X85765123Y-64154498D01*
X85992138Y-64322922D01*
X86247649Y-64443822D01*
X86383522Y-64485039D01*
X86606651Y-64363144D01*
X86606651Y-63213251D01*
X86860651Y-63213251D01*
X86860651Y-64363144D01*
X87083780Y-64485039D01*
X87349942Y-64389855D01*
X87592421Y-64244574D01*
X87801898Y-64054779D01*
X87970322Y-63827764D01*
X88091222Y-63572253D01*
X88132439Y-63436380D01*
X88010544Y-63213251D01*
X86860651Y-63213251D01*
X86606651Y-63213251D01*
X85456758Y-63213251D01*
X85334863Y-63436380D01*
X84535016Y-63436380D01*
X84576549Y-63227586D01*
X84576549Y-62944916D01*
X84535017Y-62736122D01*
X85334863Y-62736122D01*
X85456758Y-62959251D01*
X86606651Y-62959251D01*
X86606651Y-61809358D01*
X86860651Y-61809358D01*
X86860651Y-62959251D01*
X88010544Y-62959251D01*
X88132439Y-62736122D01*
X88037255Y-62469960D01*
X87891974Y-62227481D01*
X87702179Y-62018004D01*
X87475164Y-61849580D01*
X87219653Y-61728680D01*
X87083780Y-61687463D01*
X86860651Y-61809358D01*
X86606651Y-61809358D01*
X86383522Y-61687463D01*
X86117360Y-61782647D01*
X85874881Y-61927928D01*
X85665404Y-62117723D01*
X85496980Y-62344738D01*
X85376080Y-62600249D01*
X85334863Y-62736122D01*
X84535017Y-62736122D01*
X84521402Y-62667677D01*
X84413229Y-62406524D01*
X84256186Y-62171492D01*
X84056308Y-61971614D01*
X83821276Y-61814571D01*
X83560123Y-61706398D01*
X83442490Y-61682999D01*
X85269378Y-61682999D01*
X85306801Y-61686685D01*
X85344224Y-61682999D01*
X85344227Y-61682999D01*
X85456179Y-61671973D01*
X85599816Y-61628401D01*
X85732193Y-61557644D01*
X85848223Y-61462421D01*
X85872085Y-61433345D01*
X86412124Y-60893306D01*
X86592316Y-60929149D01*
X86874986Y-60929149D01*
X87152225Y-60874002D01*
X87413378Y-60765829D01*
X87648410Y-60608786D01*
X87848288Y-60408908D01*
X88005331Y-60173876D01*
X88113504Y-59912723D01*
X88168651Y-59635484D01*
X88168651Y-59352814D01*
X88113504Y-59075575D01*
X88005331Y-58814422D01*
X87848288Y-58579390D01*
X87648410Y-58379512D01*
X87413378Y-58222469D01*
X87152225Y-58114296D01*
X86874986Y-58059149D01*
X86592316Y-58059149D01*
X86315077Y-58114296D01*
X86053924Y-58222469D01*
X85818892Y-58379512D01*
X85619014Y-58579390D01*
X85461971Y-58814422D01*
X85353798Y-59075575D01*
X85298651Y-59352814D01*
X85298651Y-59635484D01*
X85334494Y-59815676D01*
X84991171Y-60158999D01*
X84419391Y-60158999D01*
X84521402Y-59912723D01*
X84576549Y-59635484D01*
X84576549Y-59352814D01*
X84521402Y-59075575D01*
X84413229Y-58814422D01*
X84256186Y-58579390D01*
X84056308Y-58379512D01*
X83821276Y-58222469D01*
X83560123Y-58114296D01*
X83282884Y-58059149D01*
X83000214Y-58059149D01*
X82722975Y-58114296D01*
X82461822Y-58222469D01*
X82226790Y-58379512D01*
X82026912Y-58579390D01*
X81869869Y-58814422D01*
X81761696Y-59075575D01*
X81706549Y-59352814D01*
X81706549Y-59635484D01*
X81761696Y-59912723D01*
X81863707Y-60158999D01*
X79158200Y-60158999D01*
X79158200Y-59924740D01*
X79101132Y-59637842D01*
X78989190Y-59367589D01*
X78826675Y-59124368D01*
X78619832Y-58917525D01*
X78437666Y-58795805D01*
X78554555Y-58726178D01*
X78770788Y-58531269D01*
X78944841Y-58297920D01*
X79070025Y-58035099D01*
X79114676Y-57887890D01*
X78993355Y-57658000D01*
X77800200Y-57658000D01*
X77800200Y-57678000D01*
X77546200Y-57678000D01*
X77546200Y-57658000D01*
X76353045Y-57658000D01*
X76231724Y-57887890D01*
X76276375Y-58035099D01*
X76401559Y-58297920D01*
X76575612Y-58531269D01*
X76791845Y-58726178D01*
X76908734Y-58795805D01*
X76726568Y-58917525D01*
X76519725Y-59124368D01*
X76357210Y-59367589D01*
X76245268Y-59637842D01*
X76188200Y-59924740D01*
X76188200Y-60217260D01*
X76245268Y-60504158D01*
X76357210Y-60774411D01*
X76519725Y-61017632D01*
X76726568Y-61224475D01*
X76900960Y-61341000D01*
X76726568Y-61457525D01*
X76519725Y-61664368D01*
X76357210Y-61907589D01*
X76245268Y-62177842D01*
X76188200Y-62464740D01*
X76188200Y-62757260D01*
X76245268Y-63044158D01*
X76357210Y-63314411D01*
X76519725Y-63557632D01*
X76651580Y-63689487D01*
X76579020Y-63711498D01*
X76468706Y-63770463D01*
X76372015Y-63849815D01*
X76292663Y-63946506D01*
X76233698Y-64056820D01*
X76197388Y-64176518D01*
X76185128Y-64301000D01*
X75975032Y-64301000D01*
X75976956Y-64296356D01*
X76016000Y-64100067D01*
X76016000Y-63899933D01*
X75976956Y-63703644D01*
X75900368Y-63518744D01*
X75887844Y-63500000D01*
X75900368Y-63481256D01*
X75976956Y-63296356D01*
X76016000Y-63100067D01*
X76016000Y-62899933D01*
X75976956Y-62703644D01*
X75900368Y-62518744D01*
X75887844Y-62500000D01*
X75900368Y-62481256D01*
X75976956Y-62296356D01*
X76016000Y-62100067D01*
X76016000Y-61899933D01*
X75976956Y-61703644D01*
X75900368Y-61518744D01*
X75887844Y-61500000D01*
X75900368Y-61481256D01*
X75976956Y-61296356D01*
X76016000Y-61100067D01*
X76016000Y-60899933D01*
X75976956Y-60703644D01*
X75900368Y-60518744D01*
X75887844Y-60500000D01*
X75900368Y-60481256D01*
X75976956Y-60296356D01*
X76016000Y-60100067D01*
X76016000Y-59899933D01*
X75976956Y-59703644D01*
X75900368Y-59518744D01*
X75887844Y-59500000D01*
X75900368Y-59481256D01*
X75976956Y-59296356D01*
X76016000Y-59100067D01*
X76016000Y-58899933D01*
X75976956Y-58703644D01*
X75900368Y-58518744D01*
X75887844Y-58500000D01*
X75900368Y-58481256D01*
X75976956Y-58296356D01*
X76016000Y-58100067D01*
X76016000Y-57899933D01*
X75976956Y-57703644D01*
X75900368Y-57518744D01*
X75887844Y-57500000D01*
X75900368Y-57481256D01*
X75976956Y-57296356D01*
X76016000Y-57100067D01*
X76016000Y-56899933D01*
X75979414Y-56716000D01*
X76100067Y-56716000D01*
X76296356Y-56676956D01*
X76481256Y-56600368D01*
X76500000Y-56587844D01*
X76518744Y-56600368D01*
X76522508Y-56601927D01*
X76401559Y-56764080D01*
X76276375Y-57026901D01*
X76231724Y-57174110D01*
X76353045Y-57404000D01*
X77546200Y-57404000D01*
X77546200Y-57384000D01*
X77800200Y-57384000D01*
X77800200Y-57404000D01*
X78993355Y-57404000D01*
X79114676Y-57174110D01*
X79070025Y-57026901D01*
X78944841Y-56764080D01*
X78908979Y-56716000D01*
X79100067Y-56716000D01*
X79296356Y-56676956D01*
X79481256Y-56600368D01*
X79500000Y-56587844D01*
X79518744Y-56600368D01*
X79703644Y-56676956D01*
X79899933Y-56716000D01*
X80100067Y-56716000D01*
X80296356Y-56676956D01*
X80481256Y-56600368D01*
X80500000Y-56587844D01*
X80518744Y-56600368D01*
X80703644Y-56676956D01*
X80899933Y-56716000D01*
X81100067Y-56716000D01*
X81296356Y-56676956D01*
X81481256Y-56600368D01*
X81500000Y-56587844D01*
X81518744Y-56600368D01*
X81703644Y-56676956D01*
X81899933Y-56716000D01*
X82100067Y-56716000D01*
X82296356Y-56676956D01*
X82481256Y-56600368D01*
X82500000Y-56587844D01*
X82518744Y-56600368D01*
X82703644Y-56676956D01*
X82899933Y-56716000D01*
X83100067Y-56716000D01*
X83296356Y-56676956D01*
X83481256Y-56600368D01*
X83500000Y-56587844D01*
X83518744Y-56600368D01*
X83703644Y-56676956D01*
X83899933Y-56716000D01*
X84100067Y-56716000D01*
X84296356Y-56676956D01*
X84481256Y-56600368D01*
X84500000Y-56587844D01*
X84518744Y-56600368D01*
X84703644Y-56676956D01*
X84899933Y-56716000D01*
X85100067Y-56716000D01*
X85296356Y-56676956D01*
X85481256Y-56600368D01*
X85500000Y-56587844D01*
X85518744Y-56600368D01*
X85703644Y-56676956D01*
X85899933Y-56716000D01*
X86100067Y-56716000D01*
X86296356Y-56676956D01*
X86481256Y-56600368D01*
X86500000Y-56587844D01*
X86518744Y-56600368D01*
X86703644Y-56676956D01*
X86899933Y-56716000D01*
X87100067Y-56716000D01*
X87296356Y-56676956D01*
X87481256Y-56600368D01*
X87500000Y-56587844D01*
X87518744Y-56600368D01*
X87703644Y-56676956D01*
X87899933Y-56716000D01*
X88100067Y-56716000D01*
X88296356Y-56676956D01*
X88481256Y-56600368D01*
X88500000Y-56587844D01*
X88518744Y-56600368D01*
G37*
%TD.AperFunction*%
D25*
X37342841Y-48106261D02*
X37585795Y-48206896D01*
X37843714Y-48258200D01*
X38106686Y-48258200D01*
X38211684Y-48237314D01*
X38760400Y-48786031D01*
X38760400Y-51337145D01*
X38638760Y-51043479D01*
X38377750Y-50652851D01*
X38045549Y-50320650D01*
X37654921Y-50059640D01*
X37220879Y-49879854D01*
X36760102Y-49788200D01*
X36290298Y-49788200D01*
X35829521Y-49879854D01*
X35395479Y-50059640D01*
X35004851Y-50320650D01*
X34672650Y-50652851D01*
X34411640Y-51043479D01*
X34231854Y-51477521D01*
X34140200Y-51938298D01*
X34140200Y-52408102D01*
X34231854Y-52868879D01*
X34411640Y-53302921D01*
X34672650Y-53693549D01*
X35004851Y-54025750D01*
X35395479Y-54286760D01*
X35829521Y-54466546D01*
X36290298Y-54558200D01*
X36760102Y-54558200D01*
X37220879Y-54466546D01*
X37654921Y-54286760D01*
X38045549Y-54025750D01*
X38377750Y-53693549D01*
X38638760Y-53302921D01*
X38760400Y-53009255D01*
X38760401Y-56636107D01*
X38693600Y-56629528D01*
X37979350Y-56632600D01*
X37820600Y-56791350D01*
X37820600Y-58140600D01*
X37840600Y-58140600D01*
X37840600Y-58394600D01*
X37820600Y-58394600D01*
X37820600Y-59743850D01*
X37979350Y-59902600D01*
X38693600Y-59905672D01*
X38760401Y-59899093D01*
X38760401Y-61971201D01*
X38756714Y-62008634D01*
X38771427Y-62158012D01*
X38814999Y-62301649D01*
X38885755Y-62434026D01*
X38955282Y-62518744D01*
X38980979Y-62550056D01*
X39010049Y-62573913D01*
X40308085Y-63871950D01*
X40331943Y-63901021D01*
X40447973Y-63996244D01*
X40580350Y-64067001D01*
X40723987Y-64110573D01*
X40835939Y-64121599D01*
X40835941Y-64121599D01*
X40873364Y-64125285D01*
X40910787Y-64121599D01*
X43419330Y-64121599D01*
X43377550Y-64290560D01*
X43364988Y-64563092D01*
X43405835Y-64832838D01*
X43415502Y-64859601D01*
X40779350Y-64859601D01*
X35721732Y-59801983D01*
X35928063Y-59716518D01*
X36138409Y-59575970D01*
X36163063Y-59622094D01*
X36242415Y-59718785D01*
X36339106Y-59798137D01*
X36449420Y-59857102D01*
X36569118Y-59893412D01*
X36693600Y-59905672D01*
X37407850Y-59902600D01*
X37566600Y-59743850D01*
X37566600Y-58394600D01*
X37546600Y-58394600D01*
X37546600Y-58140600D01*
X37566600Y-58140600D01*
X37566600Y-56791350D01*
X37407850Y-56632600D01*
X36693600Y-56629528D01*
X36569118Y-56641788D01*
X36449420Y-56678098D01*
X36339106Y-56737063D01*
X36242415Y-56816415D01*
X36163063Y-56913106D01*
X36138409Y-56959230D01*
X35928063Y-56818682D01*
X35630512Y-56695432D01*
X35314633Y-56632600D01*
X34992567Y-56632600D01*
X34676688Y-56695432D01*
X34379137Y-56818682D01*
X34137600Y-56980072D01*
X34137600Y-50538430D01*
X35788716Y-48887314D01*
X35893714Y-48908200D01*
X36156686Y-48908200D01*
X36414605Y-48856896D01*
X36657559Y-48756261D01*
X36876213Y-48610162D01*
X37062162Y-48424213D01*
X37208261Y-48205559D01*
X37269649Y-48057356D01*
X37342841Y-48106261D01*
%TA.AperFunction,Conductor*%
D26*
G36*
X37342841Y-48106261D02*
G01*
X37585795Y-48206896D01*
X37843714Y-48258200D01*
X38106686Y-48258200D01*
X38211684Y-48237314D01*
X38760400Y-48786031D01*
X38760400Y-51337145D01*
X38638760Y-51043479D01*
X38377750Y-50652851D01*
X38045549Y-50320650D01*
X37654921Y-50059640D01*
X37220879Y-49879854D01*
X36760102Y-49788200D01*
X36290298Y-49788200D01*
X35829521Y-49879854D01*
X35395479Y-50059640D01*
X35004851Y-50320650D01*
X34672650Y-50652851D01*
X34411640Y-51043479D01*
X34231854Y-51477521D01*
X34140200Y-51938298D01*
X34140200Y-52408102D01*
X34231854Y-52868879D01*
X34411640Y-53302921D01*
X34672650Y-53693549D01*
X35004851Y-54025750D01*
X35395479Y-54286760D01*
X35829521Y-54466546D01*
X36290298Y-54558200D01*
X36760102Y-54558200D01*
X37220879Y-54466546D01*
X37654921Y-54286760D01*
X38045549Y-54025750D01*
X38377750Y-53693549D01*
X38638760Y-53302921D01*
X38760400Y-53009255D01*
X38760401Y-56636107D01*
X38693600Y-56629528D01*
X37979350Y-56632600D01*
X37820600Y-56791350D01*
X37820600Y-58140600D01*
X37840600Y-58140600D01*
X37840600Y-58394600D01*
X37820600Y-58394600D01*
X37820600Y-59743850D01*
X37979350Y-59902600D01*
X38693600Y-59905672D01*
X38760401Y-59899093D01*
X38760401Y-61971201D01*
X38756714Y-62008634D01*
X38771427Y-62158012D01*
X38814999Y-62301649D01*
X38885755Y-62434026D01*
X38955282Y-62518744D01*
X38980979Y-62550056D01*
X39010049Y-62573913D01*
X40308085Y-63871950D01*
X40331943Y-63901021D01*
X40447973Y-63996244D01*
X40580350Y-64067001D01*
X40723987Y-64110573D01*
X40835939Y-64121599D01*
X40835941Y-64121599D01*
X40873364Y-64125285D01*
X40910787Y-64121599D01*
X43419330Y-64121599D01*
X43377550Y-64290560D01*
X43364988Y-64563092D01*
X43405835Y-64832838D01*
X43415502Y-64859601D01*
X40779350Y-64859601D01*
X35721732Y-59801983D01*
X35928063Y-59716518D01*
X36138409Y-59575970D01*
X36163063Y-59622094D01*
X36242415Y-59718785D01*
X36339106Y-59798137D01*
X36449420Y-59857102D01*
X36569118Y-59893412D01*
X36693600Y-59905672D01*
X37407850Y-59902600D01*
X37566600Y-59743850D01*
X37566600Y-58394600D01*
X37546600Y-58394600D01*
X37546600Y-58140600D01*
X37566600Y-58140600D01*
X37566600Y-56791350D01*
X37407850Y-56632600D01*
X36693600Y-56629528D01*
X36569118Y-56641788D01*
X36449420Y-56678098D01*
X36339106Y-56737063D01*
X36242415Y-56816415D01*
X36163063Y-56913106D01*
X36138409Y-56959230D01*
X35928063Y-56818682D01*
X35630512Y-56695432D01*
X35314633Y-56632600D01*
X34992567Y-56632600D01*
X34676688Y-56695432D01*
X34379137Y-56818682D01*
X34137600Y-56980072D01*
X34137600Y-50538430D01*
X35788716Y-48887314D01*
X35893714Y-48908200D01*
X36156686Y-48908200D01*
X36414605Y-48856896D01*
X36657559Y-48756261D01*
X36876213Y-48610162D01*
X37062162Y-48424213D01*
X37208261Y-48205559D01*
X37269649Y-48057356D01*
X37342841Y-48106261D01*
G37*
%TD.AperFunction*%
D25*
X44948548Y-64476458D02*
X44934405Y-64490600D01*
X44948548Y-64504743D01*
X44768943Y-64684348D01*
X44754800Y-64670205D01*
X44740658Y-64684348D01*
X44561053Y-64504743D01*
X44575195Y-64490600D01*
X44561053Y-64476458D01*
X44740658Y-64296853D01*
X44754800Y-64310995D01*
X44768943Y-64296853D01*
X44948548Y-64476458D01*
%TA.AperFunction,Conductor*%
D26*
G36*
X44948548Y-64476458D02*
G01*
X44934405Y-64490600D01*
X44948548Y-64504743D01*
X44768943Y-64684348D01*
X44754800Y-64670205D01*
X44740658Y-64684348D01*
X44561053Y-64504743D01*
X44575195Y-64490600D01*
X44561053Y-64476458D01*
X44740658Y-64296853D01*
X44754800Y-64310995D01*
X44768943Y-64296853D01*
X44948548Y-64476458D01*
G37*
%TD.AperFunction*%
D25*
X89962401Y-54700787D02*
X89889067Y-54686200D01*
X89688933Y-54686200D01*
X89492644Y-54725244D01*
X89397156Y-54764797D01*
X89296356Y-54723044D01*
X89100067Y-54684000D01*
X88899933Y-54684000D01*
X88703644Y-54723044D01*
X88518744Y-54799632D01*
X88500000Y-54812156D01*
X88481256Y-54799632D01*
X88296356Y-54723044D01*
X88100067Y-54684000D01*
X87899933Y-54684000D01*
X87703644Y-54723044D01*
X87518744Y-54799632D01*
X87500000Y-54812156D01*
X87481256Y-54799632D01*
X87296356Y-54723044D01*
X87100067Y-54684000D01*
X86899933Y-54684000D01*
X86703644Y-54723044D01*
X86518744Y-54799632D01*
X86500000Y-54812156D01*
X86481256Y-54799632D01*
X86296356Y-54723044D01*
X86100067Y-54684000D01*
X85899933Y-54684000D01*
X85703644Y-54723044D01*
X85518744Y-54799632D01*
X85500000Y-54812156D01*
X85481256Y-54799632D01*
X85296356Y-54723044D01*
X85100067Y-54684000D01*
X84899933Y-54684000D01*
X84703644Y-54723044D01*
X84518744Y-54799632D01*
X84500000Y-54812156D01*
X84481256Y-54799632D01*
X84296356Y-54723044D01*
X84100067Y-54684000D01*
X83899933Y-54684000D01*
X83703644Y-54723044D01*
X83518744Y-54799632D01*
X83500000Y-54812156D01*
X83481256Y-54799632D01*
X83296356Y-54723044D01*
X83100067Y-54684000D01*
X82899933Y-54684000D01*
X82703644Y-54723044D01*
X82518744Y-54799632D01*
X82500000Y-54812156D01*
X82481256Y-54799632D01*
X82304131Y-54726265D01*
X82420037Y-54610359D01*
X82577080Y-54375327D01*
X82685253Y-54114174D01*
X82740400Y-53836935D01*
X82740400Y-53554265D01*
X82685253Y-53277026D01*
X82577080Y-53015873D01*
X82420037Y-52780841D01*
X82220159Y-52580963D01*
X81985127Y-52423920D01*
X81723974Y-52315747D01*
X81446735Y-52260600D01*
X81164065Y-52260600D01*
X80886826Y-52315747D01*
X80625673Y-52423920D01*
X80390641Y-52580963D01*
X80190763Y-52780841D01*
X80035400Y-53013359D01*
X79880037Y-52780841D01*
X79680159Y-52580963D01*
X79445127Y-52423920D01*
X79183974Y-52315747D01*
X78906735Y-52260600D01*
X78624065Y-52260600D01*
X78346826Y-52315747D01*
X78085673Y-52423920D01*
X77850641Y-52580963D01*
X77650763Y-52780841D01*
X77495400Y-53013359D01*
X77340037Y-52780841D01*
X77140159Y-52580963D01*
X76905127Y-52423920D01*
X76643974Y-52315747D01*
X76366735Y-52260600D01*
X76084065Y-52260600D01*
X75806826Y-52315747D01*
X75545673Y-52423920D01*
X75310641Y-52580963D01*
X75110763Y-52780841D01*
X74955400Y-53013359D01*
X74800037Y-52780841D01*
X74600159Y-52580963D01*
X74365127Y-52423920D01*
X74103974Y-52315747D01*
X73826735Y-52260600D01*
X73544065Y-52260600D01*
X73266826Y-52315747D01*
X73005673Y-52423920D01*
X72770641Y-52580963D01*
X72570763Y-52780841D01*
X72415400Y-53013359D01*
X72260037Y-52780841D01*
X72060159Y-52580963D01*
X71825127Y-52423920D01*
X71563974Y-52315747D01*
X71286735Y-52260600D01*
X71004065Y-52260600D01*
X70726826Y-52315747D01*
X70465673Y-52423920D01*
X70230641Y-52580963D01*
X70030763Y-52780841D01*
X69875400Y-53013359D01*
X69720037Y-52780841D01*
X69520159Y-52580963D01*
X69285127Y-52423920D01*
X69023974Y-52315747D01*
X68746735Y-52260600D01*
X68628830Y-52260600D01*
X70036473Y-50852957D01*
X70216665Y-50888800D01*
X70499335Y-50888800D01*
X70556193Y-50877490D01*
X83724724Y-50877490D01*
X83769375Y-51024699D01*
X83894559Y-51287520D01*
X84068612Y-51520869D01*
X84284845Y-51715778D01*
X84534948Y-51864757D01*
X84809309Y-51962081D01*
X85039200Y-51841414D01*
X85039200Y-50647600D01*
X85293200Y-50647600D01*
X85293200Y-51841414D01*
X85523091Y-51962081D01*
X85797452Y-51864757D01*
X86047555Y-51715778D01*
X86263788Y-51520869D01*
X86437841Y-51287520D01*
X86563025Y-51024699D01*
X86607676Y-50877490D01*
X86486355Y-50647600D01*
X85293200Y-50647600D01*
X85039200Y-50647600D01*
X83846045Y-50647600D01*
X83724724Y-50877490D01*
X70556193Y-50877490D01*
X70776574Y-50833653D01*
X71037727Y-50725480D01*
X71272759Y-50568437D01*
X71472637Y-50368559D01*
X71629680Y-50133527D01*
X71737853Y-49872374D01*
X71793000Y-49595135D01*
X71793000Y-49312465D01*
X71737853Y-49035226D01*
X71629680Y-48774073D01*
X71472637Y-48539041D01*
X71272759Y-48339163D01*
X71037727Y-48182120D01*
X70776574Y-48073947D01*
X70499335Y-48018800D01*
X70216665Y-48018800D01*
X69939426Y-48073947D01*
X69678273Y-48182120D01*
X69443241Y-48339163D01*
X69243363Y-48539041D01*
X69109308Y-48739669D01*
X69094671Y-48712286D01*
X68850702Y-48640703D01*
X68037605Y-49453800D01*
X68051748Y-49467943D01*
X67872143Y-49647548D01*
X67858000Y-49633405D01*
X67044903Y-50446502D01*
X67116486Y-50690471D01*
X67371996Y-50811371D01*
X67646184Y-50880100D01*
X67844304Y-50889866D01*
X66734050Y-52000120D01*
X66704980Y-52023977D01*
X66681123Y-52053047D01*
X66681122Y-52053048D01*
X66609756Y-52140007D01*
X66539000Y-52272384D01*
X66521172Y-52331155D01*
X66483974Y-52315747D01*
X66206735Y-52260600D01*
X65924065Y-52260600D01*
X65646826Y-52315747D01*
X65385673Y-52423920D01*
X65150641Y-52580963D01*
X64950763Y-52780841D01*
X64795400Y-53013359D01*
X64640037Y-52780841D01*
X64440159Y-52580963D01*
X64205127Y-52423920D01*
X63943974Y-52315747D01*
X63666735Y-52260600D01*
X63384065Y-52260600D01*
X63106826Y-52315747D01*
X62845673Y-52423920D01*
X62610641Y-52580963D01*
X62410763Y-52780841D01*
X62255400Y-53013359D01*
X62100037Y-52780841D01*
X61900159Y-52580963D01*
X61665127Y-52423920D01*
X61403974Y-52315747D01*
X61126735Y-52260600D01*
X60844065Y-52260600D01*
X60566826Y-52315747D01*
X60305673Y-52423920D01*
X60070641Y-52580963D01*
X59870763Y-52780841D01*
X59715400Y-53013359D01*
X59560037Y-52780841D01*
X59360159Y-52580963D01*
X59125127Y-52423920D01*
X58863974Y-52315747D01*
X58586735Y-52260600D01*
X58304065Y-52260600D01*
X58026826Y-52315747D01*
X57765673Y-52423920D01*
X57584803Y-52544773D01*
X54564342Y-49524312D01*
X66417783Y-49524312D01*
X66459213Y-49803930D01*
X66554397Y-50070092D01*
X66621329Y-50195314D01*
X66865298Y-50266897D01*
X67678395Y-49453800D01*
X66865298Y-48640703D01*
X66621329Y-48712286D01*
X66500429Y-48967796D01*
X66431700Y-49241984D01*
X66417783Y-49524312D01*
X54564342Y-49524312D01*
X53501128Y-48461098D01*
X67044903Y-48461098D01*
X67858000Y-49274195D01*
X68671097Y-48461098D01*
X68599514Y-48217129D01*
X68344004Y-48096229D01*
X68069816Y-48027500D01*
X67787488Y-48013583D01*
X67507870Y-48055013D01*
X67241708Y-48150197D01*
X67116486Y-48217129D01*
X67044903Y-48461098D01*
X53501128Y-48461098D01*
X52560843Y-47520813D01*
X52680186Y-47584603D01*
X52823823Y-47628175D01*
X52935775Y-47639201D01*
X52935777Y-47639201D01*
X52973200Y-47642887D01*
X53010623Y-47639201D01*
X59003376Y-47639201D01*
X59040799Y-47642887D01*
X59078222Y-47639201D01*
X59078225Y-47639201D01*
X59190177Y-47628175D01*
X59333814Y-47584603D01*
X59466191Y-47513846D01*
X59582221Y-47418623D01*
X59606083Y-47389547D01*
X60552630Y-46443001D01*
X68784776Y-46443001D01*
X68822199Y-46446687D01*
X68859622Y-46443001D01*
X68859625Y-46443001D01*
X68971577Y-46431975D01*
X69115214Y-46388403D01*
X69247591Y-46317646D01*
X69363621Y-46222423D01*
X69387483Y-46193347D01*
X70138073Y-45442757D01*
X70318265Y-45478600D01*
X70600935Y-45478600D01*
X70878174Y-45423453D01*
X71139327Y-45315280D01*
X71374359Y-45158237D01*
X71574237Y-44958359D01*
X71676307Y-44805600D01*
X75730777Y-44805600D01*
X75768200Y-44809286D01*
X75805623Y-44805600D01*
X75805626Y-44805600D01*
X75917578Y-44794574D01*
X76061215Y-44751002D01*
X76193592Y-44680245D01*
X76309622Y-44585022D01*
X76333484Y-44555946D01*
X79121001Y-41768430D01*
X79121000Y-45784177D01*
X79117314Y-45821600D01*
X79121000Y-45859023D01*
X79121000Y-45859025D01*
X79132026Y-45970977D01*
X79175598Y-46114614D01*
X79191311Y-46144011D01*
X79246355Y-46246992D01*
X79276333Y-46283520D01*
X79341578Y-46363022D01*
X79370654Y-46386884D01*
X81476720Y-48492951D01*
X81500578Y-48522022D01*
X81616608Y-48617245D01*
X81748985Y-48688002D01*
X81892622Y-48731574D01*
X82004574Y-48742600D01*
X82004576Y-48742600D01*
X82041999Y-48746286D01*
X82079422Y-48742600D01*
X83889358Y-48742600D01*
X84012725Y-48927232D01*
X84219568Y-49134075D01*
X84401734Y-49255795D01*
X84284845Y-49325422D01*
X84068612Y-49520331D01*
X83894559Y-49753680D01*
X83769375Y-50016501D01*
X83724724Y-50163710D01*
X83846045Y-50393600D01*
X85039200Y-50393600D01*
X85039200Y-50373600D01*
X85293200Y-50373600D01*
X85293200Y-50393600D01*
X86486355Y-50393600D01*
X86607676Y-50163710D01*
X86563025Y-50016501D01*
X86437841Y-49753680D01*
X86263788Y-49520331D01*
X86047555Y-49325422D01*
X85930666Y-49255795D01*
X86112832Y-49134075D01*
X86319675Y-48927232D01*
X86482190Y-48684011D01*
X86594132Y-48413758D01*
X86651200Y-48126860D01*
X86651200Y-47834340D01*
X86594132Y-47547442D01*
X86482190Y-47277189D01*
X86319675Y-47033968D01*
X86112832Y-46827125D01*
X85938440Y-46710600D01*
X86112832Y-46594075D01*
X86319675Y-46387232D01*
X86482190Y-46144011D01*
X86594132Y-45873758D01*
X86651200Y-45586860D01*
X86651200Y-45294340D01*
X86594132Y-45007442D01*
X86482190Y-44737189D01*
X86319675Y-44493968D01*
X86187820Y-44362113D01*
X86260380Y-44340102D01*
X86370694Y-44281137D01*
X86467385Y-44201785D01*
X86546737Y-44105094D01*
X86605702Y-43994780D01*
X86642012Y-43875082D01*
X86654272Y-43750600D01*
X86654272Y-42050600D01*
X86642012Y-41926118D01*
X86605702Y-41806420D01*
X86546737Y-41696106D01*
X86467385Y-41599415D01*
X86370694Y-41520063D01*
X86260380Y-41461098D01*
X86140682Y-41424788D01*
X86016200Y-41412528D01*
X85902999Y-41412528D01*
X85902999Y-38569422D01*
X85906685Y-38531999D01*
X85901299Y-38477314D01*
X85891973Y-38382621D01*
X85848401Y-38238984D01*
X85815464Y-38177363D01*
X85777644Y-38106606D01*
X85730879Y-38049624D01*
X85682421Y-37990577D01*
X85653345Y-37966715D01*
X83547084Y-35860454D01*
X83523222Y-35831378D01*
X83407192Y-35736155D01*
X83274815Y-35665398D01*
X83131178Y-35621826D01*
X83019226Y-35610800D01*
X83019223Y-35610800D01*
X82981800Y-35607114D01*
X82944377Y-35610800D01*
X75757279Y-35610800D01*
X75795280Y-35553927D01*
X75903453Y-35292774D01*
X75958600Y-35015535D01*
X75958600Y-34732865D01*
X85788600Y-34732865D01*
X85788600Y-35015535D01*
X85843747Y-35292774D01*
X85951920Y-35553927D01*
X86108963Y-35788959D01*
X86308841Y-35988837D01*
X86543873Y-36145880D01*
X86805026Y-36254053D01*
X87082265Y-36309200D01*
X87364935Y-36309200D01*
X87642174Y-36254053D01*
X87903327Y-36145880D01*
X88138359Y-35988837D01*
X88338237Y-35788959D01*
X88495280Y-35553927D01*
X88603453Y-35292774D01*
X88658600Y-35015535D01*
X88658600Y-34732865D01*
X88603453Y-34455626D01*
X88495280Y-34194473D01*
X88338237Y-33959441D01*
X88138359Y-33759563D01*
X87903327Y-33602520D01*
X87642174Y-33494347D01*
X87364935Y-33439200D01*
X87082265Y-33439200D01*
X86805026Y-33494347D01*
X86543873Y-33602520D01*
X86308841Y-33759563D01*
X86108963Y-33959441D01*
X85951920Y-34194473D01*
X85843747Y-34455626D01*
X85788600Y-34732865D01*
X75958600Y-34732865D01*
X75903453Y-34455626D01*
X75795280Y-34194473D01*
X75638237Y-33959441D01*
X75438359Y-33759563D01*
X75203327Y-33602520D01*
X74942174Y-33494347D01*
X74664935Y-33439200D01*
X74382265Y-33439200D01*
X74105026Y-33494347D01*
X73843873Y-33602520D01*
X73608841Y-33759563D01*
X73408963Y-33959441D01*
X73340672Y-34061646D01*
X73340672Y-33698000D01*
X73328412Y-33573518D01*
X73292102Y-33453820D01*
X73233137Y-33343506D01*
X73153785Y-33246815D01*
X73057094Y-33167463D01*
X72946780Y-33108498D01*
X72827082Y-33072188D01*
X72702600Y-33059928D01*
X70502600Y-33059928D01*
X70378118Y-33072188D01*
X70258420Y-33108498D01*
X70148106Y-33167463D01*
X70051415Y-33246815D01*
X69972063Y-33343506D01*
X69913098Y-33453820D01*
X69876788Y-33573518D01*
X69864528Y-33698000D01*
X69864528Y-35610800D01*
X63105622Y-35610800D01*
X63068199Y-35607114D01*
X63030776Y-35610800D01*
X63030774Y-35610800D01*
X62963797Y-35617396D01*
X63067175Y-35407094D01*
X63131775Y-35194122D01*
X63013725Y-34925000D01*
X61569600Y-34925000D01*
X61569600Y-36369600D01*
X61838723Y-36487179D01*
X61895567Y-36467803D01*
X61306927Y-37056443D01*
X61126735Y-37020600D01*
X60844065Y-37020600D01*
X60566826Y-37075747D01*
X60305673Y-37183920D01*
X60070641Y-37340963D01*
X59870763Y-37540841D01*
X59715400Y-37773359D01*
X59560037Y-37540841D01*
X59360159Y-37340963D01*
X59125127Y-37183920D01*
X58863974Y-37075747D01*
X58586735Y-37020600D01*
X58304065Y-37020600D01*
X58026826Y-37075747D01*
X57765673Y-37183920D01*
X57530641Y-37340963D01*
X57330763Y-37540841D01*
X57175400Y-37773359D01*
X57020037Y-37540841D01*
X56820159Y-37340963D01*
X56585127Y-37183920D01*
X56323974Y-37075747D01*
X56046735Y-37020600D01*
X55764065Y-37020600D01*
X55486826Y-37075747D01*
X55225673Y-37183920D01*
X54990641Y-37340963D01*
X54790763Y-37540841D01*
X54635400Y-37773359D01*
X54480037Y-37540841D01*
X54280159Y-37340963D01*
X54045127Y-37183920D01*
X53783974Y-37075747D01*
X53506735Y-37020600D01*
X53224065Y-37020600D01*
X52946826Y-37075747D01*
X52685673Y-37183920D01*
X52450641Y-37340963D01*
X52250763Y-37540841D01*
X52095400Y-37773359D01*
X51940037Y-37540841D01*
X51740159Y-37340963D01*
X51505127Y-37183920D01*
X51243974Y-37075747D01*
X50966735Y-37020600D01*
X50684065Y-37020600D01*
X50406826Y-37075747D01*
X50145673Y-37183920D01*
X49910641Y-37340963D01*
X49710763Y-37540841D01*
X49553720Y-37775873D01*
X49549333Y-37786465D01*
X49437785Y-37600469D01*
X49248814Y-37392081D01*
X49022820Y-37224563D01*
X48768487Y-37104354D01*
X48634439Y-37063696D01*
X48412400Y-37185685D01*
X48412400Y-38328600D01*
X48432400Y-38328600D01*
X48432400Y-38582600D01*
X48412400Y-38582600D01*
X48412400Y-39725515D01*
X48634439Y-39847504D01*
X48768487Y-39806846D01*
X49022820Y-39686637D01*
X49248814Y-39519119D01*
X49437785Y-39310731D01*
X49549333Y-39124735D01*
X49553720Y-39135327D01*
X49710763Y-39370359D01*
X49910641Y-39570237D01*
X50063401Y-39672308D01*
X50063401Y-39867168D01*
X46587642Y-43342928D01*
X45327200Y-43342928D01*
X45202718Y-43355188D01*
X45083020Y-43391498D01*
X44972706Y-43450463D01*
X44876015Y-43529815D01*
X44796663Y-43626506D01*
X44737698Y-43736820D01*
X44701388Y-43856518D01*
X44689128Y-43981000D01*
X44689128Y-45681000D01*
X44701388Y-45805482D01*
X44737698Y-45925180D01*
X44796663Y-46035494D01*
X44876015Y-46132185D01*
X44972706Y-46211537D01*
X45083020Y-46270502D01*
X45163666Y-46294966D01*
X45079612Y-46370731D01*
X44905559Y-46604080D01*
X44780375Y-46866901D01*
X44735724Y-47014110D01*
X44857045Y-47244000D01*
X46050200Y-47244000D01*
X46050200Y-47224000D01*
X46304200Y-47224000D01*
X46304200Y-47244000D01*
X47497355Y-47244000D01*
X47618676Y-47014110D01*
X47574025Y-46866901D01*
X47448841Y-46604080D01*
X47274788Y-46370731D01*
X47190734Y-46294966D01*
X47271380Y-46270502D01*
X47381694Y-46211537D01*
X47478385Y-46132185D01*
X47557737Y-46035494D01*
X47616702Y-45925180D01*
X47653012Y-45805482D01*
X47665272Y-45681000D01*
X47665272Y-44420558D01*
X50049200Y-42036631D01*
X50049199Y-46811376D01*
X50045513Y-46848799D01*
X50049199Y-46886222D01*
X50049199Y-46886224D01*
X50060225Y-46998176D01*
X50103797Y-47141813D01*
X50118979Y-47170216D01*
X50174554Y-47274191D01*
X50206080Y-47312605D01*
X50269777Y-47390221D01*
X50298853Y-47414083D01*
X51430648Y-48545879D01*
X51430654Y-48545884D01*
X55284375Y-52399605D01*
X55225673Y-52423920D01*
X54990641Y-52580963D01*
X54790763Y-52780841D01*
X54633720Y-53015873D01*
X54629333Y-53026465D01*
X54517785Y-52840469D01*
X54328814Y-52632081D01*
X54102820Y-52464563D01*
X53848487Y-52344354D01*
X53714439Y-52303696D01*
X53492400Y-52425685D01*
X53492400Y-53568600D01*
X53512400Y-53568600D01*
X53512400Y-53822600D01*
X53492400Y-53822600D01*
X53492400Y-54965515D01*
X53714439Y-55087504D01*
X53848487Y-55046846D01*
X54102820Y-54926637D01*
X54328814Y-54759119D01*
X54517785Y-54550731D01*
X54629333Y-54364735D01*
X54633720Y-54375327D01*
X54790763Y-54610359D01*
X54990641Y-54810237D01*
X55143400Y-54912307D01*
X55143400Y-55234170D01*
X53740485Y-56637085D01*
X53706575Y-56466611D01*
X53602171Y-56214557D01*
X53450599Y-55987714D01*
X53257686Y-55794801D01*
X53030843Y-55643229D01*
X52778789Y-55538825D01*
X52511211Y-55485600D01*
X52238389Y-55485600D01*
X52095794Y-55513964D01*
X51531493Y-54949663D01*
X51740159Y-54810237D01*
X51940037Y-54610359D01*
X52097080Y-54375327D01*
X52101467Y-54364735D01*
X52213015Y-54550731D01*
X52401986Y-54759119D01*
X52627980Y-54926637D01*
X52882313Y-55046846D01*
X53016361Y-55087504D01*
X53238400Y-54965515D01*
X53238400Y-53822600D01*
X53218400Y-53822600D01*
X53218400Y-53568600D01*
X53238400Y-53568600D01*
X53238400Y-52425685D01*
X53016361Y-52303696D01*
X52882313Y-52344354D01*
X52627980Y-52464563D01*
X52401986Y-52632081D01*
X52213015Y-52840469D01*
X52101467Y-53026465D01*
X52097080Y-53015873D01*
X51940037Y-52780841D01*
X51740159Y-52580963D01*
X51505127Y-52423920D01*
X51243974Y-52315747D01*
X50966735Y-52260600D01*
X50684065Y-52260600D01*
X50406826Y-52315747D01*
X50145673Y-52423920D01*
X49910641Y-52580963D01*
X49710763Y-52780841D01*
X49555400Y-53013359D01*
X49400037Y-52780841D01*
X49200159Y-52580963D01*
X48965127Y-52423920D01*
X48703974Y-52315747D01*
X48426735Y-52260600D01*
X48144065Y-52260600D01*
X47866826Y-52315747D01*
X47605673Y-52423920D01*
X47370641Y-52580963D01*
X47172043Y-52779561D01*
X47171212Y-52771118D01*
X47134902Y-52651420D01*
X47075937Y-52541106D01*
X46996585Y-52444415D01*
X46899894Y-52365063D01*
X46789580Y-52306098D01*
X46669882Y-52269788D01*
X46545400Y-52257528D01*
X44945400Y-52257528D01*
X44820918Y-52269788D01*
X44701220Y-52306098D01*
X44590906Y-52365063D01*
X44494215Y-52444415D01*
X44414863Y-52541106D01*
X44355898Y-52651420D01*
X44319588Y-52771118D01*
X44307328Y-52895600D01*
X44307328Y-54056042D01*
X44242449Y-54120921D01*
X44213379Y-54144778D01*
X44189522Y-54173848D01*
X44189521Y-54173849D01*
X44118155Y-54260808D01*
X44047399Y-54393185D01*
X44003827Y-54536822D01*
X43989114Y-54686200D01*
X43992801Y-54723633D01*
X43992801Y-55714027D01*
X43871914Y-55794801D01*
X43679001Y-55987714D01*
X43527429Y-56214557D01*
X43423025Y-56466611D01*
X43369800Y-56734189D01*
X43369800Y-57007011D01*
X43423025Y-57274589D01*
X43499114Y-57458284D01*
X42487514Y-56446684D01*
X42508400Y-56341686D01*
X42508400Y-56078714D01*
X42457096Y-55820795D01*
X42356461Y-55577841D01*
X42210362Y-55359187D01*
X42024413Y-55173238D01*
X41805759Y-55027139D01*
X41562805Y-54926504D01*
X41304886Y-54875200D01*
X41041914Y-54875200D01*
X40783995Y-54926504D01*
X40541041Y-55027139D01*
X40322387Y-55173238D01*
X40284400Y-55211225D01*
X40284400Y-48507822D01*
X40288086Y-48470399D01*
X40282507Y-48413758D01*
X40273374Y-48321022D01*
X40229802Y-48177385D01*
X40159045Y-48045008D01*
X40063822Y-47928978D01*
X40034753Y-47905122D01*
X39857521Y-47727890D01*
X44735724Y-47727890D01*
X44780375Y-47875099D01*
X44905559Y-48137920D01*
X45079612Y-48371269D01*
X45295845Y-48566178D01*
X45545948Y-48715157D01*
X45820309Y-48812481D01*
X46050200Y-48691814D01*
X46050200Y-47498000D01*
X46304200Y-47498000D01*
X46304200Y-48691814D01*
X46534091Y-48812481D01*
X46808452Y-48715157D01*
X47058555Y-48566178D01*
X47274788Y-48371269D01*
X47448841Y-48137920D01*
X47574025Y-47875099D01*
X47618676Y-47727890D01*
X47497355Y-47498000D01*
X46304200Y-47498000D01*
X46050200Y-47498000D01*
X44857045Y-47498000D01*
X44735724Y-47727890D01*
X39857521Y-47727890D01*
X39289314Y-47159684D01*
X39310200Y-47054686D01*
X39310200Y-46791714D01*
X39258896Y-46533795D01*
X39158261Y-46290841D01*
X39012162Y-46072187D01*
X38863175Y-45923200D01*
X39012162Y-45774213D01*
X39158261Y-45555559D01*
X39258896Y-45312605D01*
X39310200Y-45054686D01*
X39310200Y-44791714D01*
X39286941Y-44674787D01*
X39292846Y-44667592D01*
X39352519Y-44555951D01*
X39363603Y-44535214D01*
X39407175Y-44391577D01*
X39418201Y-44279625D01*
X39418201Y-44279622D01*
X39421887Y-44242199D01*
X39418201Y-44204776D01*
X39418201Y-38314265D01*
X44310400Y-38314265D01*
X44310400Y-38596935D01*
X44365547Y-38874174D01*
X44473720Y-39135327D01*
X44630763Y-39370359D01*
X44830641Y-39570237D01*
X45065673Y-39727280D01*
X45326826Y-39835453D01*
X45604065Y-39890600D01*
X45886735Y-39890600D01*
X46163974Y-39835453D01*
X46425127Y-39727280D01*
X46660159Y-39570237D01*
X46860037Y-39370359D01*
X47017080Y-39135327D01*
X47021467Y-39124735D01*
X47133015Y-39310731D01*
X47321986Y-39519119D01*
X47547980Y-39686637D01*
X47802313Y-39806846D01*
X47936361Y-39847504D01*
X48158400Y-39725515D01*
X48158400Y-38582600D01*
X48138400Y-38582600D01*
X48138400Y-38328600D01*
X48158400Y-38328600D01*
X48158400Y-37185685D01*
X47936361Y-37063696D01*
X47802313Y-37104354D01*
X47547980Y-37224563D01*
X47321986Y-37392081D01*
X47133015Y-37600469D01*
X47021467Y-37786465D01*
X47017080Y-37775873D01*
X46860037Y-37540841D01*
X46660159Y-37340963D01*
X46425127Y-37183920D01*
X46163974Y-37075747D01*
X45886735Y-37020600D01*
X45604065Y-37020600D01*
X45326826Y-37075747D01*
X45065673Y-37183920D01*
X44830641Y-37340963D01*
X44630763Y-37540841D01*
X44473720Y-37775873D01*
X44365547Y-38037026D01*
X44310400Y-38314265D01*
X39418201Y-38314265D01*
X39418201Y-38236423D01*
X39421887Y-38199000D01*
X39412787Y-38106606D01*
X39407175Y-38049623D01*
X39363603Y-37905986D01*
X39292846Y-37773609D01*
X39197623Y-37657579D01*
X39168554Y-37633723D01*
X36365006Y-34830175D01*
X36370168Y-34817712D01*
X36433000Y-34501833D01*
X36433000Y-34179767D01*
X36370168Y-33863888D01*
X36246918Y-33566337D01*
X36067987Y-33298548D01*
X36018039Y-33248600D01*
X36438170Y-33248600D01*
X37040994Y-33851425D01*
X37035832Y-33863888D01*
X36973000Y-34179767D01*
X36973000Y-34501833D01*
X37035832Y-34817712D01*
X37159082Y-35115263D01*
X37338013Y-35383052D01*
X37565748Y-35610787D01*
X37833537Y-35789718D01*
X38131088Y-35912968D01*
X38446967Y-35975800D01*
X38769033Y-35975800D01*
X39084912Y-35912968D01*
X39382463Y-35789718D01*
X39650252Y-35610787D01*
X39877987Y-35383052D01*
X40056918Y-35115263D01*
X40180168Y-34817712D01*
X40199358Y-34721234D01*
X40827876Y-34721234D01*
X40884498Y-34907907D01*
X41024601Y-35196182D01*
X41218252Y-35451585D01*
X41458008Y-35664301D01*
X41734656Y-35826156D01*
X42037565Y-35930929D01*
X42291000Y-35812115D01*
X42291000Y-34467800D01*
X42545000Y-34467800D01*
X42545000Y-35812115D01*
X42798435Y-35930929D01*
X43101344Y-35826156D01*
X43377992Y-35664301D01*
X43617748Y-35451585D01*
X43716667Y-35321122D01*
X45377025Y-35321122D01*
X45441625Y-35534094D01*
X45591669Y-35839329D01*
X45798378Y-36109427D01*
X46053809Y-36334008D01*
X46348146Y-36504442D01*
X46670077Y-36614179D01*
X46939200Y-36496600D01*
X46939200Y-35052000D01*
X47193200Y-35052000D01*
X47193200Y-36496600D01*
X47462323Y-36614179D01*
X47784254Y-36504442D01*
X48078591Y-36334008D01*
X48334022Y-36109427D01*
X48540731Y-35839329D01*
X48690775Y-35534094D01*
X48755375Y-35321122D01*
X48637325Y-35052000D01*
X47193200Y-35052000D01*
X46939200Y-35052000D01*
X45495075Y-35052000D01*
X45377025Y-35321122D01*
X43716667Y-35321122D01*
X43811399Y-35196182D01*
X43951502Y-34907907D01*
X44008124Y-34721234D01*
X43917540Y-34528878D01*
X45377025Y-34528878D01*
X45495075Y-34798000D01*
X46939200Y-34798000D01*
X46939200Y-33353400D01*
X47193200Y-33353400D01*
X47193200Y-34798000D01*
X48637325Y-34798000D01*
X48755375Y-34528878D01*
X48690775Y-34315906D01*
X48540731Y-34010671D01*
X48398635Y-33825000D01*
X55488128Y-33825000D01*
X55488128Y-36025000D01*
X55500388Y-36149482D01*
X55536698Y-36269180D01*
X55595663Y-36379494D01*
X55675015Y-36476185D01*
X55771706Y-36555537D01*
X55882020Y-36614502D01*
X56001718Y-36650812D01*
X56126200Y-36663072D01*
X58326200Y-36663072D01*
X58450682Y-36650812D01*
X58570380Y-36614502D01*
X58680694Y-36555537D01*
X58777385Y-36476185D01*
X58856737Y-36379494D01*
X58915702Y-36269180D01*
X58952012Y-36149482D01*
X58964272Y-36025000D01*
X58964272Y-35194122D01*
X59753425Y-35194122D01*
X59818025Y-35407094D01*
X59968069Y-35712329D01*
X60174778Y-35982427D01*
X60430209Y-36207008D01*
X60724546Y-36377442D01*
X61046477Y-36487179D01*
X61315600Y-36369600D01*
X61315600Y-34925000D01*
X59871475Y-34925000D01*
X59753425Y-35194122D01*
X58964272Y-35194122D01*
X58964272Y-34401878D01*
X59753425Y-34401878D01*
X59871475Y-34671000D01*
X61315600Y-34671000D01*
X61315600Y-33226400D01*
X61569600Y-33226400D01*
X61569600Y-34671000D01*
X63013725Y-34671000D01*
X63131775Y-34401878D01*
X63067175Y-34188906D01*
X62917131Y-33883671D01*
X62710422Y-33613573D01*
X62454991Y-33388992D01*
X62160654Y-33218558D01*
X61838723Y-33108821D01*
X61569600Y-33226400D01*
X61315600Y-33226400D01*
X61046477Y-33108821D01*
X60724546Y-33218558D01*
X60430209Y-33388992D01*
X60174778Y-33613573D01*
X59968069Y-33883671D01*
X59818025Y-34188906D01*
X59753425Y-34401878D01*
X58964272Y-34401878D01*
X58964272Y-33825000D01*
X58952012Y-33700518D01*
X58915702Y-33580820D01*
X58856737Y-33470506D01*
X58777385Y-33373815D01*
X58680694Y-33294463D01*
X58570380Y-33235498D01*
X58450682Y-33199188D01*
X58326200Y-33186928D01*
X56126200Y-33186928D01*
X56001718Y-33199188D01*
X55882020Y-33235498D01*
X55771706Y-33294463D01*
X55675015Y-33373815D01*
X55595663Y-33470506D01*
X55536698Y-33580820D01*
X55500388Y-33700518D01*
X55488128Y-33825000D01*
X48398635Y-33825000D01*
X48334022Y-33740573D01*
X48078591Y-33515992D01*
X47784254Y-33345558D01*
X47462323Y-33235821D01*
X47193200Y-33353400D01*
X46939200Y-33353400D01*
X46670077Y-33235821D01*
X46348146Y-33345558D01*
X46053809Y-33515992D01*
X45798378Y-33740573D01*
X45591669Y-34010671D01*
X45441625Y-34315906D01*
X45377025Y-34528878D01*
X43917540Y-34528878D01*
X43888777Y-34467800D01*
X42545000Y-34467800D01*
X42291000Y-34467800D01*
X40947223Y-34467800D01*
X40827876Y-34721234D01*
X40199358Y-34721234D01*
X40243000Y-34501833D01*
X40243000Y-34179767D01*
X40199359Y-33960366D01*
X40827876Y-33960366D01*
X40947223Y-34213800D01*
X42291000Y-34213800D01*
X42291000Y-32869485D01*
X42545000Y-32869485D01*
X42545000Y-34213800D01*
X43888777Y-34213800D01*
X44008124Y-33960366D01*
X43951502Y-33773693D01*
X43811399Y-33485418D01*
X43617748Y-33230015D01*
X43377992Y-33017299D01*
X43101344Y-32855444D01*
X42798435Y-32750671D01*
X42545000Y-32869485D01*
X42291000Y-32869485D01*
X42037565Y-32750671D01*
X41734656Y-32855444D01*
X41458008Y-33017299D01*
X41218252Y-33230015D01*
X41024601Y-33485418D01*
X40884498Y-33773693D01*
X40827876Y-33960366D01*
X40199359Y-33960366D01*
X40180168Y-33863888D01*
X40056918Y-33566337D01*
X39877987Y-33298548D01*
X39650252Y-33070813D01*
X39382463Y-32891882D01*
X39084912Y-32768632D01*
X38769033Y-32705800D01*
X38446967Y-32705800D01*
X38131088Y-32768632D01*
X38118625Y-32773794D01*
X37450030Y-32105200D01*
X89962400Y-32105200D01*
X89962401Y-54700787D01*
%TA.AperFunction,Conductor*%
D26*
G36*
X89962401Y-54700787D02*
G01*
X89889067Y-54686200D01*
X89688933Y-54686200D01*
X89492644Y-54725244D01*
X89397156Y-54764797D01*
X89296356Y-54723044D01*
X89100067Y-54684000D01*
X88899933Y-54684000D01*
X88703644Y-54723044D01*
X88518744Y-54799632D01*
X88500000Y-54812156D01*
X88481256Y-54799632D01*
X88296356Y-54723044D01*
X88100067Y-54684000D01*
X87899933Y-54684000D01*
X87703644Y-54723044D01*
X87518744Y-54799632D01*
X87500000Y-54812156D01*
X87481256Y-54799632D01*
X87296356Y-54723044D01*
X87100067Y-54684000D01*
X86899933Y-54684000D01*
X86703644Y-54723044D01*
X86518744Y-54799632D01*
X86500000Y-54812156D01*
X86481256Y-54799632D01*
X86296356Y-54723044D01*
X86100067Y-54684000D01*
X85899933Y-54684000D01*
X85703644Y-54723044D01*
X85518744Y-54799632D01*
X85500000Y-54812156D01*
X85481256Y-54799632D01*
X85296356Y-54723044D01*
X85100067Y-54684000D01*
X84899933Y-54684000D01*
X84703644Y-54723044D01*
X84518744Y-54799632D01*
X84500000Y-54812156D01*
X84481256Y-54799632D01*
X84296356Y-54723044D01*
X84100067Y-54684000D01*
X83899933Y-54684000D01*
X83703644Y-54723044D01*
X83518744Y-54799632D01*
X83500000Y-54812156D01*
X83481256Y-54799632D01*
X83296356Y-54723044D01*
X83100067Y-54684000D01*
X82899933Y-54684000D01*
X82703644Y-54723044D01*
X82518744Y-54799632D01*
X82500000Y-54812156D01*
X82481256Y-54799632D01*
X82304131Y-54726265D01*
X82420037Y-54610359D01*
X82577080Y-54375327D01*
X82685253Y-54114174D01*
X82740400Y-53836935D01*
X82740400Y-53554265D01*
X82685253Y-53277026D01*
X82577080Y-53015873D01*
X82420037Y-52780841D01*
X82220159Y-52580963D01*
X81985127Y-52423920D01*
X81723974Y-52315747D01*
X81446735Y-52260600D01*
X81164065Y-52260600D01*
X80886826Y-52315747D01*
X80625673Y-52423920D01*
X80390641Y-52580963D01*
X80190763Y-52780841D01*
X80035400Y-53013359D01*
X79880037Y-52780841D01*
X79680159Y-52580963D01*
X79445127Y-52423920D01*
X79183974Y-52315747D01*
X78906735Y-52260600D01*
X78624065Y-52260600D01*
X78346826Y-52315747D01*
X78085673Y-52423920D01*
X77850641Y-52580963D01*
X77650763Y-52780841D01*
X77495400Y-53013359D01*
X77340037Y-52780841D01*
X77140159Y-52580963D01*
X76905127Y-52423920D01*
X76643974Y-52315747D01*
X76366735Y-52260600D01*
X76084065Y-52260600D01*
X75806826Y-52315747D01*
X75545673Y-52423920D01*
X75310641Y-52580963D01*
X75110763Y-52780841D01*
X74955400Y-53013359D01*
X74800037Y-52780841D01*
X74600159Y-52580963D01*
X74365127Y-52423920D01*
X74103974Y-52315747D01*
X73826735Y-52260600D01*
X73544065Y-52260600D01*
X73266826Y-52315747D01*
X73005673Y-52423920D01*
X72770641Y-52580963D01*
X72570763Y-52780841D01*
X72415400Y-53013359D01*
X72260037Y-52780841D01*
X72060159Y-52580963D01*
X71825127Y-52423920D01*
X71563974Y-52315747D01*
X71286735Y-52260600D01*
X71004065Y-52260600D01*
X70726826Y-52315747D01*
X70465673Y-52423920D01*
X70230641Y-52580963D01*
X70030763Y-52780841D01*
X69875400Y-53013359D01*
X69720037Y-52780841D01*
X69520159Y-52580963D01*
X69285127Y-52423920D01*
X69023974Y-52315747D01*
X68746735Y-52260600D01*
X68628830Y-52260600D01*
X70036473Y-50852957D01*
X70216665Y-50888800D01*
X70499335Y-50888800D01*
X70556193Y-50877490D01*
X83724724Y-50877490D01*
X83769375Y-51024699D01*
X83894559Y-51287520D01*
X84068612Y-51520869D01*
X84284845Y-51715778D01*
X84534948Y-51864757D01*
X84809309Y-51962081D01*
X85039200Y-51841414D01*
X85039200Y-50647600D01*
X85293200Y-50647600D01*
X85293200Y-51841414D01*
X85523091Y-51962081D01*
X85797452Y-51864757D01*
X86047555Y-51715778D01*
X86263788Y-51520869D01*
X86437841Y-51287520D01*
X86563025Y-51024699D01*
X86607676Y-50877490D01*
X86486355Y-50647600D01*
X85293200Y-50647600D01*
X85039200Y-50647600D01*
X83846045Y-50647600D01*
X83724724Y-50877490D01*
X70556193Y-50877490D01*
X70776574Y-50833653D01*
X71037727Y-50725480D01*
X71272759Y-50568437D01*
X71472637Y-50368559D01*
X71629680Y-50133527D01*
X71737853Y-49872374D01*
X71793000Y-49595135D01*
X71793000Y-49312465D01*
X71737853Y-49035226D01*
X71629680Y-48774073D01*
X71472637Y-48539041D01*
X71272759Y-48339163D01*
X71037727Y-48182120D01*
X70776574Y-48073947D01*
X70499335Y-48018800D01*
X70216665Y-48018800D01*
X69939426Y-48073947D01*
X69678273Y-48182120D01*
X69443241Y-48339163D01*
X69243363Y-48539041D01*
X69109308Y-48739669D01*
X69094671Y-48712286D01*
X68850702Y-48640703D01*
X68037605Y-49453800D01*
X68051748Y-49467943D01*
X67872143Y-49647548D01*
X67858000Y-49633405D01*
X67044903Y-50446502D01*
X67116486Y-50690471D01*
X67371996Y-50811371D01*
X67646184Y-50880100D01*
X67844304Y-50889866D01*
X66734050Y-52000120D01*
X66704980Y-52023977D01*
X66681123Y-52053047D01*
X66681122Y-52053048D01*
X66609756Y-52140007D01*
X66539000Y-52272384D01*
X66521172Y-52331155D01*
X66483974Y-52315747D01*
X66206735Y-52260600D01*
X65924065Y-52260600D01*
X65646826Y-52315747D01*
X65385673Y-52423920D01*
X65150641Y-52580963D01*
X64950763Y-52780841D01*
X64795400Y-53013359D01*
X64640037Y-52780841D01*
X64440159Y-52580963D01*
X64205127Y-52423920D01*
X63943974Y-52315747D01*
X63666735Y-52260600D01*
X63384065Y-52260600D01*
X63106826Y-52315747D01*
X62845673Y-52423920D01*
X62610641Y-52580963D01*
X62410763Y-52780841D01*
X62255400Y-53013359D01*
X62100037Y-52780841D01*
X61900159Y-52580963D01*
X61665127Y-52423920D01*
X61403974Y-52315747D01*
X61126735Y-52260600D01*
X60844065Y-52260600D01*
X60566826Y-52315747D01*
X60305673Y-52423920D01*
X60070641Y-52580963D01*
X59870763Y-52780841D01*
X59715400Y-53013359D01*
X59560037Y-52780841D01*
X59360159Y-52580963D01*
X59125127Y-52423920D01*
X58863974Y-52315747D01*
X58586735Y-52260600D01*
X58304065Y-52260600D01*
X58026826Y-52315747D01*
X57765673Y-52423920D01*
X57584803Y-52544773D01*
X54564342Y-49524312D01*
X66417783Y-49524312D01*
X66459213Y-49803930D01*
X66554397Y-50070092D01*
X66621329Y-50195314D01*
X66865298Y-50266897D01*
X67678395Y-49453800D01*
X66865298Y-48640703D01*
X66621329Y-48712286D01*
X66500429Y-48967796D01*
X66431700Y-49241984D01*
X66417783Y-49524312D01*
X54564342Y-49524312D01*
X53501128Y-48461098D01*
X67044903Y-48461098D01*
X67858000Y-49274195D01*
X68671097Y-48461098D01*
X68599514Y-48217129D01*
X68344004Y-48096229D01*
X68069816Y-48027500D01*
X67787488Y-48013583D01*
X67507870Y-48055013D01*
X67241708Y-48150197D01*
X67116486Y-48217129D01*
X67044903Y-48461098D01*
X53501128Y-48461098D01*
X52560843Y-47520813D01*
X52680186Y-47584603D01*
X52823823Y-47628175D01*
X52935775Y-47639201D01*
X52935777Y-47639201D01*
X52973200Y-47642887D01*
X53010623Y-47639201D01*
X59003376Y-47639201D01*
X59040799Y-47642887D01*
X59078222Y-47639201D01*
X59078225Y-47639201D01*
X59190177Y-47628175D01*
X59333814Y-47584603D01*
X59466191Y-47513846D01*
X59582221Y-47418623D01*
X59606083Y-47389547D01*
X60552630Y-46443001D01*
X68784776Y-46443001D01*
X68822199Y-46446687D01*
X68859622Y-46443001D01*
X68859625Y-46443001D01*
X68971577Y-46431975D01*
X69115214Y-46388403D01*
X69247591Y-46317646D01*
X69363621Y-46222423D01*
X69387483Y-46193347D01*
X70138073Y-45442757D01*
X70318265Y-45478600D01*
X70600935Y-45478600D01*
X70878174Y-45423453D01*
X71139327Y-45315280D01*
X71374359Y-45158237D01*
X71574237Y-44958359D01*
X71676307Y-44805600D01*
X75730777Y-44805600D01*
X75768200Y-44809286D01*
X75805623Y-44805600D01*
X75805626Y-44805600D01*
X75917578Y-44794574D01*
X76061215Y-44751002D01*
X76193592Y-44680245D01*
X76309622Y-44585022D01*
X76333484Y-44555946D01*
X79121001Y-41768430D01*
X79121000Y-45784177D01*
X79117314Y-45821600D01*
X79121000Y-45859023D01*
X79121000Y-45859025D01*
X79132026Y-45970977D01*
X79175598Y-46114614D01*
X79191311Y-46144011D01*
X79246355Y-46246992D01*
X79276333Y-46283520D01*
X79341578Y-46363022D01*
X79370654Y-46386884D01*
X81476720Y-48492951D01*
X81500578Y-48522022D01*
X81616608Y-48617245D01*
X81748985Y-48688002D01*
X81892622Y-48731574D01*
X82004574Y-48742600D01*
X82004576Y-48742600D01*
X82041999Y-48746286D01*
X82079422Y-48742600D01*
X83889358Y-48742600D01*
X84012725Y-48927232D01*
X84219568Y-49134075D01*
X84401734Y-49255795D01*
X84284845Y-49325422D01*
X84068612Y-49520331D01*
X83894559Y-49753680D01*
X83769375Y-50016501D01*
X83724724Y-50163710D01*
X83846045Y-50393600D01*
X85039200Y-50393600D01*
X85039200Y-50373600D01*
X85293200Y-50373600D01*
X85293200Y-50393600D01*
X86486355Y-50393600D01*
X86607676Y-50163710D01*
X86563025Y-50016501D01*
X86437841Y-49753680D01*
X86263788Y-49520331D01*
X86047555Y-49325422D01*
X85930666Y-49255795D01*
X86112832Y-49134075D01*
X86319675Y-48927232D01*
X86482190Y-48684011D01*
X86594132Y-48413758D01*
X86651200Y-48126860D01*
X86651200Y-47834340D01*
X86594132Y-47547442D01*
X86482190Y-47277189D01*
X86319675Y-47033968D01*
X86112832Y-46827125D01*
X85938440Y-46710600D01*
X86112832Y-46594075D01*
X86319675Y-46387232D01*
X86482190Y-46144011D01*
X86594132Y-45873758D01*
X86651200Y-45586860D01*
X86651200Y-45294340D01*
X86594132Y-45007442D01*
X86482190Y-44737189D01*
X86319675Y-44493968D01*
X86187820Y-44362113D01*
X86260380Y-44340102D01*
X86370694Y-44281137D01*
X86467385Y-44201785D01*
X86546737Y-44105094D01*
X86605702Y-43994780D01*
X86642012Y-43875082D01*
X86654272Y-43750600D01*
X86654272Y-42050600D01*
X86642012Y-41926118D01*
X86605702Y-41806420D01*
X86546737Y-41696106D01*
X86467385Y-41599415D01*
X86370694Y-41520063D01*
X86260380Y-41461098D01*
X86140682Y-41424788D01*
X86016200Y-41412528D01*
X85902999Y-41412528D01*
X85902999Y-38569422D01*
X85906685Y-38531999D01*
X85901299Y-38477314D01*
X85891973Y-38382621D01*
X85848401Y-38238984D01*
X85815464Y-38177363D01*
X85777644Y-38106606D01*
X85730879Y-38049624D01*
X85682421Y-37990577D01*
X85653345Y-37966715D01*
X83547084Y-35860454D01*
X83523222Y-35831378D01*
X83407192Y-35736155D01*
X83274815Y-35665398D01*
X83131178Y-35621826D01*
X83019226Y-35610800D01*
X83019223Y-35610800D01*
X82981800Y-35607114D01*
X82944377Y-35610800D01*
X75757279Y-35610800D01*
X75795280Y-35553927D01*
X75903453Y-35292774D01*
X75958600Y-35015535D01*
X75958600Y-34732865D01*
X85788600Y-34732865D01*
X85788600Y-35015535D01*
X85843747Y-35292774D01*
X85951920Y-35553927D01*
X86108963Y-35788959D01*
X86308841Y-35988837D01*
X86543873Y-36145880D01*
X86805026Y-36254053D01*
X87082265Y-36309200D01*
X87364935Y-36309200D01*
X87642174Y-36254053D01*
X87903327Y-36145880D01*
X88138359Y-35988837D01*
X88338237Y-35788959D01*
X88495280Y-35553927D01*
X88603453Y-35292774D01*
X88658600Y-35015535D01*
X88658600Y-34732865D01*
X88603453Y-34455626D01*
X88495280Y-34194473D01*
X88338237Y-33959441D01*
X88138359Y-33759563D01*
X87903327Y-33602520D01*
X87642174Y-33494347D01*
X87364935Y-33439200D01*
X87082265Y-33439200D01*
X86805026Y-33494347D01*
X86543873Y-33602520D01*
X86308841Y-33759563D01*
X86108963Y-33959441D01*
X85951920Y-34194473D01*
X85843747Y-34455626D01*
X85788600Y-34732865D01*
X75958600Y-34732865D01*
X75903453Y-34455626D01*
X75795280Y-34194473D01*
X75638237Y-33959441D01*
X75438359Y-33759563D01*
X75203327Y-33602520D01*
X74942174Y-33494347D01*
X74664935Y-33439200D01*
X74382265Y-33439200D01*
X74105026Y-33494347D01*
X73843873Y-33602520D01*
X73608841Y-33759563D01*
X73408963Y-33959441D01*
X73340672Y-34061646D01*
X73340672Y-33698000D01*
X73328412Y-33573518D01*
X73292102Y-33453820D01*
X73233137Y-33343506D01*
X73153785Y-33246815D01*
X73057094Y-33167463D01*
X72946780Y-33108498D01*
X72827082Y-33072188D01*
X72702600Y-33059928D01*
X70502600Y-33059928D01*
X70378118Y-33072188D01*
X70258420Y-33108498D01*
X70148106Y-33167463D01*
X70051415Y-33246815D01*
X69972063Y-33343506D01*
X69913098Y-33453820D01*
X69876788Y-33573518D01*
X69864528Y-33698000D01*
X69864528Y-35610800D01*
X63105622Y-35610800D01*
X63068199Y-35607114D01*
X63030776Y-35610800D01*
X63030774Y-35610800D01*
X62963797Y-35617396D01*
X63067175Y-35407094D01*
X63131775Y-35194122D01*
X63013725Y-34925000D01*
X61569600Y-34925000D01*
X61569600Y-36369600D01*
X61838723Y-36487179D01*
X61895567Y-36467803D01*
X61306927Y-37056443D01*
X61126735Y-37020600D01*
X60844065Y-37020600D01*
X60566826Y-37075747D01*
X60305673Y-37183920D01*
X60070641Y-37340963D01*
X59870763Y-37540841D01*
X59715400Y-37773359D01*
X59560037Y-37540841D01*
X59360159Y-37340963D01*
X59125127Y-37183920D01*
X58863974Y-37075747D01*
X58586735Y-37020600D01*
X58304065Y-37020600D01*
X58026826Y-37075747D01*
X57765673Y-37183920D01*
X57530641Y-37340963D01*
X57330763Y-37540841D01*
X57175400Y-37773359D01*
X57020037Y-37540841D01*
X56820159Y-37340963D01*
X56585127Y-37183920D01*
X56323974Y-37075747D01*
X56046735Y-37020600D01*
X55764065Y-37020600D01*
X55486826Y-37075747D01*
X55225673Y-37183920D01*
X54990641Y-37340963D01*
X54790763Y-37540841D01*
X54635400Y-37773359D01*
X54480037Y-37540841D01*
X54280159Y-37340963D01*
X54045127Y-37183920D01*
X53783974Y-37075747D01*
X53506735Y-37020600D01*
X53224065Y-37020600D01*
X52946826Y-37075747D01*
X52685673Y-37183920D01*
X52450641Y-37340963D01*
X52250763Y-37540841D01*
X52095400Y-37773359D01*
X51940037Y-37540841D01*
X51740159Y-37340963D01*
X51505127Y-37183920D01*
X51243974Y-37075747D01*
X50966735Y-37020600D01*
X50684065Y-37020600D01*
X50406826Y-37075747D01*
X50145673Y-37183920D01*
X49910641Y-37340963D01*
X49710763Y-37540841D01*
X49553720Y-37775873D01*
X49549333Y-37786465D01*
X49437785Y-37600469D01*
X49248814Y-37392081D01*
X49022820Y-37224563D01*
X48768487Y-37104354D01*
X48634439Y-37063696D01*
X48412400Y-37185685D01*
X48412400Y-38328600D01*
X48432400Y-38328600D01*
X48432400Y-38582600D01*
X48412400Y-38582600D01*
X48412400Y-39725515D01*
X48634439Y-39847504D01*
X48768487Y-39806846D01*
X49022820Y-39686637D01*
X49248814Y-39519119D01*
X49437785Y-39310731D01*
X49549333Y-39124735D01*
X49553720Y-39135327D01*
X49710763Y-39370359D01*
X49910641Y-39570237D01*
X50063401Y-39672308D01*
X50063401Y-39867168D01*
X46587642Y-43342928D01*
X45327200Y-43342928D01*
X45202718Y-43355188D01*
X45083020Y-43391498D01*
X44972706Y-43450463D01*
X44876015Y-43529815D01*
X44796663Y-43626506D01*
X44737698Y-43736820D01*
X44701388Y-43856518D01*
X44689128Y-43981000D01*
X44689128Y-45681000D01*
X44701388Y-45805482D01*
X44737698Y-45925180D01*
X44796663Y-46035494D01*
X44876015Y-46132185D01*
X44972706Y-46211537D01*
X45083020Y-46270502D01*
X45163666Y-46294966D01*
X45079612Y-46370731D01*
X44905559Y-46604080D01*
X44780375Y-46866901D01*
X44735724Y-47014110D01*
X44857045Y-47244000D01*
X46050200Y-47244000D01*
X46050200Y-47224000D01*
X46304200Y-47224000D01*
X46304200Y-47244000D01*
X47497355Y-47244000D01*
X47618676Y-47014110D01*
X47574025Y-46866901D01*
X47448841Y-46604080D01*
X47274788Y-46370731D01*
X47190734Y-46294966D01*
X47271380Y-46270502D01*
X47381694Y-46211537D01*
X47478385Y-46132185D01*
X47557737Y-46035494D01*
X47616702Y-45925180D01*
X47653012Y-45805482D01*
X47665272Y-45681000D01*
X47665272Y-44420558D01*
X50049200Y-42036631D01*
X50049199Y-46811376D01*
X50045513Y-46848799D01*
X50049199Y-46886222D01*
X50049199Y-46886224D01*
X50060225Y-46998176D01*
X50103797Y-47141813D01*
X50118979Y-47170216D01*
X50174554Y-47274191D01*
X50206080Y-47312605D01*
X50269777Y-47390221D01*
X50298853Y-47414083D01*
X51430648Y-48545879D01*
X51430654Y-48545884D01*
X55284375Y-52399605D01*
X55225673Y-52423920D01*
X54990641Y-52580963D01*
X54790763Y-52780841D01*
X54633720Y-53015873D01*
X54629333Y-53026465D01*
X54517785Y-52840469D01*
X54328814Y-52632081D01*
X54102820Y-52464563D01*
X53848487Y-52344354D01*
X53714439Y-52303696D01*
X53492400Y-52425685D01*
X53492400Y-53568600D01*
X53512400Y-53568600D01*
X53512400Y-53822600D01*
X53492400Y-53822600D01*
X53492400Y-54965515D01*
X53714439Y-55087504D01*
X53848487Y-55046846D01*
X54102820Y-54926637D01*
X54328814Y-54759119D01*
X54517785Y-54550731D01*
X54629333Y-54364735D01*
X54633720Y-54375327D01*
X54790763Y-54610359D01*
X54990641Y-54810237D01*
X55143400Y-54912307D01*
X55143400Y-55234170D01*
X53740485Y-56637085D01*
X53706575Y-56466611D01*
X53602171Y-56214557D01*
X53450599Y-55987714D01*
X53257686Y-55794801D01*
X53030843Y-55643229D01*
X52778789Y-55538825D01*
X52511211Y-55485600D01*
X52238389Y-55485600D01*
X52095794Y-55513964D01*
X51531493Y-54949663D01*
X51740159Y-54810237D01*
X51940037Y-54610359D01*
X52097080Y-54375327D01*
X52101467Y-54364735D01*
X52213015Y-54550731D01*
X52401986Y-54759119D01*
X52627980Y-54926637D01*
X52882313Y-55046846D01*
X53016361Y-55087504D01*
X53238400Y-54965515D01*
X53238400Y-53822600D01*
X53218400Y-53822600D01*
X53218400Y-53568600D01*
X53238400Y-53568600D01*
X53238400Y-52425685D01*
X53016361Y-52303696D01*
X52882313Y-52344354D01*
X52627980Y-52464563D01*
X52401986Y-52632081D01*
X52213015Y-52840469D01*
X52101467Y-53026465D01*
X52097080Y-53015873D01*
X51940037Y-52780841D01*
X51740159Y-52580963D01*
X51505127Y-52423920D01*
X51243974Y-52315747D01*
X50966735Y-52260600D01*
X50684065Y-52260600D01*
X50406826Y-52315747D01*
X50145673Y-52423920D01*
X49910641Y-52580963D01*
X49710763Y-52780841D01*
X49555400Y-53013359D01*
X49400037Y-52780841D01*
X49200159Y-52580963D01*
X48965127Y-52423920D01*
X48703974Y-52315747D01*
X48426735Y-52260600D01*
X48144065Y-52260600D01*
X47866826Y-52315747D01*
X47605673Y-52423920D01*
X47370641Y-52580963D01*
X47172043Y-52779561D01*
X47171212Y-52771118D01*
X47134902Y-52651420D01*
X47075937Y-52541106D01*
X46996585Y-52444415D01*
X46899894Y-52365063D01*
X46789580Y-52306098D01*
X46669882Y-52269788D01*
X46545400Y-52257528D01*
X44945400Y-52257528D01*
X44820918Y-52269788D01*
X44701220Y-52306098D01*
X44590906Y-52365063D01*
X44494215Y-52444415D01*
X44414863Y-52541106D01*
X44355898Y-52651420D01*
X44319588Y-52771118D01*
X44307328Y-52895600D01*
X44307328Y-54056042D01*
X44242449Y-54120921D01*
X44213379Y-54144778D01*
X44189522Y-54173848D01*
X44189521Y-54173849D01*
X44118155Y-54260808D01*
X44047399Y-54393185D01*
X44003827Y-54536822D01*
X43989114Y-54686200D01*
X43992801Y-54723633D01*
X43992801Y-55714027D01*
X43871914Y-55794801D01*
X43679001Y-55987714D01*
X43527429Y-56214557D01*
X43423025Y-56466611D01*
X43369800Y-56734189D01*
X43369800Y-57007011D01*
X43423025Y-57274589D01*
X43499114Y-57458284D01*
X42487514Y-56446684D01*
X42508400Y-56341686D01*
X42508400Y-56078714D01*
X42457096Y-55820795D01*
X42356461Y-55577841D01*
X42210362Y-55359187D01*
X42024413Y-55173238D01*
X41805759Y-55027139D01*
X41562805Y-54926504D01*
X41304886Y-54875200D01*
X41041914Y-54875200D01*
X40783995Y-54926504D01*
X40541041Y-55027139D01*
X40322387Y-55173238D01*
X40284400Y-55211225D01*
X40284400Y-48507822D01*
X40288086Y-48470399D01*
X40282507Y-48413758D01*
X40273374Y-48321022D01*
X40229802Y-48177385D01*
X40159045Y-48045008D01*
X40063822Y-47928978D01*
X40034753Y-47905122D01*
X39857521Y-47727890D01*
X44735724Y-47727890D01*
X44780375Y-47875099D01*
X44905559Y-48137920D01*
X45079612Y-48371269D01*
X45295845Y-48566178D01*
X45545948Y-48715157D01*
X45820309Y-48812481D01*
X46050200Y-48691814D01*
X46050200Y-47498000D01*
X46304200Y-47498000D01*
X46304200Y-48691814D01*
X46534091Y-48812481D01*
X46808452Y-48715157D01*
X47058555Y-48566178D01*
X47274788Y-48371269D01*
X47448841Y-48137920D01*
X47574025Y-47875099D01*
X47618676Y-47727890D01*
X47497355Y-47498000D01*
X46304200Y-47498000D01*
X46050200Y-47498000D01*
X44857045Y-47498000D01*
X44735724Y-47727890D01*
X39857521Y-47727890D01*
X39289314Y-47159684D01*
X39310200Y-47054686D01*
X39310200Y-46791714D01*
X39258896Y-46533795D01*
X39158261Y-46290841D01*
X39012162Y-46072187D01*
X38863175Y-45923200D01*
X39012162Y-45774213D01*
X39158261Y-45555559D01*
X39258896Y-45312605D01*
X39310200Y-45054686D01*
X39310200Y-44791714D01*
X39286941Y-44674787D01*
X39292846Y-44667592D01*
X39352519Y-44555951D01*
X39363603Y-44535214D01*
X39407175Y-44391577D01*
X39418201Y-44279625D01*
X39418201Y-44279622D01*
X39421887Y-44242199D01*
X39418201Y-44204776D01*
X39418201Y-38314265D01*
X44310400Y-38314265D01*
X44310400Y-38596935D01*
X44365547Y-38874174D01*
X44473720Y-39135327D01*
X44630763Y-39370359D01*
X44830641Y-39570237D01*
X45065673Y-39727280D01*
X45326826Y-39835453D01*
X45604065Y-39890600D01*
X45886735Y-39890600D01*
X46163974Y-39835453D01*
X46425127Y-39727280D01*
X46660159Y-39570237D01*
X46860037Y-39370359D01*
X47017080Y-39135327D01*
X47021467Y-39124735D01*
X47133015Y-39310731D01*
X47321986Y-39519119D01*
X47547980Y-39686637D01*
X47802313Y-39806846D01*
X47936361Y-39847504D01*
X48158400Y-39725515D01*
X48158400Y-38582600D01*
X48138400Y-38582600D01*
X48138400Y-38328600D01*
X48158400Y-38328600D01*
X48158400Y-37185685D01*
X47936361Y-37063696D01*
X47802313Y-37104354D01*
X47547980Y-37224563D01*
X47321986Y-37392081D01*
X47133015Y-37600469D01*
X47021467Y-37786465D01*
X47017080Y-37775873D01*
X46860037Y-37540841D01*
X46660159Y-37340963D01*
X46425127Y-37183920D01*
X46163974Y-37075747D01*
X45886735Y-37020600D01*
X45604065Y-37020600D01*
X45326826Y-37075747D01*
X45065673Y-37183920D01*
X44830641Y-37340963D01*
X44630763Y-37540841D01*
X44473720Y-37775873D01*
X44365547Y-38037026D01*
X44310400Y-38314265D01*
X39418201Y-38314265D01*
X39418201Y-38236423D01*
X39421887Y-38199000D01*
X39412787Y-38106606D01*
X39407175Y-38049623D01*
X39363603Y-37905986D01*
X39292846Y-37773609D01*
X39197623Y-37657579D01*
X39168554Y-37633723D01*
X36365006Y-34830175D01*
X36370168Y-34817712D01*
X36433000Y-34501833D01*
X36433000Y-34179767D01*
X36370168Y-33863888D01*
X36246918Y-33566337D01*
X36067987Y-33298548D01*
X36018039Y-33248600D01*
X36438170Y-33248600D01*
X37040994Y-33851425D01*
X37035832Y-33863888D01*
X36973000Y-34179767D01*
X36973000Y-34501833D01*
X37035832Y-34817712D01*
X37159082Y-35115263D01*
X37338013Y-35383052D01*
X37565748Y-35610787D01*
X37833537Y-35789718D01*
X38131088Y-35912968D01*
X38446967Y-35975800D01*
X38769033Y-35975800D01*
X39084912Y-35912968D01*
X39382463Y-35789718D01*
X39650252Y-35610787D01*
X39877987Y-35383052D01*
X40056918Y-35115263D01*
X40180168Y-34817712D01*
X40199358Y-34721234D01*
X40827876Y-34721234D01*
X40884498Y-34907907D01*
X41024601Y-35196182D01*
X41218252Y-35451585D01*
X41458008Y-35664301D01*
X41734656Y-35826156D01*
X42037565Y-35930929D01*
X42291000Y-35812115D01*
X42291000Y-34467800D01*
X42545000Y-34467800D01*
X42545000Y-35812115D01*
X42798435Y-35930929D01*
X43101344Y-35826156D01*
X43377992Y-35664301D01*
X43617748Y-35451585D01*
X43716667Y-35321122D01*
X45377025Y-35321122D01*
X45441625Y-35534094D01*
X45591669Y-35839329D01*
X45798378Y-36109427D01*
X46053809Y-36334008D01*
X46348146Y-36504442D01*
X46670077Y-36614179D01*
X46939200Y-36496600D01*
X46939200Y-35052000D01*
X47193200Y-35052000D01*
X47193200Y-36496600D01*
X47462323Y-36614179D01*
X47784254Y-36504442D01*
X48078591Y-36334008D01*
X48334022Y-36109427D01*
X48540731Y-35839329D01*
X48690775Y-35534094D01*
X48755375Y-35321122D01*
X48637325Y-35052000D01*
X47193200Y-35052000D01*
X46939200Y-35052000D01*
X45495075Y-35052000D01*
X45377025Y-35321122D01*
X43716667Y-35321122D01*
X43811399Y-35196182D01*
X43951502Y-34907907D01*
X44008124Y-34721234D01*
X43917540Y-34528878D01*
X45377025Y-34528878D01*
X45495075Y-34798000D01*
X46939200Y-34798000D01*
X46939200Y-33353400D01*
X47193200Y-33353400D01*
X47193200Y-34798000D01*
X48637325Y-34798000D01*
X48755375Y-34528878D01*
X48690775Y-34315906D01*
X48540731Y-34010671D01*
X48398635Y-33825000D01*
X55488128Y-33825000D01*
X55488128Y-36025000D01*
X55500388Y-36149482D01*
X55536698Y-36269180D01*
X55595663Y-36379494D01*
X55675015Y-36476185D01*
X55771706Y-36555537D01*
X55882020Y-36614502D01*
X56001718Y-36650812D01*
X56126200Y-36663072D01*
X58326200Y-36663072D01*
X58450682Y-36650812D01*
X58570380Y-36614502D01*
X58680694Y-36555537D01*
X58777385Y-36476185D01*
X58856737Y-36379494D01*
X58915702Y-36269180D01*
X58952012Y-36149482D01*
X58964272Y-36025000D01*
X58964272Y-35194122D01*
X59753425Y-35194122D01*
X59818025Y-35407094D01*
X59968069Y-35712329D01*
X60174778Y-35982427D01*
X60430209Y-36207008D01*
X60724546Y-36377442D01*
X61046477Y-36487179D01*
X61315600Y-36369600D01*
X61315600Y-34925000D01*
X59871475Y-34925000D01*
X59753425Y-35194122D01*
X58964272Y-35194122D01*
X58964272Y-34401878D01*
X59753425Y-34401878D01*
X59871475Y-34671000D01*
X61315600Y-34671000D01*
X61315600Y-33226400D01*
X61569600Y-33226400D01*
X61569600Y-34671000D01*
X63013725Y-34671000D01*
X63131775Y-34401878D01*
X63067175Y-34188906D01*
X62917131Y-33883671D01*
X62710422Y-33613573D01*
X62454991Y-33388992D01*
X62160654Y-33218558D01*
X61838723Y-33108821D01*
X61569600Y-33226400D01*
X61315600Y-33226400D01*
X61046477Y-33108821D01*
X60724546Y-33218558D01*
X60430209Y-33388992D01*
X60174778Y-33613573D01*
X59968069Y-33883671D01*
X59818025Y-34188906D01*
X59753425Y-34401878D01*
X58964272Y-34401878D01*
X58964272Y-33825000D01*
X58952012Y-33700518D01*
X58915702Y-33580820D01*
X58856737Y-33470506D01*
X58777385Y-33373815D01*
X58680694Y-33294463D01*
X58570380Y-33235498D01*
X58450682Y-33199188D01*
X58326200Y-33186928D01*
X56126200Y-33186928D01*
X56001718Y-33199188D01*
X55882020Y-33235498D01*
X55771706Y-33294463D01*
X55675015Y-33373815D01*
X55595663Y-33470506D01*
X55536698Y-33580820D01*
X55500388Y-33700518D01*
X55488128Y-33825000D01*
X48398635Y-33825000D01*
X48334022Y-33740573D01*
X48078591Y-33515992D01*
X47784254Y-33345558D01*
X47462323Y-33235821D01*
X47193200Y-33353400D01*
X46939200Y-33353400D01*
X46670077Y-33235821D01*
X46348146Y-33345558D01*
X46053809Y-33515992D01*
X45798378Y-33740573D01*
X45591669Y-34010671D01*
X45441625Y-34315906D01*
X45377025Y-34528878D01*
X43917540Y-34528878D01*
X43888777Y-34467800D01*
X42545000Y-34467800D01*
X42291000Y-34467800D01*
X40947223Y-34467800D01*
X40827876Y-34721234D01*
X40199358Y-34721234D01*
X40243000Y-34501833D01*
X40243000Y-34179767D01*
X40199359Y-33960366D01*
X40827876Y-33960366D01*
X40947223Y-34213800D01*
X42291000Y-34213800D01*
X42291000Y-32869485D01*
X42545000Y-32869485D01*
X42545000Y-34213800D01*
X43888777Y-34213800D01*
X44008124Y-33960366D01*
X43951502Y-33773693D01*
X43811399Y-33485418D01*
X43617748Y-33230015D01*
X43377992Y-33017299D01*
X43101344Y-32855444D01*
X42798435Y-32750671D01*
X42545000Y-32869485D01*
X42291000Y-32869485D01*
X42037565Y-32750671D01*
X41734656Y-32855444D01*
X41458008Y-33017299D01*
X41218252Y-33230015D01*
X41024601Y-33485418D01*
X40884498Y-33773693D01*
X40827876Y-33960366D01*
X40199359Y-33960366D01*
X40180168Y-33863888D01*
X40056918Y-33566337D01*
X39877987Y-33298548D01*
X39650252Y-33070813D01*
X39382463Y-32891882D01*
X39084912Y-32768632D01*
X38769033Y-32705800D01*
X38446967Y-32705800D01*
X38131088Y-32768632D01*
X38118625Y-32773794D01*
X37450030Y-32105200D01*
X89962400Y-32105200D01*
X89962401Y-54700787D01*
G37*
%TD.AperFunction*%
D25*
X77650763Y-39370359D02*
X77850641Y-39570237D01*
X78003401Y-39672307D01*
X78003400Y-40730769D01*
X75452570Y-43281600D01*
X71676307Y-43281600D01*
X71574237Y-43128841D01*
X71374359Y-42928963D01*
X71139327Y-42771920D01*
X70878174Y-42663747D01*
X70600935Y-42608600D01*
X70318265Y-42608600D01*
X70041026Y-42663747D01*
X69779873Y-42771920D01*
X69544841Y-42928963D01*
X69344963Y-43128841D01*
X69210908Y-43329469D01*
X69196271Y-43302086D01*
X68952302Y-43230503D01*
X68139205Y-44043600D01*
X68153348Y-44057743D01*
X67973743Y-44237348D01*
X67959600Y-44223205D01*
X67945458Y-44237348D01*
X67765853Y-44057743D01*
X67779995Y-44043600D01*
X66966898Y-43230503D01*
X66722929Y-43302086D01*
X66602029Y-43557596D01*
X66533300Y-43831784D01*
X66519383Y-44114112D01*
X66560813Y-44393730D01*
X66655997Y-44659892D01*
X66722929Y-44785114D01*
X66966896Y-44856697D01*
X66904592Y-44919001D01*
X60274421Y-44919001D01*
X60236998Y-44915315D01*
X60199575Y-44919001D01*
X60199573Y-44919001D01*
X60087621Y-44930027D01*
X59943984Y-44973599D01*
X59811607Y-45044356D01*
X59695577Y-45139579D01*
X59671720Y-45168649D01*
X58725169Y-46115201D01*
X58269900Y-46115201D01*
X58307200Y-45927686D01*
X58307200Y-45664714D01*
X58286314Y-45559716D01*
X60795132Y-43050898D01*
X67146503Y-43050898D01*
X67959600Y-43863995D01*
X68772697Y-43050898D01*
X68701114Y-42806929D01*
X68445604Y-42686029D01*
X68171416Y-42617300D01*
X67889088Y-42603383D01*
X67609470Y-42644813D01*
X67343308Y-42739997D01*
X67218086Y-42806929D01*
X67146503Y-43050898D01*
X60795132Y-43050898D01*
X64037753Y-39808278D01*
X64066463Y-39784716D01*
X64205127Y-39727280D01*
X64440159Y-39570237D01*
X64640037Y-39370359D01*
X64795400Y-39137841D01*
X64950763Y-39370359D01*
X65150641Y-39570237D01*
X65385673Y-39727280D01*
X65646826Y-39835453D01*
X65924065Y-39890600D01*
X66206735Y-39890600D01*
X66483974Y-39835453D01*
X66745127Y-39727280D01*
X66980159Y-39570237D01*
X67180037Y-39370359D01*
X67335400Y-39137841D01*
X67490763Y-39370359D01*
X67690641Y-39570237D01*
X67925673Y-39727280D01*
X68186826Y-39835453D01*
X68464065Y-39890600D01*
X68746735Y-39890600D01*
X69023974Y-39835453D01*
X69285127Y-39727280D01*
X69520159Y-39570237D01*
X69720037Y-39370359D01*
X69875400Y-39137841D01*
X70030763Y-39370359D01*
X70230641Y-39570237D01*
X70465673Y-39727280D01*
X70726826Y-39835453D01*
X71004065Y-39890600D01*
X71286735Y-39890600D01*
X71563974Y-39835453D01*
X71825127Y-39727280D01*
X72060159Y-39570237D01*
X72260037Y-39370359D01*
X72415400Y-39137841D01*
X72570763Y-39370359D01*
X72770641Y-39570237D01*
X73005673Y-39727280D01*
X73266826Y-39835453D01*
X73544065Y-39890600D01*
X73826735Y-39890600D01*
X74103974Y-39835453D01*
X74365127Y-39727280D01*
X74600159Y-39570237D01*
X74800037Y-39370359D01*
X74955400Y-39137841D01*
X75110763Y-39370359D01*
X75310641Y-39570237D01*
X75545673Y-39727280D01*
X75806826Y-39835453D01*
X76084065Y-39890600D01*
X76366735Y-39890600D01*
X76643974Y-39835453D01*
X76905127Y-39727280D01*
X77140159Y-39570237D01*
X77340037Y-39370359D01*
X77495400Y-39137841D01*
X77650763Y-39370359D01*
%TA.AperFunction,Conductor*%
D26*
G36*
X77650763Y-39370359D02*
G01*
X77850641Y-39570237D01*
X78003401Y-39672307D01*
X78003400Y-40730769D01*
X75452570Y-43281600D01*
X71676307Y-43281600D01*
X71574237Y-43128841D01*
X71374359Y-42928963D01*
X71139327Y-42771920D01*
X70878174Y-42663747D01*
X70600935Y-42608600D01*
X70318265Y-42608600D01*
X70041026Y-42663747D01*
X69779873Y-42771920D01*
X69544841Y-42928963D01*
X69344963Y-43128841D01*
X69210908Y-43329469D01*
X69196271Y-43302086D01*
X68952302Y-43230503D01*
X68139205Y-44043600D01*
X68153348Y-44057743D01*
X67973743Y-44237348D01*
X67959600Y-44223205D01*
X67945458Y-44237348D01*
X67765853Y-44057743D01*
X67779995Y-44043600D01*
X66966898Y-43230503D01*
X66722929Y-43302086D01*
X66602029Y-43557596D01*
X66533300Y-43831784D01*
X66519383Y-44114112D01*
X66560813Y-44393730D01*
X66655997Y-44659892D01*
X66722929Y-44785114D01*
X66966896Y-44856697D01*
X66904592Y-44919001D01*
X60274421Y-44919001D01*
X60236998Y-44915315D01*
X60199575Y-44919001D01*
X60199573Y-44919001D01*
X60087621Y-44930027D01*
X59943984Y-44973599D01*
X59811607Y-45044356D01*
X59695577Y-45139579D01*
X59671720Y-45168649D01*
X58725169Y-46115201D01*
X58269900Y-46115201D01*
X58307200Y-45927686D01*
X58307200Y-45664714D01*
X58286314Y-45559716D01*
X60795132Y-43050898D01*
X67146503Y-43050898D01*
X67959600Y-43863995D01*
X68772697Y-43050898D01*
X68701114Y-42806929D01*
X68445604Y-42686029D01*
X68171416Y-42617300D01*
X67889088Y-42603383D01*
X67609470Y-42644813D01*
X67343308Y-42739997D01*
X67218086Y-42806929D01*
X67146503Y-43050898D01*
X60795132Y-43050898D01*
X64037753Y-39808278D01*
X64066463Y-39784716D01*
X64205127Y-39727280D01*
X64440159Y-39570237D01*
X64640037Y-39370359D01*
X64795400Y-39137841D01*
X64950763Y-39370359D01*
X65150641Y-39570237D01*
X65385673Y-39727280D01*
X65646826Y-39835453D01*
X65924065Y-39890600D01*
X66206735Y-39890600D01*
X66483974Y-39835453D01*
X66745127Y-39727280D01*
X66980159Y-39570237D01*
X67180037Y-39370359D01*
X67335400Y-39137841D01*
X67490763Y-39370359D01*
X67690641Y-39570237D01*
X67925673Y-39727280D01*
X68186826Y-39835453D01*
X68464065Y-39890600D01*
X68746735Y-39890600D01*
X69023974Y-39835453D01*
X69285127Y-39727280D01*
X69520159Y-39570237D01*
X69720037Y-39370359D01*
X69875400Y-39137841D01*
X70030763Y-39370359D01*
X70230641Y-39570237D01*
X70465673Y-39727280D01*
X70726826Y-39835453D01*
X71004065Y-39890600D01*
X71286735Y-39890600D01*
X71563974Y-39835453D01*
X71825127Y-39727280D01*
X72060159Y-39570237D01*
X72260037Y-39370359D01*
X72415400Y-39137841D01*
X72570763Y-39370359D01*
X72770641Y-39570237D01*
X73005673Y-39727280D01*
X73266826Y-39835453D01*
X73544065Y-39890600D01*
X73826735Y-39890600D01*
X74103974Y-39835453D01*
X74365127Y-39727280D01*
X74600159Y-39570237D01*
X74800037Y-39370359D01*
X74955400Y-39137841D01*
X75110763Y-39370359D01*
X75310641Y-39570237D01*
X75545673Y-39727280D01*
X75806826Y-39835453D01*
X76084065Y-39890600D01*
X76366735Y-39890600D01*
X76643974Y-39835453D01*
X76905127Y-39727280D01*
X77140159Y-39570237D01*
X77340037Y-39370359D01*
X77495400Y-39137841D01*
X77650763Y-39370359D01*
G37*
%TD.AperFunction*%
%TD*%
M02*
