M48
; DRILL file {KiCad (5.1.8)-1} date 02/22/21 22:06:43
; FORMAT={-:-/ absolute / inch / decimal}
; #@! TF.CreationDate,2021-02-22T22:06:43-05:00
; #@! TF.GenerationSoftware,Kicad,Pcbnew,(5.1.8)-1
; #@! TF.FileFunction,Plated,1,2,PTH
FMAT,2
INCH
T1C0.0150
T2C0.0236
T3C0.0276
T4C0.0315
T5C0.0354
T6C0.0394
T7C0.0433
%
G90
G05
T1
X1.29Y-2.21
X1.844Y-1.8294
T2
X3.2733Y-2.3423
X3.2733Y-2.4837
X3.4147Y-2.3423
X3.4147Y-2.4837
T3
X1.396Y-1.902
X1.396Y-2.102
X2.407Y-2.221
X2.407Y-2.421
X2.603Y-2.225
X2.603Y-2.425
X2.503Y-2.223
X2.503Y-2.423
X1.488Y-1.902
X1.488Y-2.102
X1.396Y-2.56
X1.596Y-2.56
T4
X2.49Y-2.54
X2.79Y-2.54
X2.934Y-1.373
X3.434Y-1.373
X2.152Y-2.288
X2.152Y-2.3864
X1.604Y-1.906
X1.604Y-2.0044
T5
X1.22Y-1.352
X1.37Y-1.352
X1.52Y-1.352
X1.67Y-1.352
T6
X2.9727Y-2.2185
X2.9727Y-2.2835
X2.9727Y-2.351
X2.9727Y-2.4135
X2.9727Y-2.476
X2.9727Y-2.541
X2.9727Y-2.6035
X3.016Y-2.182
X3.078Y-2.182
X3.14Y-2.181
X3.202Y-2.181
X3.266Y-2.181
X3.3295Y-2.181
X3.392Y-2.181
X3.457Y-2.181
X3.5185Y-2.181
X1.17Y-1.795
X1.17Y-1.895
X1.17Y-1.995
X1.17Y-2.095
X2.14Y-2.54
X2.24Y-2.54
X2.34Y-2.54
X1.87Y-1.51
X1.87Y-2.11
X1.97Y-1.51
X1.97Y-2.11
X2.07Y-1.51
X2.07Y-2.11
X2.17Y-1.51
X2.17Y-2.11
X2.27Y-1.51
X2.27Y-2.11
X2.37Y-1.51
X2.37Y-2.11
X2.47Y-1.51
X2.47Y-2.11
X2.57Y-1.51
X2.57Y-2.11
X2.67Y-1.51
X2.67Y-2.11
X2.77Y-1.51
X2.77Y-2.11
X2.87Y-1.51
X2.87Y-2.11
X2.97Y-1.51
X2.97Y-2.11
X3.07Y-1.51
X3.07Y-2.11
X3.17Y-1.51
X3.17Y-2.11
X3.27Y-1.51
X3.27Y-2.11
X1.514Y-1.776
X1.614Y-1.776
X1.418Y-1.532
X1.418Y-1.632
X1.518Y-1.532
X1.518Y-1.632
X1.45Y-2.398
X1.55Y-2.398
X3.07Y-2.265
X3.07Y-2.365
X3.07Y-2.465
X3.07Y-2.565
X1.71Y-2.262
X1.71Y-2.562
X1.81Y-2.262
X1.81Y-2.562
X1.91Y-2.262
X1.91Y-2.562
X2.01Y-2.262
X2.01Y-2.562
T7
X1.853Y-1.375
X2.253Y-1.375
X2.419Y-1.37
X2.819Y-1.37
T0
M30
