%TF.GenerationSoftware,KiCad,Pcbnew,(5.1.8)-1*%
%TF.CreationDate,2021-02-22T22:06:48-05:00*%
%TF.ProjectId,TTS,5454532e-6b69-4636-9164-5f7063625858,rev?*%
%TF.SameCoordinates,Original*%
%TF.FileFunction,Copper,L1,Top*%
%TF.FilePolarity,Positive*%
%FSLAX46Y46*%
G04 Gerber Fmt 4.6, Leading zero omitted, Abs format (unit mm)*
G04 Created by KiCad (PCBNEW (5.1.8)-1) date 2021-02-22 22:06:48*
%MOMM*%
%LPD*%
G01*
G04 APERTURE LIST*
%TA.AperFunction,ComponentPad*%
%ADD10C,1.600000*%
%TD*%
%TA.AperFunction,ComponentPad*%
%ADD11O,1.600000X1.600000*%
%TD*%
%TA.AperFunction,ComponentPad*%
%ADD12R,1.600000X1.600000*%
%TD*%
%TA.AperFunction,ComponentPad*%
%ADD13O,1.400000X1.400000*%
%TD*%
%TA.AperFunction,ComponentPad*%
%ADD14C,1.400000*%
%TD*%
%TA.AperFunction,ComponentPad*%
%ADD15O,2.000000X2.000000*%
%TD*%
%TA.AperFunction,ComponentPad*%
%ADD16C,0.100000*%
%TD*%
%TA.AperFunction,ComponentPad*%
%ADD17C,2.000000*%
%TD*%
%TA.AperFunction,ComponentPad*%
%ADD18R,2.000000X2.000000*%
%TD*%
%TA.AperFunction,ComponentPad*%
%ADD19R,2.200000X2.200000*%
%TD*%
%TA.AperFunction,ComponentPad*%
%ADD20O,2.200000X2.200000*%
%TD*%
%TA.AperFunction,ComponentPad*%
%ADD21R,1.700000X1.700000*%
%TD*%
%TA.AperFunction,ComponentPad*%
%ADD22O,1.700000X1.700000*%
%TD*%
%TA.AperFunction,ViaPad*%
%ADD23C,1.500000*%
%TD*%
%TA.AperFunction,ViaPad*%
%ADD24C,0.762000*%
%TD*%
%TA.AperFunction,Conductor*%
%ADD25C,0.254000*%
%TD*%
%TA.AperFunction,Conductor*%
%ADD26C,0.100000*%
%TD*%
G04 APERTURE END LIST*
D10*
%TO.P,R9,1*%
%TO.N,/D3*%
X63246000Y-64516000D03*
D11*
%TO.P,R9,2*%
%TO.N,GND*%
X70866000Y-64516000D03*
%TD*%
D10*
%TO.P,U1,4*%
%TO.N,/TX*%
X43434000Y-57454800D03*
D12*
%TO.P,U1,5*%
%TO.N,GND*%
X43434000Y-65074800D03*
D10*
%TO.P,U1,3*%
%TO.N,/D2*%
X45974000Y-57454800D03*
%TO.P,U1,6*%
%TO.N,Net-(D2-Pad1)*%
X45974000Y-65074800D03*
%TO.P,U1,2*%
%TO.N,/D2*%
X48514000Y-57454800D03*
%TO.P,U1,7*%
%TO.N,Net-(D1-Pad1)*%
X48514000Y-65074800D03*
%TO.P,U1,1*%
%TO.N,/RX*%
X51054000Y-57454800D03*
%TO.P,U1,8*%
%TO.N,Net-(J4-Pad2)*%
X51054000Y-65074800D03*
%TD*%
D13*
%TO.P,R3,2*%
%TO.N,VDD*%
X37795200Y-53390800D03*
D14*
%TO.P,R3,1*%
%TO.N,/A5*%
X37795200Y-48310800D03*
%TD*%
D15*
%TO.P,D3,1*%
%TO.N,/VIN*%
X30988000Y-34340800D03*
%TO.P,D3,2*%
%TO.N,Net-(D3-Pad2)*%
X34798000Y-34340800D03*
%TO.P,D3,3*%
%TO.N,Net-(D3-Pad3)*%
X38608000Y-34340800D03*
%TO.P,D3,4*%
%TO.N,GND*%
X42418000Y-34340800D03*
%TD*%
%TA.AperFunction,ComponentPad*%
D16*
%TO.P,U2,4*%
%TO.N,GND*%
G36*
X86733651Y-61954880D02*
G01*
X87865022Y-63086251D01*
X86733651Y-64217622D01*
X85602280Y-63086251D01*
X86733651Y-61954880D01*
G37*
%TD.AperFunction*%
D10*
%TO.P,U2,1*%
%TO.N,/A5*%
X83141549Y-63086251D03*
%TO.P,U2,2*%
%TO.N,/A4*%
X83141549Y-59494149D03*
%TO.P,U2,3*%
%TO.N,VDD*%
X86733651Y-59494149D03*
%TD*%
D12*
%TO.P,A1,1*%
%TO.N,/TX*%
X47498000Y-53594000D03*
D11*
%TO.P,A1,17*%
%TO.N,VDD*%
X80518000Y-38354000D03*
%TO.P,A1,2*%
%TO.N,/RX*%
X50038000Y-53594000D03*
%TO.P,A1,18*%
%TO.N,/REF*%
X77978000Y-38354000D03*
%TO.P,A1,3*%
%TO.N,/RST_D*%
X52578000Y-53594000D03*
%TO.P,A1,19*%
%TO.N,/A0*%
X75438000Y-38354000D03*
D12*
%TO.P,A1,4*%
%TO.N,GND*%
X55118000Y-53594000D03*
D11*
%TO.P,A1,20*%
%TO.N,/A1*%
X72898000Y-38354000D03*
%TO.P,A1,5*%
%TO.N,/D2*%
X57658000Y-53594000D03*
%TO.P,A1,21*%
%TO.N,/A2*%
X70358000Y-38354000D03*
%TO.P,A1,6*%
%TO.N,/D3*%
X60198000Y-53594000D03*
%TO.P,A1,22*%
%TO.N,/A3*%
X67818000Y-38354000D03*
%TO.P,A1,7*%
%TO.N,/D4*%
X62738000Y-53594000D03*
%TO.P,A1,23*%
%TO.N,/A4*%
X65278000Y-38354000D03*
%TO.P,A1,8*%
%TO.N,/D5*%
X65278000Y-53594000D03*
%TO.P,A1,24*%
%TO.N,/A5*%
X62738000Y-38354000D03*
%TO.P,A1,9*%
%TO.N,/D6*%
X67818000Y-53594000D03*
%TO.P,A1,25*%
%TO.N,/A6*%
X60198000Y-38354000D03*
%TO.P,A1,10*%
%TO.N,/D7*%
X70358000Y-53594000D03*
%TO.P,A1,26*%
%TO.N,/A7*%
X57658000Y-38354000D03*
%TO.P,A1,11*%
%TO.N,/D8*%
X72898000Y-53594000D03*
%TO.P,A1,27*%
%TO.N,VCC*%
X55118000Y-38354000D03*
%TO.P,A1,12*%
%TO.N,/D9*%
X75438000Y-53594000D03*
%TO.P,A1,28*%
%TO.N,/RST_A*%
X52578000Y-38354000D03*
%TO.P,A1,13*%
%TO.N,/D10*%
X77978000Y-53594000D03*
D12*
%TO.P,A1,29*%
%TO.N,GND*%
X50038000Y-38354000D03*
D11*
%TO.P,A1,14*%
%TO.N,/D11*%
X80518000Y-53594000D03*
%TO.P,A1,30*%
%TO.N,/VIN*%
X47498000Y-38354000D03*
%TO.P,A1,15*%
%TO.N,/D12*%
X83058000Y-53594000D03*
%TO.P,A1,16*%
%TO.N,/D13*%
X83058000Y-38354000D03*
%TD*%
D10*
%TO.P,C1,2*%
%TO.N,GND*%
X54660800Y-60615200D03*
%TO.P,C1,1*%
%TO.N,VCC*%
X54660800Y-58115200D03*
%TD*%
%TO.P,C2,1*%
%TO.N,VDD*%
X40741600Y-48412400D03*
%TO.P,C2,2*%
%TO.N,GND*%
X40741600Y-50912400D03*
%TD*%
D17*
%TO.P,D4,2*%
%TO.N,Net-(D4-Pad2)*%
X36830000Y-60909200D03*
D18*
%TO.P,D4,1*%
%TO.N,GND*%
X39370000Y-60909200D03*
%TD*%
D10*
%TO.P,R1,1*%
%TO.N,Net-(D2-Pad1)*%
X87223600Y-34874200D03*
D11*
%TO.P,R1,2*%
%TO.N,Net-(D1-Pad1)*%
X74523600Y-34874200D03*
%TD*%
D14*
%TO.P,R2,1*%
%TO.N,/A4*%
X35458400Y-48310800D03*
D13*
%TO.P,R2,2*%
%TO.N,VDD*%
X35458400Y-53390800D03*
%TD*%
D14*
%TO.P,R8,1*%
%TO.N,/D7*%
X40538400Y-65024000D03*
D13*
%TO.P,R8,2*%
%TO.N,Net-(D4-Pad2)*%
X35458400Y-65024000D03*
%TD*%
D19*
%TO.P,D1,1*%
%TO.N,Net-(D1-Pad1)*%
X57226200Y-34925000D03*
D20*
%TO.P,D1,2*%
%TO.N,GND*%
X47066200Y-34925000D03*
%TD*%
%TO.P,D2,2*%
%TO.N,GND*%
X61442600Y-34798000D03*
D19*
%TO.P,D2,1*%
%TO.N,Net-(D2-Pad1)*%
X71602600Y-34798000D03*
%TD*%
D21*
%TO.P,J2,1*%
%TO.N,/A5*%
X77978000Y-65151000D03*
D22*
%TO.P,J2,2*%
%TO.N,/A4*%
X77978000Y-62611000D03*
%TO.P,J2,3*%
%TO.N,VDD*%
X77978000Y-60071000D03*
D21*
%TO.P,J2,4*%
%TO.N,GND*%
X77978000Y-57531000D03*
%TD*%
D14*
%TO.P,R5,1*%
%TO.N,/D4*%
X61137800Y-56413400D03*
D13*
%TO.P,R5,2*%
%TO.N,/D3*%
X61137800Y-61493400D03*
%TD*%
%TO.P,R6,2*%
%TO.N,/D3*%
X63576200Y-61544200D03*
D14*
%TO.P,R6,1*%
%TO.N,/D5*%
X63576200Y-56464200D03*
%TD*%
%TO.P,R7,1*%
%TO.N,/D6*%
X66116200Y-56515000D03*
D13*
%TO.P,R7,2*%
%TO.N,/D3*%
X66116200Y-61595000D03*
%TD*%
D21*
%TO.P,SW1,1*%
%TO.N,/RST_A*%
X40995600Y-45110400D03*
D22*
%TO.P,SW1,2*%
%TO.N,GND*%
X38455600Y-45110400D03*
%TD*%
D21*
%TO.P,J3,4*%
%TO.N,GND*%
X29718000Y-45593000D03*
D22*
%TO.P,J3,3*%
%TO.N,VDD*%
X29718000Y-48133000D03*
%TO.P,J3,2*%
%TO.N,/A4*%
X29718000Y-50673000D03*
D21*
%TO.P,J3,1*%
%TO.N,/A5*%
X29718000Y-53213000D03*
%TD*%
%TO.P,J1,1*%
%TO.N,Net-(D3-Pad3)*%
X38557200Y-38912800D03*
D22*
%TO.P,J1,2*%
%TO.N,Net-(D3-Pad2)*%
X36017200Y-38912800D03*
%TO.P,J1,3*%
%TO.N,Net-(D1-Pad1)*%
X38557200Y-41452800D03*
%TO.P,J1,4*%
%TO.N,Net-(D2-Pad1)*%
X36017200Y-41452800D03*
%TD*%
D21*
%TO.P,J4,1*%
%TO.N,GND*%
X59436000Y-64516000D03*
D22*
%TO.P,J4,2*%
%TO.N,Net-(J4-Pad2)*%
X56896000Y-64516000D03*
%TO.P,J4,3*%
%TO.N,VCC*%
X54356000Y-64516000D03*
%TD*%
D23*
%TO.N,*%
X75506400Y-61302900D03*
X75506400Y-62890400D03*
X75506400Y-59715400D03*
X75506400Y-58000900D03*
X75506400Y-56349900D03*
X76606400Y-55422800D03*
X78181200Y-55422800D03*
X79756000Y-55398400D03*
X81330800Y-55398400D03*
X82956400Y-55398400D03*
X84569300Y-55398400D03*
X86156800Y-55398400D03*
X75506400Y-64541400D03*
X75506400Y-66128900D03*
X87807800Y-55398400D03*
X89369900Y-55398400D03*
D24*
%TO.N,VDD*%
X32766000Y-56134000D03*
%TO.N,/A5*%
X46837600Y-46467799D03*
%TD*%
D25*
%TO.N,VDD*%
X80518000Y-38354000D02*
X73964800Y-44907200D01*
X40360600Y-48031400D02*
X40741600Y-48412400D01*
X70459600Y-48412400D02*
X80518000Y-38354000D01*
X40741600Y-48412400D02*
X70459600Y-48412400D01*
X32766000Y-51054000D02*
X32766000Y-56134000D01*
X29718000Y-48006000D02*
X32766000Y-51054000D01*
X77978000Y-60198000D02*
X78486000Y-60198000D01*
%TO.N,VCC*%
X52832000Y-59944000D02*
X54660800Y-58115200D01*
X52832000Y-62992000D02*
X52832000Y-59944000D01*
X54356000Y-64516000D02*
X52832000Y-62992000D01*
%TO.N,Net-(D1-Pad1)*%
X34036000Y-54025800D02*
X38036490Y-58026290D01*
X41414690Y-58026290D02*
X48539400Y-65151000D01*
X34036000Y-47244000D02*
X34036000Y-54025800D01*
X38404800Y-41656000D02*
X38404800Y-42875200D01*
X38036490Y-58026290D02*
X41414690Y-58026290D01*
X38404800Y-42875200D02*
X34036000Y-47244000D01*
X59131200Y-33020000D02*
X57226200Y-34925000D01*
X72669400Y-33020000D02*
X59131200Y-33020000D01*
X74523600Y-34874200D02*
X72669400Y-33020000D01*
%TO.N,Net-(D2-Pad1)*%
X73228200Y-36423600D02*
X71602600Y-34798000D01*
X85674200Y-36423600D02*
X73228200Y-36423600D01*
X87223600Y-34874200D02*
X85674200Y-36423600D01*
X36080700Y-44480864D02*
X33527989Y-47033575D01*
X33527989Y-47033575D02*
X33527990Y-54236226D01*
X33527990Y-54236226D02*
X37826065Y-58534301D01*
X37826065Y-58534301D02*
X40728901Y-58534301D01*
X40728901Y-58534301D02*
X46024800Y-63830200D01*
X36080700Y-41732200D02*
X36080700Y-44480864D01*
X46024800Y-63830200D02*
X46024800Y-65011300D01*
%TO.N,Net-(D3-Pad2)*%
X34798000Y-35001200D02*
X34798000Y-34340800D01*
X34798000Y-37693600D02*
X36017200Y-38912800D01*
X34798000Y-34340800D02*
X34798000Y-37693600D01*
%TO.N,/TX*%
X47294800Y-53594000D02*
X43434000Y-57454800D01*
X47498000Y-53594000D02*
X47294800Y-53594000D01*
%TO.N,/RX*%
X50038000Y-56438800D02*
X51054000Y-57454800D01*
X50038000Y-53594000D02*
X50038000Y-56438800D01*
%TO.N,/D2*%
X45974000Y-57454800D02*
X48514000Y-57454800D01*
X57434118Y-53594000D02*
X57658000Y-53594000D01*
X50292000Y-58928000D02*
X48768000Y-57404000D01*
X51816000Y-58928000D02*
X50292000Y-58928000D01*
X54610000Y-56134000D02*
X51816000Y-58928000D01*
X56896000Y-56134000D02*
X54610000Y-56134000D01*
X57658000Y-55372000D02*
X56896000Y-56134000D01*
X57658000Y-53848000D02*
X57658000Y-55372000D01*
%TO.N,/D3*%
X61087000Y-61442600D02*
X61137800Y-61493400D01*
X63525400Y-61493400D02*
X63576200Y-61544200D01*
X61137800Y-61493400D02*
X63525400Y-61493400D01*
X66065400Y-61544200D02*
X66116200Y-61595000D01*
X63576200Y-61544200D02*
X66065400Y-61544200D01*
X61214000Y-61468000D02*
X60198000Y-61468000D01*
X60198000Y-61468000D02*
X58928000Y-60198000D01*
X58928000Y-54864000D02*
X60198000Y-53594000D01*
X58928000Y-60198000D02*
X58928000Y-54864000D01*
X63576200Y-64185800D02*
X63246000Y-64516000D01*
X63576200Y-61544200D02*
X63576200Y-64185800D01*
%TO.N,/D4*%
X61137800Y-55194200D02*
X62738000Y-53594000D01*
X61137800Y-56413400D02*
X61137800Y-55194200D01*
%TO.N,/A4*%
X56402201Y-47229799D02*
X65278000Y-38354000D01*
X36539401Y-47229799D02*
X56402201Y-47229799D01*
X35458400Y-48310800D02*
X36539401Y-47229799D01*
X83141549Y-59962051D02*
X83141549Y-59494149D01*
X81026000Y-59436000D02*
X77978000Y-62484000D01*
X83058000Y-59436000D02*
X81026000Y-59436000D01*
%TO.N,/D5*%
X63576200Y-55295800D02*
X65278000Y-53594000D01*
X63576200Y-56464200D02*
X63576200Y-55295800D01*
%TO.N,/A5*%
X54624201Y-46467799D02*
X62738000Y-38354000D01*
X46837600Y-46467799D02*
X54624201Y-46467799D01*
X80264000Y-62992000D02*
X77978000Y-65278000D01*
X83312000Y-62992000D02*
X80264000Y-62992000D01*
%TO.N,/D6*%
X66116200Y-55295800D02*
X67818000Y-53594000D01*
X66116200Y-56515000D02*
X66116200Y-55295800D01*
%TO.N,/D7*%
X68122800Y-55829200D02*
X70358000Y-53594000D01*
X68122800Y-62534800D02*
X68122800Y-55829200D01*
X64350999Y-66306601D02*
X68122800Y-62534800D01*
X41821001Y-66306601D02*
X64350999Y-66306601D01*
X40538400Y-65024000D02*
X41821001Y-66306601D01*
%TO.N,/RST_A*%
X45821600Y-45110400D02*
X52578000Y-38354000D01*
X40995600Y-45110400D02*
X45821600Y-45110400D01*
%TO.N,/VIN*%
X43339634Y-38354000D02*
X47498000Y-38354000D01*
X40640000Y-35654366D02*
X43339634Y-38354000D01*
X40640000Y-33832800D02*
X40640000Y-35654366D01*
X39766999Y-32959799D02*
X40640000Y-33832800D01*
X32369001Y-32959799D02*
X39766999Y-32959799D01*
X30988000Y-34340800D02*
X32369001Y-32959799D01*
%TO.N,Net-(D3-Pad3)*%
X38608000Y-38862000D02*
X38557200Y-38912800D01*
X38608000Y-34340800D02*
X38608000Y-38862000D01*
%TO.N,Net-(D4-Pad2)*%
X36830000Y-63652400D02*
X35458400Y-65024000D01*
X36830000Y-60909200D02*
X36830000Y-63652400D01*
%TO.N,Net-(J4-Pad2)*%
X55626000Y-65786000D02*
X56896000Y-64516000D01*
X51765200Y-65786000D02*
X55626000Y-65786000D01*
X51054000Y-65074800D02*
X51765200Y-65786000D01*
%TD*%
%TO.N,GND*%
X32004000Y-51369631D02*
X32004001Y-55459158D01*
X31976821Y-55486338D01*
X31865632Y-55652744D01*
X31789044Y-55837644D01*
X31750000Y-56033933D01*
X31750000Y-56234067D01*
X31789044Y-56430356D01*
X31865632Y-56615256D01*
X31976821Y-56781662D01*
X32118338Y-56923179D01*
X32284744Y-57034368D01*
X32469644Y-57110956D01*
X32665933Y-57150000D01*
X32866067Y-57150000D01*
X33062356Y-57110956D01*
X33247256Y-57034368D01*
X33413662Y-56923179D01*
X33555179Y-56781662D01*
X33666368Y-56615256D01*
X33742956Y-56430356D01*
X33782000Y-56234067D01*
X33782000Y-56033933D01*
X33742956Y-55837644D01*
X33666368Y-55652744D01*
X33555179Y-55486338D01*
X33528000Y-55459159D01*
X33528000Y-55313866D01*
X37260785Y-59046652D01*
X37284643Y-59075723D01*
X37313713Y-59099580D01*
X37400672Y-59170946D01*
X37457151Y-59201134D01*
X37533050Y-59241703D01*
X37676687Y-59285275D01*
X37788639Y-59296301D01*
X37788642Y-59296301D01*
X37826065Y-59299987D01*
X37863488Y-59296301D01*
X38202950Y-59296301D01*
X38125820Y-59319698D01*
X38015506Y-59378663D01*
X37918815Y-59458015D01*
X37839463Y-59554706D01*
X37814809Y-59600830D01*
X37604463Y-59460282D01*
X37306912Y-59337032D01*
X36991033Y-59274200D01*
X36668967Y-59274200D01*
X36353088Y-59337032D01*
X36055537Y-59460282D01*
X35787748Y-59639213D01*
X35560013Y-59866948D01*
X35381082Y-60134737D01*
X35257832Y-60432288D01*
X35195000Y-60748167D01*
X35195000Y-61070233D01*
X35257832Y-61386112D01*
X35381082Y-61683663D01*
X35560013Y-61951452D01*
X35787748Y-62179187D01*
X36055537Y-62358118D01*
X36068001Y-62363281D01*
X36068001Y-63336768D01*
X35694884Y-63709886D01*
X35589886Y-63689000D01*
X35326914Y-63689000D01*
X35068995Y-63740304D01*
X34826041Y-63840939D01*
X34607387Y-63987038D01*
X34421438Y-64172987D01*
X34275339Y-64391641D01*
X34174704Y-64634595D01*
X34123400Y-64892514D01*
X34123400Y-65155486D01*
X34174704Y-65413405D01*
X34275339Y-65656359D01*
X34421438Y-65875013D01*
X34607387Y-66060962D01*
X34826041Y-66207061D01*
X35068995Y-66307696D01*
X35326914Y-66359000D01*
X35589886Y-66359000D01*
X35847805Y-66307696D01*
X36090759Y-66207061D01*
X36309413Y-66060962D01*
X36495362Y-65875013D01*
X36641461Y-65656359D01*
X36742096Y-65413405D01*
X36793400Y-65155486D01*
X36793400Y-64892514D01*
X36772514Y-64787516D01*
X37342352Y-64217679D01*
X37371422Y-64193822D01*
X37466645Y-64077792D01*
X37537402Y-63945415D01*
X37580974Y-63801778D01*
X37592000Y-63689826D01*
X37592000Y-63689824D01*
X37595686Y-63652401D01*
X37592000Y-63614978D01*
X37592000Y-62363280D01*
X37604463Y-62358118D01*
X37814809Y-62217570D01*
X37839463Y-62263694D01*
X37918815Y-62360385D01*
X38015506Y-62439737D01*
X38125820Y-62498702D01*
X38245518Y-62535012D01*
X38370000Y-62547272D01*
X39084250Y-62544200D01*
X39243000Y-62385450D01*
X39243000Y-61036200D01*
X39497000Y-61036200D01*
X39497000Y-62385450D01*
X39655750Y-62544200D01*
X40370000Y-62547272D01*
X40494482Y-62535012D01*
X40614180Y-62498702D01*
X40724494Y-62439737D01*
X40821185Y-62360385D01*
X40900537Y-62263694D01*
X40959502Y-62153380D01*
X40995812Y-62033682D01*
X41008072Y-61909200D01*
X41005000Y-61194950D01*
X40846250Y-61036200D01*
X39497000Y-61036200D01*
X39243000Y-61036200D01*
X39223000Y-61036200D01*
X39223000Y-60782200D01*
X39243000Y-60782200D01*
X39243000Y-60762200D01*
X39497000Y-60762200D01*
X39497000Y-60782200D01*
X40846250Y-60782200D01*
X41005000Y-60623450D01*
X41008072Y-59909200D01*
X41006095Y-59889125D01*
X45069966Y-63952997D01*
X45059241Y-63960163D01*
X44860643Y-64158761D01*
X44859812Y-64150318D01*
X44823502Y-64030620D01*
X44764537Y-63920306D01*
X44685185Y-63823615D01*
X44588494Y-63744263D01*
X44478180Y-63685298D01*
X44358482Y-63648988D01*
X44234000Y-63636728D01*
X43719750Y-63639800D01*
X43561000Y-63798550D01*
X43561000Y-64947800D01*
X43581000Y-64947800D01*
X43581000Y-65201800D01*
X43561000Y-65201800D01*
X43561000Y-65221800D01*
X43307000Y-65221800D01*
X43307000Y-65201800D01*
X42157750Y-65201800D01*
X41999000Y-65360550D01*
X41998724Y-65406694D01*
X41852514Y-65260484D01*
X41873400Y-65155486D01*
X41873400Y-64892514D01*
X41822096Y-64634595D01*
X41721461Y-64391641D01*
X41643391Y-64274800D01*
X41995928Y-64274800D01*
X41999000Y-64789050D01*
X42157750Y-64947800D01*
X43307000Y-64947800D01*
X43307000Y-63798550D01*
X43148250Y-63639800D01*
X42634000Y-63636728D01*
X42509518Y-63648988D01*
X42389820Y-63685298D01*
X42279506Y-63744263D01*
X42182815Y-63823615D01*
X42103463Y-63920306D01*
X42044498Y-64030620D01*
X42008188Y-64150318D01*
X41995928Y-64274800D01*
X41643391Y-64274800D01*
X41575362Y-64172987D01*
X41389413Y-63987038D01*
X41170759Y-63840939D01*
X40927805Y-63740304D01*
X40669886Y-63689000D01*
X40406914Y-63689000D01*
X40148995Y-63740304D01*
X39906041Y-63840939D01*
X39687387Y-63987038D01*
X39501438Y-64172987D01*
X39355339Y-64391641D01*
X39254704Y-64634595D01*
X39203400Y-64892514D01*
X39203400Y-65155486D01*
X39254704Y-65413405D01*
X39355339Y-65656359D01*
X39501438Y-65875013D01*
X39687387Y-66060962D01*
X39906041Y-66207061D01*
X40148995Y-66307696D01*
X40406914Y-66359000D01*
X40669886Y-66359000D01*
X40774884Y-66338114D01*
X41162416Y-66725646D01*
X28422200Y-66726173D01*
X28422200Y-61279872D01*
X29265000Y-61279872D01*
X29265000Y-61720128D01*
X29350890Y-62151925D01*
X29519369Y-62558669D01*
X29763962Y-62924729D01*
X30075271Y-63236038D01*
X30441331Y-63480631D01*
X30848075Y-63649110D01*
X31279872Y-63735000D01*
X31720128Y-63735000D01*
X32151925Y-63649110D01*
X32558669Y-63480631D01*
X32924729Y-63236038D01*
X33236038Y-62924729D01*
X33480631Y-62558669D01*
X33649110Y-62151925D01*
X33735000Y-61720128D01*
X33735000Y-61279872D01*
X33649110Y-60848075D01*
X33480631Y-60441331D01*
X33236038Y-60075271D01*
X32924729Y-59763962D01*
X32558669Y-59519369D01*
X32151925Y-59350890D01*
X31720128Y-59265000D01*
X31279872Y-59265000D01*
X30848075Y-59350890D01*
X30441331Y-59519369D01*
X30075271Y-59763962D01*
X29763962Y-60075271D01*
X29519369Y-60441331D01*
X29350890Y-60848075D01*
X29265000Y-61279872D01*
X28422200Y-61279872D01*
X28422200Y-54518604D01*
X28513506Y-54593537D01*
X28623820Y-54652502D01*
X28743518Y-54688812D01*
X28868000Y-54701072D01*
X30568000Y-54701072D01*
X30692482Y-54688812D01*
X30812180Y-54652502D01*
X30922494Y-54593537D01*
X31019185Y-54514185D01*
X31098537Y-54417494D01*
X31157502Y-54307180D01*
X31193812Y-54187482D01*
X31206072Y-54063000D01*
X31206072Y-52363000D01*
X31193812Y-52238518D01*
X31157502Y-52118820D01*
X31098537Y-52008506D01*
X31019185Y-51911815D01*
X30922494Y-51832463D01*
X30812180Y-51773498D01*
X30739620Y-51751487D01*
X30871475Y-51619632D01*
X31033990Y-51376411D01*
X31145932Y-51106158D01*
X31203000Y-50819260D01*
X31203000Y-50568631D01*
X32004000Y-51369631D01*
%TA.AperFunction,Conductor*%
D26*
G36*
X32004000Y-51369631D02*
G01*
X32004001Y-55459158D01*
X31976821Y-55486338D01*
X31865632Y-55652744D01*
X31789044Y-55837644D01*
X31750000Y-56033933D01*
X31750000Y-56234067D01*
X31789044Y-56430356D01*
X31865632Y-56615256D01*
X31976821Y-56781662D01*
X32118338Y-56923179D01*
X32284744Y-57034368D01*
X32469644Y-57110956D01*
X32665933Y-57150000D01*
X32866067Y-57150000D01*
X33062356Y-57110956D01*
X33247256Y-57034368D01*
X33413662Y-56923179D01*
X33555179Y-56781662D01*
X33666368Y-56615256D01*
X33742956Y-56430356D01*
X33782000Y-56234067D01*
X33782000Y-56033933D01*
X33742956Y-55837644D01*
X33666368Y-55652744D01*
X33555179Y-55486338D01*
X33528000Y-55459159D01*
X33528000Y-55313866D01*
X37260785Y-59046652D01*
X37284643Y-59075723D01*
X37313713Y-59099580D01*
X37400672Y-59170946D01*
X37457151Y-59201134D01*
X37533050Y-59241703D01*
X37676687Y-59285275D01*
X37788639Y-59296301D01*
X37788642Y-59296301D01*
X37826065Y-59299987D01*
X37863488Y-59296301D01*
X38202950Y-59296301D01*
X38125820Y-59319698D01*
X38015506Y-59378663D01*
X37918815Y-59458015D01*
X37839463Y-59554706D01*
X37814809Y-59600830D01*
X37604463Y-59460282D01*
X37306912Y-59337032D01*
X36991033Y-59274200D01*
X36668967Y-59274200D01*
X36353088Y-59337032D01*
X36055537Y-59460282D01*
X35787748Y-59639213D01*
X35560013Y-59866948D01*
X35381082Y-60134737D01*
X35257832Y-60432288D01*
X35195000Y-60748167D01*
X35195000Y-61070233D01*
X35257832Y-61386112D01*
X35381082Y-61683663D01*
X35560013Y-61951452D01*
X35787748Y-62179187D01*
X36055537Y-62358118D01*
X36068001Y-62363281D01*
X36068001Y-63336768D01*
X35694884Y-63709886D01*
X35589886Y-63689000D01*
X35326914Y-63689000D01*
X35068995Y-63740304D01*
X34826041Y-63840939D01*
X34607387Y-63987038D01*
X34421438Y-64172987D01*
X34275339Y-64391641D01*
X34174704Y-64634595D01*
X34123400Y-64892514D01*
X34123400Y-65155486D01*
X34174704Y-65413405D01*
X34275339Y-65656359D01*
X34421438Y-65875013D01*
X34607387Y-66060962D01*
X34826041Y-66207061D01*
X35068995Y-66307696D01*
X35326914Y-66359000D01*
X35589886Y-66359000D01*
X35847805Y-66307696D01*
X36090759Y-66207061D01*
X36309413Y-66060962D01*
X36495362Y-65875013D01*
X36641461Y-65656359D01*
X36742096Y-65413405D01*
X36793400Y-65155486D01*
X36793400Y-64892514D01*
X36772514Y-64787516D01*
X37342352Y-64217679D01*
X37371422Y-64193822D01*
X37466645Y-64077792D01*
X37537402Y-63945415D01*
X37580974Y-63801778D01*
X37592000Y-63689826D01*
X37592000Y-63689824D01*
X37595686Y-63652401D01*
X37592000Y-63614978D01*
X37592000Y-62363280D01*
X37604463Y-62358118D01*
X37814809Y-62217570D01*
X37839463Y-62263694D01*
X37918815Y-62360385D01*
X38015506Y-62439737D01*
X38125820Y-62498702D01*
X38245518Y-62535012D01*
X38370000Y-62547272D01*
X39084250Y-62544200D01*
X39243000Y-62385450D01*
X39243000Y-61036200D01*
X39497000Y-61036200D01*
X39497000Y-62385450D01*
X39655750Y-62544200D01*
X40370000Y-62547272D01*
X40494482Y-62535012D01*
X40614180Y-62498702D01*
X40724494Y-62439737D01*
X40821185Y-62360385D01*
X40900537Y-62263694D01*
X40959502Y-62153380D01*
X40995812Y-62033682D01*
X41008072Y-61909200D01*
X41005000Y-61194950D01*
X40846250Y-61036200D01*
X39497000Y-61036200D01*
X39243000Y-61036200D01*
X39223000Y-61036200D01*
X39223000Y-60782200D01*
X39243000Y-60782200D01*
X39243000Y-60762200D01*
X39497000Y-60762200D01*
X39497000Y-60782200D01*
X40846250Y-60782200D01*
X41005000Y-60623450D01*
X41008072Y-59909200D01*
X41006095Y-59889125D01*
X45069966Y-63952997D01*
X45059241Y-63960163D01*
X44860643Y-64158761D01*
X44859812Y-64150318D01*
X44823502Y-64030620D01*
X44764537Y-63920306D01*
X44685185Y-63823615D01*
X44588494Y-63744263D01*
X44478180Y-63685298D01*
X44358482Y-63648988D01*
X44234000Y-63636728D01*
X43719750Y-63639800D01*
X43561000Y-63798550D01*
X43561000Y-64947800D01*
X43581000Y-64947800D01*
X43581000Y-65201800D01*
X43561000Y-65201800D01*
X43561000Y-65221800D01*
X43307000Y-65221800D01*
X43307000Y-65201800D01*
X42157750Y-65201800D01*
X41999000Y-65360550D01*
X41998724Y-65406694D01*
X41852514Y-65260484D01*
X41873400Y-65155486D01*
X41873400Y-64892514D01*
X41822096Y-64634595D01*
X41721461Y-64391641D01*
X41643391Y-64274800D01*
X41995928Y-64274800D01*
X41999000Y-64789050D01*
X42157750Y-64947800D01*
X43307000Y-64947800D01*
X43307000Y-63798550D01*
X43148250Y-63639800D01*
X42634000Y-63636728D01*
X42509518Y-63648988D01*
X42389820Y-63685298D01*
X42279506Y-63744263D01*
X42182815Y-63823615D01*
X42103463Y-63920306D01*
X42044498Y-64030620D01*
X42008188Y-64150318D01*
X41995928Y-64274800D01*
X41643391Y-64274800D01*
X41575362Y-64172987D01*
X41389413Y-63987038D01*
X41170759Y-63840939D01*
X40927805Y-63740304D01*
X40669886Y-63689000D01*
X40406914Y-63689000D01*
X40148995Y-63740304D01*
X39906041Y-63840939D01*
X39687387Y-63987038D01*
X39501438Y-64172987D01*
X39355339Y-64391641D01*
X39254704Y-64634595D01*
X39203400Y-64892514D01*
X39203400Y-65155486D01*
X39254704Y-65413405D01*
X39355339Y-65656359D01*
X39501438Y-65875013D01*
X39687387Y-66060962D01*
X39906041Y-66207061D01*
X40148995Y-66307696D01*
X40406914Y-66359000D01*
X40669886Y-66359000D01*
X40774884Y-66338114D01*
X41162416Y-66725646D01*
X28422200Y-66726173D01*
X28422200Y-61279872D01*
X29265000Y-61279872D01*
X29265000Y-61720128D01*
X29350890Y-62151925D01*
X29519369Y-62558669D01*
X29763962Y-62924729D01*
X30075271Y-63236038D01*
X30441331Y-63480631D01*
X30848075Y-63649110D01*
X31279872Y-63735000D01*
X31720128Y-63735000D01*
X32151925Y-63649110D01*
X32558669Y-63480631D01*
X32924729Y-63236038D01*
X33236038Y-62924729D01*
X33480631Y-62558669D01*
X33649110Y-62151925D01*
X33735000Y-61720128D01*
X33735000Y-61279872D01*
X33649110Y-60848075D01*
X33480631Y-60441331D01*
X33236038Y-60075271D01*
X32924729Y-59763962D01*
X32558669Y-59519369D01*
X32151925Y-59350890D01*
X31720128Y-59265000D01*
X31279872Y-59265000D01*
X30848075Y-59350890D01*
X30441331Y-59519369D01*
X30075271Y-59763962D01*
X29763962Y-60075271D01*
X29519369Y-60441331D01*
X29350890Y-60848075D01*
X29265000Y-61279872D01*
X28422200Y-61279872D01*
X28422200Y-54518604D01*
X28513506Y-54593537D01*
X28623820Y-54652502D01*
X28743518Y-54688812D01*
X28868000Y-54701072D01*
X30568000Y-54701072D01*
X30692482Y-54688812D01*
X30812180Y-54652502D01*
X30922494Y-54593537D01*
X31019185Y-54514185D01*
X31098537Y-54417494D01*
X31157502Y-54307180D01*
X31193812Y-54187482D01*
X31206072Y-54063000D01*
X31206072Y-52363000D01*
X31193812Y-52238518D01*
X31157502Y-52118820D01*
X31098537Y-52008506D01*
X31019185Y-51911815D01*
X30922494Y-51832463D01*
X30812180Y-51773498D01*
X30739620Y-51751487D01*
X30871475Y-51619632D01*
X31033990Y-51376411D01*
X31145932Y-51106158D01*
X31203000Y-50819260D01*
X31203000Y-50568631D01*
X32004000Y-51369631D01*
G37*
%TD.AperFunction*%
D25*
X74323363Y-54508759D02*
X74523241Y-54708637D01*
X74758273Y-54865680D01*
X75019426Y-54973853D01*
X75172202Y-55004243D01*
X75102411Y-55018125D01*
X74850357Y-55122529D01*
X74623514Y-55274101D01*
X74430601Y-55467014D01*
X74279029Y-55693857D01*
X74174625Y-55945911D01*
X74121400Y-56213489D01*
X74121400Y-56486311D01*
X74174625Y-56753889D01*
X74279029Y-57005943D01*
X74392257Y-57175400D01*
X74279029Y-57344857D01*
X74174625Y-57596911D01*
X74121400Y-57864489D01*
X74121400Y-58137311D01*
X74174625Y-58404889D01*
X74279029Y-58656943D01*
X74413472Y-58858150D01*
X74279029Y-59059357D01*
X74219651Y-59202708D01*
X74149110Y-58848075D01*
X73980631Y-58441331D01*
X73736038Y-58075271D01*
X73424729Y-57763962D01*
X73058669Y-57519369D01*
X72651925Y-57350890D01*
X72220128Y-57265000D01*
X71779872Y-57265000D01*
X71348075Y-57350890D01*
X70941331Y-57519369D01*
X70575271Y-57763962D01*
X70263962Y-58075271D01*
X70019369Y-58441331D01*
X69850890Y-58848075D01*
X69765000Y-59279872D01*
X69765000Y-59720128D01*
X69850890Y-60151925D01*
X70019369Y-60558669D01*
X70263962Y-60924729D01*
X70575271Y-61236038D01*
X70941331Y-61480631D01*
X71348075Y-61649110D01*
X71779872Y-61735000D01*
X72220128Y-61735000D01*
X72651925Y-61649110D01*
X73058669Y-61480631D01*
X73424729Y-61236038D01*
X73736038Y-60924729D01*
X73980631Y-60558669D01*
X74149110Y-60151925D01*
X74165103Y-60071521D01*
X74174625Y-60119389D01*
X74279029Y-60371443D01*
X74371042Y-60509150D01*
X74279029Y-60646857D01*
X74174625Y-60898911D01*
X74121400Y-61166489D01*
X74121400Y-61439311D01*
X74174625Y-61706889D01*
X74279029Y-61958943D01*
X74371042Y-62096650D01*
X74279029Y-62234357D01*
X74174625Y-62486411D01*
X74121400Y-62753989D01*
X74121400Y-63026811D01*
X74174625Y-63294389D01*
X74279029Y-63546443D01*
X74392257Y-63715900D01*
X74279029Y-63885357D01*
X74174625Y-64137411D01*
X74121400Y-64404989D01*
X74121400Y-64677811D01*
X74174625Y-64945389D01*
X74279029Y-65197443D01*
X74371042Y-65335150D01*
X74279029Y-65472857D01*
X74174625Y-65724911D01*
X74121400Y-65992489D01*
X74121400Y-66265311D01*
X74174625Y-66532889D01*
X74253901Y-66724277D01*
X65010570Y-66724660D01*
X66870191Y-64865039D01*
X69474096Y-64865039D01*
X69514754Y-64999087D01*
X69634963Y-65253420D01*
X69802481Y-65479414D01*
X70010869Y-65668385D01*
X70252119Y-65813070D01*
X70516960Y-65907909D01*
X70739000Y-65786624D01*
X70739000Y-64643000D01*
X70993000Y-64643000D01*
X70993000Y-65786624D01*
X71215040Y-65907909D01*
X71479881Y-65813070D01*
X71721131Y-65668385D01*
X71929519Y-65479414D01*
X72097037Y-65253420D01*
X72217246Y-64999087D01*
X72257904Y-64865039D01*
X72135915Y-64643000D01*
X70993000Y-64643000D01*
X70739000Y-64643000D01*
X69596085Y-64643000D01*
X69474096Y-64865039D01*
X66870191Y-64865039D01*
X67568269Y-64166961D01*
X69474096Y-64166961D01*
X69596085Y-64389000D01*
X70739000Y-64389000D01*
X70739000Y-63245376D01*
X70993000Y-63245376D01*
X70993000Y-64389000D01*
X72135915Y-64389000D01*
X72257904Y-64166961D01*
X72217246Y-64032913D01*
X72097037Y-63778580D01*
X71929519Y-63552586D01*
X71721131Y-63363615D01*
X71479881Y-63218930D01*
X71215040Y-63124091D01*
X70993000Y-63245376D01*
X70739000Y-63245376D01*
X70516960Y-63124091D01*
X70252119Y-63218930D01*
X70010869Y-63363615D01*
X69802481Y-63552586D01*
X69634963Y-63778580D01*
X69514754Y-64032913D01*
X69474096Y-64166961D01*
X67568269Y-64166961D01*
X68635153Y-63100078D01*
X68664222Y-63076222D01*
X68759445Y-62960192D01*
X68830202Y-62827815D01*
X68873774Y-62684178D01*
X68884800Y-62572226D01*
X68884800Y-62572224D01*
X68888486Y-62534801D01*
X68884800Y-62497378D01*
X68884800Y-56144830D01*
X70036473Y-54993157D01*
X70216665Y-55029000D01*
X70499335Y-55029000D01*
X70776574Y-54973853D01*
X71037727Y-54865680D01*
X71272759Y-54708637D01*
X71472637Y-54508759D01*
X71628000Y-54276241D01*
X71783363Y-54508759D01*
X71983241Y-54708637D01*
X72218273Y-54865680D01*
X72479426Y-54973853D01*
X72756665Y-55029000D01*
X73039335Y-55029000D01*
X73316574Y-54973853D01*
X73577727Y-54865680D01*
X73812759Y-54708637D01*
X74012637Y-54508759D01*
X74168000Y-54276241D01*
X74323363Y-54508759D01*
%TA.AperFunction,Conductor*%
D26*
G36*
X74323363Y-54508759D02*
G01*
X74523241Y-54708637D01*
X74758273Y-54865680D01*
X75019426Y-54973853D01*
X75172202Y-55004243D01*
X75102411Y-55018125D01*
X74850357Y-55122529D01*
X74623514Y-55274101D01*
X74430601Y-55467014D01*
X74279029Y-55693857D01*
X74174625Y-55945911D01*
X74121400Y-56213489D01*
X74121400Y-56486311D01*
X74174625Y-56753889D01*
X74279029Y-57005943D01*
X74392257Y-57175400D01*
X74279029Y-57344857D01*
X74174625Y-57596911D01*
X74121400Y-57864489D01*
X74121400Y-58137311D01*
X74174625Y-58404889D01*
X74279029Y-58656943D01*
X74413472Y-58858150D01*
X74279029Y-59059357D01*
X74219651Y-59202708D01*
X74149110Y-58848075D01*
X73980631Y-58441331D01*
X73736038Y-58075271D01*
X73424729Y-57763962D01*
X73058669Y-57519369D01*
X72651925Y-57350890D01*
X72220128Y-57265000D01*
X71779872Y-57265000D01*
X71348075Y-57350890D01*
X70941331Y-57519369D01*
X70575271Y-57763962D01*
X70263962Y-58075271D01*
X70019369Y-58441331D01*
X69850890Y-58848075D01*
X69765000Y-59279872D01*
X69765000Y-59720128D01*
X69850890Y-60151925D01*
X70019369Y-60558669D01*
X70263962Y-60924729D01*
X70575271Y-61236038D01*
X70941331Y-61480631D01*
X71348075Y-61649110D01*
X71779872Y-61735000D01*
X72220128Y-61735000D01*
X72651925Y-61649110D01*
X73058669Y-61480631D01*
X73424729Y-61236038D01*
X73736038Y-60924729D01*
X73980631Y-60558669D01*
X74149110Y-60151925D01*
X74165103Y-60071521D01*
X74174625Y-60119389D01*
X74279029Y-60371443D01*
X74371042Y-60509150D01*
X74279029Y-60646857D01*
X74174625Y-60898911D01*
X74121400Y-61166489D01*
X74121400Y-61439311D01*
X74174625Y-61706889D01*
X74279029Y-61958943D01*
X74371042Y-62096650D01*
X74279029Y-62234357D01*
X74174625Y-62486411D01*
X74121400Y-62753989D01*
X74121400Y-63026811D01*
X74174625Y-63294389D01*
X74279029Y-63546443D01*
X74392257Y-63715900D01*
X74279029Y-63885357D01*
X74174625Y-64137411D01*
X74121400Y-64404989D01*
X74121400Y-64677811D01*
X74174625Y-64945389D01*
X74279029Y-65197443D01*
X74371042Y-65335150D01*
X74279029Y-65472857D01*
X74174625Y-65724911D01*
X74121400Y-65992489D01*
X74121400Y-66265311D01*
X74174625Y-66532889D01*
X74253901Y-66724277D01*
X65010570Y-66724660D01*
X66870191Y-64865039D01*
X69474096Y-64865039D01*
X69514754Y-64999087D01*
X69634963Y-65253420D01*
X69802481Y-65479414D01*
X70010869Y-65668385D01*
X70252119Y-65813070D01*
X70516960Y-65907909D01*
X70739000Y-65786624D01*
X70739000Y-64643000D01*
X70993000Y-64643000D01*
X70993000Y-65786624D01*
X71215040Y-65907909D01*
X71479881Y-65813070D01*
X71721131Y-65668385D01*
X71929519Y-65479414D01*
X72097037Y-65253420D01*
X72217246Y-64999087D01*
X72257904Y-64865039D01*
X72135915Y-64643000D01*
X70993000Y-64643000D01*
X70739000Y-64643000D01*
X69596085Y-64643000D01*
X69474096Y-64865039D01*
X66870191Y-64865039D01*
X67568269Y-64166961D01*
X69474096Y-64166961D01*
X69596085Y-64389000D01*
X70739000Y-64389000D01*
X70739000Y-63245376D01*
X70993000Y-63245376D01*
X70993000Y-64389000D01*
X72135915Y-64389000D01*
X72257904Y-64166961D01*
X72217246Y-64032913D01*
X72097037Y-63778580D01*
X71929519Y-63552586D01*
X71721131Y-63363615D01*
X71479881Y-63218930D01*
X71215040Y-63124091D01*
X70993000Y-63245376D01*
X70739000Y-63245376D01*
X70516960Y-63124091D01*
X70252119Y-63218930D01*
X70010869Y-63363615D01*
X69802481Y-63552586D01*
X69634963Y-63778580D01*
X69514754Y-64032913D01*
X69474096Y-64166961D01*
X67568269Y-64166961D01*
X68635153Y-63100078D01*
X68664222Y-63076222D01*
X68759445Y-62960192D01*
X68830202Y-62827815D01*
X68873774Y-62684178D01*
X68884800Y-62572226D01*
X68884800Y-62572224D01*
X68888486Y-62534801D01*
X68884800Y-62497378D01*
X68884800Y-56144830D01*
X70036473Y-54993157D01*
X70216665Y-55029000D01*
X70499335Y-55029000D01*
X70776574Y-54973853D01*
X71037727Y-54865680D01*
X71272759Y-54708637D01*
X71472637Y-54508759D01*
X71628000Y-54276241D01*
X71783363Y-54508759D01*
X71983241Y-54708637D01*
X72218273Y-54865680D01*
X72479426Y-54973853D01*
X72756665Y-55029000D01*
X73039335Y-55029000D01*
X73316574Y-54973853D01*
X73577727Y-54865680D01*
X73812759Y-54708637D01*
X74012637Y-54508759D01*
X74168000Y-54276241D01*
X74323363Y-54508759D01*
G37*
%TD.AperFunction*%
D25*
X87151757Y-56625771D02*
X87403811Y-56730175D01*
X87671389Y-56783400D01*
X87944211Y-56783400D01*
X88211789Y-56730175D01*
X88463843Y-56625771D01*
X88588850Y-56542244D01*
X88713857Y-56625771D01*
X88965911Y-56730175D01*
X89233489Y-56783400D01*
X89506311Y-56783400D01*
X89773889Y-56730175D01*
X89962401Y-56652091D01*
X89962401Y-66723628D01*
X76758942Y-66724174D01*
X76826911Y-66560083D01*
X76883820Y-66590502D01*
X77003518Y-66626812D01*
X77128000Y-66639072D01*
X78828000Y-66639072D01*
X78952482Y-66626812D01*
X79072180Y-66590502D01*
X79182494Y-66531537D01*
X79279185Y-66452185D01*
X79358537Y-66355494D01*
X79417502Y-66245180D01*
X79453812Y-66125482D01*
X79466072Y-66001000D01*
X79466072Y-64867558D01*
X80579631Y-63754000D01*
X81864908Y-63754000D01*
X81869869Y-63765978D01*
X82026912Y-64001010D01*
X82226790Y-64200888D01*
X82461822Y-64357931D01*
X82722975Y-64466104D01*
X83000214Y-64521251D01*
X83282884Y-64521251D01*
X83560123Y-64466104D01*
X83821276Y-64357931D01*
X84056308Y-64200888D01*
X84178697Y-64078499D01*
X85921009Y-64078499D01*
X85921009Y-64303005D01*
X86282466Y-64668807D01*
X86379157Y-64748160D01*
X86489471Y-64807124D01*
X86609170Y-64843433D01*
X86733651Y-64855694D01*
X86858132Y-64843433D01*
X86977831Y-64807124D01*
X87088145Y-64748160D01*
X87184836Y-64668807D01*
X87546293Y-64303005D01*
X87546293Y-64078499D01*
X86733651Y-63265856D01*
X85921009Y-64078499D01*
X84178697Y-64078499D01*
X84256186Y-64001010D01*
X84413229Y-63765978D01*
X84521402Y-63504825D01*
X84576549Y-63227586D01*
X84576549Y-63086251D01*
X84964208Y-63086251D01*
X84976469Y-63210732D01*
X85012778Y-63330431D01*
X85071742Y-63440745D01*
X85151095Y-63537436D01*
X85516897Y-63898893D01*
X85741403Y-63898893D01*
X86554046Y-63086251D01*
X86913256Y-63086251D01*
X87725899Y-63898893D01*
X87950405Y-63898893D01*
X88316207Y-63537436D01*
X88395560Y-63440745D01*
X88454524Y-63330431D01*
X88490833Y-63210732D01*
X88503094Y-63086251D01*
X88490833Y-62961770D01*
X88454524Y-62842071D01*
X88395560Y-62731757D01*
X88316207Y-62635066D01*
X87950405Y-62273609D01*
X87725899Y-62273609D01*
X86913256Y-63086251D01*
X86554046Y-63086251D01*
X85741403Y-62273609D01*
X85516897Y-62273609D01*
X85151095Y-62635066D01*
X85071742Y-62731757D01*
X85012778Y-62842071D01*
X84976469Y-62961770D01*
X84964208Y-63086251D01*
X84576549Y-63086251D01*
X84576549Y-62944916D01*
X84521402Y-62667677D01*
X84413229Y-62406524D01*
X84256186Y-62171492D01*
X84056308Y-61971614D01*
X83903479Y-61869497D01*
X85921009Y-61869497D01*
X85921009Y-62094003D01*
X86733651Y-62906646D01*
X87546293Y-62094003D01*
X87546293Y-61869497D01*
X87184836Y-61503695D01*
X87088145Y-61424342D01*
X86977831Y-61365378D01*
X86858132Y-61329069D01*
X86733651Y-61316808D01*
X86609170Y-61329069D01*
X86489471Y-61365378D01*
X86379157Y-61424342D01*
X86282466Y-61503695D01*
X85921009Y-61869497D01*
X83903479Y-61869497D01*
X83821276Y-61814571D01*
X83560123Y-61706398D01*
X83282884Y-61651251D01*
X83000214Y-61651251D01*
X82722975Y-61706398D01*
X82461822Y-61814571D01*
X82226790Y-61971614D01*
X82026912Y-62171492D01*
X81987818Y-62230000D01*
X80301422Y-62230000D01*
X80263999Y-62226314D01*
X80226576Y-62230000D01*
X80226574Y-62230000D01*
X80114622Y-62241026D01*
X79970985Y-62284598D01*
X79838608Y-62355355D01*
X79722578Y-62450578D01*
X79698721Y-62479648D01*
X79463000Y-62715369D01*
X79463000Y-62464740D01*
X79405932Y-62177842D01*
X79393003Y-62146628D01*
X81341631Y-60198000D01*
X81885988Y-60198000D01*
X82026912Y-60408908D01*
X82226790Y-60608786D01*
X82461822Y-60765829D01*
X82722975Y-60874002D01*
X83000214Y-60929149D01*
X83282884Y-60929149D01*
X83560123Y-60874002D01*
X83821276Y-60765829D01*
X84056308Y-60608786D01*
X84256186Y-60408908D01*
X84413229Y-60173876D01*
X84521402Y-59912723D01*
X84576549Y-59635484D01*
X84576549Y-59352814D01*
X85298651Y-59352814D01*
X85298651Y-59635484D01*
X85353798Y-59912723D01*
X85461971Y-60173876D01*
X85619014Y-60408908D01*
X85818892Y-60608786D01*
X86053924Y-60765829D01*
X86315077Y-60874002D01*
X86592316Y-60929149D01*
X86874986Y-60929149D01*
X87152225Y-60874002D01*
X87413378Y-60765829D01*
X87648410Y-60608786D01*
X87848288Y-60408908D01*
X88005331Y-60173876D01*
X88113504Y-59912723D01*
X88168651Y-59635484D01*
X88168651Y-59352814D01*
X88113504Y-59075575D01*
X88005331Y-58814422D01*
X87848288Y-58579390D01*
X87648410Y-58379512D01*
X87413378Y-58222469D01*
X87152225Y-58114296D01*
X86874986Y-58059149D01*
X86592316Y-58059149D01*
X86315077Y-58114296D01*
X86053924Y-58222469D01*
X85818892Y-58379512D01*
X85619014Y-58579390D01*
X85461971Y-58814422D01*
X85353798Y-59075575D01*
X85298651Y-59352814D01*
X84576549Y-59352814D01*
X84521402Y-59075575D01*
X84413229Y-58814422D01*
X84256186Y-58579390D01*
X84056308Y-58379512D01*
X83821276Y-58222469D01*
X83560123Y-58114296D01*
X83282884Y-58059149D01*
X83000214Y-58059149D01*
X82722975Y-58114296D01*
X82461822Y-58222469D01*
X82226790Y-58379512D01*
X82026912Y-58579390D01*
X81963696Y-58674000D01*
X81063423Y-58674000D01*
X81026000Y-58670314D01*
X80988577Y-58674000D01*
X80988574Y-58674000D01*
X80876622Y-58685026D01*
X80732985Y-58728598D01*
X80683572Y-58755010D01*
X80600607Y-58799355D01*
X80566537Y-58827316D01*
X80484578Y-58894578D01*
X80460721Y-58923648D01*
X79462441Y-59921929D01*
X79405932Y-59637842D01*
X79293990Y-59367589D01*
X79131475Y-59124368D01*
X78999620Y-58992513D01*
X79072180Y-58970502D01*
X79182494Y-58911537D01*
X79279185Y-58832185D01*
X79358537Y-58735494D01*
X79417502Y-58625180D01*
X79453812Y-58505482D01*
X79466072Y-58381000D01*
X79463000Y-57816750D01*
X79304250Y-57658000D01*
X78105000Y-57658000D01*
X78105000Y-57678000D01*
X77851000Y-57678000D01*
X77851000Y-57658000D01*
X77831000Y-57658000D01*
X77831000Y-57404000D01*
X77851000Y-57404000D01*
X77851000Y-57384000D01*
X78105000Y-57384000D01*
X78105000Y-57404000D01*
X79304250Y-57404000D01*
X79463000Y-57245250D01*
X79465681Y-56752786D01*
X79619589Y-56783400D01*
X79892411Y-56783400D01*
X80159989Y-56730175D01*
X80412043Y-56625771D01*
X80543400Y-56538001D01*
X80674757Y-56625771D01*
X80926811Y-56730175D01*
X81194389Y-56783400D01*
X81467211Y-56783400D01*
X81734789Y-56730175D01*
X81986843Y-56625771D01*
X82143600Y-56521029D01*
X82300357Y-56625771D01*
X82552411Y-56730175D01*
X82819989Y-56783400D01*
X83092811Y-56783400D01*
X83360389Y-56730175D01*
X83612443Y-56625771D01*
X83762850Y-56525272D01*
X83913257Y-56625771D01*
X84165311Y-56730175D01*
X84432889Y-56783400D01*
X84705711Y-56783400D01*
X84973289Y-56730175D01*
X85225343Y-56625771D01*
X85363050Y-56533758D01*
X85500757Y-56625771D01*
X85752811Y-56730175D01*
X86020389Y-56783400D01*
X86293211Y-56783400D01*
X86560789Y-56730175D01*
X86812843Y-56625771D01*
X86982300Y-56512543D01*
X87151757Y-56625771D01*
%TA.AperFunction,Conductor*%
D26*
G36*
X87151757Y-56625771D02*
G01*
X87403811Y-56730175D01*
X87671389Y-56783400D01*
X87944211Y-56783400D01*
X88211789Y-56730175D01*
X88463843Y-56625771D01*
X88588850Y-56542244D01*
X88713857Y-56625771D01*
X88965911Y-56730175D01*
X89233489Y-56783400D01*
X89506311Y-56783400D01*
X89773889Y-56730175D01*
X89962401Y-56652091D01*
X89962401Y-66723628D01*
X76758942Y-66724174D01*
X76826911Y-66560083D01*
X76883820Y-66590502D01*
X77003518Y-66626812D01*
X77128000Y-66639072D01*
X78828000Y-66639072D01*
X78952482Y-66626812D01*
X79072180Y-66590502D01*
X79182494Y-66531537D01*
X79279185Y-66452185D01*
X79358537Y-66355494D01*
X79417502Y-66245180D01*
X79453812Y-66125482D01*
X79466072Y-66001000D01*
X79466072Y-64867558D01*
X80579631Y-63754000D01*
X81864908Y-63754000D01*
X81869869Y-63765978D01*
X82026912Y-64001010D01*
X82226790Y-64200888D01*
X82461822Y-64357931D01*
X82722975Y-64466104D01*
X83000214Y-64521251D01*
X83282884Y-64521251D01*
X83560123Y-64466104D01*
X83821276Y-64357931D01*
X84056308Y-64200888D01*
X84178697Y-64078499D01*
X85921009Y-64078499D01*
X85921009Y-64303005D01*
X86282466Y-64668807D01*
X86379157Y-64748160D01*
X86489471Y-64807124D01*
X86609170Y-64843433D01*
X86733651Y-64855694D01*
X86858132Y-64843433D01*
X86977831Y-64807124D01*
X87088145Y-64748160D01*
X87184836Y-64668807D01*
X87546293Y-64303005D01*
X87546293Y-64078499D01*
X86733651Y-63265856D01*
X85921009Y-64078499D01*
X84178697Y-64078499D01*
X84256186Y-64001010D01*
X84413229Y-63765978D01*
X84521402Y-63504825D01*
X84576549Y-63227586D01*
X84576549Y-63086251D01*
X84964208Y-63086251D01*
X84976469Y-63210732D01*
X85012778Y-63330431D01*
X85071742Y-63440745D01*
X85151095Y-63537436D01*
X85516897Y-63898893D01*
X85741403Y-63898893D01*
X86554046Y-63086251D01*
X86913256Y-63086251D01*
X87725899Y-63898893D01*
X87950405Y-63898893D01*
X88316207Y-63537436D01*
X88395560Y-63440745D01*
X88454524Y-63330431D01*
X88490833Y-63210732D01*
X88503094Y-63086251D01*
X88490833Y-62961770D01*
X88454524Y-62842071D01*
X88395560Y-62731757D01*
X88316207Y-62635066D01*
X87950405Y-62273609D01*
X87725899Y-62273609D01*
X86913256Y-63086251D01*
X86554046Y-63086251D01*
X85741403Y-62273609D01*
X85516897Y-62273609D01*
X85151095Y-62635066D01*
X85071742Y-62731757D01*
X85012778Y-62842071D01*
X84976469Y-62961770D01*
X84964208Y-63086251D01*
X84576549Y-63086251D01*
X84576549Y-62944916D01*
X84521402Y-62667677D01*
X84413229Y-62406524D01*
X84256186Y-62171492D01*
X84056308Y-61971614D01*
X83903479Y-61869497D01*
X85921009Y-61869497D01*
X85921009Y-62094003D01*
X86733651Y-62906646D01*
X87546293Y-62094003D01*
X87546293Y-61869497D01*
X87184836Y-61503695D01*
X87088145Y-61424342D01*
X86977831Y-61365378D01*
X86858132Y-61329069D01*
X86733651Y-61316808D01*
X86609170Y-61329069D01*
X86489471Y-61365378D01*
X86379157Y-61424342D01*
X86282466Y-61503695D01*
X85921009Y-61869497D01*
X83903479Y-61869497D01*
X83821276Y-61814571D01*
X83560123Y-61706398D01*
X83282884Y-61651251D01*
X83000214Y-61651251D01*
X82722975Y-61706398D01*
X82461822Y-61814571D01*
X82226790Y-61971614D01*
X82026912Y-62171492D01*
X81987818Y-62230000D01*
X80301422Y-62230000D01*
X80263999Y-62226314D01*
X80226576Y-62230000D01*
X80226574Y-62230000D01*
X80114622Y-62241026D01*
X79970985Y-62284598D01*
X79838608Y-62355355D01*
X79722578Y-62450578D01*
X79698721Y-62479648D01*
X79463000Y-62715369D01*
X79463000Y-62464740D01*
X79405932Y-62177842D01*
X79393003Y-62146628D01*
X81341631Y-60198000D01*
X81885988Y-60198000D01*
X82026912Y-60408908D01*
X82226790Y-60608786D01*
X82461822Y-60765829D01*
X82722975Y-60874002D01*
X83000214Y-60929149D01*
X83282884Y-60929149D01*
X83560123Y-60874002D01*
X83821276Y-60765829D01*
X84056308Y-60608786D01*
X84256186Y-60408908D01*
X84413229Y-60173876D01*
X84521402Y-59912723D01*
X84576549Y-59635484D01*
X84576549Y-59352814D01*
X85298651Y-59352814D01*
X85298651Y-59635484D01*
X85353798Y-59912723D01*
X85461971Y-60173876D01*
X85619014Y-60408908D01*
X85818892Y-60608786D01*
X86053924Y-60765829D01*
X86315077Y-60874002D01*
X86592316Y-60929149D01*
X86874986Y-60929149D01*
X87152225Y-60874002D01*
X87413378Y-60765829D01*
X87648410Y-60608786D01*
X87848288Y-60408908D01*
X88005331Y-60173876D01*
X88113504Y-59912723D01*
X88168651Y-59635484D01*
X88168651Y-59352814D01*
X88113504Y-59075575D01*
X88005331Y-58814422D01*
X87848288Y-58579390D01*
X87648410Y-58379512D01*
X87413378Y-58222469D01*
X87152225Y-58114296D01*
X86874986Y-58059149D01*
X86592316Y-58059149D01*
X86315077Y-58114296D01*
X86053924Y-58222469D01*
X85818892Y-58379512D01*
X85619014Y-58579390D01*
X85461971Y-58814422D01*
X85353798Y-59075575D01*
X85298651Y-59352814D01*
X84576549Y-59352814D01*
X84521402Y-59075575D01*
X84413229Y-58814422D01*
X84256186Y-58579390D01*
X84056308Y-58379512D01*
X83821276Y-58222469D01*
X83560123Y-58114296D01*
X83282884Y-58059149D01*
X83000214Y-58059149D01*
X82722975Y-58114296D01*
X82461822Y-58222469D01*
X82226790Y-58379512D01*
X82026912Y-58579390D01*
X81963696Y-58674000D01*
X81063423Y-58674000D01*
X81026000Y-58670314D01*
X80988577Y-58674000D01*
X80988574Y-58674000D01*
X80876622Y-58685026D01*
X80732985Y-58728598D01*
X80683572Y-58755010D01*
X80600607Y-58799355D01*
X80566537Y-58827316D01*
X80484578Y-58894578D01*
X80460721Y-58923648D01*
X79462441Y-59921929D01*
X79405932Y-59637842D01*
X79293990Y-59367589D01*
X79131475Y-59124368D01*
X78999620Y-58992513D01*
X79072180Y-58970502D01*
X79182494Y-58911537D01*
X79279185Y-58832185D01*
X79358537Y-58735494D01*
X79417502Y-58625180D01*
X79453812Y-58505482D01*
X79466072Y-58381000D01*
X79463000Y-57816750D01*
X79304250Y-57658000D01*
X78105000Y-57658000D01*
X78105000Y-57678000D01*
X77851000Y-57678000D01*
X77851000Y-57658000D01*
X77831000Y-57658000D01*
X77831000Y-57404000D01*
X77851000Y-57404000D01*
X77851000Y-57384000D01*
X78105000Y-57384000D01*
X78105000Y-57404000D01*
X79304250Y-57404000D01*
X79463000Y-57245250D01*
X79465681Y-56752786D01*
X79619589Y-56783400D01*
X79892411Y-56783400D01*
X80159989Y-56730175D01*
X80412043Y-56625771D01*
X80543400Y-56538001D01*
X80674757Y-56625771D01*
X80926811Y-56730175D01*
X81194389Y-56783400D01*
X81467211Y-56783400D01*
X81734789Y-56730175D01*
X81986843Y-56625771D01*
X82143600Y-56521029D01*
X82300357Y-56625771D01*
X82552411Y-56730175D01*
X82819989Y-56783400D01*
X83092811Y-56783400D01*
X83360389Y-56730175D01*
X83612443Y-56625771D01*
X83762850Y-56525272D01*
X83913257Y-56625771D01*
X84165311Y-56730175D01*
X84432889Y-56783400D01*
X84705711Y-56783400D01*
X84973289Y-56730175D01*
X85225343Y-56625771D01*
X85363050Y-56533758D01*
X85500757Y-56625771D01*
X85752811Y-56730175D01*
X86020389Y-56783400D01*
X86293211Y-56783400D01*
X86560789Y-56730175D01*
X86812843Y-56625771D01*
X86982300Y-56512543D01*
X87151757Y-56625771D01*
G37*
%TD.AperFunction*%
D25*
X58166000Y-60160577D02*
X58162314Y-60198000D01*
X58166000Y-60235423D01*
X58166000Y-60235425D01*
X58177026Y-60347377D01*
X58220598Y-60491014D01*
X58227624Y-60504158D01*
X58291355Y-60623392D01*
X58314342Y-60651401D01*
X58386578Y-60739422D01*
X58415654Y-60763284D01*
X59632721Y-61980352D01*
X59656578Y-62009422D01*
X59772608Y-62104645D01*
X59904985Y-62175402D01*
X60008990Y-62206952D01*
X60100838Y-62344413D01*
X60286787Y-62530362D01*
X60505441Y-62676461D01*
X60748395Y-62777096D01*
X61006314Y-62828400D01*
X61269286Y-62828400D01*
X61527205Y-62777096D01*
X61770159Y-62676461D01*
X61988813Y-62530362D01*
X62174762Y-62344413D01*
X62234238Y-62255400D01*
X62445819Y-62255400D01*
X62539238Y-62395213D01*
X62725187Y-62581162D01*
X62814200Y-62640638D01*
X62814201Y-63141625D01*
X62566273Y-63244320D01*
X62331241Y-63401363D01*
X62131363Y-63601241D01*
X61974320Y-63836273D01*
X61866147Y-64097426D01*
X61811000Y-64374665D01*
X61811000Y-64657335D01*
X61866147Y-64934574D01*
X61974320Y-65195727D01*
X62131363Y-65430759D01*
X62245205Y-65544601D01*
X60895395Y-65544601D01*
X60911812Y-65490482D01*
X60924072Y-65366000D01*
X60921000Y-64801750D01*
X60762250Y-64643000D01*
X59563000Y-64643000D01*
X59563000Y-64663000D01*
X59309000Y-64663000D01*
X59309000Y-64643000D01*
X59289000Y-64643000D01*
X59289000Y-64389000D01*
X59309000Y-64389000D01*
X59309000Y-63189750D01*
X59563000Y-63189750D01*
X59563000Y-64389000D01*
X60762250Y-64389000D01*
X60921000Y-64230250D01*
X60924072Y-63666000D01*
X60911812Y-63541518D01*
X60875502Y-63421820D01*
X60816537Y-63311506D01*
X60737185Y-63214815D01*
X60640494Y-63135463D01*
X60530180Y-63076498D01*
X60410482Y-63040188D01*
X60286000Y-63027928D01*
X59721750Y-63031000D01*
X59563000Y-63189750D01*
X59309000Y-63189750D01*
X59150250Y-63031000D01*
X58586000Y-63027928D01*
X58461518Y-63040188D01*
X58341820Y-63076498D01*
X58231506Y-63135463D01*
X58134815Y-63214815D01*
X58055463Y-63311506D01*
X57996498Y-63421820D01*
X57974487Y-63494380D01*
X57842632Y-63362525D01*
X57599411Y-63200010D01*
X57329158Y-63088068D01*
X57042260Y-63031000D01*
X56749740Y-63031000D01*
X56462842Y-63088068D01*
X56192589Y-63200010D01*
X55949368Y-63362525D01*
X55742525Y-63569368D01*
X55626000Y-63743760D01*
X55509475Y-63569368D01*
X55302632Y-63362525D01*
X55059411Y-63200010D01*
X54789158Y-63088068D01*
X54502260Y-63031000D01*
X54209740Y-63031000D01*
X53991952Y-63074321D01*
X53594000Y-62676370D01*
X53594000Y-61607902D01*
X53847703Y-61607902D01*
X53919286Y-61851871D01*
X54174796Y-61972771D01*
X54448984Y-62041500D01*
X54731312Y-62055417D01*
X55010930Y-62013987D01*
X55277092Y-61918803D01*
X55402314Y-61851871D01*
X55473897Y-61607902D01*
X54660800Y-60794805D01*
X53847703Y-61607902D01*
X53594000Y-61607902D01*
X53594000Y-61406556D01*
X53668098Y-61428297D01*
X54481195Y-60615200D01*
X54840405Y-60615200D01*
X55653502Y-61428297D01*
X55897471Y-61356714D01*
X56018371Y-61101204D01*
X56087100Y-60827016D01*
X56101017Y-60544688D01*
X56059587Y-60265070D01*
X55964403Y-59998908D01*
X55897471Y-59873686D01*
X55653502Y-59802103D01*
X54840405Y-60615200D01*
X54481195Y-60615200D01*
X54467053Y-60601058D01*
X54646658Y-60421453D01*
X54660800Y-60435595D01*
X55473897Y-59622498D01*
X55402314Y-59378529D01*
X55373459Y-59364876D01*
X55575559Y-59229837D01*
X55775437Y-59029959D01*
X55932480Y-58794927D01*
X56040653Y-58533774D01*
X56095800Y-58256535D01*
X56095800Y-57973865D01*
X56040653Y-57696626D01*
X55932480Y-57435473D01*
X55775437Y-57200441D01*
X55575559Y-57000563D01*
X55419069Y-56896000D01*
X56858577Y-56896000D01*
X56896000Y-56899686D01*
X56933423Y-56896000D01*
X56933426Y-56896000D01*
X57045378Y-56884974D01*
X57189015Y-56841402D01*
X57321392Y-56770645D01*
X57437422Y-56675422D01*
X57461284Y-56646347D01*
X58166001Y-55941630D01*
X58166000Y-60160577D01*
%TA.AperFunction,Conductor*%
D26*
G36*
X58166000Y-60160577D02*
G01*
X58162314Y-60198000D01*
X58166000Y-60235423D01*
X58166000Y-60235425D01*
X58177026Y-60347377D01*
X58220598Y-60491014D01*
X58227624Y-60504158D01*
X58291355Y-60623392D01*
X58314342Y-60651401D01*
X58386578Y-60739422D01*
X58415654Y-60763284D01*
X59632721Y-61980352D01*
X59656578Y-62009422D01*
X59772608Y-62104645D01*
X59904985Y-62175402D01*
X60008990Y-62206952D01*
X60100838Y-62344413D01*
X60286787Y-62530362D01*
X60505441Y-62676461D01*
X60748395Y-62777096D01*
X61006314Y-62828400D01*
X61269286Y-62828400D01*
X61527205Y-62777096D01*
X61770159Y-62676461D01*
X61988813Y-62530362D01*
X62174762Y-62344413D01*
X62234238Y-62255400D01*
X62445819Y-62255400D01*
X62539238Y-62395213D01*
X62725187Y-62581162D01*
X62814200Y-62640638D01*
X62814201Y-63141625D01*
X62566273Y-63244320D01*
X62331241Y-63401363D01*
X62131363Y-63601241D01*
X61974320Y-63836273D01*
X61866147Y-64097426D01*
X61811000Y-64374665D01*
X61811000Y-64657335D01*
X61866147Y-64934574D01*
X61974320Y-65195727D01*
X62131363Y-65430759D01*
X62245205Y-65544601D01*
X60895395Y-65544601D01*
X60911812Y-65490482D01*
X60924072Y-65366000D01*
X60921000Y-64801750D01*
X60762250Y-64643000D01*
X59563000Y-64643000D01*
X59563000Y-64663000D01*
X59309000Y-64663000D01*
X59309000Y-64643000D01*
X59289000Y-64643000D01*
X59289000Y-64389000D01*
X59309000Y-64389000D01*
X59309000Y-63189750D01*
X59563000Y-63189750D01*
X59563000Y-64389000D01*
X60762250Y-64389000D01*
X60921000Y-64230250D01*
X60924072Y-63666000D01*
X60911812Y-63541518D01*
X60875502Y-63421820D01*
X60816537Y-63311506D01*
X60737185Y-63214815D01*
X60640494Y-63135463D01*
X60530180Y-63076498D01*
X60410482Y-63040188D01*
X60286000Y-63027928D01*
X59721750Y-63031000D01*
X59563000Y-63189750D01*
X59309000Y-63189750D01*
X59150250Y-63031000D01*
X58586000Y-63027928D01*
X58461518Y-63040188D01*
X58341820Y-63076498D01*
X58231506Y-63135463D01*
X58134815Y-63214815D01*
X58055463Y-63311506D01*
X57996498Y-63421820D01*
X57974487Y-63494380D01*
X57842632Y-63362525D01*
X57599411Y-63200010D01*
X57329158Y-63088068D01*
X57042260Y-63031000D01*
X56749740Y-63031000D01*
X56462842Y-63088068D01*
X56192589Y-63200010D01*
X55949368Y-63362525D01*
X55742525Y-63569368D01*
X55626000Y-63743760D01*
X55509475Y-63569368D01*
X55302632Y-63362525D01*
X55059411Y-63200010D01*
X54789158Y-63088068D01*
X54502260Y-63031000D01*
X54209740Y-63031000D01*
X53991952Y-63074321D01*
X53594000Y-62676370D01*
X53594000Y-61607902D01*
X53847703Y-61607902D01*
X53919286Y-61851871D01*
X54174796Y-61972771D01*
X54448984Y-62041500D01*
X54731312Y-62055417D01*
X55010930Y-62013987D01*
X55277092Y-61918803D01*
X55402314Y-61851871D01*
X55473897Y-61607902D01*
X54660800Y-60794805D01*
X53847703Y-61607902D01*
X53594000Y-61607902D01*
X53594000Y-61406556D01*
X53668098Y-61428297D01*
X54481195Y-60615200D01*
X54840405Y-60615200D01*
X55653502Y-61428297D01*
X55897471Y-61356714D01*
X56018371Y-61101204D01*
X56087100Y-60827016D01*
X56101017Y-60544688D01*
X56059587Y-60265070D01*
X55964403Y-59998908D01*
X55897471Y-59873686D01*
X55653502Y-59802103D01*
X54840405Y-60615200D01*
X54481195Y-60615200D01*
X54467053Y-60601058D01*
X54646658Y-60421453D01*
X54660800Y-60435595D01*
X55473897Y-59622498D01*
X55402314Y-59378529D01*
X55373459Y-59364876D01*
X55575559Y-59229837D01*
X55775437Y-59029959D01*
X55932480Y-58794927D01*
X56040653Y-58533774D01*
X56095800Y-58256535D01*
X56095800Y-57973865D01*
X56040653Y-57696626D01*
X55932480Y-57435473D01*
X55775437Y-57200441D01*
X55575559Y-57000563D01*
X55419069Y-56896000D01*
X56858577Y-56896000D01*
X56896000Y-56899686D01*
X56933423Y-56896000D01*
X56933426Y-56896000D01*
X57045378Y-56884974D01*
X57189015Y-56841402D01*
X57321392Y-56770645D01*
X57437422Y-56675422D01*
X57461284Y-56646347D01*
X58166001Y-55941630D01*
X58166000Y-60160577D01*
G37*
%TD.AperFunction*%
D25*
X89962401Y-54144709D02*
X89773889Y-54066625D01*
X89506311Y-54013400D01*
X89233489Y-54013400D01*
X88965911Y-54066625D01*
X88713857Y-54171029D01*
X88588850Y-54254556D01*
X88463843Y-54171029D01*
X88211789Y-54066625D01*
X87944211Y-54013400D01*
X87671389Y-54013400D01*
X87403811Y-54066625D01*
X87151757Y-54171029D01*
X86982300Y-54284257D01*
X86812843Y-54171029D01*
X86560789Y-54066625D01*
X86293211Y-54013400D01*
X86020389Y-54013400D01*
X85752811Y-54066625D01*
X85500757Y-54171029D01*
X85363050Y-54263042D01*
X85225343Y-54171029D01*
X84973289Y-54066625D01*
X84705711Y-54013400D01*
X84437511Y-54013400D01*
X84437853Y-54012574D01*
X84493000Y-53735335D01*
X84493000Y-53452665D01*
X84437853Y-53175426D01*
X84329680Y-52914273D01*
X84172637Y-52679241D01*
X83972759Y-52479363D01*
X83737727Y-52322320D01*
X83476574Y-52214147D01*
X83199335Y-52159000D01*
X82916665Y-52159000D01*
X82639426Y-52214147D01*
X82378273Y-52322320D01*
X82143241Y-52479363D01*
X81943363Y-52679241D01*
X81788000Y-52911759D01*
X81632637Y-52679241D01*
X81432759Y-52479363D01*
X81197727Y-52322320D01*
X80936574Y-52214147D01*
X80659335Y-52159000D01*
X80376665Y-52159000D01*
X80099426Y-52214147D01*
X79838273Y-52322320D01*
X79603241Y-52479363D01*
X79403363Y-52679241D01*
X79248000Y-52911759D01*
X79092637Y-52679241D01*
X78892759Y-52479363D01*
X78657727Y-52322320D01*
X78396574Y-52214147D01*
X78119335Y-52159000D01*
X77836665Y-52159000D01*
X77559426Y-52214147D01*
X77298273Y-52322320D01*
X77063241Y-52479363D01*
X76863363Y-52679241D01*
X76708000Y-52911759D01*
X76552637Y-52679241D01*
X76352759Y-52479363D01*
X76117727Y-52322320D01*
X75856574Y-52214147D01*
X75579335Y-52159000D01*
X75296665Y-52159000D01*
X75019426Y-52214147D01*
X74758273Y-52322320D01*
X74523241Y-52479363D01*
X74323363Y-52679241D01*
X74168000Y-52911759D01*
X74012637Y-52679241D01*
X73812759Y-52479363D01*
X73577727Y-52322320D01*
X73316574Y-52214147D01*
X73039335Y-52159000D01*
X72756665Y-52159000D01*
X72479426Y-52214147D01*
X72218273Y-52322320D01*
X71983241Y-52479363D01*
X71783363Y-52679241D01*
X71628000Y-52911759D01*
X71472637Y-52679241D01*
X71272759Y-52479363D01*
X71037727Y-52322320D01*
X70776574Y-52214147D01*
X70499335Y-52159000D01*
X70216665Y-52159000D01*
X69939426Y-52214147D01*
X69678273Y-52322320D01*
X69443241Y-52479363D01*
X69243363Y-52679241D01*
X69088000Y-52911759D01*
X68932637Y-52679241D01*
X68732759Y-52479363D01*
X68497727Y-52322320D01*
X68236574Y-52214147D01*
X67959335Y-52159000D01*
X67676665Y-52159000D01*
X67399426Y-52214147D01*
X67138273Y-52322320D01*
X66903241Y-52479363D01*
X66703363Y-52679241D01*
X66548000Y-52911759D01*
X66392637Y-52679241D01*
X66192759Y-52479363D01*
X65957727Y-52322320D01*
X65696574Y-52214147D01*
X65419335Y-52159000D01*
X65136665Y-52159000D01*
X64859426Y-52214147D01*
X64598273Y-52322320D01*
X64363241Y-52479363D01*
X64163363Y-52679241D01*
X64008000Y-52911759D01*
X63852637Y-52679241D01*
X63652759Y-52479363D01*
X63417727Y-52322320D01*
X63156574Y-52214147D01*
X62879335Y-52159000D01*
X62596665Y-52159000D01*
X62319426Y-52214147D01*
X62058273Y-52322320D01*
X61823241Y-52479363D01*
X61623363Y-52679241D01*
X61468000Y-52911759D01*
X61312637Y-52679241D01*
X61112759Y-52479363D01*
X60877727Y-52322320D01*
X60616574Y-52214147D01*
X60339335Y-52159000D01*
X60056665Y-52159000D01*
X59779426Y-52214147D01*
X59518273Y-52322320D01*
X59283241Y-52479363D01*
X59083363Y-52679241D01*
X58928000Y-52911759D01*
X58772637Y-52679241D01*
X58572759Y-52479363D01*
X58337727Y-52322320D01*
X58076574Y-52214147D01*
X57799335Y-52159000D01*
X57516665Y-52159000D01*
X57239426Y-52214147D01*
X56978273Y-52322320D01*
X56743241Y-52479363D01*
X56544643Y-52677961D01*
X56543812Y-52669518D01*
X56507502Y-52549820D01*
X56448537Y-52439506D01*
X56369185Y-52342815D01*
X56272494Y-52263463D01*
X56162180Y-52204498D01*
X56042482Y-52168188D01*
X55918000Y-52155928D01*
X55403750Y-52159000D01*
X55245000Y-52317750D01*
X55245000Y-53467000D01*
X55265000Y-53467000D01*
X55265000Y-53721000D01*
X55245000Y-53721000D01*
X55245000Y-54870250D01*
X55403750Y-55029000D01*
X55918000Y-55032072D01*
X56042482Y-55019812D01*
X56162180Y-54983502D01*
X56272494Y-54924537D01*
X56369185Y-54845185D01*
X56448537Y-54748494D01*
X56507502Y-54638180D01*
X56543812Y-54518482D01*
X56544643Y-54510039D01*
X56743241Y-54708637D01*
X56896001Y-54810707D01*
X56896001Y-55056369D01*
X56580370Y-55372000D01*
X54647423Y-55372000D01*
X54610000Y-55368314D01*
X54572577Y-55372000D01*
X54572574Y-55372000D01*
X54460622Y-55383026D01*
X54316985Y-55426598D01*
X54255364Y-55459535D01*
X54184607Y-55497355D01*
X54142219Y-55532143D01*
X54068578Y-55592578D01*
X54044716Y-55621654D01*
X52466420Y-57199950D01*
X52433853Y-57036226D01*
X52325680Y-56775073D01*
X52168637Y-56540041D01*
X51968759Y-56340163D01*
X51733727Y-56183120D01*
X51472574Y-56074947D01*
X51195335Y-56019800D01*
X50912665Y-56019800D01*
X50800000Y-56042211D01*
X50800000Y-54810707D01*
X50952759Y-54708637D01*
X51152637Y-54508759D01*
X51308000Y-54276241D01*
X51463363Y-54508759D01*
X51663241Y-54708637D01*
X51898273Y-54865680D01*
X52159426Y-54973853D01*
X52436665Y-55029000D01*
X52719335Y-55029000D01*
X52996574Y-54973853D01*
X53257727Y-54865680D01*
X53492759Y-54708637D01*
X53691357Y-54510039D01*
X53692188Y-54518482D01*
X53728498Y-54638180D01*
X53787463Y-54748494D01*
X53866815Y-54845185D01*
X53963506Y-54924537D01*
X54073820Y-54983502D01*
X54193518Y-55019812D01*
X54318000Y-55032072D01*
X54832250Y-55029000D01*
X54991000Y-54870250D01*
X54991000Y-53721000D01*
X54971000Y-53721000D01*
X54971000Y-53467000D01*
X54991000Y-53467000D01*
X54991000Y-52317750D01*
X54832250Y-52159000D01*
X54318000Y-52155928D01*
X54193518Y-52168188D01*
X54073820Y-52204498D01*
X53963506Y-52263463D01*
X53866815Y-52342815D01*
X53787463Y-52439506D01*
X53728498Y-52549820D01*
X53692188Y-52669518D01*
X53691357Y-52677961D01*
X53492759Y-52479363D01*
X53257727Y-52322320D01*
X52996574Y-52214147D01*
X52719335Y-52159000D01*
X52436665Y-52159000D01*
X52159426Y-52214147D01*
X51898273Y-52322320D01*
X51663241Y-52479363D01*
X51463363Y-52679241D01*
X51308000Y-52911759D01*
X51152637Y-52679241D01*
X50952759Y-52479363D01*
X50717727Y-52322320D01*
X50456574Y-52214147D01*
X50179335Y-52159000D01*
X49896665Y-52159000D01*
X49619426Y-52214147D01*
X49358273Y-52322320D01*
X49123241Y-52479363D01*
X48924643Y-52677961D01*
X48923812Y-52669518D01*
X48887502Y-52549820D01*
X48828537Y-52439506D01*
X48749185Y-52342815D01*
X48652494Y-52263463D01*
X48542180Y-52204498D01*
X48422482Y-52168188D01*
X48298000Y-52155928D01*
X46698000Y-52155928D01*
X46573518Y-52168188D01*
X46453820Y-52204498D01*
X46343506Y-52263463D01*
X46246815Y-52342815D01*
X46167463Y-52439506D01*
X46108498Y-52549820D01*
X46072188Y-52669518D01*
X46059928Y-52794000D01*
X46059928Y-53751242D01*
X43755527Y-56055643D01*
X43575335Y-56019800D01*
X43292665Y-56019800D01*
X43015426Y-56074947D01*
X42754273Y-56183120D01*
X42519241Y-56340163D01*
X42319363Y-56540041D01*
X42162320Y-56775073D01*
X42054147Y-57036226D01*
X41999000Y-57313465D01*
X41999000Y-57532970D01*
X41979974Y-57513944D01*
X41956112Y-57484868D01*
X41840082Y-57389645D01*
X41707705Y-57318888D01*
X41564068Y-57275316D01*
X41452116Y-57264290D01*
X41452113Y-57264290D01*
X41414690Y-57260604D01*
X41377267Y-57264290D01*
X38352121Y-57264290D01*
X35776508Y-54688678D01*
X35847805Y-54674496D01*
X36090759Y-54573861D01*
X36309413Y-54427762D01*
X36495362Y-54241813D01*
X36626800Y-54045101D01*
X36758238Y-54241813D01*
X36944187Y-54427762D01*
X37162841Y-54573861D01*
X37405795Y-54674496D01*
X37663714Y-54725800D01*
X37926686Y-54725800D01*
X38184605Y-54674496D01*
X38427559Y-54573861D01*
X38646213Y-54427762D01*
X38832162Y-54241813D01*
X38978261Y-54023159D01*
X39078896Y-53780205D01*
X39130200Y-53522286D01*
X39130200Y-53259314D01*
X39078896Y-53001395D01*
X38978261Y-52758441D01*
X38832162Y-52539787D01*
X38646213Y-52353838D01*
X38427559Y-52207739D01*
X38184605Y-52107104D01*
X37926686Y-52055800D01*
X37663714Y-52055800D01*
X37405795Y-52107104D01*
X37162841Y-52207739D01*
X36944187Y-52353838D01*
X36758238Y-52539787D01*
X36626800Y-52736499D01*
X36495362Y-52539787D01*
X36309413Y-52353838D01*
X36090759Y-52207739D01*
X35847805Y-52107104D01*
X35589886Y-52055800D01*
X35326914Y-52055800D01*
X35068995Y-52107104D01*
X34826041Y-52207739D01*
X34798000Y-52226475D01*
X34798000Y-51905102D01*
X39928503Y-51905102D01*
X40000086Y-52149071D01*
X40255596Y-52269971D01*
X40529784Y-52338700D01*
X40812112Y-52352617D01*
X41091730Y-52311187D01*
X41357892Y-52216003D01*
X41483114Y-52149071D01*
X41554697Y-51905102D01*
X40741600Y-51092005D01*
X39928503Y-51905102D01*
X34798000Y-51905102D01*
X34798000Y-50982912D01*
X39301383Y-50982912D01*
X39342813Y-51262530D01*
X39437997Y-51528692D01*
X39504929Y-51653914D01*
X39748898Y-51725497D01*
X40561995Y-50912400D01*
X40921205Y-50912400D01*
X41734302Y-51725497D01*
X41978271Y-51653914D01*
X42099171Y-51398404D01*
X42167900Y-51124216D01*
X42181817Y-50841888D01*
X42140387Y-50562270D01*
X42045203Y-50296108D01*
X41978271Y-50170886D01*
X41734302Y-50099303D01*
X40921205Y-50912400D01*
X40561995Y-50912400D01*
X39748898Y-50099303D01*
X39504929Y-50170886D01*
X39384029Y-50426396D01*
X39315300Y-50700584D01*
X39301383Y-50982912D01*
X34798000Y-50982912D01*
X34798000Y-49475125D01*
X34826041Y-49493861D01*
X35068995Y-49594496D01*
X35326914Y-49645800D01*
X35589886Y-49645800D01*
X35847805Y-49594496D01*
X36090759Y-49493861D01*
X36309413Y-49347762D01*
X36495362Y-49161813D01*
X36626800Y-48965101D01*
X36758238Y-49161813D01*
X36944187Y-49347762D01*
X37162841Y-49493861D01*
X37405795Y-49594496D01*
X37663714Y-49645800D01*
X37926686Y-49645800D01*
X38184605Y-49594496D01*
X38427559Y-49493861D01*
X38646213Y-49347762D01*
X38832162Y-49161813D01*
X38978261Y-48943159D01*
X39078896Y-48700205D01*
X39130200Y-48442286D01*
X39130200Y-48179314D01*
X39092900Y-47991799D01*
X39362587Y-47991799D01*
X39361747Y-47993826D01*
X39306600Y-48271065D01*
X39306600Y-48553735D01*
X39361747Y-48830974D01*
X39469920Y-49092127D01*
X39626963Y-49327159D01*
X39826841Y-49527037D01*
X40027469Y-49661092D01*
X40000086Y-49675729D01*
X39928503Y-49919698D01*
X40741600Y-50732795D01*
X41554697Y-49919698D01*
X41483114Y-49675729D01*
X41454259Y-49662076D01*
X41656359Y-49527037D01*
X41856237Y-49327159D01*
X41958307Y-49174400D01*
X70422177Y-49174400D01*
X70459600Y-49178086D01*
X70497023Y-49174400D01*
X70497026Y-49174400D01*
X70608978Y-49163374D01*
X70752615Y-49119802D01*
X70884992Y-49049045D01*
X71001022Y-48953822D01*
X71024884Y-48924746D01*
X77711074Y-42238556D01*
X80196474Y-39753157D01*
X80376665Y-39789000D01*
X80659335Y-39789000D01*
X80936574Y-39733853D01*
X81197727Y-39625680D01*
X81432759Y-39468637D01*
X81632637Y-39268759D01*
X81788000Y-39036241D01*
X81943363Y-39268759D01*
X82143241Y-39468637D01*
X82378273Y-39625680D01*
X82639426Y-39733853D01*
X82916665Y-39789000D01*
X83199335Y-39789000D01*
X83476574Y-39733853D01*
X83737727Y-39625680D01*
X83972759Y-39468637D01*
X84172637Y-39268759D01*
X84329680Y-39033727D01*
X84437853Y-38772574D01*
X84493000Y-38495335D01*
X84493000Y-38212665D01*
X84437853Y-37935426D01*
X84329680Y-37674273D01*
X84172637Y-37439241D01*
X83972759Y-37239363D01*
X83892297Y-37185600D01*
X85636777Y-37185600D01*
X85674200Y-37189286D01*
X85711623Y-37185600D01*
X85711626Y-37185600D01*
X85823578Y-37174574D01*
X85967215Y-37131002D01*
X86099592Y-37060245D01*
X86215622Y-36965022D01*
X86239484Y-36935946D01*
X86902073Y-36273357D01*
X87082265Y-36309200D01*
X87364935Y-36309200D01*
X87642174Y-36254053D01*
X87903327Y-36145880D01*
X88138359Y-35988837D01*
X88338237Y-35788959D01*
X88495280Y-35553927D01*
X88603453Y-35292774D01*
X88658600Y-35015535D01*
X88658600Y-34732865D01*
X88603453Y-34455626D01*
X88495280Y-34194473D01*
X88338237Y-33959441D01*
X88138359Y-33759563D01*
X87903327Y-33602520D01*
X87642174Y-33494347D01*
X87364935Y-33439200D01*
X87082265Y-33439200D01*
X86805026Y-33494347D01*
X86543873Y-33602520D01*
X86308841Y-33759563D01*
X86108963Y-33959441D01*
X85951920Y-34194473D01*
X85843747Y-34455626D01*
X85788600Y-34732865D01*
X85788600Y-35015535D01*
X85824443Y-35195727D01*
X85358570Y-35661600D01*
X75723335Y-35661600D01*
X75795280Y-35553927D01*
X75903453Y-35292774D01*
X75958600Y-35015535D01*
X75958600Y-34732865D01*
X75903453Y-34455626D01*
X75795280Y-34194473D01*
X75638237Y-33959441D01*
X75438359Y-33759563D01*
X75203327Y-33602520D01*
X74942174Y-33494347D01*
X74664935Y-33439200D01*
X74382265Y-33439200D01*
X74202073Y-33475043D01*
X73234684Y-32507654D01*
X73210822Y-32478578D01*
X73094792Y-32383355D01*
X72962415Y-32312598D01*
X72818778Y-32269026D01*
X72706826Y-32258000D01*
X72706823Y-32258000D01*
X72669400Y-32254314D01*
X72631977Y-32258000D01*
X59168623Y-32258000D01*
X59131200Y-32254314D01*
X59093777Y-32258000D01*
X59093774Y-32258000D01*
X58981822Y-32269026D01*
X58838185Y-32312598D01*
X58776564Y-32345535D01*
X58705807Y-32383355D01*
X58692203Y-32394520D01*
X58589778Y-32478578D01*
X58565921Y-32507648D01*
X57886641Y-33186928D01*
X56126200Y-33186928D01*
X56001718Y-33199188D01*
X55882020Y-33235498D01*
X55771706Y-33294463D01*
X55675015Y-33373815D01*
X55595663Y-33470506D01*
X55536698Y-33580820D01*
X55500388Y-33700518D01*
X55488128Y-33825000D01*
X55488128Y-36025000D01*
X55500388Y-36149482D01*
X55536698Y-36269180D01*
X55595663Y-36379494D01*
X55675015Y-36476185D01*
X55771706Y-36555537D01*
X55882020Y-36614502D01*
X56001718Y-36650812D01*
X56126200Y-36663072D01*
X58326200Y-36663072D01*
X58450682Y-36650812D01*
X58570380Y-36614502D01*
X58680694Y-36555537D01*
X58777385Y-36476185D01*
X58856737Y-36379494D01*
X58915702Y-36269180D01*
X58952012Y-36149482D01*
X58964272Y-36025000D01*
X58964272Y-35194122D01*
X59753425Y-35194122D01*
X59818025Y-35407094D01*
X59968069Y-35712329D01*
X60174778Y-35982427D01*
X60430209Y-36207008D01*
X60724546Y-36377442D01*
X61046477Y-36487179D01*
X61315600Y-36369600D01*
X61315600Y-34925000D01*
X61569600Y-34925000D01*
X61569600Y-36369600D01*
X61838723Y-36487179D01*
X62160654Y-36377442D01*
X62454991Y-36207008D01*
X62710422Y-35982427D01*
X62917131Y-35712329D01*
X63067175Y-35407094D01*
X63131775Y-35194122D01*
X63013725Y-34925000D01*
X61569600Y-34925000D01*
X61315600Y-34925000D01*
X59871475Y-34925000D01*
X59753425Y-35194122D01*
X58964272Y-35194122D01*
X58964272Y-34264559D01*
X59446831Y-33782000D01*
X60045879Y-33782000D01*
X59968069Y-33883671D01*
X59818025Y-34188906D01*
X59753425Y-34401878D01*
X59871475Y-34671000D01*
X61315600Y-34671000D01*
X61315600Y-34651000D01*
X61569600Y-34651000D01*
X61569600Y-34671000D01*
X63013725Y-34671000D01*
X63131775Y-34401878D01*
X63067175Y-34188906D01*
X62917131Y-33883671D01*
X62839321Y-33782000D01*
X69864528Y-33782000D01*
X69864528Y-35898000D01*
X69876788Y-36022482D01*
X69913098Y-36142180D01*
X69972063Y-36252494D01*
X70051415Y-36349185D01*
X70148106Y-36428537D01*
X70258420Y-36487502D01*
X70378118Y-36523812D01*
X70502600Y-36536072D01*
X72263042Y-36536072D01*
X72662916Y-36935946D01*
X72664117Y-36937409D01*
X72479426Y-36974147D01*
X72218273Y-37082320D01*
X71983241Y-37239363D01*
X71783363Y-37439241D01*
X71628000Y-37671759D01*
X71472637Y-37439241D01*
X71272759Y-37239363D01*
X71037727Y-37082320D01*
X70776574Y-36974147D01*
X70499335Y-36919000D01*
X70216665Y-36919000D01*
X69939426Y-36974147D01*
X69678273Y-37082320D01*
X69443241Y-37239363D01*
X69243363Y-37439241D01*
X69088000Y-37671759D01*
X68932637Y-37439241D01*
X68732759Y-37239363D01*
X68497727Y-37082320D01*
X68236574Y-36974147D01*
X67959335Y-36919000D01*
X67676665Y-36919000D01*
X67399426Y-36974147D01*
X67138273Y-37082320D01*
X66903241Y-37239363D01*
X66703363Y-37439241D01*
X66548000Y-37671759D01*
X66392637Y-37439241D01*
X66192759Y-37239363D01*
X65957727Y-37082320D01*
X65696574Y-36974147D01*
X65419335Y-36919000D01*
X65136665Y-36919000D01*
X64859426Y-36974147D01*
X64598273Y-37082320D01*
X64363241Y-37239363D01*
X64163363Y-37439241D01*
X64008000Y-37671759D01*
X63852637Y-37439241D01*
X63652759Y-37239363D01*
X63417727Y-37082320D01*
X63156574Y-36974147D01*
X62879335Y-36919000D01*
X62596665Y-36919000D01*
X62319426Y-36974147D01*
X62058273Y-37082320D01*
X61823241Y-37239363D01*
X61623363Y-37439241D01*
X61468000Y-37671759D01*
X61312637Y-37439241D01*
X61112759Y-37239363D01*
X60877727Y-37082320D01*
X60616574Y-36974147D01*
X60339335Y-36919000D01*
X60056665Y-36919000D01*
X59779426Y-36974147D01*
X59518273Y-37082320D01*
X59283241Y-37239363D01*
X59083363Y-37439241D01*
X58928000Y-37671759D01*
X58772637Y-37439241D01*
X58572759Y-37239363D01*
X58337727Y-37082320D01*
X58076574Y-36974147D01*
X57799335Y-36919000D01*
X57516665Y-36919000D01*
X57239426Y-36974147D01*
X56978273Y-37082320D01*
X56743241Y-37239363D01*
X56543363Y-37439241D01*
X56388000Y-37671759D01*
X56232637Y-37439241D01*
X56032759Y-37239363D01*
X55797727Y-37082320D01*
X55536574Y-36974147D01*
X55259335Y-36919000D01*
X54976665Y-36919000D01*
X54699426Y-36974147D01*
X54438273Y-37082320D01*
X54203241Y-37239363D01*
X54003363Y-37439241D01*
X53848000Y-37671759D01*
X53692637Y-37439241D01*
X53492759Y-37239363D01*
X53257727Y-37082320D01*
X52996574Y-36974147D01*
X52719335Y-36919000D01*
X52436665Y-36919000D01*
X52159426Y-36974147D01*
X51898273Y-37082320D01*
X51663241Y-37239363D01*
X51464643Y-37437961D01*
X51463812Y-37429518D01*
X51427502Y-37309820D01*
X51368537Y-37199506D01*
X51289185Y-37102815D01*
X51192494Y-37023463D01*
X51082180Y-36964498D01*
X50962482Y-36928188D01*
X50838000Y-36915928D01*
X50323750Y-36919000D01*
X50165000Y-37077750D01*
X50165000Y-38227000D01*
X50185000Y-38227000D01*
X50185000Y-38481000D01*
X50165000Y-38481000D01*
X50165000Y-39630250D01*
X50194560Y-39659810D01*
X45505970Y-44348400D01*
X42483672Y-44348400D01*
X42483672Y-44260400D01*
X42471412Y-44135918D01*
X42435102Y-44016220D01*
X42376137Y-43905906D01*
X42296785Y-43809215D01*
X42200094Y-43729863D01*
X42089780Y-43670898D01*
X41970082Y-43634588D01*
X41845600Y-43622328D01*
X40145600Y-43622328D01*
X40021118Y-43634588D01*
X39901420Y-43670898D01*
X39791106Y-43729863D01*
X39694415Y-43809215D01*
X39615063Y-43905906D01*
X39556098Y-44016220D01*
X39531634Y-44096866D01*
X39455869Y-44012812D01*
X39222520Y-43838759D01*
X38959699Y-43713575D01*
X38812490Y-43668924D01*
X38582602Y-43790244D01*
X38582602Y-43775029D01*
X38917152Y-43440479D01*
X38946222Y-43416622D01*
X39041445Y-43300592D01*
X39112202Y-43168215D01*
X39155774Y-43024578D01*
X39166800Y-42912626D01*
X39166800Y-42912624D01*
X39170486Y-42875201D01*
X39166800Y-42837778D01*
X39166800Y-42807648D01*
X39260611Y-42768790D01*
X39503832Y-42606275D01*
X39710675Y-42399432D01*
X39873190Y-42156211D01*
X39985132Y-41885958D01*
X40042200Y-41599060D01*
X40042200Y-41306540D01*
X39985132Y-41019642D01*
X39873190Y-40749389D01*
X39710675Y-40506168D01*
X39578820Y-40374313D01*
X39651380Y-40352302D01*
X39761694Y-40293337D01*
X39858385Y-40213985D01*
X39937737Y-40117294D01*
X39996702Y-40006980D01*
X40033012Y-39887282D01*
X40045272Y-39762800D01*
X40045272Y-38062800D01*
X40033012Y-37938318D01*
X39996702Y-37818620D01*
X39937737Y-37708306D01*
X39858385Y-37611615D01*
X39761694Y-37532263D01*
X39651380Y-37473298D01*
X39531682Y-37436988D01*
X39407200Y-37424728D01*
X39370000Y-37424728D01*
X39370000Y-35794880D01*
X39382463Y-35789718D01*
X39650252Y-35610787D01*
X39877987Y-35383052D01*
X39878001Y-35383031D01*
X39878001Y-35616933D01*
X39874314Y-35654366D01*
X39889027Y-35803744D01*
X39932599Y-35947381D01*
X40003355Y-36079758D01*
X40074721Y-36166717D01*
X40098579Y-36195788D01*
X40127649Y-36219645D01*
X42774354Y-38866351D01*
X42798212Y-38895422D01*
X42914242Y-38990645D01*
X43046619Y-39061402D01*
X43190256Y-39104974D01*
X43302208Y-39116000D01*
X43302210Y-39116000D01*
X43339633Y-39119686D01*
X43377056Y-39116000D01*
X46281293Y-39116000D01*
X46383363Y-39268759D01*
X46583241Y-39468637D01*
X46818273Y-39625680D01*
X47079426Y-39733853D01*
X47356665Y-39789000D01*
X47639335Y-39789000D01*
X47916574Y-39733853D01*
X48177727Y-39625680D01*
X48412759Y-39468637D01*
X48611357Y-39270039D01*
X48612188Y-39278482D01*
X48648498Y-39398180D01*
X48707463Y-39508494D01*
X48786815Y-39605185D01*
X48883506Y-39684537D01*
X48993820Y-39743502D01*
X49113518Y-39779812D01*
X49238000Y-39792072D01*
X49752250Y-39789000D01*
X49911000Y-39630250D01*
X49911000Y-38481000D01*
X49891000Y-38481000D01*
X49891000Y-38227000D01*
X49911000Y-38227000D01*
X49911000Y-37077750D01*
X49752250Y-36919000D01*
X49238000Y-36915928D01*
X49113518Y-36928188D01*
X48993820Y-36964498D01*
X48883506Y-37023463D01*
X48786815Y-37102815D01*
X48707463Y-37199506D01*
X48648498Y-37309820D01*
X48612188Y-37429518D01*
X48611357Y-37437961D01*
X48412759Y-37239363D01*
X48177727Y-37082320D01*
X47916574Y-36974147D01*
X47639335Y-36919000D01*
X47356665Y-36919000D01*
X47079426Y-36974147D01*
X46818273Y-37082320D01*
X46583241Y-37239363D01*
X46383363Y-37439241D01*
X46281293Y-37592000D01*
X43655265Y-37592000D01*
X41971259Y-35907994D01*
X42037565Y-35930929D01*
X42291000Y-35812115D01*
X42291000Y-34467800D01*
X42545000Y-34467800D01*
X42545000Y-35812115D01*
X42798435Y-35930929D01*
X43101344Y-35826156D01*
X43377992Y-35664301D01*
X43617748Y-35451585D01*
X43716667Y-35321122D01*
X45377025Y-35321122D01*
X45441625Y-35534094D01*
X45591669Y-35839329D01*
X45798378Y-36109427D01*
X46053809Y-36334008D01*
X46348146Y-36504442D01*
X46670077Y-36614179D01*
X46939200Y-36496600D01*
X46939200Y-35052000D01*
X47193200Y-35052000D01*
X47193200Y-36496600D01*
X47462323Y-36614179D01*
X47784254Y-36504442D01*
X48078591Y-36334008D01*
X48334022Y-36109427D01*
X48540731Y-35839329D01*
X48690775Y-35534094D01*
X48755375Y-35321122D01*
X48637325Y-35052000D01*
X47193200Y-35052000D01*
X46939200Y-35052000D01*
X45495075Y-35052000D01*
X45377025Y-35321122D01*
X43716667Y-35321122D01*
X43811399Y-35196182D01*
X43951502Y-34907907D01*
X44008124Y-34721234D01*
X43917540Y-34528878D01*
X45377025Y-34528878D01*
X45495075Y-34798000D01*
X46939200Y-34798000D01*
X46939200Y-33353400D01*
X47193200Y-33353400D01*
X47193200Y-34798000D01*
X48637325Y-34798000D01*
X48755375Y-34528878D01*
X48690775Y-34315906D01*
X48540731Y-34010671D01*
X48334022Y-33740573D01*
X48078591Y-33515992D01*
X47784254Y-33345558D01*
X47462323Y-33235821D01*
X47193200Y-33353400D01*
X46939200Y-33353400D01*
X46670077Y-33235821D01*
X46348146Y-33345558D01*
X46053809Y-33515992D01*
X45798378Y-33740573D01*
X45591669Y-34010671D01*
X45441625Y-34315906D01*
X45377025Y-34528878D01*
X43917540Y-34528878D01*
X43888777Y-34467800D01*
X42545000Y-34467800D01*
X42291000Y-34467800D01*
X42271000Y-34467800D01*
X42271000Y-34213800D01*
X42291000Y-34213800D01*
X42291000Y-32869485D01*
X42545000Y-32869485D01*
X42545000Y-34213800D01*
X43888777Y-34213800D01*
X44008124Y-33960366D01*
X43951502Y-33773693D01*
X43811399Y-33485418D01*
X43617748Y-33230015D01*
X43377992Y-33017299D01*
X43101344Y-32855444D01*
X42798435Y-32750671D01*
X42545000Y-32869485D01*
X42291000Y-32869485D01*
X42037565Y-32750671D01*
X41734656Y-32855444D01*
X41458008Y-33017299D01*
X41218252Y-33230015D01*
X41175445Y-33286473D01*
X41152353Y-33267522D01*
X40332283Y-32447452D01*
X40308421Y-32418377D01*
X40192391Y-32323154D01*
X40060014Y-32252397D01*
X39916377Y-32208825D01*
X39804425Y-32197799D01*
X39804422Y-32197799D01*
X39766999Y-32194113D01*
X39729576Y-32197799D01*
X32406423Y-32197799D01*
X32369000Y-32194113D01*
X32331577Y-32197799D01*
X32331575Y-32197799D01*
X32219623Y-32208825D01*
X32075986Y-32252397D01*
X32075984Y-32252398D01*
X32058890Y-32261535D01*
X31943609Y-32323154D01*
X31827579Y-32418377D01*
X31803722Y-32447447D01*
X31477375Y-32773794D01*
X31464912Y-32768632D01*
X31149033Y-32705800D01*
X30826967Y-32705800D01*
X30511088Y-32768632D01*
X30213537Y-32891882D01*
X29945748Y-33070813D01*
X29718013Y-33298548D01*
X29539082Y-33566337D01*
X29415832Y-33863888D01*
X29353000Y-34179767D01*
X29353000Y-34501833D01*
X29415832Y-34817712D01*
X29539082Y-35115263D01*
X29718013Y-35383052D01*
X29945748Y-35610787D01*
X30213537Y-35789718D01*
X30511088Y-35912968D01*
X30826967Y-35975800D01*
X31149033Y-35975800D01*
X31464912Y-35912968D01*
X31762463Y-35789718D01*
X32030252Y-35610787D01*
X32257987Y-35383052D01*
X32436918Y-35115263D01*
X32560168Y-34817712D01*
X32623000Y-34501833D01*
X32623000Y-34179767D01*
X32560168Y-33863888D01*
X32555006Y-33851425D01*
X32684632Y-33721799D01*
X33284687Y-33721799D01*
X33225832Y-33863888D01*
X33163000Y-34179767D01*
X33163000Y-34501833D01*
X33225832Y-34817712D01*
X33349082Y-35115263D01*
X33528013Y-35383052D01*
X33755748Y-35610787D01*
X34023537Y-35789718D01*
X34036000Y-35794881D01*
X34036001Y-37656167D01*
X34032314Y-37693600D01*
X34047027Y-37842978D01*
X34090599Y-37986615D01*
X34161355Y-38118992D01*
X34231630Y-38204622D01*
X34256579Y-38235022D01*
X34285649Y-38258879D01*
X34575521Y-38548751D01*
X34532200Y-38766540D01*
X34532200Y-39059060D01*
X34589268Y-39345958D01*
X34701210Y-39616211D01*
X34863725Y-39859432D01*
X35070568Y-40066275D01*
X35244960Y-40182800D01*
X35070568Y-40299325D01*
X34863725Y-40506168D01*
X34701210Y-40749389D01*
X34589268Y-41019642D01*
X34532200Y-41306540D01*
X34532200Y-41599060D01*
X34589268Y-41885958D01*
X34701210Y-42156211D01*
X34863725Y-42399432D01*
X35070568Y-42606275D01*
X35313789Y-42768790D01*
X35318700Y-42770824D01*
X35318701Y-44165233D01*
X33015637Y-46468297D01*
X32986567Y-46492154D01*
X32959217Y-46525480D01*
X32891344Y-46608183D01*
X32886537Y-46617177D01*
X32820587Y-46740561D01*
X32777015Y-46884198D01*
X32765989Y-46996149D01*
X32762303Y-47033575D01*
X32765989Y-47070998D01*
X32765990Y-49976359D01*
X31180750Y-48391119D01*
X31203000Y-48279260D01*
X31203000Y-47986740D01*
X31145932Y-47699842D01*
X31033990Y-47429589D01*
X30871475Y-47186368D01*
X30739620Y-47054513D01*
X30812180Y-47032502D01*
X30922494Y-46973537D01*
X31019185Y-46894185D01*
X31098537Y-46797494D01*
X31157502Y-46687180D01*
X31193812Y-46567482D01*
X31206072Y-46443000D01*
X31203000Y-45878750D01*
X31044250Y-45720000D01*
X29845000Y-45720000D01*
X29845000Y-45740000D01*
X29591000Y-45740000D01*
X29591000Y-45720000D01*
X29571000Y-45720000D01*
X29571000Y-45466000D01*
X29591000Y-45466000D01*
X29591000Y-44266750D01*
X29845000Y-44266750D01*
X29845000Y-45466000D01*
X31044250Y-45466000D01*
X31203000Y-45307250D01*
X31206072Y-44743000D01*
X31193812Y-44618518D01*
X31157502Y-44498820D01*
X31098537Y-44388506D01*
X31019185Y-44291815D01*
X30922494Y-44212463D01*
X30812180Y-44153498D01*
X30692482Y-44117188D01*
X30568000Y-44104928D01*
X30003750Y-44108000D01*
X29845000Y-44266750D01*
X29591000Y-44266750D01*
X29432250Y-44108000D01*
X28868000Y-44104928D01*
X28743518Y-44117188D01*
X28623820Y-44153498D01*
X28513506Y-44212463D01*
X28422200Y-44287396D01*
X28422200Y-40324082D01*
X28519369Y-40558669D01*
X28763962Y-40924729D01*
X29075271Y-41236038D01*
X29441331Y-41480631D01*
X29848075Y-41649110D01*
X30279872Y-41735000D01*
X30720128Y-41735000D01*
X31151925Y-41649110D01*
X31558669Y-41480631D01*
X31924729Y-41236038D01*
X32236038Y-40924729D01*
X32480631Y-40558669D01*
X32649110Y-40151925D01*
X32735000Y-39720128D01*
X32735000Y-39279872D01*
X32649110Y-38848075D01*
X32480631Y-38441331D01*
X32236038Y-38075271D01*
X31924729Y-37763962D01*
X31558669Y-37519369D01*
X31151925Y-37350890D01*
X30720128Y-37265000D01*
X30279872Y-37265000D01*
X29848075Y-37350890D01*
X29441331Y-37519369D01*
X29075271Y-37763962D01*
X28763962Y-38075271D01*
X28519369Y-38441331D01*
X28422200Y-38675918D01*
X28422200Y-32105200D01*
X89962400Y-32105200D01*
X89962401Y-54144709D01*
%TA.AperFunction,Conductor*%
D26*
G36*
X89962401Y-54144709D02*
G01*
X89773889Y-54066625D01*
X89506311Y-54013400D01*
X89233489Y-54013400D01*
X88965911Y-54066625D01*
X88713857Y-54171029D01*
X88588850Y-54254556D01*
X88463843Y-54171029D01*
X88211789Y-54066625D01*
X87944211Y-54013400D01*
X87671389Y-54013400D01*
X87403811Y-54066625D01*
X87151757Y-54171029D01*
X86982300Y-54284257D01*
X86812843Y-54171029D01*
X86560789Y-54066625D01*
X86293211Y-54013400D01*
X86020389Y-54013400D01*
X85752811Y-54066625D01*
X85500757Y-54171029D01*
X85363050Y-54263042D01*
X85225343Y-54171029D01*
X84973289Y-54066625D01*
X84705711Y-54013400D01*
X84437511Y-54013400D01*
X84437853Y-54012574D01*
X84493000Y-53735335D01*
X84493000Y-53452665D01*
X84437853Y-53175426D01*
X84329680Y-52914273D01*
X84172637Y-52679241D01*
X83972759Y-52479363D01*
X83737727Y-52322320D01*
X83476574Y-52214147D01*
X83199335Y-52159000D01*
X82916665Y-52159000D01*
X82639426Y-52214147D01*
X82378273Y-52322320D01*
X82143241Y-52479363D01*
X81943363Y-52679241D01*
X81788000Y-52911759D01*
X81632637Y-52679241D01*
X81432759Y-52479363D01*
X81197727Y-52322320D01*
X80936574Y-52214147D01*
X80659335Y-52159000D01*
X80376665Y-52159000D01*
X80099426Y-52214147D01*
X79838273Y-52322320D01*
X79603241Y-52479363D01*
X79403363Y-52679241D01*
X79248000Y-52911759D01*
X79092637Y-52679241D01*
X78892759Y-52479363D01*
X78657727Y-52322320D01*
X78396574Y-52214147D01*
X78119335Y-52159000D01*
X77836665Y-52159000D01*
X77559426Y-52214147D01*
X77298273Y-52322320D01*
X77063241Y-52479363D01*
X76863363Y-52679241D01*
X76708000Y-52911759D01*
X76552637Y-52679241D01*
X76352759Y-52479363D01*
X76117727Y-52322320D01*
X75856574Y-52214147D01*
X75579335Y-52159000D01*
X75296665Y-52159000D01*
X75019426Y-52214147D01*
X74758273Y-52322320D01*
X74523241Y-52479363D01*
X74323363Y-52679241D01*
X74168000Y-52911759D01*
X74012637Y-52679241D01*
X73812759Y-52479363D01*
X73577727Y-52322320D01*
X73316574Y-52214147D01*
X73039335Y-52159000D01*
X72756665Y-52159000D01*
X72479426Y-52214147D01*
X72218273Y-52322320D01*
X71983241Y-52479363D01*
X71783363Y-52679241D01*
X71628000Y-52911759D01*
X71472637Y-52679241D01*
X71272759Y-52479363D01*
X71037727Y-52322320D01*
X70776574Y-52214147D01*
X70499335Y-52159000D01*
X70216665Y-52159000D01*
X69939426Y-52214147D01*
X69678273Y-52322320D01*
X69443241Y-52479363D01*
X69243363Y-52679241D01*
X69088000Y-52911759D01*
X68932637Y-52679241D01*
X68732759Y-52479363D01*
X68497727Y-52322320D01*
X68236574Y-52214147D01*
X67959335Y-52159000D01*
X67676665Y-52159000D01*
X67399426Y-52214147D01*
X67138273Y-52322320D01*
X66903241Y-52479363D01*
X66703363Y-52679241D01*
X66548000Y-52911759D01*
X66392637Y-52679241D01*
X66192759Y-52479363D01*
X65957727Y-52322320D01*
X65696574Y-52214147D01*
X65419335Y-52159000D01*
X65136665Y-52159000D01*
X64859426Y-52214147D01*
X64598273Y-52322320D01*
X64363241Y-52479363D01*
X64163363Y-52679241D01*
X64008000Y-52911759D01*
X63852637Y-52679241D01*
X63652759Y-52479363D01*
X63417727Y-52322320D01*
X63156574Y-52214147D01*
X62879335Y-52159000D01*
X62596665Y-52159000D01*
X62319426Y-52214147D01*
X62058273Y-52322320D01*
X61823241Y-52479363D01*
X61623363Y-52679241D01*
X61468000Y-52911759D01*
X61312637Y-52679241D01*
X61112759Y-52479363D01*
X60877727Y-52322320D01*
X60616574Y-52214147D01*
X60339335Y-52159000D01*
X60056665Y-52159000D01*
X59779426Y-52214147D01*
X59518273Y-52322320D01*
X59283241Y-52479363D01*
X59083363Y-52679241D01*
X58928000Y-52911759D01*
X58772637Y-52679241D01*
X58572759Y-52479363D01*
X58337727Y-52322320D01*
X58076574Y-52214147D01*
X57799335Y-52159000D01*
X57516665Y-52159000D01*
X57239426Y-52214147D01*
X56978273Y-52322320D01*
X56743241Y-52479363D01*
X56544643Y-52677961D01*
X56543812Y-52669518D01*
X56507502Y-52549820D01*
X56448537Y-52439506D01*
X56369185Y-52342815D01*
X56272494Y-52263463D01*
X56162180Y-52204498D01*
X56042482Y-52168188D01*
X55918000Y-52155928D01*
X55403750Y-52159000D01*
X55245000Y-52317750D01*
X55245000Y-53467000D01*
X55265000Y-53467000D01*
X55265000Y-53721000D01*
X55245000Y-53721000D01*
X55245000Y-54870250D01*
X55403750Y-55029000D01*
X55918000Y-55032072D01*
X56042482Y-55019812D01*
X56162180Y-54983502D01*
X56272494Y-54924537D01*
X56369185Y-54845185D01*
X56448537Y-54748494D01*
X56507502Y-54638180D01*
X56543812Y-54518482D01*
X56544643Y-54510039D01*
X56743241Y-54708637D01*
X56896001Y-54810707D01*
X56896001Y-55056369D01*
X56580370Y-55372000D01*
X54647423Y-55372000D01*
X54610000Y-55368314D01*
X54572577Y-55372000D01*
X54572574Y-55372000D01*
X54460622Y-55383026D01*
X54316985Y-55426598D01*
X54255364Y-55459535D01*
X54184607Y-55497355D01*
X54142219Y-55532143D01*
X54068578Y-55592578D01*
X54044716Y-55621654D01*
X52466420Y-57199950D01*
X52433853Y-57036226D01*
X52325680Y-56775073D01*
X52168637Y-56540041D01*
X51968759Y-56340163D01*
X51733727Y-56183120D01*
X51472574Y-56074947D01*
X51195335Y-56019800D01*
X50912665Y-56019800D01*
X50800000Y-56042211D01*
X50800000Y-54810707D01*
X50952759Y-54708637D01*
X51152637Y-54508759D01*
X51308000Y-54276241D01*
X51463363Y-54508759D01*
X51663241Y-54708637D01*
X51898273Y-54865680D01*
X52159426Y-54973853D01*
X52436665Y-55029000D01*
X52719335Y-55029000D01*
X52996574Y-54973853D01*
X53257727Y-54865680D01*
X53492759Y-54708637D01*
X53691357Y-54510039D01*
X53692188Y-54518482D01*
X53728498Y-54638180D01*
X53787463Y-54748494D01*
X53866815Y-54845185D01*
X53963506Y-54924537D01*
X54073820Y-54983502D01*
X54193518Y-55019812D01*
X54318000Y-55032072D01*
X54832250Y-55029000D01*
X54991000Y-54870250D01*
X54991000Y-53721000D01*
X54971000Y-53721000D01*
X54971000Y-53467000D01*
X54991000Y-53467000D01*
X54991000Y-52317750D01*
X54832250Y-52159000D01*
X54318000Y-52155928D01*
X54193518Y-52168188D01*
X54073820Y-52204498D01*
X53963506Y-52263463D01*
X53866815Y-52342815D01*
X53787463Y-52439506D01*
X53728498Y-52549820D01*
X53692188Y-52669518D01*
X53691357Y-52677961D01*
X53492759Y-52479363D01*
X53257727Y-52322320D01*
X52996574Y-52214147D01*
X52719335Y-52159000D01*
X52436665Y-52159000D01*
X52159426Y-52214147D01*
X51898273Y-52322320D01*
X51663241Y-52479363D01*
X51463363Y-52679241D01*
X51308000Y-52911759D01*
X51152637Y-52679241D01*
X50952759Y-52479363D01*
X50717727Y-52322320D01*
X50456574Y-52214147D01*
X50179335Y-52159000D01*
X49896665Y-52159000D01*
X49619426Y-52214147D01*
X49358273Y-52322320D01*
X49123241Y-52479363D01*
X48924643Y-52677961D01*
X48923812Y-52669518D01*
X48887502Y-52549820D01*
X48828537Y-52439506D01*
X48749185Y-52342815D01*
X48652494Y-52263463D01*
X48542180Y-52204498D01*
X48422482Y-52168188D01*
X48298000Y-52155928D01*
X46698000Y-52155928D01*
X46573518Y-52168188D01*
X46453820Y-52204498D01*
X46343506Y-52263463D01*
X46246815Y-52342815D01*
X46167463Y-52439506D01*
X46108498Y-52549820D01*
X46072188Y-52669518D01*
X46059928Y-52794000D01*
X46059928Y-53751242D01*
X43755527Y-56055643D01*
X43575335Y-56019800D01*
X43292665Y-56019800D01*
X43015426Y-56074947D01*
X42754273Y-56183120D01*
X42519241Y-56340163D01*
X42319363Y-56540041D01*
X42162320Y-56775073D01*
X42054147Y-57036226D01*
X41999000Y-57313465D01*
X41999000Y-57532970D01*
X41979974Y-57513944D01*
X41956112Y-57484868D01*
X41840082Y-57389645D01*
X41707705Y-57318888D01*
X41564068Y-57275316D01*
X41452116Y-57264290D01*
X41452113Y-57264290D01*
X41414690Y-57260604D01*
X41377267Y-57264290D01*
X38352121Y-57264290D01*
X35776508Y-54688678D01*
X35847805Y-54674496D01*
X36090759Y-54573861D01*
X36309413Y-54427762D01*
X36495362Y-54241813D01*
X36626800Y-54045101D01*
X36758238Y-54241813D01*
X36944187Y-54427762D01*
X37162841Y-54573861D01*
X37405795Y-54674496D01*
X37663714Y-54725800D01*
X37926686Y-54725800D01*
X38184605Y-54674496D01*
X38427559Y-54573861D01*
X38646213Y-54427762D01*
X38832162Y-54241813D01*
X38978261Y-54023159D01*
X39078896Y-53780205D01*
X39130200Y-53522286D01*
X39130200Y-53259314D01*
X39078896Y-53001395D01*
X38978261Y-52758441D01*
X38832162Y-52539787D01*
X38646213Y-52353838D01*
X38427559Y-52207739D01*
X38184605Y-52107104D01*
X37926686Y-52055800D01*
X37663714Y-52055800D01*
X37405795Y-52107104D01*
X37162841Y-52207739D01*
X36944187Y-52353838D01*
X36758238Y-52539787D01*
X36626800Y-52736499D01*
X36495362Y-52539787D01*
X36309413Y-52353838D01*
X36090759Y-52207739D01*
X35847805Y-52107104D01*
X35589886Y-52055800D01*
X35326914Y-52055800D01*
X35068995Y-52107104D01*
X34826041Y-52207739D01*
X34798000Y-52226475D01*
X34798000Y-51905102D01*
X39928503Y-51905102D01*
X40000086Y-52149071D01*
X40255596Y-52269971D01*
X40529784Y-52338700D01*
X40812112Y-52352617D01*
X41091730Y-52311187D01*
X41357892Y-52216003D01*
X41483114Y-52149071D01*
X41554697Y-51905102D01*
X40741600Y-51092005D01*
X39928503Y-51905102D01*
X34798000Y-51905102D01*
X34798000Y-50982912D01*
X39301383Y-50982912D01*
X39342813Y-51262530D01*
X39437997Y-51528692D01*
X39504929Y-51653914D01*
X39748898Y-51725497D01*
X40561995Y-50912400D01*
X40921205Y-50912400D01*
X41734302Y-51725497D01*
X41978271Y-51653914D01*
X42099171Y-51398404D01*
X42167900Y-51124216D01*
X42181817Y-50841888D01*
X42140387Y-50562270D01*
X42045203Y-50296108D01*
X41978271Y-50170886D01*
X41734302Y-50099303D01*
X40921205Y-50912400D01*
X40561995Y-50912400D01*
X39748898Y-50099303D01*
X39504929Y-50170886D01*
X39384029Y-50426396D01*
X39315300Y-50700584D01*
X39301383Y-50982912D01*
X34798000Y-50982912D01*
X34798000Y-49475125D01*
X34826041Y-49493861D01*
X35068995Y-49594496D01*
X35326914Y-49645800D01*
X35589886Y-49645800D01*
X35847805Y-49594496D01*
X36090759Y-49493861D01*
X36309413Y-49347762D01*
X36495362Y-49161813D01*
X36626800Y-48965101D01*
X36758238Y-49161813D01*
X36944187Y-49347762D01*
X37162841Y-49493861D01*
X37405795Y-49594496D01*
X37663714Y-49645800D01*
X37926686Y-49645800D01*
X38184605Y-49594496D01*
X38427559Y-49493861D01*
X38646213Y-49347762D01*
X38832162Y-49161813D01*
X38978261Y-48943159D01*
X39078896Y-48700205D01*
X39130200Y-48442286D01*
X39130200Y-48179314D01*
X39092900Y-47991799D01*
X39362587Y-47991799D01*
X39361747Y-47993826D01*
X39306600Y-48271065D01*
X39306600Y-48553735D01*
X39361747Y-48830974D01*
X39469920Y-49092127D01*
X39626963Y-49327159D01*
X39826841Y-49527037D01*
X40027469Y-49661092D01*
X40000086Y-49675729D01*
X39928503Y-49919698D01*
X40741600Y-50732795D01*
X41554697Y-49919698D01*
X41483114Y-49675729D01*
X41454259Y-49662076D01*
X41656359Y-49527037D01*
X41856237Y-49327159D01*
X41958307Y-49174400D01*
X70422177Y-49174400D01*
X70459600Y-49178086D01*
X70497023Y-49174400D01*
X70497026Y-49174400D01*
X70608978Y-49163374D01*
X70752615Y-49119802D01*
X70884992Y-49049045D01*
X71001022Y-48953822D01*
X71024884Y-48924746D01*
X77711074Y-42238556D01*
X80196474Y-39753157D01*
X80376665Y-39789000D01*
X80659335Y-39789000D01*
X80936574Y-39733853D01*
X81197727Y-39625680D01*
X81432759Y-39468637D01*
X81632637Y-39268759D01*
X81788000Y-39036241D01*
X81943363Y-39268759D01*
X82143241Y-39468637D01*
X82378273Y-39625680D01*
X82639426Y-39733853D01*
X82916665Y-39789000D01*
X83199335Y-39789000D01*
X83476574Y-39733853D01*
X83737727Y-39625680D01*
X83972759Y-39468637D01*
X84172637Y-39268759D01*
X84329680Y-39033727D01*
X84437853Y-38772574D01*
X84493000Y-38495335D01*
X84493000Y-38212665D01*
X84437853Y-37935426D01*
X84329680Y-37674273D01*
X84172637Y-37439241D01*
X83972759Y-37239363D01*
X83892297Y-37185600D01*
X85636777Y-37185600D01*
X85674200Y-37189286D01*
X85711623Y-37185600D01*
X85711626Y-37185600D01*
X85823578Y-37174574D01*
X85967215Y-37131002D01*
X86099592Y-37060245D01*
X86215622Y-36965022D01*
X86239484Y-36935946D01*
X86902073Y-36273357D01*
X87082265Y-36309200D01*
X87364935Y-36309200D01*
X87642174Y-36254053D01*
X87903327Y-36145880D01*
X88138359Y-35988837D01*
X88338237Y-35788959D01*
X88495280Y-35553927D01*
X88603453Y-35292774D01*
X88658600Y-35015535D01*
X88658600Y-34732865D01*
X88603453Y-34455626D01*
X88495280Y-34194473D01*
X88338237Y-33959441D01*
X88138359Y-33759563D01*
X87903327Y-33602520D01*
X87642174Y-33494347D01*
X87364935Y-33439200D01*
X87082265Y-33439200D01*
X86805026Y-33494347D01*
X86543873Y-33602520D01*
X86308841Y-33759563D01*
X86108963Y-33959441D01*
X85951920Y-34194473D01*
X85843747Y-34455626D01*
X85788600Y-34732865D01*
X85788600Y-35015535D01*
X85824443Y-35195727D01*
X85358570Y-35661600D01*
X75723335Y-35661600D01*
X75795280Y-35553927D01*
X75903453Y-35292774D01*
X75958600Y-35015535D01*
X75958600Y-34732865D01*
X75903453Y-34455626D01*
X75795280Y-34194473D01*
X75638237Y-33959441D01*
X75438359Y-33759563D01*
X75203327Y-33602520D01*
X74942174Y-33494347D01*
X74664935Y-33439200D01*
X74382265Y-33439200D01*
X74202073Y-33475043D01*
X73234684Y-32507654D01*
X73210822Y-32478578D01*
X73094792Y-32383355D01*
X72962415Y-32312598D01*
X72818778Y-32269026D01*
X72706826Y-32258000D01*
X72706823Y-32258000D01*
X72669400Y-32254314D01*
X72631977Y-32258000D01*
X59168623Y-32258000D01*
X59131200Y-32254314D01*
X59093777Y-32258000D01*
X59093774Y-32258000D01*
X58981822Y-32269026D01*
X58838185Y-32312598D01*
X58776564Y-32345535D01*
X58705807Y-32383355D01*
X58692203Y-32394520D01*
X58589778Y-32478578D01*
X58565921Y-32507648D01*
X57886641Y-33186928D01*
X56126200Y-33186928D01*
X56001718Y-33199188D01*
X55882020Y-33235498D01*
X55771706Y-33294463D01*
X55675015Y-33373815D01*
X55595663Y-33470506D01*
X55536698Y-33580820D01*
X55500388Y-33700518D01*
X55488128Y-33825000D01*
X55488128Y-36025000D01*
X55500388Y-36149482D01*
X55536698Y-36269180D01*
X55595663Y-36379494D01*
X55675015Y-36476185D01*
X55771706Y-36555537D01*
X55882020Y-36614502D01*
X56001718Y-36650812D01*
X56126200Y-36663072D01*
X58326200Y-36663072D01*
X58450682Y-36650812D01*
X58570380Y-36614502D01*
X58680694Y-36555537D01*
X58777385Y-36476185D01*
X58856737Y-36379494D01*
X58915702Y-36269180D01*
X58952012Y-36149482D01*
X58964272Y-36025000D01*
X58964272Y-35194122D01*
X59753425Y-35194122D01*
X59818025Y-35407094D01*
X59968069Y-35712329D01*
X60174778Y-35982427D01*
X60430209Y-36207008D01*
X60724546Y-36377442D01*
X61046477Y-36487179D01*
X61315600Y-36369600D01*
X61315600Y-34925000D01*
X61569600Y-34925000D01*
X61569600Y-36369600D01*
X61838723Y-36487179D01*
X62160654Y-36377442D01*
X62454991Y-36207008D01*
X62710422Y-35982427D01*
X62917131Y-35712329D01*
X63067175Y-35407094D01*
X63131775Y-35194122D01*
X63013725Y-34925000D01*
X61569600Y-34925000D01*
X61315600Y-34925000D01*
X59871475Y-34925000D01*
X59753425Y-35194122D01*
X58964272Y-35194122D01*
X58964272Y-34264559D01*
X59446831Y-33782000D01*
X60045879Y-33782000D01*
X59968069Y-33883671D01*
X59818025Y-34188906D01*
X59753425Y-34401878D01*
X59871475Y-34671000D01*
X61315600Y-34671000D01*
X61315600Y-34651000D01*
X61569600Y-34651000D01*
X61569600Y-34671000D01*
X63013725Y-34671000D01*
X63131775Y-34401878D01*
X63067175Y-34188906D01*
X62917131Y-33883671D01*
X62839321Y-33782000D01*
X69864528Y-33782000D01*
X69864528Y-35898000D01*
X69876788Y-36022482D01*
X69913098Y-36142180D01*
X69972063Y-36252494D01*
X70051415Y-36349185D01*
X70148106Y-36428537D01*
X70258420Y-36487502D01*
X70378118Y-36523812D01*
X70502600Y-36536072D01*
X72263042Y-36536072D01*
X72662916Y-36935946D01*
X72664117Y-36937409D01*
X72479426Y-36974147D01*
X72218273Y-37082320D01*
X71983241Y-37239363D01*
X71783363Y-37439241D01*
X71628000Y-37671759D01*
X71472637Y-37439241D01*
X71272759Y-37239363D01*
X71037727Y-37082320D01*
X70776574Y-36974147D01*
X70499335Y-36919000D01*
X70216665Y-36919000D01*
X69939426Y-36974147D01*
X69678273Y-37082320D01*
X69443241Y-37239363D01*
X69243363Y-37439241D01*
X69088000Y-37671759D01*
X68932637Y-37439241D01*
X68732759Y-37239363D01*
X68497727Y-37082320D01*
X68236574Y-36974147D01*
X67959335Y-36919000D01*
X67676665Y-36919000D01*
X67399426Y-36974147D01*
X67138273Y-37082320D01*
X66903241Y-37239363D01*
X66703363Y-37439241D01*
X66548000Y-37671759D01*
X66392637Y-37439241D01*
X66192759Y-37239363D01*
X65957727Y-37082320D01*
X65696574Y-36974147D01*
X65419335Y-36919000D01*
X65136665Y-36919000D01*
X64859426Y-36974147D01*
X64598273Y-37082320D01*
X64363241Y-37239363D01*
X64163363Y-37439241D01*
X64008000Y-37671759D01*
X63852637Y-37439241D01*
X63652759Y-37239363D01*
X63417727Y-37082320D01*
X63156574Y-36974147D01*
X62879335Y-36919000D01*
X62596665Y-36919000D01*
X62319426Y-36974147D01*
X62058273Y-37082320D01*
X61823241Y-37239363D01*
X61623363Y-37439241D01*
X61468000Y-37671759D01*
X61312637Y-37439241D01*
X61112759Y-37239363D01*
X60877727Y-37082320D01*
X60616574Y-36974147D01*
X60339335Y-36919000D01*
X60056665Y-36919000D01*
X59779426Y-36974147D01*
X59518273Y-37082320D01*
X59283241Y-37239363D01*
X59083363Y-37439241D01*
X58928000Y-37671759D01*
X58772637Y-37439241D01*
X58572759Y-37239363D01*
X58337727Y-37082320D01*
X58076574Y-36974147D01*
X57799335Y-36919000D01*
X57516665Y-36919000D01*
X57239426Y-36974147D01*
X56978273Y-37082320D01*
X56743241Y-37239363D01*
X56543363Y-37439241D01*
X56388000Y-37671759D01*
X56232637Y-37439241D01*
X56032759Y-37239363D01*
X55797727Y-37082320D01*
X55536574Y-36974147D01*
X55259335Y-36919000D01*
X54976665Y-36919000D01*
X54699426Y-36974147D01*
X54438273Y-37082320D01*
X54203241Y-37239363D01*
X54003363Y-37439241D01*
X53848000Y-37671759D01*
X53692637Y-37439241D01*
X53492759Y-37239363D01*
X53257727Y-37082320D01*
X52996574Y-36974147D01*
X52719335Y-36919000D01*
X52436665Y-36919000D01*
X52159426Y-36974147D01*
X51898273Y-37082320D01*
X51663241Y-37239363D01*
X51464643Y-37437961D01*
X51463812Y-37429518D01*
X51427502Y-37309820D01*
X51368537Y-37199506D01*
X51289185Y-37102815D01*
X51192494Y-37023463D01*
X51082180Y-36964498D01*
X50962482Y-36928188D01*
X50838000Y-36915928D01*
X50323750Y-36919000D01*
X50165000Y-37077750D01*
X50165000Y-38227000D01*
X50185000Y-38227000D01*
X50185000Y-38481000D01*
X50165000Y-38481000D01*
X50165000Y-39630250D01*
X50194560Y-39659810D01*
X45505970Y-44348400D01*
X42483672Y-44348400D01*
X42483672Y-44260400D01*
X42471412Y-44135918D01*
X42435102Y-44016220D01*
X42376137Y-43905906D01*
X42296785Y-43809215D01*
X42200094Y-43729863D01*
X42089780Y-43670898D01*
X41970082Y-43634588D01*
X41845600Y-43622328D01*
X40145600Y-43622328D01*
X40021118Y-43634588D01*
X39901420Y-43670898D01*
X39791106Y-43729863D01*
X39694415Y-43809215D01*
X39615063Y-43905906D01*
X39556098Y-44016220D01*
X39531634Y-44096866D01*
X39455869Y-44012812D01*
X39222520Y-43838759D01*
X38959699Y-43713575D01*
X38812490Y-43668924D01*
X38582602Y-43790244D01*
X38582602Y-43775029D01*
X38917152Y-43440479D01*
X38946222Y-43416622D01*
X39041445Y-43300592D01*
X39112202Y-43168215D01*
X39155774Y-43024578D01*
X39166800Y-42912626D01*
X39166800Y-42912624D01*
X39170486Y-42875201D01*
X39166800Y-42837778D01*
X39166800Y-42807648D01*
X39260611Y-42768790D01*
X39503832Y-42606275D01*
X39710675Y-42399432D01*
X39873190Y-42156211D01*
X39985132Y-41885958D01*
X40042200Y-41599060D01*
X40042200Y-41306540D01*
X39985132Y-41019642D01*
X39873190Y-40749389D01*
X39710675Y-40506168D01*
X39578820Y-40374313D01*
X39651380Y-40352302D01*
X39761694Y-40293337D01*
X39858385Y-40213985D01*
X39937737Y-40117294D01*
X39996702Y-40006980D01*
X40033012Y-39887282D01*
X40045272Y-39762800D01*
X40045272Y-38062800D01*
X40033012Y-37938318D01*
X39996702Y-37818620D01*
X39937737Y-37708306D01*
X39858385Y-37611615D01*
X39761694Y-37532263D01*
X39651380Y-37473298D01*
X39531682Y-37436988D01*
X39407200Y-37424728D01*
X39370000Y-37424728D01*
X39370000Y-35794880D01*
X39382463Y-35789718D01*
X39650252Y-35610787D01*
X39877987Y-35383052D01*
X39878001Y-35383031D01*
X39878001Y-35616933D01*
X39874314Y-35654366D01*
X39889027Y-35803744D01*
X39932599Y-35947381D01*
X40003355Y-36079758D01*
X40074721Y-36166717D01*
X40098579Y-36195788D01*
X40127649Y-36219645D01*
X42774354Y-38866351D01*
X42798212Y-38895422D01*
X42914242Y-38990645D01*
X43046619Y-39061402D01*
X43190256Y-39104974D01*
X43302208Y-39116000D01*
X43302210Y-39116000D01*
X43339633Y-39119686D01*
X43377056Y-39116000D01*
X46281293Y-39116000D01*
X46383363Y-39268759D01*
X46583241Y-39468637D01*
X46818273Y-39625680D01*
X47079426Y-39733853D01*
X47356665Y-39789000D01*
X47639335Y-39789000D01*
X47916574Y-39733853D01*
X48177727Y-39625680D01*
X48412759Y-39468637D01*
X48611357Y-39270039D01*
X48612188Y-39278482D01*
X48648498Y-39398180D01*
X48707463Y-39508494D01*
X48786815Y-39605185D01*
X48883506Y-39684537D01*
X48993820Y-39743502D01*
X49113518Y-39779812D01*
X49238000Y-39792072D01*
X49752250Y-39789000D01*
X49911000Y-39630250D01*
X49911000Y-38481000D01*
X49891000Y-38481000D01*
X49891000Y-38227000D01*
X49911000Y-38227000D01*
X49911000Y-37077750D01*
X49752250Y-36919000D01*
X49238000Y-36915928D01*
X49113518Y-36928188D01*
X48993820Y-36964498D01*
X48883506Y-37023463D01*
X48786815Y-37102815D01*
X48707463Y-37199506D01*
X48648498Y-37309820D01*
X48612188Y-37429518D01*
X48611357Y-37437961D01*
X48412759Y-37239363D01*
X48177727Y-37082320D01*
X47916574Y-36974147D01*
X47639335Y-36919000D01*
X47356665Y-36919000D01*
X47079426Y-36974147D01*
X46818273Y-37082320D01*
X46583241Y-37239363D01*
X46383363Y-37439241D01*
X46281293Y-37592000D01*
X43655265Y-37592000D01*
X41971259Y-35907994D01*
X42037565Y-35930929D01*
X42291000Y-35812115D01*
X42291000Y-34467800D01*
X42545000Y-34467800D01*
X42545000Y-35812115D01*
X42798435Y-35930929D01*
X43101344Y-35826156D01*
X43377992Y-35664301D01*
X43617748Y-35451585D01*
X43716667Y-35321122D01*
X45377025Y-35321122D01*
X45441625Y-35534094D01*
X45591669Y-35839329D01*
X45798378Y-36109427D01*
X46053809Y-36334008D01*
X46348146Y-36504442D01*
X46670077Y-36614179D01*
X46939200Y-36496600D01*
X46939200Y-35052000D01*
X47193200Y-35052000D01*
X47193200Y-36496600D01*
X47462323Y-36614179D01*
X47784254Y-36504442D01*
X48078591Y-36334008D01*
X48334022Y-36109427D01*
X48540731Y-35839329D01*
X48690775Y-35534094D01*
X48755375Y-35321122D01*
X48637325Y-35052000D01*
X47193200Y-35052000D01*
X46939200Y-35052000D01*
X45495075Y-35052000D01*
X45377025Y-35321122D01*
X43716667Y-35321122D01*
X43811399Y-35196182D01*
X43951502Y-34907907D01*
X44008124Y-34721234D01*
X43917540Y-34528878D01*
X45377025Y-34528878D01*
X45495075Y-34798000D01*
X46939200Y-34798000D01*
X46939200Y-33353400D01*
X47193200Y-33353400D01*
X47193200Y-34798000D01*
X48637325Y-34798000D01*
X48755375Y-34528878D01*
X48690775Y-34315906D01*
X48540731Y-34010671D01*
X48334022Y-33740573D01*
X48078591Y-33515992D01*
X47784254Y-33345558D01*
X47462323Y-33235821D01*
X47193200Y-33353400D01*
X46939200Y-33353400D01*
X46670077Y-33235821D01*
X46348146Y-33345558D01*
X46053809Y-33515992D01*
X45798378Y-33740573D01*
X45591669Y-34010671D01*
X45441625Y-34315906D01*
X45377025Y-34528878D01*
X43917540Y-34528878D01*
X43888777Y-34467800D01*
X42545000Y-34467800D01*
X42291000Y-34467800D01*
X42271000Y-34467800D01*
X42271000Y-34213800D01*
X42291000Y-34213800D01*
X42291000Y-32869485D01*
X42545000Y-32869485D01*
X42545000Y-34213800D01*
X43888777Y-34213800D01*
X44008124Y-33960366D01*
X43951502Y-33773693D01*
X43811399Y-33485418D01*
X43617748Y-33230015D01*
X43377992Y-33017299D01*
X43101344Y-32855444D01*
X42798435Y-32750671D01*
X42545000Y-32869485D01*
X42291000Y-32869485D01*
X42037565Y-32750671D01*
X41734656Y-32855444D01*
X41458008Y-33017299D01*
X41218252Y-33230015D01*
X41175445Y-33286473D01*
X41152353Y-33267522D01*
X40332283Y-32447452D01*
X40308421Y-32418377D01*
X40192391Y-32323154D01*
X40060014Y-32252397D01*
X39916377Y-32208825D01*
X39804425Y-32197799D01*
X39804422Y-32197799D01*
X39766999Y-32194113D01*
X39729576Y-32197799D01*
X32406423Y-32197799D01*
X32369000Y-32194113D01*
X32331577Y-32197799D01*
X32331575Y-32197799D01*
X32219623Y-32208825D01*
X32075986Y-32252397D01*
X32075984Y-32252398D01*
X32058890Y-32261535D01*
X31943609Y-32323154D01*
X31827579Y-32418377D01*
X31803722Y-32447447D01*
X31477375Y-32773794D01*
X31464912Y-32768632D01*
X31149033Y-32705800D01*
X30826967Y-32705800D01*
X30511088Y-32768632D01*
X30213537Y-32891882D01*
X29945748Y-33070813D01*
X29718013Y-33298548D01*
X29539082Y-33566337D01*
X29415832Y-33863888D01*
X29353000Y-34179767D01*
X29353000Y-34501833D01*
X29415832Y-34817712D01*
X29539082Y-35115263D01*
X29718013Y-35383052D01*
X29945748Y-35610787D01*
X30213537Y-35789718D01*
X30511088Y-35912968D01*
X30826967Y-35975800D01*
X31149033Y-35975800D01*
X31464912Y-35912968D01*
X31762463Y-35789718D01*
X32030252Y-35610787D01*
X32257987Y-35383052D01*
X32436918Y-35115263D01*
X32560168Y-34817712D01*
X32623000Y-34501833D01*
X32623000Y-34179767D01*
X32560168Y-33863888D01*
X32555006Y-33851425D01*
X32684632Y-33721799D01*
X33284687Y-33721799D01*
X33225832Y-33863888D01*
X33163000Y-34179767D01*
X33163000Y-34501833D01*
X33225832Y-34817712D01*
X33349082Y-35115263D01*
X33528013Y-35383052D01*
X33755748Y-35610787D01*
X34023537Y-35789718D01*
X34036000Y-35794881D01*
X34036001Y-37656167D01*
X34032314Y-37693600D01*
X34047027Y-37842978D01*
X34090599Y-37986615D01*
X34161355Y-38118992D01*
X34231630Y-38204622D01*
X34256579Y-38235022D01*
X34285649Y-38258879D01*
X34575521Y-38548751D01*
X34532200Y-38766540D01*
X34532200Y-39059060D01*
X34589268Y-39345958D01*
X34701210Y-39616211D01*
X34863725Y-39859432D01*
X35070568Y-40066275D01*
X35244960Y-40182800D01*
X35070568Y-40299325D01*
X34863725Y-40506168D01*
X34701210Y-40749389D01*
X34589268Y-41019642D01*
X34532200Y-41306540D01*
X34532200Y-41599060D01*
X34589268Y-41885958D01*
X34701210Y-42156211D01*
X34863725Y-42399432D01*
X35070568Y-42606275D01*
X35313789Y-42768790D01*
X35318700Y-42770824D01*
X35318701Y-44165233D01*
X33015637Y-46468297D01*
X32986567Y-46492154D01*
X32959217Y-46525480D01*
X32891344Y-46608183D01*
X32886537Y-46617177D01*
X32820587Y-46740561D01*
X32777015Y-46884198D01*
X32765989Y-46996149D01*
X32762303Y-47033575D01*
X32765989Y-47070998D01*
X32765990Y-49976359D01*
X31180750Y-48391119D01*
X31203000Y-48279260D01*
X31203000Y-47986740D01*
X31145932Y-47699842D01*
X31033990Y-47429589D01*
X30871475Y-47186368D01*
X30739620Y-47054513D01*
X30812180Y-47032502D01*
X30922494Y-46973537D01*
X31019185Y-46894185D01*
X31098537Y-46797494D01*
X31157502Y-46687180D01*
X31193812Y-46567482D01*
X31206072Y-46443000D01*
X31203000Y-45878750D01*
X31044250Y-45720000D01*
X29845000Y-45720000D01*
X29845000Y-45740000D01*
X29591000Y-45740000D01*
X29591000Y-45720000D01*
X29571000Y-45720000D01*
X29571000Y-45466000D01*
X29591000Y-45466000D01*
X29591000Y-44266750D01*
X29845000Y-44266750D01*
X29845000Y-45466000D01*
X31044250Y-45466000D01*
X31203000Y-45307250D01*
X31206072Y-44743000D01*
X31193812Y-44618518D01*
X31157502Y-44498820D01*
X31098537Y-44388506D01*
X31019185Y-44291815D01*
X30922494Y-44212463D01*
X30812180Y-44153498D01*
X30692482Y-44117188D01*
X30568000Y-44104928D01*
X30003750Y-44108000D01*
X29845000Y-44266750D01*
X29591000Y-44266750D01*
X29432250Y-44108000D01*
X28868000Y-44104928D01*
X28743518Y-44117188D01*
X28623820Y-44153498D01*
X28513506Y-44212463D01*
X28422200Y-44287396D01*
X28422200Y-40324082D01*
X28519369Y-40558669D01*
X28763962Y-40924729D01*
X29075271Y-41236038D01*
X29441331Y-41480631D01*
X29848075Y-41649110D01*
X30279872Y-41735000D01*
X30720128Y-41735000D01*
X31151925Y-41649110D01*
X31558669Y-41480631D01*
X31924729Y-41236038D01*
X32236038Y-40924729D01*
X32480631Y-40558669D01*
X32649110Y-40151925D01*
X32735000Y-39720128D01*
X32735000Y-39279872D01*
X32649110Y-38848075D01*
X32480631Y-38441331D01*
X32236038Y-38075271D01*
X31924729Y-37763962D01*
X31558669Y-37519369D01*
X31151925Y-37350890D01*
X30720128Y-37265000D01*
X30279872Y-37265000D01*
X29848075Y-37350890D01*
X29441331Y-37519369D01*
X29075271Y-37763962D01*
X28763962Y-38075271D01*
X28519369Y-38441331D01*
X28422200Y-38675918D01*
X28422200Y-32105200D01*
X89962400Y-32105200D01*
X89962401Y-54144709D01*
G37*
%TD.AperFunction*%
D25*
X38582600Y-44983400D02*
X38602600Y-44983400D01*
X38602600Y-45237400D01*
X38582600Y-45237400D01*
X38582600Y-45257400D01*
X38328600Y-45257400D01*
X38328600Y-45237400D01*
X38308600Y-45237400D01*
X38308600Y-44983400D01*
X38328600Y-44983400D01*
X38328600Y-44963400D01*
X38582600Y-44963400D01*
X38582600Y-44983400D01*
%TA.AperFunction,Conductor*%
D26*
G36*
X38582600Y-44983400D02*
G01*
X38602600Y-44983400D01*
X38602600Y-45237400D01*
X38582600Y-45237400D01*
X38582600Y-45257400D01*
X38328600Y-45257400D01*
X38328600Y-45237400D01*
X38308600Y-45237400D01*
X38308600Y-44983400D01*
X38328600Y-44983400D01*
X38328600Y-44963400D01*
X38582600Y-44963400D01*
X38582600Y-44983400D01*
G37*
%TD.AperFunction*%
%TD*%
M02*
