%TF.GenerationSoftware,KiCad,Pcbnew,(5.1.8)-1*%
%TF.CreationDate,2021-02-22T22:06:48-05:00*%
%TF.ProjectId,TTS,5454532e-6b69-4636-9164-5f7063625858,rev?*%
%TF.SameCoordinates,Original*%
%TF.FileFunction,Legend,Bot*%
%TF.FilePolarity,Positive*%
%FSLAX46Y46*%
G04 Gerber Fmt 4.6, Leading zero omitted, Abs format (unit mm)*
G04 Created by KiCad (PCBNEW (5.1.8)-1) date 2021-02-22 22:06:48*
%MOMM*%
%LPD*%
G01*
G04 APERTURE LIST*
%ADD10C,0.150000*%
%ADD11C,0.010000*%
G04 APERTURE END LIST*
D10*
X88961980Y-32871066D02*
X88961980Y-32966304D01*
X89009600Y-33061542D01*
X89057219Y-33109161D01*
X89152457Y-33156780D01*
X89342933Y-33204400D01*
X89581028Y-33204400D01*
X89771504Y-33156780D01*
X89866742Y-33109161D01*
X89914361Y-33061542D01*
X89961980Y-32966304D01*
X89961980Y-32871066D01*
X89914361Y-32775828D01*
X89866742Y-32728209D01*
X89771504Y-32680590D01*
X89581028Y-32632971D01*
X89342933Y-32632971D01*
X89152457Y-32680590D01*
X89057219Y-32728209D01*
X89009600Y-32775828D01*
X88961980Y-32871066D01*
X89866742Y-33632971D02*
X89914361Y-33680590D01*
X89961980Y-33632971D01*
X89914361Y-33585352D01*
X89866742Y-33632971D01*
X89961980Y-33632971D01*
X89057219Y-34061542D02*
X89009600Y-34109161D01*
X88961980Y-34204400D01*
X88961980Y-34442495D01*
X89009600Y-34537733D01*
X89057219Y-34585352D01*
X89152457Y-34632971D01*
X89247695Y-34632971D01*
X89390552Y-34585352D01*
X89961980Y-34013923D01*
X89961980Y-34632971D01*
X89866742Y-35061542D02*
X89914361Y-35109161D01*
X89961980Y-35061542D01*
X89914361Y-35013923D01*
X89866742Y-35061542D01*
X89961980Y-35061542D01*
X89961980Y-36061542D02*
X89961980Y-35490114D01*
X89961980Y-35775828D02*
X88961980Y-35775828D01*
X89104838Y-35680590D01*
X89200076Y-35585352D01*
X89247695Y-35490114D01*
X89295314Y-36394876D02*
X89961980Y-36632971D01*
X89295314Y-36871066D01*
X89295314Y-37680590D02*
X89961980Y-37680590D01*
X88914361Y-37442495D02*
X89628647Y-37204400D01*
X89628647Y-37823447D01*
D11*
%TO.C,G\u002A\u002A\u002A*%
G36*
X90476986Y-60518437D02*
G01*
X90470018Y-60518201D01*
X90458794Y-60517978D01*
X90443630Y-60517768D01*
X90424844Y-60517575D01*
X90402754Y-60517401D01*
X90377678Y-60517248D01*
X90349932Y-60517117D01*
X90319835Y-60517012D01*
X90287704Y-60516934D01*
X90253857Y-60516886D01*
X90219299Y-60516870D01*
X89959219Y-60516870D01*
X89954202Y-60522374D01*
X89952030Y-60525293D01*
X89947465Y-60531835D01*
X89940788Y-60541578D01*
X89932279Y-60554103D01*
X89922219Y-60568989D01*
X89910890Y-60585813D01*
X89898572Y-60604157D01*
X89885545Y-60623597D01*
X89872092Y-60643715D01*
X89858493Y-60664088D01*
X89845028Y-60684296D01*
X89831980Y-60703918D01*
X89819627Y-60722533D01*
X89808252Y-60739720D01*
X89798136Y-60755058D01*
X89789558Y-60768127D01*
X89782801Y-60778505D01*
X89778145Y-60785772D01*
X89775870Y-60789506D01*
X89775707Y-60789837D01*
X89776036Y-60790390D01*
X89777640Y-60790882D01*
X89780777Y-60791316D01*
X89785702Y-60791696D01*
X89792673Y-60792025D01*
X89801945Y-60792307D01*
X89813774Y-60792546D01*
X89828418Y-60792743D01*
X89846131Y-60792904D01*
X89867172Y-60793031D01*
X89891795Y-60793127D01*
X89920258Y-60793196D01*
X89952816Y-60793242D01*
X89989727Y-60793268D01*
X90031245Y-60793276D01*
X90297585Y-60793276D01*
X90388482Y-60656886D01*
X90403928Y-60633682D01*
X90418547Y-60611670D01*
X90432118Y-60591187D01*
X90444416Y-60572571D01*
X90455220Y-60556160D01*
X90464307Y-60542294D01*
X90471455Y-60531311D01*
X90476441Y-60523548D01*
X90479042Y-60519344D01*
X90479379Y-60518683D01*
X90476986Y-60518437D01*
G37*
X90476986Y-60518437D02*
X90470018Y-60518201D01*
X90458794Y-60517978D01*
X90443630Y-60517768D01*
X90424844Y-60517575D01*
X90402754Y-60517401D01*
X90377678Y-60517248D01*
X90349932Y-60517117D01*
X90319835Y-60517012D01*
X90287704Y-60516934D01*
X90253857Y-60516886D01*
X90219299Y-60516870D01*
X89959219Y-60516870D01*
X89954202Y-60522374D01*
X89952030Y-60525293D01*
X89947465Y-60531835D01*
X89940788Y-60541578D01*
X89932279Y-60554103D01*
X89922219Y-60568989D01*
X89910890Y-60585813D01*
X89898572Y-60604157D01*
X89885545Y-60623597D01*
X89872092Y-60643715D01*
X89858493Y-60664088D01*
X89845028Y-60684296D01*
X89831980Y-60703918D01*
X89819627Y-60722533D01*
X89808252Y-60739720D01*
X89798136Y-60755058D01*
X89789558Y-60768127D01*
X89782801Y-60778505D01*
X89778145Y-60785772D01*
X89775870Y-60789506D01*
X89775707Y-60789837D01*
X89776036Y-60790390D01*
X89777640Y-60790882D01*
X89780777Y-60791316D01*
X89785702Y-60791696D01*
X89792673Y-60792025D01*
X89801945Y-60792307D01*
X89813774Y-60792546D01*
X89828418Y-60792743D01*
X89846131Y-60792904D01*
X89867172Y-60793031D01*
X89891795Y-60793127D01*
X89920258Y-60793196D01*
X89952816Y-60793242D01*
X89989727Y-60793268D01*
X90031245Y-60793276D01*
X90297585Y-60793276D01*
X90388482Y-60656886D01*
X90403928Y-60633682D01*
X90418547Y-60611670D01*
X90432118Y-60591187D01*
X90444416Y-60572571D01*
X90455220Y-60556160D01*
X90464307Y-60542294D01*
X90471455Y-60531311D01*
X90476441Y-60523548D01*
X90479042Y-60519344D01*
X90479379Y-60518683D01*
X90476986Y-60518437D01*
G36*
X89771062Y-60793387D02*
G01*
X89768456Y-60792940D01*
X89763687Y-60792545D01*
X89756522Y-60792199D01*
X89746731Y-60791899D01*
X89734082Y-60791642D01*
X89718345Y-60791427D01*
X89699288Y-60791249D01*
X89676681Y-60791107D01*
X89650291Y-60790997D01*
X89619889Y-60790917D01*
X89585243Y-60790865D01*
X89546121Y-60790837D01*
X89511266Y-60790830D01*
X89249544Y-60790830D01*
X89158770Y-60926415D01*
X89143314Y-60949521D01*
X89128688Y-60971426D01*
X89115115Y-60991794D01*
X89102818Y-61010286D01*
X89092022Y-61026566D01*
X89082949Y-61040296D01*
X89075823Y-61051139D01*
X89070869Y-61058757D01*
X89068309Y-61062812D01*
X89067996Y-61063395D01*
X89070390Y-61063583D01*
X89077358Y-61063764D01*
X89088586Y-61063936D01*
X89103756Y-61064097D01*
X89122552Y-61064245D01*
X89144656Y-61064379D01*
X89169753Y-61064497D01*
X89197526Y-61064598D01*
X89227658Y-61064679D01*
X89259832Y-61064739D01*
X89293732Y-61064777D01*
X89329041Y-61064790D01*
X89591324Y-61064790D01*
X89680902Y-60930868D01*
X89696288Y-60907847D01*
X89710877Y-60885986D01*
X89724439Y-60865630D01*
X89736745Y-60847124D01*
X89747565Y-60830815D01*
X89756672Y-60817047D01*
X89763836Y-60806165D01*
X89768828Y-60798515D01*
X89771419Y-60794443D01*
X89771734Y-60793888D01*
X89771062Y-60793387D01*
G37*
X89771062Y-60793387D02*
X89768456Y-60792940D01*
X89763687Y-60792545D01*
X89756522Y-60792199D01*
X89746731Y-60791899D01*
X89734082Y-60791642D01*
X89718345Y-60791427D01*
X89699288Y-60791249D01*
X89676681Y-60791107D01*
X89650291Y-60790997D01*
X89619889Y-60790917D01*
X89585243Y-60790865D01*
X89546121Y-60790837D01*
X89511266Y-60790830D01*
X89249544Y-60790830D01*
X89158770Y-60926415D01*
X89143314Y-60949521D01*
X89128688Y-60971426D01*
X89115115Y-60991794D01*
X89102818Y-61010286D01*
X89092022Y-61026566D01*
X89082949Y-61040296D01*
X89075823Y-61051139D01*
X89070869Y-61058757D01*
X89068309Y-61062812D01*
X89067996Y-61063395D01*
X89070390Y-61063583D01*
X89077358Y-61063764D01*
X89088586Y-61063936D01*
X89103756Y-61064097D01*
X89122552Y-61064245D01*
X89144656Y-61064379D01*
X89169753Y-61064497D01*
X89197526Y-61064598D01*
X89227658Y-61064679D01*
X89259832Y-61064739D01*
X89293732Y-61064777D01*
X89329041Y-61064790D01*
X89591324Y-61064790D01*
X89680902Y-60930868D01*
X89696288Y-60907847D01*
X89710877Y-60885986D01*
X89724439Y-60865630D01*
X89736745Y-60847124D01*
X89747565Y-60830815D01*
X89756672Y-60817047D01*
X89763836Y-60806165D01*
X89768828Y-60798515D01*
X89771419Y-60794443D01*
X89771734Y-60793888D01*
X89771062Y-60793387D01*
G36*
X90477704Y-61284660D02*
G01*
X90472587Y-61284260D01*
X90463893Y-61283915D01*
X90451486Y-61283625D01*
X90435230Y-61283387D01*
X90414988Y-61283203D01*
X90390626Y-61283069D01*
X90362006Y-61282985D01*
X90328994Y-61282951D01*
X90291453Y-61282964D01*
X90249247Y-61283025D01*
X90218261Y-61283091D01*
X89957143Y-61283714D01*
X89774413Y-61556450D01*
X89249028Y-61556450D01*
X89158512Y-61692191D01*
X89143101Y-61715320D01*
X89128517Y-61737244D01*
X89114982Y-61757624D01*
X89102721Y-61776125D01*
X89091955Y-61792407D01*
X89082908Y-61806134D01*
X89075803Y-61816968D01*
X89070862Y-61824573D01*
X89068309Y-61828610D01*
X89067996Y-61829182D01*
X89070390Y-61829345D01*
X89077359Y-61829490D01*
X89088588Y-61829617D01*
X89103760Y-61829725D01*
X89122560Y-61829814D01*
X89144671Y-61829881D01*
X89169776Y-61829928D01*
X89197560Y-61829952D01*
X89227707Y-61829953D01*
X89259899Y-61829931D01*
X89293822Y-61829884D01*
X89329158Y-61829813D01*
X89330337Y-61829810D01*
X89592679Y-61829187D01*
X89683872Y-61692819D01*
X89775066Y-61556450D01*
X90037330Y-61556410D01*
X90299593Y-61556369D01*
X90389486Y-61422066D01*
X90404874Y-61399037D01*
X90419431Y-61377176D01*
X90432931Y-61356827D01*
X90445148Y-61338333D01*
X90455859Y-61322036D01*
X90464838Y-61308280D01*
X90471859Y-61297408D01*
X90476698Y-61289762D01*
X90479130Y-61285686D01*
X90479379Y-61285116D01*
X90477704Y-61284660D01*
G37*
X90477704Y-61284660D02*
X90472587Y-61284260D01*
X90463893Y-61283915D01*
X90451486Y-61283625D01*
X90435230Y-61283387D01*
X90414988Y-61283203D01*
X90390626Y-61283069D01*
X90362006Y-61282985D01*
X90328994Y-61282951D01*
X90291453Y-61282964D01*
X90249247Y-61283025D01*
X90218261Y-61283091D01*
X89957143Y-61283714D01*
X89774413Y-61556450D01*
X89249028Y-61556450D01*
X89158512Y-61692191D01*
X89143101Y-61715320D01*
X89128517Y-61737244D01*
X89114982Y-61757624D01*
X89102721Y-61776125D01*
X89091955Y-61792407D01*
X89082908Y-61806134D01*
X89075803Y-61816968D01*
X89070862Y-61824573D01*
X89068309Y-61828610D01*
X89067996Y-61829182D01*
X89070390Y-61829345D01*
X89077359Y-61829490D01*
X89088588Y-61829617D01*
X89103760Y-61829725D01*
X89122560Y-61829814D01*
X89144671Y-61829881D01*
X89169776Y-61829928D01*
X89197560Y-61829952D01*
X89227707Y-61829953D01*
X89259899Y-61829931D01*
X89293822Y-61829884D01*
X89329158Y-61829813D01*
X89330337Y-61829810D01*
X89592679Y-61829187D01*
X89683872Y-61692819D01*
X89775066Y-61556450D01*
X90037330Y-61556410D01*
X90299593Y-61556369D01*
X90389486Y-61422066D01*
X90404874Y-61399037D01*
X90419431Y-61377176D01*
X90432931Y-61356827D01*
X90445148Y-61338333D01*
X90455859Y-61322036D01*
X90464838Y-61308280D01*
X90471859Y-61297408D01*
X90476698Y-61289762D01*
X90479130Y-61285686D01*
X90479379Y-61285116D01*
X90477704Y-61284660D01*
G36*
X88803801Y-58440986D02*
G01*
X88803725Y-58413063D01*
X88803567Y-58389142D01*
X88803302Y-58368777D01*
X88802906Y-58351522D01*
X88802352Y-58336932D01*
X88801616Y-58324561D01*
X88800673Y-58313965D01*
X88799497Y-58304698D01*
X88798064Y-58296314D01*
X88796347Y-58288367D01*
X88794323Y-58280414D01*
X88792565Y-58274097D01*
X88780886Y-58241380D01*
X88765532Y-58211733D01*
X88746754Y-58185312D01*
X88724804Y-58162269D01*
X88699934Y-58142758D01*
X88672394Y-58126933D01*
X88642437Y-58114948D01*
X88610315Y-58106957D01*
X88576279Y-58103113D01*
X88540580Y-58103570D01*
X88517630Y-58106095D01*
X88480465Y-58113696D01*
X88446137Y-58125123D01*
X88414795Y-58140252D01*
X88386582Y-58158958D01*
X88361646Y-58181118D01*
X88340131Y-58206609D01*
X88322184Y-58235306D01*
X88307950Y-58267085D01*
X88300395Y-58290655D01*
X88293966Y-58314183D01*
X88293157Y-58464005D01*
X88292349Y-58613827D01*
X88751658Y-58613827D01*
X88751658Y-58562460D01*
X88341208Y-58562460D01*
X88342139Y-58448106D01*
X88342366Y-58421315D01*
X88342590Y-58398922D01*
X88342833Y-58380434D01*
X88343119Y-58365359D01*
X88343470Y-58353201D01*
X88343910Y-58343468D01*
X88344462Y-58335667D01*
X88345150Y-58329303D01*
X88345997Y-58323884D01*
X88347026Y-58318916D01*
X88348260Y-58313905D01*
X88348505Y-58312960D01*
X88358742Y-58282775D01*
X88372858Y-58255335D01*
X88390646Y-58230892D01*
X88411899Y-58209699D01*
X88436409Y-58192009D01*
X88456483Y-58181340D01*
X88486405Y-58169905D01*
X88517086Y-58162595D01*
X88547965Y-58159366D01*
X88578483Y-58160171D01*
X88608080Y-58164966D01*
X88636194Y-58173706D01*
X88662267Y-58186344D01*
X88681709Y-58199567D01*
X88698646Y-58215473D01*
X88714221Y-58235137D01*
X88727762Y-58257476D01*
X88738596Y-58281404D01*
X88745008Y-58301535D01*
X88747467Y-58312009D01*
X88749483Y-58322758D01*
X88751084Y-58334328D01*
X88752295Y-58347263D01*
X88753146Y-58362109D01*
X88753663Y-58379412D01*
X88753874Y-58399715D01*
X88753805Y-58423564D01*
X88753485Y-58451504D01*
X88753260Y-58465922D01*
X88751658Y-58562460D01*
X88751658Y-58613827D01*
X88803821Y-58613827D01*
X88803821Y-58473355D01*
X88803801Y-58440986D01*
G37*
X88803801Y-58440986D02*
X88803725Y-58413063D01*
X88803567Y-58389142D01*
X88803302Y-58368777D01*
X88802906Y-58351522D01*
X88802352Y-58336932D01*
X88801616Y-58324561D01*
X88800673Y-58313965D01*
X88799497Y-58304698D01*
X88798064Y-58296314D01*
X88796347Y-58288367D01*
X88794323Y-58280414D01*
X88792565Y-58274097D01*
X88780886Y-58241380D01*
X88765532Y-58211733D01*
X88746754Y-58185312D01*
X88724804Y-58162269D01*
X88699934Y-58142758D01*
X88672394Y-58126933D01*
X88642437Y-58114948D01*
X88610315Y-58106957D01*
X88576279Y-58103113D01*
X88540580Y-58103570D01*
X88517630Y-58106095D01*
X88480465Y-58113696D01*
X88446137Y-58125123D01*
X88414795Y-58140252D01*
X88386582Y-58158958D01*
X88361646Y-58181118D01*
X88340131Y-58206609D01*
X88322184Y-58235306D01*
X88307950Y-58267085D01*
X88300395Y-58290655D01*
X88293966Y-58314183D01*
X88293157Y-58464005D01*
X88292349Y-58613827D01*
X88751658Y-58613827D01*
X88751658Y-58562460D01*
X88341208Y-58562460D01*
X88342139Y-58448106D01*
X88342366Y-58421315D01*
X88342590Y-58398922D01*
X88342833Y-58380434D01*
X88343119Y-58365359D01*
X88343470Y-58353201D01*
X88343910Y-58343468D01*
X88344462Y-58335667D01*
X88345150Y-58329303D01*
X88345997Y-58323884D01*
X88347026Y-58318916D01*
X88348260Y-58313905D01*
X88348505Y-58312960D01*
X88358742Y-58282775D01*
X88372858Y-58255335D01*
X88390646Y-58230892D01*
X88411899Y-58209699D01*
X88436409Y-58192009D01*
X88456483Y-58181340D01*
X88486405Y-58169905D01*
X88517086Y-58162595D01*
X88547965Y-58159366D01*
X88578483Y-58160171D01*
X88608080Y-58164966D01*
X88636194Y-58173706D01*
X88662267Y-58186344D01*
X88681709Y-58199567D01*
X88698646Y-58215473D01*
X88714221Y-58235137D01*
X88727762Y-58257476D01*
X88738596Y-58281404D01*
X88745008Y-58301535D01*
X88747467Y-58312009D01*
X88749483Y-58322758D01*
X88751084Y-58334328D01*
X88752295Y-58347263D01*
X88753146Y-58362109D01*
X88753663Y-58379412D01*
X88753874Y-58399715D01*
X88753805Y-58423564D01*
X88753485Y-58451504D01*
X88753260Y-58465922D01*
X88751658Y-58562460D01*
X88751658Y-58613827D01*
X88803821Y-58613827D01*
X88803821Y-58473355D01*
X88803801Y-58440986D01*
G36*
X88778748Y-58934788D02*
G01*
X88753676Y-58935485D01*
X88753051Y-59137898D01*
X88752425Y-59340310D01*
X88581228Y-59340310D01*
X88581228Y-58997860D01*
X88529861Y-58997860D01*
X88529861Y-59340310D01*
X88343987Y-59340310D01*
X88343362Y-59130560D01*
X88342736Y-58920809D01*
X88292592Y-58919415D01*
X88292592Y-59391678D01*
X88803821Y-59391678D01*
X88803821Y-58934091D01*
X88778748Y-58934788D01*
G37*
X88778748Y-58934788D02*
X88753676Y-58935485D01*
X88753051Y-59137898D01*
X88752425Y-59340310D01*
X88581228Y-59340310D01*
X88581228Y-58997860D01*
X88529861Y-58997860D01*
X88529861Y-59340310D01*
X88343987Y-59340310D01*
X88343362Y-59130560D01*
X88342736Y-58920809D01*
X88292592Y-58919415D01*
X88292592Y-59391678D01*
X88803821Y-59391678D01*
X88803821Y-58934091D01*
X88778748Y-58934788D01*
G36*
X88808168Y-60805852D02*
G01*
X88807490Y-60772781D01*
X88551875Y-60646180D01*
X88518756Y-60629784D01*
X88486856Y-60614003D01*
X88456447Y-60598973D01*
X88427806Y-60584829D01*
X88401205Y-60571706D01*
X88376920Y-60559739D01*
X88355224Y-60549063D01*
X88336392Y-60539812D01*
X88320698Y-60532123D01*
X88308416Y-60526129D01*
X88299820Y-60521967D01*
X88295185Y-60519770D01*
X88294426Y-60519448D01*
X88293698Y-60521677D01*
X88293106Y-60527827D01*
X88292716Y-60536930D01*
X88292592Y-60546862D01*
X88292592Y-60574407D01*
X88380650Y-60618382D01*
X88468709Y-60662357D01*
X88468709Y-60948656D01*
X88380650Y-60992631D01*
X88292592Y-61036606D01*
X88292592Y-61064151D01*
X88292729Y-61075102D01*
X88293101Y-61083989D01*
X88293649Y-61089838D01*
X88294244Y-61091697D01*
X88296627Y-61090636D01*
X88303087Y-61087551D01*
X88313317Y-61082595D01*
X88327012Y-61075916D01*
X88343866Y-61067666D01*
X88363572Y-61057993D01*
X88385825Y-61047050D01*
X88410317Y-61034986D01*
X88436744Y-61021951D01*
X88464798Y-61008096D01*
X88494174Y-60993570D01*
X88501548Y-60989921D01*
X88520923Y-60980337D01*
X88520923Y-60922918D01*
X88520754Y-60920551D01*
X88520596Y-60913764D01*
X88520453Y-60903031D01*
X88520328Y-60888825D01*
X88520224Y-60871618D01*
X88520145Y-60851884D01*
X88520095Y-60830095D01*
X88520077Y-60806723D01*
X88520076Y-60805614D01*
X88520076Y-60688310D01*
X88557379Y-60706273D01*
X88583743Y-60719014D01*
X88609514Y-60731557D01*
X88634327Y-60743718D01*
X88657815Y-60755313D01*
X88679614Y-60766158D01*
X88699358Y-60776069D01*
X88716681Y-60784863D01*
X88731220Y-60792356D01*
X88742607Y-60798363D01*
X88750478Y-60802702D01*
X88754468Y-60805187D01*
X88754899Y-60805650D01*
X88752787Y-60807008D01*
X88746778Y-60810284D01*
X88737362Y-60815231D01*
X88725029Y-60821605D01*
X88710272Y-60829158D01*
X88693579Y-60837645D01*
X88675442Y-60846820D01*
X88656351Y-60856438D01*
X88636796Y-60866251D01*
X88617269Y-60876016D01*
X88598260Y-60885485D01*
X88580260Y-60894413D01*
X88563758Y-60902553D01*
X88549246Y-60909661D01*
X88537213Y-60915490D01*
X88528152Y-60919794D01*
X88522552Y-60922328D01*
X88520923Y-60922918D01*
X88520923Y-60980337D01*
X88532551Y-60974585D01*
X88563257Y-60959406D01*
X88593257Y-60944587D01*
X88622139Y-60930331D01*
X88649491Y-60916840D01*
X88674903Y-60904318D01*
X88697964Y-60892966D01*
X88718261Y-60882988D01*
X88735385Y-60874586D01*
X88748923Y-60867963D01*
X88758023Y-60863535D01*
X88808846Y-60838924D01*
X88808168Y-60805852D01*
G37*
X88808168Y-60805852D02*
X88807490Y-60772781D01*
X88551875Y-60646180D01*
X88518756Y-60629784D01*
X88486856Y-60614003D01*
X88456447Y-60598973D01*
X88427806Y-60584829D01*
X88401205Y-60571706D01*
X88376920Y-60559739D01*
X88355224Y-60549063D01*
X88336392Y-60539812D01*
X88320698Y-60532123D01*
X88308416Y-60526129D01*
X88299820Y-60521967D01*
X88295185Y-60519770D01*
X88294426Y-60519448D01*
X88293698Y-60521677D01*
X88293106Y-60527827D01*
X88292716Y-60536930D01*
X88292592Y-60546862D01*
X88292592Y-60574407D01*
X88380650Y-60618382D01*
X88468709Y-60662357D01*
X88468709Y-60948656D01*
X88380650Y-60992631D01*
X88292592Y-61036606D01*
X88292592Y-61064151D01*
X88292729Y-61075102D01*
X88293101Y-61083989D01*
X88293649Y-61089838D01*
X88294244Y-61091697D01*
X88296627Y-61090636D01*
X88303087Y-61087551D01*
X88313317Y-61082595D01*
X88327012Y-61075916D01*
X88343866Y-61067666D01*
X88363572Y-61057993D01*
X88385825Y-61047050D01*
X88410317Y-61034986D01*
X88436744Y-61021951D01*
X88464798Y-61008096D01*
X88494174Y-60993570D01*
X88501548Y-60989921D01*
X88520923Y-60980337D01*
X88520923Y-60922918D01*
X88520754Y-60920551D01*
X88520596Y-60913764D01*
X88520453Y-60903031D01*
X88520328Y-60888825D01*
X88520224Y-60871618D01*
X88520145Y-60851884D01*
X88520095Y-60830095D01*
X88520077Y-60806723D01*
X88520076Y-60805614D01*
X88520076Y-60688310D01*
X88557379Y-60706273D01*
X88583743Y-60719014D01*
X88609514Y-60731557D01*
X88634327Y-60743718D01*
X88657815Y-60755313D01*
X88679614Y-60766158D01*
X88699358Y-60776069D01*
X88716681Y-60784863D01*
X88731220Y-60792356D01*
X88742607Y-60798363D01*
X88750478Y-60802702D01*
X88754468Y-60805187D01*
X88754899Y-60805650D01*
X88752787Y-60807008D01*
X88746778Y-60810284D01*
X88737362Y-60815231D01*
X88725029Y-60821605D01*
X88710272Y-60829158D01*
X88693579Y-60837645D01*
X88675442Y-60846820D01*
X88656351Y-60856438D01*
X88636796Y-60866251D01*
X88617269Y-60876016D01*
X88598260Y-60885485D01*
X88580260Y-60894413D01*
X88563758Y-60902553D01*
X88549246Y-60909661D01*
X88537213Y-60915490D01*
X88528152Y-60919794D01*
X88522552Y-60922328D01*
X88520923Y-60922918D01*
X88520923Y-60980337D01*
X88532551Y-60974585D01*
X88563257Y-60959406D01*
X88593257Y-60944587D01*
X88622139Y-60930331D01*
X88649491Y-60916840D01*
X88674903Y-60904318D01*
X88697964Y-60892966D01*
X88718261Y-60882988D01*
X88735385Y-60874586D01*
X88748923Y-60867963D01*
X88758023Y-60863535D01*
X88808846Y-60838924D01*
X88808168Y-60805852D01*
G36*
X88803187Y-64137667D02*
G01*
X88803021Y-64103095D01*
X88802856Y-64073064D01*
X88802683Y-64047221D01*
X88802491Y-64025215D01*
X88802273Y-64006694D01*
X88802019Y-63991306D01*
X88801719Y-63978700D01*
X88801364Y-63968523D01*
X88800946Y-63960424D01*
X88800454Y-63954051D01*
X88799880Y-63949052D01*
X88799214Y-63945076D01*
X88798447Y-63941771D01*
X88797989Y-63940146D01*
X88788430Y-63914752D01*
X88776007Y-63893100D01*
X88760837Y-63875311D01*
X88743035Y-63861509D01*
X88722718Y-63851818D01*
X88711161Y-63848435D01*
X88697166Y-63846532D01*
X88680696Y-63846432D01*
X88663766Y-63847996D01*
X88648391Y-63851085D01*
X88641786Y-63853207D01*
X88624966Y-63861618D01*
X88608384Y-63873584D01*
X88593538Y-63887936D01*
X88586932Y-63896047D01*
X88575534Y-63911447D01*
X88569209Y-63898955D01*
X88564465Y-63891328D01*
X88557427Y-63882056D01*
X88549394Y-63872814D01*
X88546983Y-63870298D01*
X88529139Y-63854952D01*
X88509822Y-63843932D01*
X88488469Y-63837012D01*
X88464518Y-63833965D01*
X88456258Y-63833771D01*
X88428917Y-63836000D01*
X88402730Y-63842536D01*
X88378219Y-63853042D01*
X88355905Y-63867179D01*
X88336310Y-63884609D01*
X88319955Y-63904993D01*
X88307361Y-63927995D01*
X88305976Y-63931285D01*
X88303492Y-63937524D01*
X88301335Y-63943422D01*
X88299483Y-63949361D01*
X88297913Y-63955722D01*
X88296601Y-63962887D01*
X88295525Y-63971238D01*
X88294660Y-63981157D01*
X88293984Y-63993026D01*
X88293474Y-64007227D01*
X88293106Y-64024140D01*
X88292858Y-64044149D01*
X88292705Y-64067636D01*
X88292626Y-64094981D01*
X88292596Y-64126566D01*
X88292592Y-64151629D01*
X88292592Y-64320511D01*
X88341513Y-64320511D01*
X88341513Y-64269143D01*
X88341542Y-64131552D01*
X88341574Y-64100187D01*
X88341661Y-64073366D01*
X88341810Y-64050738D01*
X88342029Y-64031955D01*
X88342326Y-64016669D01*
X88342708Y-64004529D01*
X88343183Y-63995187D01*
X88343759Y-63988294D01*
X88344444Y-63983501D01*
X88344843Y-63981730D01*
X88353182Y-63959320D01*
X88365234Y-63939642D01*
X88380540Y-63923055D01*
X88398641Y-63909922D01*
X88419075Y-63900603D01*
X88441384Y-63895459D01*
X88455886Y-63894526D01*
X88466947Y-63894719D01*
X88475097Y-63895648D01*
X88482311Y-63897728D01*
X88490559Y-63901372D01*
X88492132Y-63902141D01*
X88507493Y-63911929D01*
X88519836Y-63924847D01*
X88529414Y-63941269D01*
X88536482Y-63961569D01*
X88538519Y-63970168D01*
X88539296Y-63974745D01*
X88539956Y-63980823D01*
X88540508Y-63988778D01*
X88540959Y-63998989D01*
X88541320Y-64011834D01*
X88541598Y-64027691D01*
X88541801Y-64046938D01*
X88541938Y-64069953D01*
X88542018Y-64097115D01*
X88542049Y-64127882D01*
X88542091Y-64269143D01*
X88341513Y-64269143D01*
X88341513Y-64320511D01*
X88751668Y-64320511D01*
X88751668Y-64269143D01*
X88593459Y-64269143D01*
X88593459Y-64131274D01*
X88593504Y-64101348D01*
X88593636Y-64073886D01*
X88593849Y-64049236D01*
X88594138Y-64027741D01*
X88594496Y-64009751D01*
X88594919Y-63995609D01*
X88595400Y-63985664D01*
X88595933Y-63980260D01*
X88595939Y-63980229D01*
X88602156Y-63959718D01*
X88612453Y-63941209D01*
X88626318Y-63925413D01*
X88643235Y-63913042D01*
X88645264Y-63911919D01*
X88654272Y-63907423D01*
X88661677Y-63904909D01*
X88669732Y-63903823D01*
X88679071Y-63903609D01*
X88689679Y-63903910D01*
X88697518Y-63905143D01*
X88704690Y-63907791D01*
X88710575Y-63910816D01*
X88724892Y-63921198D01*
X88736262Y-63935110D01*
X88744785Y-63952729D01*
X88750558Y-63974229D01*
X88752356Y-63985778D01*
X88753164Y-63995194D01*
X88753815Y-64008964D01*
X88754307Y-64026549D01*
X88754638Y-64047414D01*
X88754805Y-64071021D01*
X88754807Y-64096834D01*
X88754641Y-64124315D01*
X88754305Y-64152929D01*
X88753796Y-64182137D01*
X88753279Y-64204934D01*
X88751668Y-64269143D01*
X88751668Y-64320511D01*
X88804025Y-64320511D01*
X88803187Y-64137667D01*
G37*
X88803187Y-64137667D02*
X88803021Y-64103095D01*
X88802856Y-64073064D01*
X88802683Y-64047221D01*
X88802491Y-64025215D01*
X88802273Y-64006694D01*
X88802019Y-63991306D01*
X88801719Y-63978700D01*
X88801364Y-63968523D01*
X88800946Y-63960424D01*
X88800454Y-63954051D01*
X88799880Y-63949052D01*
X88799214Y-63945076D01*
X88798447Y-63941771D01*
X88797989Y-63940146D01*
X88788430Y-63914752D01*
X88776007Y-63893100D01*
X88760837Y-63875311D01*
X88743035Y-63861509D01*
X88722718Y-63851818D01*
X88711161Y-63848435D01*
X88697166Y-63846532D01*
X88680696Y-63846432D01*
X88663766Y-63847996D01*
X88648391Y-63851085D01*
X88641786Y-63853207D01*
X88624966Y-63861618D01*
X88608384Y-63873584D01*
X88593538Y-63887936D01*
X88586932Y-63896047D01*
X88575534Y-63911447D01*
X88569209Y-63898955D01*
X88564465Y-63891328D01*
X88557427Y-63882056D01*
X88549394Y-63872814D01*
X88546983Y-63870298D01*
X88529139Y-63854952D01*
X88509822Y-63843932D01*
X88488469Y-63837012D01*
X88464518Y-63833965D01*
X88456258Y-63833771D01*
X88428917Y-63836000D01*
X88402730Y-63842536D01*
X88378219Y-63853042D01*
X88355905Y-63867179D01*
X88336310Y-63884609D01*
X88319955Y-63904993D01*
X88307361Y-63927995D01*
X88305976Y-63931285D01*
X88303492Y-63937524D01*
X88301335Y-63943422D01*
X88299483Y-63949361D01*
X88297913Y-63955722D01*
X88296601Y-63962887D01*
X88295525Y-63971238D01*
X88294660Y-63981157D01*
X88293984Y-63993026D01*
X88293474Y-64007227D01*
X88293106Y-64024140D01*
X88292858Y-64044149D01*
X88292705Y-64067636D01*
X88292626Y-64094981D01*
X88292596Y-64126566D01*
X88292592Y-64151629D01*
X88292592Y-64320511D01*
X88341513Y-64320511D01*
X88341513Y-64269143D01*
X88341542Y-64131552D01*
X88341574Y-64100187D01*
X88341661Y-64073366D01*
X88341810Y-64050738D01*
X88342029Y-64031955D01*
X88342326Y-64016669D01*
X88342708Y-64004529D01*
X88343183Y-63995187D01*
X88343759Y-63988294D01*
X88344444Y-63983501D01*
X88344843Y-63981730D01*
X88353182Y-63959320D01*
X88365234Y-63939642D01*
X88380540Y-63923055D01*
X88398641Y-63909922D01*
X88419075Y-63900603D01*
X88441384Y-63895459D01*
X88455886Y-63894526D01*
X88466947Y-63894719D01*
X88475097Y-63895648D01*
X88482311Y-63897728D01*
X88490559Y-63901372D01*
X88492132Y-63902141D01*
X88507493Y-63911929D01*
X88519836Y-63924847D01*
X88529414Y-63941269D01*
X88536482Y-63961569D01*
X88538519Y-63970168D01*
X88539296Y-63974745D01*
X88539956Y-63980823D01*
X88540508Y-63988778D01*
X88540959Y-63998989D01*
X88541320Y-64011834D01*
X88541598Y-64027691D01*
X88541801Y-64046938D01*
X88541938Y-64069953D01*
X88542018Y-64097115D01*
X88542049Y-64127882D01*
X88542091Y-64269143D01*
X88341513Y-64269143D01*
X88341513Y-64320511D01*
X88751668Y-64320511D01*
X88751668Y-64269143D01*
X88593459Y-64269143D01*
X88593459Y-64131274D01*
X88593504Y-64101348D01*
X88593636Y-64073886D01*
X88593849Y-64049236D01*
X88594138Y-64027741D01*
X88594496Y-64009751D01*
X88594919Y-63995609D01*
X88595400Y-63985664D01*
X88595933Y-63980260D01*
X88595939Y-63980229D01*
X88602156Y-63959718D01*
X88612453Y-63941209D01*
X88626318Y-63925413D01*
X88643235Y-63913042D01*
X88645264Y-63911919D01*
X88654272Y-63907423D01*
X88661677Y-63904909D01*
X88669732Y-63903823D01*
X88679071Y-63903609D01*
X88689679Y-63903910D01*
X88697518Y-63905143D01*
X88704690Y-63907791D01*
X88710575Y-63910816D01*
X88724892Y-63921198D01*
X88736262Y-63935110D01*
X88744785Y-63952729D01*
X88750558Y-63974229D01*
X88752356Y-63985778D01*
X88753164Y-63995194D01*
X88753815Y-64008964D01*
X88754307Y-64026549D01*
X88754638Y-64047414D01*
X88754805Y-64071021D01*
X88754807Y-64096834D01*
X88754641Y-64124315D01*
X88754305Y-64152929D01*
X88753796Y-64182137D01*
X88753279Y-64204934D01*
X88751668Y-64269143D01*
X88751668Y-64320511D01*
X88804025Y-64320511D01*
X88803187Y-64137667D01*
G36*
X88803806Y-60062513D02*
G01*
X88803784Y-60027441D01*
X88803720Y-59996909D01*
X88803608Y-59970563D01*
X88803440Y-59948051D01*
X88803211Y-59929018D01*
X88802915Y-59913114D01*
X88802544Y-59899983D01*
X88802092Y-59889275D01*
X88801554Y-59880635D01*
X88800922Y-59873710D01*
X88800268Y-59868662D01*
X88794242Y-59838555D01*
X88785801Y-59812369D01*
X88774753Y-59789665D01*
X88760903Y-59770006D01*
X88752544Y-59760856D01*
X88734919Y-59745861D01*
X88715729Y-59734985D01*
X88694395Y-59728005D01*
X88670334Y-59724695D01*
X88658279Y-59724343D01*
X88646140Y-59724785D01*
X88633835Y-59725957D01*
X88623618Y-59727629D01*
X88621716Y-59728082D01*
X88598354Y-59736653D01*
X88576849Y-59749555D01*
X88557594Y-59766453D01*
X88540977Y-59787012D01*
X88528829Y-59807902D01*
X88522965Y-59821010D01*
X88517547Y-59835292D01*
X88512976Y-59849470D01*
X88509651Y-59862265D01*
X88507971Y-59872398D01*
X88507846Y-59875024D01*
X88506865Y-59880060D01*
X88505356Y-59882142D01*
X88502102Y-59882090D01*
X88495021Y-59880770D01*
X88484946Y-59878407D01*
X88472710Y-59875226D01*
X88459143Y-59871452D01*
X88445079Y-59867310D01*
X88431350Y-59863026D01*
X88418787Y-59858823D01*
X88417642Y-59858421D01*
X88393600Y-59849046D01*
X88374096Y-59839358D01*
X88358773Y-59829061D01*
X88347278Y-59817857D01*
X88339255Y-59805448D01*
X88334348Y-59791537D01*
X88333608Y-59788009D01*
X88332644Y-59773550D01*
X88334373Y-59755502D01*
X88338741Y-59734325D01*
X88340566Y-59727401D01*
X88341077Y-59724908D01*
X88340397Y-59723312D01*
X88337689Y-59722411D01*
X88332119Y-59722007D01*
X88322852Y-59721901D01*
X88317511Y-59721897D01*
X88292939Y-59721897D01*
X88289271Y-59734739D01*
X88284560Y-59754642D01*
X88281597Y-59774643D01*
X88280453Y-59793594D01*
X88281199Y-59810351D01*
X88283791Y-59823409D01*
X88290612Y-59839871D01*
X88300284Y-59854688D01*
X88313143Y-59868109D01*
X88329526Y-59880384D01*
X88349769Y-59891763D01*
X88374209Y-59902495D01*
X88403182Y-59912831D01*
X88405132Y-59913463D01*
X88420846Y-59918384D01*
X88438522Y-59923685D01*
X88455884Y-59928695D01*
X88469321Y-59932389D01*
X88500508Y-59940669D01*
X88500508Y-60181759D01*
X88292592Y-60181759D01*
X88292592Y-60233126D01*
X88751656Y-60233126D01*
X88751656Y-60181759D01*
X88546738Y-60181759D01*
X88547556Y-60033160D01*
X88547736Y-60002201D01*
X88547917Y-59975740D01*
X88548113Y-59953381D01*
X88548335Y-59934732D01*
X88548597Y-59919396D01*
X88548911Y-59906979D01*
X88549291Y-59897088D01*
X88549749Y-59889326D01*
X88550297Y-59883300D01*
X88550949Y-59878616D01*
X88551718Y-59874878D01*
X88552615Y-59871692D01*
X88552804Y-59871108D01*
X88562747Y-59847288D01*
X88575703Y-59827255D01*
X88591820Y-59810829D01*
X88611246Y-59797831D01*
X88615152Y-59795818D01*
X88624834Y-59791251D01*
X88632383Y-59788534D01*
X88639842Y-59787193D01*
X88649256Y-59786757D01*
X88654474Y-59786730D01*
X88672720Y-59787766D01*
X88687764Y-59791177D01*
X88700909Y-59797420D01*
X88713454Y-59806954D01*
X88714508Y-59807907D01*
X88728028Y-59823484D01*
X88738744Y-59842798D01*
X88746284Y-59864890D01*
X88748204Y-59873268D01*
X88749818Y-59882400D01*
X88751140Y-59892716D01*
X88752187Y-59904642D01*
X88752974Y-59918608D01*
X88753517Y-59935042D01*
X88753831Y-59954373D01*
X88753932Y-59977029D01*
X88753836Y-60003439D01*
X88753559Y-60034031D01*
X88753288Y-60056397D01*
X88751656Y-60181759D01*
X88751656Y-60233126D01*
X88803821Y-60233126D01*
X88803806Y-60062513D01*
G37*
X88803806Y-60062513D02*
X88803784Y-60027441D01*
X88803720Y-59996909D01*
X88803608Y-59970563D01*
X88803440Y-59948051D01*
X88803211Y-59929018D01*
X88802915Y-59913114D01*
X88802544Y-59899983D01*
X88802092Y-59889275D01*
X88801554Y-59880635D01*
X88800922Y-59873710D01*
X88800268Y-59868662D01*
X88794242Y-59838555D01*
X88785801Y-59812369D01*
X88774753Y-59789665D01*
X88760903Y-59770006D01*
X88752544Y-59760856D01*
X88734919Y-59745861D01*
X88715729Y-59734985D01*
X88694395Y-59728005D01*
X88670334Y-59724695D01*
X88658279Y-59724343D01*
X88646140Y-59724785D01*
X88633835Y-59725957D01*
X88623618Y-59727629D01*
X88621716Y-59728082D01*
X88598354Y-59736653D01*
X88576849Y-59749555D01*
X88557594Y-59766453D01*
X88540977Y-59787012D01*
X88528829Y-59807902D01*
X88522965Y-59821010D01*
X88517547Y-59835292D01*
X88512976Y-59849470D01*
X88509651Y-59862265D01*
X88507971Y-59872398D01*
X88507846Y-59875024D01*
X88506865Y-59880060D01*
X88505356Y-59882142D01*
X88502102Y-59882090D01*
X88495021Y-59880770D01*
X88484946Y-59878407D01*
X88472710Y-59875226D01*
X88459143Y-59871452D01*
X88445079Y-59867310D01*
X88431350Y-59863026D01*
X88418787Y-59858823D01*
X88417642Y-59858421D01*
X88393600Y-59849046D01*
X88374096Y-59839358D01*
X88358773Y-59829061D01*
X88347278Y-59817857D01*
X88339255Y-59805448D01*
X88334348Y-59791537D01*
X88333608Y-59788009D01*
X88332644Y-59773550D01*
X88334373Y-59755502D01*
X88338741Y-59734325D01*
X88340566Y-59727401D01*
X88341077Y-59724908D01*
X88340397Y-59723312D01*
X88337689Y-59722411D01*
X88332119Y-59722007D01*
X88322852Y-59721901D01*
X88317511Y-59721897D01*
X88292939Y-59721897D01*
X88289271Y-59734739D01*
X88284560Y-59754642D01*
X88281597Y-59774643D01*
X88280453Y-59793594D01*
X88281199Y-59810351D01*
X88283791Y-59823409D01*
X88290612Y-59839871D01*
X88300284Y-59854688D01*
X88313143Y-59868109D01*
X88329526Y-59880384D01*
X88349769Y-59891763D01*
X88374209Y-59902495D01*
X88403182Y-59912831D01*
X88405132Y-59913463D01*
X88420846Y-59918384D01*
X88438522Y-59923685D01*
X88455884Y-59928695D01*
X88469321Y-59932389D01*
X88500508Y-59940669D01*
X88500508Y-60181759D01*
X88292592Y-60181759D01*
X88292592Y-60233126D01*
X88751656Y-60233126D01*
X88751656Y-60181759D01*
X88546738Y-60181759D01*
X88547556Y-60033160D01*
X88547736Y-60002201D01*
X88547917Y-59975740D01*
X88548113Y-59953381D01*
X88548335Y-59934732D01*
X88548597Y-59919396D01*
X88548911Y-59906979D01*
X88549291Y-59897088D01*
X88549749Y-59889326D01*
X88550297Y-59883300D01*
X88550949Y-59878616D01*
X88551718Y-59874878D01*
X88552615Y-59871692D01*
X88552804Y-59871108D01*
X88562747Y-59847288D01*
X88575703Y-59827255D01*
X88591820Y-59810829D01*
X88611246Y-59797831D01*
X88615152Y-59795818D01*
X88624834Y-59791251D01*
X88632383Y-59788534D01*
X88639842Y-59787193D01*
X88649256Y-59786757D01*
X88654474Y-59786730D01*
X88672720Y-59787766D01*
X88687764Y-59791177D01*
X88700909Y-59797420D01*
X88713454Y-59806954D01*
X88714508Y-59807907D01*
X88728028Y-59823484D01*
X88738744Y-59842798D01*
X88746284Y-59864890D01*
X88748204Y-59873268D01*
X88749818Y-59882400D01*
X88751140Y-59892716D01*
X88752187Y-59904642D01*
X88752974Y-59918608D01*
X88753517Y-59935042D01*
X88753831Y-59954373D01*
X88753932Y-59977029D01*
X88753836Y-60003439D01*
X88753559Y-60034031D01*
X88753288Y-60056397D01*
X88751656Y-60181759D01*
X88751656Y-60233126D01*
X88803821Y-60233126D01*
X88803806Y-60062513D01*
G36*
X88629538Y-61817609D02*
G01*
X88595905Y-61817451D01*
X88566804Y-61817293D01*
X88541876Y-61817126D01*
X88520760Y-61816939D01*
X88503096Y-61816722D01*
X88488524Y-61816466D01*
X88476686Y-61816160D01*
X88467219Y-61815794D01*
X88459766Y-61815359D01*
X88453965Y-61814844D01*
X88449457Y-61814239D01*
X88445882Y-61813534D01*
X88442880Y-61812719D01*
X88441802Y-61812375D01*
X88415818Y-61801517D01*
X88393240Y-61787232D01*
X88374019Y-61769461D01*
X88358106Y-61748144D01*
X88345451Y-61723220D01*
X88336005Y-61694631D01*
X88332613Y-61679672D01*
X88329960Y-61661027D01*
X88328518Y-61639282D01*
X88328273Y-61616071D01*
X88329209Y-61593030D01*
X88331313Y-61571794D01*
X88333681Y-61557887D01*
X88341743Y-61529567D01*
X88353176Y-61504015D01*
X88367732Y-61481581D01*
X88385164Y-61462614D01*
X88405223Y-61447463D01*
X88416118Y-61441450D01*
X88422053Y-61438535D01*
X88427393Y-61436005D01*
X88432519Y-61433832D01*
X88437809Y-61431987D01*
X88443642Y-61430440D01*
X88450398Y-61429163D01*
X88458455Y-61428127D01*
X88468194Y-61427303D01*
X88479992Y-61426661D01*
X88494229Y-61426173D01*
X88511285Y-61425810D01*
X88531537Y-61425543D01*
X88555366Y-61425343D01*
X88583151Y-61425181D01*
X88615270Y-61425027D01*
X88631984Y-61424950D01*
X88803821Y-61424147D01*
X88803821Y-61372816D01*
X88623423Y-61373584D01*
X88589421Y-61373730D01*
X88559949Y-61373868D01*
X88534644Y-61374008D01*
X88513144Y-61374163D01*
X88495087Y-61374343D01*
X88480109Y-61374562D01*
X88467848Y-61374829D01*
X88457943Y-61375158D01*
X88450030Y-61375559D01*
X88443748Y-61376044D01*
X88438733Y-61376624D01*
X88434623Y-61377313D01*
X88431057Y-61378120D01*
X88427670Y-61379058D01*
X88424680Y-61379961D01*
X88395091Y-61391364D01*
X88368659Y-61406490D01*
X88345414Y-61425302D01*
X88325386Y-61447761D01*
X88308605Y-61473827D01*
X88295103Y-61503463D01*
X88284908Y-61536628D01*
X88279069Y-61566235D01*
X88277439Y-61580835D01*
X88276380Y-61598711D01*
X88275906Y-61618278D01*
X88276031Y-61637952D01*
X88276767Y-61656148D01*
X88278131Y-61671282D01*
X88278148Y-61671416D01*
X88282068Y-61693624D01*
X88287994Y-61716874D01*
X88295350Y-61739177D01*
X88303392Y-61758211D01*
X88319261Y-61785941D01*
X88338026Y-61809745D01*
X88359808Y-61829728D01*
X88384725Y-61845992D01*
X88412899Y-61858641D01*
X88424680Y-61862581D01*
X88428196Y-61863639D01*
X88431587Y-61864556D01*
X88435214Y-61865344D01*
X88439439Y-61866015D01*
X88444626Y-61866580D01*
X88451137Y-61867051D01*
X88459334Y-61867440D01*
X88469579Y-61867758D01*
X88482236Y-61868017D01*
X88497666Y-61868229D01*
X88516232Y-61868405D01*
X88538296Y-61868557D01*
X88564221Y-61868696D01*
X88594369Y-61868834D01*
X88623423Y-61868959D01*
X88803821Y-61869727D01*
X88803821Y-61818393D01*
X88629538Y-61817609D01*
G37*
X88629538Y-61817609D02*
X88595905Y-61817451D01*
X88566804Y-61817293D01*
X88541876Y-61817126D01*
X88520760Y-61816939D01*
X88503096Y-61816722D01*
X88488524Y-61816466D01*
X88476686Y-61816160D01*
X88467219Y-61815794D01*
X88459766Y-61815359D01*
X88453965Y-61814844D01*
X88449457Y-61814239D01*
X88445882Y-61813534D01*
X88442880Y-61812719D01*
X88441802Y-61812375D01*
X88415818Y-61801517D01*
X88393240Y-61787232D01*
X88374019Y-61769461D01*
X88358106Y-61748144D01*
X88345451Y-61723220D01*
X88336005Y-61694631D01*
X88332613Y-61679672D01*
X88329960Y-61661027D01*
X88328518Y-61639282D01*
X88328273Y-61616071D01*
X88329209Y-61593030D01*
X88331313Y-61571794D01*
X88333681Y-61557887D01*
X88341743Y-61529567D01*
X88353176Y-61504015D01*
X88367732Y-61481581D01*
X88385164Y-61462614D01*
X88405223Y-61447463D01*
X88416118Y-61441450D01*
X88422053Y-61438535D01*
X88427393Y-61436005D01*
X88432519Y-61433832D01*
X88437809Y-61431987D01*
X88443642Y-61430440D01*
X88450398Y-61429163D01*
X88458455Y-61428127D01*
X88468194Y-61427303D01*
X88479992Y-61426661D01*
X88494229Y-61426173D01*
X88511285Y-61425810D01*
X88531537Y-61425543D01*
X88555366Y-61425343D01*
X88583151Y-61425181D01*
X88615270Y-61425027D01*
X88631984Y-61424950D01*
X88803821Y-61424147D01*
X88803821Y-61372816D01*
X88623423Y-61373584D01*
X88589421Y-61373730D01*
X88559949Y-61373868D01*
X88534644Y-61374008D01*
X88513144Y-61374163D01*
X88495087Y-61374343D01*
X88480109Y-61374562D01*
X88467848Y-61374829D01*
X88457943Y-61375158D01*
X88450030Y-61375559D01*
X88443748Y-61376044D01*
X88438733Y-61376624D01*
X88434623Y-61377313D01*
X88431057Y-61378120D01*
X88427670Y-61379058D01*
X88424680Y-61379961D01*
X88395091Y-61391364D01*
X88368659Y-61406490D01*
X88345414Y-61425302D01*
X88325386Y-61447761D01*
X88308605Y-61473827D01*
X88295103Y-61503463D01*
X88284908Y-61536628D01*
X88279069Y-61566235D01*
X88277439Y-61580835D01*
X88276380Y-61598711D01*
X88275906Y-61618278D01*
X88276031Y-61637952D01*
X88276767Y-61656148D01*
X88278131Y-61671282D01*
X88278148Y-61671416D01*
X88282068Y-61693624D01*
X88287994Y-61716874D01*
X88295350Y-61739177D01*
X88303392Y-61758211D01*
X88319261Y-61785941D01*
X88338026Y-61809745D01*
X88359808Y-61829728D01*
X88384725Y-61845992D01*
X88412899Y-61858641D01*
X88424680Y-61862581D01*
X88428196Y-61863639D01*
X88431587Y-61864556D01*
X88435214Y-61865344D01*
X88439439Y-61866015D01*
X88444626Y-61866580D01*
X88451137Y-61867051D01*
X88459334Y-61867440D01*
X88469579Y-61867758D01*
X88482236Y-61868017D01*
X88497666Y-61868229D01*
X88516232Y-61868405D01*
X88538296Y-61868557D01*
X88564221Y-61868696D01*
X88594369Y-61868834D01*
X88623423Y-61868959D01*
X88803821Y-61869727D01*
X88803821Y-61818393D01*
X88629538Y-61817609D01*
G36*
X88819868Y-63258827D02*
G01*
X88819005Y-63237577D01*
X88817459Y-63218803D01*
X88815260Y-63203879D01*
X88806657Y-63168297D01*
X88795772Y-63136897D01*
X88782486Y-63109473D01*
X88766678Y-63085819D01*
X88748229Y-63065727D01*
X88727017Y-63048991D01*
X88724046Y-63047048D01*
X88715898Y-63042390D01*
X88706115Y-63037621D01*
X88695734Y-63033143D01*
X88685792Y-63029354D01*
X88677324Y-63026657D01*
X88671367Y-63025451D01*
X88669119Y-63025816D01*
X88667447Y-63028817D01*
X88664498Y-63035262D01*
X88660770Y-63044033D01*
X88658629Y-63049295D01*
X88654683Y-63059386D01*
X88652504Y-63065861D01*
X88651920Y-63069597D01*
X88652758Y-63071468D01*
X88654138Y-63072151D01*
X88676356Y-63081100D01*
X88695742Y-63093138D01*
X88713607Y-63109105D01*
X88716225Y-63111878D01*
X88733034Y-63133584D01*
X88746723Y-63158957D01*
X88757252Y-63187862D01*
X88764577Y-63220161D01*
X88768656Y-63255719D01*
X88769561Y-63284231D01*
X88768271Y-63319609D01*
X88764478Y-63351763D01*
X88758253Y-63380505D01*
X88749668Y-63405645D01*
X88738792Y-63426992D01*
X88725697Y-63444357D01*
X88710453Y-63457550D01*
X88703288Y-63461876D01*
X88693696Y-63466575D01*
X88685725Y-63469140D01*
X88676959Y-63470195D01*
X88670510Y-63470362D01*
X88655256Y-63469201D01*
X88643102Y-63465056D01*
X88632891Y-63457353D01*
X88624999Y-63447755D01*
X88619456Y-63438860D01*
X88614487Y-63428568D01*
X88609997Y-63416451D01*
X88605893Y-63402080D01*
X88602082Y-63385027D01*
X88598468Y-63364864D01*
X88594959Y-63341164D01*
X88591459Y-63313497D01*
X88587876Y-63281437D01*
X88587306Y-63276038D01*
X88583240Y-63239417D01*
X88579155Y-63207266D01*
X88574954Y-63179164D01*
X88570541Y-63154691D01*
X88565819Y-63133426D01*
X88560690Y-63114947D01*
X88555059Y-63098834D01*
X88548828Y-63084665D01*
X88541901Y-63072021D01*
X88539570Y-63068302D01*
X88525254Y-63049405D01*
X88509486Y-63035051D01*
X88491830Y-63024999D01*
X88471849Y-63019008D01*
X88449108Y-63016836D01*
X88446694Y-63016820D01*
X88420035Y-63019036D01*
X88395385Y-63025702D01*
X88372601Y-63036875D01*
X88351538Y-63052613D01*
X88347601Y-63056236D01*
X88329582Y-63075856D01*
X88314217Y-63098123D01*
X88301299Y-63123470D01*
X88290620Y-63152333D01*
X88281975Y-63185146D01*
X88278809Y-63200693D01*
X88277355Y-63211221D01*
X88276120Y-63225514D01*
X88275132Y-63242447D01*
X88274420Y-63260897D01*
X88274012Y-63279738D01*
X88273936Y-63297848D01*
X88274222Y-63314102D01*
X88274897Y-63327375D01*
X88275457Y-63333093D01*
X88281730Y-63370755D01*
X88290654Y-63405107D01*
X88302132Y-63435971D01*
X88316066Y-63463170D01*
X88332359Y-63486527D01*
X88350913Y-63505864D01*
X88371631Y-63521004D01*
X88381624Y-63526395D01*
X88392883Y-63531347D01*
X88404002Y-63535364D01*
X88413973Y-63538172D01*
X88421784Y-63539498D01*
X88426429Y-63539069D01*
X88426963Y-63538671D01*
X88428680Y-63535584D01*
X88431697Y-63529099D01*
X88435493Y-63520357D01*
X88437464Y-63515634D01*
X88446077Y-63494724D01*
X88429138Y-63489387D01*
X88407695Y-63480128D01*
X88388590Y-63466690D01*
X88371904Y-63449235D01*
X88357714Y-63427922D01*
X88346100Y-63402913D01*
X88337142Y-63374368D01*
X88330918Y-63342447D01*
X88327508Y-63307312D01*
X88326837Y-63281775D01*
X88328009Y-63245596D01*
X88331610Y-63213080D01*
X88337768Y-63183574D01*
X88346609Y-63156425D01*
X88354914Y-63137549D01*
X88367465Y-63116209D01*
X88382118Y-63098878D01*
X88398630Y-63085819D01*
X88406715Y-63081351D01*
X88414628Y-63077858D01*
X88421757Y-63075758D01*
X88429891Y-63074705D01*
X88440822Y-63074353D01*
X88443025Y-63074338D01*
X88456533Y-63074704D01*
X88466651Y-63076307D01*
X88474834Y-63079692D01*
X88482537Y-63085404D01*
X88488811Y-63091477D01*
X88495961Y-63099945D01*
X88502343Y-63110023D01*
X88508045Y-63122078D01*
X88513156Y-63136479D01*
X88517762Y-63153594D01*
X88521951Y-63173791D01*
X88525812Y-63197439D01*
X88529432Y-63224905D01*
X88532898Y-63256559D01*
X88536009Y-63289492D01*
X88539612Y-63326147D01*
X88543535Y-63358339D01*
X88547862Y-63386487D01*
X88552676Y-63411015D01*
X88558062Y-63432344D01*
X88564102Y-63450895D01*
X88570880Y-63467091D01*
X88571439Y-63468262D01*
X88583525Y-63489251D01*
X88597451Y-63505767D01*
X88613384Y-63517930D01*
X88631492Y-63525864D01*
X88651943Y-63529692D01*
X88655554Y-63529937D01*
X88680969Y-63529050D01*
X88704549Y-63523668D01*
X88726232Y-63513855D01*
X88745961Y-63499675D01*
X88763675Y-63481193D01*
X88779313Y-63458472D01*
X88792817Y-63431575D01*
X88804126Y-63400568D01*
X88813180Y-63365514D01*
X88814225Y-63360486D01*
X88816655Y-63344739D01*
X88818442Y-63325508D01*
X88819579Y-63303984D01*
X88820057Y-63281360D01*
X88819868Y-63258827D01*
G37*
X88819868Y-63258827D02*
X88819005Y-63237577D01*
X88817459Y-63218803D01*
X88815260Y-63203879D01*
X88806657Y-63168297D01*
X88795772Y-63136897D01*
X88782486Y-63109473D01*
X88766678Y-63085819D01*
X88748229Y-63065727D01*
X88727017Y-63048991D01*
X88724046Y-63047048D01*
X88715898Y-63042390D01*
X88706115Y-63037621D01*
X88695734Y-63033143D01*
X88685792Y-63029354D01*
X88677324Y-63026657D01*
X88671367Y-63025451D01*
X88669119Y-63025816D01*
X88667447Y-63028817D01*
X88664498Y-63035262D01*
X88660770Y-63044033D01*
X88658629Y-63049295D01*
X88654683Y-63059386D01*
X88652504Y-63065861D01*
X88651920Y-63069597D01*
X88652758Y-63071468D01*
X88654138Y-63072151D01*
X88676356Y-63081100D01*
X88695742Y-63093138D01*
X88713607Y-63109105D01*
X88716225Y-63111878D01*
X88733034Y-63133584D01*
X88746723Y-63158957D01*
X88757252Y-63187862D01*
X88764577Y-63220161D01*
X88768656Y-63255719D01*
X88769561Y-63284231D01*
X88768271Y-63319609D01*
X88764478Y-63351763D01*
X88758253Y-63380505D01*
X88749668Y-63405645D01*
X88738792Y-63426992D01*
X88725697Y-63444357D01*
X88710453Y-63457550D01*
X88703288Y-63461876D01*
X88693696Y-63466575D01*
X88685725Y-63469140D01*
X88676959Y-63470195D01*
X88670510Y-63470362D01*
X88655256Y-63469201D01*
X88643102Y-63465056D01*
X88632891Y-63457353D01*
X88624999Y-63447755D01*
X88619456Y-63438860D01*
X88614487Y-63428568D01*
X88609997Y-63416451D01*
X88605893Y-63402080D01*
X88602082Y-63385027D01*
X88598468Y-63364864D01*
X88594959Y-63341164D01*
X88591459Y-63313497D01*
X88587876Y-63281437D01*
X88587306Y-63276038D01*
X88583240Y-63239417D01*
X88579155Y-63207266D01*
X88574954Y-63179164D01*
X88570541Y-63154691D01*
X88565819Y-63133426D01*
X88560690Y-63114947D01*
X88555059Y-63098834D01*
X88548828Y-63084665D01*
X88541901Y-63072021D01*
X88539570Y-63068302D01*
X88525254Y-63049405D01*
X88509486Y-63035051D01*
X88491830Y-63024999D01*
X88471849Y-63019008D01*
X88449108Y-63016836D01*
X88446694Y-63016820D01*
X88420035Y-63019036D01*
X88395385Y-63025702D01*
X88372601Y-63036875D01*
X88351538Y-63052613D01*
X88347601Y-63056236D01*
X88329582Y-63075856D01*
X88314217Y-63098123D01*
X88301299Y-63123470D01*
X88290620Y-63152333D01*
X88281975Y-63185146D01*
X88278809Y-63200693D01*
X88277355Y-63211221D01*
X88276120Y-63225514D01*
X88275132Y-63242447D01*
X88274420Y-63260897D01*
X88274012Y-63279738D01*
X88273936Y-63297848D01*
X88274222Y-63314102D01*
X88274897Y-63327375D01*
X88275457Y-63333093D01*
X88281730Y-63370755D01*
X88290654Y-63405107D01*
X88302132Y-63435971D01*
X88316066Y-63463170D01*
X88332359Y-63486527D01*
X88350913Y-63505864D01*
X88371631Y-63521004D01*
X88381624Y-63526395D01*
X88392883Y-63531347D01*
X88404002Y-63535364D01*
X88413973Y-63538172D01*
X88421784Y-63539498D01*
X88426429Y-63539069D01*
X88426963Y-63538671D01*
X88428680Y-63535584D01*
X88431697Y-63529099D01*
X88435493Y-63520357D01*
X88437464Y-63515634D01*
X88446077Y-63494724D01*
X88429138Y-63489387D01*
X88407695Y-63480128D01*
X88388590Y-63466690D01*
X88371904Y-63449235D01*
X88357714Y-63427922D01*
X88346100Y-63402913D01*
X88337142Y-63374368D01*
X88330918Y-63342447D01*
X88327508Y-63307312D01*
X88326837Y-63281775D01*
X88328009Y-63245596D01*
X88331610Y-63213080D01*
X88337768Y-63183574D01*
X88346609Y-63156425D01*
X88354914Y-63137549D01*
X88367465Y-63116209D01*
X88382118Y-63098878D01*
X88398630Y-63085819D01*
X88406715Y-63081351D01*
X88414628Y-63077858D01*
X88421757Y-63075758D01*
X88429891Y-63074705D01*
X88440822Y-63074353D01*
X88443025Y-63074338D01*
X88456533Y-63074704D01*
X88466651Y-63076307D01*
X88474834Y-63079692D01*
X88482537Y-63085404D01*
X88488811Y-63091477D01*
X88495961Y-63099945D01*
X88502343Y-63110023D01*
X88508045Y-63122078D01*
X88513156Y-63136479D01*
X88517762Y-63153594D01*
X88521951Y-63173791D01*
X88525812Y-63197439D01*
X88529432Y-63224905D01*
X88532898Y-63256559D01*
X88536009Y-63289492D01*
X88539612Y-63326147D01*
X88543535Y-63358339D01*
X88547862Y-63386487D01*
X88552676Y-63411015D01*
X88558062Y-63432344D01*
X88564102Y-63450895D01*
X88570880Y-63467091D01*
X88571439Y-63468262D01*
X88583525Y-63489251D01*
X88597451Y-63505767D01*
X88613384Y-63517930D01*
X88631492Y-63525864D01*
X88651943Y-63529692D01*
X88655554Y-63529937D01*
X88680969Y-63529050D01*
X88704549Y-63523668D01*
X88726232Y-63513855D01*
X88745961Y-63499675D01*
X88763675Y-63481193D01*
X88779313Y-63458472D01*
X88792817Y-63431575D01*
X88804126Y-63400568D01*
X88813180Y-63365514D01*
X88814225Y-63360486D01*
X88816655Y-63344739D01*
X88818442Y-63325508D01*
X88819579Y-63303984D01*
X88820057Y-63281360D01*
X88819868Y-63258827D01*
G36*
X88820516Y-62444353D02*
G01*
X88819088Y-62421695D01*
X88817436Y-62409027D01*
X88809322Y-62372596D01*
X88797418Y-62339204D01*
X88781662Y-62308721D01*
X88761994Y-62281018D01*
X88750263Y-62267734D01*
X88725299Y-62244513D01*
X88698233Y-62225405D01*
X88668740Y-62210250D01*
X88636496Y-62198888D01*
X88601176Y-62191161D01*
X88591395Y-62189721D01*
X88575493Y-62188355D01*
X88556516Y-62187913D01*
X88536003Y-62188331D01*
X88515490Y-62189543D01*
X88496516Y-62191482D01*
X88480619Y-62194083D01*
X88478493Y-62194549D01*
X88443160Y-62204931D01*
X88410745Y-62219128D01*
X88381411Y-62236987D01*
X88355317Y-62258356D01*
X88332626Y-62283083D01*
X88313499Y-62311014D01*
X88298096Y-62341999D01*
X88286580Y-62375883D01*
X88286509Y-62376145D01*
X88283495Y-62388587D01*
X88280869Y-62401628D01*
X88279074Y-62413001D01*
X88278739Y-62415999D01*
X88277145Y-62432876D01*
X88227386Y-62431466D01*
X88177627Y-62430055D01*
X88177627Y-62488046D01*
X88227771Y-62486625D01*
X88277915Y-62485203D01*
X88277915Y-62492648D01*
X88278627Y-62501615D01*
X88280562Y-62513806D01*
X88283423Y-62527799D01*
X88286910Y-62542169D01*
X88290725Y-62555491D01*
X88291776Y-62558733D01*
X88305094Y-62591305D01*
X88322153Y-62620907D01*
X88342692Y-62647379D01*
X88366447Y-62670563D01*
X88393158Y-62690300D01*
X88422560Y-62706431D01*
X88454393Y-62718798D01*
X88488394Y-62727241D01*
X88524301Y-62731603D01*
X88545541Y-62731671D01*
X88545541Y-62678892D01*
X88512001Y-62676522D01*
X88480283Y-62669963D01*
X88450658Y-62659350D01*
X88423397Y-62644817D01*
X88398770Y-62626499D01*
X88377047Y-62604529D01*
X88358501Y-62579042D01*
X88348939Y-62561976D01*
X88344639Y-62552101D01*
X88340221Y-62539701D01*
X88336080Y-62526175D01*
X88332613Y-62512922D01*
X88330216Y-62501340D01*
X88329284Y-62492827D01*
X88329283Y-62492599D01*
X88329283Y-62485192D01*
X88401442Y-62486628D01*
X88473601Y-62488065D01*
X88473601Y-62429969D01*
X88400010Y-62431448D01*
X88326420Y-62432927D01*
X88328050Y-62420917D01*
X88329559Y-62412191D01*
X88331890Y-62401257D01*
X88334304Y-62391400D01*
X88344527Y-62361575D01*
X88358558Y-62334708D01*
X88376198Y-62310947D01*
X88397249Y-62290440D01*
X88421514Y-62273336D01*
X88448794Y-62259782D01*
X88478893Y-62249927D01*
X88511612Y-62243919D01*
X88533530Y-62242174D01*
X88569544Y-62242693D01*
X88603025Y-62247384D01*
X88634024Y-62256264D01*
X88662593Y-62269350D01*
X88688783Y-62286660D01*
X88705093Y-62300696D01*
X88725866Y-62323235D01*
X88742441Y-62347528D01*
X88754929Y-62373877D01*
X88763444Y-62402582D01*
X88768098Y-62433943D01*
X88769003Y-62468262D01*
X88768912Y-62471281D01*
X88767548Y-62494488D01*
X88764971Y-62514299D01*
X88760851Y-62532127D01*
X88754861Y-62549388D01*
X88746672Y-62567496D01*
X88746472Y-62567901D01*
X88730705Y-62594681D01*
X88711807Y-62617744D01*
X88689745Y-62637112D01*
X88664484Y-62652807D01*
X88635992Y-62664850D01*
X88604236Y-62673264D01*
X88580632Y-62676939D01*
X88545541Y-62678892D01*
X88545541Y-62731671D01*
X88561852Y-62731724D01*
X88575704Y-62730700D01*
X88614290Y-62725005D01*
X88649949Y-62715498D01*
X88682582Y-62702262D01*
X88712087Y-62685381D01*
X88738364Y-62664935D01*
X88761312Y-62641009D01*
X88780831Y-62613684D01*
X88796821Y-62583042D01*
X88809180Y-62549168D01*
X88812745Y-62536102D01*
X88816591Y-62516238D01*
X88819208Y-62493245D01*
X88820536Y-62468743D01*
X88820516Y-62444353D01*
G37*
X88820516Y-62444353D02*
X88819088Y-62421695D01*
X88817436Y-62409027D01*
X88809322Y-62372596D01*
X88797418Y-62339204D01*
X88781662Y-62308721D01*
X88761994Y-62281018D01*
X88750263Y-62267734D01*
X88725299Y-62244513D01*
X88698233Y-62225405D01*
X88668740Y-62210250D01*
X88636496Y-62198888D01*
X88601176Y-62191161D01*
X88591395Y-62189721D01*
X88575493Y-62188355D01*
X88556516Y-62187913D01*
X88536003Y-62188331D01*
X88515490Y-62189543D01*
X88496516Y-62191482D01*
X88480619Y-62194083D01*
X88478493Y-62194549D01*
X88443160Y-62204931D01*
X88410745Y-62219128D01*
X88381411Y-62236987D01*
X88355317Y-62258356D01*
X88332626Y-62283083D01*
X88313499Y-62311014D01*
X88298096Y-62341999D01*
X88286580Y-62375883D01*
X88286509Y-62376145D01*
X88283495Y-62388587D01*
X88280869Y-62401628D01*
X88279074Y-62413001D01*
X88278739Y-62415999D01*
X88277145Y-62432876D01*
X88227386Y-62431466D01*
X88177627Y-62430055D01*
X88177627Y-62488046D01*
X88227771Y-62486625D01*
X88277915Y-62485203D01*
X88277915Y-62492648D01*
X88278627Y-62501615D01*
X88280562Y-62513806D01*
X88283423Y-62527799D01*
X88286910Y-62542169D01*
X88290725Y-62555491D01*
X88291776Y-62558733D01*
X88305094Y-62591305D01*
X88322153Y-62620907D01*
X88342692Y-62647379D01*
X88366447Y-62670563D01*
X88393158Y-62690300D01*
X88422560Y-62706431D01*
X88454393Y-62718798D01*
X88488394Y-62727241D01*
X88524301Y-62731603D01*
X88545541Y-62731671D01*
X88545541Y-62678892D01*
X88512001Y-62676522D01*
X88480283Y-62669963D01*
X88450658Y-62659350D01*
X88423397Y-62644817D01*
X88398770Y-62626499D01*
X88377047Y-62604529D01*
X88358501Y-62579042D01*
X88348939Y-62561976D01*
X88344639Y-62552101D01*
X88340221Y-62539701D01*
X88336080Y-62526175D01*
X88332613Y-62512922D01*
X88330216Y-62501340D01*
X88329284Y-62492827D01*
X88329283Y-62492599D01*
X88329283Y-62485192D01*
X88401442Y-62486628D01*
X88473601Y-62488065D01*
X88473601Y-62429969D01*
X88400010Y-62431448D01*
X88326420Y-62432927D01*
X88328050Y-62420917D01*
X88329559Y-62412191D01*
X88331890Y-62401257D01*
X88334304Y-62391400D01*
X88344527Y-62361575D01*
X88358558Y-62334708D01*
X88376198Y-62310947D01*
X88397249Y-62290440D01*
X88421514Y-62273336D01*
X88448794Y-62259782D01*
X88478893Y-62249927D01*
X88511612Y-62243919D01*
X88533530Y-62242174D01*
X88569544Y-62242693D01*
X88603025Y-62247384D01*
X88634024Y-62256264D01*
X88662593Y-62269350D01*
X88688783Y-62286660D01*
X88705093Y-62300696D01*
X88725866Y-62323235D01*
X88742441Y-62347528D01*
X88754929Y-62373877D01*
X88763444Y-62402582D01*
X88768098Y-62433943D01*
X88769003Y-62468262D01*
X88768912Y-62471281D01*
X88767548Y-62494488D01*
X88764971Y-62514299D01*
X88760851Y-62532127D01*
X88754861Y-62549388D01*
X88746672Y-62567496D01*
X88746472Y-62567901D01*
X88730705Y-62594681D01*
X88711807Y-62617744D01*
X88689745Y-62637112D01*
X88664484Y-62652807D01*
X88635992Y-62664850D01*
X88604236Y-62673264D01*
X88580632Y-62676939D01*
X88545541Y-62678892D01*
X88545541Y-62731671D01*
X88561852Y-62731724D01*
X88575704Y-62730700D01*
X88614290Y-62725005D01*
X88649949Y-62715498D01*
X88682582Y-62702262D01*
X88712087Y-62685381D01*
X88738364Y-62664935D01*
X88761312Y-62641009D01*
X88780831Y-62613684D01*
X88796821Y-62583042D01*
X88809180Y-62549168D01*
X88812745Y-62536102D01*
X88816591Y-62516238D01*
X88819208Y-62493245D01*
X88820536Y-62468743D01*
X88820516Y-62444353D01*
G36*
X87323014Y-47177563D02*
G01*
X87329982Y-47177799D01*
X87341206Y-47178022D01*
X87356370Y-47178232D01*
X87375156Y-47178425D01*
X87397246Y-47178599D01*
X87422322Y-47178752D01*
X87450068Y-47178883D01*
X87480165Y-47178988D01*
X87512296Y-47179066D01*
X87546143Y-47179114D01*
X87580701Y-47179130D01*
X87840781Y-47179130D01*
X87845798Y-47173626D01*
X87847970Y-47170707D01*
X87852535Y-47164165D01*
X87859212Y-47154422D01*
X87867721Y-47141897D01*
X87877781Y-47127011D01*
X87889110Y-47110187D01*
X87901428Y-47091843D01*
X87914455Y-47072403D01*
X87927908Y-47052285D01*
X87941507Y-47031912D01*
X87954972Y-47011704D01*
X87968020Y-46992082D01*
X87980373Y-46973467D01*
X87991748Y-46956280D01*
X88001864Y-46940942D01*
X88010442Y-46927873D01*
X88017199Y-46917495D01*
X88021855Y-46910228D01*
X88024130Y-46906494D01*
X88024293Y-46906163D01*
X88023964Y-46905610D01*
X88022360Y-46905118D01*
X88019223Y-46904684D01*
X88014298Y-46904304D01*
X88007327Y-46903975D01*
X87998055Y-46903693D01*
X87986226Y-46903454D01*
X87971582Y-46903257D01*
X87953869Y-46903096D01*
X87932828Y-46902969D01*
X87908205Y-46902873D01*
X87879742Y-46902804D01*
X87847184Y-46902758D01*
X87810273Y-46902732D01*
X87768755Y-46902724D01*
X87502415Y-46902724D01*
X87411518Y-47039114D01*
X87396072Y-47062318D01*
X87381453Y-47084330D01*
X87367882Y-47104813D01*
X87355584Y-47123429D01*
X87344780Y-47139840D01*
X87335693Y-47153706D01*
X87328545Y-47164689D01*
X87323559Y-47172452D01*
X87320958Y-47176656D01*
X87320621Y-47177317D01*
X87323014Y-47177563D01*
G37*
X87323014Y-47177563D02*
X87329982Y-47177799D01*
X87341206Y-47178022D01*
X87356370Y-47178232D01*
X87375156Y-47178425D01*
X87397246Y-47178599D01*
X87422322Y-47178752D01*
X87450068Y-47178883D01*
X87480165Y-47178988D01*
X87512296Y-47179066D01*
X87546143Y-47179114D01*
X87580701Y-47179130D01*
X87840781Y-47179130D01*
X87845798Y-47173626D01*
X87847970Y-47170707D01*
X87852535Y-47164165D01*
X87859212Y-47154422D01*
X87867721Y-47141897D01*
X87877781Y-47127011D01*
X87889110Y-47110187D01*
X87901428Y-47091843D01*
X87914455Y-47072403D01*
X87927908Y-47052285D01*
X87941507Y-47031912D01*
X87954972Y-47011704D01*
X87968020Y-46992082D01*
X87980373Y-46973467D01*
X87991748Y-46956280D01*
X88001864Y-46940942D01*
X88010442Y-46927873D01*
X88017199Y-46917495D01*
X88021855Y-46910228D01*
X88024130Y-46906494D01*
X88024293Y-46906163D01*
X88023964Y-46905610D01*
X88022360Y-46905118D01*
X88019223Y-46904684D01*
X88014298Y-46904304D01*
X88007327Y-46903975D01*
X87998055Y-46903693D01*
X87986226Y-46903454D01*
X87971582Y-46903257D01*
X87953869Y-46903096D01*
X87932828Y-46902969D01*
X87908205Y-46902873D01*
X87879742Y-46902804D01*
X87847184Y-46902758D01*
X87810273Y-46902732D01*
X87768755Y-46902724D01*
X87502415Y-46902724D01*
X87411518Y-47039114D01*
X87396072Y-47062318D01*
X87381453Y-47084330D01*
X87367882Y-47104813D01*
X87355584Y-47123429D01*
X87344780Y-47139840D01*
X87335693Y-47153706D01*
X87328545Y-47164689D01*
X87323559Y-47172452D01*
X87320958Y-47176656D01*
X87320621Y-47177317D01*
X87323014Y-47177563D01*
G36*
X88028938Y-46902613D02*
G01*
X88031544Y-46903060D01*
X88036313Y-46903455D01*
X88043478Y-46903801D01*
X88053269Y-46904101D01*
X88065918Y-46904358D01*
X88081655Y-46904573D01*
X88100712Y-46904751D01*
X88123319Y-46904893D01*
X88149709Y-46905003D01*
X88180111Y-46905083D01*
X88214757Y-46905135D01*
X88253879Y-46905163D01*
X88288734Y-46905170D01*
X88550456Y-46905170D01*
X88641230Y-46769585D01*
X88656686Y-46746479D01*
X88671312Y-46724574D01*
X88684885Y-46704206D01*
X88697182Y-46685714D01*
X88707978Y-46669434D01*
X88717051Y-46655704D01*
X88724177Y-46644861D01*
X88729131Y-46637243D01*
X88731691Y-46633188D01*
X88732004Y-46632605D01*
X88729610Y-46632417D01*
X88722642Y-46632236D01*
X88711414Y-46632064D01*
X88696244Y-46631903D01*
X88677448Y-46631755D01*
X88655344Y-46631621D01*
X88630247Y-46631503D01*
X88602474Y-46631402D01*
X88572342Y-46631321D01*
X88540168Y-46631261D01*
X88506268Y-46631223D01*
X88470959Y-46631210D01*
X88208676Y-46631210D01*
X88119098Y-46765132D01*
X88103712Y-46788153D01*
X88089123Y-46810014D01*
X88075561Y-46830370D01*
X88063255Y-46848876D01*
X88052435Y-46865185D01*
X88043328Y-46878953D01*
X88036164Y-46889835D01*
X88031172Y-46897485D01*
X88028581Y-46901557D01*
X88028266Y-46902112D01*
X88028938Y-46902613D01*
G37*
X88028938Y-46902613D02*
X88031544Y-46903060D01*
X88036313Y-46903455D01*
X88043478Y-46903801D01*
X88053269Y-46904101D01*
X88065918Y-46904358D01*
X88081655Y-46904573D01*
X88100712Y-46904751D01*
X88123319Y-46904893D01*
X88149709Y-46905003D01*
X88180111Y-46905083D01*
X88214757Y-46905135D01*
X88253879Y-46905163D01*
X88288734Y-46905170D01*
X88550456Y-46905170D01*
X88641230Y-46769585D01*
X88656686Y-46746479D01*
X88671312Y-46724574D01*
X88684885Y-46704206D01*
X88697182Y-46685714D01*
X88707978Y-46669434D01*
X88717051Y-46655704D01*
X88724177Y-46644861D01*
X88729131Y-46637243D01*
X88731691Y-46633188D01*
X88732004Y-46632605D01*
X88729610Y-46632417D01*
X88722642Y-46632236D01*
X88711414Y-46632064D01*
X88696244Y-46631903D01*
X88677448Y-46631755D01*
X88655344Y-46631621D01*
X88630247Y-46631503D01*
X88602474Y-46631402D01*
X88572342Y-46631321D01*
X88540168Y-46631261D01*
X88506268Y-46631223D01*
X88470959Y-46631210D01*
X88208676Y-46631210D01*
X88119098Y-46765132D01*
X88103712Y-46788153D01*
X88089123Y-46810014D01*
X88075561Y-46830370D01*
X88063255Y-46848876D01*
X88052435Y-46865185D01*
X88043328Y-46878953D01*
X88036164Y-46889835D01*
X88031172Y-46897485D01*
X88028581Y-46901557D01*
X88028266Y-46902112D01*
X88028938Y-46902613D01*
G36*
X87322296Y-46411340D02*
G01*
X87327413Y-46411740D01*
X87336107Y-46412085D01*
X87348514Y-46412375D01*
X87364770Y-46412613D01*
X87385012Y-46412797D01*
X87409374Y-46412931D01*
X87437994Y-46413015D01*
X87471006Y-46413049D01*
X87508547Y-46413036D01*
X87550753Y-46412975D01*
X87581739Y-46412909D01*
X87842857Y-46412286D01*
X88025587Y-46139550D01*
X88550972Y-46139550D01*
X88641488Y-46003809D01*
X88656899Y-45980680D01*
X88671483Y-45958756D01*
X88685018Y-45938376D01*
X88697279Y-45919875D01*
X88708045Y-45903593D01*
X88717092Y-45889866D01*
X88724197Y-45879032D01*
X88729138Y-45871427D01*
X88731691Y-45867390D01*
X88732004Y-45866818D01*
X88729610Y-45866655D01*
X88722641Y-45866510D01*
X88711412Y-45866383D01*
X88696240Y-45866275D01*
X88677440Y-45866186D01*
X88655329Y-45866119D01*
X88630224Y-45866072D01*
X88602440Y-45866048D01*
X88572293Y-45866047D01*
X88540101Y-45866069D01*
X88506178Y-45866116D01*
X88470842Y-45866187D01*
X88469663Y-45866190D01*
X88207321Y-45866813D01*
X88116128Y-46003181D01*
X88024934Y-46139550D01*
X87762670Y-46139590D01*
X87500407Y-46139631D01*
X87410514Y-46273934D01*
X87395126Y-46296963D01*
X87380569Y-46318824D01*
X87367069Y-46339173D01*
X87354852Y-46357667D01*
X87344141Y-46373964D01*
X87335162Y-46387720D01*
X87328141Y-46398592D01*
X87323302Y-46406238D01*
X87320870Y-46410314D01*
X87320621Y-46410884D01*
X87322296Y-46411340D01*
G37*
X87322296Y-46411340D02*
X87327413Y-46411740D01*
X87336107Y-46412085D01*
X87348514Y-46412375D01*
X87364770Y-46412613D01*
X87385012Y-46412797D01*
X87409374Y-46412931D01*
X87437994Y-46413015D01*
X87471006Y-46413049D01*
X87508547Y-46413036D01*
X87550753Y-46412975D01*
X87581739Y-46412909D01*
X87842857Y-46412286D01*
X88025587Y-46139550D01*
X88550972Y-46139550D01*
X88641488Y-46003809D01*
X88656899Y-45980680D01*
X88671483Y-45958756D01*
X88685018Y-45938376D01*
X88697279Y-45919875D01*
X88708045Y-45903593D01*
X88717092Y-45889866D01*
X88724197Y-45879032D01*
X88729138Y-45871427D01*
X88731691Y-45867390D01*
X88732004Y-45866818D01*
X88729610Y-45866655D01*
X88722641Y-45866510D01*
X88711412Y-45866383D01*
X88696240Y-45866275D01*
X88677440Y-45866186D01*
X88655329Y-45866119D01*
X88630224Y-45866072D01*
X88602440Y-45866048D01*
X88572293Y-45866047D01*
X88540101Y-45866069D01*
X88506178Y-45866116D01*
X88470842Y-45866187D01*
X88469663Y-45866190D01*
X88207321Y-45866813D01*
X88116128Y-46003181D01*
X88024934Y-46139550D01*
X87762670Y-46139590D01*
X87500407Y-46139631D01*
X87410514Y-46273934D01*
X87395126Y-46296963D01*
X87380569Y-46318824D01*
X87367069Y-46339173D01*
X87354852Y-46357667D01*
X87344141Y-46373964D01*
X87335162Y-46387720D01*
X87328141Y-46398592D01*
X87323302Y-46406238D01*
X87320870Y-46410314D01*
X87320621Y-46410884D01*
X87322296Y-46411340D01*
G36*
X88996199Y-49255014D02*
G01*
X88996275Y-49282937D01*
X88996433Y-49306858D01*
X88996698Y-49327223D01*
X88997094Y-49344478D01*
X88997648Y-49359068D01*
X88998384Y-49371439D01*
X88999327Y-49382035D01*
X89000503Y-49391302D01*
X89001936Y-49399686D01*
X89003653Y-49407633D01*
X89005677Y-49415586D01*
X89007435Y-49421903D01*
X89019114Y-49454620D01*
X89034468Y-49484267D01*
X89053246Y-49510688D01*
X89075196Y-49533731D01*
X89100066Y-49553242D01*
X89127606Y-49569067D01*
X89157563Y-49581052D01*
X89189685Y-49589043D01*
X89223721Y-49592887D01*
X89259420Y-49592430D01*
X89282370Y-49589905D01*
X89319535Y-49582304D01*
X89353863Y-49570877D01*
X89385205Y-49555748D01*
X89413418Y-49537042D01*
X89438354Y-49514882D01*
X89459869Y-49489391D01*
X89477816Y-49460694D01*
X89492050Y-49428915D01*
X89499605Y-49405345D01*
X89506034Y-49381817D01*
X89506843Y-49231995D01*
X89507651Y-49082173D01*
X89048342Y-49082173D01*
X89048342Y-49133540D01*
X89458792Y-49133540D01*
X89457861Y-49247894D01*
X89457634Y-49274685D01*
X89457410Y-49297078D01*
X89457167Y-49315566D01*
X89456881Y-49330641D01*
X89456530Y-49342799D01*
X89456090Y-49352532D01*
X89455538Y-49360333D01*
X89454850Y-49366697D01*
X89454003Y-49372116D01*
X89452974Y-49377084D01*
X89451740Y-49382095D01*
X89451495Y-49383040D01*
X89441258Y-49413225D01*
X89427142Y-49440665D01*
X89409354Y-49465108D01*
X89388101Y-49486301D01*
X89363591Y-49503991D01*
X89343517Y-49514660D01*
X89313595Y-49526095D01*
X89282914Y-49533405D01*
X89252035Y-49536634D01*
X89221517Y-49535829D01*
X89191920Y-49531034D01*
X89163806Y-49522294D01*
X89137733Y-49509656D01*
X89118291Y-49496433D01*
X89101354Y-49480527D01*
X89085779Y-49460863D01*
X89072238Y-49438524D01*
X89061404Y-49414596D01*
X89054992Y-49394465D01*
X89052533Y-49383991D01*
X89050517Y-49373242D01*
X89048916Y-49361672D01*
X89047705Y-49348737D01*
X89046854Y-49333891D01*
X89046337Y-49316588D01*
X89046126Y-49296285D01*
X89046195Y-49272436D01*
X89046515Y-49244496D01*
X89046740Y-49230078D01*
X89048342Y-49133540D01*
X89048342Y-49082173D01*
X88996179Y-49082173D01*
X88996179Y-49222645D01*
X88996199Y-49255014D01*
G37*
X88996199Y-49255014D02*
X88996275Y-49282937D01*
X88996433Y-49306858D01*
X88996698Y-49327223D01*
X88997094Y-49344478D01*
X88997648Y-49359068D01*
X88998384Y-49371439D01*
X88999327Y-49382035D01*
X89000503Y-49391302D01*
X89001936Y-49399686D01*
X89003653Y-49407633D01*
X89005677Y-49415586D01*
X89007435Y-49421903D01*
X89019114Y-49454620D01*
X89034468Y-49484267D01*
X89053246Y-49510688D01*
X89075196Y-49533731D01*
X89100066Y-49553242D01*
X89127606Y-49569067D01*
X89157563Y-49581052D01*
X89189685Y-49589043D01*
X89223721Y-49592887D01*
X89259420Y-49592430D01*
X89282370Y-49589905D01*
X89319535Y-49582304D01*
X89353863Y-49570877D01*
X89385205Y-49555748D01*
X89413418Y-49537042D01*
X89438354Y-49514882D01*
X89459869Y-49489391D01*
X89477816Y-49460694D01*
X89492050Y-49428915D01*
X89499605Y-49405345D01*
X89506034Y-49381817D01*
X89506843Y-49231995D01*
X89507651Y-49082173D01*
X89048342Y-49082173D01*
X89048342Y-49133540D01*
X89458792Y-49133540D01*
X89457861Y-49247894D01*
X89457634Y-49274685D01*
X89457410Y-49297078D01*
X89457167Y-49315566D01*
X89456881Y-49330641D01*
X89456530Y-49342799D01*
X89456090Y-49352532D01*
X89455538Y-49360333D01*
X89454850Y-49366697D01*
X89454003Y-49372116D01*
X89452974Y-49377084D01*
X89451740Y-49382095D01*
X89451495Y-49383040D01*
X89441258Y-49413225D01*
X89427142Y-49440665D01*
X89409354Y-49465108D01*
X89388101Y-49486301D01*
X89363591Y-49503991D01*
X89343517Y-49514660D01*
X89313595Y-49526095D01*
X89282914Y-49533405D01*
X89252035Y-49536634D01*
X89221517Y-49535829D01*
X89191920Y-49531034D01*
X89163806Y-49522294D01*
X89137733Y-49509656D01*
X89118291Y-49496433D01*
X89101354Y-49480527D01*
X89085779Y-49460863D01*
X89072238Y-49438524D01*
X89061404Y-49414596D01*
X89054992Y-49394465D01*
X89052533Y-49383991D01*
X89050517Y-49373242D01*
X89048916Y-49361672D01*
X89047705Y-49348737D01*
X89046854Y-49333891D01*
X89046337Y-49316588D01*
X89046126Y-49296285D01*
X89046195Y-49272436D01*
X89046515Y-49244496D01*
X89046740Y-49230078D01*
X89048342Y-49133540D01*
X89048342Y-49082173D01*
X88996179Y-49082173D01*
X88996179Y-49222645D01*
X88996199Y-49255014D01*
G36*
X89021252Y-48761212D02*
G01*
X89046324Y-48760515D01*
X89046949Y-48558102D01*
X89047575Y-48355690D01*
X89218772Y-48355690D01*
X89218772Y-48698140D01*
X89270139Y-48698140D01*
X89270139Y-48355690D01*
X89456013Y-48355690D01*
X89456638Y-48565440D01*
X89457264Y-48775191D01*
X89507408Y-48776585D01*
X89507408Y-48304322D01*
X88996179Y-48304322D01*
X88996179Y-48761909D01*
X89021252Y-48761212D01*
G37*
X89021252Y-48761212D02*
X89046324Y-48760515D01*
X89046949Y-48558102D01*
X89047575Y-48355690D01*
X89218772Y-48355690D01*
X89218772Y-48698140D01*
X89270139Y-48698140D01*
X89270139Y-48355690D01*
X89456013Y-48355690D01*
X89456638Y-48565440D01*
X89457264Y-48775191D01*
X89507408Y-48776585D01*
X89507408Y-48304322D01*
X88996179Y-48304322D01*
X88996179Y-48761909D01*
X89021252Y-48761212D01*
G36*
X88991832Y-46890148D02*
G01*
X88992510Y-46923219D01*
X89248125Y-47049820D01*
X89281244Y-47066216D01*
X89313144Y-47081997D01*
X89343553Y-47097027D01*
X89372194Y-47111171D01*
X89398795Y-47124294D01*
X89423080Y-47136261D01*
X89444776Y-47146937D01*
X89463608Y-47156188D01*
X89479302Y-47163877D01*
X89491584Y-47169871D01*
X89500180Y-47174033D01*
X89504815Y-47176230D01*
X89505574Y-47176552D01*
X89506302Y-47174323D01*
X89506894Y-47168173D01*
X89507284Y-47159070D01*
X89507408Y-47149138D01*
X89507408Y-47121593D01*
X89419350Y-47077618D01*
X89331291Y-47033643D01*
X89331291Y-46747344D01*
X89419350Y-46703369D01*
X89507408Y-46659394D01*
X89507408Y-46631849D01*
X89507271Y-46620898D01*
X89506899Y-46612011D01*
X89506351Y-46606162D01*
X89505756Y-46604303D01*
X89503373Y-46605364D01*
X89496913Y-46608449D01*
X89486683Y-46613405D01*
X89472988Y-46620084D01*
X89456134Y-46628334D01*
X89436428Y-46638007D01*
X89414175Y-46648950D01*
X89389683Y-46661014D01*
X89363256Y-46674049D01*
X89335202Y-46687904D01*
X89305826Y-46702430D01*
X89298452Y-46706079D01*
X89279077Y-46715663D01*
X89279077Y-46773082D01*
X89279246Y-46775449D01*
X89279404Y-46782236D01*
X89279547Y-46792969D01*
X89279672Y-46807175D01*
X89279776Y-46824382D01*
X89279855Y-46844116D01*
X89279905Y-46865905D01*
X89279923Y-46889277D01*
X89279924Y-46890386D01*
X89279924Y-47007690D01*
X89242621Y-46989727D01*
X89216257Y-46976986D01*
X89190486Y-46964443D01*
X89165673Y-46952282D01*
X89142185Y-46940687D01*
X89120386Y-46929842D01*
X89100642Y-46919931D01*
X89083319Y-46911137D01*
X89068780Y-46903644D01*
X89057393Y-46897637D01*
X89049522Y-46893298D01*
X89045532Y-46890813D01*
X89045101Y-46890350D01*
X89047213Y-46888992D01*
X89053222Y-46885716D01*
X89062638Y-46880769D01*
X89074971Y-46874395D01*
X89089728Y-46866842D01*
X89106421Y-46858355D01*
X89124558Y-46849180D01*
X89143649Y-46839562D01*
X89163204Y-46829749D01*
X89182731Y-46819984D01*
X89201740Y-46810515D01*
X89219740Y-46801587D01*
X89236242Y-46793447D01*
X89250754Y-46786339D01*
X89262787Y-46780510D01*
X89271848Y-46776206D01*
X89277448Y-46773672D01*
X89279077Y-46773082D01*
X89279077Y-46715663D01*
X89267449Y-46721415D01*
X89236743Y-46736594D01*
X89206743Y-46751413D01*
X89177861Y-46765669D01*
X89150509Y-46779160D01*
X89125097Y-46791682D01*
X89102036Y-46803034D01*
X89081739Y-46813012D01*
X89064615Y-46821414D01*
X89051077Y-46828037D01*
X89041977Y-46832465D01*
X88991154Y-46857076D01*
X88991832Y-46890148D01*
G37*
X88991832Y-46890148D02*
X88992510Y-46923219D01*
X89248125Y-47049820D01*
X89281244Y-47066216D01*
X89313144Y-47081997D01*
X89343553Y-47097027D01*
X89372194Y-47111171D01*
X89398795Y-47124294D01*
X89423080Y-47136261D01*
X89444776Y-47146937D01*
X89463608Y-47156188D01*
X89479302Y-47163877D01*
X89491584Y-47169871D01*
X89500180Y-47174033D01*
X89504815Y-47176230D01*
X89505574Y-47176552D01*
X89506302Y-47174323D01*
X89506894Y-47168173D01*
X89507284Y-47159070D01*
X89507408Y-47149138D01*
X89507408Y-47121593D01*
X89419350Y-47077618D01*
X89331291Y-47033643D01*
X89331291Y-46747344D01*
X89419350Y-46703369D01*
X89507408Y-46659394D01*
X89507408Y-46631849D01*
X89507271Y-46620898D01*
X89506899Y-46612011D01*
X89506351Y-46606162D01*
X89505756Y-46604303D01*
X89503373Y-46605364D01*
X89496913Y-46608449D01*
X89486683Y-46613405D01*
X89472988Y-46620084D01*
X89456134Y-46628334D01*
X89436428Y-46638007D01*
X89414175Y-46648950D01*
X89389683Y-46661014D01*
X89363256Y-46674049D01*
X89335202Y-46687904D01*
X89305826Y-46702430D01*
X89298452Y-46706079D01*
X89279077Y-46715663D01*
X89279077Y-46773082D01*
X89279246Y-46775449D01*
X89279404Y-46782236D01*
X89279547Y-46792969D01*
X89279672Y-46807175D01*
X89279776Y-46824382D01*
X89279855Y-46844116D01*
X89279905Y-46865905D01*
X89279923Y-46889277D01*
X89279924Y-46890386D01*
X89279924Y-47007690D01*
X89242621Y-46989727D01*
X89216257Y-46976986D01*
X89190486Y-46964443D01*
X89165673Y-46952282D01*
X89142185Y-46940687D01*
X89120386Y-46929842D01*
X89100642Y-46919931D01*
X89083319Y-46911137D01*
X89068780Y-46903644D01*
X89057393Y-46897637D01*
X89049522Y-46893298D01*
X89045532Y-46890813D01*
X89045101Y-46890350D01*
X89047213Y-46888992D01*
X89053222Y-46885716D01*
X89062638Y-46880769D01*
X89074971Y-46874395D01*
X89089728Y-46866842D01*
X89106421Y-46858355D01*
X89124558Y-46849180D01*
X89143649Y-46839562D01*
X89163204Y-46829749D01*
X89182731Y-46819984D01*
X89201740Y-46810515D01*
X89219740Y-46801587D01*
X89236242Y-46793447D01*
X89250754Y-46786339D01*
X89262787Y-46780510D01*
X89271848Y-46776206D01*
X89277448Y-46773672D01*
X89279077Y-46773082D01*
X89279077Y-46715663D01*
X89267449Y-46721415D01*
X89236743Y-46736594D01*
X89206743Y-46751413D01*
X89177861Y-46765669D01*
X89150509Y-46779160D01*
X89125097Y-46791682D01*
X89102036Y-46803034D01*
X89081739Y-46813012D01*
X89064615Y-46821414D01*
X89051077Y-46828037D01*
X89041977Y-46832465D01*
X88991154Y-46857076D01*
X88991832Y-46890148D01*
G36*
X88996813Y-43558333D02*
G01*
X88996979Y-43592905D01*
X88997144Y-43622936D01*
X88997317Y-43648779D01*
X88997509Y-43670785D01*
X88997727Y-43689306D01*
X88997981Y-43704694D01*
X88998281Y-43717300D01*
X88998636Y-43727477D01*
X88999054Y-43735576D01*
X88999546Y-43741949D01*
X89000120Y-43746948D01*
X89000786Y-43750924D01*
X89001553Y-43754229D01*
X89002011Y-43755854D01*
X89011570Y-43781248D01*
X89023993Y-43802900D01*
X89039163Y-43820689D01*
X89056965Y-43834491D01*
X89077282Y-43844182D01*
X89088839Y-43847565D01*
X89102834Y-43849468D01*
X89119304Y-43849568D01*
X89136234Y-43848004D01*
X89151609Y-43844915D01*
X89158214Y-43842793D01*
X89175034Y-43834382D01*
X89191616Y-43822416D01*
X89206462Y-43808064D01*
X89213068Y-43799953D01*
X89224466Y-43784553D01*
X89230791Y-43797045D01*
X89235535Y-43804672D01*
X89242573Y-43813944D01*
X89250606Y-43823186D01*
X89253017Y-43825702D01*
X89270861Y-43841048D01*
X89290178Y-43852068D01*
X89311531Y-43858988D01*
X89335482Y-43862035D01*
X89343742Y-43862229D01*
X89371083Y-43860000D01*
X89397270Y-43853464D01*
X89421781Y-43842958D01*
X89444095Y-43828821D01*
X89463690Y-43811391D01*
X89480045Y-43791007D01*
X89492639Y-43768005D01*
X89494024Y-43764715D01*
X89496508Y-43758476D01*
X89498665Y-43752578D01*
X89500517Y-43746639D01*
X89502087Y-43740278D01*
X89503399Y-43733113D01*
X89504475Y-43724762D01*
X89505340Y-43714843D01*
X89506016Y-43702974D01*
X89506526Y-43688773D01*
X89506894Y-43671860D01*
X89507142Y-43651851D01*
X89507295Y-43628364D01*
X89507374Y-43601019D01*
X89507404Y-43569434D01*
X89507408Y-43544371D01*
X89507408Y-43375489D01*
X89458487Y-43375489D01*
X89458487Y-43426857D01*
X89458458Y-43564448D01*
X89458426Y-43595813D01*
X89458339Y-43622634D01*
X89458190Y-43645262D01*
X89457971Y-43664045D01*
X89457674Y-43679331D01*
X89457292Y-43691471D01*
X89456817Y-43700813D01*
X89456241Y-43707706D01*
X89455556Y-43712499D01*
X89455157Y-43714270D01*
X89446818Y-43736680D01*
X89434766Y-43756358D01*
X89419460Y-43772945D01*
X89401359Y-43786078D01*
X89380925Y-43795397D01*
X89358616Y-43800541D01*
X89344114Y-43801474D01*
X89333053Y-43801281D01*
X89324903Y-43800352D01*
X89317689Y-43798272D01*
X89309441Y-43794628D01*
X89307868Y-43793859D01*
X89292507Y-43784071D01*
X89280164Y-43771153D01*
X89270586Y-43754731D01*
X89263518Y-43734431D01*
X89261481Y-43725832D01*
X89260704Y-43721255D01*
X89260044Y-43715177D01*
X89259492Y-43707222D01*
X89259041Y-43697011D01*
X89258680Y-43684166D01*
X89258402Y-43668309D01*
X89258199Y-43649062D01*
X89258062Y-43626047D01*
X89257982Y-43598885D01*
X89257951Y-43568118D01*
X89257909Y-43426857D01*
X89458487Y-43426857D01*
X89458487Y-43375489D01*
X89048332Y-43375489D01*
X89048332Y-43426857D01*
X89206541Y-43426857D01*
X89206541Y-43564726D01*
X89206496Y-43594652D01*
X89206364Y-43622114D01*
X89206151Y-43646764D01*
X89205862Y-43668259D01*
X89205504Y-43686249D01*
X89205081Y-43700391D01*
X89204600Y-43710336D01*
X89204067Y-43715740D01*
X89204061Y-43715771D01*
X89197844Y-43736282D01*
X89187547Y-43754791D01*
X89173682Y-43770587D01*
X89156765Y-43782958D01*
X89154736Y-43784081D01*
X89145728Y-43788577D01*
X89138323Y-43791091D01*
X89130268Y-43792177D01*
X89120929Y-43792391D01*
X89110321Y-43792090D01*
X89102482Y-43790857D01*
X89095310Y-43788209D01*
X89089425Y-43785184D01*
X89075108Y-43774802D01*
X89063738Y-43760890D01*
X89055215Y-43743271D01*
X89049442Y-43721771D01*
X89047644Y-43710222D01*
X89046836Y-43700806D01*
X89046185Y-43687036D01*
X89045693Y-43669451D01*
X89045362Y-43648586D01*
X89045195Y-43624979D01*
X89045193Y-43599166D01*
X89045359Y-43571685D01*
X89045695Y-43543071D01*
X89046204Y-43513863D01*
X89046721Y-43491066D01*
X89048332Y-43426857D01*
X89048332Y-43375489D01*
X88995975Y-43375489D01*
X88996813Y-43558333D01*
G37*
X88996813Y-43558333D02*
X88996979Y-43592905D01*
X88997144Y-43622936D01*
X88997317Y-43648779D01*
X88997509Y-43670785D01*
X88997727Y-43689306D01*
X88997981Y-43704694D01*
X88998281Y-43717300D01*
X88998636Y-43727477D01*
X88999054Y-43735576D01*
X88999546Y-43741949D01*
X89000120Y-43746948D01*
X89000786Y-43750924D01*
X89001553Y-43754229D01*
X89002011Y-43755854D01*
X89011570Y-43781248D01*
X89023993Y-43802900D01*
X89039163Y-43820689D01*
X89056965Y-43834491D01*
X89077282Y-43844182D01*
X89088839Y-43847565D01*
X89102834Y-43849468D01*
X89119304Y-43849568D01*
X89136234Y-43848004D01*
X89151609Y-43844915D01*
X89158214Y-43842793D01*
X89175034Y-43834382D01*
X89191616Y-43822416D01*
X89206462Y-43808064D01*
X89213068Y-43799953D01*
X89224466Y-43784553D01*
X89230791Y-43797045D01*
X89235535Y-43804672D01*
X89242573Y-43813944D01*
X89250606Y-43823186D01*
X89253017Y-43825702D01*
X89270861Y-43841048D01*
X89290178Y-43852068D01*
X89311531Y-43858988D01*
X89335482Y-43862035D01*
X89343742Y-43862229D01*
X89371083Y-43860000D01*
X89397270Y-43853464D01*
X89421781Y-43842958D01*
X89444095Y-43828821D01*
X89463690Y-43811391D01*
X89480045Y-43791007D01*
X89492639Y-43768005D01*
X89494024Y-43764715D01*
X89496508Y-43758476D01*
X89498665Y-43752578D01*
X89500517Y-43746639D01*
X89502087Y-43740278D01*
X89503399Y-43733113D01*
X89504475Y-43724762D01*
X89505340Y-43714843D01*
X89506016Y-43702974D01*
X89506526Y-43688773D01*
X89506894Y-43671860D01*
X89507142Y-43651851D01*
X89507295Y-43628364D01*
X89507374Y-43601019D01*
X89507404Y-43569434D01*
X89507408Y-43544371D01*
X89507408Y-43375489D01*
X89458487Y-43375489D01*
X89458487Y-43426857D01*
X89458458Y-43564448D01*
X89458426Y-43595813D01*
X89458339Y-43622634D01*
X89458190Y-43645262D01*
X89457971Y-43664045D01*
X89457674Y-43679331D01*
X89457292Y-43691471D01*
X89456817Y-43700813D01*
X89456241Y-43707706D01*
X89455556Y-43712499D01*
X89455157Y-43714270D01*
X89446818Y-43736680D01*
X89434766Y-43756358D01*
X89419460Y-43772945D01*
X89401359Y-43786078D01*
X89380925Y-43795397D01*
X89358616Y-43800541D01*
X89344114Y-43801474D01*
X89333053Y-43801281D01*
X89324903Y-43800352D01*
X89317689Y-43798272D01*
X89309441Y-43794628D01*
X89307868Y-43793859D01*
X89292507Y-43784071D01*
X89280164Y-43771153D01*
X89270586Y-43754731D01*
X89263518Y-43734431D01*
X89261481Y-43725832D01*
X89260704Y-43721255D01*
X89260044Y-43715177D01*
X89259492Y-43707222D01*
X89259041Y-43697011D01*
X89258680Y-43684166D01*
X89258402Y-43668309D01*
X89258199Y-43649062D01*
X89258062Y-43626047D01*
X89257982Y-43598885D01*
X89257951Y-43568118D01*
X89257909Y-43426857D01*
X89458487Y-43426857D01*
X89458487Y-43375489D01*
X89048332Y-43375489D01*
X89048332Y-43426857D01*
X89206541Y-43426857D01*
X89206541Y-43564726D01*
X89206496Y-43594652D01*
X89206364Y-43622114D01*
X89206151Y-43646764D01*
X89205862Y-43668259D01*
X89205504Y-43686249D01*
X89205081Y-43700391D01*
X89204600Y-43710336D01*
X89204067Y-43715740D01*
X89204061Y-43715771D01*
X89197844Y-43736282D01*
X89187547Y-43754791D01*
X89173682Y-43770587D01*
X89156765Y-43782958D01*
X89154736Y-43784081D01*
X89145728Y-43788577D01*
X89138323Y-43791091D01*
X89130268Y-43792177D01*
X89120929Y-43792391D01*
X89110321Y-43792090D01*
X89102482Y-43790857D01*
X89095310Y-43788209D01*
X89089425Y-43785184D01*
X89075108Y-43774802D01*
X89063738Y-43760890D01*
X89055215Y-43743271D01*
X89049442Y-43721771D01*
X89047644Y-43710222D01*
X89046836Y-43700806D01*
X89046185Y-43687036D01*
X89045693Y-43669451D01*
X89045362Y-43648586D01*
X89045195Y-43624979D01*
X89045193Y-43599166D01*
X89045359Y-43571685D01*
X89045695Y-43543071D01*
X89046204Y-43513863D01*
X89046721Y-43491066D01*
X89048332Y-43426857D01*
X89048332Y-43375489D01*
X88995975Y-43375489D01*
X88996813Y-43558333D01*
G36*
X88996194Y-47633487D02*
G01*
X88996216Y-47668559D01*
X88996280Y-47699091D01*
X88996392Y-47725437D01*
X88996560Y-47747949D01*
X88996789Y-47766982D01*
X88997085Y-47782886D01*
X88997456Y-47796017D01*
X88997908Y-47806725D01*
X88998446Y-47815365D01*
X88999078Y-47822290D01*
X88999732Y-47827338D01*
X89005758Y-47857445D01*
X89014199Y-47883631D01*
X89025247Y-47906335D01*
X89039097Y-47925994D01*
X89047456Y-47935144D01*
X89065081Y-47950139D01*
X89084271Y-47961015D01*
X89105605Y-47967995D01*
X89129666Y-47971305D01*
X89141721Y-47971657D01*
X89153860Y-47971215D01*
X89166165Y-47970043D01*
X89176382Y-47968371D01*
X89178284Y-47967918D01*
X89201646Y-47959347D01*
X89223151Y-47946445D01*
X89242406Y-47929547D01*
X89259023Y-47908988D01*
X89271171Y-47888098D01*
X89277035Y-47874990D01*
X89282453Y-47860708D01*
X89287024Y-47846530D01*
X89290349Y-47833735D01*
X89292029Y-47823602D01*
X89292154Y-47820976D01*
X89293135Y-47815940D01*
X89294644Y-47813858D01*
X89297898Y-47813910D01*
X89304979Y-47815230D01*
X89315054Y-47817593D01*
X89327290Y-47820774D01*
X89340857Y-47824548D01*
X89354921Y-47828690D01*
X89368650Y-47832974D01*
X89381213Y-47837177D01*
X89382358Y-47837579D01*
X89406400Y-47846954D01*
X89425904Y-47856642D01*
X89441227Y-47866939D01*
X89452722Y-47878143D01*
X89460745Y-47890552D01*
X89465652Y-47904463D01*
X89466392Y-47907991D01*
X89467356Y-47922450D01*
X89465627Y-47940498D01*
X89461259Y-47961675D01*
X89459434Y-47968599D01*
X89458923Y-47971092D01*
X89459603Y-47972688D01*
X89462311Y-47973589D01*
X89467881Y-47973993D01*
X89477148Y-47974099D01*
X89482489Y-47974103D01*
X89507061Y-47974103D01*
X89510729Y-47961261D01*
X89515440Y-47941358D01*
X89518403Y-47921357D01*
X89519547Y-47902406D01*
X89518801Y-47885649D01*
X89516209Y-47872591D01*
X89509388Y-47856129D01*
X89499716Y-47841312D01*
X89486857Y-47827891D01*
X89470474Y-47815616D01*
X89450231Y-47804237D01*
X89425791Y-47793505D01*
X89396818Y-47783169D01*
X89394868Y-47782537D01*
X89379154Y-47777616D01*
X89361478Y-47772315D01*
X89344116Y-47767305D01*
X89330679Y-47763611D01*
X89299492Y-47755331D01*
X89299492Y-47514241D01*
X89507408Y-47514241D01*
X89507408Y-47462874D01*
X89048344Y-47462874D01*
X89048344Y-47514241D01*
X89253262Y-47514241D01*
X89252444Y-47662840D01*
X89252264Y-47693799D01*
X89252083Y-47720260D01*
X89251887Y-47742619D01*
X89251665Y-47761268D01*
X89251403Y-47776604D01*
X89251089Y-47789021D01*
X89250709Y-47798912D01*
X89250251Y-47806674D01*
X89249703Y-47812700D01*
X89249051Y-47817384D01*
X89248282Y-47821122D01*
X89247385Y-47824308D01*
X89247196Y-47824892D01*
X89237253Y-47848712D01*
X89224297Y-47868745D01*
X89208180Y-47885171D01*
X89188754Y-47898169D01*
X89184848Y-47900182D01*
X89175166Y-47904749D01*
X89167617Y-47907466D01*
X89160158Y-47908807D01*
X89150744Y-47909243D01*
X89145526Y-47909270D01*
X89127280Y-47908234D01*
X89112236Y-47904823D01*
X89099091Y-47898580D01*
X89086546Y-47889046D01*
X89085492Y-47888093D01*
X89071972Y-47872516D01*
X89061256Y-47853202D01*
X89053716Y-47831110D01*
X89051796Y-47822732D01*
X89050182Y-47813600D01*
X89048860Y-47803284D01*
X89047813Y-47791358D01*
X89047026Y-47777392D01*
X89046483Y-47760958D01*
X89046169Y-47741627D01*
X89046068Y-47718971D01*
X89046164Y-47692561D01*
X89046441Y-47661969D01*
X89046712Y-47639603D01*
X89048344Y-47514241D01*
X89048344Y-47462874D01*
X88996179Y-47462874D01*
X88996194Y-47633487D01*
G37*
X88996194Y-47633487D02*
X88996216Y-47668559D01*
X88996280Y-47699091D01*
X88996392Y-47725437D01*
X88996560Y-47747949D01*
X88996789Y-47766982D01*
X88997085Y-47782886D01*
X88997456Y-47796017D01*
X88997908Y-47806725D01*
X88998446Y-47815365D01*
X88999078Y-47822290D01*
X88999732Y-47827338D01*
X89005758Y-47857445D01*
X89014199Y-47883631D01*
X89025247Y-47906335D01*
X89039097Y-47925994D01*
X89047456Y-47935144D01*
X89065081Y-47950139D01*
X89084271Y-47961015D01*
X89105605Y-47967995D01*
X89129666Y-47971305D01*
X89141721Y-47971657D01*
X89153860Y-47971215D01*
X89166165Y-47970043D01*
X89176382Y-47968371D01*
X89178284Y-47967918D01*
X89201646Y-47959347D01*
X89223151Y-47946445D01*
X89242406Y-47929547D01*
X89259023Y-47908988D01*
X89271171Y-47888098D01*
X89277035Y-47874990D01*
X89282453Y-47860708D01*
X89287024Y-47846530D01*
X89290349Y-47833735D01*
X89292029Y-47823602D01*
X89292154Y-47820976D01*
X89293135Y-47815940D01*
X89294644Y-47813858D01*
X89297898Y-47813910D01*
X89304979Y-47815230D01*
X89315054Y-47817593D01*
X89327290Y-47820774D01*
X89340857Y-47824548D01*
X89354921Y-47828690D01*
X89368650Y-47832974D01*
X89381213Y-47837177D01*
X89382358Y-47837579D01*
X89406400Y-47846954D01*
X89425904Y-47856642D01*
X89441227Y-47866939D01*
X89452722Y-47878143D01*
X89460745Y-47890552D01*
X89465652Y-47904463D01*
X89466392Y-47907991D01*
X89467356Y-47922450D01*
X89465627Y-47940498D01*
X89461259Y-47961675D01*
X89459434Y-47968599D01*
X89458923Y-47971092D01*
X89459603Y-47972688D01*
X89462311Y-47973589D01*
X89467881Y-47973993D01*
X89477148Y-47974099D01*
X89482489Y-47974103D01*
X89507061Y-47974103D01*
X89510729Y-47961261D01*
X89515440Y-47941358D01*
X89518403Y-47921357D01*
X89519547Y-47902406D01*
X89518801Y-47885649D01*
X89516209Y-47872591D01*
X89509388Y-47856129D01*
X89499716Y-47841312D01*
X89486857Y-47827891D01*
X89470474Y-47815616D01*
X89450231Y-47804237D01*
X89425791Y-47793505D01*
X89396818Y-47783169D01*
X89394868Y-47782537D01*
X89379154Y-47777616D01*
X89361478Y-47772315D01*
X89344116Y-47767305D01*
X89330679Y-47763611D01*
X89299492Y-47755331D01*
X89299492Y-47514241D01*
X89507408Y-47514241D01*
X89507408Y-47462874D01*
X89048344Y-47462874D01*
X89048344Y-47514241D01*
X89253262Y-47514241D01*
X89252444Y-47662840D01*
X89252264Y-47693799D01*
X89252083Y-47720260D01*
X89251887Y-47742619D01*
X89251665Y-47761268D01*
X89251403Y-47776604D01*
X89251089Y-47789021D01*
X89250709Y-47798912D01*
X89250251Y-47806674D01*
X89249703Y-47812700D01*
X89249051Y-47817384D01*
X89248282Y-47821122D01*
X89247385Y-47824308D01*
X89247196Y-47824892D01*
X89237253Y-47848712D01*
X89224297Y-47868745D01*
X89208180Y-47885171D01*
X89188754Y-47898169D01*
X89184848Y-47900182D01*
X89175166Y-47904749D01*
X89167617Y-47907466D01*
X89160158Y-47908807D01*
X89150744Y-47909243D01*
X89145526Y-47909270D01*
X89127280Y-47908234D01*
X89112236Y-47904823D01*
X89099091Y-47898580D01*
X89086546Y-47889046D01*
X89085492Y-47888093D01*
X89071972Y-47872516D01*
X89061256Y-47853202D01*
X89053716Y-47831110D01*
X89051796Y-47822732D01*
X89050182Y-47813600D01*
X89048860Y-47803284D01*
X89047813Y-47791358D01*
X89047026Y-47777392D01*
X89046483Y-47760958D01*
X89046169Y-47741627D01*
X89046068Y-47718971D01*
X89046164Y-47692561D01*
X89046441Y-47661969D01*
X89046712Y-47639603D01*
X89048344Y-47514241D01*
X89048344Y-47462874D01*
X88996179Y-47462874D01*
X88996194Y-47633487D01*
G36*
X89170462Y-45878391D02*
G01*
X89204095Y-45878549D01*
X89233196Y-45878707D01*
X89258124Y-45878874D01*
X89279240Y-45879061D01*
X89296904Y-45879278D01*
X89311476Y-45879534D01*
X89323314Y-45879840D01*
X89332781Y-45880206D01*
X89340234Y-45880641D01*
X89346035Y-45881156D01*
X89350543Y-45881761D01*
X89354118Y-45882466D01*
X89357120Y-45883281D01*
X89358198Y-45883625D01*
X89384182Y-45894483D01*
X89406760Y-45908768D01*
X89425981Y-45926539D01*
X89441894Y-45947856D01*
X89454549Y-45972780D01*
X89463995Y-46001369D01*
X89467387Y-46016328D01*
X89470040Y-46034973D01*
X89471482Y-46056718D01*
X89471727Y-46079929D01*
X89470791Y-46102970D01*
X89468687Y-46124206D01*
X89466319Y-46138113D01*
X89458257Y-46166433D01*
X89446824Y-46191985D01*
X89432268Y-46214419D01*
X89414836Y-46233386D01*
X89394777Y-46248537D01*
X89383882Y-46254550D01*
X89377947Y-46257465D01*
X89372607Y-46259995D01*
X89367481Y-46262168D01*
X89362191Y-46264013D01*
X89356358Y-46265560D01*
X89349602Y-46266837D01*
X89341545Y-46267873D01*
X89331806Y-46268697D01*
X89320008Y-46269339D01*
X89305771Y-46269827D01*
X89288715Y-46270190D01*
X89268463Y-46270457D01*
X89244634Y-46270657D01*
X89216849Y-46270819D01*
X89184730Y-46270973D01*
X89168016Y-46271050D01*
X88996179Y-46271853D01*
X88996179Y-46323184D01*
X89176577Y-46322416D01*
X89210579Y-46322270D01*
X89240051Y-46322132D01*
X89265356Y-46321992D01*
X89286856Y-46321837D01*
X89304913Y-46321657D01*
X89319891Y-46321438D01*
X89332152Y-46321171D01*
X89342057Y-46320842D01*
X89349970Y-46320441D01*
X89356252Y-46319956D01*
X89361267Y-46319376D01*
X89365377Y-46318687D01*
X89368943Y-46317880D01*
X89372330Y-46316942D01*
X89375320Y-46316039D01*
X89404909Y-46304636D01*
X89431341Y-46289510D01*
X89454586Y-46270698D01*
X89474614Y-46248239D01*
X89491395Y-46222173D01*
X89504897Y-46192537D01*
X89515092Y-46159372D01*
X89520931Y-46129765D01*
X89522561Y-46115165D01*
X89523620Y-46097289D01*
X89524094Y-46077722D01*
X89523969Y-46058048D01*
X89523233Y-46039852D01*
X89521869Y-46024718D01*
X89521852Y-46024584D01*
X89517932Y-46002376D01*
X89512006Y-45979126D01*
X89504650Y-45956823D01*
X89496608Y-45937789D01*
X89480739Y-45910059D01*
X89461974Y-45886255D01*
X89440192Y-45866272D01*
X89415275Y-45850008D01*
X89387101Y-45837359D01*
X89375320Y-45833419D01*
X89371804Y-45832361D01*
X89368413Y-45831444D01*
X89364786Y-45830656D01*
X89360561Y-45829985D01*
X89355374Y-45829420D01*
X89348863Y-45828949D01*
X89340666Y-45828560D01*
X89330421Y-45828242D01*
X89317764Y-45827983D01*
X89302334Y-45827771D01*
X89283768Y-45827595D01*
X89261704Y-45827443D01*
X89235779Y-45827304D01*
X89205631Y-45827166D01*
X89176577Y-45827041D01*
X88996179Y-45826273D01*
X88996179Y-45877607D01*
X89170462Y-45878391D01*
G37*
X89170462Y-45878391D02*
X89204095Y-45878549D01*
X89233196Y-45878707D01*
X89258124Y-45878874D01*
X89279240Y-45879061D01*
X89296904Y-45879278D01*
X89311476Y-45879534D01*
X89323314Y-45879840D01*
X89332781Y-45880206D01*
X89340234Y-45880641D01*
X89346035Y-45881156D01*
X89350543Y-45881761D01*
X89354118Y-45882466D01*
X89357120Y-45883281D01*
X89358198Y-45883625D01*
X89384182Y-45894483D01*
X89406760Y-45908768D01*
X89425981Y-45926539D01*
X89441894Y-45947856D01*
X89454549Y-45972780D01*
X89463995Y-46001369D01*
X89467387Y-46016328D01*
X89470040Y-46034973D01*
X89471482Y-46056718D01*
X89471727Y-46079929D01*
X89470791Y-46102970D01*
X89468687Y-46124206D01*
X89466319Y-46138113D01*
X89458257Y-46166433D01*
X89446824Y-46191985D01*
X89432268Y-46214419D01*
X89414836Y-46233386D01*
X89394777Y-46248537D01*
X89383882Y-46254550D01*
X89377947Y-46257465D01*
X89372607Y-46259995D01*
X89367481Y-46262168D01*
X89362191Y-46264013D01*
X89356358Y-46265560D01*
X89349602Y-46266837D01*
X89341545Y-46267873D01*
X89331806Y-46268697D01*
X89320008Y-46269339D01*
X89305771Y-46269827D01*
X89288715Y-46270190D01*
X89268463Y-46270457D01*
X89244634Y-46270657D01*
X89216849Y-46270819D01*
X89184730Y-46270973D01*
X89168016Y-46271050D01*
X88996179Y-46271853D01*
X88996179Y-46323184D01*
X89176577Y-46322416D01*
X89210579Y-46322270D01*
X89240051Y-46322132D01*
X89265356Y-46321992D01*
X89286856Y-46321837D01*
X89304913Y-46321657D01*
X89319891Y-46321438D01*
X89332152Y-46321171D01*
X89342057Y-46320842D01*
X89349970Y-46320441D01*
X89356252Y-46319956D01*
X89361267Y-46319376D01*
X89365377Y-46318687D01*
X89368943Y-46317880D01*
X89372330Y-46316942D01*
X89375320Y-46316039D01*
X89404909Y-46304636D01*
X89431341Y-46289510D01*
X89454586Y-46270698D01*
X89474614Y-46248239D01*
X89491395Y-46222173D01*
X89504897Y-46192537D01*
X89515092Y-46159372D01*
X89520931Y-46129765D01*
X89522561Y-46115165D01*
X89523620Y-46097289D01*
X89524094Y-46077722D01*
X89523969Y-46058048D01*
X89523233Y-46039852D01*
X89521869Y-46024718D01*
X89521852Y-46024584D01*
X89517932Y-46002376D01*
X89512006Y-45979126D01*
X89504650Y-45956823D01*
X89496608Y-45937789D01*
X89480739Y-45910059D01*
X89461974Y-45886255D01*
X89440192Y-45866272D01*
X89415275Y-45850008D01*
X89387101Y-45837359D01*
X89375320Y-45833419D01*
X89371804Y-45832361D01*
X89368413Y-45831444D01*
X89364786Y-45830656D01*
X89360561Y-45829985D01*
X89355374Y-45829420D01*
X89348863Y-45828949D01*
X89340666Y-45828560D01*
X89330421Y-45828242D01*
X89317764Y-45827983D01*
X89302334Y-45827771D01*
X89283768Y-45827595D01*
X89261704Y-45827443D01*
X89235779Y-45827304D01*
X89205631Y-45827166D01*
X89176577Y-45827041D01*
X88996179Y-45826273D01*
X88996179Y-45877607D01*
X89170462Y-45878391D01*
G36*
X88980132Y-44437173D02*
G01*
X88980995Y-44458423D01*
X88982541Y-44477197D01*
X88984740Y-44492121D01*
X88993343Y-44527703D01*
X89004228Y-44559103D01*
X89017514Y-44586527D01*
X89033322Y-44610181D01*
X89051771Y-44630273D01*
X89072983Y-44647009D01*
X89075954Y-44648952D01*
X89084102Y-44653610D01*
X89093885Y-44658379D01*
X89104266Y-44662857D01*
X89114208Y-44666646D01*
X89122676Y-44669343D01*
X89128633Y-44670549D01*
X89130881Y-44670184D01*
X89132553Y-44667183D01*
X89135502Y-44660738D01*
X89139230Y-44651967D01*
X89141371Y-44646705D01*
X89145317Y-44636614D01*
X89147496Y-44630139D01*
X89148080Y-44626403D01*
X89147242Y-44624532D01*
X89145862Y-44623849D01*
X89123644Y-44614900D01*
X89104258Y-44602862D01*
X89086393Y-44586895D01*
X89083775Y-44584122D01*
X89066966Y-44562416D01*
X89053277Y-44537043D01*
X89042748Y-44508138D01*
X89035423Y-44475839D01*
X89031344Y-44440281D01*
X89030439Y-44411769D01*
X89031729Y-44376391D01*
X89035522Y-44344237D01*
X89041747Y-44315495D01*
X89050332Y-44290355D01*
X89061208Y-44269008D01*
X89074303Y-44251643D01*
X89089547Y-44238450D01*
X89096712Y-44234124D01*
X89106304Y-44229425D01*
X89114275Y-44226860D01*
X89123041Y-44225805D01*
X89129490Y-44225638D01*
X89144744Y-44226799D01*
X89156898Y-44230944D01*
X89167109Y-44238647D01*
X89175001Y-44248245D01*
X89180544Y-44257140D01*
X89185513Y-44267432D01*
X89190003Y-44279549D01*
X89194107Y-44293920D01*
X89197918Y-44310973D01*
X89201532Y-44331136D01*
X89205041Y-44354836D01*
X89208541Y-44382503D01*
X89212124Y-44414563D01*
X89212694Y-44419962D01*
X89216760Y-44456583D01*
X89220845Y-44488734D01*
X89225046Y-44516836D01*
X89229459Y-44541309D01*
X89234181Y-44562574D01*
X89239310Y-44581053D01*
X89244941Y-44597166D01*
X89251172Y-44611335D01*
X89258099Y-44623979D01*
X89260430Y-44627698D01*
X89274746Y-44646595D01*
X89290514Y-44660949D01*
X89308170Y-44671001D01*
X89328151Y-44676992D01*
X89350892Y-44679164D01*
X89353306Y-44679180D01*
X89379965Y-44676964D01*
X89404615Y-44670298D01*
X89427399Y-44659125D01*
X89448462Y-44643387D01*
X89452399Y-44639764D01*
X89470418Y-44620144D01*
X89485783Y-44597877D01*
X89498701Y-44572530D01*
X89509380Y-44543667D01*
X89518025Y-44510854D01*
X89521191Y-44495307D01*
X89522645Y-44484779D01*
X89523880Y-44470486D01*
X89524868Y-44453553D01*
X89525580Y-44435103D01*
X89525988Y-44416262D01*
X89526064Y-44398152D01*
X89525778Y-44381898D01*
X89525103Y-44368625D01*
X89524543Y-44362907D01*
X89518270Y-44325245D01*
X89509346Y-44290893D01*
X89497868Y-44260029D01*
X89483934Y-44232830D01*
X89467641Y-44209473D01*
X89449087Y-44190136D01*
X89428369Y-44174996D01*
X89418376Y-44169605D01*
X89407117Y-44164653D01*
X89395998Y-44160636D01*
X89386027Y-44157828D01*
X89378216Y-44156502D01*
X89373571Y-44156931D01*
X89373037Y-44157329D01*
X89371320Y-44160416D01*
X89368303Y-44166901D01*
X89364507Y-44175643D01*
X89362536Y-44180366D01*
X89353923Y-44201276D01*
X89370862Y-44206613D01*
X89392305Y-44215872D01*
X89411410Y-44229310D01*
X89428096Y-44246765D01*
X89442286Y-44268078D01*
X89453900Y-44293087D01*
X89462858Y-44321632D01*
X89469082Y-44353553D01*
X89472492Y-44388688D01*
X89473163Y-44414225D01*
X89471991Y-44450404D01*
X89468390Y-44482920D01*
X89462232Y-44512426D01*
X89453391Y-44539575D01*
X89445086Y-44558451D01*
X89432535Y-44579791D01*
X89417882Y-44597122D01*
X89401370Y-44610181D01*
X89393285Y-44614649D01*
X89385372Y-44618142D01*
X89378243Y-44620242D01*
X89370109Y-44621295D01*
X89359178Y-44621647D01*
X89356975Y-44621662D01*
X89343467Y-44621296D01*
X89333349Y-44619693D01*
X89325166Y-44616308D01*
X89317463Y-44610596D01*
X89311189Y-44604523D01*
X89304039Y-44596055D01*
X89297657Y-44585977D01*
X89291955Y-44573922D01*
X89286844Y-44559521D01*
X89282238Y-44542406D01*
X89278049Y-44522209D01*
X89274188Y-44498561D01*
X89270568Y-44471095D01*
X89267102Y-44439441D01*
X89263991Y-44406508D01*
X89260388Y-44369853D01*
X89256465Y-44337661D01*
X89252138Y-44309513D01*
X89247324Y-44284985D01*
X89241938Y-44263656D01*
X89235898Y-44245105D01*
X89229120Y-44228909D01*
X89228561Y-44227738D01*
X89216475Y-44206749D01*
X89202549Y-44190233D01*
X89186616Y-44178070D01*
X89168508Y-44170136D01*
X89148057Y-44166308D01*
X89144446Y-44166063D01*
X89119031Y-44166950D01*
X89095451Y-44172332D01*
X89073768Y-44182145D01*
X89054039Y-44196325D01*
X89036325Y-44214807D01*
X89020687Y-44237528D01*
X89007183Y-44264425D01*
X88995874Y-44295432D01*
X88986820Y-44330486D01*
X88985775Y-44335514D01*
X88983345Y-44351261D01*
X88981558Y-44370492D01*
X88980421Y-44392016D01*
X88979943Y-44414640D01*
X88980132Y-44437173D01*
G37*
X88980132Y-44437173D02*
X88980995Y-44458423D01*
X88982541Y-44477197D01*
X88984740Y-44492121D01*
X88993343Y-44527703D01*
X89004228Y-44559103D01*
X89017514Y-44586527D01*
X89033322Y-44610181D01*
X89051771Y-44630273D01*
X89072983Y-44647009D01*
X89075954Y-44648952D01*
X89084102Y-44653610D01*
X89093885Y-44658379D01*
X89104266Y-44662857D01*
X89114208Y-44666646D01*
X89122676Y-44669343D01*
X89128633Y-44670549D01*
X89130881Y-44670184D01*
X89132553Y-44667183D01*
X89135502Y-44660738D01*
X89139230Y-44651967D01*
X89141371Y-44646705D01*
X89145317Y-44636614D01*
X89147496Y-44630139D01*
X89148080Y-44626403D01*
X89147242Y-44624532D01*
X89145862Y-44623849D01*
X89123644Y-44614900D01*
X89104258Y-44602862D01*
X89086393Y-44586895D01*
X89083775Y-44584122D01*
X89066966Y-44562416D01*
X89053277Y-44537043D01*
X89042748Y-44508138D01*
X89035423Y-44475839D01*
X89031344Y-44440281D01*
X89030439Y-44411769D01*
X89031729Y-44376391D01*
X89035522Y-44344237D01*
X89041747Y-44315495D01*
X89050332Y-44290355D01*
X89061208Y-44269008D01*
X89074303Y-44251643D01*
X89089547Y-44238450D01*
X89096712Y-44234124D01*
X89106304Y-44229425D01*
X89114275Y-44226860D01*
X89123041Y-44225805D01*
X89129490Y-44225638D01*
X89144744Y-44226799D01*
X89156898Y-44230944D01*
X89167109Y-44238647D01*
X89175001Y-44248245D01*
X89180544Y-44257140D01*
X89185513Y-44267432D01*
X89190003Y-44279549D01*
X89194107Y-44293920D01*
X89197918Y-44310973D01*
X89201532Y-44331136D01*
X89205041Y-44354836D01*
X89208541Y-44382503D01*
X89212124Y-44414563D01*
X89212694Y-44419962D01*
X89216760Y-44456583D01*
X89220845Y-44488734D01*
X89225046Y-44516836D01*
X89229459Y-44541309D01*
X89234181Y-44562574D01*
X89239310Y-44581053D01*
X89244941Y-44597166D01*
X89251172Y-44611335D01*
X89258099Y-44623979D01*
X89260430Y-44627698D01*
X89274746Y-44646595D01*
X89290514Y-44660949D01*
X89308170Y-44671001D01*
X89328151Y-44676992D01*
X89350892Y-44679164D01*
X89353306Y-44679180D01*
X89379965Y-44676964D01*
X89404615Y-44670298D01*
X89427399Y-44659125D01*
X89448462Y-44643387D01*
X89452399Y-44639764D01*
X89470418Y-44620144D01*
X89485783Y-44597877D01*
X89498701Y-44572530D01*
X89509380Y-44543667D01*
X89518025Y-44510854D01*
X89521191Y-44495307D01*
X89522645Y-44484779D01*
X89523880Y-44470486D01*
X89524868Y-44453553D01*
X89525580Y-44435103D01*
X89525988Y-44416262D01*
X89526064Y-44398152D01*
X89525778Y-44381898D01*
X89525103Y-44368625D01*
X89524543Y-44362907D01*
X89518270Y-44325245D01*
X89509346Y-44290893D01*
X89497868Y-44260029D01*
X89483934Y-44232830D01*
X89467641Y-44209473D01*
X89449087Y-44190136D01*
X89428369Y-44174996D01*
X89418376Y-44169605D01*
X89407117Y-44164653D01*
X89395998Y-44160636D01*
X89386027Y-44157828D01*
X89378216Y-44156502D01*
X89373571Y-44156931D01*
X89373037Y-44157329D01*
X89371320Y-44160416D01*
X89368303Y-44166901D01*
X89364507Y-44175643D01*
X89362536Y-44180366D01*
X89353923Y-44201276D01*
X89370862Y-44206613D01*
X89392305Y-44215872D01*
X89411410Y-44229310D01*
X89428096Y-44246765D01*
X89442286Y-44268078D01*
X89453900Y-44293087D01*
X89462858Y-44321632D01*
X89469082Y-44353553D01*
X89472492Y-44388688D01*
X89473163Y-44414225D01*
X89471991Y-44450404D01*
X89468390Y-44482920D01*
X89462232Y-44512426D01*
X89453391Y-44539575D01*
X89445086Y-44558451D01*
X89432535Y-44579791D01*
X89417882Y-44597122D01*
X89401370Y-44610181D01*
X89393285Y-44614649D01*
X89385372Y-44618142D01*
X89378243Y-44620242D01*
X89370109Y-44621295D01*
X89359178Y-44621647D01*
X89356975Y-44621662D01*
X89343467Y-44621296D01*
X89333349Y-44619693D01*
X89325166Y-44616308D01*
X89317463Y-44610596D01*
X89311189Y-44604523D01*
X89304039Y-44596055D01*
X89297657Y-44585977D01*
X89291955Y-44573922D01*
X89286844Y-44559521D01*
X89282238Y-44542406D01*
X89278049Y-44522209D01*
X89274188Y-44498561D01*
X89270568Y-44471095D01*
X89267102Y-44439441D01*
X89263991Y-44406508D01*
X89260388Y-44369853D01*
X89256465Y-44337661D01*
X89252138Y-44309513D01*
X89247324Y-44284985D01*
X89241938Y-44263656D01*
X89235898Y-44245105D01*
X89229120Y-44228909D01*
X89228561Y-44227738D01*
X89216475Y-44206749D01*
X89202549Y-44190233D01*
X89186616Y-44178070D01*
X89168508Y-44170136D01*
X89148057Y-44166308D01*
X89144446Y-44166063D01*
X89119031Y-44166950D01*
X89095451Y-44172332D01*
X89073768Y-44182145D01*
X89054039Y-44196325D01*
X89036325Y-44214807D01*
X89020687Y-44237528D01*
X89007183Y-44264425D01*
X88995874Y-44295432D01*
X88986820Y-44330486D01*
X88985775Y-44335514D01*
X88983345Y-44351261D01*
X88981558Y-44370492D01*
X88980421Y-44392016D01*
X88979943Y-44414640D01*
X88980132Y-44437173D01*
G36*
X88979484Y-45251647D02*
G01*
X88980912Y-45274305D01*
X88982564Y-45286973D01*
X88990678Y-45323404D01*
X89002582Y-45356796D01*
X89018338Y-45387279D01*
X89038006Y-45414982D01*
X89049737Y-45428266D01*
X89074701Y-45451487D01*
X89101767Y-45470595D01*
X89131260Y-45485750D01*
X89163504Y-45497112D01*
X89198824Y-45504839D01*
X89208605Y-45506279D01*
X89224507Y-45507645D01*
X89243484Y-45508087D01*
X89263997Y-45507669D01*
X89284510Y-45506457D01*
X89303484Y-45504518D01*
X89319381Y-45501917D01*
X89321507Y-45501451D01*
X89356840Y-45491069D01*
X89389255Y-45476872D01*
X89418589Y-45459013D01*
X89444683Y-45437644D01*
X89467374Y-45412917D01*
X89486501Y-45384986D01*
X89501904Y-45354001D01*
X89513420Y-45320117D01*
X89513491Y-45319855D01*
X89516505Y-45307413D01*
X89519131Y-45294372D01*
X89520926Y-45282999D01*
X89521261Y-45280001D01*
X89522855Y-45263124D01*
X89572614Y-45264534D01*
X89622373Y-45265945D01*
X89622373Y-45207954D01*
X89572229Y-45209375D01*
X89522085Y-45210797D01*
X89522085Y-45203352D01*
X89521373Y-45194385D01*
X89519438Y-45182194D01*
X89516577Y-45168201D01*
X89513090Y-45153831D01*
X89509275Y-45140509D01*
X89508224Y-45137267D01*
X89494906Y-45104695D01*
X89477847Y-45075093D01*
X89457308Y-45048621D01*
X89433553Y-45025437D01*
X89406842Y-45005700D01*
X89377440Y-44989569D01*
X89345607Y-44977202D01*
X89311606Y-44968759D01*
X89275699Y-44964397D01*
X89254459Y-44964329D01*
X89254459Y-45017108D01*
X89287999Y-45019478D01*
X89319717Y-45026037D01*
X89349342Y-45036650D01*
X89376603Y-45051183D01*
X89401230Y-45069501D01*
X89422953Y-45091471D01*
X89441499Y-45116958D01*
X89451061Y-45134024D01*
X89455361Y-45143899D01*
X89459779Y-45156299D01*
X89463920Y-45169825D01*
X89467387Y-45183078D01*
X89469784Y-45194660D01*
X89470716Y-45203173D01*
X89470717Y-45203401D01*
X89470717Y-45210808D01*
X89398558Y-45209372D01*
X89326399Y-45207935D01*
X89326399Y-45266031D01*
X89399990Y-45264552D01*
X89473580Y-45263073D01*
X89471950Y-45275083D01*
X89470441Y-45283809D01*
X89468110Y-45294743D01*
X89465696Y-45304600D01*
X89455473Y-45334425D01*
X89441442Y-45361292D01*
X89423802Y-45385053D01*
X89402751Y-45405560D01*
X89378486Y-45422664D01*
X89351206Y-45436218D01*
X89321107Y-45446073D01*
X89288388Y-45452081D01*
X89266470Y-45453826D01*
X89230456Y-45453307D01*
X89196975Y-45448616D01*
X89165976Y-45439736D01*
X89137407Y-45426650D01*
X89111217Y-45409340D01*
X89094907Y-45395304D01*
X89074134Y-45372765D01*
X89057559Y-45348472D01*
X89045071Y-45322123D01*
X89036556Y-45293418D01*
X89031902Y-45262057D01*
X89030997Y-45227738D01*
X89031088Y-45224719D01*
X89032452Y-45201512D01*
X89035029Y-45181701D01*
X89039149Y-45163873D01*
X89045139Y-45146612D01*
X89053328Y-45128504D01*
X89053528Y-45128099D01*
X89069295Y-45101319D01*
X89088193Y-45078256D01*
X89110255Y-45058888D01*
X89135516Y-45043193D01*
X89164008Y-45031150D01*
X89195764Y-45022736D01*
X89219368Y-45019061D01*
X89254459Y-45017108D01*
X89254459Y-44964329D01*
X89238148Y-44964276D01*
X89224296Y-44965300D01*
X89185710Y-44970995D01*
X89150051Y-44980502D01*
X89117418Y-44993738D01*
X89087913Y-45010619D01*
X89061636Y-45031065D01*
X89038688Y-45054991D01*
X89019169Y-45082316D01*
X89003179Y-45112958D01*
X88990820Y-45146832D01*
X88987255Y-45159898D01*
X88983409Y-45179762D01*
X88980792Y-45202755D01*
X88979464Y-45227257D01*
X88979484Y-45251647D01*
G37*
X88979484Y-45251647D02*
X88980912Y-45274305D01*
X88982564Y-45286973D01*
X88990678Y-45323404D01*
X89002582Y-45356796D01*
X89018338Y-45387279D01*
X89038006Y-45414982D01*
X89049737Y-45428266D01*
X89074701Y-45451487D01*
X89101767Y-45470595D01*
X89131260Y-45485750D01*
X89163504Y-45497112D01*
X89198824Y-45504839D01*
X89208605Y-45506279D01*
X89224507Y-45507645D01*
X89243484Y-45508087D01*
X89263997Y-45507669D01*
X89284510Y-45506457D01*
X89303484Y-45504518D01*
X89319381Y-45501917D01*
X89321507Y-45501451D01*
X89356840Y-45491069D01*
X89389255Y-45476872D01*
X89418589Y-45459013D01*
X89444683Y-45437644D01*
X89467374Y-45412917D01*
X89486501Y-45384986D01*
X89501904Y-45354001D01*
X89513420Y-45320117D01*
X89513491Y-45319855D01*
X89516505Y-45307413D01*
X89519131Y-45294372D01*
X89520926Y-45282999D01*
X89521261Y-45280001D01*
X89522855Y-45263124D01*
X89572614Y-45264534D01*
X89622373Y-45265945D01*
X89622373Y-45207954D01*
X89572229Y-45209375D01*
X89522085Y-45210797D01*
X89522085Y-45203352D01*
X89521373Y-45194385D01*
X89519438Y-45182194D01*
X89516577Y-45168201D01*
X89513090Y-45153831D01*
X89509275Y-45140509D01*
X89508224Y-45137267D01*
X89494906Y-45104695D01*
X89477847Y-45075093D01*
X89457308Y-45048621D01*
X89433553Y-45025437D01*
X89406842Y-45005700D01*
X89377440Y-44989569D01*
X89345607Y-44977202D01*
X89311606Y-44968759D01*
X89275699Y-44964397D01*
X89254459Y-44964329D01*
X89254459Y-45017108D01*
X89287999Y-45019478D01*
X89319717Y-45026037D01*
X89349342Y-45036650D01*
X89376603Y-45051183D01*
X89401230Y-45069501D01*
X89422953Y-45091471D01*
X89441499Y-45116958D01*
X89451061Y-45134024D01*
X89455361Y-45143899D01*
X89459779Y-45156299D01*
X89463920Y-45169825D01*
X89467387Y-45183078D01*
X89469784Y-45194660D01*
X89470716Y-45203173D01*
X89470717Y-45203401D01*
X89470717Y-45210808D01*
X89398558Y-45209372D01*
X89326399Y-45207935D01*
X89326399Y-45266031D01*
X89399990Y-45264552D01*
X89473580Y-45263073D01*
X89471950Y-45275083D01*
X89470441Y-45283809D01*
X89468110Y-45294743D01*
X89465696Y-45304600D01*
X89455473Y-45334425D01*
X89441442Y-45361292D01*
X89423802Y-45385053D01*
X89402751Y-45405560D01*
X89378486Y-45422664D01*
X89351206Y-45436218D01*
X89321107Y-45446073D01*
X89288388Y-45452081D01*
X89266470Y-45453826D01*
X89230456Y-45453307D01*
X89196975Y-45448616D01*
X89165976Y-45439736D01*
X89137407Y-45426650D01*
X89111217Y-45409340D01*
X89094907Y-45395304D01*
X89074134Y-45372765D01*
X89057559Y-45348472D01*
X89045071Y-45322123D01*
X89036556Y-45293418D01*
X89031902Y-45262057D01*
X89030997Y-45227738D01*
X89031088Y-45224719D01*
X89032452Y-45201512D01*
X89035029Y-45181701D01*
X89039149Y-45163873D01*
X89045139Y-45146612D01*
X89053328Y-45128504D01*
X89053528Y-45128099D01*
X89069295Y-45101319D01*
X89088193Y-45078256D01*
X89110255Y-45058888D01*
X89135516Y-45043193D01*
X89164008Y-45031150D01*
X89195764Y-45022736D01*
X89219368Y-45019061D01*
X89254459Y-45017108D01*
X89254459Y-44964329D01*
X89238148Y-44964276D01*
X89224296Y-44965300D01*
X89185710Y-44970995D01*
X89150051Y-44980502D01*
X89117418Y-44993738D01*
X89087913Y-45010619D01*
X89061636Y-45031065D01*
X89038688Y-45054991D01*
X89019169Y-45082316D01*
X89003179Y-45112958D01*
X88990820Y-45146832D01*
X88987255Y-45159898D01*
X88983409Y-45179762D01*
X88980792Y-45202755D01*
X88979464Y-45227257D01*
X88979484Y-45251647D01*
%TD*%
M02*
