  0
SECTION
  2
HEADER
  9
$ANGBASE
  50
0.0
  9
$ANGDIR
  70
1
  9
$MEASUREMENT
  70
0
  0
ENDSEC
  0
SECTION
  2
TABLES
  0
TABLE
  2
LTYPE
  70
4
  0
LTYPE
  5
40F
  2
CONTINUOUS
  70
0
  3
Solid line
  72
65
  73
0
  40
0.0
  0
LTYPE
  5
410
  2
DASHDOT
 70
0
  3
Dash Dot ____ _ ____ _
 72
65
 73
4
 40
2.0
 49
1.25
 49
-0.25
 49
0.25
 49
-0.25
  0
LTYPE
  5
411
  2
DASHED
 70
0
  3
Dashed __ __ __ __ __
 72
65
 73
2
 40
0.75
 49
0.5
 49
-0.25
  0
LTYPE
  5
43B
  2
DOTTED
 70
0
  3
Dotted .  .  .  .
 72
65
 73
2
 40
0.2
 49
0.0
 49
-0.2
  0
ENDTAB
  0
TABLE
  2
STYLE
  70
4
  0
STYLE
  2
KICAD
  70
0
  40
0
  41
1
  42
1
  50
0
  71
0
  3
isocp.shx
  0
STYLE
  2
KICADB
  70
0
  40
0
  41
1
  42
1
  50
0
  71
0
  3
isocp.shx
  0
STYLE
  2
KICADI
  70
0
  40
0
  41
1
  42
1
  50
15
  71
0
  3
isocp.shx
  0
STYLE
  2
KICADBI
  70
0
  40
0
  41
1
  42
1
  50
15
  71
0
  3
isocp.shx
  0
ENDTAB
  0
TABLE
  2
LAYER
  70
1
  0
LAYER
  2
BLACK
  70
0
  62
7
  6
CONTINUOUS
  0
ENDTAB
  0
ENDSEC
  0
SECTION
  2
ENTITIES
0
LINE
8
BLACK
6
CONTINUOUS
10
3.29471
20
-3.46111
11
3.29472
21
-3.46111
0
LINE
8
BLACK
6
CONTINUOUS
10
3.29472
20
-3.46111
11
3.29472
21
-3.46111
0
LINE
8
BLACK
6
CONTINUOUS
10
3.29472
20
-3.46111
11
3.29473
21
-3.46111
0
LINE
8
BLACK
6
CONTINUOUS
10
3.29473
20
-3.46111
11
3.295
21
-3.46114
0
LINE
8
BLACK
6
CONTINUOUS
10
3.295
20
-3.46114
11
3.29528
21
-3.46117
0
LINE
8
BLACK
6
CONTINUOUS
10
3.29528
20
-3.46117
11
3.29528
21
-3.46117
0
LINE
8
BLACK
6
CONTINUOUS
10
3.29528
20
-3.46117
11
3.29529
21
-3.46117
0
LINE
8
BLACK
6
CONTINUOUS
10
3.29529
20
-3.46117
11
3.29529
21
-3.46117
0
LINE
8
BLACK
6
CONTINUOUS
10
3.29529
20
-3.46117
11
3.2953
21
-3.46117
0
LINE
8
BLACK
6
CONTINUOUS
10
3.2953
20
-3.46117
11
3.29556
21
-3.46125
0
LINE
8
BLACK
6
CONTINUOUS
10
3.29556
20
-3.46125
11
3.29556
21
-3.46125
0
LINE
8
BLACK
6
CONTINUOUS
10
3.29556
20
-3.46125
11
3.29583
21
-3.46133
0
LINE
8
BLACK
6
CONTINUOUS
10
3.29583
20
-3.46133
11
3.29583
21
-3.46134
0
LINE
8
BLACK
6
CONTINUOUS
10
3.29583
20
-3.46134
11
3.29584
21
-3.46134
0
LINE
8
BLACK
6
CONTINUOUS
10
3.29584
20
-3.46134
11
3.29584
21
-3.46134
0
LINE
8
BLACK
6
CONTINUOUS
10
3.29584
20
-3.46134
11
3.29585
21
-3.46134
0
LINE
8
BLACK
6
CONTINUOUS
10
3.29585
20
-3.46134
11
3.29609
21
-3.46147
0
LINE
8
BLACK
6
CONTINUOUS
10
3.29609
20
-3.46147
11
3.29634
21
-3.46161
0
LINE
8
BLACK
6
CONTINUOUS
10
3.29634
20
-3.46161
11
3.29634
21
-3.46161
0
LINE
8
BLACK
6
CONTINUOUS
10
3.29634
20
-3.46161
11
3.29635
21
-3.46161
0
LINE
8
BLACK
6
CONTINUOUS
10
3.29635
20
-3.46161
11
3.29635
21
-3.46162
0
LINE
8
BLACK
6
CONTINUOUS
10
3.29635
20
-3.46162
11
3.29635
21
-3.46162
0
LINE
8
BLACK
6
CONTINUOUS
10
3.29635
20
-3.46162
11
3.29657
21
-3.4618
0
LINE
8
BLACK
6
CONTINUOUS
10
3.29657
20
-3.4618
11
3.29678
21
-3.46197
0
LINE
8
BLACK
6
CONTINUOUS
10
3.29678
20
-3.46197
11
3.29866
21
-3.46385
0
LINE
8
BLACK
6
CONTINUOUS
10
3.29866
20
-3.46385
11
3.29867
21
-3.46386
0
LINE
8
BLACK
6
CONTINUOUS
10
3.29867
20
-3.46386
11
3.29867
21
-3.46386
0
LINE
8
BLACK
6
CONTINUOUS
10
3.29867
20
-3.46386
11
3.29867
21
-3.46386
0
LINE
8
BLACK
6
CONTINUOUS
10
3.29867
20
-3.46386
11
3.29869
21
-3.46388
0
LINE
8
BLACK
6
CONTINUOUS
10
3.29869
20
-3.46388
11
3.29886
21
-3.4641
0
LINE
8
BLACK
6
CONTINUOUS
10
3.29886
20
-3.4641
11
3.29903
21
-3.46431
0
LINE
8
BLACK
6
CONTINUOUS
10
3.29903
20
-3.46431
11
3.29904
21
-3.46432
0
LINE
8
BLACK
6
CONTINUOUS
10
3.29904
20
-3.46432
11
3.29905
21
-3.46433
0
LINE
8
BLACK
6
CONTINUOUS
10
3.29905
20
-3.46433
11
3.29917
21
-3.46457
0
LINE
8
BLACK
6
CONTINUOUS
10
3.29917
20
-3.46457
11
3.2993
21
-3.46482
0
LINE
8
BLACK
6
CONTINUOUS
10
3.2993
20
-3.46482
11
3.29931
21
-3.46483
0
LINE
8
BLACK
6
CONTINUOUS
10
3.29931
20
-3.46483
11
3.29931
21
-3.46484
0
LINE
8
BLACK
6
CONTINUOUS
10
3.29931
20
-3.46484
11
3.29939
21
-3.46511
0
LINE
8
BLACK
6
CONTINUOUS
10
3.29939
20
-3.46511
11
3.29947
21
-3.46537
0
LINE
8
BLACK
6
CONTINUOUS
10
3.29947
20
-3.46537
11
3.29947
21
-3.46538
0
LINE
8
BLACK
6
CONTINUOUS
10
3.29947
20
-3.46538
11
3.29947
21
-3.46539
0
LINE
8
BLACK
6
CONTINUOUS
10
3.29947
20
-3.46539
11
3.2995
21
-3.46567
0
LINE
8
BLACK
6
CONTINUOUS
10
3.2995
20
-3.46567
11
3.29952
21
-3.46595
0
LINE
8
BLACK
6
CONTINUOUS
10
3.29952
20
-3.46595
11
3.29952
21
-3.46596
0
LINE
8
BLACK
6
CONTINUOUS
10
3.29952
20
-3.46596
11
3.29952
21
-3.46597
0
LINE
8
BLACK
6
CONTINUOUS
10
3.29952
20
-3.46597
11
3.29949
21
-3.46624
0
LINE
8
BLACK
6
CONTINUOUS
10
3.29949
20
-3.46624
11
3.29946
21
-3.46652
0
LINE
8
BLACK
6
CONTINUOUS
10
3.29946
20
-3.46652
11
3.29946
21
-3.46653
0
LINE
8
BLACK
6
CONTINUOUS
10
3.29946
20
-3.46653
11
3.29946
21
-3.46654
0
LINE
8
BLACK
6
CONTINUOUS
10
3.29946
20
-3.46654
11
3.29938
21
-3.4668
0
LINE
8
BLACK
6
CONTINUOUS
10
3.29938
20
-3.4668
11
3.2993
21
-3.46707
0
LINE
8
BLACK
6
CONTINUOUS
10
3.2993
20
-3.46707
11
3.29929
21
-3.46708
0
LINE
8
BLACK
6
CONTINUOUS
10
3.29929
20
-3.46708
11
3.29929
21
-3.46709
0
LINE
8
BLACK
6
CONTINUOUS
10
3.29929
20
-3.46709
11
3.29916
21
-3.46733
0
LINE
8
BLACK
6
CONTINUOUS
10
3.29916
20
-3.46733
11
3.29902
21
-3.46758
0
LINE
8
BLACK
6
CONTINUOUS
10
3.29902
20
-3.46758
11
3.29902
21
-3.46759
0
LINE
8
BLACK
6
CONTINUOUS
10
3.29902
20
-3.46759
11
3.29901
21
-3.4676
0
LINE
8
BLACK
6
CONTINUOUS
10
3.29901
20
-3.4676
11
3.29883
21
-3.46781
0
LINE
8
BLACK
6
CONTINUOUS
10
3.29883
20
-3.46781
11
3.29866
21
-3.46802
0
LINE
8
BLACK
6
CONTINUOUS
10
3.29866
20
-3.46802
11
3.29678
21
-3.4699
0
LINE
8
BLACK
6
CONTINUOUS
10
3.29678
20
-3.4699
11
3.29677
21
-3.46991
0
LINE
8
BLACK
6
CONTINUOUS
10
3.29677
20
-3.46991
11
3.29677
21
-3.46991
0
LINE
8
BLACK
6
CONTINUOUS
10
3.29677
20
-3.46991
11
3.29677
21
-3.46991
0
LINE
8
BLACK
6
CONTINUOUS
10
3.29677
20
-3.46991
11
3.29676
21
-3.46992
0
LINE
8
BLACK
6
CONTINUOUS
10
3.29676
20
-3.46992
11
3.29676
21
-3.46992
0
LINE
8
BLACK
6
CONTINUOUS
10
3.29676
20
-3.46992
11
3.29676
21
-3.46992
0
LINE
8
BLACK
6
CONTINUOUS
10
3.29676
20
-3.46992
11
3.29675
21
-3.46993
0
LINE
8
BLACK
6
CONTINUOUS
10
3.29675
20
-3.46993
11
3.29653
21
-3.4701
0
LINE
8
BLACK
6
CONTINUOUS
10
3.29653
20
-3.4701
11
3.29632
21
-3.47028
0
LINE
8
BLACK
6
CONTINUOUS
10
3.29632
20
-3.47028
11
3.29632
21
-3.47028
0
LINE
8
BLACK
6
CONTINUOUS
10
3.29632
20
-3.47028
11
3.29631
21
-3.47028
0
LINE
8
BLACK
6
CONTINUOUS
10
3.29631
20
-3.47028
11
3.29631
21
-3.47028
0
LINE
8
BLACK
6
CONTINUOUS
10
3.29631
20
-3.47028
11
3.2963
21
-3.47029
0
LINE
8
BLACK
6
CONTINUOUS
10
3.2963
20
-3.47029
11
3.29605
21
-3.47042
0
LINE
8
BLACK
6
CONTINUOUS
10
3.29605
20
-3.47042
11
3.29581
21
-3.47054
0
LINE
8
BLACK
6
CONTINUOUS
10
3.29581
20
-3.47054
11
3.29581
21
-3.47055
0
LINE
8
BLACK
6
CONTINUOUS
10
3.29581
20
-3.47055
11
3.2958
21
-3.47055
0
LINE
8
BLACK
6
CONTINUOUS
10
3.2958
20
-3.47055
11
3.2958
21
-3.47055
0
LINE
8
BLACK
6
CONTINUOUS
10
3.2958
20
-3.47055
11
3.29579
21
-3.47055
0
LINE
8
BLACK
6
CONTINUOUS
10
3.29579
20
-3.47055
11
3.29552
21
-3.47063
0
LINE
8
BLACK
6
CONTINUOUS
10
3.29552
20
-3.47063
11
3.29526
21
-3.47071
0
LINE
8
BLACK
6
CONTINUOUS
10
3.29526
20
-3.47071
11
3.29525
21
-3.47071
0
LINE
8
BLACK
6
CONTINUOUS
10
3.29525
20
-3.47071
11
3.29525
21
-3.47071
0
LINE
8
BLACK
6
CONTINUOUS
10
3.29525
20
-3.47071
11
3.29524
21
-3.47071
0
LINE
8
BLACK
6
CONTINUOUS
10
3.29524
20
-3.47071
11
3.29524
21
-3.47071
0
LINE
8
BLACK
6
CONTINUOUS
10
3.29524
20
-3.47071
11
3.29496
21
-3.47074
0
LINE
8
BLACK
6
CONTINUOUS
10
3.29496
20
-3.47074
11
3.29468
21
-3.47076
0
LINE
8
BLACK
6
CONTINUOUS
10
3.29468
20
-3.47076
11
3.29468
21
-3.47076
0
LINE
8
BLACK
6
CONTINUOUS
10
3.29468
20
-3.47076
11
3.29467
21
-3.47076
0
LINE
8
BLACK
6
CONTINUOUS
10
3.29467
20
-3.47076
11
3.29467
21
-3.47076
0
LINE
8
BLACK
6
CONTINUOUS
10
3.29467
20
-3.47076
11
3.29466
21
-3.47076
0
LINE
8
BLACK
6
CONTINUOUS
10
3.29466
20
-3.47076
11
3.29439
21
-3.47073
0
LINE
8
BLACK
6
CONTINUOUS
10
3.29439
20
-3.47073
11
3.29411
21
-3.4707
0
LINE
8
BLACK
6
CONTINUOUS
10
3.29411
20
-3.4707
11
3.29411
21
-3.4707
0
LINE
8
BLACK
6
CONTINUOUS
10
3.29411
20
-3.4707
11
3.2941
21
-3.4707
0
LINE
8
BLACK
6
CONTINUOUS
10
3.2941
20
-3.4707
11
3.2941
21
-3.4707
0
LINE
8
BLACK
6
CONTINUOUS
10
3.2941
20
-3.4707
11
3.29409
21
-3.4707
0
LINE
8
BLACK
6
CONTINUOUS
10
3.29409
20
-3.4707
11
3.29382
21
-3.47062
0
LINE
8
BLACK
6
CONTINUOUS
10
3.29382
20
-3.47062
11
3.29356
21
-3.47054
0
LINE
8
BLACK
6
CONTINUOUS
10
3.29356
20
-3.47054
11
3.29356
21
-3.47053
0
LINE
8
BLACK
6
CONTINUOUS
10
3.29356
20
-3.47053
11
3.29355
21
-3.47053
0
LINE
8
BLACK
6
CONTINUOUS
10
3.29355
20
-3.47053
11
3.29355
21
-3.47053
0
LINE
8
BLACK
6
CONTINUOUS
10
3.29355
20
-3.47053
11
3.29354
21
-3.47053
0
LINE
8
BLACK
6
CONTINUOUS
10
3.29354
20
-3.47053
11
3.29329
21
-3.47039
0
LINE
8
BLACK
6
CONTINUOUS
10
3.29329
20
-3.47039
11
3.29305
21
-3.47026
0
LINE
8
BLACK
6
CONTINUOUS
10
3.29305
20
-3.47026
11
3.29305
21
-3.47026
0
LINE
8
BLACK
6
CONTINUOUS
10
3.29305
20
-3.47026
11
3.29304
21
-3.47026
0
LINE
8
BLACK
6
CONTINUOUS
10
3.29304
20
-3.47026
11
3.29304
21
-3.47025
0
LINE
8
BLACK
6
CONTINUOUS
10
3.29304
20
-3.47025
11
3.29303
21
-3.47025
0
LINE
8
BLACK
6
CONTINUOUS
10
3.29303
20
-3.47025
11
3.29282
21
-3.47007
0
LINE
8
BLACK
6
CONTINUOUS
10
3.29282
20
-3.47007
11
3.29261
21
-3.4699
0
LINE
8
BLACK
6
CONTINUOUS
10
3.29261
20
-3.4699
11
3.29073
21
-3.46802
0
LINE
8
BLACK
6
CONTINUOUS
10
3.29073
20
-3.46802
11
3.29072
21
-3.46801
0
LINE
8
BLACK
6
CONTINUOUS
10
3.29072
20
-3.46801
11
3.29072
21
-3.46801
0
LINE
8
BLACK
6
CONTINUOUS
10
3.29072
20
-3.46801
11
3.29072
21
-3.46801
0
LINE
8
BLACK
6
CONTINUOUS
10
3.29072
20
-3.46801
11
3.2907
21
-3.46799
0
LINE
8
BLACK
6
CONTINUOUS
10
3.2907
20
-3.46799
11
3.29053
21
-3.46778
0
LINE
8
BLACK
6
CONTINUOUS
10
3.29053
20
-3.46778
11
3.29035
21
-3.46756
0
LINE
8
BLACK
6
CONTINUOUS
10
3.29035
20
-3.46756
11
3.29035
21
-3.46755
0
LINE
8
BLACK
6
CONTINUOUS
10
3.29035
20
-3.46755
11
3.29034
21
-3.46754
0
LINE
8
BLACK
6
CONTINUOUS
10
3.29034
20
-3.46754
11
3.29022
21
-3.4673
0
LINE
8
BLACK
6
CONTINUOUS
10
3.29022
20
-3.4673
11
3.29009
21
-3.46705
0
LINE
8
BLACK
6
CONTINUOUS
10
3.29009
20
-3.46705
11
3.29008
21
-3.46704
0
LINE
8
BLACK
6
CONTINUOUS
10
3.29008
20
-3.46704
11
3.29008
21
-3.46703
0
LINE
8
BLACK
6
CONTINUOUS
10
3.29008
20
-3.46703
11
3.29
21
-3.46676
0
LINE
8
BLACK
6
CONTINUOUS
10
3.29
20
-3.46676
11
3.28992
21
-3.4665
0
LINE
8
BLACK
6
CONTINUOUS
10
3.28992
20
-3.4665
11
3.28992
21
-3.46649
0
LINE
8
BLACK
6
CONTINUOUS
10
3.28992
20
-3.46649
11
3.28992
21
-3.46648
0
LINE
8
BLACK
6
CONTINUOUS
10
3.28992
20
-3.46648
11
3.28989
21
-3.4662
0
LINE
8
BLACK
6
CONTINUOUS
10
3.28989
20
-3.4662
11
3.28987
21
-3.46593
0
LINE
8
BLACK
6
CONTINUOUS
10
3.28987
20
-3.46593
11
3.28987
21
-3.46591
0
LINE
8
BLACK
6
CONTINUOUS
10
3.28987
20
-3.46591
11
3.28987
21
-3.4659
0
LINE
8
BLACK
6
CONTINUOUS
10
3.28987
20
-3.4659
11
3.2899
21
-3.46563
0
LINE
8
BLACK
6
CONTINUOUS
10
3.2899
20
-3.46563
11
3.28993
21
-3.46535
0
LINE
8
BLACK
6
CONTINUOUS
10
3.28993
20
-3.46535
11
3.28993
21
-3.46534
0
LINE
8
BLACK
6
CONTINUOUS
10
3.28993
20
-3.46534
11
3.28993
21
-3.46533
0
LINE
8
BLACK
6
CONTINUOUS
10
3.28993
20
-3.46533
11
3.29001
21
-3.46507
0
LINE
8
BLACK
6
CONTINUOUS
10
3.29001
20
-3.46507
11
3.29009
21
-3.4648
0
LINE
8
BLACK
6
CONTINUOUS
10
3.29009
20
-3.4648
11
3.2901
21
-3.46479
0
LINE
8
BLACK
6
CONTINUOUS
10
3.2901
20
-3.46479
11
3.2901
21
-3.46478
0
LINE
8
BLACK
6
CONTINUOUS
10
3.2901
20
-3.46478
11
3.29024
21
-3.46454
0
LINE
8
BLACK
6
CONTINUOUS
10
3.29024
20
-3.46454
11
3.29037
21
-3.46429
0
LINE
8
BLACK
6
CONTINUOUS
10
3.29037
20
-3.46429
11
3.29037
21
-3.46428
0
LINE
8
BLACK
6
CONTINUOUS
10
3.29037
20
-3.46428
11
3.29038
21
-3.46428
0
LINE
8
BLACK
6
CONTINUOUS
10
3.29038
20
-3.46428
11
3.29056
21
-3.46406
0
LINE
8
BLACK
6
CONTINUOUS
10
3.29056
20
-3.46406
11
3.29073
21
-3.46385
0
LINE
8
BLACK
6
CONTINUOUS
10
3.29073
20
-3.46385
11
3.29261
21
-3.46197
0
LINE
8
BLACK
6
CONTINUOUS
10
3.29261
20
-3.46197
11
3.29262
21
-3.46196
0
LINE
8
BLACK
6
CONTINUOUS
10
3.29262
20
-3.46196
11
3.29262
21
-3.46196
0
LINE
8
BLACK
6
CONTINUOUS
10
3.29262
20
-3.46196
11
3.29262
21
-3.46196
0
LINE
8
BLACK
6
CONTINUOUS
10
3.29262
20
-3.46196
11
3.29263
21
-3.46195
0
LINE
8
BLACK
6
CONTINUOUS
10
3.29263
20
-3.46195
11
3.29263
21
-3.46195
0
LINE
8
BLACK
6
CONTINUOUS
10
3.29263
20
-3.46195
11
3.29263
21
-3.46195
0
LINE
8
BLACK
6
CONTINUOUS
10
3.29263
20
-3.46195
11
3.29264
21
-3.46194
0
LINE
8
BLACK
6
CONTINUOUS
10
3.29264
20
-3.46194
11
3.29285
21
-3.46177
0
LINE
8
BLACK
6
CONTINUOUS
10
3.29285
20
-3.46177
11
3.29307
21
-3.4616
0
LINE
8
BLACK
6
CONTINUOUS
10
3.29307
20
-3.4616
11
3.29307
21
-3.46159
0
LINE
8
BLACK
6
CONTINUOUS
10
3.29307
20
-3.46159
11
3.29308
21
-3.46159
0
LINE
8
BLACK
6
CONTINUOUS
10
3.29308
20
-3.46159
11
3.29308
21
-3.46159
0
LINE
8
BLACK
6
CONTINUOUS
10
3.29308
20
-3.46159
11
3.29309
21
-3.46158
0
LINE
8
BLACK
6
CONTINUOUS
10
3.29309
20
-3.46158
11
3.29333
21
-3.46146
0
LINE
8
BLACK
6
CONTINUOUS
10
3.29333
20
-3.46146
11
3.29358
21
-3.46133
0
LINE
8
BLACK
6
CONTINUOUS
10
3.29358
20
-3.46133
11
3.29358
21
-3.46133
0
LINE
8
BLACK
6
CONTINUOUS
10
3.29358
20
-3.46133
11
3.29359
21
-3.46132
0
LINE
8
BLACK
6
CONTINUOUS
10
3.29359
20
-3.46132
11
3.29359
21
-3.46132
0
LINE
8
BLACK
6
CONTINUOUS
10
3.29359
20
-3.46132
11
3.2936
21
-3.46132
0
LINE
8
BLACK
6
CONTINUOUS
10
3.2936
20
-3.46132
11
3.29386
21
-3.46124
0
LINE
8
BLACK
6
CONTINUOUS
10
3.29386
20
-3.46124
11
3.29413
21
-3.46116
0
LINE
8
BLACK
6
CONTINUOUS
10
3.29413
20
-3.46116
11
3.29414
21
-3.46116
0
LINE
8
BLACK
6
CONTINUOUS
10
3.29414
20
-3.46116
11
3.29414
21
-3.46116
0
LINE
8
BLACK
6
CONTINUOUS
10
3.29414
20
-3.46116
11
3.29415
21
-3.46116
0
LINE
8
BLACK
6
CONTINUOUS
10
3.29415
20
-3.46116
11
3.29415
21
-3.46116
0
LINE
8
BLACK
6
CONTINUOUS
10
3.29415
20
-3.46116
11
3.29443
21
-3.46113
0
LINE
8
BLACK
6
CONTINUOUS
10
3.29443
20
-3.46113
11
3.2947
21
-3.46111
0
LINE
8
BLACK
6
CONTINUOUS
10
3.2947
20
-3.46111
11
3.29471
21
-3.46111
0
LINE
8
BLACK
6
CONTINUOUS
10
3.36777
20
-3.47076
11
3.3672
21
-3.4707
0
LINE
8
BLACK
6
CONTINUOUS
10
3.3672
20
-3.4707
11
3.36665
21
-3.47052
0
LINE
8
BLACK
6
CONTINUOUS
10
3.36665
20
-3.47052
11
3.36614
21
-3.47025
0
LINE
8
BLACK
6
CONTINUOUS
10
3.36614
20
-3.47025
11
3.3657
21
-3.46988
0
LINE
8
BLACK
6
CONTINUOUS
10
3.3657
20
-3.46988
11
3.36534
21
-3.46943
0
LINE
8
BLACK
6
CONTINUOUS
10
3.36534
20
-3.46943
11
3.36507
21
-3.46892
0
LINE
8
BLACK
6
CONTINUOUS
10
3.36507
20
-3.46892
11
3.36491
21
-3.46836
0
LINE
8
BLACK
6
CONTINUOUS
10
3.36491
20
-3.46836
11
3.36486
21
-3.46779
0
LINE
8
BLACK
6
CONTINUOUS
10
3.36486
20
-3.46779
11
3.36492
21
-3.46722
0
LINE
8
BLACK
6
CONTINUOUS
10
3.36492
20
-3.46722
11
3.36509
21
-3.46667
0
LINE
8
BLACK
6
CONTINUOUS
10
3.36509
20
-3.46667
11
3.36536
21
-3.46616
0
LINE
8
BLACK
6
CONTINUOUS
10
3.36536
20
-3.46616
11
3.36573
21
-3.46572
0
LINE
8
BLACK
6
CONTINUOUS
10
3.36573
20
-3.46572
11
3.36618
21
-3.46535
0
LINE
8
BLACK
6
CONTINUOUS
10
3.36618
20
-3.46535
11
3.36669
21
-3.46508
0
LINE
8
BLACK
6
CONTINUOUS
10
3.36669
20
-3.46508
11
3.36724
21
-3.46491
0
LINE
8
BLACK
6
CONTINUOUS
10
3.36724
20
-3.46491
11
3.36781
21
-3.46486
0
LINE
8
BLACK
6
CONTINUOUS
10
3.36781
20
-3.46486
11
3.38505
21
-3.46486
0
LINE
8
BLACK
6
CONTINUOUS
10
3.38505
20
-3.46486
11
3.3676
21
-3.4474
0
LINE
8
BLACK
6
CONTINUOUS
10
3.3676
20
-3.4474
11
3.36757
21
-3.44737
0
LINE
8
BLACK
6
CONTINUOUS
10
3.36757
20
-3.44737
11
3.36751
21
-3.4473
0
LINE
8
BLACK
6
CONTINUOUS
10
3.36751
20
-3.4473
11
3.36745
21
-3.44724
0
LINE
8
BLACK
6
CONTINUOUS
10
3.36745
20
-3.44724
11
3.36733
21
-3.44708
0
LINE
8
BLACK
6
CONTINUOUS
10
3.36733
20
-3.44708
11
3.36721
21
-3.44692
0
LINE
8
BLACK
6
CONTINUOUS
10
3.36721
20
-3.44692
11
3.36717
21
-3.44684
0
LINE
8
BLACK
6
CONTINUOUS
10
3.36717
20
-3.44684
11
3.36712
21
-3.44677
0
LINE
8
BLACK
6
CONTINUOUS
10
3.36712
20
-3.44677
11
3.36704
21
-3.44659
0
LINE
8
BLACK
6
CONTINUOUS
10
3.36704
20
-3.44659
11
3.36694
21
-3.44641
0
LINE
8
BLACK
6
CONTINUOUS
10
3.36694
20
-3.44641
11
3.36692
21
-3.44633
0
LINE
8
BLACK
6
CONTINUOUS
10
3.36692
20
-3.44633
11
3.36688
21
-3.44625
0
LINE
8
BLACK
6
CONTINUOUS
10
3.36688
20
-3.44625
11
3.36501
21
-3.44062
0
LINE
8
BLACK
6
CONTINUOUS
10
3.36501
20
-3.44062
11
3.365
21
-3.44058
0
LINE
8
BLACK
6
CONTINUOUS
10
3.365
20
-3.44058
11
3.36496
21
-3.44042
0
LINE
8
BLACK
6
CONTINUOUS
10
3.36496
20
-3.44042
11
3.36491
21
-3.44026
0
LINE
8
BLACK
6
CONTINUOUS
10
3.36491
20
-3.44026
11
3.3649
21
-3.44014
0
LINE
8
BLACK
6
CONTINUOUS
10
3.3649
20
-3.44014
11
3.36488
21
-3.44002
0
LINE
8
BLACK
6
CONTINUOUS
10
3.36488
20
-3.44002
11
3.36487
21
-3.43985
0
LINE
8
BLACK
6
CONTINUOUS
10
3.36487
20
-3.43985
11
3.36486
21
-3.43969
0
LINE
8
BLACK
6
CONTINUOUS
10
3.36486
20
-3.43969
11
3.36486
21
-3.43594
0
LINE
8
BLACK
6
CONTINUOUS
10
3.36486
20
-3.43594
11
3.36486
21
-3.4359
0
LINE
8
BLACK
6
CONTINUOUS
10
3.36486
20
-3.4359
11
3.36487
21
-3.43581
0
LINE
8
BLACK
6
CONTINUOUS
10
3.36487
20
-3.43581
11
3.36487
21
-3.43572
0
LINE
8
BLACK
6
CONTINUOUS
10
3.36487
20
-3.43572
11
3.3649
21
-3.43553
0
LINE
8
BLACK
6
CONTINUOUS
10
3.3649
20
-3.43553
11
3.36492
21
-3.43533
0
LINE
8
BLACK
6
CONTINUOUS
10
3.36492
20
-3.43533
11
3.36495
21
-3.43524
0
LINE
8
BLACK
6
CONTINUOUS
10
3.36495
20
-3.43524
11
3.36496
21
-3.43516
0
LINE
8
BLACK
6
CONTINUOUS
10
3.36496
20
-3.43516
11
3.36504
21
-3.43497
0
LINE
8
BLACK
6
CONTINUOUS
10
3.36504
20
-3.43497
11
3.3651
21
-3.43478
0
LINE
8
BLACK
6
CONTINUOUS
10
3.3651
20
-3.43478
11
3.36514
21
-3.4347
0
LINE
8
BLACK
6
CONTINUOUS
10
3.36514
20
-3.4347
11
3.36517
21
-3.43462
0
LINE
8
BLACK
6
CONTINUOUS
10
3.36517
20
-3.43462
11
3.36704
21
-3.43087
0
LINE
8
BLACK
6
CONTINUOUS
10
3.36704
20
-3.43087
11
3.36706
21
-3.43083
0
LINE
8
BLACK
6
CONTINUOUS
10
3.36706
20
-3.43083
11
3.36715
21
-3.43069
0
LINE
8
BLACK
6
CONTINUOUS
10
3.36715
20
-3.43069
11
3.36723
21
-3.43055
0
LINE
8
BLACK
6
CONTINUOUS
10
3.36723
20
-3.43055
11
3.36731
21
-3.43045
0
LINE
8
BLACK
6
CONTINUOUS
10
3.36731
20
-3.43045
11
3.36738
21
-3.43035
0
LINE
8
BLACK
6
CONTINUOUS
10
3.36738
20
-3.43035
11
3.36749
21
-3.43023
0
LINE
8
BLACK
6
CONTINUOUS
10
3.36749
20
-3.43023
11
3.3676
21
-3.4301
0
LINE
8
BLACK
6
CONTINUOUS
10
3.3676
20
-3.4301
11
3.36947
21
-3.42823
0
LINE
8
BLACK
6
CONTINUOUS
10
3.36947
20
-3.42823
11
3.3695
21
-3.4282
0
LINE
8
BLACK
6
CONTINUOUS
10
3.3695
20
-3.4282
11
3.36963
21
-3.42809
0
LINE
8
BLACK
6
CONTINUOUS
10
3.36963
20
-3.42809
11
3.36975
21
-3.42798
0
LINE
8
BLACK
6
CONTINUOUS
10
3.36975
20
-3.42798
11
3.36986
21
-3.42792
0
LINE
8
BLACK
6
CONTINUOUS
10
3.36986
20
-3.42792
11
3.36995
21
-3.42784
0
LINE
8
BLACK
6
CONTINUOUS
10
3.36995
20
-3.42784
11
3.3701
21
-3.42776
0
LINE
8
BLACK
6
CONTINUOUS
10
3.3701
20
-3.42776
11
3.37024
21
-3.42767
0
LINE
8
BLACK
6
CONTINUOUS
10
3.37024
20
-3.42767
11
3.37399
21
-3.4258
0
LINE
8
BLACK
6
CONTINUOUS
10
3.37399
20
-3.4258
11
3.37403
21
-3.42578
0
LINE
8
BLACK
6
CONTINUOUS
10
3.37403
20
-3.42578
11
3.37411
21
-3.42575
0
LINE
8
BLACK
6
CONTINUOUS
10
3.37411
20
-3.42575
11
3.37418
21
-3.42571
0
LINE
8
BLACK
6
CONTINUOUS
10
3.37418
20
-3.42571
11
3.37438
21
-3.42565
0
LINE
8
BLACK
6
CONTINUOUS
10
3.37438
20
-3.42565
11
3.37457
21
-3.42558
0
LINE
8
BLACK
6
CONTINUOUS
10
3.37457
20
-3.42558
11
3.37465
21
-3.42557
0
LINE
8
BLACK
6
CONTINUOUS
10
3.37465
20
-3.42557
11
3.37474
21
-3.42554
0
LINE
8
BLACK
6
CONTINUOUS
10
3.37474
20
-3.42554
11
3.37494
21
-3.42552
0
LINE
8
BLACK
6
CONTINUOUS
10
3.37494
20
-3.42552
11
3.37514
21
-3.42549
0
LINE
8
BLACK
6
CONTINUOUS
10
3.37514
20
-3.42549
11
3.37522
21
-3.4255
0
LINE
8
BLACK
6
CONTINUOUS
10
3.37522
20
-3.4255
11
3.37531
21
-3.42549
0
LINE
8
BLACK
6
CONTINUOUS
10
3.37531
20
-3.42549
11
3.38468
21
-3.42549
0
LINE
8
BLACK
6
CONTINUOUS
10
3.38468
20
-3.42549
11
3.38472
21
-3.42549
0
LINE
8
BLACK
6
CONTINUOUS
10
3.38472
20
-3.42549
11
3.38481
21
-3.4255
0
LINE
8
BLACK
6
CONTINUOUS
10
3.38481
20
-3.4255
11
3.3849
21
-3.4255
0
LINE
8
BLACK
6
CONTINUOUS
10
3.3849
20
-3.4255
11
3.3851
21
-3.42553
0
LINE
8
BLACK
6
CONTINUOUS
10
3.3851
20
-3.42553
11
3.3853
21
-3.42555
0
LINE
8
BLACK
6
CONTINUOUS
10
3.3853
20
-3.42555
11
3.38538
21
-3.42558
0
LINE
8
BLACK
6
CONTINUOUS
10
3.38538
20
-3.42558
11
3.38547
21
-3.42559
0
LINE
8
BLACK
6
CONTINUOUS
10
3.38547
20
-3.42559
11
3.38565
21
-3.42567
0
LINE
8
BLACK
6
CONTINUOUS
10
3.38565
20
-3.42567
11
3.38585
21
-3.42573
0
LINE
8
BLACK
6
CONTINUOUS
10
3.38585
20
-3.42573
11
3.38592
21
-3.42577
0
LINE
8
BLACK
6
CONTINUOUS
10
3.38592
20
-3.42577
11
3.386
21
-3.4258
0
LINE
8
BLACK
6
CONTINUOUS
10
3.386
20
-3.4258
11
3.38975
21
-3.42767
0
LINE
8
BLACK
6
CONTINUOUS
10
3.38975
20
-3.42767
11
3.38979
21
-3.42769
0
LINE
8
BLACK
6
CONTINUOUS
10
3.38979
20
-3.42769
11
3.38993
21
-3.42778
0
LINE
8
BLACK
6
CONTINUOUS
10
3.38993
20
-3.42778
11
3.39008
21
-3.42786
0
LINE
8
BLACK
6
CONTINUOUS
10
3.39008
20
-3.42786
11
3.39017
21
-3.42794
0
LINE
8
BLACK
6
CONTINUOUS
10
3.39017
20
-3.42794
11
3.39027
21
-3.42801
0
LINE
8
BLACK
6
CONTINUOUS
10
3.39027
20
-3.42801
11
3.39039
21
-3.42812
0
LINE
8
BLACK
6
CONTINUOUS
10
3.39039
20
-3.42812
11
3.39052
21
-3.42823
0
LINE
8
BLACK
6
CONTINUOUS
10
3.39052
20
-3.42823
11
3.3924
21
-3.4301
0
LINE
8
BLACK
6
CONTINUOUS
10
3.3924
20
-3.4301
11
3.39242
21
-3.43013
0
LINE
8
BLACK
6
CONTINUOUS
10
3.39242
20
-3.43013
11
3.39278
21
-3.43058
0
LINE
8
BLACK
6
CONTINUOUS
10
3.39278
20
-3.43058
11
3.39305
21
-3.43109
0
LINE
8
BLACK
6
CONTINUOUS
10
3.39305
20
-3.43109
11
3.39321
21
-3.43165
0
LINE
8
BLACK
6
CONTINUOUS
10
3.39321
20
-3.43165
11
3.39326
21
-3.43222
0
LINE
8
BLACK
6
CONTINUOUS
10
3.39326
20
-3.43222
11
3.3932
21
-3.43279
0
LINE
8
BLACK
6
CONTINUOUS
10
3.3932
20
-3.43279
11
3.39303
21
-3.43334
0
LINE
8
BLACK
6
CONTINUOUS
10
3.39303
20
-3.43334
11
3.39275
21
-3.43385
0
LINE
8
BLACK
6
CONTINUOUS
10
3.39275
20
-3.43385
11
3.39238
21
-3.43429
0
LINE
8
BLACK
6
CONTINUOUS
10
3.39238
20
-3.43429
11
3.39193
21
-3.43465
0
LINE
8
BLACK
6
CONTINUOUS
10
3.39193
20
-3.43465
11
3.39142
21
-3.43492
0
LINE
8
BLACK
6
CONTINUOUS
10
3.39142
20
-3.43492
11
3.39087
21
-3.43509
0
LINE
8
BLACK
6
CONTINUOUS
10
3.39087
20
-3.43509
11
3.3903
21
-3.43514
0
LINE
8
BLACK
6
CONTINUOUS
10
3.3903
20
-3.43514
11
3.38972
21
-3.43508
0
LINE
8
BLACK
6
CONTINUOUS
10
3.38972
20
-3.43508
11
3.38917
21
-3.43492
0
LINE
8
BLACK
6
CONTINUOUS
10
3.38917
20
-3.43492
11
3.38866
21
-3.43464
0
LINE
8
BLACK
6
CONTINUOUS
10
3.38866
20
-3.43464
11
3.38822
21
-3.43428
0
LINE
8
BLACK
6
CONTINUOUS
10
3.38822
20
-3.43428
11
3.38668
21
-3.43274
0
LINE
8
BLACK
6
CONTINUOUS
10
3.38668
20
-3.43274
11
3.38399
21
-3.43139
0
LINE
8
BLACK
6
CONTINUOUS
10
3.38399
20
-3.43139
11
3.37601
21
-3.43139
0
LINE
8
BLACK
6
CONTINUOUS
10
3.37601
20
-3.43139
11
3.37331
21
-3.43274
0
LINE
8
BLACK
6
CONTINUOUS
10
3.37331
20
-3.43274
11
3.37211
21
-3.43394
0
LINE
8
BLACK
6
CONTINUOUS
10
3.37211
20
-3.43394
11
3.37076
21
-3.43664
0
LINE
8
BLACK
6
CONTINUOUS
10
3.37076
20
-3.43664
11
3.37076
21
-3.43921
0
LINE
8
BLACK
6
CONTINUOUS
10
3.37076
20
-3.43921
11
3.37227
21
-3.44372
0
LINE
8
BLACK
6
CONTINUOUS
10
3.37227
20
-3.44372
11
3.39427
21
-3.46572
0
LINE
8
BLACK
6
CONTINUOUS
10
3.39427
20
-3.46572
11
3.39429
21
-3.46574
0
LINE
8
BLACK
6
CONTINUOUS
10
3.39429
20
-3.46574
11
3.39429
21
-3.46574
0
LINE
8
BLACK
6
CONTINUOUS
10
3.39429
20
-3.46574
11
3.39429
21
-3.46574
0
LINE
8
BLACK
6
CONTINUOUS
10
3.39429
20
-3.46574
11
3.3943
21
-3.46575
0
LINE
8
BLACK
6
CONTINUOUS
10
3.3943
20
-3.46575
11
3.39448
21
-3.46598
0
LINE
8
BLACK
6
CONTINUOUS
10
3.39448
20
-3.46598
11
3.39465
21
-3.46619
0
LINE
8
BLACK
6
CONTINUOUS
10
3.39465
20
-3.46619
11
3.39466
21
-3.4662
0
LINE
8
BLACK
6
CONTINUOUS
10
3.39466
20
-3.4662
11
3.39466
21
-3.4662
0
LINE
8
BLACK
6
CONTINUOUS
10
3.39466
20
-3.4662
11
3.39479
21
-3.46645
0
LINE
8
BLACK
6
CONTINUOUS
10
3.39479
20
-3.46645
11
3.39492
21
-3.4667
0
LINE
8
BLACK
6
CONTINUOUS
10
3.39492
20
-3.4667
11
3.39492
21
-3.46671
0
LINE
8
BLACK
6
CONTINUOUS
10
3.39492
20
-3.46671
11
3.39492
21
-3.46671
0
LINE
8
BLACK
6
CONTINUOUS
10
3.39492
20
-3.46671
11
3.395
21
-3.46698
0
LINE
8
BLACK
6
CONTINUOUS
10
3.395
20
-3.46698
11
3.39508
21
-3.46726
0
LINE
8
BLACK
6
CONTINUOUS
10
3.39508
20
-3.46726
11
3.39508
21
-3.46726
0
LINE
8
BLACK
6
CONTINUOUS
10
3.39508
20
-3.46726
11
3.39508
21
-3.46727
0
LINE
8
BLACK
6
CONTINUOUS
10
3.39508
20
-3.46727
11
3.39511
21
-3.46755
0
LINE
8
BLACK
6
CONTINUOUS
10
3.39511
20
-3.46755
11
3.39513
21
-3.46783
0
LINE
8
BLACK
6
CONTINUOUS
10
3.39513
20
-3.46783
11
3.39513
21
-3.46784
0
LINE
8
BLACK
6
CONTINUOUS
10
3.39513
20
-3.46784
11
3.39513
21
-3.46784
0
LINE
8
BLACK
6
CONTINUOUS
10
3.39513
20
-3.46784
11
3.3951
21
-3.46812
0
LINE
8
BLACK
6
CONTINUOUS
10
3.3951
20
-3.46812
11
3.39507
21
-3.4684
0
LINE
8
BLACK
6
CONTINUOUS
10
3.39507
20
-3.4684
11
3.39507
21
-3.46841
0
LINE
8
BLACK
6
CONTINUOUS
10
3.39507
20
-3.46841
11
3.39507
21
-3.46841
0
LINE
8
BLACK
6
CONTINUOUS
10
3.39507
20
-3.46841
11
3.39499
21
-3.46868
0
LINE
8
BLACK
6
CONTINUOUS
10
3.39499
20
-3.46868
11
3.3949
21
-3.46895
0
LINE
8
BLACK
6
CONTINUOUS
10
3.3949
20
-3.46895
11
3.3949
21
-3.46896
0
LINE
8
BLACK
6
CONTINUOUS
10
3.3949
20
-3.46896
11
3.3949
21
-3.46896
0
LINE
8
BLACK
6
CONTINUOUS
10
3.3949
20
-3.46896
11
3.39477
21
-3.46921
0
LINE
8
BLACK
6
CONTINUOUS
10
3.39477
20
-3.46921
11
3.39463
21
-3.46946
0
LINE
8
BLACK
6
CONTINUOUS
10
3.39463
20
-3.46946
11
3.39463
21
-3.46947
0
LINE
8
BLACK
6
CONTINUOUS
10
3.39463
20
-3.46947
11
3.39462
21
-3.46947
0
LINE
8
BLACK
6
CONTINUOUS
10
3.39462
20
-3.46947
11
3.39445
21
-3.46968
0
LINE
8
BLACK
6
CONTINUOUS
10
3.39445
20
-3.46968
11
3.39426
21
-3.46991
0
LINE
8
BLACK
6
CONTINUOUS
10
3.39426
20
-3.46991
11
3.39426
21
-3.46991
0
LINE
8
BLACK
6
CONTINUOUS
10
3.39426
20
-3.46991
11
3.39426
21
-3.46991
0
LINE
8
BLACK
6
CONTINUOUS
10
3.39426
20
-3.46991
11
3.39404
21
-3.47009
0
LINE
8
BLACK
6
CONTINUOUS
10
3.39404
20
-3.47009
11
3.39382
21
-3.47027
0
LINE
8
BLACK
6
CONTINUOUS
10
3.39382
20
-3.47027
11
3.39381
21
-3.47027
0
LINE
8
BLACK
6
CONTINUOUS
10
3.39381
20
-3.47027
11
3.39381
21
-3.47028
0
LINE
8
BLACK
6
CONTINUOUS
10
3.39381
20
-3.47028
11
3.39356
21
-3.47041
0
LINE
8
BLACK
6
CONTINUOUS
10
3.39356
20
-3.47041
11
3.39331
21
-3.47054
0
LINE
8
BLACK
6
CONTINUOUS
10
3.39331
20
-3.47054
11
3.3933
21
-3.47054
0
LINE
8
BLACK
6
CONTINUOUS
10
3.3933
20
-3.47054
11
3.3933
21
-3.47054
0
LINE
8
BLACK
6
CONTINUOUS
10
3.3933
20
-3.47054
11
3.39303
21
-3.47063
0
LINE
8
BLACK
6
CONTINUOUS
10
3.39303
20
-3.47063
11
3.39276
21
-3.47071
0
LINE
8
BLACK
6
CONTINUOUS
10
3.39276
20
-3.47071
11
3.39275
21
-3.47071
0
LINE
8
BLACK
6
CONTINUOUS
10
3.39275
20
-3.47071
11
3.39275
21
-3.47071
0
LINE
8
BLACK
6
CONTINUOUS
10
3.39275
20
-3.47071
11
3.39246
21
-3.47074
0
LINE
8
BLACK
6
CONTINUOUS
10
3.39246
20
-3.47074
11
3.39218
21
-3.47076
0
LINE
8
BLACK
6
CONTINUOUS
10
3.39218
20
-3.47076
11
3.36781
21
-3.47076
0
LINE
8
BLACK
6
CONTINUOUS
10
3.36781
20
-3.47076
11
3.36777
21
-3.47076
0
LINE
8
BLACK
6
CONTINUOUS
10
3.35095
20
-3.46111
11
3.35096
21
-3.46111
0
LINE
8
BLACK
6
CONTINUOUS
10
3.35096
20
-3.46111
11
3.35096
21
-3.46111
0
LINE
8
BLACK
6
CONTINUOUS
10
3.35096
20
-3.46111
11
3.35097
21
-3.46111
0
LINE
8
BLACK
6
CONTINUOUS
10
3.35097
20
-3.46111
11
3.35124
21
-3.46114
0
LINE
8
BLACK
6
CONTINUOUS
10
3.35124
20
-3.46114
11
3.35152
21
-3.46117
0
LINE
8
BLACK
6
CONTINUOUS
10
3.35152
20
-3.46117
11
3.35153
21
-3.46117
0
LINE
8
BLACK
6
CONTINUOUS
10
3.35153
20
-3.46117
11
3.35153
21
-3.46117
0
LINE
8
BLACK
6
CONTINUOUS
10
3.35153
20
-3.46117
11
3.35154
21
-3.46117
0
LINE
8
BLACK
6
CONTINUOUS
10
3.35154
20
-3.46117
11
3.35154
21
-3.46117
0
LINE
8
BLACK
6
CONTINUOUS
10
3.35154
20
-3.46117
11
3.3518
21
-3.46125
0
LINE
8
BLACK
6
CONTINUOUS
10
3.3518
20
-3.46125
11
3.3518
21
-3.46125
0
LINE
8
BLACK
6
CONTINUOUS
10
3.3518
20
-3.46125
11
3.35207
21
-3.46133
0
LINE
8
BLACK
6
CONTINUOUS
10
3.35207
20
-3.46133
11
3.35208
21
-3.46134
0
LINE
8
BLACK
6
CONTINUOUS
10
3.35208
20
-3.46134
11
3.35208
21
-3.46134
0
LINE
8
BLACK
6
CONTINUOUS
10
3.35208
20
-3.46134
11
3.35209
21
-3.46134
0
LINE
8
BLACK
6
CONTINUOUS
10
3.35209
20
-3.46134
11
3.35209
21
-3.46134
0
LINE
8
BLACK
6
CONTINUOUS
10
3.35209
20
-3.46134
11
3.35233
21
-3.46147
0
LINE
8
BLACK
6
CONTINUOUS
10
3.35233
20
-3.46147
11
3.35258
21
-3.46161
0
LINE
8
BLACK
6
CONTINUOUS
10
3.35258
20
-3.46161
11
3.35258
21
-3.46161
0
LINE
8
BLACK
6
CONTINUOUS
10
3.35258
20
-3.46161
11
3.35259
21
-3.46161
0
LINE
8
BLACK
6
CONTINUOUS
10
3.35259
20
-3.46161
11
3.35259
21
-3.46162
0
LINE
8
BLACK
6
CONTINUOUS
10
3.35259
20
-3.46162
11
3.3526
21
-3.46162
0
LINE
8
BLACK
6
CONTINUOUS
10
3.3526
20
-3.46162
11
3.35281
21
-3.4618
0
LINE
8
BLACK
6
CONTINUOUS
10
3.35281
20
-3.4618
11
3.35303
21
-3.46197
0
LINE
8
BLACK
6
CONTINUOUS
10
3.35303
20
-3.46197
11
3.3549
21
-3.46385
0
LINE
8
BLACK
6
CONTINUOUS
10
3.3549
20
-3.46385
11
3.35491
21
-3.46386
0
LINE
8
BLACK
6
CONTINUOUS
10
3.35491
20
-3.46386
11
3.35491
21
-3.46386
0
LINE
8
BLACK
6
CONTINUOUS
10
3.35491
20
-3.46386
11
3.35491
21
-3.46386
0
LINE
8
BLACK
6
CONTINUOUS
10
3.35491
20
-3.46386
11
3.35493
21
-3.46388
0
LINE
8
BLACK
6
CONTINUOUS
10
3.35493
20
-3.46388
11
3.3551
21
-3.4641
0
LINE
8
BLACK
6
CONTINUOUS
10
3.3551
20
-3.4641
11
3.35528
21
-3.46431
0
LINE
8
BLACK
6
CONTINUOUS
10
3.35528
20
-3.46431
11
3.35528
21
-3.46432
0
LINE
8
BLACK
6
CONTINUOUS
10
3.35528
20
-3.46432
11
3.35529
21
-3.46433
0
LINE
8
BLACK
6
CONTINUOUS
10
3.35529
20
-3.46433
11
3.35542
21
-3.46457
0
LINE
8
BLACK
6
CONTINUOUS
10
3.35542
20
-3.46457
11
3.35555
21
-3.46482
0
LINE
8
BLACK
6
CONTINUOUS
10
3.35555
20
-3.46482
11
3.35555
21
-3.46483
0
LINE
8
BLACK
6
CONTINUOUS
10
3.35555
20
-3.46483
11
3.35555
21
-3.46484
0
LINE
8
BLACK
6
CONTINUOUS
10
3.35555
20
-3.46484
11
3.35563
21
-3.46511
0
LINE
8
BLACK
6
CONTINUOUS
10
3.35563
20
-3.46511
11
3.35571
21
-3.46537
0
LINE
8
BLACK
6
CONTINUOUS
10
3.35571
20
-3.46537
11
3.35571
21
-3.46538
0
LINE
8
BLACK
6
CONTINUOUS
10
3.35571
20
-3.46538
11
3.35571
21
-3.46539
0
LINE
8
BLACK
6
CONTINUOUS
10
3.35571
20
-3.46539
11
3.35574
21
-3.46567
0
LINE
8
BLACK
6
CONTINUOUS
10
3.35574
20
-3.46567
11
3.35576
21
-3.46595
0
LINE
8
BLACK
6
CONTINUOUS
10
3.35576
20
-3.46595
11
3.35576
21
-3.46596
0
LINE
8
BLACK
6
CONTINUOUS
10
3.35576
20
-3.46596
11
3.35576
21
-3.46597
0
LINE
8
BLACK
6
CONTINUOUS
10
3.35576
20
-3.46597
11
3.35574
21
-3.46624
0
LINE
8
BLACK
6
CONTINUOUS
10
3.35574
20
-3.46624
11
3.35571
21
-3.46652
0
LINE
8
BLACK
6
CONTINUOUS
10
3.35571
20
-3.46652
11
3.3557
21
-3.46653
0
LINE
8
BLACK
6
CONTINUOUS
10
3.3557
20
-3.46653
11
3.3557
21
-3.46654
0
LINE
8
BLACK
6
CONTINUOUS
10
3.3557
20
-3.46654
11
3.35562
21
-3.4668
0
LINE
8
BLACK
6
CONTINUOUS
10
3.35562
20
-3.4668
11
3.35554
21
-3.46707
0
LINE
8
BLACK
6
CONTINUOUS
10
3.35554
20
-3.46707
11
3.35553
21
-3.46708
0
LINE
8
BLACK
6
CONTINUOUS
10
3.35553
20
-3.46708
11
3.35553
21
-3.46709
0
LINE
8
BLACK
6
CONTINUOUS
10
3.35553
20
-3.46709
11
3.3554
21
-3.46733
0
LINE
8
BLACK
6
CONTINUOUS
10
3.3554
20
-3.46733
11
3.35527
21
-3.46758
0
LINE
8
BLACK
6
CONTINUOUS
10
3.35527
20
-3.46758
11
3.35526
21
-3.46759
0
LINE
8
BLACK
6
CONTINUOUS
10
3.35526
20
-3.46759
11
3.35525
21
-3.4676
0
LINE
8
BLACK
6
CONTINUOUS
10
3.35525
20
-3.4676
11
3.35508
21
-3.46781
0
LINE
8
BLACK
6
CONTINUOUS
10
3.35508
20
-3.46781
11
3.3549
21
-3.46802
0
LINE
8
BLACK
6
CONTINUOUS
10
3.3549
20
-3.46802
11
3.35303
21
-3.4699
0
LINE
8
BLACK
6
CONTINUOUS
10
3.35303
20
-3.4699
11
3.35301
21
-3.46991
0
LINE
8
BLACK
6
CONTINUOUS
10
3.35301
20
-3.46991
11
3.35301
21
-3.46991
0
LINE
8
BLACK
6
CONTINUOUS
10
3.35301
20
-3.46991
11
3.35301
21
-3.46991
0
LINE
8
BLACK
6
CONTINUOUS
10
3.35301
20
-3.46991
11
3.353
21
-3.46992
0
LINE
8
BLACK
6
CONTINUOUS
10
3.353
20
-3.46992
11
3.353
21
-3.46992
0
LINE
8
BLACK
6
CONTINUOUS
10
3.353
20
-3.46992
11
3.353
21
-3.46992
0
LINE
8
BLACK
6
CONTINUOUS
10
3.353
20
-3.46992
11
3.353
21
-3.46993
0
LINE
8
BLACK
6
CONTINUOUS
10
3.353
20
-3.46993
11
3.35278
21
-3.4701
0
LINE
8
BLACK
6
CONTINUOUS
10
3.35278
20
-3.4701
11
3.35256
21
-3.47028
0
LINE
8
BLACK
6
CONTINUOUS
10
3.35256
20
-3.47028
11
3.35256
21
-3.47028
0
LINE
8
BLACK
6
CONTINUOUS
10
3.35256
20
-3.47028
11
3.35255
21
-3.47028
0
LINE
8
BLACK
6
CONTINUOUS
10
3.35255
20
-3.47028
11
3.35255
21
-3.47028
0
LINE
8
BLACK
6
CONTINUOUS
10
3.35255
20
-3.47028
11
3.35255
21
-3.47029
0
LINE
8
BLACK
6
CONTINUOUS
10
3.35255
20
-3.47029
11
3.3523
21
-3.47042
0
LINE
8
BLACK
6
CONTINUOUS
10
3.3523
20
-3.47042
11
3.35205
21
-3.47054
0
LINE
8
BLACK
6
CONTINUOUS
10
3.35205
20
-3.47054
11
3.35205
21
-3.47055
0
LINE
8
BLACK
6
CONTINUOUS
10
3.35205
20
-3.47055
11
3.35204
21
-3.47055
0
LINE
8
BLACK
6
CONTINUOUS
10
3.35204
20
-3.47055
11
3.35204
21
-3.47055
0
LINE
8
BLACK
6
CONTINUOUS
10
3.35204
20
-3.47055
11
3.35203
21
-3.47055
0
LINE
8
BLACK
6
CONTINUOUS
10
3.35203
20
-3.47055
11
3.35176
21
-3.47063
0
LINE
8
BLACK
6
CONTINUOUS
10
3.35176
20
-3.47063
11
3.3515
21
-3.47071
0
LINE
8
BLACK
6
CONTINUOUS
10
3.3515
20
-3.47071
11
3.3515
21
-3.47071
0
LINE
8
BLACK
6
CONTINUOUS
10
3.3515
20
-3.47071
11
3.35149
21
-3.47071
0
LINE
8
BLACK
6
CONTINUOUS
10
3.35149
20
-3.47071
11
3.35149
21
-3.47071
0
LINE
8
BLACK
6
CONTINUOUS
10
3.35149
20
-3.47071
11
3.35148
21
-3.47071
0
LINE
8
BLACK
6
CONTINUOUS
10
3.35148
20
-3.47071
11
3.3512
21
-3.47074
0
LINE
8
BLACK
6
CONTINUOUS
10
3.3512
20
-3.47074
11
3.35093
21
-3.47076
0
LINE
8
BLACK
6
CONTINUOUS
10
3.35093
20
-3.47076
11
3.35092
21
-3.47076
0
LINE
8
BLACK
6
CONTINUOUS
10
3.35092
20
-3.47076
11
3.35092
21
-3.47076
0
LINE
8
BLACK
6
CONTINUOUS
10
3.35092
20
-3.47076
11
3.35091
21
-3.47076
0
LINE
8
BLACK
6
CONTINUOUS
10
3.35091
20
-3.47076
11
3.35091
21
-3.47076
0
LINE
8
BLACK
6
CONTINUOUS
10
3.35091
20
-3.47076
11
3.35063
21
-3.47073
0
LINE
8
BLACK
6
CONTINUOUS
10
3.35063
20
-3.47073
11
3.35035
21
-3.4707
0
LINE
8
BLACK
6
CONTINUOUS
10
3.35035
20
-3.4707
11
3.35035
21
-3.4707
0
LINE
8
BLACK
6
CONTINUOUS
10
3.35035
20
-3.4707
11
3.35034
21
-3.4707
0
LINE
8
BLACK
6
CONTINUOUS
10
3.35034
20
-3.4707
11
3.35034
21
-3.4707
0
LINE
8
BLACK
6
CONTINUOUS
10
3.35034
20
-3.4707
11
3.35033
21
-3.4707
0
LINE
8
BLACK
6
CONTINUOUS
10
3.35033
20
-3.4707
11
3.35007
21
-3.47062
0
LINE
8
BLACK
6
CONTINUOUS
10
3.35007
20
-3.47062
11
3.3498
21
-3.47054
0
LINE
8
BLACK
6
CONTINUOUS
10
3.3498
20
-3.47054
11
3.3498
21
-3.47053
0
LINE
8
BLACK
6
CONTINUOUS
10
3.3498
20
-3.47053
11
3.34979
21
-3.47053
0
LINE
8
BLACK
6
CONTINUOUS
10
3.34979
20
-3.47053
11
3.34979
21
-3.47053
0
LINE
8
BLACK
6
CONTINUOUS
10
3.34979
20
-3.47053
11
3.34978
21
-3.47053
0
LINE
8
BLACK
6
CONTINUOUS
10
3.34978
20
-3.47053
11
3.34954
21
-3.47039
0
LINE
8
BLACK
6
CONTINUOUS
10
3.34954
20
-3.47039
11
3.34929
21
-3.47026
0
LINE
8
BLACK
6
CONTINUOUS
10
3.34929
20
-3.47026
11
3.34929
21
-3.47026
0
LINE
8
BLACK
6
CONTINUOUS
10
3.34929
20
-3.47026
11
3.34929
21
-3.47026
0
LINE
8
BLACK
6
CONTINUOUS
10
3.34929
20
-3.47026
11
3.34928
21
-3.47025
0
LINE
8
BLACK
6
CONTINUOUS
10
3.34928
20
-3.47025
11
3.34928
21
-3.47025
0
LINE
8
BLACK
6
CONTINUOUS
10
3.34928
20
-3.47025
11
3.34906
21
-3.47007
0
LINE
8
BLACK
6
CONTINUOUS
10
3.34906
20
-3.47007
11
3.34885
21
-3.4699
0
LINE
8
BLACK
6
CONTINUOUS
10
3.34885
20
-3.4699
11
3.34697
21
-3.46802
0
LINE
8
BLACK
6
CONTINUOUS
10
3.34697
20
-3.46802
11
3.34696
21
-3.46801
0
LINE
8
BLACK
6
CONTINUOUS
10
3.34696
20
-3.46801
11
3.34696
21
-3.46801
0
LINE
8
BLACK
6
CONTINUOUS
10
3.34696
20
-3.46801
11
3.34696
21
-3.46801
0
LINE
8
BLACK
6
CONTINUOUS
10
3.34696
20
-3.46801
11
3.34695
21
-3.46799
0
LINE
8
BLACK
6
CONTINUOUS
10
3.34695
20
-3.46799
11
3.34677
21
-3.46778
0
LINE
8
BLACK
6
CONTINUOUS
10
3.34677
20
-3.46778
11
3.3466
21
-3.46756
0
LINE
8
BLACK
6
CONTINUOUS
10
3.3466
20
-3.46756
11
3.34659
21
-3.46755
0
LINE
8
BLACK
6
CONTINUOUS
10
3.34659
20
-3.46755
11
3.34659
21
-3.46754
0
LINE
8
BLACK
6
CONTINUOUS
10
3.34659
20
-3.46754
11
3.34646
21
-3.4673
0
LINE
8
BLACK
6
CONTINUOUS
10
3.34646
20
-3.4673
11
3.34633
21
-3.46705
0
LINE
8
BLACK
6
CONTINUOUS
10
3.34633
20
-3.46705
11
3.34633
21
-3.46704
0
LINE
8
BLACK
6
CONTINUOUS
10
3.34633
20
-3.46704
11
3.34632
21
-3.46703
0
LINE
8
BLACK
6
CONTINUOUS
10
3.34632
20
-3.46703
11
3.34624
21
-3.46676
0
LINE
8
BLACK
6
CONTINUOUS
10
3.34624
20
-3.46676
11
3.34616
21
-3.4665
0
LINE
8
BLACK
6
CONTINUOUS
10
3.34616
20
-3.4665
11
3.34616
21
-3.46649
0
LINE
8
BLACK
6
CONTINUOUS
10
3.34616
20
-3.46649
11
3.34616
21
-3.46648
0
LINE
8
BLACK
6
CONTINUOUS
10
3.34616
20
-3.46648
11
3.34614
21
-3.4662
0
LINE
8
BLACK
6
CONTINUOUS
10
3.34614
20
-3.4662
11
3.34611
21
-3.46593
0
LINE
8
BLACK
6
CONTINUOUS
10
3.34611
20
-3.46593
11
3.34611
21
-3.46591
0
LINE
8
BLACK
6
CONTINUOUS
10
3.34611
20
-3.46591
11
3.34611
21
-3.4659
0
LINE
8
BLACK
6
CONTINUOUS
10
3.34611
20
-3.4659
11
3.34614
21
-3.46563
0
LINE
8
BLACK
6
CONTINUOUS
10
3.34614
20
-3.46563
11
3.34617
21
-3.46535
0
LINE
8
BLACK
6
CONTINUOUS
10
3.34617
20
-3.46535
11
3.34617
21
-3.46534
0
LINE
8
BLACK
6
CONTINUOUS
10
3.34617
20
-3.46534
11
3.34617
21
-3.46533
0
LINE
8
BLACK
6
CONTINUOUS
10
3.34617
20
-3.46533
11
3.34626
21
-3.46507
0
LINE
8
BLACK
6
CONTINUOUS
10
3.34626
20
-3.46507
11
3.34634
21
-3.4648
0
LINE
8
BLACK
6
CONTINUOUS
10
3.34634
20
-3.4648
11
3.34634
21
-3.46479
0
LINE
8
BLACK
6
CONTINUOUS
10
3.34634
20
-3.46479
11
3.34634
21
-3.46478
0
LINE
8
BLACK
6
CONTINUOUS
10
3.34634
20
-3.46478
11
3.34648
21
-3.46454
0
LINE
8
BLACK
6
CONTINUOUS
10
3.34648
20
-3.46454
11
3.34661
21
-3.46429
0
LINE
8
BLACK
6
CONTINUOUS
10
3.34661
20
-3.46429
11
3.34662
21
-3.46428
0
LINE
8
BLACK
6
CONTINUOUS
10
3.34662
20
-3.46428
11
3.34662
21
-3.46428
0
LINE
8
BLACK
6
CONTINUOUS
10
3.34662
20
-3.46428
11
3.3468
21
-3.46406
0
LINE
8
BLACK
6
CONTINUOUS
10
3.3468
20
-3.46406
11
3.34697
21
-3.46385
0
LINE
8
BLACK
6
CONTINUOUS
10
3.34697
20
-3.46385
11
3.34885
21
-3.46197
0
LINE
8
BLACK
6
CONTINUOUS
10
3.34885
20
-3.46197
11
3.34886
21
-3.46196
0
LINE
8
BLACK
6
CONTINUOUS
10
3.34886
20
-3.46196
11
3.34886
21
-3.46196
0
LINE
8
BLACK
6
CONTINUOUS
10
3.34886
20
-3.46196
11
3.34886
21
-3.46196
0
LINE
8
BLACK
6
CONTINUOUS
10
3.34886
20
-3.46196
11
3.34887
21
-3.46195
0
LINE
8
BLACK
6
CONTINUOUS
10
3.34887
20
-3.46195
11
3.34887
21
-3.46195
0
LINE
8
BLACK
6
CONTINUOUS
10
3.34887
20
-3.46195
11
3.34887
21
-3.46195
0
LINE
8
BLACK
6
CONTINUOUS
10
3.34887
20
-3.46195
11
3.34888
21
-3.46194
0
LINE
8
BLACK
6
CONTINUOUS
10
3.34888
20
-3.46194
11
3.3491
21
-3.46177
0
LINE
8
BLACK
6
CONTINUOUS
10
3.3491
20
-3.46177
11
3.34931
21
-3.4616
0
LINE
8
BLACK
6
CONTINUOUS
10
3.34931
20
-3.4616
11
3.34932
21
-3.46159
0
LINE
8
BLACK
6
CONTINUOUS
10
3.34932
20
-3.46159
11
3.34932
21
-3.46159
0
LINE
8
BLACK
6
CONTINUOUS
10
3.34932
20
-3.46159
11
3.34933
21
-3.46159
0
LINE
8
BLACK
6
CONTINUOUS
10
3.34933
20
-3.46159
11
3.34933
21
-3.46158
0
LINE
8
BLACK
6
CONTINUOUS
10
3.34933
20
-3.46158
11
3.34957
21
-3.46146
0
LINE
8
BLACK
6
CONTINUOUS
10
3.34957
20
-3.46146
11
3.34982
21
-3.46133
0
LINE
8
BLACK
6
CONTINUOUS
10
3.34982
20
-3.46133
11
3.34983
21
-3.46133
0
LINE
8
BLACK
6
CONTINUOUS
10
3.34983
20
-3.46133
11
3.34983
21
-3.46132
0
LINE
8
BLACK
6
CONTINUOUS
10
3.34983
20
-3.46132
11
3.34984
21
-3.46132
0
LINE
8
BLACK
6
CONTINUOUS
10
3.34984
20
-3.46132
11
3.34984
21
-3.46132
0
LINE
8
BLACK
6
CONTINUOUS
10
3.34984
20
-3.46132
11
3.35011
21
-3.46124
0
LINE
8
BLACK
6
CONTINUOUS
10
3.35011
20
-3.46124
11
3.35037
21
-3.46116
0
LINE
8
BLACK
6
CONTINUOUS
10
3.35037
20
-3.46116
11
3.35038
21
-3.46116
0
LINE
8
BLACK
6
CONTINUOUS
10
3.35038
20
-3.46116
11
3.35038
21
-3.46116
0
LINE
8
BLACK
6
CONTINUOUS
10
3.35038
20
-3.46116
11
3.35039
21
-3.46116
0
LINE
8
BLACK
6
CONTINUOUS
10
3.35039
20
-3.46116
11
3.35039
21
-3.46116
0
LINE
8
BLACK
6
CONTINUOUS
10
3.35039
20
-3.46116
11
3.35067
21
-3.46113
0
LINE
8
BLACK
6
CONTINUOUS
10
3.35067
20
-3.46113
11
3.35095
21
-3.46111
0
LINE
8
BLACK
6
CONTINUOUS
10
3.35095
20
-3.46111
11
3.35095
21
-3.46111
0
LINE
8
BLACK
6
CONTINUOUS
10
3.32283
20
-3.42549
11
3.32284
21
-3.42549
0
LINE
8
BLACK
6
CONTINUOUS
10
3.32284
20
-3.42549
11
3.32311
21
-3.42552
0
LINE
8
BLACK
6
CONTINUOUS
10
3.32311
20
-3.42552
11
3.32341
21
-3.42555
0
LINE
8
BLACK
6
CONTINUOUS
10
3.32341
20
-3.42555
11
3.32341
21
-3.42555
0
LINE
8
BLACK
6
CONTINUOUS
10
3.32341
20
-3.42555
11
3.32341
21
-3.42555
0
LINE
8
BLACK
6
CONTINUOUS
10
3.32341
20
-3.42555
11
3.32369
21
-3.42563
0
LINE
8
BLACK
6
CONTINUOUS
10
3.32369
20
-3.42563
11
3.32396
21
-3.42572
0
LINE
8
BLACK
6
CONTINUOUS
10
3.32396
20
-3.42572
11
3.32396
21
-3.42572
0
LINE
8
BLACK
6
CONTINUOUS
10
3.32396
20
-3.42572
11
3.32396
21
-3.42572
0
LINE
8
BLACK
6
CONTINUOUS
10
3.32396
20
-3.42572
11
3.32422
21
-3.42586
0
LINE
8
BLACK
6
CONTINUOUS
10
3.32422
20
-3.42586
11
3.32446
21
-3.42599
0
LINE
8
BLACK
6
CONTINUOUS
10
3.32446
20
-3.42599
11
3.32446
21
-3.42599
0
LINE
8
BLACK
6
CONTINUOUS
10
3.32446
20
-3.42599
11
3.32447
21
-3.42599
0
LINE
8
BLACK
6
CONTINUOUS
10
3.32447
20
-3.42599
11
3.32468
21
-3.42617
0
LINE
8
BLACK
6
CONTINUOUS
10
3.32468
20
-3.42617
11
3.32491
21
-3.42636
0
LINE
8
BLACK
6
CONTINUOUS
10
3.32491
20
-3.42636
11
3.32491
21
-3.42636
0
LINE
8
BLACK
6
CONTINUOUS
10
3.32491
20
-3.42636
11
3.32491
21
-3.42636
0
LINE
8
BLACK
6
CONTINUOUS
10
3.32491
20
-3.42636
11
3.32509
21
-3.42658
0
LINE
8
BLACK
6
CONTINUOUS
10
3.32509
20
-3.42658
11
3.32527
21
-3.4268
0
LINE
8
BLACK
6
CONTINUOUS
10
3.32527
20
-3.4268
11
3.32886
21
-3.43218
0
LINE
8
BLACK
6
CONTINUOUS
10
3.32886
20
-3.43218
11
3.33206
21
-3.43539
0
LINE
8
BLACK
6
CONTINUOUS
10
3.33206
20
-3.43539
11
3.33539
21
-3.43705
0
LINE
8
BLACK
6
CONTINUOUS
10
3.33539
20
-3.43705
11
3.33542
21
-3.43707
0
LINE
8
BLACK
6
CONTINUOUS
10
3.33542
20
-3.43707
11
3.33591
21
-3.43738
0
LINE
8
BLACK
6
CONTINUOUS
10
3.33591
20
-3.43738
11
3.33632
21
-3.43778
0
LINE
8
BLACK
6
CONTINUOUS
10
3.33632
20
-3.43778
11
3.33665
21
-3.43826
0
LINE
8
BLACK
6
CONTINUOUS
10
3.33665
20
-3.43826
11
3.33688
21
-3.43878
0
LINE
8
BLACK
6
CONTINUOUS
10
3.33688
20
-3.43878
11
3.337
21
-3.43935
0
LINE
8
BLACK
6
CONTINUOUS
10
3.337
20
-3.43935
11
3.33701
21
-3.43992
0
LINE
8
BLACK
6
CONTINUOUS
10
3.33701
20
-3.43992
11
3.33691
21
-3.44049
0
LINE
8
BLACK
6
CONTINUOUS
10
3.33691
20
-3.44049
11
3.3367
21
-3.44103
0
LINE
8
BLACK
6
CONTINUOUS
10
3.3367
20
-3.44103
11
3.33639
21
-3.44151
0
LINE
8
BLACK
6
CONTINUOUS
10
3.33639
20
-3.44151
11
3.33599
21
-3.44193
0
LINE
8
BLACK
6
CONTINUOUS
10
3.33599
20
-3.44193
11
3.33552
21
-3.44226
0
LINE
8
BLACK
6
CONTINUOUS
10
3.33552
20
-3.44226
11
3.33499
21
-3.44249
0
LINE
8
BLACK
6
CONTINUOUS
10
3.33499
20
-3.44249
11
3.33443
21
-3.44262
0
LINE
8
BLACK
6
CONTINUOUS
10
3.33443
20
-3.44262
11
3.33385
21
-3.44263
0
LINE
8
BLACK
6
CONTINUOUS
10
3.33385
20
-3.44263
11
3.33328
21
-3.44254
0
LINE
8
BLACK
6
CONTINUOUS
10
3.33328
20
-3.44254
11
3.33274
21
-3.44233
0
LINE
8
BLACK
6
CONTINUOUS
10
3.33274
20
-3.44233
11
3.32899
21
-3.44046
0
LINE
8
BLACK
6
CONTINUOUS
10
3.32899
20
-3.44046
11
3.32896
21
-3.44044
0
LINE
8
BLACK
6
CONTINUOUS
10
3.32896
20
-3.44044
11
3.32882
21
-3.44035
0
LINE
8
BLACK
6
CONTINUOUS
10
3.32882
20
-3.44035
11
3.32867
21
-3.44027
0
LINE
8
BLACK
6
CONTINUOUS
10
3.32867
20
-3.44027
11
3.32858
21
-3.44019
0
LINE
8
BLACK
6
CONTINUOUS
10
3.32858
20
-3.44019
11
3.32847
21
-3.44012
0
LINE
8
BLACK
6
CONTINUOUS
10
3.32847
20
-3.44012
11
3.32836
21
-3.44001
0
LINE
8
BLACK
6
CONTINUOUS
10
3.32836
20
-3.44001
11
3.32823
21
-3.4399
0
LINE
8
BLACK
6
CONTINUOUS
10
3.32823
20
-3.4399
11
3.32577
21
-3.43744
0
LINE
8
BLACK
6
CONTINUOUS
10
3.32577
20
-3.43744
11
3.32577
21
-3.46486
0
LINE
8
BLACK
6
CONTINUOUS
10
3.32577
20
-3.46486
11
3.33406
21
-3.46486
0
LINE
8
BLACK
6
CONTINUOUS
10
3.33406
20
-3.46486
11
3.33411
21
-3.46486
0
LINE
8
BLACK
6
CONTINUOUS
10
3.33411
20
-3.46486
11
3.33468
21
-3.46492
0
LINE
8
BLACK
6
CONTINUOUS
10
3.33468
20
-3.46492
11
3.33523
21
-3.4651
0
LINE
8
BLACK
6
CONTINUOUS
10
3.33523
20
-3.4651
11
3.33573
21
-3.46537
0
LINE
8
BLACK
6
CONTINUOUS
10
3.33573
20
-3.46537
11
3.33617
21
-3.46574
0
LINE
8
BLACK
6
CONTINUOUS
10
3.33617
20
-3.46574
11
3.33654
21
-3.46619
0
LINE
8
BLACK
6
CONTINUOUS
10
3.33654
20
-3.46619
11
3.3368
21
-3.4667
0
LINE
8
BLACK
6
CONTINUOUS
10
3.3368
20
-3.4667
11
3.33696
21
-3.46726
0
LINE
8
BLACK
6
CONTINUOUS
10
3.33696
20
-3.46726
11
3.33702
21
-3.46783
0
LINE
8
BLACK
6
CONTINUOUS
10
3.33702
20
-3.46783
11
3.33696
21
-3.4684
0
LINE
8
BLACK
6
CONTINUOUS
10
3.33696
20
-3.4684
11
3.33679
21
-3.46895
0
LINE
8
BLACK
6
CONTINUOUS
10
3.33679
20
-3.46895
11
3.33651
21
-3.46946
0
LINE
8
BLACK
6
CONTINUOUS
10
3.33651
20
-3.46946
11
3.33615
21
-3.46991
0
LINE
8
BLACK
6
CONTINUOUS
10
3.33615
20
-3.46991
11
3.3357
21
-3.47027
0
LINE
8
BLACK
6
CONTINUOUS
10
3.3357
20
-3.47027
11
3.33519
21
-3.47054
0
LINE
8
BLACK
6
CONTINUOUS
10
3.33519
20
-3.47054
11
3.33464
21
-3.47071
0
LINE
8
BLACK
6
CONTINUOUS
10
3.33464
20
-3.47071
11
3.33406
21
-3.47076
0
LINE
8
BLACK
6
CONTINUOUS
10
3.33406
20
-3.47076
11
3.31157
21
-3.47076
0
LINE
8
BLACK
6
CONTINUOUS
10
3.31157
20
-3.47076
11
3.31153
21
-3.47076
0
LINE
8
BLACK
6
CONTINUOUS
10
3.31153
20
-3.47076
11
3.31095
21
-3.4707
0
LINE
8
BLACK
6
CONTINUOUS
10
3.31095
20
-3.4707
11
3.3104
21
-3.47052
0
LINE
8
BLACK
6
CONTINUOUS
10
3.3104
20
-3.47052
11
3.3099
21
-3.47025
0
LINE
8
BLACK
6
CONTINUOUS
10
3.3099
20
-3.47025
11
3.30946
21
-3.46988
0
LINE
8
BLACK
6
CONTINUOUS
10
3.30946
20
-3.46988
11
3.3091
21
-3.46943
0
LINE
8
BLACK
6
CONTINUOUS
10
3.3091
20
-3.46943
11
3.30883
21
-3.46892
0
LINE
8
BLACK
6
CONTINUOUS
10
3.30883
20
-3.46892
11
3.30867
21
-3.46836
0
LINE
8
BLACK
6
CONTINUOUS
10
3.30867
20
-3.46836
11
3.30861
21
-3.46779
0
LINE
8
BLACK
6
CONTINUOUS
10
3.30861
20
-3.46779
11
3.30867
21
-3.46722
0
LINE
8
BLACK
6
CONTINUOUS
10
3.30867
20
-3.46722
11
3.30885
21
-3.46667
0
LINE
8
BLACK
6
CONTINUOUS
10
3.30885
20
-3.46667
11
3.30912
21
-3.46616
0
LINE
8
BLACK
6
CONTINUOUS
10
3.30912
20
-3.46616
11
3.30949
21
-3.46572
0
LINE
8
BLACK
6
CONTINUOUS
10
3.30949
20
-3.46572
11
3.30993
21
-3.46535
0
LINE
8
BLACK
6
CONTINUOUS
10
3.30993
20
-3.46535
11
3.31044
21
-3.46508
0
LINE
8
BLACK
6
CONTINUOUS
10
3.31044
20
-3.46508
11
3.31099
21
-3.46491
0
LINE
8
BLACK
6
CONTINUOUS
10
3.31099
20
-3.46491
11
3.31157
21
-3.46486
0
LINE
8
BLACK
6
CONTINUOUS
10
3.31157
20
-3.46486
11
3.31986
21
-3.46486
0
LINE
8
BLACK
6
CONTINUOUS
10
3.31986
20
-3.46486
11
3.31986
21
-3.42844
0
LINE
8
BLACK
6
CONTINUOUS
10
3.31986
20
-3.42844
11
3.31986
21
-3.4284
0
LINE
8
BLACK
6
CONTINUOUS
10
3.31986
20
-3.4284
11
3.31986
21
-3.4284
0
LINE
8
BLACK
6
CONTINUOUS
10
3.31986
20
-3.4284
11
3.31986
21
-3.4284
0
LINE
8
BLACK
6
CONTINUOUS
10
3.31986
20
-3.4284
11
3.31986
21
-3.4284
0
LINE
8
BLACK
6
CONTINUOUS
10
3.31986
20
-3.4284
11
3.3199
21
-3.42812
0
LINE
8
BLACK
6
CONTINUOUS
10
3.3199
20
-3.42812
11
3.31993
21
-3.42783
0
LINE
8
BLACK
6
CONTINUOUS
10
3.31993
20
-3.42783
11
3.31993
21
-3.42783
0
LINE
8
BLACK
6
CONTINUOUS
10
3.31993
20
-3.42783
11
3.31993
21
-3.42783
0
LINE
8
BLACK
6
CONTINUOUS
10
3.31993
20
-3.42783
11
3.32002
21
-3.42754
0
LINE
8
BLACK
6
CONTINUOUS
10
3.32002
20
-3.42754
11
3.3201
21
-3.42728
0
LINE
8
BLACK
6
CONTINUOUS
10
3.3201
20
-3.42728
11
3.3201
21
-3.42728
0
LINE
8
BLACK
6
CONTINUOUS
10
3.3201
20
-3.42728
11
3.3201
21
-3.42728
0
LINE
8
BLACK
6
CONTINUOUS
10
3.3201
20
-3.42728
11
3.32024
21
-3.42702
0
LINE
8
BLACK
6
CONTINUOUS
10
3.32024
20
-3.42702
11
3.32038
21
-3.42678
0
LINE
8
BLACK
6
CONTINUOUS
10
3.32038
20
-3.42678
11
3.32038
21
-3.42677
0
LINE
8
BLACK
6
CONTINUOUS
10
3.32038
20
-3.42677
11
3.32038
21
-3.42677
0
LINE
8
BLACK
6
CONTINUOUS
10
3.32038
20
-3.42677
11
3.32056
21
-3.42655
0
LINE
8
BLACK
6
CONTINUOUS
10
3.32056
20
-3.42655
11
3.32075
21
-3.42633
0
LINE
8
BLACK
6
CONTINUOUS
10
3.32075
20
-3.42633
11
3.32075
21
-3.42633
0
LINE
8
BLACK
6
CONTINUOUS
10
3.32075
20
-3.42633
11
3.32075
21
-3.42633
0
LINE
8
BLACK
6
CONTINUOUS
10
3.32075
20
-3.42633
11
3.32097
21
-3.42615
0
LINE
8
BLACK
6
CONTINUOUS
10
3.32097
20
-3.42615
11
3.3212
21
-3.42597
0
LINE
8
BLACK
6
CONTINUOUS
10
3.3212
20
-3.42597
11
3.3212
21
-3.42597
0
LINE
8
BLACK
6
CONTINUOUS
10
3.3212
20
-3.42597
11
3.3212
21
-3.42597
0
LINE
8
BLACK
6
CONTINUOUS
10
3.3212
20
-3.42597
11
3.32145
21
-3.42584
0
LINE
8
BLACK
6
CONTINUOUS
10
3.32145
20
-3.42584
11
3.32171
21
-3.4257
0
LINE
8
BLACK
6
CONTINUOUS
10
3.32171
20
-3.4257
11
3.32171
21
-3.4257
0
LINE
8
BLACK
6
CONTINUOUS
10
3.32171
20
-3.4257
11
3.32171
21
-3.4257
0
LINE
8
BLACK
6
CONTINUOUS
10
3.32171
20
-3.4257
11
3.32198
21
-3.42562
0
LINE
8
BLACK
6
CONTINUOUS
10
3.32198
20
-3.42562
11
3.32226
21
-3.42554
0
LINE
8
BLACK
6
CONTINUOUS
10
3.32226
20
-3.42554
11
3.32226
21
-3.42554
0
LINE
8
BLACK
6
CONTINUOUS
10
3.32226
20
-3.42554
11
3.32226
21
-3.42554
0
LINE
8
BLACK
6
CONTINUOUS
10
3.32226
20
-3.42554
11
3.32254
21
-3.42551
0
LINE
8
BLACK
6
CONTINUOUS
10
3.32254
20
-3.42551
11
3.32283
21
-3.42549
0
LINE
8
BLACK
6
CONTINUOUS
10
3.32283
20
-3.42549
11
3.32283
21
-3.42549
0
LINE
8
BLACK
6
CONTINUOUS
10
3.4072
20
-3.46111
11
3.4072
21
-3.46111
0
LINE
8
BLACK
6
CONTINUOUS
10
3.4072
20
-3.46111
11
3.40721
21
-3.46111
0
LINE
8
BLACK
6
CONTINUOUS
10
3.40721
20
-3.46111
11
3.40721
21
-3.46111
0
LINE
8
BLACK
6
CONTINUOUS
10
3.40721
20
-3.46111
11
3.40748
21
-3.46114
0
LINE
8
BLACK
6
CONTINUOUS
10
3.40748
20
-3.46114
11
3.40776
21
-3.46117
0
LINE
8
BLACK
6
CONTINUOUS
10
3.40776
20
-3.46117
11
3.40777
21
-3.46117
0
LINE
8
BLACK
6
CONTINUOUS
10
3.40777
20
-3.46117
11
3.40777
21
-3.46117
0
LINE
8
BLACK
6
CONTINUOUS
10
3.40777
20
-3.46117
11
3.40778
21
-3.46117
0
LINE
8
BLACK
6
CONTINUOUS
10
3.40778
20
-3.46117
11
3.40778
21
-3.46117
0
LINE
8
BLACK
6
CONTINUOUS
10
3.40778
20
-3.46117
11
3.40804
21
-3.46125
0
LINE
8
BLACK
6
CONTINUOUS
10
3.40804
20
-3.46125
11
3.40805
21
-3.46125
0
LINE
8
BLACK
6
CONTINUOUS
10
3.40805
20
-3.46125
11
3.40832
21
-3.46133
0
LINE
8
BLACK
6
CONTINUOUS
10
3.40832
20
-3.46133
11
3.40832
21
-3.46134
0
LINE
8
BLACK
6
CONTINUOUS
10
3.40832
20
-3.46134
11
3.40832
21
-3.46134
0
LINE
8
BLACK
6
CONTINUOUS
10
3.40832
20
-3.46134
11
3.40833
21
-3.46134
0
LINE
8
BLACK
6
CONTINUOUS
10
3.40833
20
-3.46134
11
3.40833
21
-3.46134
0
LINE
8
BLACK
6
CONTINUOUS
10
3.40833
20
-3.46134
11
3.40857
21
-3.46147
0
LINE
8
BLACK
6
CONTINUOUS
10
3.40857
20
-3.46147
11
3.40882
21
-3.46161
0
LINE
8
BLACK
6
CONTINUOUS
10
3.40882
20
-3.46161
11
3.40883
21
-3.46161
0
LINE
8
BLACK
6
CONTINUOUS
10
3.40883
20
-3.46161
11
3.40883
21
-3.46161
0
LINE
8
BLACK
6
CONTINUOUS
10
3.40883
20
-3.46161
11
3.40884
21
-3.46162
0
LINE
8
BLACK
6
CONTINUOUS
10
3.40884
20
-3.46162
11
3.40884
21
-3.46162
0
LINE
8
BLACK
6
CONTINUOUS
10
3.40884
20
-3.46162
11
3.40905
21
-3.46179
0
LINE
8
BLACK
6
CONTINUOUS
10
3.40905
20
-3.46179
11
3.40927
21
-3.46197
0
LINE
8
BLACK
6
CONTINUOUS
10
3.40927
20
-3.46197
11
3.41114
21
-3.46385
0
LINE
8
BLACK
6
CONTINUOUS
10
3.41114
20
-3.46385
11
3.41116
21
-3.46386
0
LINE
8
BLACK
6
CONTINUOUS
10
3.41116
20
-3.46386
11
3.41116
21
-3.46386
0
LINE
8
BLACK
6
CONTINUOUS
10
3.41116
20
-3.46386
11
3.41116
21
-3.46386
0
LINE
8
BLACK
6
CONTINUOUS
10
3.41116
20
-3.46386
11
3.41117
21
-3.46388
0
LINE
8
BLACK
6
CONTINUOUS
10
3.41117
20
-3.46388
11
3.41135
21
-3.46409
0
LINE
8
BLACK
6
CONTINUOUS
10
3.41135
20
-3.46409
11
3.41152
21
-3.46431
0
LINE
8
BLACK
6
CONTINUOUS
10
3.41152
20
-3.46431
11
3.41153
21
-3.46432
0
LINE
8
BLACK
6
CONTINUOUS
10
3.41153
20
-3.46432
11
3.41153
21
-3.46433
0
LINE
8
BLACK
6
CONTINUOUS
10
3.41153
20
-3.46433
11
3.41166
21
-3.46457
0
LINE
8
BLACK
6
CONTINUOUS
10
3.41166
20
-3.46457
11
3.41179
21
-3.46482
0
LINE
8
BLACK
6
CONTINUOUS
10
3.41179
20
-3.46482
11
3.41179
21
-3.46483
0
LINE
8
BLACK
6
CONTINUOUS
10
3.41179
20
-3.46483
11
3.4118
21
-3.46484
0
LINE
8
BLACK
6
CONTINUOUS
10
3.4118
20
-3.46484
11
3.41187
21
-3.46511
0
LINE
8
BLACK
6
CONTINUOUS
10
3.41187
20
-3.46511
11
3.41195
21
-3.46537
0
LINE
8
BLACK
6
CONTINUOUS
10
3.41195
20
-3.46537
11
3.41195
21
-3.46538
0
LINE
8
BLACK
6
CONTINUOUS
10
3.41195
20
-3.46538
11
3.41196
21
-3.46539
0
LINE
8
BLACK
6
CONTINUOUS
10
3.41196
20
-3.46539
11
3.41198
21
-3.46567
0
LINE
8
BLACK
6
CONTINUOUS
10
3.41198
20
-3.46567
11
3.41201
21
-3.46595
0
LINE
8
BLACK
6
CONTINUOUS
10
3.41201
20
-3.46595
11
3.41201
21
-3.46596
0
LINE
8
BLACK
6
CONTINUOUS
10
3.41201
20
-3.46596
11
3.41201
21
-3.46597
0
LINE
8
BLACK
6
CONTINUOUS
10
3.41201
20
-3.46597
11
3.41198
21
-3.46624
0
LINE
8
BLACK
6
CONTINUOUS
10
3.41198
20
-3.46624
11
3.41195
21
-3.46652
0
LINE
8
BLACK
6
CONTINUOUS
10
3.41195
20
-3.46652
11
3.41195
21
-3.46653
0
LINE
8
BLACK
6
CONTINUOUS
10
3.41195
20
-3.46653
11
3.41195
21
-3.46654
0
LINE
8
BLACK
6
CONTINUOUS
10
3.41195
20
-3.46654
11
3.41186
21
-3.46681
0
LINE
8
BLACK
6
CONTINUOUS
10
3.41186
20
-3.46681
11
3.41178
21
-3.46707
0
LINE
8
BLACK
6
CONTINUOUS
10
3.41178
20
-3.46707
11
3.41178
21
-3.46708
0
LINE
8
BLACK
6
CONTINUOUS
10
3.41178
20
-3.46708
11
3.41177
21
-3.46709
0
LINE
8
BLACK
6
CONTINUOUS
10
3.41177
20
-3.46709
11
3.41164
21
-3.46733
0
LINE
8
BLACK
6
CONTINUOUS
10
3.41164
20
-3.46733
11
3.41151
21
-3.46758
0
LINE
8
BLACK
6
CONTINUOUS
10
3.41151
20
-3.46758
11
3.4115
21
-3.46759
0
LINE
8
BLACK
6
CONTINUOUS
10
3.4115
20
-3.46759
11
3.4115
21
-3.4676
0
LINE
8
BLACK
6
CONTINUOUS
10
3.4115
20
-3.4676
11
3.41132
21
-3.46781
0
LINE
8
BLACK
6
CONTINUOUS
10
3.41132
20
-3.46781
11
3.41114
21
-3.46802
0
LINE
8
BLACK
6
CONTINUOUS
10
3.41114
20
-3.46802
11
3.40927
21
-3.4699
0
LINE
8
BLACK
6
CONTINUOUS
10
3.40927
20
-3.4699
11
3.40925
21
-3.46991
0
LINE
8
BLACK
6
CONTINUOUS
10
3.40925
20
-3.46991
11
3.40925
21
-3.46991
0
LINE
8
BLACK
6
CONTINUOUS
10
3.40925
20
-3.46991
11
3.40925
21
-3.46991
0
LINE
8
BLACK
6
CONTINUOUS
10
3.40925
20
-3.46991
11
3.40925
21
-3.46992
0
LINE
8
BLACK
6
CONTINUOUS
10
3.40925
20
-3.46992
11
3.40925
21
-3.46992
0
LINE
8
BLACK
6
CONTINUOUS
10
3.40925
20
-3.46992
11
3.40925
21
-3.46992
0
LINE
8
BLACK
6
CONTINUOUS
10
3.40925
20
-3.46992
11
3.40924
21
-3.46993
0
LINE
8
BLACK
6
CONTINUOUS
10
3.40924
20
-3.46993
11
3.40902
21
-3.4701
0
LINE
8
BLACK
6
CONTINUOUS
10
3.40902
20
-3.4701
11
3.40881
21
-3.47028
0
LINE
8
BLACK
6
CONTINUOUS
10
3.40881
20
-3.47028
11
3.4088
21
-3.47028
0
LINE
8
BLACK
6
CONTINUOUS
10
3.4088
20
-3.47028
11
3.4088
21
-3.47028
0
LINE
8
BLACK
6
CONTINUOUS
10
3.4088
20
-3.47028
11
3.40879
21
-3.47028
0
LINE
8
BLACK
6
CONTINUOUS
10
3.40879
20
-3.47028
11
3.40879
21
-3.47029
0
LINE
8
BLACK
6
CONTINUOUS
10
3.40879
20
-3.47029
11
3.40854
21
-3.47041
0
LINE
8
BLACK
6
CONTINUOUS
10
3.40854
20
-3.47041
11
3.4083
21
-3.47054
0
LINE
8
BLACK
6
CONTINUOUS
10
3.4083
20
-3.47054
11
3.40829
21
-3.47055
0
LINE
8
BLACK
6
CONTINUOUS
10
3.40829
20
-3.47055
11
3.40829
21
-3.47055
0
LINE
8
BLACK
6
CONTINUOUS
10
3.40829
20
-3.47055
11
3.40828
21
-3.47055
0
LINE
8
BLACK
6
CONTINUOUS
10
3.40828
20
-3.47055
11
3.40828
21
-3.47055
0
LINE
8
BLACK
6
CONTINUOUS
10
3.40828
20
-3.47055
11
3.40801
21
-3.47063
0
LINE
8
BLACK
6
CONTINUOUS
10
3.40801
20
-3.47063
11
3.40774
21
-3.47071
0
LINE
8
BLACK
6
CONTINUOUS
10
3.40774
20
-3.47071
11
3.40774
21
-3.47071
0
LINE
8
BLACK
6
CONTINUOUS
10
3.40774
20
-3.47071
11
3.40773
21
-3.47071
0
LINE
8
BLACK
6
CONTINUOUS
10
3.40773
20
-3.47071
11
3.40773
21
-3.47071
0
LINE
8
BLACK
6
CONTINUOUS
10
3.40773
20
-3.47071
11
3.40772
21
-3.47071
0
LINE
8
BLACK
6
CONTINUOUS
10
3.40772
20
-3.47071
11
3.40745
21
-3.47074
0
LINE
8
BLACK
6
CONTINUOUS
10
3.40745
20
-3.47074
11
3.40717
21
-3.47076
0
LINE
8
BLACK
6
CONTINUOUS
10
3.40717
20
-3.47076
11
3.40716
21
-3.47076
0
LINE
8
BLACK
6
CONTINUOUS
10
3.40716
20
-3.47076
11
3.40716
21
-3.47076
0
LINE
8
BLACK
6
CONTINUOUS
10
3.40716
20
-3.47076
11
3.40715
21
-3.47076
0
LINE
8
BLACK
6
CONTINUOUS
10
3.40715
20
-3.47076
11
3.40715
21
-3.47076
0
LINE
8
BLACK
6
CONTINUOUS
10
3.40715
20
-3.47076
11
3.40688
21
-3.47073
0
LINE
8
BLACK
6
CONTINUOUS
10
3.40688
20
-3.47073
11
3.4066
21
-3.4707
0
LINE
8
BLACK
6
CONTINUOUS
10
3.4066
20
-3.4707
11
3.40659
21
-3.4707
0
LINE
8
BLACK
6
CONTINUOUS
10
3.40659
20
-3.4707
11
3.40659
21
-3.4707
0
LINE
8
BLACK
6
CONTINUOUS
10
3.40659
20
-3.4707
11
3.40658
21
-3.4707
0
LINE
8
BLACK
6
CONTINUOUS
10
3.40658
20
-3.4707
11
3.40658
21
-3.4707
0
LINE
8
BLACK
6
CONTINUOUS
10
3.40658
20
-3.4707
11
3.40631
21
-3.47062
0
LINE
8
BLACK
6
CONTINUOUS
10
3.40631
20
-3.47062
11
3.40631
21
-3.47062
0
LINE
8
BLACK
6
CONTINUOUS
10
3.40631
20
-3.47062
11
3.40605
21
-3.47054
0
LINE
8
BLACK
6
CONTINUOUS
10
3.40605
20
-3.47054
11
3.40604
21
-3.47053
0
LINE
8
BLACK
6
CONTINUOUS
10
3.40604
20
-3.47053
11
3.40604
21
-3.47053
0
LINE
8
BLACK
6
CONTINUOUS
10
3.40604
20
-3.47053
11
3.40603
21
-3.47053
0
LINE
8
BLACK
6
CONTINUOUS
10
3.40603
20
-3.47053
11
3.40603
21
-3.47053
0
LINE
8
BLACK
6
CONTINUOUS
10
3.40603
20
-3.47053
11
3.40578
21
-3.47039
0
LINE
8
BLACK
6
CONTINUOUS
10
3.40578
20
-3.47039
11
3.40554
21
-3.47026
0
LINE
8
BLACK
6
CONTINUOUS
10
3.40554
20
-3.47026
11
3.40553
21
-3.47026
0
LINE
8
BLACK
6
CONTINUOUS
10
3.40553
20
-3.47026
11
3.40553
21
-3.47026
0
LINE
8
BLACK
6
CONTINUOUS
10
3.40553
20
-3.47026
11
3.40553
21
-3.47025
0
LINE
8
BLACK
6
CONTINUOUS
10
3.40553
20
-3.47025
11
3.40552
21
-3.47025
0
LINE
8
BLACK
6
CONTINUOUS
10
3.40552
20
-3.47025
11
3.40531
21
-3.47007
0
LINE
8
BLACK
6
CONTINUOUS
10
3.40531
20
-3.47007
11
3.40509
21
-3.4699
0
LINE
8
BLACK
6
CONTINUOUS
10
3.40509
20
-3.4699
11
3.40322
21
-3.46802
0
LINE
8
BLACK
6
CONTINUOUS
10
3.40322
20
-3.46802
11
3.4032
21
-3.46801
0
LINE
8
BLACK
6
CONTINUOUS
10
3.4032
20
-3.46801
11
3.4032
21
-3.46801
0
LINE
8
BLACK
6
CONTINUOUS
10
3.4032
20
-3.46801
11
3.4032
21
-3.46801
0
LINE
8
BLACK
6
CONTINUOUS
10
3.4032
20
-3.46801
11
3.40319
21
-3.46799
0
LINE
8
BLACK
6
CONTINUOUS
10
3.40319
20
-3.46799
11
3.40302
21
-3.46778
0
LINE
8
BLACK
6
CONTINUOUS
10
3.40302
20
-3.46778
11
3.40284
21
-3.46756
0
LINE
8
BLACK
6
CONTINUOUS
10
3.40284
20
-3.46756
11
3.40284
21
-3.46755
0
LINE
8
BLACK
6
CONTINUOUS
10
3.40284
20
-3.46755
11
3.40283
21
-3.46754
0
LINE
8
BLACK
6
CONTINUOUS
10
3.40283
20
-3.46754
11
3.4027
21
-3.4673
0
LINE
8
BLACK
6
CONTINUOUS
10
3.4027
20
-3.4673
11
3.40257
21
-3.46705
0
LINE
8
BLACK
6
CONTINUOUS
10
3.40257
20
-3.46705
11
3.40257
21
-3.46704
0
LINE
8
BLACK
6
CONTINUOUS
10
3.40257
20
-3.46704
11
3.40256
21
-3.46703
0
LINE
8
BLACK
6
CONTINUOUS
10
3.40256
20
-3.46703
11
3.40249
21
-3.46676
0
LINE
8
BLACK
6
CONTINUOUS
10
3.40249
20
-3.46676
11
3.40241
21
-3.4665
0
LINE
8
BLACK
6
CONTINUOUS
10
3.40241
20
-3.4665
11
3.40241
21
-3.46649
0
LINE
8
BLACK
6
CONTINUOUS
10
3.40241
20
-3.46649
11
3.4024
21
-3.46648
0
LINE
8
BLACK
6
CONTINUOUS
10
3.4024
20
-3.46648
11
3.40238
21
-3.4662
0
LINE
8
BLACK
6
CONTINUOUS
10
3.40238
20
-3.4662
11
3.40235
21
-3.46593
0
LINE
8
BLACK
6
CONTINUOUS
10
3.40235
20
-3.46593
11
3.40235
21
-3.46591
0
LINE
8
BLACK
6
CONTINUOUS
10
3.40235
20
-3.46591
11
3.40235
21
-3.4659
0
LINE
8
BLACK
6
CONTINUOUS
10
3.40235
20
-3.4659
11
3.40238
21
-3.46563
0
LINE
8
BLACK
6
CONTINUOUS
10
3.40238
20
-3.46563
11
3.40241
21
-3.46535
0
LINE
8
BLACK
6
CONTINUOUS
10
3.40241
20
-3.46535
11
3.40241
21
-3.46534
0
LINE
8
BLACK
6
CONTINUOUS
10
3.40241
20
-3.46534
11
3.40242
21
-3.46533
0
LINE
8
BLACK
6
CONTINUOUS
10
3.40242
20
-3.46533
11
3.4025
21
-3.46507
0
LINE
8
BLACK
6
CONTINUOUS
10
3.4025
20
-3.46507
11
3.40258
21
-3.4648
0
LINE
8
BLACK
6
CONTINUOUS
10
3.40258
20
-3.4648
11
3.40258
21
-3.46479
0
LINE
8
BLACK
6
CONTINUOUS
10
3.40258
20
-3.46479
11
3.40259
21
-3.46478
0
LINE
8
BLACK
6
CONTINUOUS
10
3.40259
20
-3.46478
11
3.40272
21
-3.46454
0
LINE
8
BLACK
6
CONTINUOUS
10
3.40272
20
-3.46454
11
3.40285
21
-3.46429
0
LINE
8
BLACK
6
CONTINUOUS
10
3.40285
20
-3.46429
11
3.40286
21
-3.46428
0
LINE
8
BLACK
6
CONTINUOUS
10
3.40286
20
-3.46428
11
3.40286
21
-3.46428
0
LINE
8
BLACK
6
CONTINUOUS
10
3.40286
20
-3.46428
11
3.40304
21
-3.46406
0
LINE
8
BLACK
6
CONTINUOUS
10
3.40304
20
-3.46406
11
3.40322
21
-3.46385
0
LINE
8
BLACK
6
CONTINUOUS
10
3.40322
20
-3.46385
11
3.40509
21
-3.46197
0
LINE
8
BLACK
6
CONTINUOUS
10
3.40509
20
-3.46197
11
3.40511
21
-3.46196
0
LINE
8
BLACK
6
CONTINUOUS
10
3.40511
20
-3.46196
11
3.40511
21
-3.46196
0
LINE
8
BLACK
6
CONTINUOUS
10
3.40511
20
-3.46196
11
3.40511
21
-3.46196
0
LINE
8
BLACK
6
CONTINUOUS
10
3.40511
20
-3.46196
11
3.40511
21
-3.46195
0
LINE
8
BLACK
6
CONTINUOUS
10
3.40511
20
-3.46195
11
3.40511
21
-3.46195
0
LINE
8
BLACK
6
CONTINUOUS
10
3.40511
20
-3.46195
11
3.40511
21
-3.46195
0
LINE
8
BLACK
6
CONTINUOUS
10
3.40511
20
-3.46195
11
3.40512
21
-3.46194
0
LINE
8
BLACK
6
CONTINUOUS
10
3.40512
20
-3.46194
11
3.40534
21
-3.46177
0
LINE
8
BLACK
6
CONTINUOUS
10
3.40534
20
-3.46177
11
3.40555
21
-3.4616
0
LINE
8
BLACK
6
CONTINUOUS
10
3.40555
20
-3.4616
11
3.40556
21
-3.46159
0
LINE
8
BLACK
6
CONTINUOUS
10
3.40556
20
-3.46159
11
3.40556
21
-3.46159
0
LINE
8
BLACK
6
CONTINUOUS
10
3.40556
20
-3.46159
11
3.40557
21
-3.46159
0
LINE
8
BLACK
6
CONTINUOUS
10
3.40557
20
-3.46159
11
3.40557
21
-3.46158
0
LINE
8
BLACK
6
CONTINUOUS
10
3.40557
20
-3.46158
11
3.40582
21
-3.46146
0
LINE
8
BLACK
6
CONTINUOUS
10
3.40582
20
-3.46146
11
3.40606
21
-3.46133
0
LINE
8
BLACK
6
CONTINUOUS
10
3.40606
20
-3.46133
11
3.40607
21
-3.46133
0
LINE
8
BLACK
6
CONTINUOUS
10
3.40607
20
-3.46133
11
3.40607
21
-3.46132
0
LINE
8
BLACK
6
CONTINUOUS
10
3.40607
20
-3.46132
11
3.40608
21
-3.46132
0
LINE
8
BLACK
6
CONTINUOUS
10
3.40608
20
-3.46132
11
3.40608
21
-3.46132
0
LINE
8
BLACK
6
CONTINUOUS
10
3.40608
20
-3.46132
11
3.40635
21
-3.46124
0
LINE
8
BLACK
6
CONTINUOUS
10
3.40635
20
-3.46124
11
3.40662
21
-3.46116
0
LINE
8
BLACK
6
CONTINUOUS
10
3.40662
20
-3.46116
11
3.40662
21
-3.46116
0
LINE
8
BLACK
6
CONTINUOUS
10
3.40662
20
-3.46116
11
3.40663
21
-3.46116
0
LINE
8
BLACK
6
CONTINUOUS
10
3.40663
20
-3.46116
11
3.40663
21
-3.46116
0
LINE
8
BLACK
6
CONTINUOUS
10
3.40663
20
-3.46116
11
3.40664
21
-3.46116
0
LINE
8
BLACK
6
CONTINUOUS
10
3.40664
20
-3.46116
11
3.40691
21
-3.46113
0
LINE
8
BLACK
6
CONTINUOUS
10
3.40691
20
-3.46113
11
3.40719
21
-3.46111
0
LINE
8
BLACK
6
CONTINUOUS
10
3.40719
20
-3.46111
11
3.4072
21
-3.46111
0
LINE
8
BLACK
6
CONTINUOUS
10
3.43722
20
-3.42549
11
3.4373
21
-3.4255
0
LINE
8
BLACK
6
CONTINUOUS
10
3.4373
20
-3.4255
11
3.43739
21
-3.4255
0
LINE
8
BLACK
6
CONTINUOUS
10
3.43739
20
-3.4255
11
3.43759
21
-3.42553
0
LINE
8
BLACK
6
CONTINUOUS
10
3.43759
20
-3.42553
11
3.43779
21
-3.42555
0
LINE
8
BLACK
6
CONTINUOUS
10
3.43779
20
-3.42555
11
3.43787
21
-3.42558
0
LINE
8
BLACK
6
CONTINUOUS
10
3.43787
20
-3.42558
11
3.43796
21
-3.42559
0
LINE
8
BLACK
6
CONTINUOUS
10
3.43796
20
-3.42559
11
3.43815
21
-3.42567
0
LINE
8
BLACK
6
CONTINUOUS
10
3.43815
20
-3.42567
11
3.43834
21
-3.42573
0
LINE
8
BLACK
6
CONTINUOUS
10
3.43834
20
-3.42573
11
3.43842
21
-3.42577
0
LINE
8
BLACK
6
CONTINUOUS
10
3.43842
20
-3.42577
11
3.4385
21
-3.4258
0
LINE
8
BLACK
6
CONTINUOUS
10
3.4385
20
-3.4258
11
3.44225
21
-3.42767
0
LINE
8
BLACK
6
CONTINUOUS
10
3.44225
20
-3.42767
11
3.44228
21
-3.42769
0
LINE
8
BLACK
6
CONTINUOUS
10
3.44228
20
-3.42769
11
3.44242
21
-3.42778
0
LINE
8
BLACK
6
CONTINUOUS
10
3.44242
20
-3.42778
11
3.44257
21
-3.42786
0
LINE
8
BLACK
6
CONTINUOUS
10
3.44257
20
-3.42786
11
3.44266
21
-3.42794
0
LINE
8
BLACK
6
CONTINUOUS
10
3.44266
20
-3.42794
11
3.44277
21
-3.42801
0
LINE
8
BLACK
6
CONTINUOUS
10
3.44277
20
-3.42801
11
3.44289
21
-3.42812
0
LINE
8
BLACK
6
CONTINUOUS
10
3.44289
20
-3.42812
11
3.44301
21
-3.42823
0
LINE
8
BLACK
6
CONTINUOUS
10
3.44301
20
-3.42823
11
3.44489
21
-3.4301
0
LINE
8
BLACK
6
CONTINUOUS
10
3.44489
20
-3.4301
11
3.44492
21
-3.43013
0
LINE
8
BLACK
6
CONTINUOUS
10
3.44492
20
-3.43013
11
3.44502
21
-3.43026
0
LINE
8
BLACK
6
CONTINUOUS
10
3.44502
20
-3.43026
11
3.44514
21
-3.43038
0
LINE
8
BLACK
6
CONTINUOUS
10
3.44514
20
-3.43038
11
3.4452
21
-3.43049
0
LINE
8
BLACK
6
CONTINUOUS
10
3.4452
20
-3.43049
11
3.44528
21
-3.43058
0
LINE
8
BLACK
6
CONTINUOUS
10
3.44528
20
-3.43058
11
3.44535
21
-3.43073
0
LINE
8
BLACK
6
CONTINUOUS
10
3.44535
20
-3.43073
11
3.44544
21
-3.43087
0
LINE
8
BLACK
6
CONTINUOUS
10
3.44544
20
-3.43087
11
3.44732
21
-3.43462
0
LINE
8
BLACK
6
CONTINUOUS
10
3.44732
20
-3.43462
11
3.44733
21
-3.43466
0
LINE
8
BLACK
6
CONTINUOUS
10
3.44733
20
-3.43466
11
3.44734
21
-3.43467
0
LINE
8
BLACK
6
CONTINUOUS
10
3.44734
20
-3.43467
11
3.44735
21
-3.43468
0
LINE
8
BLACK
6
CONTINUOUS
10
3.44735
20
-3.43468
11
3.44744
21
-3.43494
0
LINE
8
BLACK
6
CONTINUOUS
10
3.44744
20
-3.43494
11
3.44753
21
-3.4352
0
LINE
8
BLACK
6
CONTINUOUS
10
3.44753
20
-3.4352
11
3.44754
21
-3.43521
0
LINE
8
BLACK
6
CONTINUOUS
10
3.44754
20
-3.43521
11
3.44754
21
-3.43522
0
LINE
8
BLACK
6
CONTINUOUS
10
3.44754
20
-3.43522
11
3.44942
21
-3.44272
0
LINE
8
BLACK
6
CONTINUOUS
10
3.44942
20
-3.44272
11
3.44942
21
-3.44276
0
LINE
8
BLACK
6
CONTINUOUS
10
3.44942
20
-3.44276
11
3.44943
21
-3.44281
0
LINE
8
BLACK
6
CONTINUOUS
10
3.44943
20
-3.44281
11
3.44945
21
-3.44286
0
LINE
8
BLACK
6
CONTINUOUS
10
3.44945
20
-3.44286
11
3.44947
21
-3.4431
0
LINE
8
BLACK
6
CONTINUOUS
10
3.44947
20
-3.4431
11
3.4495
21
-3.44333
0
LINE
8
BLACK
6
CONTINUOUS
10
3.4495
20
-3.44333
11
3.4495
21
-3.44339
0
LINE
8
BLACK
6
CONTINUOUS
10
3.4495
20
-3.44339
11
3.4495
21
-3.44344
0
LINE
8
BLACK
6
CONTINUOUS
10
3.4495
20
-3.44344
11
3.4495
21
-3.45281
0
LINE
8
BLACK
6
CONTINUOUS
10
3.4495
20
-3.45281
11
3.4495
21
-3.45285
0
LINE
8
BLACK
6
CONTINUOUS
10
3.4495
20
-3.45285
11
3.4495
21
-3.45291
0
LINE
8
BLACK
6
CONTINUOUS
10
3.4495
20
-3.45291
11
3.4495
21
-3.45296
0
LINE
8
BLACK
6
CONTINUOUS
10
3.4495
20
-3.45296
11
3.44946
21
-3.45319
0
LINE
8
BLACK
6
CONTINUOUS
10
3.44946
20
-3.45319
11
3.44944
21
-3.45343
0
LINE
8
BLACK
6
CONTINUOUS
10
3.44944
20
-3.45343
11
3.44942
21
-3.45348
0
LINE
8
BLACK
6
CONTINUOUS
10
3.44942
20
-3.45348
11
3.44942
21
-3.45353
0
LINE
8
BLACK
6
CONTINUOUS
10
3.44942
20
-3.45353
11
3.44754
21
-3.46103
0
LINE
8
BLACK
6
CONTINUOUS
10
3.44754
20
-3.46103
11
3.44753
21
-3.46107
0
LINE
8
BLACK
6
CONTINUOUS
10
3.44753
20
-3.46107
11
3.44753
21
-3.46108
0
LINE
8
BLACK
6
CONTINUOUS
10
3.44753
20
-3.46108
11
3.44752
21
-3.46109
0
LINE
8
BLACK
6
CONTINUOUS
10
3.44752
20
-3.46109
11
3.44742
21
-3.46135
0
LINE
8
BLACK
6
CONTINUOUS
10
3.44742
20
-3.46135
11
3.44733
21
-3.46161
0
LINE
8
BLACK
6
CONTINUOUS
10
3.44733
20
-3.46161
11
3.44732
21
-3.46162
0
LINE
8
BLACK
6
CONTINUOUS
10
3.44732
20
-3.46162
11
3.44732
21
-3.46163
0
LINE
8
BLACK
6
CONTINUOUS
10
3.44732
20
-3.46163
11
3.44544
21
-3.46538
0
LINE
8
BLACK
6
CONTINUOUS
10
3.44544
20
-3.46538
11
3.44542
21
-3.46542
0
LINE
8
BLACK
6
CONTINUOUS
10
3.44542
20
-3.46542
11
3.44533
21
-3.46556
0
LINE
8
BLACK
6
CONTINUOUS
10
3.44533
20
-3.46556
11
3.44525
21
-3.4657
0
LINE
8
BLACK
6
CONTINUOUS
10
3.44525
20
-3.4657
11
3.44518
21
-3.4658
0
LINE
8
BLACK
6
CONTINUOUS
10
3.44518
20
-3.4658
11
3.44511
21
-3.4659
0
LINE
8
BLACK
6
CONTINUOUS
10
3.44511
20
-3.4659
11
3.44499
21
-3.46602
0
LINE
8
BLACK
6
CONTINUOUS
10
3.44499
20
-3.46602
11
3.44489
21
-3.46615
0
LINE
8
BLACK
6
CONTINUOUS
10
3.44489
20
-3.46615
11
3.44301
21
-3.46802
0
LINE
8
BLACK
6
CONTINUOUS
10
3.44301
20
-3.46802
11
3.44298
21
-3.46805
0
LINE
8
BLACK
6
CONTINUOUS
10
3.44298
20
-3.46805
11
3.44286
21
-3.46816
0
LINE
8
BLACK
6
CONTINUOUS
10
3.44286
20
-3.46816
11
3.44273
21
-3.46827
0
LINE
8
BLACK
6
CONTINUOUS
10
3.44273
20
-3.46827
11
3.44263
21
-3.46834
0
LINE
8
BLACK
6
CONTINUOUS
10
3.44263
20
-3.46834
11
3.44253
21
-3.46841
0
LINE
8
BLACK
6
CONTINUOUS
10
3.44253
20
-3.46841
11
3.44239
21
-3.46849
0
LINE
8
BLACK
6
CONTINUOUS
10
3.44239
20
-3.46849
11
3.44225
21
-3.46858
0
LINE
8
BLACK
6
CONTINUOUS
10
3.44225
20
-3.46858
11
3.4385
21
-3.47045
0
LINE
8
BLACK
6
CONTINUOUS
10
3.4385
20
-3.47045
11
3.43846
21
-3.47047
0
LINE
8
BLACK
6
CONTINUOUS
10
3.43846
20
-3.47047
11
3.43838
21
-3.4705
0
LINE
8
BLACK
6
CONTINUOUS
10
3.43838
20
-3.4705
11
3.4383
21
-3.47054
0
LINE
8
BLACK
6
CONTINUOUS
10
3.4383
20
-3.47054
11
3.43811
21
-3.4706
0
LINE
8
BLACK
6
CONTINUOUS
10
3.43811
20
-3.4706
11
3.43792
21
-3.47067
0
LINE
8
BLACK
6
CONTINUOUS
10
3.43792
20
-3.47067
11
3.43783
21
-3.47068
0
LINE
8
BLACK
6
CONTINUOUS
10
3.43783
20
-3.47068
11
3.43775
21
-3.47071
0
LINE
8
BLACK
6
CONTINUOUS
10
3.43775
20
-3.47071
11
3.43755
21
-3.47073
0
LINE
8
BLACK
6
CONTINUOUS
10
3.43755
20
-3.47073
11
3.43735
21
-3.47076
0
LINE
8
BLACK
6
CONTINUOUS
10
3.43735
20
-3.47076
11
3.43726
21
-3.47075
0
LINE
8
BLACK
6
CONTINUOUS
10
3.43726
20
-3.47075
11
3.43718
21
-3.47076
0
LINE
8
BLACK
6
CONTINUOUS
10
3.43718
20
-3.47076
11
3.43343
21
-3.47076
0
LINE
8
BLACK
6
CONTINUOUS
10
3.43343
20
-3.47076
11
3.43339
21
-3.47076
0
LINE
8
BLACK
6
CONTINUOUS
10
3.43339
20
-3.47076
11
3.4333
21
-3.47075
0
LINE
8
BLACK
6
CONTINUOUS
10
3.4333
20
-3.47075
11
3.43321
21
-3.47076
0
LINE
8
BLACK
6
CONTINUOUS
10
3.43321
20
-3.47076
11
3.43301
21
-3.47072
0
LINE
8
BLACK
6
CONTINUOUS
10
3.43301
20
-3.47072
11
3.43281
21
-3.4707
0
LINE
8
BLACK
6
CONTINUOUS
10
3.43281
20
-3.4707
11
3.43273
21
-3.47067
0
LINE
8
BLACK
6
CONTINUOUS
10
3.43273
20
-3.47067
11
3.43264
21
-3.47066
0
LINE
8
BLACK
6
CONTINUOUS
10
3.43264
20
-3.47066
11
3.43246
21
-3.47059
0
LINE
8
BLACK
6
CONTINUOUS
10
3.43246
20
-3.47059
11
3.43226
21
-3.47052
0
LINE
8
BLACK
6
CONTINUOUS
10
3.43226
20
-3.47052
11
3.43219
21
-3.47048
0
LINE
8
BLACK
6
CONTINUOUS
10
3.43219
20
-3.47048
11
3.43211
21
-3.47045
0
LINE
8
BLACK
6
CONTINUOUS
10
3.43211
20
-3.47045
11
3.42836
21
-3.46858
0
LINE
8
BLACK
6
CONTINUOUS
10
3.42836
20
-3.46858
11
3.42832
21
-3.46856
0
LINE
8
BLACK
6
CONTINUOUS
10
3.42832
20
-3.46856
11
3.42818
21
-3.46847
0
LINE
8
BLACK
6
CONTINUOUS
10
3.42818
20
-3.46847
11
3.42803
21
-3.46839
0
LINE
8
BLACK
6
CONTINUOUS
10
3.42803
20
-3.46839
11
3.42794
21
-3.46831
0
LINE
8
BLACK
6
CONTINUOUS
10
3.42794
20
-3.46831
11
3.42784
21
-3.46824
0
LINE
8
BLACK
6
CONTINUOUS
10
3.42784
20
-3.46824
11
3.42772
21
-3.46813
0
LINE
8
BLACK
6
CONTINUOUS
10
3.42772
20
-3.46813
11
3.42759
21
-3.46802
0
LINE
8
BLACK
6
CONTINUOUS
10
3.42759
20
-3.46802
11
3.42571
21
-3.46615
0
LINE
8
BLACK
6
CONTINUOUS
10
3.42571
20
-3.46615
11
3.42569
21
-3.46612
0
LINE
8
BLACK
6
CONTINUOUS
10
3.42569
20
-3.46612
11
3.42558
21
-3.46599
0
LINE
8
BLACK
6
CONTINUOUS
10
3.42558
20
-3.46599
11
3.42547
21
-3.46587
0
LINE
8
BLACK
6
CONTINUOUS
10
3.42547
20
-3.46587
11
3.4254
21
-3.46576
0
LINE
8
BLACK
6
CONTINUOUS
10
3.4254
20
-3.46576
11
3.42533
21
-3.46567
0
LINE
8
BLACK
6
CONTINUOUS
10
3.42533
20
-3.46567
11
3.42525
21
-3.46552
0
LINE
8
BLACK
6
CONTINUOUS
10
3.42525
20
-3.46552
11
3.42516
21
-3.46538
0
LINE
8
BLACK
6
CONTINUOUS
10
3.42516
20
-3.46538
11
3.42329
21
-3.46163
0
LINE
8
BLACK
6
CONTINUOUS
10
3.42329
20
-3.46163
11
3.42327
21
-3.46159
0
LINE
8
BLACK
6
CONTINUOUS
10
3.42327
20
-3.46159
11
3.42326
21
-3.46158
0
LINE
8
BLACK
6
CONTINUOUS
10
3.42326
20
-3.46158
11
3.42326
21
-3.46157
0
LINE
8
BLACK
6
CONTINUOUS
10
3.42326
20
-3.46157
11
3.42316
21
-3.46131
0
LINE
8
BLACK
6
CONTINUOUS
10
3.42316
20
-3.46131
11
3.42307
21
-3.46105
0
LINE
8
BLACK
6
CONTINUOUS
10
3.42307
20
-3.46105
11
3.42307
21
-3.46104
0
LINE
8
BLACK
6
CONTINUOUS
10
3.42307
20
-3.46104
11
3.42306
21
-3.46103
0
LINE
8
BLACK
6
CONTINUOUS
10
3.42306
20
-3.46103
11
3.42119
21
-3.45353
0
LINE
8
BLACK
6
CONTINUOUS
10
3.42119
20
-3.45353
11
3.42118
21
-3.45349
0
LINE
8
BLACK
6
CONTINUOUS
10
3.42118
20
-3.45349
11
3.42117
21
-3.45344
0
LINE
8
BLACK
6
CONTINUOUS
10
3.42117
20
-3.45344
11
3.42116
21
-3.45339
0
LINE
8
BLACK
6
CONTINUOUS
10
3.42116
20
-3.45339
11
3.42113
21
-3.45315
0
LINE
8
BLACK
6
CONTINUOUS
10
3.42113
20
-3.45315
11
3.4211
21
-3.45292
0
LINE
8
BLACK
6
CONTINUOUS
10
3.4211
20
-3.45292
11
3.42111
21
-3.45286
0
LINE
8
BLACK
6
CONTINUOUS
10
3.42111
20
-3.45286
11
3.4211
21
-3.45281
0
LINE
8
BLACK
6
CONTINUOUS
10
3.4211
20
-3.45281
11
3.4211
21
-3.44344
0
LINE
8
BLACK
6
CONTINUOUS
10
3.4211
20
-3.44344
11
3.4211
21
-3.4434
0
LINE
8
BLACK
6
CONTINUOUS
10
3.4211
20
-3.4434
11
3.42111
21
-3.44334
0
LINE
8
BLACK
6
CONTINUOUS
10
3.42111
20
-3.44334
11
3.4211
21
-3.44329
0
LINE
8
BLACK
6
CONTINUOUS
10
3.4211
20
-3.44329
11
3.42114
21
-3.44306
0
LINE
8
BLACK
6
CONTINUOUS
10
3.42114
20
-3.44306
11
3.42116
21
-3.44282
0
LINE
8
BLACK
6
CONTINUOUS
10
3.42116
20
-3.44282
11
3.42118
21
-3.44277
0
LINE
8
BLACK
6
CONTINUOUS
10
3.42118
20
-3.44277
11
3.42119
21
-3.44272
0
LINE
8
BLACK
6
CONTINUOUS
10
3.42119
20
-3.44272
11
3.42306
21
-3.43522
0
LINE
8
BLACK
6
CONTINUOUS
10
3.42306
20
-3.43522
11
3.42307
21
-3.43518
0
LINE
8
BLACK
6
CONTINUOUS
10
3.42307
20
-3.43518
11
3.42308
21
-3.43517
0
LINE
8
BLACK
6
CONTINUOUS
10
3.42308
20
-3.43517
11
3.42308
21
-3.43516
0
LINE
8
BLACK
6
CONTINUOUS
10
3.42308
20
-3.43516
11
3.42318
21
-3.4349
0
LINE
8
BLACK
6
CONTINUOUS
10
3.42318
20
-3.4349
11
3.42327
21
-3.43464
0
LINE
8
BLACK
6
CONTINUOUS
10
3.42327
20
-3.43464
11
3.42328
21
-3.43463
0
LINE
8
BLACK
6
CONTINUOUS
10
3.42328
20
-3.43463
11
3.42329
21
-3.43462
0
LINE
8
BLACK
6
CONTINUOUS
10
3.42329
20
-3.43462
11
3.42516
21
-3.43087
0
LINE
8
BLACK
6
CONTINUOUS
10
3.42516
20
-3.43087
11
3.42518
21
-3.43083
0
LINE
8
BLACK
6
CONTINUOUS
10
3.42518
20
-3.43083
11
3.42527
21
-3.43069
0
LINE
8
BLACK
6
CONTINUOUS
10
3.42527
20
-3.43069
11
3.42535
21
-3.43055
0
LINE
8
BLACK
6
CONTINUOUS
10
3.42535
20
-3.43055
11
3.42543
21
-3.43045
0
LINE
8
BLACK
6
CONTINUOUS
10
3.42543
20
-3.43045
11
3.42549
21
-3.43035
0
LINE
8
BLACK
6
CONTINUOUS
10
3.42549
20
-3.43035
11
3.42561
21
-3.43023
0
LINE
8
BLACK
6
CONTINUOUS
10
3.42561
20
-3.43023
11
3.42571
21
-3.4301
0
LINE
8
BLACK
6
CONTINUOUS
10
3.42571
20
-3.4301
11
3.42759
21
-3.42823
0
LINE
8
BLACK
6
CONTINUOUS
10
3.42759
20
-3.42823
11
3.42762
21
-3.4282
0
LINE
8
BLACK
6
CONTINUOUS
10
3.42762
20
-3.4282
11
3.42775
21
-3.42809
0
LINE
8
BLACK
6
CONTINUOUS
10
3.42775
20
-3.42809
11
3.42787
21
-3.42798
0
LINE
8
BLACK
6
CONTINUOUS
10
3.42787
20
-3.42798
11
3.42797
21
-3.42792
0
LINE
8
BLACK
6
CONTINUOUS
10
3.42797
20
-3.42792
11
3.42807
21
-3.42784
0
LINE
8
BLACK
6
CONTINUOUS
10
3.42807
20
-3.42784
11
3.42822
21
-3.42776
0
LINE
8
BLACK
6
CONTINUOUS
10
3.42822
20
-3.42776
11
3.42836
21
-3.42767
0
LINE
8
BLACK
6
CONTINUOUS
10
3.42836
20
-3.42767
11
3.43211
21
-3.4258
0
LINE
8
BLACK
6
CONTINUOUS
10
3.43211
20
-3.4258
11
3.43214
21
-3.42578
0
LINE
8
BLACK
6
CONTINUOUS
10
3.43214
20
-3.42578
11
3.43223
21
-3.42575
0
LINE
8
BLACK
6
CONTINUOUS
10
3.43223
20
-3.42575
11
3.4323
21
-3.42571
0
LINE
8
BLACK
6
CONTINUOUS
10
3.4323
20
-3.42571
11
3.4325
21
-3.42565
0
LINE
8
BLACK
6
CONTINUOUS
10
3.4325
20
-3.42565
11
3.43268
21
-3.42558
0
LINE
8
BLACK
6
CONTINUOUS
10
3.43268
20
-3.42558
11
3.43277
21
-3.42557
0
LINE
8
BLACK
6
CONTINUOUS
10
3.43277
20
-3.42557
11
3.43285
21
-3.42554
0
LINE
8
BLACK
6
CONTINUOUS
10
3.43285
20
-3.42554
11
3.43305
21
-3.42552
0
LINE
8
BLACK
6
CONTINUOUS
10
3.43305
20
-3.42552
11
3.43325
21
-3.42549
0
LINE
8
BLACK
6
CONTINUOUS
10
3.43325
20
-3.42549
11
3.43334
21
-3.4255
0
LINE
8
BLACK
6
CONTINUOUS
10
3.43334
20
-3.4255
11
3.43343
21
-3.42549
0
LINE
8
BLACK
6
CONTINUOUS
10
3.43343
20
-3.42549
11
3.43718
21
-3.42549
0
LINE
8
BLACK
6
CONTINUOUS
10
3.43718
20
-3.42549
11
3.43722
21
-3.42549
0
LINE
8
BLACK
6
CONTINUOUS
10
3.43412
20
-3.43139
11
3.43143
21
-3.43274
0
LINE
8
BLACK
6
CONTINUOUS
10
3.43143
20
-3.43274
11
3.43023
21
-3.43394
0
LINE
8
BLACK
6
CONTINUOUS
10
3.43023
20
-3.43394
11
3.42871
21
-3.43697
0
LINE
8
BLACK
6
CONTINUOUS
10
3.42871
20
-3.43697
11
3.42701
21
-3.4438
0
LINE
8
BLACK
6
CONTINUOUS
10
3.42701
20
-3.4438
11
3.42701
21
-3.45245
0
LINE
8
BLACK
6
CONTINUOUS
10
3.42701
20
-3.45245
11
3.42871
21
-3.45928
0
LINE
8
BLACK
6
CONTINUOUS
10
3.42871
20
-3.45928
11
3.43023
21
-3.46231
0
LINE
8
BLACK
6
CONTINUOUS
10
3.43023
20
-3.46231
11
3.43143
21
-3.46351
0
LINE
8
BLACK
6
CONTINUOUS
10
3.43143
20
-3.46351
11
3.43412
21
-3.46486
0
LINE
8
BLACK
6
CONTINUOUS
10
3.43412
20
-3.46486
11
3.43648
21
-3.46486
0
LINE
8
BLACK
6
CONTINUOUS
10
3.43648
20
-3.46486
11
3.43918
21
-3.46351
0
LINE
8
BLACK
6
CONTINUOUS
10
3.43918
20
-3.46351
11
3.44037
21
-3.46231
0
LINE
8
BLACK
6
CONTINUOUS
10
3.44037
20
-3.46231
11
3.44189
21
-3.45928
0
LINE
8
BLACK
6
CONTINUOUS
10
3.44189
20
-3.45928
11
3.4436
21
-3.45245
0
LINE
8
BLACK
6
CONTINUOUS
10
3.4436
20
-3.45245
11
3.4436
21
-3.4438
0
LINE
8
BLACK
6
CONTINUOUS
10
3.4436
20
-3.4438
11
3.44189
21
-3.43697
0
LINE
8
BLACK
6
CONTINUOUS
10
3.44189
20
-3.43697
11
3.44037
21
-3.43394
0
LINE
8
BLACK
6
CONTINUOUS
10
3.44037
20
-3.43394
11
3.43918
21
-3.43274
0
LINE
8
BLACK
6
CONTINUOUS
10
3.43918
20
-3.43274
11
3.43648
21
-3.43139
0
LINE
8
BLACK
6
CONTINUOUS
10
3.43648
20
-3.43139
11
3.43412
21
-3.43139
0
LINE
8
BLACK
6
CONTINUOUS
10
3.26474
20
-3.42549
11
3.2649
21
-3.42551
0
LINE
8
BLACK
6
CONTINUOUS
10
3.2649
20
-3.42551
11
3.26507
21
-3.42551
0
LINE
8
BLACK
6
CONTINUOUS
10
3.26507
20
-3.42551
11
3.26519
21
-3.42554
0
LINE
8
BLACK
6
CONTINUOUS
10
3.26519
20
-3.42554
11
3.26531
21
-3.42555
0
LINE
8
BLACK
6
CONTINUOUS
10
3.26531
20
-3.42555
11
3.26547
21
-3.4256
0
LINE
8
BLACK
6
CONTINUOUS
10
3.26547
20
-3.4256
11
3.26563
21
-3.42564
0
LINE
8
BLACK
6
CONTINUOUS
10
3.26563
20
-3.42564
11
3.27126
21
-3.42751
0
LINE
8
BLACK
6
CONTINUOUS
10
3.27126
20
-3.42751
11
3.2713
21
-3.42753
0
LINE
8
BLACK
6
CONTINUOUS
10
3.2713
20
-3.42753
11
3.27137
21
-3.42756
0
LINE
8
BLACK
6
CONTINUOUS
10
3.27137
20
-3.42756
11
3.27146
21
-3.42759
0
LINE
8
BLACK
6
CONTINUOUS
10
3.27146
20
-3.42759
11
3.27164
21
-3.42768
0
LINE
8
BLACK
6
CONTINUOUS
10
3.27164
20
-3.42768
11
3.27182
21
-3.42777
0
LINE
8
BLACK
6
CONTINUOUS
10
3.27182
20
-3.42777
11
3.27189
21
-3.42782
0
LINE
8
BLACK
6
CONTINUOUS
10
3.27189
20
-3.42782
11
3.27197
21
-3.42786
0
LINE
8
BLACK
6
CONTINUOUS
10
3.27197
20
-3.42786
11
3.27212
21
-3.42799
0
LINE
8
BLACK
6
CONTINUOUS
10
3.27212
20
-3.42799
11
3.27228
21
-3.42811
0
LINE
8
BLACK
6
CONTINUOUS
10
3.27228
20
-3.42811
11
3.27234
21
-3.42817
0
LINE
8
BLACK
6
CONTINUOUS
10
3.27234
20
-3.42817
11
3.27241
21
-3.42823
0
LINE
8
BLACK
6
CONTINUOUS
10
3.27241
20
-3.42823
11
3.27616
21
-3.43198
0
LINE
8
BLACK
6
CONTINUOUS
10
3.27616
20
-3.43198
11
3.27619
21
-3.43201
0
LINE
8
BLACK
6
CONTINUOUS
10
3.27619
20
-3.43201
11
3.27629
21
-3.43214
0
LINE
8
BLACK
6
CONTINUOUS
10
3.27629
20
-3.43214
11
3.27641
21
-3.43226
0
LINE
8
BLACK
6
CONTINUOUS
10
3.27641
20
-3.43226
11
3.27647
21
-3.43236
0
LINE
8
BLACK
6
CONTINUOUS
10
3.27647
20
-3.43236
11
3.27655
21
-3.43246
0
LINE
8
BLACK
6
CONTINUOUS
10
3.27655
20
-3.43246
11
3.27662
21
-3.4326
0
LINE
8
BLACK
6
CONTINUOUS
10
3.27662
20
-3.4326
11
3.27671
21
-3.43274
0
LINE
8
BLACK
6
CONTINUOUS
10
3.27671
20
-3.43274
11
3.27859
21
-3.43649
0
LINE
8
BLACK
6
CONTINUOUS
10
3.27859
20
-3.43649
11
3.27861
21
-3.43653
0
LINE
8
BLACK
6
CONTINUOUS
10
3.27861
20
-3.43653
11
3.27861
21
-3.43654
0
LINE
8
BLACK
6
CONTINUOUS
10
3.27861
20
-3.43654
11
3.27862
21
-3.43656
0
LINE
8
BLACK
6
CONTINUOUS
10
3.27862
20
-3.43656
11
3.27871
21
-3.43681
0
LINE
8
BLACK
6
CONTINUOUS
10
3.27871
20
-3.43681
11
3.2788
21
-3.43707
0
LINE
8
BLACK
6
CONTINUOUS
10
3.2788
20
-3.43707
11
3.27881
21
-3.43708
0
LINE
8
BLACK
6
CONTINUOUS
10
3.27881
20
-3.43708
11
3.27881
21
-3.4371
0
LINE
8
BLACK
6
CONTINUOUS
10
3.27881
20
-3.4371
11
3.28069
21
-3.4446
0
LINE
8
BLACK
6
CONTINUOUS
10
3.28069
20
-3.4446
11
3.2807
21
-3.44464
0
LINE
8
BLACK
6
CONTINUOUS
10
3.2807
20
-3.44464
11
3.2807
21
-3.44469
0
LINE
8
BLACK
6
CONTINUOUS
10
3.2807
20
-3.44469
11
3.28072
21
-3.44474
0
LINE
8
BLACK
6
CONTINUOUS
10
3.28072
20
-3.44474
11
3.28074
21
-3.44497
0
LINE
8
BLACK
6
CONTINUOUS
10
3.28074
20
-3.44497
11
3.28077
21
-3.44521
0
LINE
8
BLACK
6
CONTINUOUS
10
3.28077
20
-3.44521
11
3.28077
21
-3.44526
0
LINE
8
BLACK
6
CONTINUOUS
10
3.28077
20
-3.44526
11
3.28077
21
-3.44531
0
LINE
8
BLACK
6
CONTINUOUS
10
3.28077
20
-3.44531
11
3.28077
21
-3.45094
0
LINE
8
BLACK
6
CONTINUOUS
10
3.28077
20
-3.45094
11
3.28077
21
-3.45098
0
LINE
8
BLACK
6
CONTINUOUS
10
3.28077
20
-3.45098
11
3.28077
21
-3.45103
0
LINE
8
BLACK
6
CONTINUOUS
10
3.28077
20
-3.45103
11
3.28077
21
-3.45108
0
LINE
8
BLACK
6
CONTINUOUS
10
3.28077
20
-3.45108
11
3.28074
21
-3.45132
0
LINE
8
BLACK
6
CONTINUOUS
10
3.28074
20
-3.45132
11
3.28071
21
-3.45155
0
LINE
8
BLACK
6
CONTINUOUS
10
3.28071
20
-3.45155
11
3.28069
21
-3.4516
0
LINE
8
BLACK
6
CONTINUOUS
10
3.28069
20
-3.4516
11
3.28069
21
-3.45165
0
LINE
8
BLACK
6
CONTINUOUS
10
3.28069
20
-3.45165
11
3.27881
21
-3.45915
0
LINE
8
BLACK
6
CONTINUOUS
10
3.27881
20
-3.45915
11
3.2788
21
-3.45919
0
LINE
8
BLACK
6
CONTINUOUS
10
3.2788
20
-3.45919
11
3.2788
21
-3.45921
0
LINE
8
BLACK
6
CONTINUOUS
10
3.2788
20
-3.45921
11
3.27879
21
-3.45922
0
LINE
8
BLACK
6
CONTINUOUS
10
3.27879
20
-3.45922
11
3.2787
21
-3.45948
0
LINE
8
BLACK
6
CONTINUOUS
10
3.2787
20
-3.45948
11
3.2786
21
-3.45973
0
LINE
8
BLACK
6
CONTINUOUS
10
3.2786
20
-3.45973
11
3.27859
21
-3.45974
0
LINE
8
BLACK
6
CONTINUOUS
10
3.27859
20
-3.45974
11
3.27859
21
-3.45976
0
LINE
8
BLACK
6
CONTINUOUS
10
3.27859
20
-3.45976
11
3.27671
21
-3.46351
0
LINE
8
BLACK
6
CONTINUOUS
10
3.27671
20
-3.46351
11
3.27669
21
-3.46354
0
LINE
8
BLACK
6
CONTINUOUS
10
3.27669
20
-3.46354
11
3.2766
21
-3.46368
0
LINE
8
BLACK
6
CONTINUOUS
10
3.2766
20
-3.46368
11
3.27653
21
-3.46383
0
LINE
8
BLACK
6
CONTINUOUS
10
3.27653
20
-3.46383
11
3.27645
21
-3.46392
0
LINE
8
BLACK
6
CONTINUOUS
10
3.27645
20
-3.46392
11
3.27638
21
-3.46403
0
LINE
8
BLACK
6
CONTINUOUS
10
3.27638
20
-3.46403
11
3.27627
21
-3.46415
0
LINE
8
BLACK
6
CONTINUOUS
10
3.27627
20
-3.46415
11
3.27616
21
-3.46427
0
LINE
8
BLACK
6
CONTINUOUS
10
3.27616
20
-3.46427
11
3.27241
21
-3.46802
0
LINE
8
BLACK
6
CONTINUOUS
10
3.27241
20
-3.46802
11
3.27238
21
-3.46805
0
LINE
8
BLACK
6
CONTINUOUS
10
3.27238
20
-3.46805
11
3.27231
21
-3.46811
0
LINE
8
BLACK
6
CONTINUOUS
10
3.27231
20
-3.46811
11
3.27225
21
-3.46817
0
LINE
8
BLACK
6
CONTINUOUS
10
3.27225
20
-3.46817
11
3.27209
21
-3.46829
0
LINE
8
BLACK
6
CONTINUOUS
10
3.27209
20
-3.46829
11
3.27193
21
-3.46841
0
LINE
8
BLACK
6
CONTINUOUS
10
3.27193
20
-3.46841
11
3.27185
21
-3.46845
0
LINE
8
BLACK
6
CONTINUOUS
10
3.27185
20
-3.46845
11
3.27178
21
-3.4685
0
LINE
8
BLACK
6
CONTINUOUS
10
3.27178
20
-3.4685
11
3.2716
21
-3.46858
0
LINE
8
BLACK
6
CONTINUOUS
10
3.2716
20
-3.46858
11
3.27142
21
-3.46868
0
LINE
8
BLACK
6
CONTINUOUS
10
3.27142
20
-3.46868
11
3.27134
21
-3.4687
0
LINE
8
BLACK
6
CONTINUOUS
10
3.27134
20
-3.4687
11
3.27126
21
-3.46874
0
LINE
8
BLACK
6
CONTINUOUS
10
3.27126
20
-3.46874
11
3.26563
21
-3.47061
0
LINE
8
BLACK
6
CONTINUOUS
10
3.26563
20
-3.47061
11
3.26559
21
-3.47062
0
LINE
8
BLACK
6
CONTINUOUS
10
3.26559
20
-3.47062
11
3.26543
21
-3.47066
0
LINE
8
BLACK
6
CONTINUOUS
10
3.26543
20
-3.47066
11
3.26527
21
-3.47071
0
LINE
8
BLACK
6
CONTINUOUS
10
3.26527
20
-3.47071
11
3.26515
21
-3.47072
0
LINE
8
BLACK
6
CONTINUOUS
10
3.26515
20
-3.47072
11
3.26503
21
-3.47074
0
LINE
8
BLACK
6
CONTINUOUS
10
3.26503
20
-3.47074
11
3.26486
21
-3.47075
0
LINE
8
BLACK
6
CONTINUOUS
10
3.26486
20
-3.47075
11
3.2647
21
-3.47076
0
LINE
8
BLACK
6
CONTINUOUS
10
3.2647
20
-3.47076
11
3.26095
21
-3.47076
0
LINE
8
BLACK
6
CONTINUOUS
10
3.26095
20
-3.47076
11
3.26091
21
-3.47076
0
LINE
8
BLACK
6
CONTINUOUS
10
3.26091
20
-3.47076
11
3.26074
21
-3.47074
0
LINE
8
BLACK
6
CONTINUOUS
10
3.26074
20
-3.47074
11
3.26058
21
-3.47074
0
LINE
8
BLACK
6
CONTINUOUS
10
3.26058
20
-3.47074
11
3.26046
21
-3.47071
0
LINE
8
BLACK
6
CONTINUOUS
10
3.26046
20
-3.47071
11
3.26033
21
-3.4707
0
LINE
8
BLACK
6
CONTINUOUS
10
3.26033
20
-3.4707
11
3.26018
21
-3.47065
0
LINE
8
BLACK
6
CONTINUOUS
10
3.26018
20
-3.47065
11
3.26001
21
-3.47061
0
LINE
8
BLACK
6
CONTINUOUS
10
3.26001
20
-3.47061
11
3.25439
21
-3.46874
0
LINE
8
BLACK
6
CONTINUOUS
10
3.25439
20
-3.46874
11
3.25435
21
-3.46872
0
LINE
8
BLACK
6
CONTINUOUS
10
3.25435
20
-3.46872
11
3.25427
21
-3.46869
0
LINE
8
BLACK
6
CONTINUOUS
10
3.25427
20
-3.46869
11
3.25419
21
-3.46866
0
LINE
8
BLACK
6
CONTINUOUS
10
3.25419
20
-3.46866
11
3.25401
21
-3.46857
0
LINE
8
BLACK
6
CONTINUOUS
10
3.25401
20
-3.46857
11
3.25383
21
-3.46848
0
LINE
8
BLACK
6
CONTINUOUS
10
3.25383
20
-3.46848
11
3.25376
21
-3.46843
0
LINE
8
BLACK
6
CONTINUOUS
10
3.25376
20
-3.46843
11
3.25368
21
-3.46839
0
LINE
8
BLACK
6
CONTINUOUS
10
3.25368
20
-3.46839
11
3.25353
21
-3.46826
0
LINE
8
BLACK
6
CONTINUOUS
10
3.25353
20
-3.46826
11
3.25336
21
-3.46814
0
LINE
8
BLACK
6
CONTINUOUS
10
3.25336
20
-3.46814
11
3.2533
21
-3.46808
0
LINE
8
BLACK
6
CONTINUOUS
10
3.2533
20
-3.46808
11
3.25324
21
-3.46802
0
LINE
8
BLACK
6
CONTINUOUS
10
3.25324
20
-3.46802
11
3.25136
21
-3.46615
0
LINE
8
BLACK
6
CONTINUOUS
10
3.25136
20
-3.46615
11
3.25133
21
-3.46612
0
LINE
8
BLACK
6
CONTINUOUS
10
3.25133
20
-3.46612
11
3.25097
21
-3.46567
0
LINE
8
BLACK
6
CONTINUOUS
10
3.25097
20
-3.46567
11
3.25071
21
-3.46516
0
LINE
8
BLACK
6
CONTINUOUS
10
3.25071
20
-3.46516
11
3.25055
21
-3.4646
0
LINE
8
BLACK
6
CONTINUOUS
10
3.25055
20
-3.4646
11
3.2505
21
-3.46403
0
LINE
8
BLACK
6
CONTINUOUS
10
3.2505
20
-3.46403
11
3.25056
21
-3.46346
0
LINE
8
BLACK
6
CONTINUOUS
10
3.25056
20
-3.46346
11
3.25073
21
-3.46291
0
LINE
8
BLACK
6
CONTINUOUS
10
3.25073
20
-3.46291
11
3.25101
21
-3.4624
0
LINE
8
BLACK
6
CONTINUOUS
10
3.25101
20
-3.4624
11
3.25138
21
-3.46196
0
LINE
8
BLACK
6
CONTINUOUS
10
3.25138
20
-3.46196
11
3.25182
21
-3.4616
0
LINE
8
BLACK
6
CONTINUOUS
10
3.25182
20
-3.4616
11
3.25233
21
-3.46133
0
LINE
8
BLACK
6
CONTINUOUS
10
3.25233
20
-3.46133
11
3.25289
21
-3.46116
0
LINE
8
BLACK
6
CONTINUOUS
10
3.25289
20
-3.46116
11
3.25346
21
-3.46111
0
LINE
8
BLACK
6
CONTINUOUS
10
3.25346
20
-3.46111
11
3.25403
21
-3.46117
0
LINE
8
BLACK
6
CONTINUOUS
10
3.25403
20
-3.46117
11
3.25458
21
-3.46133
0
LINE
8
BLACK
6
CONTINUOUS
10
3.25458
20
-3.46133
11
3.25509
21
-3.46161
0
LINE
8
BLACK
6
CONTINUOUS
10
3.25509
20
-3.46161
11
3.25554
21
-3.46197
0
LINE
8
BLACK
6
CONTINUOUS
10
3.25554
20
-3.46197
11
3.25692
21
-3.46335
0
LINE
8
BLACK
6
CONTINUOUS
10
3.25692
20
-3.46335
11
3.26143
21
-3.46486
0
LINE
8
BLACK
6
CONTINUOUS
10
3.26143
20
-3.46486
11
3.26422
21
-3.46486
0
LINE
8
BLACK
6
CONTINUOUS
10
3.26422
20
-3.46486
11
3.26873
21
-3.46335
0
LINE
8
BLACK
6
CONTINUOUS
10
3.26873
20
-3.46335
11
3.27165
21
-3.46044
0
LINE
8
BLACK
6
CONTINUOUS
10
3.27165
20
-3.46044
11
3.27316
21
-3.45741
0
LINE
8
BLACK
6
CONTINUOUS
10
3.27316
20
-3.45741
11
3.27487
21
-3.45057
0
LINE
8
BLACK
6
CONTINUOUS
10
3.27487
20
-3.45057
11
3.27487
21
-3.44568
0
LINE
8
BLACK
6
CONTINUOUS
10
3.27487
20
-3.44568
11
3.27316
21
-3.43884
0
LINE
8
BLACK
6
CONTINUOUS
10
3.27316
20
-3.43884
11
3.27165
21
-3.43581
0
LINE
8
BLACK
6
CONTINUOUS
10
3.27165
20
-3.43581
11
3.26873
21
-3.4329
0
LINE
8
BLACK
6
CONTINUOUS
10
3.26873
20
-3.4329
11
3.26422
21
-3.43139
0
LINE
8
BLACK
6
CONTINUOUS
10
3.26422
20
-3.43139
11
3.26143
21
-3.43139
0
LINE
8
BLACK
6
CONTINUOUS
10
3.26143
20
-3.43139
11
3.25692
21
-3.4329
0
LINE
8
BLACK
6
CONTINUOUS
10
3.25692
20
-3.4329
11
3.25554
21
-3.43428
0
LINE
8
BLACK
6
CONTINUOUS
10
3.25554
20
-3.43428
11
3.25551
21
-3.43431
0
LINE
8
BLACK
6
CONTINUOUS
10
3.25551
20
-3.43431
11
3.25506
21
-3.43467
0
LINE
8
BLACK
6
CONTINUOUS
10
3.25506
20
-3.43467
11
3.25455
21
-3.43493
0
LINE
8
BLACK
6
CONTINUOUS
10
3.25455
20
-3.43493
11
3.25399
21
-3.43509
0
LINE
8
BLACK
6
CONTINUOUS
10
3.25399
20
-3.43509
11
3.25342
21
-3.43514
0
LINE
8
BLACK
6
CONTINUOUS
10
3.25342
20
-3.43514
11
3.25285
21
-3.43508
0
LINE
8
BLACK
6
CONTINUOUS
10
3.25285
20
-3.43508
11
3.2523
21
-3.43491
0
LINE
8
BLACK
6
CONTINUOUS
10
3.2523
20
-3.43491
11
3.25179
21
-3.43463
0
LINE
8
BLACK
6
CONTINUOUS
10
3.25179
20
-3.43463
11
3.25135
21
-3.43426
0
LINE
8
BLACK
6
CONTINUOUS
10
3.25135
20
-3.43426
11
3.25098
21
-3.43382
0
LINE
8
BLACK
6
CONTINUOUS
10
3.25098
20
-3.43382
11
3.25072
21
-3.43331
0
LINE
8
BLACK
6
CONTINUOUS
10
3.25072
20
-3.43331
11
3.25055
21
-3.43275
0
LINE
8
BLACK
6
CONTINUOUS
10
3.25055
20
-3.43275
11
3.2505
21
-3.43218
0
LINE
8
BLACK
6
CONTINUOUS
10
3.2505
20
-3.43218
11
3.25056
21
-3.43161
0
LINE
8
BLACK
6
CONTINUOUS
10
3.25056
20
-3.43161
11
3.25072
21
-3.43105
0
LINE
8
BLACK
6
CONTINUOUS
10
3.25072
20
-3.43105
11
3.251
21
-3.43055
0
LINE
8
BLACK
6
CONTINUOUS
10
3.251
20
-3.43055
11
3.25136
21
-3.4301
0
LINE
8
BLACK
6
CONTINUOUS
10
3.25136
20
-3.4301
11
3.25324
21
-3.42823
0
LINE
8
BLACK
6
CONTINUOUS
10
3.25324
20
-3.42823
11
3.25327
21
-3.4282
0
LINE
8
BLACK
6
CONTINUOUS
10
3.25327
20
-3.4282
11
3.25333
21
-3.42814
0
LINE
8
BLACK
6
CONTINUOUS
10
3.25333
20
-3.42814
11
3.25339
21
-3.42808
0
LINE
8
BLACK
6
CONTINUOUS
10
3.25339
20
-3.42808
11
3.25356
21
-3.42796
0
LINE
8
BLACK
6
CONTINUOUS
10
3.25356
20
-3.42796
11
3.25372
21
-3.42784
0
LINE
8
BLACK
6
CONTINUOUS
10
3.25372
20
-3.42784
11
3.25379
21
-3.4278
0
LINE
8
BLACK
6
CONTINUOUS
10
3.25379
20
-3.4278
11
3.25386
21
-3.42775
0
LINE
8
BLACK
6
CONTINUOUS
10
3.25386
20
-3.42775
11
3.25405
21
-3.42767
0
LINE
8
BLACK
6
CONTINUOUS
10
3.25405
20
-3.42767
11
3.25423
21
-3.42757
0
LINE
8
BLACK
6
CONTINUOUS
10
3.25423
20
-3.42757
11
3.25431
21
-3.42755
0
LINE
8
BLACK
6
CONTINUOUS
10
3.25431
20
-3.42755
11
3.25439
21
-3.42751
0
LINE
8
BLACK
6
CONTINUOUS
10
3.25439
20
-3.42751
11
3.26001
21
-3.42564
0
LINE
8
BLACK
6
CONTINUOUS
10
3.26001
20
-3.42564
11
3.26005
21
-3.42563
0
LINE
8
BLACK
6
CONTINUOUS
10
3.26005
20
-3.42563
11
3.26022
21
-3.42559
0
LINE
8
BLACK
6
CONTINUOUS
10
3.26022
20
-3.42559
11
3.26038
21
-3.42554
0
LINE
8
BLACK
6
CONTINUOUS
10
3.26038
20
-3.42554
11
3.2605
21
-3.42553
0
LINE
8
BLACK
6
CONTINUOUS
10
3.2605
20
-3.42553
11
3.26062
21
-3.42551
0
LINE
8
BLACK
6
CONTINUOUS
10
3.26062
20
-3.42551
11
3.26078
21
-3.4255
0
LINE
8
BLACK
6
CONTINUOUS
10
3.26078
20
-3.4255
11
3.26095
21
-3.42549
0
LINE
8
BLACK
6
CONTINUOUS
10
3.26095
20
-3.42549
11
3.2647
21
-3.42549
0
LINE
8
BLACK
6
CONTINUOUS
10
3.2647
20
-3.42549
11
3.26474
21
-3.42549
  0
ENDSEC
  0
EOF
