  0
SECTION
  2
HEADER
  9
$ANGBASE
  50
0.0
  9
$ANGDIR
  70
1
  9
$MEASUREMENT
  70
0
  0
ENDSEC
  0
SECTION
  2
TABLES
  0
TABLE
  2
LTYPE
  70
4
  0
LTYPE
  5
40F
  2
CONTINUOUS
  70
0
  3
Solid line
  72
65
  73
0
  40
0.0
  0
LTYPE
  5
410
  2
DASHDOT
 70
0
  3
Dash Dot ____ _ ____ _
 72
65
 73
4
 40
2.0
 49
1.25
 49
-0.25
 49
0.25
 49
-0.25
  0
LTYPE
  5
411
  2
DASHED
 70
0
  3
Dashed __ __ __ __ __
 72
65
 73
2
 40
0.75
 49
0.5
 49
-0.25
  0
LTYPE
  5
43B
  2
DOTTED
 70
0
  3
Dotted .  .  .  .
 72
65
 73
2
 40
0.2
 49
0.0
 49
-0.2
  0
ENDTAB
  0
TABLE
  2
STYLE
  70
4
  0
STYLE
  2
KICAD
  70
0
  40
0
  41
1
  42
1
  50
0
  71
0
  3
isocp.shx
  0
STYLE
  2
KICADB
  70
0
  40
0
  41
1
  42
1
  50
0
  71
0
  3
isocp.shx
  0
STYLE
  2
KICADI
  70
0
  40
0
  41
1
  42
1
  50
15
  71
0
  3
isocp.shx
  0
STYLE
  2
KICADBI
  70
0
  40
0
  41
1
  42
1
  50
15
  71
0
  3
isocp.shx
  0
ENDTAB
  0
TABLE
  2
LAYER
  70
1
  0
LAYER
  2
BLACK
  70
0
  62
7
  6
CONTINUOUS
  0
ENDTAB
  0
ENDSEC
  0
SECTION
  2
ENTITIES
0
LINE
8
BLACK
6
CONTINUOUS
10
7.20005
20
-0.699016
11
7.20019
21
-0.69903
0
LINE
8
BLACK
6
CONTINUOUS
10
7.20019
20
-0.69903
11
7.20038
21
-0.699086
0
LINE
8
BLACK
6
CONTINUOUS
10
7.20038
20
-0.699086
11
7.20055
21
-0.699178
0
LINE
8
BLACK
6
CONTINUOUS
10
7.20055
20
-0.699178
11
7.2007
21
-0.699301
0
LINE
8
BLACK
6
CONTINUOUS
10
7.2007
20
-0.699301
11
7.20082
21
-0.699451
0
LINE
8
BLACK
6
CONTINUOUS
10
7.20082
20
-0.699451
11
7.20091
21
-0.699622
0
LINE
8
BLACK
6
CONTINUOUS
10
7.20091
20
-0.699622
11
7.20097
21
-0.699807
0
LINE
8
BLACK
6
CONTINUOUS
10
7.20097
20
-0.699807
11
7.20099
21
-0.7
0
LINE
8
BLACK
6
CONTINUOUS
10
7.20099
20
-0.7
11
7.20098
21
-0.700048
0
LINE
8
BLACK
6
CONTINUOUS
10
7.20098
20
-0.700048
11
7.20098
21
-3.52495
0
LINE
8
BLACK
6
CONTINUOUS
10
7.20098
20
-3.52495
11
7.20099
21
-3.525
0
LINE
8
BLACK
6
CONTINUOUS
10
7.20099
20
-3.525
11
7.20097
21
-3.52519
0
LINE
8
BLACK
6
CONTINUOUS
10
7.20097
20
-3.52519
11
7.20091
21
-3.52538
0
LINE
8
BLACK
6
CONTINUOUS
10
7.20091
20
-3.52538
11
7.20082
21
-3.52555
0
LINE
8
BLACK
6
CONTINUOUS
10
7.20082
20
-3.52555
11
7.2007
21
-3.5257
0
LINE
8
BLACK
6
CONTINUOUS
10
7.2007
20
-3.5257
11
7.20055
21
-3.52582
0
LINE
8
BLACK
6
CONTINUOUS
10
7.20055
20
-3.52582
11
7.20038
21
-3.52591
0
LINE
8
BLACK
6
CONTINUOUS
10
7.20038
20
-3.52591
11
7.20019
21
-3.52597
0
LINE
8
BLACK
6
CONTINUOUS
10
7.20019
20
-3.52597
11
7.20005
21
-3.52598
0
LINE
8
BLACK
6
CONTINUOUS
10
7.20005
20
-3.52598
11
7.20005
21
-3.52598
0
LINE
8
BLACK
6
CONTINUOUS
10
7.20005
20
-3.52598
11
7.2
21
-3.52599
0
LINE
8
BLACK
6
CONTINUOUS
10
7.2
20
-3.52599
11
7.19995
21
-3.52598
0
LINE
8
BLACK
6
CONTINUOUS
10
7.19995
20
-3.52598
11
3.18505
21
-3.52598
0
LINE
8
BLACK
6
CONTINUOUS
10
3.18505
20
-3.52598
11
3.185
21
-3.52599
0
LINE
8
BLACK
6
CONTINUOUS
10
3.185
20
-3.52599
11
3.18495
21
-3.52598
0
LINE
8
BLACK
6
CONTINUOUS
10
3.18495
20
-3.52598
11
3.18495
21
-3.52598
0
LINE
8
BLACK
6
CONTINUOUS
10
3.18495
20
-3.52598
11
3.18481
21
-3.52597
0
LINE
8
BLACK
6
CONTINUOUS
10
3.18481
20
-3.52597
11
3.18462
21
-3.52591
0
LINE
8
BLACK
6
CONTINUOUS
10
3.18462
20
-3.52591
11
3.18445
21
-3.52582
0
LINE
8
BLACK
6
CONTINUOUS
10
3.18445
20
-3.52582
11
3.1843
21
-3.5257
0
LINE
8
BLACK
6
CONTINUOUS
10
3.1843
20
-3.5257
11
3.18418
21
-3.52555
0
LINE
8
BLACK
6
CONTINUOUS
10
3.18418
20
-3.52555
11
3.18409
21
-3.52538
0
LINE
8
BLACK
6
CONTINUOUS
10
3.18409
20
-3.52538
11
3.18403
21
-3.52519
0
LINE
8
BLACK
6
CONTINUOUS
10
3.18403
20
-3.52519
11
3.18401
21
-3.525
0
LINE
8
BLACK
6
CONTINUOUS
10
3.18401
20
-3.525
11
3.18402
21
-3.52495
0
LINE
8
BLACK
6
CONTINUOUS
10
3.18402
20
-3.52495
11
3.18402
21
-0.700048
0
LINE
8
BLACK
6
CONTINUOUS
10
3.18402
20
-0.700048
11
3.18401
21
-0.7
0
LINE
8
BLACK
6
CONTINUOUS
10
3.18401
20
-0.7
11
3.18403
21
-0.699807
0
LINE
8
BLACK
6
CONTINUOUS
10
3.18403
20
-0.699807
11
3.18409
21
-0.699622
0
LINE
8
BLACK
6
CONTINUOUS
10
3.18409
20
-0.699622
11
3.18418
21
-0.699451
0
LINE
8
BLACK
6
CONTINUOUS
10
3.18418
20
-0.699451
11
3.1843
21
-0.699301
0
LINE
8
BLACK
6
CONTINUOUS
10
3.1843
20
-0.699301
11
3.18445
21
-0.699178
0
LINE
8
BLACK
6
CONTINUOUS
10
3.18445
20
-0.699178
11
3.18462
21
-0.699086
0
LINE
8
BLACK
6
CONTINUOUS
10
3.18462
20
-0.699086
11
3.18481
21
-0.69903
0
LINE
8
BLACK
6
CONTINUOUS
10
3.18481
20
-0.69903
11
3.18495
21
-0.699016
0
LINE
8
BLACK
6
CONTINUOUS
10
3.18495
20
-0.699016
11
3.185
21
-0.699011
0
LINE
8
BLACK
6
CONTINUOUS
10
3.185
20
-0.699011
11
3.18505
21
-0.699016
0
LINE
8
BLACK
6
CONTINUOUS
10
3.18505
20
-0.699016
11
7.19995
21
-0.699016
0
LINE
8
BLACK
6
CONTINUOUS
10
7.19995
20
-0.699016
11
7.2
21
-0.699011
0
LINE
8
BLACK
6
CONTINUOUS
10
7.2
20
-0.699011
11
7.20005
21
-0.699016
0
LINE
8
BLACK
6
CONTINUOUS
10
3.18598
20
-0.700984
11
3.18598
21
-3.52402
0
LINE
8
BLACK
6
CONTINUOUS
10
3.18598
20
-3.52402
11
7.19902
21
-3.52402
0
LINE
8
BLACK
6
CONTINUOUS
10
7.19902
20
-3.52402
11
7.19902
21
-0.700984
0
LINE
8
BLACK
6
CONTINUOUS
10
7.19902
20
-0.700984
11
3.18598
21
-0.700984
  0
ENDSEC
  0
EOF
