  0
SECTION
  2
HEADER
  9
$ANGBASE
  50
0.0
  9
$ANGDIR
  70
1
  9
$MEASUREMENT
  70
0
  0
ENDSEC
  0
SECTION
  2
TABLES
  0
TABLE
  2
LTYPE
  70
4
  0
LTYPE
  5
40F
  2
CONTINUOUS
  70
0
  3
Solid line
  72
65
  73
0
  40
0.0
  0
LTYPE
  5
410
  2
DASHDOT
 70
0
  3
Dash Dot ____ _ ____ _
 72
65
 73
4
 40
2.0
 49
1.25
 49
-0.25
 49
0.25
 49
-0.25
  0
LTYPE
  5
411
  2
DASHED
 70
0
  3
Dashed __ __ __ __ __
 72
65
 73
2
 40
0.75
 49
0.5
 49
-0.25
  0
LTYPE
  5
43B
  2
DOTTED
 70
0
  3
Dotted .  .  .  .
 72
65
 73
2
 40
0.2
 49
0.0
 49
-0.2
  0
ENDTAB
  0
TABLE
  2
STYLE
  70
4
  0
STYLE
  2
KICAD
  70
0
  40
0
  41
1
  42
1
  50
0
  71
0
  3
isocp.shx
  0
STYLE
  2
KICADB
  70
0
  40
0
  41
1
  42
1
  50
0
  71
0
  3
isocp.shx
  0
STYLE
  2
KICADI
  70
0
  40
0
  41
1
  42
1
  50
15
  71
0
  3
isocp.shx
  0
STYLE
  2
KICADBI
  70
0
  40
0
  41
1
  42
1
  50
15
  71
0
  3
isocp.shx
  0
ENDTAB
  0
TABLE
  2
LAYER
  70
1
  0
LAYER
  2
BLACK
  70
0
  62
7
  6
CONTINUOUS
  0
ENDTAB
  0
ENDSEC
  0
SECTION
  2
ENTITIES
0
LINE
8
BLACK
6
CONTINUOUS
10
3.09346
20
-2.60046
11
3.02254
21
-2.60046
0
LINE
8
BLACK
6
CONTINUOUS
10
3.02254
20
-2.60046
11
3.02254
21
-2.52954
0
LINE
8
BLACK
6
CONTINUOUS
10
3.02254
20
-2.52954
11
3.09346
21
-2.52954
0
LINE
8
BLACK
6
CONTINUOUS
10
3.09346
20
-2.52954
11
3.09346
21
-2.60046
0
LINE
8
BLACK
6
CONTINUOUS
10
1.9712
20
-2.50868
11
1.97693
21
-2.51106
0
LINE
8
BLACK
6
CONTINUOUS
10
1.97693
20
-2.51106
11
1.9821
21
-2.51451
0
LINE
8
BLACK
6
CONTINUOUS
10
1.9821
20
-2.51451
11
1.98649
21
-2.5189
0
LINE
8
BLACK
6
CONTINUOUS
10
1.98649
20
-2.5189
11
1.98994
21
-2.52407
0
LINE
8
BLACK
6
CONTINUOUS
10
1.98994
20
-2.52407
11
1.99232
21
-2.5298
0
LINE
8
BLACK
6
CONTINUOUS
10
1.99232
20
-2.5298
11
1.99353
21
-2.53589
0
LINE
8
BLACK
6
CONTINUOUS
10
1.99353
20
-2.53589
11
1.99353
21
-2.54211
0
LINE
8
BLACK
6
CONTINUOUS
10
1.99353
20
-2.54211
11
1.99232
21
-2.5482
0
LINE
8
BLACK
6
CONTINUOUS
10
1.99232
20
-2.5482
11
1.98994
21
-2.55393
0
LINE
8
BLACK
6
CONTINUOUS
10
1.98994
20
-2.55393
11
1.98649
21
-2.5591
0
LINE
8
BLACK
6
CONTINUOUS
10
1.98649
20
-2.5591
11
1.9821
21
-2.56349
0
LINE
8
BLACK
6
CONTINUOUS
10
1.9821
20
-2.56349
11
1.97693
21
-2.56694
0
LINE
8
BLACK
6
CONTINUOUS
10
1.97693
20
-2.56694
11
1.9712
21
-2.56932
0
LINE
8
BLACK
6
CONTINUOUS
10
1.9712
20
-2.56932
11
1.96511
21
-2.57053
0
LINE
8
BLACK
6
CONTINUOUS
10
1.96511
20
-2.57053
11
1.95889
21
-2.57053
0
LINE
8
BLACK
6
CONTINUOUS
10
1.95889
20
-2.57053
11
1.9528
21
-2.56932
0
LINE
8
BLACK
6
CONTINUOUS
10
1.9528
20
-2.56932
11
1.94707
21
-2.56694
0
LINE
8
BLACK
6
CONTINUOUS
10
1.94707
20
-2.56694
11
1.9419
21
-2.56349
0
LINE
8
BLACK
6
CONTINUOUS
10
1.9419
20
-2.56349
11
1.93751
21
-2.5591
0
LINE
8
BLACK
6
CONTINUOUS
10
1.93751
20
-2.5591
11
1.93406
21
-2.55393
0
LINE
8
BLACK
6
CONTINUOUS
10
1.93406
20
-2.55393
11
1.93168
21
-2.5482
0
LINE
8
BLACK
6
CONTINUOUS
10
1.93168
20
-2.5482
11
1.93047
21
-2.54211
0
LINE
8
BLACK
6
CONTINUOUS
10
1.93047
20
-2.54211
11
1.93047
21
-2.53589
0
LINE
8
BLACK
6
CONTINUOUS
10
1.93047
20
-2.53589
11
1.93168
21
-2.5298
0
LINE
8
BLACK
6
CONTINUOUS
10
1.93168
20
-2.5298
11
1.93406
21
-2.52407
0
LINE
8
BLACK
6
CONTINUOUS
10
1.93406
20
-2.52407
11
1.93751
21
-2.5189
0
LINE
8
BLACK
6
CONTINUOUS
10
1.93751
20
-2.5189
11
1.9419
21
-2.51451
0
LINE
8
BLACK
6
CONTINUOUS
10
1.9419
20
-2.51451
11
1.94707
21
-2.51106
0
LINE
8
BLACK
6
CONTINUOUS
10
1.94707
20
-2.51106
11
1.9528
21
-2.50868
0
LINE
8
BLACK
6
CONTINUOUS
10
1.9528
20
-2.50868
11
1.95889
21
-2.50747
0
LINE
8
BLACK
6
CONTINUOUS
10
1.95889
20
-2.50747
11
1.96511
21
-2.50747
0
LINE
8
BLACK
6
CONTINUOUS
10
1.96511
20
-2.50747
11
1.9712
21
-2.50868
0
LINE
8
BLACK
6
CONTINUOUS
10
2.0712
20
-2.50868
11
2.07693
21
-2.51106
0
LINE
8
BLACK
6
CONTINUOUS
10
2.07693
20
-2.51106
11
2.0821
21
-2.51451
0
LINE
8
BLACK
6
CONTINUOUS
10
2.0821
20
-2.51451
11
2.08649
21
-2.5189
0
LINE
8
BLACK
6
CONTINUOUS
10
2.08649
20
-2.5189
11
2.08994
21
-2.52407
0
LINE
8
BLACK
6
CONTINUOUS
10
2.08994
20
-2.52407
11
2.09232
21
-2.5298
0
LINE
8
BLACK
6
CONTINUOUS
10
2.09232
20
-2.5298
11
2.09353
21
-2.53589
0
LINE
8
BLACK
6
CONTINUOUS
10
2.09353
20
-2.53589
11
2.09353
21
-2.54211
0
LINE
8
BLACK
6
CONTINUOUS
10
2.09353
20
-2.54211
11
2.09232
21
-2.5482
0
LINE
8
BLACK
6
CONTINUOUS
10
2.09232
20
-2.5482
11
2.08994
21
-2.55393
0
LINE
8
BLACK
6
CONTINUOUS
10
2.08994
20
-2.55393
11
2.08649
21
-2.5591
0
LINE
8
BLACK
6
CONTINUOUS
10
2.08649
20
-2.5591
11
2.0821
21
-2.56349
0
LINE
8
BLACK
6
CONTINUOUS
10
2.0821
20
-2.56349
11
2.07693
21
-2.56694
0
LINE
8
BLACK
6
CONTINUOUS
10
2.07693
20
-2.56694
11
2.0712
21
-2.56932
0
LINE
8
BLACK
6
CONTINUOUS
10
2.0712
20
-2.56932
11
2.06511
21
-2.57053
0
LINE
8
BLACK
6
CONTINUOUS
10
2.06511
20
-2.57053
11
2.05889
21
-2.57053
0
LINE
8
BLACK
6
CONTINUOUS
10
2.05889
20
-2.57053
11
2.0528
21
-2.56932
0
LINE
8
BLACK
6
CONTINUOUS
10
2.0528
20
-2.56932
11
2.04707
21
-2.56694
0
LINE
8
BLACK
6
CONTINUOUS
10
2.04707
20
-2.56694
11
2.0419
21
-2.56349
0
LINE
8
BLACK
6
CONTINUOUS
10
2.0419
20
-2.56349
11
2.03751
21
-2.5591
0
LINE
8
BLACK
6
CONTINUOUS
10
2.03751
20
-2.5591
11
2.03406
21
-2.55393
0
LINE
8
BLACK
6
CONTINUOUS
10
2.03406
20
-2.55393
11
2.03168
21
-2.5482
0
LINE
8
BLACK
6
CONTINUOUS
10
2.03168
20
-2.5482
11
2.03047
21
-2.54211
0
LINE
8
BLACK
6
CONTINUOUS
10
2.03047
20
-2.54211
11
2.03047
21
-2.53589
0
LINE
8
BLACK
6
CONTINUOUS
10
2.03047
20
-2.53589
11
2.03168
21
-2.5298
0
LINE
8
BLACK
6
CONTINUOUS
10
2.03168
20
-2.5298
11
2.03406
21
-2.52407
0
LINE
8
BLACK
6
CONTINUOUS
10
2.03406
20
-2.52407
11
2.03751
21
-2.5189
0
LINE
8
BLACK
6
CONTINUOUS
10
2.03751
20
-2.5189
11
2.0419
21
-2.51451
0
LINE
8
BLACK
6
CONTINUOUS
10
2.0419
20
-2.51451
11
2.04707
21
-2.51106
0
LINE
8
BLACK
6
CONTINUOUS
10
2.04707
20
-2.51106
11
2.0528
21
-2.50868
0
LINE
8
BLACK
6
CONTINUOUS
10
2.0528
20
-2.50868
11
2.05889
21
-2.50747
0
LINE
8
BLACK
6
CONTINUOUS
10
2.05889
20
-2.50747
11
2.06511
21
-2.50747
0
LINE
8
BLACK
6
CONTINUOUS
10
2.06511
20
-2.50747
11
2.0712
21
-2.50868
0
LINE
8
BLACK
6
CONTINUOUS
10
1.8712
20
-2.50868
11
1.87693
21
-2.51106
0
LINE
8
BLACK
6
CONTINUOUS
10
1.87693
20
-2.51106
11
1.8821
21
-2.51451
0
LINE
8
BLACK
6
CONTINUOUS
10
1.8821
20
-2.51451
11
1.88649
21
-2.5189
0
LINE
8
BLACK
6
CONTINUOUS
10
1.88649
20
-2.5189
11
1.88994
21
-2.52407
0
LINE
8
BLACK
6
CONTINUOUS
10
1.88994
20
-2.52407
11
1.89232
21
-2.5298
0
LINE
8
BLACK
6
CONTINUOUS
10
1.89232
20
-2.5298
11
1.89353
21
-2.53589
0
LINE
8
BLACK
6
CONTINUOUS
10
1.89353
20
-2.53589
11
1.89353
21
-2.54211
0
LINE
8
BLACK
6
CONTINUOUS
10
1.89353
20
-2.54211
11
1.89232
21
-2.5482
0
LINE
8
BLACK
6
CONTINUOUS
10
1.89232
20
-2.5482
11
1.88994
21
-2.55393
0
LINE
8
BLACK
6
CONTINUOUS
10
1.88994
20
-2.55393
11
1.88649
21
-2.5591
0
LINE
8
BLACK
6
CONTINUOUS
10
1.88649
20
-2.5591
11
1.8821
21
-2.56349
0
LINE
8
BLACK
6
CONTINUOUS
10
1.8821
20
-2.56349
11
1.87693
21
-2.56694
0
LINE
8
BLACK
6
CONTINUOUS
10
1.87693
20
-2.56694
11
1.8712
21
-2.56932
0
LINE
8
BLACK
6
CONTINUOUS
10
1.8712
20
-2.56932
11
1.86511
21
-2.57053
0
LINE
8
BLACK
6
CONTINUOUS
10
1.86511
20
-2.57053
11
1.85889
21
-2.57053
0
LINE
8
BLACK
6
CONTINUOUS
10
1.85889
20
-2.57053
11
1.8528
21
-2.56932
0
LINE
8
BLACK
6
CONTINUOUS
10
1.8528
20
-2.56932
11
1.84707
21
-2.56694
0
LINE
8
BLACK
6
CONTINUOUS
10
1.84707
20
-2.56694
11
1.8419
21
-2.56349
0
LINE
8
BLACK
6
CONTINUOUS
10
1.8419
20
-2.56349
11
1.83751
21
-2.5591
0
LINE
8
BLACK
6
CONTINUOUS
10
1.83751
20
-2.5591
11
1.83406
21
-2.55393
0
LINE
8
BLACK
6
CONTINUOUS
10
1.83406
20
-2.55393
11
1.83168
21
-2.5482
0
LINE
8
BLACK
6
CONTINUOUS
10
1.83168
20
-2.5482
11
1.83047
21
-2.54211
0
LINE
8
BLACK
6
CONTINUOUS
10
1.83047
20
-2.54211
11
1.83047
21
-2.53589
0
LINE
8
BLACK
6
CONTINUOUS
10
1.83047
20
-2.53589
11
1.83168
21
-2.5298
0
LINE
8
BLACK
6
CONTINUOUS
10
1.83168
20
-2.5298
11
1.83406
21
-2.52407
0
LINE
8
BLACK
6
CONTINUOUS
10
1.83406
20
-2.52407
11
1.83751
21
-2.5189
0
LINE
8
BLACK
6
CONTINUOUS
10
1.83751
20
-2.5189
11
1.8419
21
-2.51451
0
LINE
8
BLACK
6
CONTINUOUS
10
1.8419
20
-2.51451
11
1.84707
21
-2.51106
0
LINE
8
BLACK
6
CONTINUOUS
10
1.84707
20
-2.51106
11
1.8528
21
-2.50868
0
LINE
8
BLACK
6
CONTINUOUS
10
1.8528
20
-2.50868
11
1.85889
21
-2.50747
0
LINE
8
BLACK
6
CONTINUOUS
10
1.85889
20
-2.50747
11
1.86511
21
-2.50747
0
LINE
8
BLACK
6
CONTINUOUS
10
1.86511
20
-2.50747
11
1.8712
21
-2.50868
0
LINE
8
BLACK
6
CONTINUOUS
10
1.7712
20
-2.50868
11
1.77693
21
-2.51106
0
LINE
8
BLACK
6
CONTINUOUS
10
1.77693
20
-2.51106
11
1.7821
21
-2.51451
0
LINE
8
BLACK
6
CONTINUOUS
10
1.7821
20
-2.51451
11
1.78649
21
-2.5189
0
LINE
8
BLACK
6
CONTINUOUS
10
1.78649
20
-2.5189
11
1.78994
21
-2.52407
0
LINE
8
BLACK
6
CONTINUOUS
10
1.78994
20
-2.52407
11
1.79232
21
-2.5298
0
LINE
8
BLACK
6
CONTINUOUS
10
1.79232
20
-2.5298
11
1.79353
21
-2.53589
0
LINE
8
BLACK
6
CONTINUOUS
10
1.79353
20
-2.53589
11
1.79353
21
-2.54211
0
LINE
8
BLACK
6
CONTINUOUS
10
1.79353
20
-2.54211
11
1.79232
21
-2.5482
0
LINE
8
BLACK
6
CONTINUOUS
10
1.79232
20
-2.5482
11
1.78994
21
-2.55393
0
LINE
8
BLACK
6
CONTINUOUS
10
1.78994
20
-2.55393
11
1.78649
21
-2.5591
0
LINE
8
BLACK
6
CONTINUOUS
10
1.78649
20
-2.5591
11
1.7821
21
-2.56349
0
LINE
8
BLACK
6
CONTINUOUS
10
1.7821
20
-2.56349
11
1.77693
21
-2.56694
0
LINE
8
BLACK
6
CONTINUOUS
10
1.77693
20
-2.56694
11
1.7712
21
-2.56932
0
LINE
8
BLACK
6
CONTINUOUS
10
1.7712
20
-2.56932
11
1.76511
21
-2.57053
0
LINE
8
BLACK
6
CONTINUOUS
10
1.76511
20
-2.57053
11
1.75889
21
-2.57053
0
LINE
8
BLACK
6
CONTINUOUS
10
1.75889
20
-2.57053
11
1.7528
21
-2.56932
0
LINE
8
BLACK
6
CONTINUOUS
10
1.7528
20
-2.56932
11
1.74707
21
-2.56694
0
LINE
8
BLACK
6
CONTINUOUS
10
1.74707
20
-2.56694
11
1.7419
21
-2.56349
0
LINE
8
BLACK
6
CONTINUOUS
10
1.7419
20
-2.56349
11
1.73751
21
-2.5591
0
LINE
8
BLACK
6
CONTINUOUS
10
1.73751
20
-2.5591
11
1.73406
21
-2.55393
0
LINE
8
BLACK
6
CONTINUOUS
10
1.73406
20
-2.55393
11
1.73168
21
-2.5482
0
LINE
8
BLACK
6
CONTINUOUS
10
1.73168
20
-2.5482
11
1.73047
21
-2.54211
0
LINE
8
BLACK
6
CONTINUOUS
10
1.73047
20
-2.54211
11
1.73047
21
-2.53589
0
LINE
8
BLACK
6
CONTINUOUS
10
1.73047
20
-2.53589
11
1.73168
21
-2.5298
0
LINE
8
BLACK
6
CONTINUOUS
10
1.73168
20
-2.5298
11
1.73406
21
-2.52407
0
LINE
8
BLACK
6
CONTINUOUS
10
1.73406
20
-2.52407
11
1.73751
21
-2.5189
0
LINE
8
BLACK
6
CONTINUOUS
10
1.73751
20
-2.5189
11
1.7419
21
-2.51451
0
LINE
8
BLACK
6
CONTINUOUS
10
1.7419
20
-2.51451
11
1.74707
21
-2.51106
0
LINE
8
BLACK
6
CONTINUOUS
10
1.74707
20
-2.51106
11
1.7528
21
-2.50868
0
LINE
8
BLACK
6
CONTINUOUS
10
1.7528
20
-2.50868
11
1.75889
21
-2.50747
0
LINE
8
BLACK
6
CONTINUOUS
10
1.75889
20
-2.50747
11
1.76511
21
-2.50747
0
LINE
8
BLACK
6
CONTINUOUS
10
1.76511
20
-2.50747
11
1.7712
21
-2.50868
0
LINE
8
BLACK
6
CONTINUOUS
10
1.27096
20
-2.42951
11
1.28279
21
-2.4344
0
LINE
8
BLACK
6
CONTINUOUS
10
1.28279
20
-2.4344
11
1.29343
21
-2.44152
0
LINE
8
BLACK
6
CONTINUOUS
10
1.29343
20
-2.44152
11
1.30248
21
-2.45057
0
LINE
8
BLACK
6
CONTINUOUS
10
1.30248
20
-2.45057
11
1.3096
21
-2.46121
0
LINE
8
BLACK
6
CONTINUOUS
10
1.3096
20
-2.46121
11
1.31449
21
-2.47304
0
LINE
8
BLACK
6
CONTINUOUS
10
1.31449
20
-2.47304
11
1.31699
21
-2.4856
0
LINE
8
BLACK
6
CONTINUOUS
10
1.31699
20
-2.4856
11
1.31699
21
-2.4984
0
LINE
8
BLACK
6
CONTINUOUS
10
1.31699
20
-2.4984
11
1.31449
21
-2.51096
0
LINE
8
BLACK
6
CONTINUOUS
10
1.31449
20
-2.51096
11
1.3096
21
-2.52279
0
LINE
8
BLACK
6
CONTINUOUS
10
1.3096
20
-2.52279
11
1.30248
21
-2.53343
0
LINE
8
BLACK
6
CONTINUOUS
10
1.30248
20
-2.53343
11
1.29343
21
-2.54248
0
LINE
8
BLACK
6
CONTINUOUS
10
1.29343
20
-2.54248
11
1.28279
21
-2.5496
0
LINE
8
BLACK
6
CONTINUOUS
10
1.28279
20
-2.5496
11
1.27096
21
-2.55449
0
LINE
8
BLACK
6
CONTINUOUS
10
1.27096
20
-2.55449
11
1.2584
21
-2.55699
0
LINE
8
BLACK
6
CONTINUOUS
10
1.2584
20
-2.55699
11
1.2456
21
-2.55699
0
LINE
8
BLACK
6
CONTINUOUS
10
1.2456
20
-2.55699
11
1.23304
21
-2.55449
0
LINE
8
BLACK
6
CONTINUOUS
10
1.23304
20
-2.55449
11
1.22121
21
-2.5496
0
LINE
8
BLACK
6
CONTINUOUS
10
1.22121
20
-2.5496
11
1.21057
21
-2.54248
0
LINE
8
BLACK
6
CONTINUOUS
10
1.21057
20
-2.54248
11
1.20152
21
-2.53343
0
LINE
8
BLACK
6
CONTINUOUS
10
1.20152
20
-2.53343
11
1.1944
21
-2.52279
0
LINE
8
BLACK
6
CONTINUOUS
10
1.1944
20
-2.52279
11
1.18951
21
-2.51096
0
LINE
8
BLACK
6
CONTINUOUS
10
1.18951
20
-2.51096
11
1.18701
21
-2.4984
0
LINE
8
BLACK
6
CONTINUOUS
10
1.18701
20
-2.4984
11
1.18701
21
-2.4856
0
LINE
8
BLACK
6
CONTINUOUS
10
1.18701
20
-2.4856
11
1.18951
21
-2.47304
0
LINE
8
BLACK
6
CONTINUOUS
10
1.18951
20
-2.47304
11
1.1944
21
-2.46121
0
LINE
8
BLACK
6
CONTINUOUS
10
1.1944
20
-2.46121
11
1.20152
21
-2.45057
0
LINE
8
BLACK
6
CONTINUOUS
10
1.20152
20
-2.45057
11
1.21057
21
-2.44152
0
LINE
8
BLACK
6
CONTINUOUS
10
1.21057
20
-2.44152
11
1.22121
21
-2.4344
0
LINE
8
BLACK
6
CONTINUOUS
10
1.22121
20
-2.4344
11
1.23304
21
-2.42951
0
LINE
8
BLACK
6
CONTINUOUS
10
1.23304
20
-2.42951
11
1.2456
21
-2.42701
0
LINE
8
BLACK
6
CONTINUOUS
10
1.2456
20
-2.42701
11
1.2584
21
-2.42701
0
LINE
8
BLACK
6
CONTINUOUS
10
1.2584
20
-2.42701
11
1.27096
21
-2.42951
0
LINE
8
BLACK
6
CONTINUOUS
10
3.42448
20
-2.4515
11
3.43058
21
-2.45403
0
LINE
8
BLACK
6
CONTINUOUS
10
3.43058
20
-2.45403
11
3.43606
21
-2.45769
0
LINE
8
BLACK
6
CONTINUOUS
10
3.43606
20
-2.45769
11
3.44073
21
-2.46236
0
LINE
8
BLACK
6
CONTINUOUS
10
3.44073
20
-2.46236
11
3.44439
21
-2.46784
0
LINE
8
BLACK
6
CONTINUOUS
10
3.44439
20
-2.46784
11
3.44692
21
-2.47394
0
LINE
8
BLACK
6
CONTINUOUS
10
3.44692
20
-2.47394
11
3.44821
21
-2.48041
0
LINE
8
BLACK
6
CONTINUOUS
10
3.44821
20
-2.48041
11
3.44821
21
-2.48701
0
LINE
8
BLACK
6
CONTINUOUS
10
3.44821
20
-2.48701
11
3.44692
21
-2.49348
0
LINE
8
BLACK
6
CONTINUOUS
10
3.44692
20
-2.49348
11
3.44439
21
-2.49958
0
LINE
8
BLACK
6
CONTINUOUS
10
3.44439
20
-2.49958
11
3.44073
21
-2.50506
0
LINE
8
BLACK
6
CONTINUOUS
10
3.44073
20
-2.50506
11
3.43606
21
-2.50973
0
LINE
8
BLACK
6
CONTINUOUS
10
3.43606
20
-2.50973
11
3.43058
21
-2.51339
0
LINE
8
BLACK
6
CONTINUOUS
10
3.43058
20
-2.51339
11
3.42448
21
-2.51592
0
LINE
8
BLACK
6
CONTINUOUS
10
3.42448
20
-2.51592
11
3.41801
21
-2.51721
0
LINE
8
BLACK
6
CONTINUOUS
10
3.41801
20
-2.51721
11
3.41141
21
-2.51721
0
LINE
8
BLACK
6
CONTINUOUS
10
3.41141
20
-2.51721
11
3.40494
21
-2.51592
0
LINE
8
BLACK
6
CONTINUOUS
10
3.40494
20
-2.51592
11
3.39884
21
-2.51339
0
LINE
8
BLACK
6
CONTINUOUS
10
3.39884
20
-2.51339
11
3.39336
21
-2.50973
0
LINE
8
BLACK
6
CONTINUOUS
10
3.39336
20
-2.50973
11
3.38869
21
-2.50506
0
LINE
8
BLACK
6
CONTINUOUS
10
3.38869
20
-2.50506
11
3.38503
21
-2.49958
0
LINE
8
BLACK
6
CONTINUOUS
10
3.38503
20
-2.49958
11
3.3825
21
-2.49348
0
LINE
8
BLACK
6
CONTINUOUS
10
3.3825
20
-2.49348
11
3.38121
21
-2.48701
0
LINE
8
BLACK
6
CONTINUOUS
10
3.38121
20
-2.48701
11
3.38121
21
-2.48041
0
LINE
8
BLACK
6
CONTINUOUS
10
3.38121
20
-2.48041
11
3.3825
21
-2.47394
0
LINE
8
BLACK
6
CONTINUOUS
10
3.3825
20
-2.47394
11
3.38503
21
-2.46784
0
LINE
8
BLACK
6
CONTINUOUS
10
3.38503
20
-2.46784
11
3.38869
21
-2.46236
0
LINE
8
BLACK
6
CONTINUOUS
10
3.38869
20
-2.46236
11
3.39336
21
-2.45769
0
LINE
8
BLACK
6
CONTINUOUS
10
3.39336
20
-2.45769
11
3.39884
21
-2.45403
0
LINE
8
BLACK
6
CONTINUOUS
10
3.39884
20
-2.45403
11
3.40494
21
-2.4515
0
LINE
8
BLACK
6
CONTINUOUS
10
3.40494
20
-2.4515
11
3.41141
21
-2.45021
0
LINE
8
BLACK
6
CONTINUOUS
10
3.41141
20
-2.45021
11
3.41801
21
-2.45021
0
LINE
8
BLACK
6
CONTINUOUS
10
3.41801
20
-2.45021
11
3.42448
21
-2.4515
0
LINE
8
BLACK
6
CONTINUOUS
10
3.28306
20
-2.4515
11
3.28916
21
-2.45403
0
LINE
8
BLACK
6
CONTINUOUS
10
3.28916
20
-2.45403
11
3.29464
21
-2.45769
0
LINE
8
BLACK
6
CONTINUOUS
10
3.29464
20
-2.45769
11
3.29931
21
-2.46236
0
LINE
8
BLACK
6
CONTINUOUS
10
3.29931
20
-2.46236
11
3.30297
21
-2.46784
0
LINE
8
BLACK
6
CONTINUOUS
10
3.30297
20
-2.46784
11
3.3055
21
-2.47394
0
LINE
8
BLACK
6
CONTINUOUS
10
3.3055
20
-2.47394
11
3.30679
21
-2.48041
0
LINE
8
BLACK
6
CONTINUOUS
10
3.30679
20
-2.48041
11
3.30679
21
-2.48701
0
LINE
8
BLACK
6
CONTINUOUS
10
3.30679
20
-2.48701
11
3.3055
21
-2.49348
0
LINE
8
BLACK
6
CONTINUOUS
10
3.3055
20
-2.49348
11
3.30297
21
-2.49958
0
LINE
8
BLACK
6
CONTINUOUS
10
3.30297
20
-2.49958
11
3.29931
21
-2.50506
0
LINE
8
BLACK
6
CONTINUOUS
10
3.29931
20
-2.50506
11
3.29464
21
-2.50973
0
LINE
8
BLACK
6
CONTINUOUS
10
3.29464
20
-2.50973
11
3.28916
21
-2.51339
0
LINE
8
BLACK
6
CONTINUOUS
10
3.28916
20
-2.51339
11
3.28306
21
-2.51592
0
LINE
8
BLACK
6
CONTINUOUS
10
3.28306
20
-2.51592
11
3.27659
21
-2.51721
0
LINE
8
BLACK
6
CONTINUOUS
10
3.27659
20
-2.51721
11
3.26999
21
-2.51721
0
LINE
8
BLACK
6
CONTINUOUS
10
3.26999
20
-2.51721
11
3.26352
21
-2.51592
0
LINE
8
BLACK
6
CONTINUOUS
10
3.26352
20
-2.51592
11
3.25742
21
-2.51339
0
LINE
8
BLACK
6
CONTINUOUS
10
3.25742
20
-2.51339
11
3.25194
21
-2.50973
0
LINE
8
BLACK
6
CONTINUOUS
10
3.25194
20
-2.50973
11
3.24727
21
-2.50506
0
LINE
8
BLACK
6
CONTINUOUS
10
3.24727
20
-2.50506
11
3.24361
21
-2.49958
0
LINE
8
BLACK
6
CONTINUOUS
10
3.24361
20
-2.49958
11
3.24108
21
-2.49348
0
LINE
8
BLACK
6
CONTINUOUS
10
3.24108
20
-2.49348
11
3.23979
21
-2.48701
0
LINE
8
BLACK
6
CONTINUOUS
10
3.23979
20
-2.48701
11
3.23979
21
-2.48041
0
LINE
8
BLACK
6
CONTINUOUS
10
3.23979
20
-2.48041
11
3.24108
21
-2.47394
0
LINE
8
BLACK
6
CONTINUOUS
10
3.24108
20
-2.47394
11
3.24361
21
-2.46784
0
LINE
8
BLACK
6
CONTINUOUS
10
3.24361
20
-2.46784
11
3.24727
21
-2.46236
0
LINE
8
BLACK
6
CONTINUOUS
10
3.24727
20
-2.46236
11
3.25194
21
-2.45769
0
LINE
8
BLACK
6
CONTINUOUS
10
3.25194
20
-2.45769
11
3.25742
21
-2.45403
0
LINE
8
BLACK
6
CONTINUOUS
10
3.25742
20
-2.45403
11
3.26352
21
-2.4515
0
LINE
8
BLACK
6
CONTINUOUS
10
3.26352
20
-2.4515
11
3.26999
21
-2.45021
0
LINE
8
BLACK
6
CONTINUOUS
10
3.26999
20
-2.45021
11
3.27659
21
-2.45021
0
LINE
8
BLACK
6
CONTINUOUS
10
3.27659
20
-2.45021
11
3.28306
21
-2.4515
0
LINE
8
BLACK
6
CONTINUOUS
10
3.06834
20
-2.4309
11
3.0748
21
-2.43357
0
LINE
8
BLACK
6
CONTINUOUS
10
3.0748
20
-2.43357
11
3.08061
21
-2.43745
0
LINE
8
BLACK
6
CONTINUOUS
10
3.08061
20
-2.43745
11
3.08555
21
-2.44239
0
LINE
8
BLACK
6
CONTINUOUS
10
3.08555
20
-2.44239
11
3.08943
21
-2.4482
0
LINE
8
BLACK
6
CONTINUOUS
10
3.08943
20
-2.4482
11
3.0921
21
-2.45466
0
LINE
8
BLACK
6
CONTINUOUS
10
3.0921
20
-2.45466
11
3.09346
21
-2.46151
0
LINE
8
BLACK
6
CONTINUOUS
10
3.09346
20
-2.46151
11
3.09346
21
-2.46849
0
LINE
8
BLACK
6
CONTINUOUS
10
3.09346
20
-2.46849
11
3.0921
21
-2.47534
0
LINE
8
BLACK
6
CONTINUOUS
10
3.0921
20
-2.47534
11
3.08943
21
-2.4818
0
LINE
8
BLACK
6
CONTINUOUS
10
3.08943
20
-2.4818
11
3.08555
21
-2.48761
0
LINE
8
BLACK
6
CONTINUOUS
10
3.08555
20
-2.48761
11
3.08061
21
-2.49255
0
LINE
8
BLACK
6
CONTINUOUS
10
3.08061
20
-2.49255
11
3.0748
21
-2.49643
0
LINE
8
BLACK
6
CONTINUOUS
10
3.0748
20
-2.49643
11
3.06834
21
-2.4991
0
LINE
8
BLACK
6
CONTINUOUS
10
3.06834
20
-2.4991
11
3.06149
21
-2.50046
0
LINE
8
BLACK
6
CONTINUOUS
10
3.06149
20
-2.50046
11
3.05451
21
-2.50046
0
LINE
8
BLACK
6
CONTINUOUS
10
3.05451
20
-2.50046
11
3.04766
21
-2.4991
0
LINE
8
BLACK
6
CONTINUOUS
10
3.04766
20
-2.4991
11
3.0412
21
-2.49643
0
LINE
8
BLACK
6
CONTINUOUS
10
3.0412
20
-2.49643
11
3.03539
21
-2.49255
0
LINE
8
BLACK
6
CONTINUOUS
10
3.03539
20
-2.49255
11
3.03045
21
-2.48761
0
LINE
8
BLACK
6
CONTINUOUS
10
3.03045
20
-2.48761
11
3.02657
21
-2.4818
0
LINE
8
BLACK
6
CONTINUOUS
10
3.02657
20
-2.4818
11
3.0239
21
-2.47534
0
LINE
8
BLACK
6
CONTINUOUS
10
3.0239
20
-2.47534
11
3.02254
21
-2.46849
0
LINE
8
BLACK
6
CONTINUOUS
10
3.02254
20
-2.46849
11
3.02254
21
-2.46151
0
LINE
8
BLACK
6
CONTINUOUS
10
3.02254
20
-2.46151
11
3.0239
21
-2.45466
0
LINE
8
BLACK
6
CONTINUOUS
10
3.0239
20
-2.45466
11
3.02657
21
-2.4482
0
LINE
8
BLACK
6
CONTINUOUS
10
3.02657
20
-2.4482
11
3.03045
21
-2.44239
0
LINE
8
BLACK
6
CONTINUOUS
10
3.03045
20
-2.44239
11
3.03539
21
-2.43745
0
LINE
8
BLACK
6
CONTINUOUS
10
3.03539
20
-2.43745
11
3.0412
21
-2.43357
0
LINE
8
BLACK
6
CONTINUOUS
10
3.0412
20
-2.43357
11
3.04766
21
-2.4309
0
LINE
8
BLACK
6
CONTINUOUS
10
3.04766
20
-2.4309
11
3.05451
21
-2.42954
0
LINE
8
BLACK
6
CONTINUOUS
10
3.05451
20
-2.42954
11
3.06149
21
-2.42954
0
LINE
8
BLACK
6
CONTINUOUS
10
3.06149
20
-2.42954
11
3.06834
21
-2.4309
0
LINE
8
BLACK
6
CONTINUOUS
10
2.61162
20
-2.39658
11
2.617
21
-2.39881
0
LINE
8
BLACK
6
CONTINUOUS
10
2.617
20
-2.39881
11
2.62184
21
-2.40204
0
LINE
8
BLACK
6
CONTINUOUS
10
2.62184
20
-2.40204
11
2.62596
21
-2.40616
0
LINE
8
BLACK
6
CONTINUOUS
10
2.62596
20
-2.40616
11
2.62919
21
-2.411
0
LINE
8
BLACK
6
CONTINUOUS
10
2.62919
20
-2.411
11
2.63142
21
-2.41638
0
LINE
8
BLACK
6
CONTINUOUS
10
2.63142
20
-2.41638
11
2.63256
21
-2.42209
0
LINE
8
BLACK
6
CONTINUOUS
10
2.63256
20
-2.42209
11
2.63256
21
-2.42791
0
LINE
8
BLACK
6
CONTINUOUS
10
2.63256
20
-2.42791
11
2.63142
21
-2.43362
0
LINE
8
BLACK
6
CONTINUOUS
10
2.63142
20
-2.43362
11
2.62919
21
-2.439
0
LINE
8
BLACK
6
CONTINUOUS
10
2.62919
20
-2.439
11
2.62596
21
-2.44384
0
LINE
8
BLACK
6
CONTINUOUS
10
2.62596
20
-2.44384
11
2.62184
21
-2.44796
0
LINE
8
BLACK
6
CONTINUOUS
10
2.62184
20
-2.44796
11
2.617
21
-2.45119
0
LINE
8
BLACK
6
CONTINUOUS
10
2.617
20
-2.45119
11
2.61162
21
-2.45342
0
LINE
8
BLACK
6
CONTINUOUS
10
2.61162
20
-2.45342
11
2.60591
21
-2.45456
0
LINE
8
BLACK
6
CONTINUOUS
10
2.60591
20
-2.45456
11
2.60009
21
-2.45456
0
LINE
8
BLACK
6
CONTINUOUS
10
2.60009
20
-2.45456
11
2.59438
21
-2.45342
0
LINE
8
BLACK
6
CONTINUOUS
10
2.59438
20
-2.45342
11
2.589
21
-2.45119
0
LINE
8
BLACK
6
CONTINUOUS
10
2.589
20
-2.45119
11
2.58416
21
-2.44796
0
LINE
8
BLACK
6
CONTINUOUS
10
2.58416
20
-2.44796
11
2.58004
21
-2.44384
0
LINE
8
BLACK
6
CONTINUOUS
10
2.58004
20
-2.44384
11
2.57681
21
-2.439
0
LINE
8
BLACK
6
CONTINUOUS
10
2.57681
20
-2.439
11
2.57458
21
-2.43362
0
LINE
8
BLACK
6
CONTINUOUS
10
2.57458
20
-2.43362
11
2.57344
21
-2.42791
0
LINE
8
BLACK
6
CONTINUOUS
10
2.57344
20
-2.42791
11
2.57344
21
-2.42209
0
LINE
8
BLACK
6
CONTINUOUS
10
2.57344
20
-2.42209
11
2.57458
21
-2.41638
0
LINE
8
BLACK
6
CONTINUOUS
10
2.57458
20
-2.41638
11
2.57681
21
-2.411
0
LINE
8
BLACK
6
CONTINUOUS
10
2.57681
20
-2.411
11
2.58004
21
-2.40616
0
LINE
8
BLACK
6
CONTINUOUS
10
2.58004
20
-2.40616
11
2.58416
21
-2.40204
0
LINE
8
BLACK
6
CONTINUOUS
10
2.58416
20
-2.40204
11
2.589
21
-2.39881
0
LINE
8
BLACK
6
CONTINUOUS
10
2.589
20
-2.39881
11
2.59438
21
-2.39658
0
LINE
8
BLACK
6
CONTINUOUS
10
2.59438
20
-2.39658
11
2.60009
21
-2.39544
0
LINE
8
BLACK
6
CONTINUOUS
10
2.60009
20
-2.39544
11
2.60591
21
-2.39544
0
LINE
8
BLACK
6
CONTINUOUS
10
2.60591
20
-2.39544
11
2.61162
21
-2.39658
0
LINE
8
BLACK
6
CONTINUOUS
10
2.51162
20
-2.39458
11
2.517
21
-2.39681
0
LINE
8
BLACK
6
CONTINUOUS
10
2.517
20
-2.39681
11
2.52184
21
-2.40004
0
LINE
8
BLACK
6
CONTINUOUS
10
2.52184
20
-2.40004
11
2.52596
21
-2.40416
0
LINE
8
BLACK
6
CONTINUOUS
10
2.52596
20
-2.40416
11
2.52919
21
-2.409
0
LINE
8
BLACK
6
CONTINUOUS
10
2.52919
20
-2.409
11
2.53142
21
-2.41438
0
LINE
8
BLACK
6
CONTINUOUS
10
2.53142
20
-2.41438
11
2.53256
21
-2.42009
0
LINE
8
BLACK
6
CONTINUOUS
10
2.53256
20
-2.42009
11
2.53256
21
-2.42591
0
LINE
8
BLACK
6
CONTINUOUS
10
2.53256
20
-2.42591
11
2.53142
21
-2.43162
0
LINE
8
BLACK
6
CONTINUOUS
10
2.53142
20
-2.43162
11
2.52919
21
-2.437
0
LINE
8
BLACK
6
CONTINUOUS
10
2.52919
20
-2.437
11
2.52596
21
-2.44184
0
LINE
8
BLACK
6
CONTINUOUS
10
2.52596
20
-2.44184
11
2.52184
21
-2.44596
0
LINE
8
BLACK
6
CONTINUOUS
10
2.52184
20
-2.44596
11
2.517
21
-2.44919
0
LINE
8
BLACK
6
CONTINUOUS
10
2.517
20
-2.44919
11
2.51162
21
-2.45142
0
LINE
8
BLACK
6
CONTINUOUS
10
2.51162
20
-2.45142
11
2.50591
21
-2.45256
0
LINE
8
BLACK
6
CONTINUOUS
10
2.50591
20
-2.45256
11
2.50009
21
-2.45256
0
LINE
8
BLACK
6
CONTINUOUS
10
2.50009
20
-2.45256
11
2.49438
21
-2.45142
0
LINE
8
BLACK
6
CONTINUOUS
10
2.49438
20
-2.45142
11
2.489
21
-2.44919
0
LINE
8
BLACK
6
CONTINUOUS
10
2.489
20
-2.44919
11
2.48416
21
-2.44596
0
LINE
8
BLACK
6
CONTINUOUS
10
2.48416
20
-2.44596
11
2.48004
21
-2.44184
0
LINE
8
BLACK
6
CONTINUOUS
10
2.48004
20
-2.44184
11
2.47681
21
-2.437
0
LINE
8
BLACK
6
CONTINUOUS
10
2.47681
20
-2.437
11
2.47458
21
-2.43162
0
LINE
8
BLACK
6
CONTINUOUS
10
2.47458
20
-2.43162
11
2.47344
21
-2.42591
0
LINE
8
BLACK
6
CONTINUOUS
10
2.47344
20
-2.42591
11
2.47344
21
-2.42009
0
LINE
8
BLACK
6
CONTINUOUS
10
2.47344
20
-2.42009
11
2.47458
21
-2.41438
0
LINE
8
BLACK
6
CONTINUOUS
10
2.47458
20
-2.41438
11
2.47681
21
-2.409
0
LINE
8
BLACK
6
CONTINUOUS
10
2.47681
20
-2.409
11
2.48004
21
-2.40416
0
LINE
8
BLACK
6
CONTINUOUS
10
2.48004
20
-2.40416
11
2.48416
21
-2.40004
0
LINE
8
BLACK
6
CONTINUOUS
10
2.48416
20
-2.40004
11
2.489
21
-2.39681
0
LINE
8
BLACK
6
CONTINUOUS
10
2.489
20
-2.39681
11
2.49438
21
-2.39458
0
LINE
8
BLACK
6
CONTINUOUS
10
2.49438
20
-2.39458
11
2.50009
21
-2.39344
0
LINE
8
BLACK
6
CONTINUOUS
10
2.50009
20
-2.39344
11
2.50591
21
-2.39344
0
LINE
8
BLACK
6
CONTINUOUS
10
2.50591
20
-2.39344
11
2.51162
21
-2.39458
0
LINE
8
BLACK
6
CONTINUOUS
10
2.41562
20
-2.39258
11
2.421
21
-2.39481
0
LINE
8
BLACK
6
CONTINUOUS
10
2.421
20
-2.39481
11
2.42584
21
-2.39804
0
LINE
8
BLACK
6
CONTINUOUS
10
2.42584
20
-2.39804
11
2.42996
21
-2.40216
0
LINE
8
BLACK
6
CONTINUOUS
10
2.42996
20
-2.40216
11
2.43319
21
-2.407
0
LINE
8
BLACK
6
CONTINUOUS
10
2.43319
20
-2.407
11
2.43542
21
-2.41238
0
LINE
8
BLACK
6
CONTINUOUS
10
2.43542
20
-2.41238
11
2.43656
21
-2.41809
0
LINE
8
BLACK
6
CONTINUOUS
10
2.43656
20
-2.41809
11
2.43656
21
-2.42391
0
LINE
8
BLACK
6
CONTINUOUS
10
2.43656
20
-2.42391
11
2.43542
21
-2.42962
0
LINE
8
BLACK
6
CONTINUOUS
10
2.43542
20
-2.42962
11
2.43319
21
-2.435
0
LINE
8
BLACK
6
CONTINUOUS
10
2.43319
20
-2.435
11
2.42996
21
-2.43984
0
LINE
8
BLACK
6
CONTINUOUS
10
2.42996
20
-2.43984
11
2.42584
21
-2.44396
0
LINE
8
BLACK
6
CONTINUOUS
10
2.42584
20
-2.44396
11
2.421
21
-2.44719
0
LINE
8
BLACK
6
CONTINUOUS
10
2.421
20
-2.44719
11
2.41562
21
-2.44942
0
LINE
8
BLACK
6
CONTINUOUS
10
2.41562
20
-2.44942
11
2.40991
21
-2.45056
0
LINE
8
BLACK
6
CONTINUOUS
10
2.40991
20
-2.45056
11
2.40409
21
-2.45056
0
LINE
8
BLACK
6
CONTINUOUS
10
2.40409
20
-2.45056
11
2.39838
21
-2.44942
0
LINE
8
BLACK
6
CONTINUOUS
10
2.39838
20
-2.44942
11
2.393
21
-2.44719
0
LINE
8
BLACK
6
CONTINUOUS
10
2.393
20
-2.44719
11
2.38816
21
-2.44396
0
LINE
8
BLACK
6
CONTINUOUS
10
2.38816
20
-2.44396
11
2.38404
21
-2.43984
0
LINE
8
BLACK
6
CONTINUOUS
10
2.38404
20
-2.43984
11
2.38081
21
-2.435
0
LINE
8
BLACK
6
CONTINUOUS
10
2.38081
20
-2.435
11
2.37858
21
-2.42962
0
LINE
8
BLACK
6
CONTINUOUS
10
2.37858
20
-2.42962
11
2.37744
21
-2.42391
0
LINE
8
BLACK
6
CONTINUOUS
10
2.37744
20
-2.42391
11
2.37744
21
-2.41809
0
LINE
8
BLACK
6
CONTINUOUS
10
2.37744
20
-2.41809
11
2.37858
21
-2.41238
0
LINE
8
BLACK
6
CONTINUOUS
10
2.37858
20
-2.41238
11
2.38081
21
-2.407
0
LINE
8
BLACK
6
CONTINUOUS
10
2.38081
20
-2.407
11
2.38404
21
-2.40216
0
LINE
8
BLACK
6
CONTINUOUS
10
2.38404
20
-2.40216
11
2.38816
21
-2.39804
0
LINE
8
BLACK
6
CONTINUOUS
10
2.38816
20
-2.39804
11
2.393
21
-2.39481
0
LINE
8
BLACK
6
CONTINUOUS
10
2.393
20
-2.39481
11
2.39838
21
-2.39258
0
LINE
8
BLACK
6
CONTINUOUS
10
2.39838
20
-2.39258
11
2.40409
21
-2.39144
0
LINE
8
BLACK
6
CONTINUOUS
10
2.40409
20
-2.39144
11
2.40991
21
-2.39144
0
LINE
8
BLACK
6
CONTINUOUS
10
2.40991
20
-2.39144
11
2.41562
21
-2.39258
0
LINE
8
BLACK
6
CONTINUOUS
10
2.31162
20
-2.39058
11
2.317
21
-2.39281
0
LINE
8
BLACK
6
CONTINUOUS
10
2.317
20
-2.39281
11
2.32184
21
-2.39604
0
LINE
8
BLACK
6
CONTINUOUS
10
2.32184
20
-2.39604
11
2.32596
21
-2.40016
0
LINE
8
BLACK
6
CONTINUOUS
10
2.32596
20
-2.40016
11
2.32919
21
-2.405
0
LINE
8
BLACK
6
CONTINUOUS
10
2.32919
20
-2.405
11
2.33142
21
-2.41038
0
LINE
8
BLACK
6
CONTINUOUS
10
2.33142
20
-2.41038
11
2.33256
21
-2.41609
0
LINE
8
BLACK
6
CONTINUOUS
10
2.33256
20
-2.41609
11
2.33256
21
-2.42191
0
LINE
8
BLACK
6
CONTINUOUS
10
2.33256
20
-2.42191
11
2.33142
21
-2.42762
0
LINE
8
BLACK
6
CONTINUOUS
10
2.33142
20
-2.42762
11
2.32919
21
-2.433
0
LINE
8
BLACK
6
CONTINUOUS
10
2.32919
20
-2.433
11
2.32596
21
-2.43784
0
LINE
8
BLACK
6
CONTINUOUS
10
2.32596
20
-2.43784
11
2.32184
21
-2.44196
0
LINE
8
BLACK
6
CONTINUOUS
10
2.32184
20
-2.44196
11
2.317
21
-2.44519
0
LINE
8
BLACK
6
CONTINUOUS
10
2.317
20
-2.44519
11
2.31162
21
-2.44742
0
LINE
8
BLACK
6
CONTINUOUS
10
2.31162
20
-2.44742
11
2.30591
21
-2.44856
0
LINE
8
BLACK
6
CONTINUOUS
10
2.30591
20
-2.44856
11
2.30009
21
-2.44856
0
LINE
8
BLACK
6
CONTINUOUS
10
2.30009
20
-2.44856
11
2.29438
21
-2.44742
0
LINE
8
BLACK
6
CONTINUOUS
10
2.29438
20
-2.44742
11
2.289
21
-2.44519
0
LINE
8
BLACK
6
CONTINUOUS
10
2.289
20
-2.44519
11
2.28416
21
-2.44196
0
LINE
8
BLACK
6
CONTINUOUS
10
2.28416
20
-2.44196
11
2.28004
21
-2.43784
0
LINE
8
BLACK
6
CONTINUOUS
10
2.28004
20
-2.43784
11
2.27681
21
-2.433
0
LINE
8
BLACK
6
CONTINUOUS
10
2.27681
20
-2.433
11
2.27458
21
-2.42762
0
LINE
8
BLACK
6
CONTINUOUS
10
2.27458
20
-2.42762
11
2.27344
21
-2.42191
0
LINE
8
BLACK
6
CONTINUOUS
10
2.27344
20
-2.42191
11
2.27344
21
-2.41609
0
LINE
8
BLACK
6
CONTINUOUS
10
2.27344
20
-2.41609
11
2.27458
21
-2.41038
0
LINE
8
BLACK
6
CONTINUOUS
10
2.27458
20
-2.41038
11
2.27681
21
-2.405
0
LINE
8
BLACK
6
CONTINUOUS
10
2.27681
20
-2.405
11
2.28004
21
-2.40016
0
LINE
8
BLACK
6
CONTINUOUS
10
2.28004
20
-2.40016
11
2.28416
21
-2.39604
0
LINE
8
BLACK
6
CONTINUOUS
10
2.28416
20
-2.39604
11
2.289
21
-2.39281
0
LINE
8
BLACK
6
CONTINUOUS
10
2.289
20
-2.39281
11
2.29438
21
-2.39058
0
LINE
8
BLACK
6
CONTINUOUS
10
2.29438
20
-2.39058
11
2.30009
21
-2.38944
0
LINE
8
BLACK
6
CONTINUOUS
10
2.30009
20
-2.38944
11
2.30591
21
-2.38944
0
LINE
8
BLACK
6
CONTINUOUS
10
2.30591
20
-2.38944
11
2.31162
21
-2.39058
0
LINE
8
BLACK
6
CONTINUOUS
10
1.62962
20
-2.38458
11
1.635
21
-2.38681
0
LINE
8
BLACK
6
CONTINUOUS
10
1.635
20
-2.38681
11
1.63984
21
-2.39004
0
LINE
8
BLACK
6
CONTINUOUS
10
1.63984
20
-2.39004
11
1.64396
21
-2.39416
0
LINE
8
BLACK
6
CONTINUOUS
10
1.64396
20
-2.39416
11
1.64719
21
-2.399
0
LINE
8
BLACK
6
CONTINUOUS
10
1.64719
20
-2.399
11
1.64942
21
-2.40438
0
LINE
8
BLACK
6
CONTINUOUS
10
1.64942
20
-2.40438
11
1.65056
21
-2.41009
0
LINE
8
BLACK
6
CONTINUOUS
10
1.65056
20
-2.41009
11
1.65056
21
-2.41591
0
LINE
8
BLACK
6
CONTINUOUS
10
1.65056
20
-2.41591
11
1.64942
21
-2.42162
0
LINE
8
BLACK
6
CONTINUOUS
10
1.64942
20
-2.42162
11
1.64719
21
-2.427
0
LINE
8
BLACK
6
CONTINUOUS
10
1.64719
20
-2.427
11
1.64396
21
-2.43184
0
LINE
8
BLACK
6
CONTINUOUS
10
1.64396
20
-2.43184
11
1.63984
21
-2.43596
0
LINE
8
BLACK
6
CONTINUOUS
10
1.63984
20
-2.43596
11
1.635
21
-2.43919
0
LINE
8
BLACK
6
CONTINUOUS
10
1.635
20
-2.43919
11
1.62962
21
-2.44142
0
LINE
8
BLACK
6
CONTINUOUS
10
1.62962
20
-2.44142
11
1.62391
21
-2.44256
0
LINE
8
BLACK
6
CONTINUOUS
10
1.62391
20
-2.44256
11
1.61809
21
-2.44256
0
LINE
8
BLACK
6
CONTINUOUS
10
1.61809
20
-2.44256
11
1.61238
21
-2.44142
0
LINE
8
BLACK
6
CONTINUOUS
10
1.61238
20
-2.44142
11
1.607
21
-2.43919
0
LINE
8
BLACK
6
CONTINUOUS
10
1.607
20
-2.43919
11
1.60216
21
-2.43596
0
LINE
8
BLACK
6
CONTINUOUS
10
1.60216
20
-2.43596
11
1.59804
21
-2.43184
0
LINE
8
BLACK
6
CONTINUOUS
10
1.59804
20
-2.43184
11
1.59481
21
-2.427
0
LINE
8
BLACK
6
CONTINUOUS
10
1.59481
20
-2.427
11
1.59258
21
-2.42162
0
LINE
8
BLACK
6
CONTINUOUS
10
1.59258
20
-2.42162
11
1.59144
21
-2.41591
0
LINE
8
BLACK
6
CONTINUOUS
10
1.59144
20
-2.41591
11
1.59144
21
-2.41009
0
LINE
8
BLACK
6
CONTINUOUS
10
1.59144
20
-2.41009
11
1.59258
21
-2.40438
0
LINE
8
BLACK
6
CONTINUOUS
10
1.59258
20
-2.40438
11
1.59481
21
-2.399
0
LINE
8
BLACK
6
CONTINUOUS
10
1.59481
20
-2.399
11
1.59804
21
-2.39416
0
LINE
8
BLACK
6
CONTINUOUS
10
1.59804
20
-2.39416
11
1.60216
21
-2.39004
0
LINE
8
BLACK
6
CONTINUOUS
10
1.60216
20
-2.39004
11
1.607
21
-2.38681
0
LINE
8
BLACK
6
CONTINUOUS
10
1.607
20
-2.38681
11
1.61238
21
-2.38458
0
LINE
8
BLACK
6
CONTINUOUS
10
1.61238
20
-2.38458
11
1.61809
21
-2.38344
0
LINE
8
BLACK
6
CONTINUOUS
10
1.61809
20
-2.38344
11
1.62391
21
-2.38344
0
LINE
8
BLACK
6
CONTINUOUS
10
1.62391
20
-2.38344
11
1.62962
21
-2.38458
0
LINE
8
BLACK
6
CONTINUOUS
10
3.06834
20
-2.3309
11
3.0748
21
-2.33357
0
LINE
8
BLACK
6
CONTINUOUS
10
3.0748
20
-2.33357
11
3.08061
21
-2.33745
0
LINE
8
BLACK
6
CONTINUOUS
10
3.08061
20
-2.33745
11
3.08555
21
-2.34239
0
LINE
8
BLACK
6
CONTINUOUS
10
3.08555
20
-2.34239
11
3.08943
21
-2.3482
0
LINE
8
BLACK
6
CONTINUOUS
10
3.08943
20
-2.3482
11
3.0921
21
-2.35466
0
LINE
8
BLACK
6
CONTINUOUS
10
3.0921
20
-2.35466
11
3.09346
21
-2.36151
0
LINE
8
BLACK
6
CONTINUOUS
10
3.09346
20
-2.36151
11
3.09346
21
-2.36849
0
LINE
8
BLACK
6
CONTINUOUS
10
3.09346
20
-2.36849
11
3.0921
21
-2.37534
0
LINE
8
BLACK
6
CONTINUOUS
10
3.0921
20
-2.37534
11
3.08943
21
-2.3818
0
LINE
8
BLACK
6
CONTINUOUS
10
3.08943
20
-2.3818
11
3.08555
21
-2.38761
0
LINE
8
BLACK
6
CONTINUOUS
10
3.08555
20
-2.38761
11
3.08061
21
-2.39255
0
LINE
8
BLACK
6
CONTINUOUS
10
3.08061
20
-2.39255
11
3.0748
21
-2.39643
0
LINE
8
BLACK
6
CONTINUOUS
10
3.0748
20
-2.39643
11
3.06834
21
-2.3991
0
LINE
8
BLACK
6
CONTINUOUS
10
3.06834
20
-2.3991
11
3.06149
21
-2.40046
0
LINE
8
BLACK
6
CONTINUOUS
10
3.06149
20
-2.40046
11
3.05451
21
-2.40046
0
LINE
8
BLACK
6
CONTINUOUS
10
3.05451
20
-2.40046
11
3.04766
21
-2.3991
0
LINE
8
BLACK
6
CONTINUOUS
10
3.04766
20
-2.3991
11
3.0412
21
-2.39643
0
LINE
8
BLACK
6
CONTINUOUS
10
3.0412
20
-2.39643
11
3.03539
21
-2.39255
0
LINE
8
BLACK
6
CONTINUOUS
10
3.03539
20
-2.39255
11
3.03045
21
-2.38761
0
LINE
8
BLACK
6
CONTINUOUS
10
3.03045
20
-2.38761
11
3.02657
21
-2.3818
0
LINE
8
BLACK
6
CONTINUOUS
10
3.02657
20
-2.3818
11
3.0239
21
-2.37534
0
LINE
8
BLACK
6
CONTINUOUS
10
3.0239
20
-2.37534
11
3.02254
21
-2.36849
0
LINE
8
BLACK
6
CONTINUOUS
10
3.02254
20
-2.36849
11
3.02254
21
-2.36151
0
LINE
8
BLACK
6
CONTINUOUS
10
3.02254
20
-2.36151
11
3.0239
21
-2.35466
0
LINE
8
BLACK
6
CONTINUOUS
10
3.0239
20
-2.35466
11
3.02657
21
-2.3482
0
LINE
8
BLACK
6
CONTINUOUS
10
3.02657
20
-2.3482
11
3.03045
21
-2.34239
0
LINE
8
BLACK
6
CONTINUOUS
10
3.03045
20
-2.34239
11
3.03539
21
-2.33745
0
LINE
8
BLACK
6
CONTINUOUS
10
3.03539
20
-2.33745
11
3.0412
21
-2.33357
0
LINE
8
BLACK
6
CONTINUOUS
10
3.0412
20
-2.33357
11
3.04766
21
-2.3309
0
LINE
8
BLACK
6
CONTINUOUS
10
3.04766
20
-2.3309
11
3.05451
21
-2.32954
0
LINE
8
BLACK
6
CONTINUOUS
10
3.05451
20
-2.32954
11
3.06149
21
-2.32954
0
LINE
8
BLACK
6
CONTINUOUS
10
3.06149
20
-2.32954
11
3.06834
21
-2.3309
0
LINE
8
BLACK
6
CONTINUOUS
10
2.81496
20
-2.25851
11
2.82679
21
-2.2634
0
LINE
8
BLACK
6
CONTINUOUS
10
2.82679
20
-2.2634
11
2.83743
21
-2.27052
0
LINE
8
BLACK
6
CONTINUOUS
10
2.83743
20
-2.27052
11
2.84648
21
-2.27957
0
LINE
8
BLACK
6
CONTINUOUS
10
2.84648
20
-2.27957
11
2.8536
21
-2.29021
0
LINE
8
BLACK
6
CONTINUOUS
10
2.8536
20
-2.29021
11
2.85849
21
-2.30204
0
LINE
8
BLACK
6
CONTINUOUS
10
2.85849
20
-2.30204
11
2.86099
21
-2.3146
0
LINE
8
BLACK
6
CONTINUOUS
10
2.86099
20
-2.3146
11
2.86099
21
-2.3274
0
LINE
8
BLACK
6
CONTINUOUS
10
2.86099
20
-2.3274
11
2.85849
21
-2.33996
0
LINE
8
BLACK
6
CONTINUOUS
10
2.85849
20
-2.33996
11
2.8536
21
-2.35179
0
LINE
8
BLACK
6
CONTINUOUS
10
2.8536
20
-2.35179
11
2.84648
21
-2.36243
0
LINE
8
BLACK
6
CONTINUOUS
10
2.84648
20
-2.36243
11
2.83743
21
-2.37148
0
LINE
8
BLACK
6
CONTINUOUS
10
2.83743
20
-2.37148
11
2.82679
21
-2.3786
0
LINE
8
BLACK
6
CONTINUOUS
10
2.82679
20
-2.3786
11
2.81496
21
-2.38349
0
LINE
8
BLACK
6
CONTINUOUS
10
2.81496
20
-2.38349
11
2.8024
21
-2.38599
0
LINE
8
BLACK
6
CONTINUOUS
10
2.8024
20
-2.38599
11
2.7896
21
-2.38599
0
LINE
8
BLACK
6
CONTINUOUS
10
2.7896
20
-2.38599
11
2.77704
21
-2.38349
0
LINE
8
BLACK
6
CONTINUOUS
10
2.77704
20
-2.38349
11
2.76521
21
-2.3786
0
LINE
8
BLACK
6
CONTINUOUS
10
2.76521
20
-2.3786
11
2.75457
21
-2.37148
0
LINE
8
BLACK
6
CONTINUOUS
10
2.75457
20
-2.37148
11
2.74552
21
-2.36243
0
LINE
8
BLACK
6
CONTINUOUS
10
2.74552
20
-2.36243
11
2.7384
21
-2.35179
0
LINE
8
BLACK
6
CONTINUOUS
10
2.7384
20
-2.35179
11
2.73351
21
-2.33996
0
LINE
8
BLACK
6
CONTINUOUS
10
2.73351
20
-2.33996
11
2.73101
21
-2.3274
0
LINE
8
BLACK
6
CONTINUOUS
10
2.73101
20
-2.3274
11
2.73101
21
-2.3146
0
LINE
8
BLACK
6
CONTINUOUS
10
2.73101
20
-2.3146
11
2.73351
21
-2.30204
0
LINE
8
BLACK
6
CONTINUOUS
10
2.73351
20
-2.30204
11
2.7384
21
-2.29021
0
LINE
8
BLACK
6
CONTINUOUS
10
2.7384
20
-2.29021
11
2.74552
21
-2.27957
0
LINE
8
BLACK
6
CONTINUOUS
10
2.74552
20
-2.27957
11
2.75457
21
-2.27052
0
LINE
8
BLACK
6
CONTINUOUS
10
2.75457
20
-2.27052
11
2.76521
21
-2.2634
0
LINE
8
BLACK
6
CONTINUOUS
10
2.76521
20
-2.2634
11
2.77704
21
-2.25851
0
LINE
8
BLACK
6
CONTINUOUS
10
2.77704
20
-2.25851
11
2.7896
21
-2.25601
0
LINE
8
BLACK
6
CONTINUOUS
10
2.7896
20
-2.25601
11
2.8024
21
-2.25601
0
LINE
8
BLACK
6
CONTINUOUS
10
2.8024
20
-2.25601
11
2.81496
21
-2.25851
0
LINE
8
BLACK
6
CONTINUOUS
10
3.42448
20
-2.31008
11
3.43058
21
-2.31261
0
LINE
8
BLACK
6
CONTINUOUS
10
3.43058
20
-2.31261
11
3.43606
21
-2.31627
0
LINE
8
BLACK
6
CONTINUOUS
10
3.43606
20
-2.31627
11
3.44073
21
-2.32094
0
LINE
8
BLACK
6
CONTINUOUS
10
3.44073
20
-2.32094
11
3.44439
21
-2.32642
0
LINE
8
BLACK
6
CONTINUOUS
10
3.44439
20
-2.32642
11
3.44692
21
-2.33252
0
LINE
8
BLACK
6
CONTINUOUS
10
3.44692
20
-2.33252
11
3.44821
21
-2.33899
0
LINE
8
BLACK
6
CONTINUOUS
10
3.44821
20
-2.33899
11
3.44821
21
-2.34559
0
LINE
8
BLACK
6
CONTINUOUS
10
3.44821
20
-2.34559
11
3.44692
21
-2.35206
0
LINE
8
BLACK
6
CONTINUOUS
10
3.44692
20
-2.35206
11
3.44439
21
-2.35816
0
LINE
8
BLACK
6
CONTINUOUS
10
3.44439
20
-2.35816
11
3.44073
21
-2.36364
0
LINE
8
BLACK
6
CONTINUOUS
10
3.44073
20
-2.36364
11
3.43606
21
-2.36831
0
LINE
8
BLACK
6
CONTINUOUS
10
3.43606
20
-2.36831
11
3.43058
21
-2.37197
0
LINE
8
BLACK
6
CONTINUOUS
10
3.43058
20
-2.37197
11
3.42448
21
-2.3745
0
LINE
8
BLACK
6
CONTINUOUS
10
3.42448
20
-2.3745
11
3.41801
21
-2.37579
0
LINE
8
BLACK
6
CONTINUOUS
10
3.41801
20
-2.37579
11
3.41141
21
-2.37579
0
LINE
8
BLACK
6
CONTINUOUS
10
3.41141
20
-2.37579
11
3.40494
21
-2.3745
0
LINE
8
BLACK
6
CONTINUOUS
10
3.40494
20
-2.3745
11
3.39884
21
-2.37197
0
LINE
8
BLACK
6
CONTINUOUS
10
3.39884
20
-2.37197
11
3.39336
21
-2.36831
0
LINE
8
BLACK
6
CONTINUOUS
10
3.39336
20
-2.36831
11
3.38869
21
-2.36364
0
LINE
8
BLACK
6
CONTINUOUS
10
3.38869
20
-2.36364
11
3.38503
21
-2.35816
0
LINE
8
BLACK
6
CONTINUOUS
10
3.38503
20
-2.35816
11
3.3825
21
-2.35206
0
LINE
8
BLACK
6
CONTINUOUS
10
3.3825
20
-2.35206
11
3.38121
21
-2.34559
0
LINE
8
BLACK
6
CONTINUOUS
10
3.38121
20
-2.34559
11
3.38121
21
-2.33899
0
LINE
8
BLACK
6
CONTINUOUS
10
3.38121
20
-2.33899
11
3.3825
21
-2.33252
0
LINE
8
BLACK
6
CONTINUOUS
10
3.3825
20
-2.33252
11
3.38503
21
-2.32642
0
LINE
8
BLACK
6
CONTINUOUS
10
3.38503
20
-2.32642
11
3.38869
21
-2.32094
0
LINE
8
BLACK
6
CONTINUOUS
10
3.38869
20
-2.32094
11
3.39336
21
-2.31627
0
LINE
8
BLACK
6
CONTINUOUS
10
3.39336
20
-2.31627
11
3.39884
21
-2.31261
0
LINE
8
BLACK
6
CONTINUOUS
10
3.39884
20
-2.31261
11
3.40494
21
-2.31008
0
LINE
8
BLACK
6
CONTINUOUS
10
3.40494
20
-2.31008
11
3.41141
21
-2.30879
0
LINE
8
BLACK
6
CONTINUOUS
10
3.41141
20
-2.30879
11
3.41801
21
-2.30879
0
LINE
8
BLACK
6
CONTINUOUS
10
3.41801
20
-2.30879
11
3.42448
21
-2.31008
0
LINE
8
BLACK
6
CONTINUOUS
10
3.28306
20
-2.31008
11
3.28916
21
-2.31261
0
LINE
8
BLACK
6
CONTINUOUS
10
3.28916
20
-2.31261
11
3.29464
21
-2.31627
0
LINE
8
BLACK
6
CONTINUOUS
10
3.29464
20
-2.31627
11
3.29931
21
-2.32094
0
LINE
8
BLACK
6
CONTINUOUS
10
3.29931
20
-2.32094
11
3.30297
21
-2.32642
0
LINE
8
BLACK
6
CONTINUOUS
10
3.30297
20
-2.32642
11
3.3055
21
-2.33252
0
LINE
8
BLACK
6
CONTINUOUS
10
3.3055
20
-2.33252
11
3.30679
21
-2.33899
0
LINE
8
BLACK
6
CONTINUOUS
10
3.30679
20
-2.33899
11
3.30679
21
-2.34559
0
LINE
8
BLACK
6
CONTINUOUS
10
3.30679
20
-2.34559
11
3.3055
21
-2.35206
0
LINE
8
BLACK
6
CONTINUOUS
10
3.3055
20
-2.35206
11
3.30297
21
-2.35816
0
LINE
8
BLACK
6
CONTINUOUS
10
3.30297
20
-2.35816
11
3.29931
21
-2.36364
0
LINE
8
BLACK
6
CONTINUOUS
10
3.29931
20
-2.36364
11
3.29464
21
-2.36831
0
LINE
8
BLACK
6
CONTINUOUS
10
3.29464
20
-2.36831
11
3.28916
21
-2.37197
0
LINE
8
BLACK
6
CONTINUOUS
10
3.28916
20
-2.37197
11
3.28306
21
-2.3745
0
LINE
8
BLACK
6
CONTINUOUS
10
3.28306
20
-2.3745
11
3.27659
21
-2.37579
0
LINE
8
BLACK
6
CONTINUOUS
10
3.27659
20
-2.37579
11
3.26999
21
-2.37579
0
LINE
8
BLACK
6
CONTINUOUS
10
3.26999
20
-2.37579
11
3.26352
21
-2.3745
0
LINE
8
BLACK
6
CONTINUOUS
10
3.26352
20
-2.3745
11
3.25742
21
-2.37197
0
LINE
8
BLACK
6
CONTINUOUS
10
3.25742
20
-2.37197
11
3.25194
21
-2.36831
0
LINE
8
BLACK
6
CONTINUOUS
10
3.25194
20
-2.36831
11
3.24727
21
-2.36364
0
LINE
8
BLACK
6
CONTINUOUS
10
3.24727
20
-2.36364
11
3.24361
21
-2.35816
0
LINE
8
BLACK
6
CONTINUOUS
10
3.24361
20
-2.35816
11
3.24108
21
-2.35206
0
LINE
8
BLACK
6
CONTINUOUS
10
3.24108
20
-2.35206
11
3.23979
21
-2.34559
0
LINE
8
BLACK
6
CONTINUOUS
10
3.23979
20
-2.34559
11
3.23979
21
-2.33899
0
LINE
8
BLACK
6
CONTINUOUS
10
3.23979
20
-2.33899
11
3.24108
21
-2.33252
0
LINE
8
BLACK
6
CONTINUOUS
10
3.24108
20
-2.33252
11
3.24361
21
-2.32642
0
LINE
8
BLACK
6
CONTINUOUS
10
3.24361
20
-2.32642
11
3.24727
21
-2.32094
0
LINE
8
BLACK
6
CONTINUOUS
10
3.24727
20
-2.32094
11
3.25194
21
-2.31627
0
LINE
8
BLACK
6
CONTINUOUS
10
3.25194
20
-2.31627
11
3.25742
21
-2.31261
0
LINE
8
BLACK
6
CONTINUOUS
10
3.25742
20
-2.31261
11
3.26352
21
-2.31008
0
LINE
8
BLACK
6
CONTINUOUS
10
3.26352
20
-2.31008
11
3.26999
21
-2.30879
0
LINE
8
BLACK
6
CONTINUOUS
10
3.26999
20
-2.30879
11
3.27659
21
-2.30879
0
LINE
8
BLACK
6
CONTINUOUS
10
3.27659
20
-2.30879
11
3.28306
21
-2.31008
0
LINE
8
BLACK
6
CONTINUOUS
10
1.39607
20
-2.25422
11
1.4036
21
-2.25734
0
LINE
8
BLACK
6
CONTINUOUS
10
1.4036
20
-2.25734
11
1.41037
21
-2.26187
0
LINE
8
BLACK
6
CONTINUOUS
10
1.41037
20
-2.26187
11
1.41613
21
-2.26763
0
LINE
8
BLACK
6
CONTINUOUS
10
1.41613
20
-2.26763
11
1.42066
21
-2.2744
0
LINE
8
BLACK
6
CONTINUOUS
10
1.42066
20
-2.2744
11
1.42378
21
-2.28193
0
LINE
8
BLACK
6
CONTINUOUS
10
1.42378
20
-2.28193
11
1.42537
21
-2.28993
0
LINE
8
BLACK
6
CONTINUOUS
10
1.42537
20
-2.28993
11
1.42537
21
-2.29807
0
LINE
8
BLACK
6
CONTINUOUS
10
1.42537
20
-2.29807
11
1.42378
21
-2.30607
0
LINE
8
BLACK
6
CONTINUOUS
10
1.42378
20
-2.30607
11
1.42066
21
-2.3136
0
LINE
8
BLACK
6
CONTINUOUS
10
1.42066
20
-2.3136
11
1.41613
21
-2.32037
0
LINE
8
BLACK
6
CONTINUOUS
10
1.41613
20
-2.32037
11
1.41037
21
-2.32613
0
LINE
8
BLACK
6
CONTINUOUS
10
1.41037
20
-2.32613
11
1.4036
21
-2.33066
0
LINE
8
BLACK
6
CONTINUOUS
10
1.4036
20
-2.33066
11
1.39607
21
-2.33378
0
LINE
8
BLACK
6
CONTINUOUS
10
1.39607
20
-2.33378
11
1.38807
21
-2.33537
0
LINE
8
BLACK
6
CONTINUOUS
10
1.38807
20
-2.33537
11
1.37993
21
-2.33537
0
LINE
8
BLACK
6
CONTINUOUS
10
1.37993
20
-2.33537
11
1.37193
21
-2.33378
0
LINE
8
BLACK
6
CONTINUOUS
10
1.37193
20
-2.33378
11
1.3644
21
-2.33066
0
LINE
8
BLACK
6
CONTINUOUS
10
1.3644
20
-2.33066
11
1.35763
21
-2.32613
0
LINE
8
BLACK
6
CONTINUOUS
10
1.35763
20
-2.32613
11
1.35187
21
-2.32037
0
LINE
8
BLACK
6
CONTINUOUS
10
1.35187
20
-2.32037
11
1.34734
21
-2.3136
0
LINE
8
BLACK
6
CONTINUOUS
10
1.34734
20
-2.3136
11
1.34422
21
-2.30607
0
LINE
8
BLACK
6
CONTINUOUS
10
1.34422
20
-2.30607
11
1.34263
21
-2.29807
0
LINE
8
BLACK
6
CONTINUOUS
10
1.34263
20
-2.29807
11
1.34263
21
-2.28993
0
LINE
8
BLACK
6
CONTINUOUS
10
1.34263
20
-2.28993
11
1.34422
21
-2.28193
0
LINE
8
BLACK
6
CONTINUOUS
10
1.34422
20
-2.28193
11
1.34734
21
-2.2744
0
LINE
8
BLACK
6
CONTINUOUS
10
1.34734
20
-2.2744
11
1.35187
21
-2.26763
0
LINE
8
BLACK
6
CONTINUOUS
10
1.35187
20
-2.26763
11
1.35763
21
-2.26187
0
LINE
8
BLACK
6
CONTINUOUS
10
1.35763
20
-2.26187
11
1.3644
21
-2.25734
0
LINE
8
BLACK
6
CONTINUOUS
10
1.3644
20
-2.25734
11
1.37193
21
-2.25422
0
LINE
8
BLACK
6
CONTINUOUS
10
1.37193
20
-2.25422
11
1.37993
21
-2.25263
0
LINE
8
BLACK
6
CONTINUOUS
10
1.37993
20
-2.25263
11
1.38807
21
-2.25263
0
LINE
8
BLACK
6
CONTINUOUS
10
1.38807
20
-2.25263
11
1.39607
21
-2.25422
0
LINE
8
BLACK
6
CONTINUOUS
10
1.52537
20
-2.33537
11
1.44263
21
-2.33537
0
LINE
8
BLACK
6
CONTINUOUS
10
1.44263
20
-2.33537
11
1.44263
21
-2.25263
0
LINE
8
BLACK
6
CONTINUOUS
10
1.44263
20
-2.25263
11
1.52537
21
-2.25263
0
LINE
8
BLACK
6
CONTINUOUS
10
1.52537
20
-2.25263
11
1.52537
21
-2.33537
0
LINE
8
BLACK
6
CONTINUOUS
10
3.06834
20
-2.2309
11
3.0748
21
-2.23357
0
LINE
8
BLACK
6
CONTINUOUS
10
3.0748
20
-2.23357
11
3.08061
21
-2.23745
0
LINE
8
BLACK
6
CONTINUOUS
10
3.08061
20
-2.23745
11
3.08555
21
-2.24239
0
LINE
8
BLACK
6
CONTINUOUS
10
3.08555
20
-2.24239
11
3.08943
21
-2.2482
0
LINE
8
BLACK
6
CONTINUOUS
10
3.08943
20
-2.2482
11
3.0921
21
-2.25466
0
LINE
8
BLACK
6
CONTINUOUS
10
3.0921
20
-2.25466
11
3.09346
21
-2.26151
0
LINE
8
BLACK
6
CONTINUOUS
10
3.09346
20
-2.26151
11
3.09346
21
-2.26849
0
LINE
8
BLACK
6
CONTINUOUS
10
3.09346
20
-2.26849
11
3.0921
21
-2.27534
0
LINE
8
BLACK
6
CONTINUOUS
10
3.0921
20
-2.27534
11
3.08943
21
-2.2818
0
LINE
8
BLACK
6
CONTINUOUS
10
3.08943
20
-2.2818
11
3.08555
21
-2.28761
0
LINE
8
BLACK
6
CONTINUOUS
10
3.08555
20
-2.28761
11
3.08061
21
-2.29255
0
LINE
8
BLACK
6
CONTINUOUS
10
3.08061
20
-2.29255
11
3.0748
21
-2.29643
0
LINE
8
BLACK
6
CONTINUOUS
10
3.0748
20
-2.29643
11
3.06834
21
-2.2991
0
LINE
8
BLACK
6
CONTINUOUS
10
3.06834
20
-2.2991
11
3.06149
21
-2.30046
0
LINE
8
BLACK
6
CONTINUOUS
10
3.06149
20
-2.30046
11
3.05451
21
-2.30046
0
LINE
8
BLACK
6
CONTINUOUS
10
3.05451
20
-2.30046
11
3.04766
21
-2.2991
0
LINE
8
BLACK
6
CONTINUOUS
10
3.04766
20
-2.2991
11
3.0412
21
-2.29643
0
LINE
8
BLACK
6
CONTINUOUS
10
3.0412
20
-2.29643
11
3.03539
21
-2.29255
0
LINE
8
BLACK
6
CONTINUOUS
10
3.03539
20
-2.29255
11
3.03045
21
-2.28761
0
LINE
8
BLACK
6
CONTINUOUS
10
3.03045
20
-2.28761
11
3.02657
21
-2.2818
0
LINE
8
BLACK
6
CONTINUOUS
10
3.02657
20
-2.2818
11
3.0239
21
-2.27534
0
LINE
8
BLACK
6
CONTINUOUS
10
3.0239
20
-2.27534
11
3.02254
21
-2.26849
0
LINE
8
BLACK
6
CONTINUOUS
10
3.02254
20
-2.26849
11
3.02254
21
-2.26151
0
LINE
8
BLACK
6
CONTINUOUS
10
3.02254
20
-2.26151
11
3.0239
21
-2.25466
0
LINE
8
BLACK
6
CONTINUOUS
10
3.0239
20
-2.25466
11
3.02657
21
-2.2482
0
LINE
8
BLACK
6
CONTINUOUS
10
3.02657
20
-2.2482
11
3.03045
21
-2.24239
0
LINE
8
BLACK
6
CONTINUOUS
10
3.03045
20
-2.24239
11
3.03539
21
-2.23745
0
LINE
8
BLACK
6
CONTINUOUS
10
3.03539
20
-2.23745
11
3.0412
21
-2.23357
0
LINE
8
BLACK
6
CONTINUOUS
10
3.0412
20
-2.23357
11
3.04766
21
-2.2309
0
LINE
8
BLACK
6
CONTINUOUS
10
3.04766
20
-2.2309
11
3.05451
21
-2.22954
0
LINE
8
BLACK
6
CONTINUOUS
10
3.05451
20
-2.22954
11
3.06149
21
-2.22954
0
LINE
8
BLACK
6
CONTINUOUS
10
3.06149
20
-2.22954
11
3.06834
21
-2.2309
0
LINE
8
BLACK
6
CONTINUOUS
10
1.7712
20
-2.20868
11
1.77693
21
-2.21106
0
LINE
8
BLACK
6
CONTINUOUS
10
1.77693
20
-2.21106
11
1.7821
21
-2.21451
0
LINE
8
BLACK
6
CONTINUOUS
10
1.7821
20
-2.21451
11
1.78649
21
-2.2189
0
LINE
8
BLACK
6
CONTINUOUS
10
1.78649
20
-2.2189
11
1.78994
21
-2.22407
0
LINE
8
BLACK
6
CONTINUOUS
10
1.78994
20
-2.22407
11
1.79232
21
-2.2298
0
LINE
8
BLACK
6
CONTINUOUS
10
1.79232
20
-2.2298
11
1.79353
21
-2.23589
0
LINE
8
BLACK
6
CONTINUOUS
10
1.79353
20
-2.23589
11
1.79353
21
-2.24211
0
LINE
8
BLACK
6
CONTINUOUS
10
1.79353
20
-2.24211
11
1.79232
21
-2.2482
0
LINE
8
BLACK
6
CONTINUOUS
10
1.79232
20
-2.2482
11
1.78994
21
-2.25393
0
LINE
8
BLACK
6
CONTINUOUS
10
1.78994
20
-2.25393
11
1.78649
21
-2.2591
0
LINE
8
BLACK
6
CONTINUOUS
10
1.78649
20
-2.2591
11
1.7821
21
-2.26349
0
LINE
8
BLACK
6
CONTINUOUS
10
1.7821
20
-2.26349
11
1.77693
21
-2.26694
0
LINE
8
BLACK
6
CONTINUOUS
10
1.77693
20
-2.26694
11
1.7712
21
-2.26932
0
LINE
8
BLACK
6
CONTINUOUS
10
1.7712
20
-2.26932
11
1.76511
21
-2.27053
0
LINE
8
BLACK
6
CONTINUOUS
10
1.76511
20
-2.27053
11
1.75889
21
-2.27053
0
LINE
8
BLACK
6
CONTINUOUS
10
1.75889
20
-2.27053
11
1.7528
21
-2.26932
0
LINE
8
BLACK
6
CONTINUOUS
10
1.7528
20
-2.26932
11
1.74707
21
-2.26694
0
LINE
8
BLACK
6
CONTINUOUS
10
1.74707
20
-2.26694
11
1.7419
21
-2.26349
0
LINE
8
BLACK
6
CONTINUOUS
10
1.7419
20
-2.26349
11
1.73751
21
-2.2591
0
LINE
8
BLACK
6
CONTINUOUS
10
1.73751
20
-2.2591
11
1.73406
21
-2.25393
0
LINE
8
BLACK
6
CONTINUOUS
10
1.73406
20
-2.25393
11
1.73168
21
-2.2482
0
LINE
8
BLACK
6
CONTINUOUS
10
1.73168
20
-2.2482
11
1.73047
21
-2.24211
0
LINE
8
BLACK
6
CONTINUOUS
10
1.73047
20
-2.24211
11
1.73047
21
-2.23589
0
LINE
8
BLACK
6
CONTINUOUS
10
1.73047
20
-2.23589
11
1.73168
21
-2.2298
0
LINE
8
BLACK
6
CONTINUOUS
10
1.73168
20
-2.2298
11
1.73406
21
-2.22407
0
LINE
8
BLACK
6
CONTINUOUS
10
1.73406
20
-2.22407
11
1.73751
21
-2.2189
0
LINE
8
BLACK
6
CONTINUOUS
10
1.73751
20
-2.2189
11
1.7419
21
-2.21451
0
LINE
8
BLACK
6
CONTINUOUS
10
1.7419
20
-2.21451
11
1.74707
21
-2.21106
0
LINE
8
BLACK
6
CONTINUOUS
10
1.74707
20
-2.21106
11
1.7528
21
-2.20868
0
LINE
8
BLACK
6
CONTINUOUS
10
1.7528
20
-2.20868
11
1.75889
21
-2.20747
0
LINE
8
BLACK
6
CONTINUOUS
10
1.75889
20
-2.20747
11
1.76511
21
-2.20747
0
LINE
8
BLACK
6
CONTINUOUS
10
1.76511
20
-2.20747
11
1.7712
21
-2.20868
0
LINE
8
BLACK
6
CONTINUOUS
10
1.9712
20
-2.20868
11
1.97693
21
-2.21106
0
LINE
8
BLACK
6
CONTINUOUS
10
1.97693
20
-2.21106
11
1.9821
21
-2.21451
0
LINE
8
BLACK
6
CONTINUOUS
10
1.9821
20
-2.21451
11
1.98649
21
-2.2189
0
LINE
8
BLACK
6
CONTINUOUS
10
1.98649
20
-2.2189
11
1.98994
21
-2.22407
0
LINE
8
BLACK
6
CONTINUOUS
10
1.98994
20
-2.22407
11
1.99232
21
-2.2298
0
LINE
8
BLACK
6
CONTINUOUS
10
1.99232
20
-2.2298
11
1.99353
21
-2.23589
0
LINE
8
BLACK
6
CONTINUOUS
10
1.99353
20
-2.23589
11
1.99353
21
-2.24211
0
LINE
8
BLACK
6
CONTINUOUS
10
1.99353
20
-2.24211
11
1.99232
21
-2.2482
0
LINE
8
BLACK
6
CONTINUOUS
10
1.99232
20
-2.2482
11
1.98994
21
-2.25393
0
LINE
8
BLACK
6
CONTINUOUS
10
1.98994
20
-2.25393
11
1.98649
21
-2.2591
0
LINE
8
BLACK
6
CONTINUOUS
10
1.98649
20
-2.2591
11
1.9821
21
-2.26349
0
LINE
8
BLACK
6
CONTINUOUS
10
1.9821
20
-2.26349
11
1.97693
21
-2.26694
0
LINE
8
BLACK
6
CONTINUOUS
10
1.97693
20
-2.26694
11
1.9712
21
-2.26932
0
LINE
8
BLACK
6
CONTINUOUS
10
1.9712
20
-2.26932
11
1.96511
21
-2.27053
0
LINE
8
BLACK
6
CONTINUOUS
10
1.96511
20
-2.27053
11
1.95889
21
-2.27053
0
LINE
8
BLACK
6
CONTINUOUS
10
1.95889
20
-2.27053
11
1.9528
21
-2.26932
0
LINE
8
BLACK
6
CONTINUOUS
10
1.9528
20
-2.26932
11
1.94707
21
-2.26694
0
LINE
8
BLACK
6
CONTINUOUS
10
1.94707
20
-2.26694
11
1.9419
21
-2.26349
0
LINE
8
BLACK
6
CONTINUOUS
10
1.9419
20
-2.26349
11
1.93751
21
-2.2591
0
LINE
8
BLACK
6
CONTINUOUS
10
1.93751
20
-2.2591
11
1.93406
21
-2.25393
0
LINE
8
BLACK
6
CONTINUOUS
10
1.93406
20
-2.25393
11
1.93168
21
-2.2482
0
LINE
8
BLACK
6
CONTINUOUS
10
1.93168
20
-2.2482
11
1.93047
21
-2.24211
0
LINE
8
BLACK
6
CONTINUOUS
10
1.93047
20
-2.24211
11
1.93047
21
-2.23589
0
LINE
8
BLACK
6
CONTINUOUS
10
1.93047
20
-2.23589
11
1.93168
21
-2.2298
0
LINE
8
BLACK
6
CONTINUOUS
10
1.93168
20
-2.2298
11
1.93406
21
-2.22407
0
LINE
8
BLACK
6
CONTINUOUS
10
1.93406
20
-2.22407
11
1.93751
21
-2.2189
0
LINE
8
BLACK
6
CONTINUOUS
10
1.93751
20
-2.2189
11
1.9419
21
-2.21451
0
LINE
8
BLACK
6
CONTINUOUS
10
1.9419
20
-2.21451
11
1.94707
21
-2.21106
0
LINE
8
BLACK
6
CONTINUOUS
10
1.94707
20
-2.21106
11
1.9528
21
-2.20868
0
LINE
8
BLACK
6
CONTINUOUS
10
1.9528
20
-2.20868
11
1.95889
21
-2.20747
0
LINE
8
BLACK
6
CONTINUOUS
10
1.95889
20
-2.20747
11
1.96511
21
-2.20747
0
LINE
8
BLACK
6
CONTINUOUS
10
1.96511
20
-2.20747
11
1.9712
21
-2.20868
0
LINE
8
BLACK
6
CONTINUOUS
10
1.8712
20
-2.20868
11
1.87693
21
-2.21106
0
LINE
8
BLACK
6
CONTINUOUS
10
1.87693
20
-2.21106
11
1.8821
21
-2.21451
0
LINE
8
BLACK
6
CONTINUOUS
10
1.8821
20
-2.21451
11
1.88649
21
-2.2189
0
LINE
8
BLACK
6
CONTINUOUS
10
1.88649
20
-2.2189
11
1.88994
21
-2.22407
0
LINE
8
BLACK
6
CONTINUOUS
10
1.88994
20
-2.22407
11
1.89232
21
-2.2298
0
LINE
8
BLACK
6
CONTINUOUS
10
1.89232
20
-2.2298
11
1.89353
21
-2.23589
0
LINE
8
BLACK
6
CONTINUOUS
10
1.89353
20
-2.23589
11
1.89353
21
-2.24211
0
LINE
8
BLACK
6
CONTINUOUS
10
1.89353
20
-2.24211
11
1.89232
21
-2.2482
0
LINE
8
BLACK
6
CONTINUOUS
10
1.89232
20
-2.2482
11
1.88994
21
-2.25393
0
LINE
8
BLACK
6
CONTINUOUS
10
1.88994
20
-2.25393
11
1.88649
21
-2.2591
0
LINE
8
BLACK
6
CONTINUOUS
10
1.88649
20
-2.2591
11
1.8821
21
-2.26349
0
LINE
8
BLACK
6
CONTINUOUS
10
1.8821
20
-2.26349
11
1.87693
21
-2.26694
0
LINE
8
BLACK
6
CONTINUOUS
10
1.87693
20
-2.26694
11
1.8712
21
-2.26932
0
LINE
8
BLACK
6
CONTINUOUS
10
1.8712
20
-2.26932
11
1.86511
21
-2.27053
0
LINE
8
BLACK
6
CONTINUOUS
10
1.86511
20
-2.27053
11
1.85889
21
-2.27053
0
LINE
8
BLACK
6
CONTINUOUS
10
1.85889
20
-2.27053
11
1.8528
21
-2.26932
0
LINE
8
BLACK
6
CONTINUOUS
10
1.8528
20
-2.26932
11
1.84707
21
-2.26694
0
LINE
8
BLACK
6
CONTINUOUS
10
1.84707
20
-2.26694
11
1.8419
21
-2.26349
0
LINE
8
BLACK
6
CONTINUOUS
10
1.8419
20
-2.26349
11
1.83751
21
-2.2591
0
LINE
8
BLACK
6
CONTINUOUS
10
1.83751
20
-2.2591
11
1.83406
21
-2.25393
0
LINE
8
BLACK
6
CONTINUOUS
10
1.83406
20
-2.25393
11
1.83168
21
-2.2482
0
LINE
8
BLACK
6
CONTINUOUS
10
1.83168
20
-2.2482
11
1.83047
21
-2.24211
0
LINE
8
BLACK
6
CONTINUOUS
10
1.83047
20
-2.24211
11
1.83047
21
-2.23589
0
LINE
8
BLACK
6
CONTINUOUS
10
1.83047
20
-2.23589
11
1.83168
21
-2.2298
0
LINE
8
BLACK
6
CONTINUOUS
10
1.83168
20
-2.2298
11
1.83406
21
-2.22407
0
LINE
8
BLACK
6
CONTINUOUS
10
1.83406
20
-2.22407
11
1.83751
21
-2.2189
0
LINE
8
BLACK
6
CONTINUOUS
10
1.83751
20
-2.2189
11
1.8419
21
-2.21451
0
LINE
8
BLACK
6
CONTINUOUS
10
1.8419
20
-2.21451
11
1.84707
21
-2.21106
0
LINE
8
BLACK
6
CONTINUOUS
10
1.84707
20
-2.21106
11
1.8528
21
-2.20868
0
LINE
8
BLACK
6
CONTINUOUS
10
1.8528
20
-2.20868
11
1.85889
21
-2.20747
0
LINE
8
BLACK
6
CONTINUOUS
10
1.85889
20
-2.20747
11
1.86511
21
-2.20747
0
LINE
8
BLACK
6
CONTINUOUS
10
1.86511
20
-2.20747
11
1.8712
21
-2.20868
0
LINE
8
BLACK
6
CONTINUOUS
10
2.0712
20
-2.20868
11
2.07693
21
-2.21106
0
LINE
8
BLACK
6
CONTINUOUS
10
2.07693
20
-2.21106
11
2.0821
21
-2.21451
0
LINE
8
BLACK
6
CONTINUOUS
10
2.0821
20
-2.21451
11
2.08649
21
-2.2189
0
LINE
8
BLACK
6
CONTINUOUS
10
2.08649
20
-2.2189
11
2.08994
21
-2.22407
0
LINE
8
BLACK
6
CONTINUOUS
10
2.08994
20
-2.22407
11
2.09232
21
-2.2298
0
LINE
8
BLACK
6
CONTINUOUS
10
2.09232
20
-2.2298
11
2.09353
21
-2.23589
0
LINE
8
BLACK
6
CONTINUOUS
10
2.09353
20
-2.23589
11
2.09353
21
-2.24211
0
LINE
8
BLACK
6
CONTINUOUS
10
2.09353
20
-2.24211
11
2.09232
21
-2.2482
0
LINE
8
BLACK
6
CONTINUOUS
10
2.09232
20
-2.2482
11
2.08994
21
-2.25393
0
LINE
8
BLACK
6
CONTINUOUS
10
2.08994
20
-2.25393
11
2.08649
21
-2.2591
0
LINE
8
BLACK
6
CONTINUOUS
10
2.08649
20
-2.2591
11
2.0821
21
-2.26349
0
LINE
8
BLACK
6
CONTINUOUS
10
2.0821
20
-2.26349
11
2.07693
21
-2.26694
0
LINE
8
BLACK
6
CONTINUOUS
10
2.07693
20
-2.26694
11
2.0712
21
-2.26932
0
LINE
8
BLACK
6
CONTINUOUS
10
2.0712
20
-2.26932
11
2.06511
21
-2.27053
0
LINE
8
BLACK
6
CONTINUOUS
10
2.06511
20
-2.27053
11
2.05889
21
-2.27053
0
LINE
8
BLACK
6
CONTINUOUS
10
2.05889
20
-2.27053
11
2.0528
21
-2.26932
0
LINE
8
BLACK
6
CONTINUOUS
10
2.0528
20
-2.26932
11
2.04707
21
-2.26694
0
LINE
8
BLACK
6
CONTINUOUS
10
2.04707
20
-2.26694
11
2.0419
21
-2.26349
0
LINE
8
BLACK
6
CONTINUOUS
10
2.0419
20
-2.26349
11
2.03751
21
-2.2591
0
LINE
8
BLACK
6
CONTINUOUS
10
2.03751
20
-2.2591
11
2.03406
21
-2.25393
0
LINE
8
BLACK
6
CONTINUOUS
10
2.03406
20
-2.25393
11
2.03168
21
-2.2482
0
LINE
8
BLACK
6
CONTINUOUS
10
2.03168
20
-2.2482
11
2.03047
21
-2.24211
0
LINE
8
BLACK
6
CONTINUOUS
10
2.03047
20
-2.24211
11
2.03047
21
-2.23589
0
LINE
8
BLACK
6
CONTINUOUS
10
2.03047
20
-2.23589
11
2.03168
21
-2.2298
0
LINE
8
BLACK
6
CONTINUOUS
10
2.03168
20
-2.2298
11
2.03406
21
-2.22407
0
LINE
8
BLACK
6
CONTINUOUS
10
2.03406
20
-2.22407
11
2.03751
21
-2.2189
0
LINE
8
BLACK
6
CONTINUOUS
10
2.03751
20
-2.2189
11
2.0419
21
-2.21451
0
LINE
8
BLACK
6
CONTINUOUS
10
2.0419
20
-2.21451
11
2.04707
21
-2.21106
0
LINE
8
BLACK
6
CONTINUOUS
10
2.04707
20
-2.21106
11
2.0528
21
-2.20868
0
LINE
8
BLACK
6
CONTINUOUS
10
2.0528
20
-2.20868
11
2.05889
21
-2.20747
0
LINE
8
BLACK
6
CONTINUOUS
10
2.05889
20
-2.20747
11
2.06511
21
-2.20747
0
LINE
8
BLACK
6
CONTINUOUS
10
2.06511
20
-2.20747
11
2.0712
21
-2.20868
0
LINE
8
BLACK
6
CONTINUOUS
10
2.61162
20
-2.19658
11
2.617
21
-2.19881
0
LINE
8
BLACK
6
CONTINUOUS
10
2.617
20
-2.19881
11
2.62184
21
-2.20204
0
LINE
8
BLACK
6
CONTINUOUS
10
2.62184
20
-2.20204
11
2.62596
21
-2.20616
0
LINE
8
BLACK
6
CONTINUOUS
10
2.62596
20
-2.20616
11
2.62919
21
-2.211
0
LINE
8
BLACK
6
CONTINUOUS
10
2.62919
20
-2.211
11
2.63142
21
-2.21638
0
LINE
8
BLACK
6
CONTINUOUS
10
2.63142
20
-2.21638
11
2.63256
21
-2.22209
0
LINE
8
BLACK
6
CONTINUOUS
10
2.63256
20
-2.22209
11
2.63256
21
-2.22791
0
LINE
8
BLACK
6
CONTINUOUS
10
2.63256
20
-2.22791
11
2.63142
21
-2.23362
0
LINE
8
BLACK
6
CONTINUOUS
10
2.63142
20
-2.23362
11
2.62919
21
-2.239
0
LINE
8
BLACK
6
CONTINUOUS
10
2.62919
20
-2.239
11
2.62596
21
-2.24384
0
LINE
8
BLACK
6
CONTINUOUS
10
2.62596
20
-2.24384
11
2.62184
21
-2.24796
0
LINE
8
BLACK
6
CONTINUOUS
10
2.62184
20
-2.24796
11
2.617
21
-2.25119
0
LINE
8
BLACK
6
CONTINUOUS
10
2.617
20
-2.25119
11
2.61162
21
-2.25342
0
LINE
8
BLACK
6
CONTINUOUS
10
2.61162
20
-2.25342
11
2.60591
21
-2.25456
0
LINE
8
BLACK
6
CONTINUOUS
10
2.60591
20
-2.25456
11
2.60009
21
-2.25456
0
LINE
8
BLACK
6
CONTINUOUS
10
2.60009
20
-2.25456
11
2.59438
21
-2.25342
0
LINE
8
BLACK
6
CONTINUOUS
10
2.59438
20
-2.25342
11
2.589
21
-2.25119
0
LINE
8
BLACK
6
CONTINUOUS
10
2.589
20
-2.25119
11
2.58416
21
-2.24796
0
LINE
8
BLACK
6
CONTINUOUS
10
2.58416
20
-2.24796
11
2.58004
21
-2.24384
0
LINE
8
BLACK
6
CONTINUOUS
10
2.58004
20
-2.24384
11
2.57681
21
-2.239
0
LINE
8
BLACK
6
CONTINUOUS
10
2.57681
20
-2.239
11
2.57458
21
-2.23362
0
LINE
8
BLACK
6
CONTINUOUS
10
2.57458
20
-2.23362
11
2.57344
21
-2.22791
0
LINE
8
BLACK
6
CONTINUOUS
10
2.57344
20
-2.22791
11
2.57344
21
-2.22209
0
LINE
8
BLACK
6
CONTINUOUS
10
2.57344
20
-2.22209
11
2.57458
21
-2.21638
0
LINE
8
BLACK
6
CONTINUOUS
10
2.57458
20
-2.21638
11
2.57681
21
-2.211
0
LINE
8
BLACK
6
CONTINUOUS
10
2.57681
20
-2.211
11
2.58004
21
-2.20616
0
LINE
8
BLACK
6
CONTINUOUS
10
2.58004
20
-2.20616
11
2.58416
21
-2.20204
0
LINE
8
BLACK
6
CONTINUOUS
10
2.58416
20
-2.20204
11
2.589
21
-2.19881
0
LINE
8
BLACK
6
CONTINUOUS
10
2.589
20
-2.19881
11
2.59438
21
-2.19658
0
LINE
8
BLACK
6
CONTINUOUS
10
2.59438
20
-2.19658
11
2.60009
21
-2.19544
0
LINE
8
BLACK
6
CONTINUOUS
10
2.60009
20
-2.19544
11
2.60591
21
-2.19544
0
LINE
8
BLACK
6
CONTINUOUS
10
2.60591
20
-2.19544
11
2.61162
21
-2.19658
0
LINE
8
BLACK
6
CONTINUOUS
10
2.51162
20
-2.19458
11
2.517
21
-2.19681
0
LINE
8
BLACK
6
CONTINUOUS
10
2.517
20
-2.19681
11
2.52184
21
-2.20004
0
LINE
8
BLACK
6
CONTINUOUS
10
2.52184
20
-2.20004
11
2.52596
21
-2.20416
0
LINE
8
BLACK
6
CONTINUOUS
10
2.52596
20
-2.20416
11
2.52919
21
-2.209
0
LINE
8
BLACK
6
CONTINUOUS
10
2.52919
20
-2.209
11
2.53142
21
-2.21438
0
LINE
8
BLACK
6
CONTINUOUS
10
2.53142
20
-2.21438
11
2.53256
21
-2.22009
0
LINE
8
BLACK
6
CONTINUOUS
10
2.53256
20
-2.22009
11
2.53256
21
-2.22591
0
LINE
8
BLACK
6
CONTINUOUS
10
2.53256
20
-2.22591
11
2.53142
21
-2.23162
0
LINE
8
BLACK
6
CONTINUOUS
10
2.53142
20
-2.23162
11
2.52919
21
-2.237
0
LINE
8
BLACK
6
CONTINUOUS
10
2.52919
20
-2.237
11
2.52596
21
-2.24184
0
LINE
8
BLACK
6
CONTINUOUS
10
2.52596
20
-2.24184
11
2.52184
21
-2.24596
0
LINE
8
BLACK
6
CONTINUOUS
10
2.52184
20
-2.24596
11
2.517
21
-2.24919
0
LINE
8
BLACK
6
CONTINUOUS
10
2.517
20
-2.24919
11
2.51162
21
-2.25142
0
LINE
8
BLACK
6
CONTINUOUS
10
2.51162
20
-2.25142
11
2.50591
21
-2.25256
0
LINE
8
BLACK
6
CONTINUOUS
10
2.50591
20
-2.25256
11
2.50009
21
-2.25256
0
LINE
8
BLACK
6
CONTINUOUS
10
2.50009
20
-2.25256
11
2.49438
21
-2.25142
0
LINE
8
BLACK
6
CONTINUOUS
10
2.49438
20
-2.25142
11
2.489
21
-2.24919
0
LINE
8
BLACK
6
CONTINUOUS
10
2.489
20
-2.24919
11
2.48416
21
-2.24596
0
LINE
8
BLACK
6
CONTINUOUS
10
2.48416
20
-2.24596
11
2.48004
21
-2.24184
0
LINE
8
BLACK
6
CONTINUOUS
10
2.48004
20
-2.24184
11
2.47681
21
-2.237
0
LINE
8
BLACK
6
CONTINUOUS
10
2.47681
20
-2.237
11
2.47458
21
-2.23162
0
LINE
8
BLACK
6
CONTINUOUS
10
2.47458
20
-2.23162
11
2.47344
21
-2.22591
0
LINE
8
BLACK
6
CONTINUOUS
10
2.47344
20
-2.22591
11
2.47344
21
-2.22009
0
LINE
8
BLACK
6
CONTINUOUS
10
2.47344
20
-2.22009
11
2.47458
21
-2.21438
0
LINE
8
BLACK
6
CONTINUOUS
10
2.47458
20
-2.21438
11
2.47681
21
-2.209
0
LINE
8
BLACK
6
CONTINUOUS
10
2.47681
20
-2.209
11
2.48004
21
-2.20416
0
LINE
8
BLACK
6
CONTINUOUS
10
2.48004
20
-2.20416
11
2.48416
21
-2.20004
0
LINE
8
BLACK
6
CONTINUOUS
10
2.48416
20
-2.20004
11
2.489
21
-2.19681
0
LINE
8
BLACK
6
CONTINUOUS
10
2.489
20
-2.19681
11
2.49438
21
-2.19458
0
LINE
8
BLACK
6
CONTINUOUS
10
2.49438
20
-2.19458
11
2.50009
21
-2.19344
0
LINE
8
BLACK
6
CONTINUOUS
10
2.50009
20
-2.19344
11
2.50591
21
-2.19344
0
LINE
8
BLACK
6
CONTINUOUS
10
2.50591
20
-2.19344
11
2.51162
21
-2.19458
0
LINE
8
BLACK
6
CONTINUOUS
10
2.41562
20
-2.19258
11
2.421
21
-2.19481
0
LINE
8
BLACK
6
CONTINUOUS
10
2.421
20
-2.19481
11
2.42584
21
-2.19804
0
LINE
8
BLACK
6
CONTINUOUS
10
2.42584
20
-2.19804
11
2.42996
21
-2.20216
0
LINE
8
BLACK
6
CONTINUOUS
10
2.42996
20
-2.20216
11
2.43319
21
-2.207
0
LINE
8
BLACK
6
CONTINUOUS
10
2.43319
20
-2.207
11
2.43542
21
-2.21238
0
LINE
8
BLACK
6
CONTINUOUS
10
2.43542
20
-2.21238
11
2.43656
21
-2.21809
0
LINE
8
BLACK
6
CONTINUOUS
10
2.43656
20
-2.21809
11
2.43656
21
-2.22391
0
LINE
8
BLACK
6
CONTINUOUS
10
2.43656
20
-2.22391
11
2.43542
21
-2.22962
0
LINE
8
BLACK
6
CONTINUOUS
10
2.43542
20
-2.22962
11
2.43319
21
-2.235
0
LINE
8
BLACK
6
CONTINUOUS
10
2.43319
20
-2.235
11
2.42996
21
-2.23984
0
LINE
8
BLACK
6
CONTINUOUS
10
2.42996
20
-2.23984
11
2.42584
21
-2.24396
0
LINE
8
BLACK
6
CONTINUOUS
10
2.42584
20
-2.24396
11
2.421
21
-2.24719
0
LINE
8
BLACK
6
CONTINUOUS
10
2.421
20
-2.24719
11
2.41562
21
-2.24942
0
LINE
8
BLACK
6
CONTINUOUS
10
2.41562
20
-2.24942
11
2.40991
21
-2.25056
0
LINE
8
BLACK
6
CONTINUOUS
10
2.40991
20
-2.25056
11
2.40409
21
-2.25056
0
LINE
8
BLACK
6
CONTINUOUS
10
2.40409
20
-2.25056
11
2.39838
21
-2.24942
0
LINE
8
BLACK
6
CONTINUOUS
10
2.39838
20
-2.24942
11
2.393
21
-2.24719
0
LINE
8
BLACK
6
CONTINUOUS
10
2.393
20
-2.24719
11
2.38816
21
-2.24396
0
LINE
8
BLACK
6
CONTINUOUS
10
2.38816
20
-2.24396
11
2.38404
21
-2.23984
0
LINE
8
BLACK
6
CONTINUOUS
10
2.38404
20
-2.23984
11
2.38081
21
-2.235
0
LINE
8
BLACK
6
CONTINUOUS
10
2.38081
20
-2.235
11
2.37858
21
-2.22962
0
LINE
8
BLACK
6
CONTINUOUS
10
2.37858
20
-2.22962
11
2.37744
21
-2.22391
0
LINE
8
BLACK
6
CONTINUOUS
10
2.37744
20
-2.22391
11
2.37744
21
-2.21809
0
LINE
8
BLACK
6
CONTINUOUS
10
2.37744
20
-2.21809
11
2.37858
21
-2.21238
0
LINE
8
BLACK
6
CONTINUOUS
10
2.37858
20
-2.21238
11
2.38081
21
-2.207
0
LINE
8
BLACK
6
CONTINUOUS
10
2.38081
20
-2.207
11
2.38404
21
-2.20216
0
LINE
8
BLACK
6
CONTINUOUS
10
2.38404
20
-2.20216
11
2.38816
21
-2.19804
0
LINE
8
BLACK
6
CONTINUOUS
10
2.38816
20
-2.19804
11
2.393
21
-2.19481
0
LINE
8
BLACK
6
CONTINUOUS
10
2.393
20
-2.19481
11
2.39838
21
-2.19258
0
LINE
8
BLACK
6
CONTINUOUS
10
2.39838
20
-2.19258
11
2.40409
21
-2.19144
0
LINE
8
BLACK
6
CONTINUOUS
10
2.40409
20
-2.19144
11
2.40991
21
-2.19144
0
LINE
8
BLACK
6
CONTINUOUS
10
2.40991
20
-2.19144
11
2.41562
21
-2.19258
0
LINE
8
BLACK
6
CONTINUOUS
10
2.31162
20
-2.19058
11
2.317
21
-2.19281
0
LINE
8
BLACK
6
CONTINUOUS
10
2.317
20
-2.19281
11
2.32184
21
-2.19604
0
LINE
8
BLACK
6
CONTINUOUS
10
2.32184
20
-2.19604
11
2.32596
21
-2.20016
0
LINE
8
BLACK
6
CONTINUOUS
10
2.32596
20
-2.20016
11
2.32919
21
-2.205
0
LINE
8
BLACK
6
CONTINUOUS
10
2.32919
20
-2.205
11
2.33142
21
-2.21038
0
LINE
8
BLACK
6
CONTINUOUS
10
2.33142
20
-2.21038
11
2.33256
21
-2.21609
0
LINE
8
BLACK
6
CONTINUOUS
10
2.33256
20
-2.21609
11
2.33256
21
-2.22191
0
LINE
8
BLACK
6
CONTINUOUS
10
2.33256
20
-2.22191
11
2.33142
21
-2.22762
0
LINE
8
BLACK
6
CONTINUOUS
10
2.33142
20
-2.22762
11
2.32919
21
-2.233
0
LINE
8
BLACK
6
CONTINUOUS
10
2.32919
20
-2.233
11
2.32596
21
-2.23784
0
LINE
8
BLACK
6
CONTINUOUS
10
2.32596
20
-2.23784
11
2.32184
21
-2.24196
0
LINE
8
BLACK
6
CONTINUOUS
10
2.32184
20
-2.24196
11
2.317
21
-2.24519
0
LINE
8
BLACK
6
CONTINUOUS
10
2.317
20
-2.24519
11
2.31162
21
-2.24742
0
LINE
8
BLACK
6
CONTINUOUS
10
2.31162
20
-2.24742
11
2.30591
21
-2.24856
0
LINE
8
BLACK
6
CONTINUOUS
10
2.30591
20
-2.24856
11
2.30009
21
-2.24856
0
LINE
8
BLACK
6
CONTINUOUS
10
2.30009
20
-2.24856
11
2.29438
21
-2.24742
0
LINE
8
BLACK
6
CONTINUOUS
10
2.29438
20
-2.24742
11
2.289
21
-2.24519
0
LINE
8
BLACK
6
CONTINUOUS
10
2.289
20
-2.24519
11
2.28416
21
-2.24196
0
LINE
8
BLACK
6
CONTINUOUS
10
2.28416
20
-2.24196
11
2.28004
21
-2.23784
0
LINE
8
BLACK
6
CONTINUOUS
10
2.28004
20
-2.23784
11
2.27681
21
-2.233
0
LINE
8
BLACK
6
CONTINUOUS
10
2.27681
20
-2.233
11
2.27458
21
-2.22762
0
LINE
8
BLACK
6
CONTINUOUS
10
2.27458
20
-2.22762
11
2.27344
21
-2.22191
0
LINE
8
BLACK
6
CONTINUOUS
10
2.27344
20
-2.22191
11
2.27344
21
-2.21609
0
LINE
8
BLACK
6
CONTINUOUS
10
2.27344
20
-2.21609
11
2.27458
21
-2.21038
0
LINE
8
BLACK
6
CONTINUOUS
10
2.27458
20
-2.21038
11
2.27681
21
-2.205
0
LINE
8
BLACK
6
CONTINUOUS
10
2.27681
20
-2.205
11
2.28004
21
-2.20016
0
LINE
8
BLACK
6
CONTINUOUS
10
2.28004
20
-2.20016
11
2.28416
21
-2.19604
0
LINE
8
BLACK
6
CONTINUOUS
10
2.28416
20
-2.19604
11
2.289
21
-2.19281
0
LINE
8
BLACK
6
CONTINUOUS
10
2.289
20
-2.19281
11
2.29438
21
-2.19058
0
LINE
8
BLACK
6
CONTINUOUS
10
2.29438
20
-2.19058
11
2.30009
21
-2.18944
0
LINE
8
BLACK
6
CONTINUOUS
10
2.30009
20
-2.18944
11
2.30591
21
-2.18944
0
LINE
8
BLACK
6
CONTINUOUS
10
2.30591
20
-2.18944
11
2.31162
21
-2.19058
0
LINE
8
BLACK
6
CONTINUOUS
10
1.62962
20
-2.18458
11
1.635
21
-2.18681
0
LINE
8
BLACK
6
CONTINUOUS
10
1.635
20
-2.18681
11
1.63984
21
-2.19004
0
LINE
8
BLACK
6
CONTINUOUS
10
1.63984
20
-2.19004
11
1.64396
21
-2.19416
0
LINE
8
BLACK
6
CONTINUOUS
10
1.64396
20
-2.19416
11
1.64719
21
-2.199
0
LINE
8
BLACK
6
CONTINUOUS
10
1.64719
20
-2.199
11
1.64942
21
-2.20438
0
LINE
8
BLACK
6
CONTINUOUS
10
1.64942
20
-2.20438
11
1.65056
21
-2.21009
0
LINE
8
BLACK
6
CONTINUOUS
10
1.65056
20
-2.21009
11
1.65056
21
-2.21591
0
LINE
8
BLACK
6
CONTINUOUS
10
1.65056
20
-2.21591
11
1.64942
21
-2.22162
0
LINE
8
BLACK
6
CONTINUOUS
10
1.64942
20
-2.22162
11
1.64719
21
-2.227
0
LINE
8
BLACK
6
CONTINUOUS
10
1.64719
20
-2.227
11
1.64396
21
-2.23184
0
LINE
8
BLACK
6
CONTINUOUS
10
1.64396
20
-2.23184
11
1.63984
21
-2.23596
0
LINE
8
BLACK
6
CONTINUOUS
10
1.63984
20
-2.23596
11
1.635
21
-2.23919
0
LINE
8
BLACK
6
CONTINUOUS
10
1.635
20
-2.23919
11
1.62962
21
-2.24142
0
LINE
8
BLACK
6
CONTINUOUS
10
1.62962
20
-2.24142
11
1.62391
21
-2.24256
0
LINE
8
BLACK
6
CONTINUOUS
10
1.62391
20
-2.24256
11
1.61809
21
-2.24256
0
LINE
8
BLACK
6
CONTINUOUS
10
1.61809
20
-2.24256
11
1.61238
21
-2.24142
0
LINE
8
BLACK
6
CONTINUOUS
10
1.61238
20
-2.24142
11
1.607
21
-2.23919
0
LINE
8
BLACK
6
CONTINUOUS
10
1.607
20
-2.23919
11
1.60216
21
-2.23596
0
LINE
8
BLACK
6
CONTINUOUS
10
1.60216
20
-2.23596
11
1.59804
21
-2.23184
0
LINE
8
BLACK
6
CONTINUOUS
10
1.59804
20
-2.23184
11
1.59481
21
-2.227
0
LINE
8
BLACK
6
CONTINUOUS
10
1.59481
20
-2.227
11
1.59258
21
-2.22162
0
LINE
8
BLACK
6
CONTINUOUS
10
1.59258
20
-2.22162
11
1.59144
21
-2.21591
0
LINE
8
BLACK
6
CONTINUOUS
10
1.59144
20
-2.21591
11
1.59144
21
-2.21009
0
LINE
8
BLACK
6
CONTINUOUS
10
1.59144
20
-2.21009
11
1.59258
21
-2.20438
0
LINE
8
BLACK
6
CONTINUOUS
10
1.59258
20
-2.20438
11
1.59481
21
-2.199
0
LINE
8
BLACK
6
CONTINUOUS
10
1.59481
20
-2.199
11
1.59804
21
-2.19416
0
LINE
8
BLACK
6
CONTINUOUS
10
1.59804
20
-2.19416
11
1.60216
21
-2.19004
0
LINE
8
BLACK
6
CONTINUOUS
10
1.60216
20
-2.19004
11
1.607
21
-2.18681
0
LINE
8
BLACK
6
CONTINUOUS
10
1.607
20
-2.18681
11
1.61238
21
-2.18458
0
LINE
8
BLACK
6
CONTINUOUS
10
1.61238
20
-2.18458
11
1.61809
21
-2.18344
0
LINE
8
BLACK
6
CONTINUOUS
10
1.61809
20
-2.18344
11
1.62391
21
-2.18344
0
LINE
8
BLACK
6
CONTINUOUS
10
1.62391
20
-2.18344
11
1.62962
21
-2.18458
0
LINE
8
BLACK
6
CONTINUOUS
10
2.61077
20
-2.08179
11
2.61687
21
-2.08432
0
LINE
8
BLACK
6
CONTINUOUS
10
2.61687
20
-2.08432
11
2.62235
21
-2.08798
0
LINE
8
BLACK
6
CONTINUOUS
10
2.62235
20
-2.08798
11
2.62702
21
-2.09265
0
LINE
8
BLACK
6
CONTINUOUS
10
2.62702
20
-2.09265
11
2.63068
21
-2.09813
0
LINE
8
BLACK
6
CONTINUOUS
10
2.63068
20
-2.09813
11
2.63321
21
-2.10423
0
LINE
8
BLACK
6
CONTINUOUS
10
2.63321
20
-2.10423
11
2.6345
21
-2.1107
0
LINE
8
BLACK
6
CONTINUOUS
10
2.6345
20
-2.1107
11
2.6345
21
-2.1173
0
LINE
8
BLACK
6
CONTINUOUS
10
2.6345
20
-2.1173
11
2.63321
21
-2.12377
0
LINE
8
BLACK
6
CONTINUOUS
10
2.63321
20
-2.12377
11
2.63068
21
-2.12987
0
LINE
8
BLACK
6
CONTINUOUS
10
2.63068
20
-2.12987
11
2.62702
21
-2.13535
0
LINE
8
BLACK
6
CONTINUOUS
10
2.62702
20
-2.13535
11
2.62235
21
-2.14002
0
LINE
8
BLACK
6
CONTINUOUS
10
2.62235
20
-2.14002
11
2.61687
21
-2.14368
0
LINE
8
BLACK
6
CONTINUOUS
10
2.61687
20
-2.14368
11
2.61077
21
-2.14621
0
LINE
8
BLACK
6
CONTINUOUS
10
2.61077
20
-2.14621
11
2.6043
21
-2.1475
0
LINE
8
BLACK
6
CONTINUOUS
10
2.6043
20
-2.1475
11
2.5977
21
-2.1475
0
LINE
8
BLACK
6
CONTINUOUS
10
2.5977
20
-2.1475
11
2.59123
21
-2.14621
0
LINE
8
BLACK
6
CONTINUOUS
10
2.59123
20
-2.14621
11
2.58513
21
-2.14368
0
LINE
8
BLACK
6
CONTINUOUS
10
2.58513
20
-2.14368
11
2.57965
21
-2.14002
0
LINE
8
BLACK
6
CONTINUOUS
10
2.57965
20
-2.14002
11
2.57498
21
-2.13535
0
LINE
8
BLACK
6
CONTINUOUS
10
2.57498
20
-2.13535
11
2.57132
21
-2.12987
0
LINE
8
BLACK
6
CONTINUOUS
10
2.57132
20
-2.12987
11
2.56879
21
-2.12377
0
LINE
8
BLACK
6
CONTINUOUS
10
2.56879
20
-2.12377
11
2.5675
21
-2.1173
0
LINE
8
BLACK
6
CONTINUOUS
10
2.5675
20
-2.1173
11
2.5675
21
-2.1107
0
LINE
8
BLACK
6
CONTINUOUS
10
2.5675
20
-2.1107
11
2.56879
21
-2.10423
0
LINE
8
BLACK
6
CONTINUOUS
10
2.56879
20
-2.10423
11
2.57132
21
-2.09813
0
LINE
8
BLACK
6
CONTINUOUS
10
2.57132
20
-2.09813
11
2.57498
21
-2.09265
0
LINE
8
BLACK
6
CONTINUOUS
10
2.57498
20
-2.09265
11
2.57965
21
-2.08798
0
LINE
8
BLACK
6
CONTINUOUS
10
2.57965
20
-2.08798
11
2.58513
21
-2.08432
0
LINE
8
BLACK
6
CONTINUOUS
10
2.58513
20
-2.08432
11
2.59123
21
-2.08179
0
LINE
8
BLACK
6
CONTINUOUS
10
2.59123
20
-2.08179
11
2.5977
21
-2.0805
0
LINE
8
BLACK
6
CONTINUOUS
10
2.5977
20
-2.0805
11
2.6043
21
-2.0805
0
LINE
8
BLACK
6
CONTINUOUS
10
2.6043
20
-2.0805
11
2.61077
21
-2.08179
0
LINE
8
BLACK
6
CONTINUOUS
10
1.8345
20
-2.1475
11
1.7675
21
-2.1475
0
LINE
8
BLACK
6
CONTINUOUS
10
1.7675
20
-2.1475
11
1.7675
21
-2.0805
0
LINE
8
BLACK
6
CONTINUOUS
10
1.7675
20
-2.0805
11
1.8345
21
-2.0805
0
LINE
8
BLACK
6
CONTINUOUS
10
1.8345
20
-2.0805
11
1.8345
21
-2.1475
0
LINE
8
BLACK
6
CONTINUOUS
10
1.91077
20
-2.08179
11
1.91687
21
-2.08432
0
LINE
8
BLACK
6
CONTINUOUS
10
1.91687
20
-2.08432
11
1.92235
21
-2.08798
0
LINE
8
BLACK
6
CONTINUOUS
10
1.92235
20
-2.08798
11
1.92702
21
-2.09265
0
LINE
8
BLACK
6
CONTINUOUS
10
1.92702
20
-2.09265
11
1.93068
21
-2.09813
0
LINE
8
BLACK
6
CONTINUOUS
10
1.93068
20
-2.09813
11
1.93321
21
-2.10423
0
LINE
8
BLACK
6
CONTINUOUS
10
1.93321
20
-2.10423
11
1.9345
21
-2.1107
0
LINE
8
BLACK
6
CONTINUOUS
10
1.9345
20
-2.1107
11
1.9345
21
-2.1173
0
LINE
8
BLACK
6
CONTINUOUS
10
1.9345
20
-2.1173
11
1.93321
21
-2.12377
0
LINE
8
BLACK
6
CONTINUOUS
10
1.93321
20
-2.12377
11
1.93068
21
-2.12987
0
LINE
8
BLACK
6
CONTINUOUS
10
1.93068
20
-2.12987
11
1.92702
21
-2.13535
0
LINE
8
BLACK
6
CONTINUOUS
10
1.92702
20
-2.13535
11
1.92235
21
-2.14002
0
LINE
8
BLACK
6
CONTINUOUS
10
1.92235
20
-2.14002
11
1.91687
21
-2.14368
0
LINE
8
BLACK
6
CONTINUOUS
10
1.91687
20
-2.14368
11
1.91077
21
-2.14621
0
LINE
8
BLACK
6
CONTINUOUS
10
1.91077
20
-2.14621
11
1.9043
21
-2.1475
0
LINE
8
BLACK
6
CONTINUOUS
10
1.9043
20
-2.1475
11
1.8977
21
-2.1475
0
LINE
8
BLACK
6
CONTINUOUS
10
1.8977
20
-2.1475
11
1.89123
21
-2.14621
0
LINE
8
BLACK
6
CONTINUOUS
10
1.89123
20
-2.14621
11
1.88513
21
-2.14368
0
LINE
8
BLACK
6
CONTINUOUS
10
1.88513
20
-2.14368
11
1.87965
21
-2.14002
0
LINE
8
BLACK
6
CONTINUOUS
10
1.87965
20
-2.14002
11
1.87498
21
-2.13535
0
LINE
8
BLACK
6
CONTINUOUS
10
1.87498
20
-2.13535
11
1.87132
21
-2.12987
0
LINE
8
BLACK
6
CONTINUOUS
10
1.87132
20
-2.12987
11
1.86879
21
-2.12377
0
LINE
8
BLACK
6
CONTINUOUS
10
1.86879
20
-2.12377
11
1.8675
21
-2.1173
0
LINE
8
BLACK
6
CONTINUOUS
10
1.8675
20
-2.1173
11
1.8675
21
-2.1107
0
LINE
8
BLACK
6
CONTINUOUS
10
1.8675
20
-2.1107
11
1.86879
21
-2.10423
0
LINE
8
BLACK
6
CONTINUOUS
10
1.86879
20
-2.10423
11
1.87132
21
-2.09813
0
LINE
8
BLACK
6
CONTINUOUS
10
1.87132
20
-2.09813
11
1.87498
21
-2.09265
0
LINE
8
BLACK
6
CONTINUOUS
10
1.87498
20
-2.09265
11
1.87965
21
-2.08798
0
LINE
8
BLACK
6
CONTINUOUS
10
1.87965
20
-2.08798
11
1.88513
21
-2.08432
0
LINE
8
BLACK
6
CONTINUOUS
10
1.88513
20
-2.08432
11
1.89123
21
-2.08179
0
LINE
8
BLACK
6
CONTINUOUS
10
1.89123
20
-2.08179
11
1.8977
21
-2.0805
0
LINE
8
BLACK
6
CONTINUOUS
10
1.8977
20
-2.0805
11
1.9043
21
-2.0805
0
LINE
8
BLACK
6
CONTINUOUS
10
1.9043
20
-2.0805
11
1.91077
21
-2.08179
0
LINE
8
BLACK
6
CONTINUOUS
10
2.01077
20
-2.08179
11
2.01687
21
-2.08432
0
LINE
8
BLACK
6
CONTINUOUS
10
2.01687
20
-2.08432
11
2.02235
21
-2.08798
0
LINE
8
BLACK
6
CONTINUOUS
10
2.02235
20
-2.08798
11
2.02702
21
-2.09265
0
LINE
8
BLACK
6
CONTINUOUS
10
2.02702
20
-2.09265
11
2.03068
21
-2.09813
0
LINE
8
BLACK
6
CONTINUOUS
10
2.03068
20
-2.09813
11
2.03321
21
-2.10423
0
LINE
8
BLACK
6
CONTINUOUS
10
2.03321
20
-2.10423
11
2.0345
21
-2.1107
0
LINE
8
BLACK
6
CONTINUOUS
10
2.0345
20
-2.1107
11
2.0345
21
-2.1173
0
LINE
8
BLACK
6
CONTINUOUS
10
2.0345
20
-2.1173
11
2.03321
21
-2.12377
0
LINE
8
BLACK
6
CONTINUOUS
10
2.03321
20
-2.12377
11
2.03068
21
-2.12987
0
LINE
8
BLACK
6
CONTINUOUS
10
2.03068
20
-2.12987
11
2.02702
21
-2.13535
0
LINE
8
BLACK
6
CONTINUOUS
10
2.02702
20
-2.13535
11
2.02235
21
-2.14002
0
LINE
8
BLACK
6
CONTINUOUS
10
2.02235
20
-2.14002
11
2.01687
21
-2.14368
0
LINE
8
BLACK
6
CONTINUOUS
10
2.01687
20
-2.14368
11
2.01077
21
-2.14621
0
LINE
8
BLACK
6
CONTINUOUS
10
2.01077
20
-2.14621
11
2.0043
21
-2.1475
0
LINE
8
BLACK
6
CONTINUOUS
10
2.0043
20
-2.1475
11
1.9977
21
-2.1475
0
LINE
8
BLACK
6
CONTINUOUS
10
1.9977
20
-2.1475
11
1.99123
21
-2.14621
0
LINE
8
BLACK
6
CONTINUOUS
10
1.99123
20
-2.14621
11
1.98513
21
-2.14368
0
LINE
8
BLACK
6
CONTINUOUS
10
1.98513
20
-2.14368
11
1.97965
21
-2.14002
0
LINE
8
BLACK
6
CONTINUOUS
10
1.97965
20
-2.14002
11
1.97498
21
-2.13535
0
LINE
8
BLACK
6
CONTINUOUS
10
1.97498
20
-2.13535
11
1.97132
21
-2.12987
0
LINE
8
BLACK
6
CONTINUOUS
10
1.97132
20
-2.12987
11
1.96879
21
-2.12377
0
LINE
8
BLACK
6
CONTINUOUS
10
1.96879
20
-2.12377
11
1.9675
21
-2.1173
0
LINE
8
BLACK
6
CONTINUOUS
10
1.9675
20
-2.1173
11
1.9675
21
-2.1107
0
LINE
8
BLACK
6
CONTINUOUS
10
1.9675
20
-2.1107
11
1.96879
21
-2.10423
0
LINE
8
BLACK
6
CONTINUOUS
10
1.96879
20
-2.10423
11
1.97132
21
-2.09813
0
LINE
8
BLACK
6
CONTINUOUS
10
1.97132
20
-2.09813
11
1.97498
21
-2.09265
0
LINE
8
BLACK
6
CONTINUOUS
10
1.97498
20
-2.09265
11
1.97965
21
-2.08798
0
LINE
8
BLACK
6
CONTINUOUS
10
1.97965
20
-2.08798
11
1.98513
21
-2.08432
0
LINE
8
BLACK
6
CONTINUOUS
10
1.98513
20
-2.08432
11
1.99123
21
-2.08179
0
LINE
8
BLACK
6
CONTINUOUS
10
1.99123
20
-2.08179
11
1.9977
21
-2.0805
0
LINE
8
BLACK
6
CONTINUOUS
10
1.9977
20
-2.0805
11
2.0043
21
-2.0805
0
LINE
8
BLACK
6
CONTINUOUS
10
2.0043
20
-2.0805
11
2.01077
21
-2.08179
0
LINE
8
BLACK
6
CONTINUOUS
10
2.11077
20
-2.08179
11
2.11687
21
-2.08432
0
LINE
8
BLACK
6
CONTINUOUS
10
2.11687
20
-2.08432
11
2.12235
21
-2.08798
0
LINE
8
BLACK
6
CONTINUOUS
10
2.12235
20
-2.08798
11
2.12702
21
-2.09265
0
LINE
8
BLACK
6
CONTINUOUS
10
2.12702
20
-2.09265
11
2.13068
21
-2.09813
0
LINE
8
BLACK
6
CONTINUOUS
10
2.13068
20
-2.09813
11
2.13321
21
-2.10423
0
LINE
8
BLACK
6
CONTINUOUS
10
2.13321
20
-2.10423
11
2.1345
21
-2.1107
0
LINE
8
BLACK
6
CONTINUOUS
10
2.1345
20
-2.1107
11
2.1345
21
-2.1173
0
LINE
8
BLACK
6
CONTINUOUS
10
2.1345
20
-2.1173
11
2.13321
21
-2.12377
0
LINE
8
BLACK
6
CONTINUOUS
10
2.13321
20
-2.12377
11
2.13068
21
-2.12987
0
LINE
8
BLACK
6
CONTINUOUS
10
2.13068
20
-2.12987
11
2.12702
21
-2.13535
0
LINE
8
BLACK
6
CONTINUOUS
10
2.12702
20
-2.13535
11
2.12235
21
-2.14002
0
LINE
8
BLACK
6
CONTINUOUS
10
2.12235
20
-2.14002
11
2.11687
21
-2.14368
0
LINE
8
BLACK
6
CONTINUOUS
10
2.11687
20
-2.14368
11
2.11077
21
-2.14621
0
LINE
8
BLACK
6
CONTINUOUS
10
2.11077
20
-2.14621
11
2.1043
21
-2.1475
0
LINE
8
BLACK
6
CONTINUOUS
10
2.1043
20
-2.1475
11
2.0977
21
-2.1475
0
LINE
8
BLACK
6
CONTINUOUS
10
2.0977
20
-2.1475
11
2.09123
21
-2.14621
0
LINE
8
BLACK
6
CONTINUOUS
10
2.09123
20
-2.14621
11
2.08513
21
-2.14368
0
LINE
8
BLACK
6
CONTINUOUS
10
2.08513
20
-2.14368
11
2.07965
21
-2.14002
0
LINE
8
BLACK
6
CONTINUOUS
10
2.07965
20
-2.14002
11
2.07498
21
-2.13535
0
LINE
8
BLACK
6
CONTINUOUS
10
2.07498
20
-2.13535
11
2.07132
21
-2.12987
0
LINE
8
BLACK
6
CONTINUOUS
10
2.07132
20
-2.12987
11
2.06879
21
-2.12377
0
LINE
8
BLACK
6
CONTINUOUS
10
2.06879
20
-2.12377
11
2.0675
21
-2.1173
0
LINE
8
BLACK
6
CONTINUOUS
10
2.0675
20
-2.1173
11
2.0675
21
-2.1107
0
LINE
8
BLACK
6
CONTINUOUS
10
2.0675
20
-2.1107
11
2.06879
21
-2.10423
0
LINE
8
BLACK
6
CONTINUOUS
10
2.06879
20
-2.10423
11
2.07132
21
-2.09813
0
LINE
8
BLACK
6
CONTINUOUS
10
2.07132
20
-2.09813
11
2.07498
21
-2.09265
0
LINE
8
BLACK
6
CONTINUOUS
10
2.07498
20
-2.09265
11
2.07965
21
-2.08798
0
LINE
8
BLACK
6
CONTINUOUS
10
2.07965
20
-2.08798
11
2.08513
21
-2.08432
0
LINE
8
BLACK
6
CONTINUOUS
10
2.08513
20
-2.08432
11
2.09123
21
-2.08179
0
LINE
8
BLACK
6
CONTINUOUS
10
2.09123
20
-2.08179
11
2.0977
21
-2.0805
0
LINE
8
BLACK
6
CONTINUOUS
10
2.0977
20
-2.0805
11
2.1043
21
-2.0805
0
LINE
8
BLACK
6
CONTINUOUS
10
2.1043
20
-2.0805
11
2.11077
21
-2.08179
0
LINE
8
BLACK
6
CONTINUOUS
10
3.21077
20
-2.08179
11
3.21687
21
-2.08432
0
LINE
8
BLACK
6
CONTINUOUS
10
3.21687
20
-2.08432
11
3.22235
21
-2.08798
0
LINE
8
BLACK
6
CONTINUOUS
10
3.22235
20
-2.08798
11
3.22702
21
-2.09265
0
LINE
8
BLACK
6
CONTINUOUS
10
3.22702
20
-2.09265
11
3.23068
21
-2.09813
0
LINE
8
BLACK
6
CONTINUOUS
10
3.23068
20
-2.09813
11
3.23321
21
-2.10423
0
LINE
8
BLACK
6
CONTINUOUS
10
3.23321
20
-2.10423
11
3.2345
21
-2.1107
0
LINE
8
BLACK
6
CONTINUOUS
10
3.2345
20
-2.1107
11
3.2345
21
-2.1173
0
LINE
8
BLACK
6
CONTINUOUS
10
3.2345
20
-2.1173
11
3.23321
21
-2.12377
0
LINE
8
BLACK
6
CONTINUOUS
10
3.23321
20
-2.12377
11
3.23068
21
-2.12987
0
LINE
8
BLACK
6
CONTINUOUS
10
3.23068
20
-2.12987
11
3.22702
21
-2.13535
0
LINE
8
BLACK
6
CONTINUOUS
10
3.22702
20
-2.13535
11
3.22235
21
-2.14002
0
LINE
8
BLACK
6
CONTINUOUS
10
3.22235
20
-2.14002
11
3.21687
21
-2.14368
0
LINE
8
BLACK
6
CONTINUOUS
10
3.21687
20
-2.14368
11
3.21077
21
-2.14621
0
LINE
8
BLACK
6
CONTINUOUS
10
3.21077
20
-2.14621
11
3.2043
21
-2.1475
0
LINE
8
BLACK
6
CONTINUOUS
10
3.2043
20
-2.1475
11
3.1977
21
-2.1475
0
LINE
8
BLACK
6
CONTINUOUS
10
3.1977
20
-2.1475
11
3.19123
21
-2.14621
0
LINE
8
BLACK
6
CONTINUOUS
10
3.19123
20
-2.14621
11
3.18513
21
-2.14368
0
LINE
8
BLACK
6
CONTINUOUS
10
3.18513
20
-2.14368
11
3.17965
21
-2.14002
0
LINE
8
BLACK
6
CONTINUOUS
10
3.17965
20
-2.14002
11
3.17498
21
-2.13535
0
LINE
8
BLACK
6
CONTINUOUS
10
3.17498
20
-2.13535
11
3.17132
21
-2.12987
0
LINE
8
BLACK
6
CONTINUOUS
10
3.17132
20
-2.12987
11
3.16879
21
-2.12377
0
LINE
8
BLACK
6
CONTINUOUS
10
3.16879
20
-2.12377
11
3.1675
21
-2.1173
0
LINE
8
BLACK
6
CONTINUOUS
10
3.1675
20
-2.1173
11
3.1675
21
-2.1107
0
LINE
8
BLACK
6
CONTINUOUS
10
3.1675
20
-2.1107
11
3.16879
21
-2.10423
0
LINE
8
BLACK
6
CONTINUOUS
10
3.16879
20
-2.10423
11
3.17132
21
-2.09813
0
LINE
8
BLACK
6
CONTINUOUS
10
3.17132
20
-2.09813
11
3.17498
21
-2.09265
0
LINE
8
BLACK
6
CONTINUOUS
10
3.17498
20
-2.09265
11
3.17965
21
-2.08798
0
LINE
8
BLACK
6
CONTINUOUS
10
3.17965
20
-2.08798
11
3.18513
21
-2.08432
0
LINE
8
BLACK
6
CONTINUOUS
10
3.18513
20
-2.08432
11
3.19123
21
-2.08179
0
LINE
8
BLACK
6
CONTINUOUS
10
3.19123
20
-2.08179
11
3.1977
21
-2.0805
0
LINE
8
BLACK
6
CONTINUOUS
10
3.1977
20
-2.0805
11
3.2043
21
-2.0805
0
LINE
8
BLACK
6
CONTINUOUS
10
3.2043
20
-2.0805
11
3.21077
21
-2.08179
0
LINE
8
BLACK
6
CONTINUOUS
10
3.11077
20
-2.08179
11
3.11687
21
-2.08432
0
LINE
8
BLACK
6
CONTINUOUS
10
3.11687
20
-2.08432
11
3.12235
21
-2.08798
0
LINE
8
BLACK
6
CONTINUOUS
10
3.12235
20
-2.08798
11
3.12702
21
-2.09265
0
LINE
8
BLACK
6
CONTINUOUS
10
3.12702
20
-2.09265
11
3.13068
21
-2.09813
0
LINE
8
BLACK
6
CONTINUOUS
10
3.13068
20
-2.09813
11
3.13321
21
-2.10423
0
LINE
8
BLACK
6
CONTINUOUS
10
3.13321
20
-2.10423
11
3.1345
21
-2.1107
0
LINE
8
BLACK
6
CONTINUOUS
10
3.1345
20
-2.1107
11
3.1345
21
-2.1173
0
LINE
8
BLACK
6
CONTINUOUS
10
3.1345
20
-2.1173
11
3.13321
21
-2.12377
0
LINE
8
BLACK
6
CONTINUOUS
10
3.13321
20
-2.12377
11
3.13068
21
-2.12987
0
LINE
8
BLACK
6
CONTINUOUS
10
3.13068
20
-2.12987
11
3.12702
21
-2.13535
0
LINE
8
BLACK
6
CONTINUOUS
10
3.12702
20
-2.13535
11
3.12235
21
-2.14002
0
LINE
8
BLACK
6
CONTINUOUS
10
3.12235
20
-2.14002
11
3.11687
21
-2.14368
0
LINE
8
BLACK
6
CONTINUOUS
10
3.11687
20
-2.14368
11
3.11077
21
-2.14621
0
LINE
8
BLACK
6
CONTINUOUS
10
3.11077
20
-2.14621
11
3.1043
21
-2.1475
0
LINE
8
BLACK
6
CONTINUOUS
10
3.1043
20
-2.1475
11
3.0977
21
-2.1475
0
LINE
8
BLACK
6
CONTINUOUS
10
3.0977
20
-2.1475
11
3.09123
21
-2.14621
0
LINE
8
BLACK
6
CONTINUOUS
10
3.09123
20
-2.14621
11
3.08513
21
-2.14368
0
LINE
8
BLACK
6
CONTINUOUS
10
3.08513
20
-2.14368
11
3.07965
21
-2.14002
0
LINE
8
BLACK
6
CONTINUOUS
10
3.07965
20
-2.14002
11
3.07498
21
-2.13535
0
LINE
8
BLACK
6
CONTINUOUS
10
3.07498
20
-2.13535
11
3.07132
21
-2.12987
0
LINE
8
BLACK
6
CONTINUOUS
10
3.07132
20
-2.12987
11
3.06879
21
-2.12377
0
LINE
8
BLACK
6
CONTINUOUS
10
3.06879
20
-2.12377
11
3.0675
21
-2.1173
0
LINE
8
BLACK
6
CONTINUOUS
10
3.0675
20
-2.1173
11
3.0675
21
-2.1107
0
LINE
8
BLACK
6
CONTINUOUS
10
3.0675
20
-2.1107
11
3.06879
21
-2.10423
0
LINE
8
BLACK
6
CONTINUOUS
10
3.06879
20
-2.10423
11
3.07132
21
-2.09813
0
LINE
8
BLACK
6
CONTINUOUS
10
3.07132
20
-2.09813
11
3.07498
21
-2.09265
0
LINE
8
BLACK
6
CONTINUOUS
10
3.07498
20
-2.09265
11
3.07965
21
-2.08798
0
LINE
8
BLACK
6
CONTINUOUS
10
3.07965
20
-2.08798
11
3.08513
21
-2.08432
0
LINE
8
BLACK
6
CONTINUOUS
10
3.08513
20
-2.08432
11
3.09123
21
-2.08179
0
LINE
8
BLACK
6
CONTINUOUS
10
3.09123
20
-2.08179
11
3.0977
21
-2.0805
0
LINE
8
BLACK
6
CONTINUOUS
10
3.0977
20
-2.0805
11
3.1043
21
-2.0805
0
LINE
8
BLACK
6
CONTINUOUS
10
3.1043
20
-2.0805
11
3.11077
21
-2.08179
0
LINE
8
BLACK
6
CONTINUOUS
10
2.21077
20
-2.08179
11
2.21687
21
-2.08432
0
LINE
8
BLACK
6
CONTINUOUS
10
2.21687
20
-2.08432
11
2.22235
21
-2.08798
0
LINE
8
BLACK
6
CONTINUOUS
10
2.22235
20
-2.08798
11
2.22702
21
-2.09265
0
LINE
8
BLACK
6
CONTINUOUS
10
2.22702
20
-2.09265
11
2.23068
21
-2.09813
0
LINE
8
BLACK
6
CONTINUOUS
10
2.23068
20
-2.09813
11
2.23321
21
-2.10423
0
LINE
8
BLACK
6
CONTINUOUS
10
2.23321
20
-2.10423
11
2.2345
21
-2.1107
0
LINE
8
BLACK
6
CONTINUOUS
10
2.2345
20
-2.1107
11
2.2345
21
-2.1173
0
LINE
8
BLACK
6
CONTINUOUS
10
2.2345
20
-2.1173
11
2.23321
21
-2.12377
0
LINE
8
BLACK
6
CONTINUOUS
10
2.23321
20
-2.12377
11
2.23068
21
-2.12987
0
LINE
8
BLACK
6
CONTINUOUS
10
2.23068
20
-2.12987
11
2.22702
21
-2.13535
0
LINE
8
BLACK
6
CONTINUOUS
10
2.22702
20
-2.13535
11
2.22235
21
-2.14002
0
LINE
8
BLACK
6
CONTINUOUS
10
2.22235
20
-2.14002
11
2.21687
21
-2.14368
0
LINE
8
BLACK
6
CONTINUOUS
10
2.21687
20
-2.14368
11
2.21077
21
-2.14621
0
LINE
8
BLACK
6
CONTINUOUS
10
2.21077
20
-2.14621
11
2.2043
21
-2.1475
0
LINE
8
BLACK
6
CONTINUOUS
10
2.2043
20
-2.1475
11
2.1977
21
-2.1475
0
LINE
8
BLACK
6
CONTINUOUS
10
2.1977
20
-2.1475
11
2.19123
21
-2.14621
0
LINE
8
BLACK
6
CONTINUOUS
10
2.19123
20
-2.14621
11
2.18513
21
-2.14368
0
LINE
8
BLACK
6
CONTINUOUS
10
2.18513
20
-2.14368
11
2.17965
21
-2.14002
0
LINE
8
BLACK
6
CONTINUOUS
10
2.17965
20
-2.14002
11
2.17498
21
-2.13535
0
LINE
8
BLACK
6
CONTINUOUS
10
2.17498
20
-2.13535
11
2.17132
21
-2.12987
0
LINE
8
BLACK
6
CONTINUOUS
10
2.17132
20
-2.12987
11
2.16879
21
-2.12377
0
LINE
8
BLACK
6
CONTINUOUS
10
2.16879
20
-2.12377
11
2.1675
21
-2.1173
0
LINE
8
BLACK
6
CONTINUOUS
10
2.1675
20
-2.1173
11
2.1675
21
-2.1107
0
LINE
8
BLACK
6
CONTINUOUS
10
2.1675
20
-2.1107
11
2.16879
21
-2.10423
0
LINE
8
BLACK
6
CONTINUOUS
10
2.16879
20
-2.10423
11
2.17132
21
-2.09813
0
LINE
8
BLACK
6
CONTINUOUS
10
2.17132
20
-2.09813
11
2.17498
21
-2.09265
0
LINE
8
BLACK
6
CONTINUOUS
10
2.17498
20
-2.09265
11
2.17965
21
-2.08798
0
LINE
8
BLACK
6
CONTINUOUS
10
2.17965
20
-2.08798
11
2.18513
21
-2.08432
0
LINE
8
BLACK
6
CONTINUOUS
10
2.18513
20
-2.08432
11
2.19123
21
-2.08179
0
LINE
8
BLACK
6
CONTINUOUS
10
2.19123
20
-2.08179
11
2.1977
21
-2.0805
0
LINE
8
BLACK
6
CONTINUOUS
10
2.1977
20
-2.0805
11
2.2043
21
-2.0805
0
LINE
8
BLACK
6
CONTINUOUS
10
2.2043
20
-2.0805
11
2.21077
21
-2.08179
0
LINE
8
BLACK
6
CONTINUOUS
10
2.31077
20
-2.08179
11
2.31687
21
-2.08432
0
LINE
8
BLACK
6
CONTINUOUS
10
2.31687
20
-2.08432
11
2.32235
21
-2.08798
0
LINE
8
BLACK
6
CONTINUOUS
10
2.32235
20
-2.08798
11
2.32702
21
-2.09265
0
LINE
8
BLACK
6
CONTINUOUS
10
2.32702
20
-2.09265
11
2.33068
21
-2.09813
0
LINE
8
BLACK
6
CONTINUOUS
10
2.33068
20
-2.09813
11
2.33321
21
-2.10423
0
LINE
8
BLACK
6
CONTINUOUS
10
2.33321
20
-2.10423
11
2.3345
21
-2.1107
0
LINE
8
BLACK
6
CONTINUOUS
10
2.3345
20
-2.1107
11
2.3345
21
-2.1173
0
LINE
8
BLACK
6
CONTINUOUS
10
2.3345
20
-2.1173
11
2.33321
21
-2.12377
0
LINE
8
BLACK
6
CONTINUOUS
10
2.33321
20
-2.12377
11
2.33068
21
-2.12987
0
LINE
8
BLACK
6
CONTINUOUS
10
2.33068
20
-2.12987
11
2.32702
21
-2.13535
0
LINE
8
BLACK
6
CONTINUOUS
10
2.32702
20
-2.13535
11
2.32235
21
-2.14002
0
LINE
8
BLACK
6
CONTINUOUS
10
2.32235
20
-2.14002
11
2.31687
21
-2.14368
0
LINE
8
BLACK
6
CONTINUOUS
10
2.31687
20
-2.14368
11
2.31077
21
-2.14621
0
LINE
8
BLACK
6
CONTINUOUS
10
2.31077
20
-2.14621
11
2.3043
21
-2.1475
0
LINE
8
BLACK
6
CONTINUOUS
10
2.3043
20
-2.1475
11
2.2977
21
-2.1475
0
LINE
8
BLACK
6
CONTINUOUS
10
2.2977
20
-2.1475
11
2.29123
21
-2.14621
0
LINE
8
BLACK
6
CONTINUOUS
10
2.29123
20
-2.14621
11
2.28513
21
-2.14368
0
LINE
8
BLACK
6
CONTINUOUS
10
2.28513
20
-2.14368
11
2.27965
21
-2.14002
0
LINE
8
BLACK
6
CONTINUOUS
10
2.27965
20
-2.14002
11
2.27498
21
-2.13535
0
LINE
8
BLACK
6
CONTINUOUS
10
2.27498
20
-2.13535
11
2.27132
21
-2.12987
0
LINE
8
BLACK
6
CONTINUOUS
10
2.27132
20
-2.12987
11
2.26879
21
-2.12377
0
LINE
8
BLACK
6
CONTINUOUS
10
2.26879
20
-2.12377
11
2.2675
21
-2.1173
0
LINE
8
BLACK
6
CONTINUOUS
10
2.2675
20
-2.1173
11
2.2675
21
-2.1107
0
LINE
8
BLACK
6
CONTINUOUS
10
2.2675
20
-2.1107
11
2.26879
21
-2.10423
0
LINE
8
BLACK
6
CONTINUOUS
10
2.26879
20
-2.10423
11
2.27132
21
-2.09813
0
LINE
8
BLACK
6
CONTINUOUS
10
2.27132
20
-2.09813
11
2.27498
21
-2.09265
0
LINE
8
BLACK
6
CONTINUOUS
10
2.27498
20
-2.09265
11
2.27965
21
-2.08798
0
LINE
8
BLACK
6
CONTINUOUS
10
2.27965
20
-2.08798
11
2.28513
21
-2.08432
0
LINE
8
BLACK
6
CONTINUOUS
10
2.28513
20
-2.08432
11
2.29123
21
-2.08179
0
LINE
8
BLACK
6
CONTINUOUS
10
2.29123
20
-2.08179
11
2.2977
21
-2.0805
0
LINE
8
BLACK
6
CONTINUOUS
10
2.2977
20
-2.0805
11
2.3043
21
-2.0805
0
LINE
8
BLACK
6
CONTINUOUS
10
2.3043
20
-2.0805
11
2.31077
21
-2.08179
0
LINE
8
BLACK
6
CONTINUOUS
10
2.91077
20
-2.08179
11
2.91687
21
-2.08432
0
LINE
8
BLACK
6
CONTINUOUS
10
2.91687
20
-2.08432
11
2.92235
21
-2.08798
0
LINE
8
BLACK
6
CONTINUOUS
10
2.92235
20
-2.08798
11
2.92702
21
-2.09265
0
LINE
8
BLACK
6
CONTINUOUS
10
2.92702
20
-2.09265
11
2.93068
21
-2.09813
0
LINE
8
BLACK
6
CONTINUOUS
10
2.93068
20
-2.09813
11
2.93321
21
-2.10423
0
LINE
8
BLACK
6
CONTINUOUS
10
2.93321
20
-2.10423
11
2.9345
21
-2.1107
0
LINE
8
BLACK
6
CONTINUOUS
10
2.9345
20
-2.1107
11
2.9345
21
-2.1173
0
LINE
8
BLACK
6
CONTINUOUS
10
2.9345
20
-2.1173
11
2.93321
21
-2.12377
0
LINE
8
BLACK
6
CONTINUOUS
10
2.93321
20
-2.12377
11
2.93068
21
-2.12987
0
LINE
8
BLACK
6
CONTINUOUS
10
2.93068
20
-2.12987
11
2.92702
21
-2.13535
0
LINE
8
BLACK
6
CONTINUOUS
10
2.92702
20
-2.13535
11
2.92235
21
-2.14002
0
LINE
8
BLACK
6
CONTINUOUS
10
2.92235
20
-2.14002
11
2.91687
21
-2.14368
0
LINE
8
BLACK
6
CONTINUOUS
10
2.91687
20
-2.14368
11
2.91077
21
-2.14621
0
LINE
8
BLACK
6
CONTINUOUS
10
2.91077
20
-2.14621
11
2.9043
21
-2.1475
0
LINE
8
BLACK
6
CONTINUOUS
10
2.9043
20
-2.1475
11
2.8977
21
-2.1475
0
LINE
8
BLACK
6
CONTINUOUS
10
2.8977
20
-2.1475
11
2.89123
21
-2.14621
0
LINE
8
BLACK
6
CONTINUOUS
10
2.89123
20
-2.14621
11
2.88513
21
-2.14368
0
LINE
8
BLACK
6
CONTINUOUS
10
2.88513
20
-2.14368
11
2.87965
21
-2.14002
0
LINE
8
BLACK
6
CONTINUOUS
10
2.87965
20
-2.14002
11
2.87498
21
-2.13535
0
LINE
8
BLACK
6
CONTINUOUS
10
2.87498
20
-2.13535
11
2.87132
21
-2.12987
0
LINE
8
BLACK
6
CONTINUOUS
10
2.87132
20
-2.12987
11
2.86879
21
-2.12377
0
LINE
8
BLACK
6
CONTINUOUS
10
2.86879
20
-2.12377
11
2.8675
21
-2.1173
0
LINE
8
BLACK
6
CONTINUOUS
10
2.8675
20
-2.1173
11
2.8675
21
-2.1107
0
LINE
8
BLACK
6
CONTINUOUS
10
2.8675
20
-2.1107
11
2.86879
21
-2.10423
0
LINE
8
BLACK
6
CONTINUOUS
10
2.86879
20
-2.10423
11
2.87132
21
-2.09813
0
LINE
8
BLACK
6
CONTINUOUS
10
2.87132
20
-2.09813
11
2.87498
21
-2.09265
0
LINE
8
BLACK
6
CONTINUOUS
10
2.87498
20
-2.09265
11
2.87965
21
-2.08798
0
LINE
8
BLACK
6
CONTINUOUS
10
2.87965
20
-2.08798
11
2.88513
21
-2.08432
0
LINE
8
BLACK
6
CONTINUOUS
10
2.88513
20
-2.08432
11
2.89123
21
-2.08179
0
LINE
8
BLACK
6
CONTINUOUS
10
2.89123
20
-2.08179
11
2.8977
21
-2.0805
0
LINE
8
BLACK
6
CONTINUOUS
10
2.8977
20
-2.0805
11
2.9043
21
-2.0805
0
LINE
8
BLACK
6
CONTINUOUS
10
2.9043
20
-2.0805
11
2.91077
21
-2.08179
0
LINE
8
BLACK
6
CONTINUOUS
10
2.81077
20
-2.08179
11
2.81687
21
-2.08432
0
LINE
8
BLACK
6
CONTINUOUS
10
2.81687
20
-2.08432
11
2.82235
21
-2.08798
0
LINE
8
BLACK
6
CONTINUOUS
10
2.82235
20
-2.08798
11
2.82702
21
-2.09265
0
LINE
8
BLACK
6
CONTINUOUS
10
2.82702
20
-2.09265
11
2.83068
21
-2.09813
0
LINE
8
BLACK
6
CONTINUOUS
10
2.83068
20
-2.09813
11
2.83321
21
-2.10423
0
LINE
8
BLACK
6
CONTINUOUS
10
2.83321
20
-2.10423
11
2.8345
21
-2.1107
0
LINE
8
BLACK
6
CONTINUOUS
10
2.8345
20
-2.1107
11
2.8345
21
-2.1173
0
LINE
8
BLACK
6
CONTINUOUS
10
2.8345
20
-2.1173
11
2.83321
21
-2.12377
0
LINE
8
BLACK
6
CONTINUOUS
10
2.83321
20
-2.12377
11
2.83068
21
-2.12987
0
LINE
8
BLACK
6
CONTINUOUS
10
2.83068
20
-2.12987
11
2.82702
21
-2.13535
0
LINE
8
BLACK
6
CONTINUOUS
10
2.82702
20
-2.13535
11
2.82235
21
-2.14002
0
LINE
8
BLACK
6
CONTINUOUS
10
2.82235
20
-2.14002
11
2.81687
21
-2.14368
0
LINE
8
BLACK
6
CONTINUOUS
10
2.81687
20
-2.14368
11
2.81077
21
-2.14621
0
LINE
8
BLACK
6
CONTINUOUS
10
2.81077
20
-2.14621
11
2.8043
21
-2.1475
0
LINE
8
BLACK
6
CONTINUOUS
10
2.8043
20
-2.1475
11
2.7977
21
-2.1475
0
LINE
8
BLACK
6
CONTINUOUS
10
2.7977
20
-2.1475
11
2.79123
21
-2.14621
0
LINE
8
BLACK
6
CONTINUOUS
10
2.79123
20
-2.14621
11
2.78513
21
-2.14368
0
LINE
8
BLACK
6
CONTINUOUS
10
2.78513
20
-2.14368
11
2.77965
21
-2.14002
0
LINE
8
BLACK
6
CONTINUOUS
10
2.77965
20
-2.14002
11
2.77498
21
-2.13535
0
LINE
8
BLACK
6
CONTINUOUS
10
2.77498
20
-2.13535
11
2.77132
21
-2.12987
0
LINE
8
BLACK
6
CONTINUOUS
10
2.77132
20
-2.12987
11
2.76879
21
-2.12377
0
LINE
8
BLACK
6
CONTINUOUS
10
2.76879
20
-2.12377
11
2.7675
21
-2.1173
0
LINE
8
BLACK
6
CONTINUOUS
10
2.7675
20
-2.1173
11
2.7675
21
-2.1107
0
LINE
8
BLACK
6
CONTINUOUS
10
2.7675
20
-2.1107
11
2.76879
21
-2.10423
0
LINE
8
BLACK
6
CONTINUOUS
10
2.76879
20
-2.10423
11
2.77132
21
-2.09813
0
LINE
8
BLACK
6
CONTINUOUS
10
2.77132
20
-2.09813
11
2.77498
21
-2.09265
0
LINE
8
BLACK
6
CONTINUOUS
10
2.77498
20
-2.09265
11
2.77965
21
-2.08798
0
LINE
8
BLACK
6
CONTINUOUS
10
2.77965
20
-2.08798
11
2.78513
21
-2.08432
0
LINE
8
BLACK
6
CONTINUOUS
10
2.78513
20
-2.08432
11
2.79123
21
-2.08179
0
LINE
8
BLACK
6
CONTINUOUS
10
2.79123
20
-2.08179
11
2.7977
21
-2.0805
0
LINE
8
BLACK
6
CONTINUOUS
10
2.7977
20
-2.0805
11
2.8043
21
-2.0805
0
LINE
8
BLACK
6
CONTINUOUS
10
2.8043
20
-2.0805
11
2.81077
21
-2.08179
0
LINE
8
BLACK
6
CONTINUOUS
10
2.51077
20
-2.08179
11
2.51687
21
-2.08432
0
LINE
8
BLACK
6
CONTINUOUS
10
2.51687
20
-2.08432
11
2.52235
21
-2.08798
0
LINE
8
BLACK
6
CONTINUOUS
10
2.52235
20
-2.08798
11
2.52702
21
-2.09265
0
LINE
8
BLACK
6
CONTINUOUS
10
2.52702
20
-2.09265
11
2.53068
21
-2.09813
0
LINE
8
BLACK
6
CONTINUOUS
10
2.53068
20
-2.09813
11
2.53321
21
-2.10423
0
LINE
8
BLACK
6
CONTINUOUS
10
2.53321
20
-2.10423
11
2.5345
21
-2.1107
0
LINE
8
BLACK
6
CONTINUOUS
10
2.5345
20
-2.1107
11
2.5345
21
-2.1173
0
LINE
8
BLACK
6
CONTINUOUS
10
2.5345
20
-2.1173
11
2.53321
21
-2.12377
0
LINE
8
BLACK
6
CONTINUOUS
10
2.53321
20
-2.12377
11
2.53068
21
-2.12987
0
LINE
8
BLACK
6
CONTINUOUS
10
2.53068
20
-2.12987
11
2.52702
21
-2.13535
0
LINE
8
BLACK
6
CONTINUOUS
10
2.52702
20
-2.13535
11
2.52235
21
-2.14002
0
LINE
8
BLACK
6
CONTINUOUS
10
2.52235
20
-2.14002
11
2.51687
21
-2.14368
0
LINE
8
BLACK
6
CONTINUOUS
10
2.51687
20
-2.14368
11
2.51077
21
-2.14621
0
LINE
8
BLACK
6
CONTINUOUS
10
2.51077
20
-2.14621
11
2.5043
21
-2.1475
0
LINE
8
BLACK
6
CONTINUOUS
10
2.5043
20
-2.1475
11
2.4977
21
-2.1475
0
LINE
8
BLACK
6
CONTINUOUS
10
2.4977
20
-2.1475
11
2.49123
21
-2.14621
0
LINE
8
BLACK
6
CONTINUOUS
10
2.49123
20
-2.14621
11
2.48513
21
-2.14368
0
LINE
8
BLACK
6
CONTINUOUS
10
2.48513
20
-2.14368
11
2.47965
21
-2.14002
0
LINE
8
BLACK
6
CONTINUOUS
10
2.47965
20
-2.14002
11
2.47498
21
-2.13535
0
LINE
8
BLACK
6
CONTINUOUS
10
2.47498
20
-2.13535
11
2.47132
21
-2.12987
0
LINE
8
BLACK
6
CONTINUOUS
10
2.47132
20
-2.12987
11
2.46879
21
-2.12377
0
LINE
8
BLACK
6
CONTINUOUS
10
2.46879
20
-2.12377
11
2.4675
21
-2.1173
0
LINE
8
BLACK
6
CONTINUOUS
10
2.4675
20
-2.1173
11
2.4675
21
-2.1107
0
LINE
8
BLACK
6
CONTINUOUS
10
2.4675
20
-2.1107
11
2.46879
21
-2.10423
0
LINE
8
BLACK
6
CONTINUOUS
10
2.46879
20
-2.10423
11
2.47132
21
-2.09813
0
LINE
8
BLACK
6
CONTINUOUS
10
2.47132
20
-2.09813
11
2.47498
21
-2.09265
0
LINE
8
BLACK
6
CONTINUOUS
10
2.47498
20
-2.09265
11
2.47965
21
-2.08798
0
LINE
8
BLACK
6
CONTINUOUS
10
2.47965
20
-2.08798
11
2.48513
21
-2.08432
0
LINE
8
BLACK
6
CONTINUOUS
10
2.48513
20
-2.08432
11
2.49123
21
-2.08179
0
LINE
8
BLACK
6
CONTINUOUS
10
2.49123
20
-2.08179
11
2.4977
21
-2.0805
0
LINE
8
BLACK
6
CONTINUOUS
10
2.4977
20
-2.0805
11
2.5043
21
-2.0805
0
LINE
8
BLACK
6
CONTINUOUS
10
2.5043
20
-2.0805
11
2.51077
21
-2.08179
0
LINE
8
BLACK
6
CONTINUOUS
10
3.01077
20
-2.08179
11
3.01687
21
-2.08432
0
LINE
8
BLACK
6
CONTINUOUS
10
3.01687
20
-2.08432
11
3.02235
21
-2.08798
0
LINE
8
BLACK
6
CONTINUOUS
10
3.02235
20
-2.08798
11
3.02702
21
-2.09265
0
LINE
8
BLACK
6
CONTINUOUS
10
3.02702
20
-2.09265
11
3.03068
21
-2.09813
0
LINE
8
BLACK
6
CONTINUOUS
10
3.03068
20
-2.09813
11
3.03321
21
-2.10423
0
LINE
8
BLACK
6
CONTINUOUS
10
3.03321
20
-2.10423
11
3.0345
21
-2.1107
0
LINE
8
BLACK
6
CONTINUOUS
10
3.0345
20
-2.1107
11
3.0345
21
-2.1173
0
LINE
8
BLACK
6
CONTINUOUS
10
3.0345
20
-2.1173
11
3.03321
21
-2.12377
0
LINE
8
BLACK
6
CONTINUOUS
10
3.03321
20
-2.12377
11
3.03068
21
-2.12987
0
LINE
8
BLACK
6
CONTINUOUS
10
3.03068
20
-2.12987
11
3.02702
21
-2.13535
0
LINE
8
BLACK
6
CONTINUOUS
10
3.02702
20
-2.13535
11
3.02235
21
-2.14002
0
LINE
8
BLACK
6
CONTINUOUS
10
3.02235
20
-2.14002
11
3.01687
21
-2.14368
0
LINE
8
BLACK
6
CONTINUOUS
10
3.01687
20
-2.14368
11
3.01077
21
-2.14621
0
LINE
8
BLACK
6
CONTINUOUS
10
3.01077
20
-2.14621
11
3.0043
21
-2.1475
0
LINE
8
BLACK
6
CONTINUOUS
10
3.0043
20
-2.1475
11
2.9977
21
-2.1475
0
LINE
8
BLACK
6
CONTINUOUS
10
2.9977
20
-2.1475
11
2.99123
21
-2.14621
0
LINE
8
BLACK
6
CONTINUOUS
10
2.99123
20
-2.14621
11
2.98513
21
-2.14368
0
LINE
8
BLACK
6
CONTINUOUS
10
2.98513
20
-2.14368
11
2.97965
21
-2.14002
0
LINE
8
BLACK
6
CONTINUOUS
10
2.97965
20
-2.14002
11
2.97498
21
-2.13535
0
LINE
8
BLACK
6
CONTINUOUS
10
2.97498
20
-2.13535
11
2.97132
21
-2.12987
0
LINE
8
BLACK
6
CONTINUOUS
10
2.97132
20
-2.12987
11
2.96879
21
-2.12377
0
LINE
8
BLACK
6
CONTINUOUS
10
2.96879
20
-2.12377
11
2.9675
21
-2.1173
0
LINE
8
BLACK
6
CONTINUOUS
10
2.9675
20
-2.1173
11
2.9675
21
-2.1107
0
LINE
8
BLACK
6
CONTINUOUS
10
2.9675
20
-2.1107
11
2.96879
21
-2.10423
0
LINE
8
BLACK
6
CONTINUOUS
10
2.96879
20
-2.10423
11
2.97132
21
-2.09813
0
LINE
8
BLACK
6
CONTINUOUS
10
2.97132
20
-2.09813
11
2.97498
21
-2.09265
0
LINE
8
BLACK
6
CONTINUOUS
10
2.97498
20
-2.09265
11
2.97965
21
-2.08798
0
LINE
8
BLACK
6
CONTINUOUS
10
2.97965
20
-2.08798
11
2.98513
21
-2.08432
0
LINE
8
BLACK
6
CONTINUOUS
10
2.98513
20
-2.08432
11
2.99123
21
-2.08179
0
LINE
8
BLACK
6
CONTINUOUS
10
2.99123
20
-2.08179
11
2.9977
21
-2.0805
0
LINE
8
BLACK
6
CONTINUOUS
10
2.9977
20
-2.0805
11
3.0043
21
-2.0805
0
LINE
8
BLACK
6
CONTINUOUS
10
3.0043
20
-2.0805
11
3.01077
21
-2.08179
0
LINE
8
BLACK
6
CONTINUOUS
10
2.71077
20
-2.08179
11
2.71687
21
-2.08432
0
LINE
8
BLACK
6
CONTINUOUS
10
2.71687
20
-2.08432
11
2.72235
21
-2.08798
0
LINE
8
BLACK
6
CONTINUOUS
10
2.72235
20
-2.08798
11
2.72702
21
-2.09265
0
LINE
8
BLACK
6
CONTINUOUS
10
2.72702
20
-2.09265
11
2.73068
21
-2.09813
0
LINE
8
BLACK
6
CONTINUOUS
10
2.73068
20
-2.09813
11
2.73321
21
-2.10423
0
LINE
8
BLACK
6
CONTINUOUS
10
2.73321
20
-2.10423
11
2.7345
21
-2.1107
0
LINE
8
BLACK
6
CONTINUOUS
10
2.7345
20
-2.1107
11
2.7345
21
-2.1173
0
LINE
8
BLACK
6
CONTINUOUS
10
2.7345
20
-2.1173
11
2.73321
21
-2.12377
0
LINE
8
BLACK
6
CONTINUOUS
10
2.73321
20
-2.12377
11
2.73068
21
-2.12987
0
LINE
8
BLACK
6
CONTINUOUS
10
2.73068
20
-2.12987
11
2.72702
21
-2.13535
0
LINE
8
BLACK
6
CONTINUOUS
10
2.72702
20
-2.13535
11
2.72235
21
-2.14002
0
LINE
8
BLACK
6
CONTINUOUS
10
2.72235
20
-2.14002
11
2.71687
21
-2.14368
0
LINE
8
BLACK
6
CONTINUOUS
10
2.71687
20
-2.14368
11
2.71077
21
-2.14621
0
LINE
8
BLACK
6
CONTINUOUS
10
2.71077
20
-2.14621
11
2.7043
21
-2.1475
0
LINE
8
BLACK
6
CONTINUOUS
10
2.7043
20
-2.1475
11
2.6977
21
-2.1475
0
LINE
8
BLACK
6
CONTINUOUS
10
2.6977
20
-2.1475
11
2.69123
21
-2.14621
0
LINE
8
BLACK
6
CONTINUOUS
10
2.69123
20
-2.14621
11
2.68513
21
-2.14368
0
LINE
8
BLACK
6
CONTINUOUS
10
2.68513
20
-2.14368
11
2.67965
21
-2.14002
0
LINE
8
BLACK
6
CONTINUOUS
10
2.67965
20
-2.14002
11
2.67498
21
-2.13535
0
LINE
8
BLACK
6
CONTINUOUS
10
2.67498
20
-2.13535
11
2.67132
21
-2.12987
0
LINE
8
BLACK
6
CONTINUOUS
10
2.67132
20
-2.12987
11
2.66879
21
-2.12377
0
LINE
8
BLACK
6
CONTINUOUS
10
2.66879
20
-2.12377
11
2.6675
21
-2.1173
0
LINE
8
BLACK
6
CONTINUOUS
10
2.6675
20
-2.1173
11
2.6675
21
-2.1107
0
LINE
8
BLACK
6
CONTINUOUS
10
2.6675
20
-2.1107
11
2.66879
21
-2.10423
0
LINE
8
BLACK
6
CONTINUOUS
10
2.66879
20
-2.10423
11
2.67132
21
-2.09813
0
LINE
8
BLACK
6
CONTINUOUS
10
2.67132
20
-2.09813
11
2.67498
21
-2.09265
0
LINE
8
BLACK
6
CONTINUOUS
10
2.67498
20
-2.09265
11
2.67965
21
-2.08798
0
LINE
8
BLACK
6
CONTINUOUS
10
2.67965
20
-2.08798
11
2.68513
21
-2.08432
0
LINE
8
BLACK
6
CONTINUOUS
10
2.68513
20
-2.08432
11
2.69123
21
-2.08179
0
LINE
8
BLACK
6
CONTINUOUS
10
2.69123
20
-2.08179
11
2.6977
21
-2.0805
0
LINE
8
BLACK
6
CONTINUOUS
10
2.6977
20
-2.0805
11
2.7043
21
-2.0805
0
LINE
8
BLACK
6
CONTINUOUS
10
2.7043
20
-2.0805
11
2.71077
21
-2.08179
0
LINE
8
BLACK
6
CONTINUOUS
10
2.41077
20
-2.08179
11
2.41687
21
-2.08432
0
LINE
8
BLACK
6
CONTINUOUS
10
2.41687
20
-2.08432
11
2.42235
21
-2.08798
0
LINE
8
BLACK
6
CONTINUOUS
10
2.42235
20
-2.08798
11
2.42702
21
-2.09265
0
LINE
8
BLACK
6
CONTINUOUS
10
2.42702
20
-2.09265
11
2.43068
21
-2.09813
0
LINE
8
BLACK
6
CONTINUOUS
10
2.43068
20
-2.09813
11
2.43321
21
-2.10423
0
LINE
8
BLACK
6
CONTINUOUS
10
2.43321
20
-2.10423
11
2.4345
21
-2.1107
0
LINE
8
BLACK
6
CONTINUOUS
10
2.4345
20
-2.1107
11
2.4345
21
-2.1173
0
LINE
8
BLACK
6
CONTINUOUS
10
2.4345
20
-2.1173
11
2.43321
21
-2.12377
0
LINE
8
BLACK
6
CONTINUOUS
10
2.43321
20
-2.12377
11
2.43068
21
-2.12987
0
LINE
8
BLACK
6
CONTINUOUS
10
2.43068
20
-2.12987
11
2.42702
21
-2.13535
0
LINE
8
BLACK
6
CONTINUOUS
10
2.42702
20
-2.13535
11
2.42235
21
-2.14002
0
LINE
8
BLACK
6
CONTINUOUS
10
2.42235
20
-2.14002
11
2.41687
21
-2.14368
0
LINE
8
BLACK
6
CONTINUOUS
10
2.41687
20
-2.14368
11
2.41077
21
-2.14621
0
LINE
8
BLACK
6
CONTINUOUS
10
2.41077
20
-2.14621
11
2.4043
21
-2.1475
0
LINE
8
BLACK
6
CONTINUOUS
10
2.4043
20
-2.1475
11
2.3977
21
-2.1475
0
LINE
8
BLACK
6
CONTINUOUS
10
2.3977
20
-2.1475
11
2.39123
21
-2.14621
0
LINE
8
BLACK
6
CONTINUOUS
10
2.39123
20
-2.14621
11
2.38513
21
-2.14368
0
LINE
8
BLACK
6
CONTINUOUS
10
2.38513
20
-2.14368
11
2.37965
21
-2.14002
0
LINE
8
BLACK
6
CONTINUOUS
10
2.37965
20
-2.14002
11
2.37498
21
-2.13535
0
LINE
8
BLACK
6
CONTINUOUS
10
2.37498
20
-2.13535
11
2.37132
21
-2.12987
0
LINE
8
BLACK
6
CONTINUOUS
10
2.37132
20
-2.12987
11
2.36879
21
-2.12377
0
LINE
8
BLACK
6
CONTINUOUS
10
2.36879
20
-2.12377
11
2.3675
21
-2.1173
0
LINE
8
BLACK
6
CONTINUOUS
10
2.3675
20
-2.1173
11
2.3675
21
-2.1107
0
LINE
8
BLACK
6
CONTINUOUS
10
2.3675
20
-2.1107
11
2.36879
21
-2.10423
0
LINE
8
BLACK
6
CONTINUOUS
10
2.36879
20
-2.10423
11
2.37132
21
-2.09813
0
LINE
8
BLACK
6
CONTINUOUS
10
2.37132
20
-2.09813
11
2.37498
21
-2.09265
0
LINE
8
BLACK
6
CONTINUOUS
10
2.37498
20
-2.09265
11
2.37965
21
-2.08798
0
LINE
8
BLACK
6
CONTINUOUS
10
2.37965
20
-2.08798
11
2.38513
21
-2.08432
0
LINE
8
BLACK
6
CONTINUOUS
10
2.38513
20
-2.08432
11
2.39123
21
-2.08179
0
LINE
8
BLACK
6
CONTINUOUS
10
2.39123
20
-2.08179
11
2.3977
21
-2.0805
0
LINE
8
BLACK
6
CONTINUOUS
10
2.3977
20
-2.0805
11
2.4043
21
-2.0805
0
LINE
8
BLACK
6
CONTINUOUS
10
2.4043
20
-2.0805
11
2.41077
21
-2.08179
0
LINE
8
BLACK
6
CONTINUOUS
10
1.45868
20
-1.98589
11
1.47158
21
-1.99123
0
LINE
8
BLACK
6
CONTINUOUS
10
1.47158
20
-1.99123
11
1.48319
21
-1.99899
0
LINE
8
BLACK
6
CONTINUOUS
10
1.48319
20
-1.99899
11
1.49307
21
-2.00887
0
LINE
8
BLACK
6
CONTINUOUS
10
1.49307
20
-2.00887
11
1.50083
21
-2.02048
0
LINE
8
BLACK
6
CONTINUOUS
10
1.50083
20
-2.02048
11
1.50617
21
-2.03338
0
LINE
8
BLACK
6
CONTINUOUS
10
1.50617
20
-2.03338
11
1.5089
21
-2.04708
0
LINE
8
BLACK
6
CONTINUOUS
10
1.5089
20
-2.04708
11
1.5089
21
-2.06105
0
LINE
8
BLACK
6
CONTINUOUS
10
1.5089
20
-2.06105
11
1.50617
21
-2.07474
0
LINE
8
BLACK
6
CONTINUOUS
10
1.50617
20
-2.07474
11
1.50083
21
-2.08765
0
LINE
8
BLACK
6
CONTINUOUS
10
1.50083
20
-2.08765
11
1.49307
21
-2.09926
0
LINE
8
BLACK
6
CONTINUOUS
10
1.49307
20
-2.09926
11
1.48319
21
-2.10913
0
LINE
8
BLACK
6
CONTINUOUS
10
1.48319
20
-2.10913
11
1.47158
21
-2.11689
0
LINE
8
BLACK
6
CONTINUOUS
10
1.47158
20
-2.11689
11
1.45868
21
-2.12224
0
LINE
8
BLACK
6
CONTINUOUS
10
1.45868
20
-2.12224
11
1.44498
21
-2.12496
0
LINE
8
BLACK
6
CONTINUOUS
10
1.44498
20
-2.12496
11
1.43102
21
-2.12496
0
LINE
8
BLACK
6
CONTINUOUS
10
1.43102
20
-2.12496
11
1.41732
21
-2.12224
0
LINE
8
BLACK
6
CONTINUOUS
10
1.41732
20
-2.12224
11
1.40442
21
-2.11689
0
LINE
8
BLACK
6
CONTINUOUS
10
1.40442
20
-2.11689
11
1.39281
21
-2.10913
0
LINE
8
BLACK
6
CONTINUOUS
10
1.39281
20
-2.10913
11
1.38293
21
-2.09926
0
LINE
8
BLACK
6
CONTINUOUS
10
1.38293
20
-2.09926
11
1.37517
21
-2.08765
0
LINE
8
BLACK
6
CONTINUOUS
10
1.37517
20
-2.08765
11
1.36983
21
-2.07474
0
LINE
8
BLACK
6
CONTINUOUS
10
1.36983
20
-2.07474
11
1.3671
21
-2.06105
0
LINE
8
BLACK
6
CONTINUOUS
10
1.3671
20
-2.06105
11
1.3671
21
-2.04708
0
LINE
8
BLACK
6
CONTINUOUS
10
1.3671
20
-2.04708
11
1.36983
21
-2.03338
0
LINE
8
BLACK
6
CONTINUOUS
10
1.36983
20
-2.03338
11
1.37517
21
-2.02048
0
LINE
8
BLACK
6
CONTINUOUS
10
1.37517
20
-2.02048
11
1.38293
21
-2.00887
0
LINE
8
BLACK
6
CONTINUOUS
10
1.38293
20
-2.00887
11
1.39281
21
-1.99899
0
LINE
8
BLACK
6
CONTINUOUS
10
1.39281
20
-1.99899
11
1.40442
21
-1.99123
0
LINE
8
BLACK
6
CONTINUOUS
10
1.40442
20
-1.99123
11
1.41732
21
-1.98589
0
LINE
8
BLACK
6
CONTINUOUS
10
1.41732
20
-1.98589
11
1.43102
21
-1.98317
0
LINE
8
BLACK
6
CONTINUOUS
10
1.43102
20
-1.98317
11
1.44498
21
-1.98317
0
LINE
8
BLACK
6
CONTINUOUS
10
1.44498
20
-1.98317
11
1.45868
21
-1.98589
0
LINE
8
BLACK
6
CONTINUOUS
10
3.36334
20
-1.9549
11
3.3698
21
-1.95757
0
LINE
8
BLACK
6
CONTINUOUS
10
3.3698
20
-1.95757
11
3.37561
21
-1.96145
0
LINE
8
BLACK
6
CONTINUOUS
10
3.37561
20
-1.96145
11
3.38055
21
-1.96639
0
LINE
8
BLACK
6
CONTINUOUS
10
3.38055
20
-1.96639
11
3.38443
21
-1.9722
0
LINE
8
BLACK
6
CONTINUOUS
10
3.38443
20
-1.9722
11
3.3871
21
-1.97866
0
LINE
8
BLACK
6
CONTINUOUS
10
3.3871
20
-1.97866
11
3.38846
21
-1.98551
0
LINE
8
BLACK
6
CONTINUOUS
10
3.38846
20
-1.98551
11
3.38846
21
-1.99249
0
LINE
8
BLACK
6
CONTINUOUS
10
3.38846
20
-1.99249
11
3.3871
21
-1.99934
0
LINE
8
BLACK
6
CONTINUOUS
10
3.3871
20
-1.99934
11
3.38443
21
-2.0058
0
LINE
8
BLACK
6
CONTINUOUS
10
3.38443
20
-2.0058
11
3.38055
21
-2.01161
0
LINE
8
BLACK
6
CONTINUOUS
10
3.38055
20
-2.01161
11
3.37561
21
-2.01655
0
LINE
8
BLACK
6
CONTINUOUS
10
3.37561
20
-2.01655
11
3.3698
21
-2.02043
0
LINE
8
BLACK
6
CONTINUOUS
10
3.3698
20
-2.02043
11
3.36334
21
-2.0231
0
LINE
8
BLACK
6
CONTINUOUS
10
3.36334
20
-2.0231
11
3.35649
21
-2.02446
0
LINE
8
BLACK
6
CONTINUOUS
10
3.35649
20
-2.02446
11
3.34951
21
-2.02446
0
LINE
8
BLACK
6
CONTINUOUS
10
3.34951
20
-2.02446
11
3.34266
21
-2.0231
0
LINE
8
BLACK
6
CONTINUOUS
10
3.34266
20
-2.0231
11
3.3362
21
-2.02043
0
LINE
8
BLACK
6
CONTINUOUS
10
3.3362
20
-2.02043
11
3.33039
21
-2.01655
0
LINE
8
BLACK
6
CONTINUOUS
10
3.33039
20
-2.01655
11
3.32545
21
-2.01161
0
LINE
8
BLACK
6
CONTINUOUS
10
3.32545
20
-2.01161
11
3.32157
21
-2.0058
0
LINE
8
BLACK
6
CONTINUOUS
10
3.32157
20
-2.0058
11
3.3189
21
-1.99934
0
LINE
8
BLACK
6
CONTINUOUS
10
3.3189
20
-1.99934
11
3.31754
21
-1.99249
0
LINE
8
BLACK
6
CONTINUOUS
10
3.31754
20
-1.99249
11
3.31754
21
-1.98551
0
LINE
8
BLACK
6
CONTINUOUS
10
3.31754
20
-1.98551
11
3.3189
21
-1.97866
0
LINE
8
BLACK
6
CONTINUOUS
10
3.3189
20
-1.97866
11
3.32157
21
-1.9722
0
LINE
8
BLACK
6
CONTINUOUS
10
3.32157
20
-1.9722
11
3.32545
21
-1.96639
0
LINE
8
BLACK
6
CONTINUOUS
10
3.32545
20
-1.96639
11
3.33039
21
-1.96145
0
LINE
8
BLACK
6
CONTINUOUS
10
3.33039
20
-1.96145
11
3.3362
21
-1.95757
0
LINE
8
BLACK
6
CONTINUOUS
10
3.3362
20
-1.95757
11
3.34266
21
-1.9549
0
LINE
8
BLACK
6
CONTINUOUS
10
3.34266
20
-1.9549
11
3.34951
21
-1.95354
0
LINE
8
BLACK
6
CONTINUOUS
10
3.34951
20
-1.95354
11
3.35649
21
-1.95354
0
LINE
8
BLACK
6
CONTINUOUS
10
3.35649
20
-1.95354
11
3.36334
21
-1.9549
0
LINE
8
BLACK
6
CONTINUOUS
10
2.68135
20
-1.91479
11
2.68744
21
-1.91732
0
LINE
8
BLACK
6
CONTINUOUS
10
2.68744
20
-1.91732
11
2.69293
21
-1.92098
0
LINE
8
BLACK
6
CONTINUOUS
10
2.69293
20
-1.92098
11
2.69759
21
-1.92565
0
LINE
8
BLACK
6
CONTINUOUS
10
2.69759
20
-1.92565
11
2.70126
21
-1.93113
0
LINE
8
BLACK
6
CONTINUOUS
10
2.70126
20
-1.93113
11
2.70378
21
-1.93723
0
LINE
8
BLACK
6
CONTINUOUS
10
2.70378
20
-1.93723
11
2.70507
21
-1.9437
0
LINE
8
BLACK
6
CONTINUOUS
10
2.70507
20
-1.9437
11
2.70507
21
-1.9503
0
LINE
8
BLACK
6
CONTINUOUS
10
2.70507
20
-1.9503
11
2.70378
21
-1.95677
0
LINE
8
BLACK
6
CONTINUOUS
10
2.70378
20
-1.95677
11
2.70126
21
-1.96287
0
LINE
8
BLACK
6
CONTINUOUS
10
2.70126
20
-1.96287
11
2.69759
21
-1.96835
0
LINE
8
BLACK
6
CONTINUOUS
10
2.69759
20
-1.96835
11
2.69293
21
-1.97302
0
LINE
8
BLACK
6
CONTINUOUS
10
2.69293
20
-1.97302
11
2.68744
21
-1.97668
0
LINE
8
BLACK
6
CONTINUOUS
10
2.68744
20
-1.97668
11
2.68135
21
-1.97921
0
LINE
8
BLACK
6
CONTINUOUS
10
2.68135
20
-1.97921
11
2.67487
21
-1.9805
0
LINE
8
BLACK
6
CONTINUOUS
10
2.67487
20
-1.9805
11
2.66828
21
-1.9805
0
LINE
8
BLACK
6
CONTINUOUS
10
2.66828
20
-1.9805
11
2.6618
21
-1.97921
0
LINE
8
BLACK
6
CONTINUOUS
10
2.6618
20
-1.97921
11
2.65571
21
-1.97668
0
LINE
8
BLACK
6
CONTINUOUS
10
2.65571
20
-1.97668
11
2.65022
21
-1.97302
0
LINE
8
BLACK
6
CONTINUOUS
10
2.65022
20
-1.97302
11
2.64556
21
-1.96835
0
LINE
8
BLACK
6
CONTINUOUS
10
2.64556
20
-1.96835
11
2.64189
21
-1.96287
0
LINE
8
BLACK
6
CONTINUOUS
10
2.64189
20
-1.96287
11
2.63937
21
-1.95677
0
LINE
8
BLACK
6
CONTINUOUS
10
2.63937
20
-1.95677
11
2.63808
21
-1.9503
0
LINE
8
BLACK
6
CONTINUOUS
10
2.63808
20
-1.9503
11
2.63808
21
-1.9437
0
LINE
8
BLACK
6
CONTINUOUS
10
2.63808
20
-1.9437
11
2.63937
21
-1.93723
0
LINE
8
BLACK
6
CONTINUOUS
10
2.63937
20
-1.93723
11
2.64189
21
-1.93113
0
LINE
8
BLACK
6
CONTINUOUS
10
2.64189
20
-1.93113
11
2.64556
21
-1.92565
0
LINE
8
BLACK
6
CONTINUOUS
10
2.64556
20
-1.92565
11
2.65022
21
-1.92098
0
LINE
8
BLACK
6
CONTINUOUS
10
2.65022
20
-1.92098
11
2.65571
21
-1.91732
0
LINE
8
BLACK
6
CONTINUOUS
10
2.65571
20
-1.91732
11
2.6618
21
-1.91479
0
LINE
8
BLACK
6
CONTINUOUS
10
2.6618
20
-1.91479
11
2.66828
21
-1.9135
0
LINE
8
BLACK
6
CONTINUOUS
10
2.66828
20
-1.9135
11
2.67487
21
-1.9135
0
LINE
8
BLACK
6
CONTINUOUS
10
2.67487
20
-1.9135
11
2.68135
21
-1.91479
0
LINE
8
BLACK
6
CONTINUOUS
10
2.77977
20
-1.91479
11
2.78587
21
-1.91732
0
LINE
8
BLACK
6
CONTINUOUS
10
2.78587
20
-1.91732
11
2.79135
21
-1.92098
0
LINE
8
BLACK
6
CONTINUOUS
10
2.79135
20
-1.92098
11
2.79602
21
-1.92565
0
LINE
8
BLACK
6
CONTINUOUS
10
2.79602
20
-1.92565
11
2.79968
21
-1.93113
0
LINE
8
BLACK
6
CONTINUOUS
10
2.79968
20
-1.93113
11
2.80221
21
-1.93723
0
LINE
8
BLACK
6
CONTINUOUS
10
2.80221
20
-1.93723
11
2.8035
21
-1.9437
0
LINE
8
BLACK
6
CONTINUOUS
10
2.8035
20
-1.9437
11
2.8035
21
-1.9503
0
LINE
8
BLACK
6
CONTINUOUS
10
2.8035
20
-1.9503
11
2.80221
21
-1.95677
0
LINE
8
BLACK
6
CONTINUOUS
10
2.80221
20
-1.95677
11
2.79968
21
-1.96287
0
LINE
8
BLACK
6
CONTINUOUS
10
2.79968
20
-1.96287
11
2.79602
21
-1.96835
0
LINE
8
BLACK
6
CONTINUOUS
10
2.79602
20
-1.96835
11
2.79135
21
-1.97302
0
LINE
8
BLACK
6
CONTINUOUS
10
2.79135
20
-1.97302
11
2.78587
21
-1.97668
0
LINE
8
BLACK
6
CONTINUOUS
10
2.78587
20
-1.97668
11
2.77977
21
-1.97921
0
LINE
8
BLACK
6
CONTINUOUS
10
2.77977
20
-1.97921
11
2.7733
21
-1.9805
0
LINE
8
BLACK
6
CONTINUOUS
10
2.7733
20
-1.9805
11
2.7667
21
-1.9805
0
LINE
8
BLACK
6
CONTINUOUS
10
2.7667
20
-1.9805
11
2.76023
21
-1.97921
0
LINE
8
BLACK
6
CONTINUOUS
10
2.76023
20
-1.97921
11
2.75413
21
-1.97668
0
LINE
8
BLACK
6
CONTINUOUS
10
2.75413
20
-1.97668
11
2.74865
21
-1.97302
0
LINE
8
BLACK
6
CONTINUOUS
10
2.74865
20
-1.97302
11
2.74398
21
-1.96835
0
LINE
8
BLACK
6
CONTINUOUS
10
2.74398
20
-1.96835
11
2.74032
21
-1.96287
0
LINE
8
BLACK
6
CONTINUOUS
10
2.74032
20
-1.96287
11
2.73779
21
-1.95677
0
LINE
8
BLACK
6
CONTINUOUS
10
2.73779
20
-1.95677
11
2.7365
21
-1.9503
0
LINE
8
BLACK
6
CONTINUOUS
10
2.7365
20
-1.9503
11
2.7365
21
-1.9437
0
LINE
8
BLACK
6
CONTINUOUS
10
2.7365
20
-1.9437
11
2.73779
21
-1.93723
0
LINE
8
BLACK
6
CONTINUOUS
10
2.73779
20
-1.93723
11
2.74032
21
-1.93113
0
LINE
8
BLACK
6
CONTINUOUS
10
2.74032
20
-1.93113
11
2.74398
21
-1.92565
0
LINE
8
BLACK
6
CONTINUOUS
10
2.74398
20
-1.92565
11
2.74865
21
-1.92098
0
LINE
8
BLACK
6
CONTINUOUS
10
2.74865
20
-1.92098
11
2.75413
21
-1.91732
0
LINE
8
BLACK
6
CONTINUOUS
10
2.75413
20
-1.91732
11
2.76023
21
-1.91479
0
LINE
8
BLACK
6
CONTINUOUS
10
2.76023
20
-1.91479
11
2.7667
21
-1.9135
0
LINE
8
BLACK
6
CONTINUOUS
10
2.7667
20
-1.9135
11
2.7733
21
-1.9135
0
LINE
8
BLACK
6
CONTINUOUS
10
2.7733
20
-1.9135
11
2.77977
21
-1.91479
0
LINE
8
BLACK
6
CONTINUOUS
10
3.36334
20
-1.8549
11
3.3698
21
-1.85757
0
LINE
8
BLACK
6
CONTINUOUS
10
3.3698
20
-1.85757
11
3.37561
21
-1.86145
0
LINE
8
BLACK
6
CONTINUOUS
10
3.37561
20
-1.86145
11
3.38055
21
-1.86639
0
LINE
8
BLACK
6
CONTINUOUS
10
3.38055
20
-1.86639
11
3.38443
21
-1.8722
0
LINE
8
BLACK
6
CONTINUOUS
10
3.38443
20
-1.8722
11
3.3871
21
-1.87866
0
LINE
8
BLACK
6
CONTINUOUS
10
3.3871
20
-1.87866
11
3.38846
21
-1.88551
0
LINE
8
BLACK
6
CONTINUOUS
10
3.38846
20
-1.88551
11
3.38846
21
-1.89249
0
LINE
8
BLACK
6
CONTINUOUS
10
3.38846
20
-1.89249
11
3.3871
21
-1.89934
0
LINE
8
BLACK
6
CONTINUOUS
10
3.3871
20
-1.89934
11
3.38443
21
-1.9058
0
LINE
8
BLACK
6
CONTINUOUS
10
3.38443
20
-1.9058
11
3.38055
21
-1.91161
0
LINE
8
BLACK
6
CONTINUOUS
10
3.38055
20
-1.91161
11
3.37561
21
-1.91655
0
LINE
8
BLACK
6
CONTINUOUS
10
3.37561
20
-1.91655
11
3.3698
21
-1.92043
0
LINE
8
BLACK
6
CONTINUOUS
10
3.3698
20
-1.92043
11
3.36334
21
-1.9231
0
LINE
8
BLACK
6
CONTINUOUS
10
3.36334
20
-1.9231
11
3.35649
21
-1.92446
0
LINE
8
BLACK
6
CONTINUOUS
10
3.35649
20
-1.92446
11
3.34951
21
-1.92446
0
LINE
8
BLACK
6
CONTINUOUS
10
3.34951
20
-1.92446
11
3.34266
21
-1.9231
0
LINE
8
BLACK
6
CONTINUOUS
10
3.34266
20
-1.9231
11
3.3362
21
-1.92043
0
LINE
8
BLACK
6
CONTINUOUS
10
3.3362
20
-1.92043
11
3.33039
21
-1.91655
0
LINE
8
BLACK
6
CONTINUOUS
10
3.33039
20
-1.91655
11
3.32545
21
-1.91161
0
LINE
8
BLACK
6
CONTINUOUS
10
3.32545
20
-1.91161
11
3.32157
21
-1.9058
0
LINE
8
BLACK
6
CONTINUOUS
10
3.32157
20
-1.9058
11
3.3189
21
-1.89934
0
LINE
8
BLACK
6
CONTINUOUS
10
3.3189
20
-1.89934
11
3.31754
21
-1.89249
0
LINE
8
BLACK
6
CONTINUOUS
10
3.31754
20
-1.89249
11
3.31754
21
-1.88551
0
LINE
8
BLACK
6
CONTINUOUS
10
3.31754
20
-1.88551
11
3.3189
21
-1.87866
0
LINE
8
BLACK
6
CONTINUOUS
10
3.3189
20
-1.87866
11
3.32157
21
-1.8722
0
LINE
8
BLACK
6
CONTINUOUS
10
3.32157
20
-1.8722
11
3.32545
21
-1.86639
0
LINE
8
BLACK
6
CONTINUOUS
10
3.32545
20
-1.86639
11
3.33039
21
-1.86145
0
LINE
8
BLACK
6
CONTINUOUS
10
3.33039
20
-1.86145
11
3.3362
21
-1.85757
0
LINE
8
BLACK
6
CONTINUOUS
10
3.3362
20
-1.85757
11
3.34266
21
-1.8549
0
LINE
8
BLACK
6
CONTINUOUS
10
3.34266
20
-1.8549
11
3.34951
21
-1.85354
0
LINE
8
BLACK
6
CONTINUOUS
10
3.34951
20
-1.85354
11
3.35649
21
-1.85354
0
LINE
8
BLACK
6
CONTINUOUS
10
3.35649
20
-1.85354
11
3.36334
21
-1.8549
0
LINE
8
BLACK
6
CONTINUOUS
10
1.42694
20
-1.84454
11
1.43232
21
-1.84677
0
LINE
8
BLACK
6
CONTINUOUS
10
1.43232
20
-1.84677
11
1.43716
21
-1.85
0
LINE
8
BLACK
6
CONTINUOUS
10
1.43716
20
-1.85
11
1.44127
21
-1.85412
0
LINE
8
BLACK
6
CONTINUOUS
10
1.44127
20
-1.85412
11
1.44451
21
-1.85896
0
LINE
8
BLACK
6
CONTINUOUS
10
1.44451
20
-1.85896
11
1.44674
21
-1.86434
0
LINE
8
BLACK
6
CONTINUOUS
10
1.44674
20
-1.86434
11
1.44787
21
-1.87005
0
LINE
8
BLACK
6
CONTINUOUS
10
1.44787
20
-1.87005
11
1.44787
21
-1.87587
0
LINE
8
BLACK
6
CONTINUOUS
10
1.44787
20
-1.87587
11
1.44674
21
-1.88158
0
LINE
8
BLACK
6
CONTINUOUS
10
1.44674
20
-1.88158
11
1.44451
21
-1.88696
0
LINE
8
BLACK
6
CONTINUOUS
10
1.44451
20
-1.88696
11
1.44127
21
-1.8918
0
LINE
8
BLACK
6
CONTINUOUS
10
1.44127
20
-1.8918
11
1.43716
21
-1.89592
0
LINE
8
BLACK
6
CONTINUOUS
10
1.43716
20
-1.89592
11
1.43232
21
-1.89916
0
LINE
8
BLACK
6
CONTINUOUS
10
1.43232
20
-1.89916
11
1.42694
21
-1.90138
0
LINE
8
BLACK
6
CONTINUOUS
10
1.42694
20
-1.90138
11
1.42123
21
-1.90252
0
LINE
8
BLACK
6
CONTINUOUS
10
1.42123
20
-1.90252
11
1.4154
21
-1.90252
0
LINE
8
BLACK
6
CONTINUOUS
10
1.4154
20
-1.90252
11
1.40969
21
-1.90138
0
LINE
8
BLACK
6
CONTINUOUS
10
1.40969
20
-1.90138
11
1.40431
21
-1.89916
0
LINE
8
BLACK
6
CONTINUOUS
10
1.40431
20
-1.89916
11
1.39947
21
-1.89592
0
LINE
8
BLACK
6
CONTINUOUS
10
1.39947
20
-1.89592
11
1.39535
21
-1.8918
0
LINE
8
BLACK
6
CONTINUOUS
10
1.39535
20
-1.8918
11
1.39212
21
-1.88696
0
LINE
8
BLACK
6
CONTINUOUS
10
1.39212
20
-1.88696
11
1.38989
21
-1.88158
0
LINE
8
BLACK
6
CONTINUOUS
10
1.38989
20
-1.88158
11
1.38876
21
-1.87587
0
LINE
8
BLACK
6
CONTINUOUS
10
1.38876
20
-1.87587
11
1.38876
21
-1.87005
0
LINE
8
BLACK
6
CONTINUOUS
10
1.38876
20
-1.87005
11
1.38989
21
-1.86434
0
LINE
8
BLACK
6
CONTINUOUS
10
1.38989
20
-1.86434
11
1.39212
21
-1.85896
0
LINE
8
BLACK
6
CONTINUOUS
10
1.39212
20
-1.85896
11
1.39535
21
-1.85412
0
LINE
8
BLACK
6
CONTINUOUS
10
1.39535
20
-1.85412
11
1.39947
21
-1.85
0
LINE
8
BLACK
6
CONTINUOUS
10
1.39947
20
-1.85
11
1.40431
21
-1.84677
0
LINE
8
BLACK
6
CONTINUOUS
10
1.40431
20
-1.84677
11
1.40969
21
-1.84454
0
LINE
8
BLACK
6
CONTINUOUS
10
1.40969
20
-1.84454
11
1.4154
21
-1.8434
0
LINE
8
BLACK
6
CONTINUOUS
10
1.4154
20
-1.8434
11
1.42123
21
-1.8434
0
LINE
8
BLACK
6
CONTINUOUS
10
1.42123
20
-1.8434
11
1.42694
21
-1.84454
0
LINE
8
BLACK
6
CONTINUOUS
10
1.82834
20
-1.8309
11
1.8348
21
-1.83357
0
LINE
8
BLACK
6
CONTINUOUS
10
1.8348
20
-1.83357
11
1.84061
21
-1.83745
0
LINE
8
BLACK
6
CONTINUOUS
10
1.84061
20
-1.83745
11
1.84555
21
-1.84239
0
LINE
8
BLACK
6
CONTINUOUS
10
1.84555
20
-1.84239
11
1.84943
21
-1.8482
0
LINE
8
BLACK
6
CONTINUOUS
10
1.84943
20
-1.8482
11
1.8521
21
-1.85466
0
LINE
8
BLACK
6
CONTINUOUS
10
1.8521
20
-1.85466
11
1.85346
21
-1.86151
0
LINE
8
BLACK
6
CONTINUOUS
10
1.85346
20
-1.86151
11
1.85346
21
-1.86849
0
LINE
8
BLACK
6
CONTINUOUS
10
1.85346
20
-1.86849
11
1.8521
21
-1.87534
0
LINE
8
BLACK
6
CONTINUOUS
10
1.8521
20
-1.87534
11
1.84943
21
-1.8818
0
LINE
8
BLACK
6
CONTINUOUS
10
1.84943
20
-1.8818
11
1.84555
21
-1.88761
0
LINE
8
BLACK
6
CONTINUOUS
10
1.84555
20
-1.88761
11
1.84061
21
-1.89255
0
LINE
8
BLACK
6
CONTINUOUS
10
1.84061
20
-1.89255
11
1.8348
21
-1.89643
0
LINE
8
BLACK
6
CONTINUOUS
10
1.8348
20
-1.89643
11
1.82834
21
-1.8991
0
LINE
8
BLACK
6
CONTINUOUS
10
1.82834
20
-1.8991
11
1.82149
21
-1.90046
0
LINE
8
BLACK
6
CONTINUOUS
10
1.82149
20
-1.90046
11
1.81451
21
-1.90046
0
LINE
8
BLACK
6
CONTINUOUS
10
1.81451
20
-1.90046
11
1.80766
21
-1.8991
0
LINE
8
BLACK
6
CONTINUOUS
10
1.80766
20
-1.8991
11
1.8012
21
-1.89643
0
LINE
8
BLACK
6
CONTINUOUS
10
1.8012
20
-1.89643
11
1.79539
21
-1.89255
0
LINE
8
BLACK
6
CONTINUOUS
10
1.79539
20
-1.89255
11
1.79045
21
-1.88761
0
LINE
8
BLACK
6
CONTINUOUS
10
1.79045
20
-1.88761
11
1.78657
21
-1.8818
0
LINE
8
BLACK
6
CONTINUOUS
10
1.78657
20
-1.8818
11
1.7839
21
-1.87534
0
LINE
8
BLACK
6
CONTINUOUS
10
1.7839
20
-1.87534
11
1.78254
21
-1.86849
0
LINE
8
BLACK
6
CONTINUOUS
10
1.78254
20
-1.86849
11
1.78254
21
-1.86151
0
LINE
8
BLACK
6
CONTINUOUS
10
1.78254
20
-1.86151
11
1.7839
21
-1.85466
0
LINE
8
BLACK
6
CONTINUOUS
10
1.7839
20
-1.85466
11
1.78657
21
-1.8482
0
LINE
8
BLACK
6
CONTINUOUS
10
1.78657
20
-1.8482
11
1.79045
21
-1.84239
0
LINE
8
BLACK
6
CONTINUOUS
10
1.79045
20
-1.84239
11
1.79539
21
-1.83745
0
LINE
8
BLACK
6
CONTINUOUS
10
1.79539
20
-1.83745
11
1.8012
21
-1.83357
0
LINE
8
BLACK
6
CONTINUOUS
10
1.8012
20
-1.83357
11
1.80766
21
-1.8309
0
LINE
8
BLACK
6
CONTINUOUS
10
1.80766
20
-1.8309
11
1.81451
21
-1.82954
0
LINE
8
BLACK
6
CONTINUOUS
10
1.81451
20
-1.82954
11
1.82149
21
-1.82954
0
LINE
8
BLACK
6
CONTINUOUS
10
1.82149
20
-1.82954
11
1.82834
21
-1.8309
0
LINE
8
BLACK
6
CONTINUOUS
10
1.50371
20
-1.81895
11
1.50909
21
-1.82118
0
LINE
8
BLACK
6
CONTINUOUS
10
1.50909
20
-1.82118
11
1.51393
21
-1.82441
0
LINE
8
BLACK
6
CONTINUOUS
10
1.51393
20
-1.82441
11
1.51805
21
-1.82853
0
LINE
8
BLACK
6
CONTINUOUS
10
1.51805
20
-1.82853
11
1.52128
21
-1.83337
0
LINE
8
BLACK
6
CONTINUOUS
10
1.52128
20
-1.83337
11
1.52351
21
-1.83875
0
LINE
8
BLACK
6
CONTINUOUS
10
1.52351
20
-1.83875
11
1.52465
21
-1.84446
0
LINE
8
BLACK
6
CONTINUOUS
10
1.52465
20
-1.84446
11
1.52465
21
-1.85028
0
LINE
8
BLACK
6
CONTINUOUS
10
1.52465
20
-1.85028
11
1.52351
21
-1.85599
0
LINE
8
BLACK
6
CONTINUOUS
10
1.52351
20
-1.85599
11
1.52128
21
-1.86137
0
LINE
8
BLACK
6
CONTINUOUS
10
1.52128
20
-1.86137
11
1.51805
21
-1.86621
0
LINE
8
BLACK
6
CONTINUOUS
10
1.51805
20
-1.86621
11
1.51393
21
-1.87033
0
LINE
8
BLACK
6
CONTINUOUS
10
1.51393
20
-1.87033
11
1.50909
21
-1.87356
0
LINE
8
BLACK
6
CONTINUOUS
10
1.50909
20
-1.87356
11
1.50371
21
-1.87579
0
LINE
8
BLACK
6
CONTINUOUS
10
1.50371
20
-1.87579
11
1.498
21
-1.87693
0
LINE
8
BLACK
6
CONTINUOUS
10
1.498
20
-1.87693
11
1.49218
21
-1.87693
0
LINE
8
BLACK
6
CONTINUOUS
10
1.49218
20
-1.87693
11
1.48646
21
-1.87579
0
LINE
8
BLACK
6
CONTINUOUS
10
1.48646
20
-1.87579
11
1.48109
21
-1.87356
0
LINE
8
BLACK
6
CONTINUOUS
10
1.48109
20
-1.87356
11
1.47624
21
-1.87033
0
LINE
8
BLACK
6
CONTINUOUS
10
1.47624
20
-1.87033
11
1.47213
21
-1.86621
0
LINE
8
BLACK
6
CONTINUOUS
10
1.47213
20
-1.86621
11
1.46889
21
-1.86137
0
LINE
8
BLACK
6
CONTINUOUS
10
1.46889
20
-1.86137
11
1.46666
21
-1.85599
0
LINE
8
BLACK
6
CONTINUOUS
10
1.46666
20
-1.85599
11
1.46553
21
-1.85028
0
LINE
8
BLACK
6
CONTINUOUS
10
1.46553
20
-1.85028
11
1.46553
21
-1.84446
0
LINE
8
BLACK
6
CONTINUOUS
10
1.46553
20
-1.84446
11
1.46666
21
-1.83875
0
LINE
8
BLACK
6
CONTINUOUS
10
1.46666
20
-1.83875
11
1.46889
21
-1.83337
0
LINE
8
BLACK
6
CONTINUOUS
10
1.46889
20
-1.83337
11
1.47213
21
-1.82853
0
LINE
8
BLACK
6
CONTINUOUS
10
1.47213
20
-1.82853
11
1.47624
21
-1.82441
0
LINE
8
BLACK
6
CONTINUOUS
10
1.47624
20
-1.82441
11
1.48109
21
-1.82118
0
LINE
8
BLACK
6
CONTINUOUS
10
1.48109
20
-1.82118
11
1.48646
21
-1.81895
0
LINE
8
BLACK
6
CONTINUOUS
10
1.48646
20
-1.81895
11
1.49218
21
-1.81781
0
LINE
8
BLACK
6
CONTINUOUS
10
1.49218
20
-1.81781
11
1.498
21
-1.81781
0
LINE
8
BLACK
6
CONTINUOUS
10
1.498
20
-1.81781
11
1.50371
21
-1.81895
0
LINE
8
BLACK
6
CONTINUOUS
10
2.05162
20
-1.77458
11
2.057
21
-1.77681
0
LINE
8
BLACK
6
CONTINUOUS
10
2.057
20
-1.77681
11
2.06184
21
-1.78004
0
LINE
8
BLACK
6
CONTINUOUS
10
2.06184
20
-1.78004
11
2.06596
21
-1.78416
0
LINE
8
BLACK
6
CONTINUOUS
10
2.06596
20
-1.78416
11
2.06919
21
-1.789
0
LINE
8
BLACK
6
CONTINUOUS
10
2.06919
20
-1.789
11
2.07142
21
-1.79438
0
LINE
8
BLACK
6
CONTINUOUS
10
2.07142
20
-1.79438
11
2.07256
21
-1.80009
0
LINE
8
BLACK
6
CONTINUOUS
10
2.07256
20
-1.80009
11
2.07256
21
-1.80591
0
LINE
8
BLACK
6
CONTINUOUS
10
2.07256
20
-1.80591
11
2.07142
21
-1.81162
0
LINE
8
BLACK
6
CONTINUOUS
10
2.07142
20
-1.81162
11
2.06919
21
-1.817
0
LINE
8
BLACK
6
CONTINUOUS
10
2.06919
20
-1.817
11
2.06596
21
-1.82184
0
LINE
8
BLACK
6
CONTINUOUS
10
2.06596
20
-1.82184
11
2.06184
21
-1.82596
0
LINE
8
BLACK
6
CONTINUOUS
10
2.06184
20
-1.82596
11
2.057
21
-1.82919
0
LINE
8
BLACK
6
CONTINUOUS
10
2.057
20
-1.82919
11
2.05162
21
-1.83142
0
LINE
8
BLACK
6
CONTINUOUS
10
2.05162
20
-1.83142
11
2.04591
21
-1.83256
0
LINE
8
BLACK
6
CONTINUOUS
10
2.04591
20
-1.83256
11
2.04009
21
-1.83256
0
LINE
8
BLACK
6
CONTINUOUS
10
2.04009
20
-1.83256
11
2.03438
21
-1.83142
0
LINE
8
BLACK
6
CONTINUOUS
10
2.03438
20
-1.83142
11
2.029
21
-1.82919
0
LINE
8
BLACK
6
CONTINUOUS
10
2.029
20
-1.82919
11
2.02416
21
-1.82596
0
LINE
8
BLACK
6
CONTINUOUS
10
2.02416
20
-1.82596
11
2.02004
21
-1.82184
0
LINE
8
BLACK
6
CONTINUOUS
10
2.02004
20
-1.82184
11
2.01681
21
-1.817
0
LINE
8
BLACK
6
CONTINUOUS
10
2.01681
20
-1.817
11
2.01458
21
-1.81162
0
LINE
8
BLACK
6
CONTINUOUS
10
2.01458
20
-1.81162
11
2.01344
21
-1.80591
0
LINE
8
BLACK
6
CONTINUOUS
10
2.01344
20
-1.80591
11
2.01344
21
-1.80009
0
LINE
8
BLACK
6
CONTINUOUS
10
2.01344
20
-1.80009
11
2.01458
21
-1.79438
0
LINE
8
BLACK
6
CONTINUOUS
10
2.01458
20
-1.79438
11
2.01681
21
-1.789
0
LINE
8
BLACK
6
CONTINUOUS
10
2.01681
20
-1.789
11
2.02004
21
-1.78416
0
LINE
8
BLACK
6
CONTINUOUS
10
2.02004
20
-1.78416
11
2.02416
21
-1.78004
0
LINE
8
BLACK
6
CONTINUOUS
10
2.02416
20
-1.78004
11
2.029
21
-1.77681
0
LINE
8
BLACK
6
CONTINUOUS
10
2.029
20
-1.77681
11
2.03438
21
-1.77458
0
LINE
8
BLACK
6
CONTINUOUS
10
2.03438
20
-1.77458
11
2.04009
21
-1.77344
0
LINE
8
BLACK
6
CONTINUOUS
10
2.04009
20
-1.77344
11
2.04591
21
-1.77344
0
LINE
8
BLACK
6
CONTINUOUS
10
2.04591
20
-1.77344
11
2.05162
21
-1.77458
0
LINE
8
BLACK
6
CONTINUOUS
10
2.25162
20
-1.77458
11
2.257
21
-1.77681
0
LINE
8
BLACK
6
CONTINUOUS
10
2.257
20
-1.77681
11
2.26184
21
-1.78004
0
LINE
8
BLACK
6
CONTINUOUS
10
2.26184
20
-1.78004
11
2.26596
21
-1.78416
0
LINE
8
BLACK
6
CONTINUOUS
10
2.26596
20
-1.78416
11
2.26919
21
-1.789
0
LINE
8
BLACK
6
CONTINUOUS
10
2.26919
20
-1.789
11
2.27142
21
-1.79438
0
LINE
8
BLACK
6
CONTINUOUS
10
2.27142
20
-1.79438
11
2.27256
21
-1.80009
0
LINE
8
BLACK
6
CONTINUOUS
10
2.27256
20
-1.80009
11
2.27256
21
-1.80591
0
LINE
8
BLACK
6
CONTINUOUS
10
2.27256
20
-1.80591
11
2.27142
21
-1.81162
0
LINE
8
BLACK
6
CONTINUOUS
10
2.27142
20
-1.81162
11
2.26919
21
-1.817
0
LINE
8
BLACK
6
CONTINUOUS
10
2.26919
20
-1.817
11
2.26596
21
-1.82184
0
LINE
8
BLACK
6
CONTINUOUS
10
2.26596
20
-1.82184
11
2.26184
21
-1.82596
0
LINE
8
BLACK
6
CONTINUOUS
10
2.26184
20
-1.82596
11
2.257
21
-1.82919
0
LINE
8
BLACK
6
CONTINUOUS
10
2.257
20
-1.82919
11
2.25162
21
-1.83142
0
LINE
8
BLACK
6
CONTINUOUS
10
2.25162
20
-1.83142
11
2.24591
21
-1.83256
0
LINE
8
BLACK
6
CONTINUOUS
10
2.24591
20
-1.83256
11
2.24009
21
-1.83256
0
LINE
8
BLACK
6
CONTINUOUS
10
2.24009
20
-1.83256
11
2.23438
21
-1.83142
0
LINE
8
BLACK
6
CONTINUOUS
10
2.23438
20
-1.83142
11
2.229
21
-1.82919
0
LINE
8
BLACK
6
CONTINUOUS
10
2.229
20
-1.82919
11
2.22416
21
-1.82596
0
LINE
8
BLACK
6
CONTINUOUS
10
2.22416
20
-1.82596
11
2.22004
21
-1.82184
0
LINE
8
BLACK
6
CONTINUOUS
10
2.22004
20
-1.82184
11
2.21681
21
-1.817
0
LINE
8
BLACK
6
CONTINUOUS
10
2.21681
20
-1.817
11
2.21458
21
-1.81162
0
LINE
8
BLACK
6
CONTINUOUS
10
2.21458
20
-1.81162
11
2.21344
21
-1.80591
0
LINE
8
BLACK
6
CONTINUOUS
10
2.21344
20
-1.80591
11
2.21344
21
-1.80009
0
LINE
8
BLACK
6
CONTINUOUS
10
2.21344
20
-1.80009
11
2.21458
21
-1.79438
0
LINE
8
BLACK
6
CONTINUOUS
10
2.21458
20
-1.79438
11
2.21681
21
-1.789
0
LINE
8
BLACK
6
CONTINUOUS
10
2.21681
20
-1.789
11
2.22004
21
-1.78416
0
LINE
8
BLACK
6
CONTINUOUS
10
2.22004
20
-1.78416
11
2.22416
21
-1.78004
0
LINE
8
BLACK
6
CONTINUOUS
10
2.22416
20
-1.78004
11
2.229
21
-1.77681
0
LINE
8
BLACK
6
CONTINUOUS
10
2.229
20
-1.77681
11
2.23438
21
-1.77458
0
LINE
8
BLACK
6
CONTINUOUS
10
2.23438
20
-1.77458
11
2.24009
21
-1.77344
0
LINE
8
BLACK
6
CONTINUOUS
10
2.24009
20
-1.77344
11
2.24591
21
-1.77344
0
LINE
8
BLACK
6
CONTINUOUS
10
2.24591
20
-1.77344
11
2.25162
21
-1.77458
0
LINE
8
BLACK
6
CONTINUOUS
10
3.36334
20
-1.7549
11
3.3698
21
-1.75757
0
LINE
8
BLACK
6
CONTINUOUS
10
3.3698
20
-1.75757
11
3.37561
21
-1.76145
0
LINE
8
BLACK
6
CONTINUOUS
10
3.37561
20
-1.76145
11
3.38055
21
-1.76639
0
LINE
8
BLACK
6
CONTINUOUS
10
3.38055
20
-1.76639
11
3.38443
21
-1.7722
0
LINE
8
BLACK
6
CONTINUOUS
10
3.38443
20
-1.7722
11
3.3871
21
-1.77866
0
LINE
8
BLACK
6
CONTINUOUS
10
3.3871
20
-1.77866
11
3.38846
21
-1.78551
0
LINE
8
BLACK
6
CONTINUOUS
10
3.38846
20
-1.78551
11
3.38846
21
-1.79249
0
LINE
8
BLACK
6
CONTINUOUS
10
3.38846
20
-1.79249
11
3.3871
21
-1.79934
0
LINE
8
BLACK
6
CONTINUOUS
10
3.3871
20
-1.79934
11
3.38443
21
-1.8058
0
LINE
8
BLACK
6
CONTINUOUS
10
3.38443
20
-1.8058
11
3.38055
21
-1.81161
0
LINE
8
BLACK
6
CONTINUOUS
10
3.38055
20
-1.81161
11
3.37561
21
-1.81655
0
LINE
8
BLACK
6
CONTINUOUS
10
3.37561
20
-1.81655
11
3.3698
21
-1.82043
0
LINE
8
BLACK
6
CONTINUOUS
10
3.3698
20
-1.82043
11
3.36334
21
-1.8231
0
LINE
8
BLACK
6
CONTINUOUS
10
3.36334
20
-1.8231
11
3.35649
21
-1.82446
0
LINE
8
BLACK
6
CONTINUOUS
10
3.35649
20
-1.82446
11
3.34951
21
-1.82446
0
LINE
8
BLACK
6
CONTINUOUS
10
3.34951
20
-1.82446
11
3.34266
21
-1.8231
0
LINE
8
BLACK
6
CONTINUOUS
10
3.34266
20
-1.8231
11
3.3362
21
-1.82043
0
LINE
8
BLACK
6
CONTINUOUS
10
3.3362
20
-1.82043
11
3.33039
21
-1.81655
0
LINE
8
BLACK
6
CONTINUOUS
10
3.33039
20
-1.81655
11
3.32545
21
-1.81161
0
LINE
8
BLACK
6
CONTINUOUS
10
3.32545
20
-1.81161
11
3.32157
21
-1.8058
0
LINE
8
BLACK
6
CONTINUOUS
10
3.32157
20
-1.8058
11
3.3189
21
-1.79934
0
LINE
8
BLACK
6
CONTINUOUS
10
3.3189
20
-1.79934
11
3.31754
21
-1.79249
0
LINE
8
BLACK
6
CONTINUOUS
10
3.31754
20
-1.79249
11
3.31754
21
-1.78551
0
LINE
8
BLACK
6
CONTINUOUS
10
3.31754
20
-1.78551
11
3.3189
21
-1.77866
0
LINE
8
BLACK
6
CONTINUOUS
10
3.3189
20
-1.77866
11
3.32157
21
-1.7722
0
LINE
8
BLACK
6
CONTINUOUS
10
3.32157
20
-1.7722
11
3.32545
21
-1.76639
0
LINE
8
BLACK
6
CONTINUOUS
10
3.32545
20
-1.76639
11
3.33039
21
-1.76145
0
LINE
8
BLACK
6
CONTINUOUS
10
3.33039
20
-1.76145
11
3.3362
21
-1.75757
0
LINE
8
BLACK
6
CONTINUOUS
10
3.3362
20
-1.75757
11
3.34266
21
-1.7549
0
LINE
8
BLACK
6
CONTINUOUS
10
3.34266
20
-1.7549
11
3.34951
21
-1.75354
0
LINE
8
BLACK
6
CONTINUOUS
10
3.34951
20
-1.75354
11
3.35649
21
-1.75354
0
LINE
8
BLACK
6
CONTINUOUS
10
3.35649
20
-1.75354
11
3.36334
21
-1.7549
0
LINE
8
BLACK
6
CONTINUOUS
10
1.85346
20
-1.80046
11
1.78254
21
-1.80046
0
LINE
8
BLACK
6
CONTINUOUS
10
1.78254
20
-1.80046
11
1.78254
21
-1.72954
0
LINE
8
BLACK
6
CONTINUOUS
10
1.78254
20
-1.72954
11
1.85346
21
-1.72954
0
LINE
8
BLACK
6
CONTINUOUS
10
1.85346
20
-1.72954
11
1.85346
21
-1.80046
0
LINE
8
BLACK
6
CONTINUOUS
10
1.50371
20
-1.74021
11
1.50909
21
-1.74243
0
LINE
8
BLACK
6
CONTINUOUS
10
1.50909
20
-1.74243
11
1.51393
21
-1.74567
0
LINE
8
BLACK
6
CONTINUOUS
10
1.51393
20
-1.74567
11
1.51805
21
-1.74979
0
LINE
8
BLACK
6
CONTINUOUS
10
1.51805
20
-1.74979
11
1.52128
21
-1.75463
0
LINE
8
BLACK
6
CONTINUOUS
10
1.52128
20
-1.75463
11
1.52351
21
-1.76001
0
LINE
8
BLACK
6
CONTINUOUS
10
1.52351
20
-1.76001
11
1.52465
21
-1.76572
0
LINE
8
BLACK
6
CONTINUOUS
10
1.52465
20
-1.76572
11
1.52465
21
-1.77154
0
LINE
8
BLACK
6
CONTINUOUS
10
1.52465
20
-1.77154
11
1.52351
21
-1.77725
0
LINE
8
BLACK
6
CONTINUOUS
10
1.52351
20
-1.77725
11
1.52128
21
-1.78263
0
LINE
8
BLACK
6
CONTINUOUS
10
1.52128
20
-1.78263
11
1.51805
21
-1.78747
0
LINE
8
BLACK
6
CONTINUOUS
10
1.51805
20
-1.78747
11
1.51393
21
-1.79159
0
LINE
8
BLACK
6
CONTINUOUS
10
1.51393
20
-1.79159
11
1.50909
21
-1.79482
0
LINE
8
BLACK
6
CONTINUOUS
10
1.50909
20
-1.79482
11
1.50371
21
-1.79705
0
LINE
8
BLACK
6
CONTINUOUS
10
1.50371
20
-1.79705
11
1.498
21
-1.79819
0
LINE
8
BLACK
6
CONTINUOUS
10
1.498
20
-1.79819
11
1.49218
21
-1.79819
0
LINE
8
BLACK
6
CONTINUOUS
10
1.49218
20
-1.79819
11
1.48646
21
-1.79705
0
LINE
8
BLACK
6
CONTINUOUS
10
1.48646
20
-1.79705
11
1.48109
21
-1.79482
0
LINE
8
BLACK
6
CONTINUOUS
10
1.48109
20
-1.79482
11
1.47624
21
-1.79159
0
LINE
8
BLACK
6
CONTINUOUS
10
1.47624
20
-1.79159
11
1.47213
21
-1.78747
0
LINE
8
BLACK
6
CONTINUOUS
10
1.47213
20
-1.78747
11
1.46889
21
-1.78263
0
LINE
8
BLACK
6
CONTINUOUS
10
1.46889
20
-1.78263
11
1.46666
21
-1.77725
0
LINE
8
BLACK
6
CONTINUOUS
10
1.46666
20
-1.77725
11
1.46553
21
-1.77154
0
LINE
8
BLACK
6
CONTINUOUS
10
1.46553
20
-1.77154
11
1.46553
21
-1.76572
0
LINE
8
BLACK
6
CONTINUOUS
10
1.46553
20
-1.76572
11
1.46666
21
-1.76001
0
LINE
8
BLACK
6
CONTINUOUS
10
1.46666
20
-1.76001
11
1.46889
21
-1.75463
0
LINE
8
BLACK
6
CONTINUOUS
10
1.46889
20
-1.75463
11
1.47213
21
-1.74979
0
LINE
8
BLACK
6
CONTINUOUS
10
1.47213
20
-1.74979
11
1.47624
21
-1.74567
0
LINE
8
BLACK
6
CONTINUOUS
10
1.47624
20
-1.74567
11
1.48109
21
-1.74243
0
LINE
8
BLACK
6
CONTINUOUS
10
1.48109
20
-1.74243
11
1.48646
21
-1.74021
0
LINE
8
BLACK
6
CONTINUOUS
10
1.48646
20
-1.74021
11
1.49218
21
-1.73907
0
LINE
8
BLACK
6
CONTINUOUS
10
1.49218
20
-1.73907
11
1.498
21
-1.73907
0
LINE
8
BLACK
6
CONTINUOUS
10
1.498
20
-1.73907
11
1.50371
21
-1.74021
0
LINE
8
BLACK
6
CONTINUOUS
10
1.42694
20
-1.71462
11
1.43232
21
-1.71684
0
LINE
8
BLACK
6
CONTINUOUS
10
1.43232
20
-1.71684
11
1.43716
21
-1.72008
0
LINE
8
BLACK
6
CONTINUOUS
10
1.43716
20
-1.72008
11
1.44127
21
-1.7242
0
LINE
8
BLACK
6
CONTINUOUS
10
1.44127
20
-1.7242
11
1.44451
21
-1.72904
0
LINE
8
BLACK
6
CONTINUOUS
10
1.44451
20
-1.72904
11
1.44674
21
-1.73442
0
LINE
8
BLACK
6
CONTINUOUS
10
1.44674
20
-1.73442
11
1.44787
21
-1.74013
0
LINE
8
BLACK
6
CONTINUOUS
10
1.44787
20
-1.74013
11
1.44787
21
-1.74595
0
LINE
8
BLACK
6
CONTINUOUS
10
1.44787
20
-1.74595
11
1.44674
21
-1.75166
0
LINE
8
BLACK
6
CONTINUOUS
10
1.44674
20
-1.75166
11
1.44451
21
-1.75704
0
LINE
8
BLACK
6
CONTINUOUS
10
1.44451
20
-1.75704
11
1.44127
21
-1.76188
0
LINE
8
BLACK
6
CONTINUOUS
10
1.44127
20
-1.76188
11
1.43716
21
-1.766
0
LINE
8
BLACK
6
CONTINUOUS
10
1.43716
20
-1.766
11
1.43232
21
-1.76923
0
LINE
8
BLACK
6
CONTINUOUS
10
1.43232
20
-1.76923
11
1.42694
21
-1.77146
0
LINE
8
BLACK
6
CONTINUOUS
10
1.42694
20
-1.77146
11
1.42123
21
-1.7726
0
LINE
8
BLACK
6
CONTINUOUS
10
1.42123
20
-1.7726
11
1.4154
21
-1.7726
0
LINE
8
BLACK
6
CONTINUOUS
10
1.4154
20
-1.7726
11
1.40969
21
-1.77146
0
LINE
8
BLACK
6
CONTINUOUS
10
1.40969
20
-1.77146
11
1.40431
21
-1.76923
0
LINE
8
BLACK
6
CONTINUOUS
10
1.40431
20
-1.76923
11
1.39947
21
-1.766
0
LINE
8
BLACK
6
CONTINUOUS
10
1.39947
20
-1.766
11
1.39535
21
-1.76188
0
LINE
8
BLACK
6
CONTINUOUS
10
1.39535
20
-1.76188
11
1.39212
21
-1.75704
0
LINE
8
BLACK
6
CONTINUOUS
10
1.39212
20
-1.75704
11
1.38989
21
-1.75166
0
LINE
8
BLACK
6
CONTINUOUS
10
1.38989
20
-1.75166
11
1.38876
21
-1.74595
0
LINE
8
BLACK
6
CONTINUOUS
10
1.38876
20
-1.74595
11
1.38876
21
-1.74013
0
LINE
8
BLACK
6
CONTINUOUS
10
1.38876
20
-1.74013
11
1.38989
21
-1.73442
0
LINE
8
BLACK
6
CONTINUOUS
10
1.38989
20
-1.73442
11
1.39212
21
-1.72904
0
LINE
8
BLACK
6
CONTINUOUS
10
1.39212
20
-1.72904
11
1.39535
21
-1.7242
0
LINE
8
BLACK
6
CONTINUOUS
10
1.39535
20
-1.7242
11
1.39947
21
-1.72008
0
LINE
8
BLACK
6
CONTINUOUS
10
1.39947
20
-1.72008
11
1.40431
21
-1.71684
0
LINE
8
BLACK
6
CONTINUOUS
10
1.40431
20
-1.71684
11
1.40969
21
-1.71462
0
LINE
8
BLACK
6
CONTINUOUS
10
1.40969
20
-1.71462
11
1.4154
21
-1.71348
0
LINE
8
BLACK
6
CONTINUOUS
10
1.4154
20
-1.71348
11
1.42123
21
-1.71348
0
LINE
8
BLACK
6
CONTINUOUS
10
1.42123
20
-1.71348
11
1.42694
21
-1.71462
0
LINE
8
BLACK
6
CONTINUOUS
10
2.68535
20
-1.70179
11
2.69144
21
-1.70432
0
LINE
8
BLACK
6
CONTINUOUS
10
2.69144
20
-1.70432
11
2.69693
21
-1.70798
0
LINE
8
BLACK
6
CONTINUOUS
10
2.69693
20
-1.70798
11
2.70159
21
-1.71265
0
LINE
8
BLACK
6
CONTINUOUS
10
2.70159
20
-1.71265
11
2.70526
21
-1.71813
0
LINE
8
BLACK
6
CONTINUOUS
10
2.70526
20
-1.71813
11
2.70778
21
-1.72423
0
LINE
8
BLACK
6
CONTINUOUS
10
2.70778
20
-1.72423
11
2.70907
21
-1.7307
0
LINE
8
BLACK
6
CONTINUOUS
10
2.70907
20
-1.7307
11
2.70907
21
-1.7373
0
LINE
8
BLACK
6
CONTINUOUS
10
2.70907
20
-1.7373
11
2.70778
21
-1.74377
0
LINE
8
BLACK
6
CONTINUOUS
10
2.70778
20
-1.74377
11
2.70526
21
-1.74987
0
LINE
8
BLACK
6
CONTINUOUS
10
2.70526
20
-1.74987
11
2.70159
21
-1.75535
0
LINE
8
BLACK
6
CONTINUOUS
10
2.70159
20
-1.75535
11
2.69693
21
-1.76002
0
LINE
8
BLACK
6
CONTINUOUS
10
2.69693
20
-1.76002
11
2.69144
21
-1.76368
0
LINE
8
BLACK
6
CONTINUOUS
10
2.69144
20
-1.76368
11
2.68535
21
-1.76621
0
LINE
8
BLACK
6
CONTINUOUS
10
2.68535
20
-1.76621
11
2.67887
21
-1.7675
0
LINE
8
BLACK
6
CONTINUOUS
10
2.67887
20
-1.7675
11
2.67228
21
-1.7675
0
LINE
8
BLACK
6
CONTINUOUS
10
2.67228
20
-1.7675
11
2.6658
21
-1.76621
0
LINE
8
BLACK
6
CONTINUOUS
10
2.6658
20
-1.76621
11
2.65971
21
-1.76368
0
LINE
8
BLACK
6
CONTINUOUS
10
2.65971
20
-1.76368
11
2.65422
21
-1.76002
0
LINE
8
BLACK
6
CONTINUOUS
10
2.65422
20
-1.76002
11
2.64956
21
-1.75535
0
LINE
8
BLACK
6
CONTINUOUS
10
2.64956
20
-1.75535
11
2.64589
21
-1.74987
0
LINE
8
BLACK
6
CONTINUOUS
10
2.64589
20
-1.74987
11
2.64337
21
-1.74377
0
LINE
8
BLACK
6
CONTINUOUS
10
2.64337
20
-1.74377
11
2.64208
21
-1.7373
0
LINE
8
BLACK
6
CONTINUOUS
10
2.64208
20
-1.7373
11
2.64208
21
-1.7307
0
LINE
8
BLACK
6
CONTINUOUS
10
2.64208
20
-1.7307
11
2.64337
21
-1.72423
0
LINE
8
BLACK
6
CONTINUOUS
10
2.64337
20
-1.72423
11
2.64589
21
-1.71813
0
LINE
8
BLACK
6
CONTINUOUS
10
2.64589
20
-1.71813
11
2.64956
21
-1.71265
0
LINE
8
BLACK
6
CONTINUOUS
10
2.64956
20
-1.71265
11
2.65422
21
-1.70798
0
LINE
8
BLACK
6
CONTINUOUS
10
2.65422
20
-1.70798
11
2.65971
21
-1.70432
0
LINE
8
BLACK
6
CONTINUOUS
10
2.65971
20
-1.70432
11
2.6658
21
-1.70179
0
LINE
8
BLACK
6
CONTINUOUS
10
2.6658
20
-1.70179
11
2.67228
21
-1.7005
0
LINE
8
BLACK
6
CONTINUOUS
10
2.67228
20
-1.7005
11
2.67887
21
-1.7005
0
LINE
8
BLACK
6
CONTINUOUS
10
2.67887
20
-1.7005
11
2.68535
21
-1.70179
0
LINE
8
BLACK
6
CONTINUOUS
10
2.78377
20
-1.70179
11
2.78987
21
-1.70432
0
LINE
8
BLACK
6
CONTINUOUS
10
2.78987
20
-1.70432
11
2.79535
21
-1.70798
0
LINE
8
BLACK
6
CONTINUOUS
10
2.79535
20
-1.70798
11
2.80002
21
-1.71265
0
LINE
8
BLACK
6
CONTINUOUS
10
2.80002
20
-1.71265
11
2.80368
21
-1.71813
0
LINE
8
BLACK
6
CONTINUOUS
10
2.80368
20
-1.71813
11
2.80621
21
-1.72423
0
LINE
8
BLACK
6
CONTINUOUS
10
2.80621
20
-1.72423
11
2.8075
21
-1.7307
0
LINE
8
BLACK
6
CONTINUOUS
10
2.8075
20
-1.7307
11
2.8075
21
-1.7373
0
LINE
8
BLACK
6
CONTINUOUS
10
2.8075
20
-1.7373
11
2.80621
21
-1.74377
0
LINE
8
BLACK
6
CONTINUOUS
10
2.80621
20
-1.74377
11
2.80368
21
-1.74987
0
LINE
8
BLACK
6
CONTINUOUS
10
2.80368
20
-1.74987
11
2.80002
21
-1.75535
0
LINE
8
BLACK
6
CONTINUOUS
10
2.80002
20
-1.75535
11
2.79535
21
-1.76002
0
LINE
8
BLACK
6
CONTINUOUS
10
2.79535
20
-1.76002
11
2.78987
21
-1.76368
0
LINE
8
BLACK
6
CONTINUOUS
10
2.78987
20
-1.76368
11
2.78377
21
-1.76621
0
LINE
8
BLACK
6
CONTINUOUS
10
2.78377
20
-1.76621
11
2.7773
21
-1.7675
0
LINE
8
BLACK
6
CONTINUOUS
10
2.7773
20
-1.7675
11
2.7707
21
-1.7675
0
LINE
8
BLACK
6
CONTINUOUS
10
2.7707
20
-1.7675
11
2.76423
21
-1.76621
0
LINE
8
BLACK
6
CONTINUOUS
10
2.76423
20
-1.76621
11
2.75813
21
-1.76368
0
LINE
8
BLACK
6
CONTINUOUS
10
2.75813
20
-1.76368
11
2.75265
21
-1.76002
0
LINE
8
BLACK
6
CONTINUOUS
10
2.75265
20
-1.76002
11
2.74798
21
-1.75535
0
LINE
8
BLACK
6
CONTINUOUS
10
2.74798
20
-1.75535
11
2.74432
21
-1.74987
0
LINE
8
BLACK
6
CONTINUOUS
10
2.74432
20
-1.74987
11
2.74179
21
-1.74377
0
LINE
8
BLACK
6
CONTINUOUS
10
2.74179
20
-1.74377
11
2.7405
21
-1.7373
0
LINE
8
BLACK
6
CONTINUOUS
10
2.7405
20
-1.7373
11
2.7405
21
-1.7307
0
LINE
8
BLACK
6
CONTINUOUS
10
2.7405
20
-1.7307
11
2.74179
21
-1.72423
0
LINE
8
BLACK
6
CONTINUOUS
10
2.74179
20
-1.72423
11
2.74432
21
-1.71813
0
LINE
8
BLACK
6
CONTINUOUS
10
2.74432
20
-1.71813
11
2.74798
21
-1.71265
0
LINE
8
BLACK
6
CONTINUOUS
10
2.74798
20
-1.71265
11
2.75265
21
-1.70798
0
LINE
8
BLACK
6
CONTINUOUS
10
2.75265
20
-1.70798
11
2.75813
21
-1.70432
0
LINE
8
BLACK
6
CONTINUOUS
10
2.75813
20
-1.70432
11
2.76423
21
-1.70179
0
LINE
8
BLACK
6
CONTINUOUS
10
2.76423
20
-1.70179
11
2.7707
21
-1.7005
0
LINE
8
BLACK
6
CONTINUOUS
10
2.7707
20
-1.7005
11
2.7773
21
-1.7005
0
LINE
8
BLACK
6
CONTINUOUS
10
2.7773
20
-1.7005
11
2.78377
21
-1.70179
0
LINE
8
BLACK
6
CONTINUOUS
10
2.05162
20
-1.68858
11
2.057
21
-1.69081
0
LINE
8
BLACK
6
CONTINUOUS
10
2.057
20
-1.69081
11
2.06184
21
-1.69404
0
LINE
8
BLACK
6
CONTINUOUS
10
2.06184
20
-1.69404
11
2.06596
21
-1.69816
0
LINE
8
BLACK
6
CONTINUOUS
10
2.06596
20
-1.69816
11
2.06919
21
-1.703
0
LINE
8
BLACK
6
CONTINUOUS
10
2.06919
20
-1.703
11
2.07142
21
-1.70838
0
LINE
8
BLACK
6
CONTINUOUS
10
2.07142
20
-1.70838
11
2.07256
21
-1.71409
0
LINE
8
BLACK
6
CONTINUOUS
10
2.07256
20
-1.71409
11
2.07256
21
-1.71991
0
LINE
8
BLACK
6
CONTINUOUS
10
2.07256
20
-1.71991
11
2.07142
21
-1.72562
0
LINE
8
BLACK
6
CONTINUOUS
10
2.07142
20
-1.72562
11
2.06919
21
-1.731
0
LINE
8
BLACK
6
CONTINUOUS
10
2.06919
20
-1.731
11
2.06596
21
-1.73584
0
LINE
8
BLACK
6
CONTINUOUS
10
2.06596
20
-1.73584
11
2.06184
21
-1.73996
0
LINE
8
BLACK
6
CONTINUOUS
10
2.06184
20
-1.73996
11
2.057
21
-1.74319
0
LINE
8
BLACK
6
CONTINUOUS
10
2.057
20
-1.74319
11
2.05162
21
-1.74542
0
LINE
8
BLACK
6
CONTINUOUS
10
2.05162
20
-1.74542
11
2.04591
21
-1.74656
0
LINE
8
BLACK
6
CONTINUOUS
10
2.04591
20
-1.74656
11
2.04009
21
-1.74656
0
LINE
8
BLACK
6
CONTINUOUS
10
2.04009
20
-1.74656
11
2.03438
21
-1.74542
0
LINE
8
BLACK
6
CONTINUOUS
10
2.03438
20
-1.74542
11
2.029
21
-1.74319
0
LINE
8
BLACK
6
CONTINUOUS
10
2.029
20
-1.74319
11
2.02416
21
-1.73996
0
LINE
8
BLACK
6
CONTINUOUS
10
2.02416
20
-1.73996
11
2.02004
21
-1.73584
0
LINE
8
BLACK
6
CONTINUOUS
10
2.02004
20
-1.73584
11
2.01681
21
-1.731
0
LINE
8
BLACK
6
CONTINUOUS
10
2.01681
20
-1.731
11
2.01458
21
-1.72562
0
LINE
8
BLACK
6
CONTINUOUS
10
2.01458
20
-1.72562
11
2.01344
21
-1.71991
0
LINE
8
BLACK
6
CONTINUOUS
10
2.01344
20
-1.71991
11
2.01344
21
-1.71409
0
LINE
8
BLACK
6
CONTINUOUS
10
2.01344
20
-1.71409
11
2.01458
21
-1.70838
0
LINE
8
BLACK
6
CONTINUOUS
10
2.01458
20
-1.70838
11
2.01681
21
-1.703
0
LINE
8
BLACK
6
CONTINUOUS
10
2.01681
20
-1.703
11
2.02004
21
-1.69816
0
LINE
8
BLACK
6
CONTINUOUS
10
2.02004
20
-1.69816
11
2.02416
21
-1.69404
0
LINE
8
BLACK
6
CONTINUOUS
10
2.02416
20
-1.69404
11
2.029
21
-1.69081
0
LINE
8
BLACK
6
CONTINUOUS
10
2.029
20
-1.69081
11
2.03438
21
-1.68858
0
LINE
8
BLACK
6
CONTINUOUS
10
2.03438
20
-1.68858
11
2.04009
21
-1.68744
0
LINE
8
BLACK
6
CONTINUOUS
10
2.04009
20
-1.68744
11
2.04591
21
-1.68744
0
LINE
8
BLACK
6
CONTINUOUS
10
2.04591
20
-1.68744
11
2.05162
21
-1.68858
0
LINE
8
BLACK
6
CONTINUOUS
10
2.25162
20
-1.68858
11
2.257
21
-1.69081
0
LINE
8
BLACK
6
CONTINUOUS
10
2.257
20
-1.69081
11
2.26184
21
-1.69404
0
LINE
8
BLACK
6
CONTINUOUS
10
2.26184
20
-1.69404
11
2.26596
21
-1.69816
0
LINE
8
BLACK
6
CONTINUOUS
10
2.26596
20
-1.69816
11
2.26919
21
-1.703
0
LINE
8
BLACK
6
CONTINUOUS
10
2.26919
20
-1.703
11
2.27142
21
-1.70838
0
LINE
8
BLACK
6
CONTINUOUS
10
2.27142
20
-1.70838
11
2.27256
21
-1.71409
0
LINE
8
BLACK
6
CONTINUOUS
10
2.27256
20
-1.71409
11
2.27256
21
-1.71991
0
LINE
8
BLACK
6
CONTINUOUS
10
2.27256
20
-1.71991
11
2.27142
21
-1.72562
0
LINE
8
BLACK
6
CONTINUOUS
10
2.27142
20
-1.72562
11
2.26919
21
-1.731
0
LINE
8
BLACK
6
CONTINUOUS
10
2.26919
20
-1.731
11
2.26596
21
-1.73584
0
LINE
8
BLACK
6
CONTINUOUS
10
2.26596
20
-1.73584
11
2.26184
21
-1.73996
0
LINE
8
BLACK
6
CONTINUOUS
10
2.26184
20
-1.73996
11
2.257
21
-1.74319
0
LINE
8
BLACK
6
CONTINUOUS
10
2.257
20
-1.74319
11
2.25162
21
-1.74542
0
LINE
8
BLACK
6
CONTINUOUS
10
2.25162
20
-1.74542
11
2.24591
21
-1.74656
0
LINE
8
BLACK
6
CONTINUOUS
10
2.24591
20
-1.74656
11
2.24009
21
-1.74656
0
LINE
8
BLACK
6
CONTINUOUS
10
2.24009
20
-1.74656
11
2.23438
21
-1.74542
0
LINE
8
BLACK
6
CONTINUOUS
10
2.23438
20
-1.74542
11
2.229
21
-1.74319
0
LINE
8
BLACK
6
CONTINUOUS
10
2.229
20
-1.74319
11
2.22416
21
-1.73996
0
LINE
8
BLACK
6
CONTINUOUS
10
2.22416
20
-1.73996
11
2.22004
21
-1.73584
0
LINE
8
BLACK
6
CONTINUOUS
10
2.22004
20
-1.73584
11
2.21681
21
-1.731
0
LINE
8
BLACK
6
CONTINUOUS
10
2.21681
20
-1.731
11
2.21458
21
-1.72562
0
LINE
8
BLACK
6
CONTINUOUS
10
2.21458
20
-1.72562
11
2.21344
21
-1.71991
0
LINE
8
BLACK
6
CONTINUOUS
10
2.21344
20
-1.71991
11
2.21344
21
-1.71409
0
LINE
8
BLACK
6
CONTINUOUS
10
2.21344
20
-1.71409
11
2.21458
21
-1.70838
0
LINE
8
BLACK
6
CONTINUOUS
10
2.21458
20
-1.70838
11
2.21681
21
-1.703
0
LINE
8
BLACK
6
CONTINUOUS
10
2.21681
20
-1.703
11
2.22004
21
-1.69816
0
LINE
8
BLACK
6
CONTINUOUS
10
2.22004
20
-1.69816
11
2.22416
21
-1.69404
0
LINE
8
BLACK
6
CONTINUOUS
10
2.22416
20
-1.69404
11
2.229
21
-1.69081
0
LINE
8
BLACK
6
CONTINUOUS
10
2.229
20
-1.69081
11
2.23438
21
-1.68858
0
LINE
8
BLACK
6
CONTINUOUS
10
2.23438
20
-1.68858
11
2.24009
21
-1.68744
0
LINE
8
BLACK
6
CONTINUOUS
10
2.24009
20
-1.68744
11
2.24591
21
-1.68744
0
LINE
8
BLACK
6
CONTINUOUS
10
2.24591
20
-1.68744
11
2.25162
21
-1.68858
0
LINE
8
BLACK
6
CONTINUOUS
10
3.38846
20
-1.72446
11
3.31754
21
-1.72446
0
LINE
8
BLACK
6
CONTINUOUS
10
3.31754
20
-1.72446
11
3.31754
21
-1.65354
0
LINE
8
BLACK
6
CONTINUOUS
10
3.31754
20
-1.65354
11
3.38846
21
-1.65354
0
LINE
8
BLACK
6
CONTINUOUS
10
3.38846
20
-1.65354
11
3.38846
21
-1.72446
0
LINE
8
BLACK
6
CONTINUOUS
10
1.45868
20
-1.49376
11
1.47158
21
-1.49911
0
LINE
8
BLACK
6
CONTINUOUS
10
1.47158
20
-1.49911
11
1.48319
21
-1.50687
0
LINE
8
BLACK
6
CONTINUOUS
10
1.48319
20
-1.50687
11
1.49307
21
-1.51674
0
LINE
8
BLACK
6
CONTINUOUS
10
1.49307
20
-1.51674
11
1.50083
21
-1.52835
0
LINE
8
BLACK
6
CONTINUOUS
10
1.50083
20
-1.52835
11
1.50617
21
-1.54126
0
LINE
8
BLACK
6
CONTINUOUS
10
1.50617
20
-1.54126
11
1.5089
21
-1.55495
0
LINE
8
BLACK
6
CONTINUOUS
10
1.5089
20
-1.55495
11
1.5089
21
-1.56892
0
LINE
8
BLACK
6
CONTINUOUS
10
1.5089
20
-1.56892
11
1.50617
21
-1.58262
0
LINE
8
BLACK
6
CONTINUOUS
10
1.50617
20
-1.58262
11
1.50083
21
-1.59552
0
LINE
8
BLACK
6
CONTINUOUS
10
1.50083
20
-1.59552
11
1.49307
21
-1.60713
0
LINE
8
BLACK
6
CONTINUOUS
10
1.49307
20
-1.60713
11
1.48319
21
-1.61701
0
LINE
8
BLACK
6
CONTINUOUS
10
1.48319
20
-1.61701
11
1.47158
21
-1.62477
0
LINE
8
BLACK
6
CONTINUOUS
10
1.47158
20
-1.62477
11
1.45868
21
-1.63011
0
LINE
8
BLACK
6
CONTINUOUS
10
1.45868
20
-1.63011
11
1.44498
21
-1.63283
0
LINE
8
BLACK
6
CONTINUOUS
10
1.44498
20
-1.63283
11
1.43102
21
-1.63283
0
LINE
8
BLACK
6
CONTINUOUS
10
1.43102
20
-1.63283
11
1.41732
21
-1.63011
0
LINE
8
BLACK
6
CONTINUOUS
10
1.41732
20
-1.63011
11
1.40442
21
-1.62477
0
LINE
8
BLACK
6
CONTINUOUS
10
1.40442
20
-1.62477
11
1.39281
21
-1.61701
0
LINE
8
BLACK
6
CONTINUOUS
10
1.39281
20
-1.61701
11
1.38293
21
-1.60713
0
LINE
8
BLACK
6
CONTINUOUS
10
1.38293
20
-1.60713
11
1.37517
21
-1.59552
0
LINE
8
BLACK
6
CONTINUOUS
10
1.37517
20
-1.59552
11
1.36983
21
-1.58262
0
LINE
8
BLACK
6
CONTINUOUS
10
1.36983
20
-1.58262
11
1.3671
21
-1.56892
0
LINE
8
BLACK
6
CONTINUOUS
10
1.3671
20
-1.56892
11
1.3671
21
-1.55495
0
LINE
8
BLACK
6
CONTINUOUS
10
1.3671
20
-1.55495
11
1.36983
21
-1.54126
0
LINE
8
BLACK
6
CONTINUOUS
10
1.36983
20
-1.54126
11
1.37517
21
-1.52835
0
LINE
8
BLACK
6
CONTINUOUS
10
1.37517
20
-1.52835
11
1.38293
21
-1.51674
0
LINE
8
BLACK
6
CONTINUOUS
10
1.38293
20
-1.51674
11
1.39281
21
-1.50687
0
LINE
8
BLACK
6
CONTINUOUS
10
1.39281
20
-1.50687
11
1.40442
21
-1.49911
0
LINE
8
BLACK
6
CONTINUOUS
10
1.40442
20
-1.49911
11
1.41732
21
-1.49376
0
LINE
8
BLACK
6
CONTINUOUS
10
1.41732
20
-1.49376
11
1.43102
21
-1.49104
0
LINE
8
BLACK
6
CONTINUOUS
10
1.43102
20
-1.49104
11
1.44498
21
-1.49104
0
LINE
8
BLACK
6
CONTINUOUS
10
1.44498
20
-1.49104
11
1.45868
21
-1.49376
0
LINE
8
BLACK
6
CONTINUOUS
10
1.22296
20
-1.49551
11
1.23479
21
-1.5004
0
LINE
8
BLACK
6
CONTINUOUS
10
1.23479
20
-1.5004
11
1.24543
21
-1.50752
0
LINE
8
BLACK
6
CONTINUOUS
10
1.24543
20
-1.50752
11
1.25448
21
-1.51657
0
LINE
8
BLACK
6
CONTINUOUS
10
1.25448
20
-1.51657
11
1.2616
21
-1.52721
0
LINE
8
BLACK
6
CONTINUOUS
10
1.2616
20
-1.52721
11
1.26649
21
-1.53904
0
LINE
8
BLACK
6
CONTINUOUS
10
1.26649
20
-1.53904
11
1.26899
21
-1.5516
0
LINE
8
BLACK
6
CONTINUOUS
10
1.26899
20
-1.5516
11
1.26899
21
-1.5644
0
LINE
8
BLACK
6
CONTINUOUS
10
1.26899
20
-1.5644
11
1.26649
21
-1.57696
0
LINE
8
BLACK
6
CONTINUOUS
10
1.26649
20
-1.57696
11
1.2616
21
-1.58879
0
LINE
8
BLACK
6
CONTINUOUS
10
1.2616
20
-1.58879
11
1.25448
21
-1.59943
0
LINE
8
BLACK
6
CONTINUOUS
10
1.25448
20
-1.59943
11
1.24543
21
-1.60848
0
LINE
8
BLACK
6
CONTINUOUS
10
1.24543
20
-1.60848
11
1.23479
21
-1.6156
0
LINE
8
BLACK
6
CONTINUOUS
10
1.23479
20
-1.6156
11
1.22296
21
-1.62049
0
LINE
8
BLACK
6
CONTINUOUS
10
1.22296
20
-1.62049
11
1.2104
21
-1.62299
0
LINE
8
BLACK
6
CONTINUOUS
10
1.2104
20
-1.62299
11
1.1976
21
-1.62299
0
LINE
8
BLACK
6
CONTINUOUS
10
1.1976
20
-1.62299
11
1.18504
21
-1.62049
0
LINE
8
BLACK
6
CONTINUOUS
10
1.18504
20
-1.62049
11
1.17321
21
-1.6156
0
LINE
8
BLACK
6
CONTINUOUS
10
1.17321
20
-1.6156
11
1.16257
21
-1.60848
0
LINE
8
BLACK
6
CONTINUOUS
10
1.16257
20
-1.60848
11
1.15352
21
-1.59943
0
LINE
8
BLACK
6
CONTINUOUS
10
1.15352
20
-1.59943
11
1.1464
21
-1.58879
0
LINE
8
BLACK
6
CONTINUOUS
10
1.1464
20
-1.58879
11
1.14151
21
-1.57696
0
LINE
8
BLACK
6
CONTINUOUS
10
1.14151
20
-1.57696
11
1.13901
21
-1.5644
0
LINE
8
BLACK
6
CONTINUOUS
10
1.13901
20
-1.5644
11
1.13901
21
-1.5516
0
LINE
8
BLACK
6
CONTINUOUS
10
1.13901
20
-1.5516
11
1.14151
21
-1.53904
0
LINE
8
BLACK
6
CONTINUOUS
10
1.14151
20
-1.53904
11
1.1464
21
-1.52721
0
LINE
8
BLACK
6
CONTINUOUS
10
1.1464
20
-1.52721
11
1.15352
21
-1.51657
0
LINE
8
BLACK
6
CONTINUOUS
10
1.15352
20
-1.51657
11
1.16257
21
-1.50752
0
LINE
8
BLACK
6
CONTINUOUS
10
1.16257
20
-1.50752
11
1.17321
21
-1.5004
0
LINE
8
BLACK
6
CONTINUOUS
10
1.17321
20
-1.5004
11
1.18504
21
-1.49551
0
LINE
8
BLACK
6
CONTINUOUS
10
1.18504
20
-1.49551
11
1.1976
21
-1.49301
0
LINE
8
BLACK
6
CONTINUOUS
10
1.1976
20
-1.49301
11
1.2104
21
-1.49301
0
LINE
8
BLACK
6
CONTINUOUS
10
1.2104
20
-1.49301
11
1.22296
21
-1.49551
0
LINE
8
BLACK
6
CONTINUOUS
10
2.01077
20
-1.48179
11
2.01687
21
-1.48432
0
LINE
8
BLACK
6
CONTINUOUS
10
2.01687
20
-1.48432
11
2.02235
21
-1.48798
0
LINE
8
BLACK
6
CONTINUOUS
10
2.02235
20
-1.48798
11
2.02702
21
-1.49265
0
LINE
8
BLACK
6
CONTINUOUS
10
2.02702
20
-1.49265
11
2.03068
21
-1.49813
0
LINE
8
BLACK
6
CONTINUOUS
10
2.03068
20
-1.49813
11
2.03321
21
-1.50423
0
LINE
8
BLACK
6
CONTINUOUS
10
2.03321
20
-1.50423
11
2.0345
21
-1.5107
0
LINE
8
BLACK
6
CONTINUOUS
10
2.0345
20
-1.5107
11
2.0345
21
-1.5173
0
LINE
8
BLACK
6
CONTINUOUS
10
2.0345
20
-1.5173
11
2.03321
21
-1.52377
0
LINE
8
BLACK
6
CONTINUOUS
10
2.03321
20
-1.52377
11
2.03068
21
-1.52987
0
LINE
8
BLACK
6
CONTINUOUS
10
2.03068
20
-1.52987
11
2.02702
21
-1.53535
0
LINE
8
BLACK
6
CONTINUOUS
10
2.02702
20
-1.53535
11
2.02235
21
-1.54002
0
LINE
8
BLACK
6
CONTINUOUS
10
2.02235
20
-1.54002
11
2.01687
21
-1.54368
0
LINE
8
BLACK
6
CONTINUOUS
10
2.01687
20
-1.54368
11
2.01077
21
-1.54621
0
LINE
8
BLACK
6
CONTINUOUS
10
2.01077
20
-1.54621
11
2.0043
21
-1.5475
0
LINE
8
BLACK
6
CONTINUOUS
10
2.0043
20
-1.5475
11
1.9977
21
-1.5475
0
LINE
8
BLACK
6
CONTINUOUS
10
1.9977
20
-1.5475
11
1.99123
21
-1.54621
0
LINE
8
BLACK
6
CONTINUOUS
10
1.99123
20
-1.54621
11
1.98513
21
-1.54368
0
LINE
8
BLACK
6
CONTINUOUS
10
1.98513
20
-1.54368
11
1.97965
21
-1.54002
0
LINE
8
BLACK
6
CONTINUOUS
10
1.97965
20
-1.54002
11
1.97498
21
-1.53535
0
LINE
8
BLACK
6
CONTINUOUS
10
1.97498
20
-1.53535
11
1.97132
21
-1.52987
0
LINE
8
BLACK
6
CONTINUOUS
10
1.97132
20
-1.52987
11
1.96879
21
-1.52377
0
LINE
8
BLACK
6
CONTINUOUS
10
1.96879
20
-1.52377
11
1.9675
21
-1.5173
0
LINE
8
BLACK
6
CONTINUOUS
10
1.9675
20
-1.5173
11
1.9675
21
-1.5107
0
LINE
8
BLACK
6
CONTINUOUS
10
1.9675
20
-1.5107
11
1.96879
21
-1.50423
0
LINE
8
BLACK
6
CONTINUOUS
10
1.96879
20
-1.50423
11
1.97132
21
-1.49813
0
LINE
8
BLACK
6
CONTINUOUS
10
1.97132
20
-1.49813
11
1.97498
21
-1.49265
0
LINE
8
BLACK
6
CONTINUOUS
10
1.97498
20
-1.49265
11
1.97965
21
-1.48798
0
LINE
8
BLACK
6
CONTINUOUS
10
1.97965
20
-1.48798
11
1.98513
21
-1.48432
0
LINE
8
BLACK
6
CONTINUOUS
10
1.98513
20
-1.48432
11
1.99123
21
-1.48179
0
LINE
8
BLACK
6
CONTINUOUS
10
1.99123
20
-1.48179
11
1.9977
21
-1.4805
0
LINE
8
BLACK
6
CONTINUOUS
10
1.9977
20
-1.4805
11
2.0043
21
-1.4805
0
LINE
8
BLACK
6
CONTINUOUS
10
2.0043
20
-1.4805
11
2.01077
21
-1.48179
0
LINE
8
BLACK
6
CONTINUOUS
10
3.11077
20
-1.48179
11
3.11687
21
-1.48432
0
LINE
8
BLACK
6
CONTINUOUS
10
3.11687
20
-1.48432
11
3.12235
21
-1.48798
0
LINE
8
BLACK
6
CONTINUOUS
10
3.12235
20
-1.48798
11
3.12702
21
-1.49265
0
LINE
8
BLACK
6
CONTINUOUS
10
3.12702
20
-1.49265
11
3.13068
21
-1.49813
0
LINE
8
BLACK
6
CONTINUOUS
10
3.13068
20
-1.49813
11
3.13321
21
-1.50423
0
LINE
8
BLACK
6
CONTINUOUS
10
3.13321
20
-1.50423
11
3.1345
21
-1.5107
0
LINE
8
BLACK
6
CONTINUOUS
10
3.1345
20
-1.5107
11
3.1345
21
-1.5173
0
LINE
8
BLACK
6
CONTINUOUS
10
3.1345
20
-1.5173
11
3.13321
21
-1.52377
0
LINE
8
BLACK
6
CONTINUOUS
10
3.13321
20
-1.52377
11
3.13068
21
-1.52987
0
LINE
8
BLACK
6
CONTINUOUS
10
3.13068
20
-1.52987
11
3.12702
21
-1.53535
0
LINE
8
BLACK
6
CONTINUOUS
10
3.12702
20
-1.53535
11
3.12235
21
-1.54002
0
LINE
8
BLACK
6
CONTINUOUS
10
3.12235
20
-1.54002
11
3.11687
21
-1.54368
0
LINE
8
BLACK
6
CONTINUOUS
10
3.11687
20
-1.54368
11
3.11077
21
-1.54621
0
LINE
8
BLACK
6
CONTINUOUS
10
3.11077
20
-1.54621
11
3.1043
21
-1.5475
0
LINE
8
BLACK
6
CONTINUOUS
10
3.1043
20
-1.5475
11
3.0977
21
-1.5475
0
LINE
8
BLACK
6
CONTINUOUS
10
3.0977
20
-1.5475
11
3.09123
21
-1.54621
0
LINE
8
BLACK
6
CONTINUOUS
10
3.09123
20
-1.54621
11
3.08513
21
-1.54368
0
LINE
8
BLACK
6
CONTINUOUS
10
3.08513
20
-1.54368
11
3.07965
21
-1.54002
0
LINE
8
BLACK
6
CONTINUOUS
10
3.07965
20
-1.54002
11
3.07498
21
-1.53535
0
LINE
8
BLACK
6
CONTINUOUS
10
3.07498
20
-1.53535
11
3.07132
21
-1.52987
0
LINE
8
BLACK
6
CONTINUOUS
10
3.07132
20
-1.52987
11
3.06879
21
-1.52377
0
LINE
8
BLACK
6
CONTINUOUS
10
3.06879
20
-1.52377
11
3.0675
21
-1.5173
0
LINE
8
BLACK
6
CONTINUOUS
10
3.0675
20
-1.5173
11
3.0675
21
-1.5107
0
LINE
8
BLACK
6
CONTINUOUS
10
3.0675
20
-1.5107
11
3.06879
21
-1.50423
0
LINE
8
BLACK
6
CONTINUOUS
10
3.06879
20
-1.50423
11
3.07132
21
-1.49813
0
LINE
8
BLACK
6
CONTINUOUS
10
3.07132
20
-1.49813
11
3.07498
21
-1.49265
0
LINE
8
BLACK
6
CONTINUOUS
10
3.07498
20
-1.49265
11
3.07965
21
-1.48798
0
LINE
8
BLACK
6
CONTINUOUS
10
3.07965
20
-1.48798
11
3.08513
21
-1.48432
0
LINE
8
BLACK
6
CONTINUOUS
10
3.08513
20
-1.48432
11
3.09123
21
-1.48179
0
LINE
8
BLACK
6
CONTINUOUS
10
3.09123
20
-1.48179
11
3.0977
21
-1.4805
0
LINE
8
BLACK
6
CONTINUOUS
10
3.0977
20
-1.4805
11
3.1043
21
-1.4805
0
LINE
8
BLACK
6
CONTINUOUS
10
3.1043
20
-1.4805
11
3.11077
21
-1.48179
0
LINE
8
BLACK
6
CONTINUOUS
10
3.01077
20
-1.48179
11
3.01687
21
-1.48432
0
LINE
8
BLACK
6
CONTINUOUS
10
3.01687
20
-1.48432
11
3.02235
21
-1.48798
0
LINE
8
BLACK
6
CONTINUOUS
10
3.02235
20
-1.48798
11
3.02702
21
-1.49265
0
LINE
8
BLACK
6
CONTINUOUS
10
3.02702
20
-1.49265
11
3.03068
21
-1.49813
0
LINE
8
BLACK
6
CONTINUOUS
10
3.03068
20
-1.49813
11
3.03321
21
-1.50423
0
LINE
8
BLACK
6
CONTINUOUS
10
3.03321
20
-1.50423
11
3.0345
21
-1.5107
0
LINE
8
BLACK
6
CONTINUOUS
10
3.0345
20
-1.5107
11
3.0345
21
-1.5173
0
LINE
8
BLACK
6
CONTINUOUS
10
3.0345
20
-1.5173
11
3.03321
21
-1.52377
0
LINE
8
BLACK
6
CONTINUOUS
10
3.03321
20
-1.52377
11
3.03068
21
-1.52987
0
LINE
8
BLACK
6
CONTINUOUS
10
3.03068
20
-1.52987
11
3.02702
21
-1.53535
0
LINE
8
BLACK
6
CONTINUOUS
10
3.02702
20
-1.53535
11
3.02235
21
-1.54002
0
LINE
8
BLACK
6
CONTINUOUS
10
3.02235
20
-1.54002
11
3.01687
21
-1.54368
0
LINE
8
BLACK
6
CONTINUOUS
10
3.01687
20
-1.54368
11
3.01077
21
-1.54621
0
LINE
8
BLACK
6
CONTINUOUS
10
3.01077
20
-1.54621
11
3.0043
21
-1.5475
0
LINE
8
BLACK
6
CONTINUOUS
10
3.0043
20
-1.5475
11
2.9977
21
-1.5475
0
LINE
8
BLACK
6
CONTINUOUS
10
2.9977
20
-1.5475
11
2.99123
21
-1.54621
0
LINE
8
BLACK
6
CONTINUOUS
10
2.99123
20
-1.54621
11
2.98513
21
-1.54368
0
LINE
8
BLACK
6
CONTINUOUS
10
2.98513
20
-1.54368
11
2.97965
21
-1.54002
0
LINE
8
BLACK
6
CONTINUOUS
10
2.97965
20
-1.54002
11
2.97498
21
-1.53535
0
LINE
8
BLACK
6
CONTINUOUS
10
2.97498
20
-1.53535
11
2.97132
21
-1.52987
0
LINE
8
BLACK
6
CONTINUOUS
10
2.97132
20
-1.52987
11
2.96879
21
-1.52377
0
LINE
8
BLACK
6
CONTINUOUS
10
2.96879
20
-1.52377
11
2.9675
21
-1.5173
0
LINE
8
BLACK
6
CONTINUOUS
10
2.9675
20
-1.5173
11
2.9675
21
-1.5107
0
LINE
8
BLACK
6
CONTINUOUS
10
2.9675
20
-1.5107
11
2.96879
21
-1.50423
0
LINE
8
BLACK
6
CONTINUOUS
10
2.96879
20
-1.50423
11
2.97132
21
-1.49813
0
LINE
8
BLACK
6
CONTINUOUS
10
2.97132
20
-1.49813
11
2.97498
21
-1.49265
0
LINE
8
BLACK
6
CONTINUOUS
10
2.97498
20
-1.49265
11
2.97965
21
-1.48798
0
LINE
8
BLACK
6
CONTINUOUS
10
2.97965
20
-1.48798
11
2.98513
21
-1.48432
0
LINE
8
BLACK
6
CONTINUOUS
10
2.98513
20
-1.48432
11
2.99123
21
-1.48179
0
LINE
8
BLACK
6
CONTINUOUS
10
2.99123
20
-1.48179
11
2.9977
21
-1.4805
0
LINE
8
BLACK
6
CONTINUOUS
10
2.9977
20
-1.4805
11
3.0043
21
-1.4805
0
LINE
8
BLACK
6
CONTINUOUS
10
3.0043
20
-1.4805
11
3.01077
21
-1.48179
0
LINE
8
BLACK
6
CONTINUOUS
10
2.91077
20
-1.48179
11
2.91687
21
-1.48432
0
LINE
8
BLACK
6
CONTINUOUS
10
2.91687
20
-1.48432
11
2.92235
21
-1.48798
0
LINE
8
BLACK
6
CONTINUOUS
10
2.92235
20
-1.48798
11
2.92702
21
-1.49265
0
LINE
8
BLACK
6
CONTINUOUS
10
2.92702
20
-1.49265
11
2.93068
21
-1.49813
0
LINE
8
BLACK
6
CONTINUOUS
10
2.93068
20
-1.49813
11
2.93321
21
-1.50423
0
LINE
8
BLACK
6
CONTINUOUS
10
2.93321
20
-1.50423
11
2.9345
21
-1.5107
0
LINE
8
BLACK
6
CONTINUOUS
10
2.9345
20
-1.5107
11
2.9345
21
-1.5173
0
LINE
8
BLACK
6
CONTINUOUS
10
2.9345
20
-1.5173
11
2.93321
21
-1.52377
0
LINE
8
BLACK
6
CONTINUOUS
10
2.93321
20
-1.52377
11
2.93068
21
-1.52987
0
LINE
8
BLACK
6
CONTINUOUS
10
2.93068
20
-1.52987
11
2.92702
21
-1.53535
0
LINE
8
BLACK
6
CONTINUOUS
10
2.92702
20
-1.53535
11
2.92235
21
-1.54002
0
LINE
8
BLACK
6
CONTINUOUS
10
2.92235
20
-1.54002
11
2.91687
21
-1.54368
0
LINE
8
BLACK
6
CONTINUOUS
10
2.91687
20
-1.54368
11
2.91077
21
-1.54621
0
LINE
8
BLACK
6
CONTINUOUS
10
2.91077
20
-1.54621
11
2.9043
21
-1.5475
0
LINE
8
BLACK
6
CONTINUOUS
10
2.9043
20
-1.5475
11
2.8977
21
-1.5475
0
LINE
8
BLACK
6
CONTINUOUS
10
2.8977
20
-1.5475
11
2.89123
21
-1.54621
0
LINE
8
BLACK
6
CONTINUOUS
10
2.89123
20
-1.54621
11
2.88513
21
-1.54368
0
LINE
8
BLACK
6
CONTINUOUS
10
2.88513
20
-1.54368
11
2.87965
21
-1.54002
0
LINE
8
BLACK
6
CONTINUOUS
10
2.87965
20
-1.54002
11
2.87498
21
-1.53535
0
LINE
8
BLACK
6
CONTINUOUS
10
2.87498
20
-1.53535
11
2.87132
21
-1.52987
0
LINE
8
BLACK
6
CONTINUOUS
10
2.87132
20
-1.52987
11
2.86879
21
-1.52377
0
LINE
8
BLACK
6
CONTINUOUS
10
2.86879
20
-1.52377
11
2.8675
21
-1.5173
0
LINE
8
BLACK
6
CONTINUOUS
10
2.8675
20
-1.5173
11
2.8675
21
-1.5107
0
LINE
8
BLACK
6
CONTINUOUS
10
2.8675
20
-1.5107
11
2.86879
21
-1.50423
0
LINE
8
BLACK
6
CONTINUOUS
10
2.86879
20
-1.50423
11
2.87132
21
-1.49813
0
LINE
8
BLACK
6
CONTINUOUS
10
2.87132
20
-1.49813
11
2.87498
21
-1.49265
0
LINE
8
BLACK
6
CONTINUOUS
10
2.87498
20
-1.49265
11
2.87965
21
-1.48798
0
LINE
8
BLACK
6
CONTINUOUS
10
2.87965
20
-1.48798
11
2.88513
21
-1.48432
0
LINE
8
BLACK
6
CONTINUOUS
10
2.88513
20
-1.48432
11
2.89123
21
-1.48179
0
LINE
8
BLACK
6
CONTINUOUS
10
2.89123
20
-1.48179
11
2.8977
21
-1.4805
0
LINE
8
BLACK
6
CONTINUOUS
10
2.8977
20
-1.4805
11
2.9043
21
-1.4805
0
LINE
8
BLACK
6
CONTINUOUS
10
2.9043
20
-1.4805
11
2.91077
21
-1.48179
0
LINE
8
BLACK
6
CONTINUOUS
10
2.81077
20
-1.48179
11
2.81687
21
-1.48432
0
LINE
8
BLACK
6
CONTINUOUS
10
2.81687
20
-1.48432
11
2.82235
21
-1.48798
0
LINE
8
BLACK
6
CONTINUOUS
10
2.82235
20
-1.48798
11
2.82702
21
-1.49265
0
LINE
8
BLACK
6
CONTINUOUS
10
2.82702
20
-1.49265
11
2.83068
21
-1.49813
0
LINE
8
BLACK
6
CONTINUOUS
10
2.83068
20
-1.49813
11
2.83321
21
-1.50423
0
LINE
8
BLACK
6
CONTINUOUS
10
2.83321
20
-1.50423
11
2.8345
21
-1.5107
0
LINE
8
BLACK
6
CONTINUOUS
10
2.8345
20
-1.5107
11
2.8345
21
-1.5173
0
LINE
8
BLACK
6
CONTINUOUS
10
2.8345
20
-1.5173
11
2.83321
21
-1.52377
0
LINE
8
BLACK
6
CONTINUOUS
10
2.83321
20
-1.52377
11
2.83068
21
-1.52987
0
LINE
8
BLACK
6
CONTINUOUS
10
2.83068
20
-1.52987
11
2.82702
21
-1.53535
0
LINE
8
BLACK
6
CONTINUOUS
10
2.82702
20
-1.53535
11
2.82235
21
-1.54002
0
LINE
8
BLACK
6
CONTINUOUS
10
2.82235
20
-1.54002
11
2.81687
21
-1.54368
0
LINE
8
BLACK
6
CONTINUOUS
10
2.81687
20
-1.54368
11
2.81077
21
-1.54621
0
LINE
8
BLACK
6
CONTINUOUS
10
2.81077
20
-1.54621
11
2.8043
21
-1.5475
0
LINE
8
BLACK
6
CONTINUOUS
10
2.8043
20
-1.5475
11
2.7977
21
-1.5475
0
LINE
8
BLACK
6
CONTINUOUS
10
2.7977
20
-1.5475
11
2.79123
21
-1.54621
0
LINE
8
BLACK
6
CONTINUOUS
10
2.79123
20
-1.54621
11
2.78513
21
-1.54368
0
LINE
8
BLACK
6
CONTINUOUS
10
2.78513
20
-1.54368
11
2.77965
21
-1.54002
0
LINE
8
BLACK
6
CONTINUOUS
10
2.77965
20
-1.54002
11
2.77498
21
-1.53535
0
LINE
8
BLACK
6
CONTINUOUS
10
2.77498
20
-1.53535
11
2.77132
21
-1.52987
0
LINE
8
BLACK
6
CONTINUOUS
10
2.77132
20
-1.52987
11
2.76879
21
-1.52377
0
LINE
8
BLACK
6
CONTINUOUS
10
2.76879
20
-1.52377
11
2.7675
21
-1.5173
0
LINE
8
BLACK
6
CONTINUOUS
10
2.7675
20
-1.5173
11
2.7675
21
-1.5107
0
LINE
8
BLACK
6
CONTINUOUS
10
2.7675
20
-1.5107
11
2.76879
21
-1.50423
0
LINE
8
BLACK
6
CONTINUOUS
10
2.76879
20
-1.50423
11
2.77132
21
-1.49813
0
LINE
8
BLACK
6
CONTINUOUS
10
2.77132
20
-1.49813
11
2.77498
21
-1.49265
0
LINE
8
BLACK
6
CONTINUOUS
10
2.77498
20
-1.49265
11
2.77965
21
-1.48798
0
LINE
8
BLACK
6
CONTINUOUS
10
2.77965
20
-1.48798
11
2.78513
21
-1.48432
0
LINE
8
BLACK
6
CONTINUOUS
10
2.78513
20
-1.48432
11
2.79123
21
-1.48179
0
LINE
8
BLACK
6
CONTINUOUS
10
2.79123
20
-1.48179
11
2.7977
21
-1.4805
0
LINE
8
BLACK
6
CONTINUOUS
10
2.7977
20
-1.4805
11
2.8043
21
-1.4805
0
LINE
8
BLACK
6
CONTINUOUS
10
2.8043
20
-1.4805
11
2.81077
21
-1.48179
0
LINE
8
BLACK
6
CONTINUOUS
10
2.71077
20
-1.48179
11
2.71687
21
-1.48432
0
LINE
8
BLACK
6
CONTINUOUS
10
2.71687
20
-1.48432
11
2.72235
21
-1.48798
0
LINE
8
BLACK
6
CONTINUOUS
10
2.72235
20
-1.48798
11
2.72702
21
-1.49265
0
LINE
8
BLACK
6
CONTINUOUS
10
2.72702
20
-1.49265
11
2.73068
21
-1.49813
0
LINE
8
BLACK
6
CONTINUOUS
10
2.73068
20
-1.49813
11
2.73321
21
-1.50423
0
LINE
8
BLACK
6
CONTINUOUS
10
2.73321
20
-1.50423
11
2.7345
21
-1.5107
0
LINE
8
BLACK
6
CONTINUOUS
10
2.7345
20
-1.5107
11
2.7345
21
-1.5173
0
LINE
8
BLACK
6
CONTINUOUS
10
2.7345
20
-1.5173
11
2.73321
21
-1.52377
0
LINE
8
BLACK
6
CONTINUOUS
10
2.73321
20
-1.52377
11
2.73068
21
-1.52987
0
LINE
8
BLACK
6
CONTINUOUS
10
2.73068
20
-1.52987
11
2.72702
21
-1.53535
0
LINE
8
BLACK
6
CONTINUOUS
10
2.72702
20
-1.53535
11
2.72235
21
-1.54002
0
LINE
8
BLACK
6
CONTINUOUS
10
2.72235
20
-1.54002
11
2.71687
21
-1.54368
0
LINE
8
BLACK
6
CONTINUOUS
10
2.71687
20
-1.54368
11
2.71077
21
-1.54621
0
LINE
8
BLACK
6
CONTINUOUS
10
2.71077
20
-1.54621
11
2.7043
21
-1.5475
0
LINE
8
BLACK
6
CONTINUOUS
10
2.7043
20
-1.5475
11
2.6977
21
-1.5475
0
LINE
8
BLACK
6
CONTINUOUS
10
2.6977
20
-1.5475
11
2.69123
21
-1.54621
0
LINE
8
BLACK
6
CONTINUOUS
10
2.69123
20
-1.54621
11
2.68513
21
-1.54368
0
LINE
8
BLACK
6
CONTINUOUS
10
2.68513
20
-1.54368
11
2.67965
21
-1.54002
0
LINE
8
BLACK
6
CONTINUOUS
10
2.67965
20
-1.54002
11
2.67498
21
-1.53535
0
LINE
8
BLACK
6
CONTINUOUS
10
2.67498
20
-1.53535
11
2.67132
21
-1.52987
0
LINE
8
BLACK
6
CONTINUOUS
10
2.67132
20
-1.52987
11
2.66879
21
-1.52377
0
LINE
8
BLACK
6
CONTINUOUS
10
2.66879
20
-1.52377
11
2.6675
21
-1.5173
0
LINE
8
BLACK
6
CONTINUOUS
10
2.6675
20
-1.5173
11
2.6675
21
-1.5107
0
LINE
8
BLACK
6
CONTINUOUS
10
2.6675
20
-1.5107
11
2.66879
21
-1.50423
0
LINE
8
BLACK
6
CONTINUOUS
10
2.66879
20
-1.50423
11
2.67132
21
-1.49813
0
LINE
8
BLACK
6
CONTINUOUS
10
2.67132
20
-1.49813
11
2.67498
21
-1.49265
0
LINE
8
BLACK
6
CONTINUOUS
10
2.67498
20
-1.49265
11
2.67965
21
-1.48798
0
LINE
8
BLACK
6
CONTINUOUS
10
2.67965
20
-1.48798
11
2.68513
21
-1.48432
0
LINE
8
BLACK
6
CONTINUOUS
10
2.68513
20
-1.48432
11
2.69123
21
-1.48179
0
LINE
8
BLACK
6
CONTINUOUS
10
2.69123
20
-1.48179
11
2.6977
21
-1.4805
0
LINE
8
BLACK
6
CONTINUOUS
10
2.6977
20
-1.4805
11
2.7043
21
-1.4805
0
LINE
8
BLACK
6
CONTINUOUS
10
2.7043
20
-1.4805
11
2.71077
21
-1.48179
0
LINE
8
BLACK
6
CONTINUOUS
10
2.61077
20
-1.48179
11
2.61687
21
-1.48432
0
LINE
8
BLACK
6
CONTINUOUS
10
2.61687
20
-1.48432
11
2.62235
21
-1.48798
0
LINE
8
BLACK
6
CONTINUOUS
10
2.62235
20
-1.48798
11
2.62702
21
-1.49265
0
LINE
8
BLACK
6
CONTINUOUS
10
2.62702
20
-1.49265
11
2.63068
21
-1.49813
0
LINE
8
BLACK
6
CONTINUOUS
10
2.63068
20
-1.49813
11
2.63321
21
-1.50423
0
LINE
8
BLACK
6
CONTINUOUS
10
2.63321
20
-1.50423
11
2.6345
21
-1.5107
0
LINE
8
BLACK
6
CONTINUOUS
10
2.6345
20
-1.5107
11
2.6345
21
-1.5173
0
LINE
8
BLACK
6
CONTINUOUS
10
2.6345
20
-1.5173
11
2.63321
21
-1.52377
0
LINE
8
BLACK
6
CONTINUOUS
10
2.63321
20
-1.52377
11
2.63068
21
-1.52987
0
LINE
8
BLACK
6
CONTINUOUS
10
2.63068
20
-1.52987
11
2.62702
21
-1.53535
0
LINE
8
BLACK
6
CONTINUOUS
10
2.62702
20
-1.53535
11
2.62235
21
-1.54002
0
LINE
8
BLACK
6
CONTINUOUS
10
2.62235
20
-1.54002
11
2.61687
21
-1.54368
0
LINE
8
BLACK
6
CONTINUOUS
10
2.61687
20
-1.54368
11
2.61077
21
-1.54621
0
LINE
8
BLACK
6
CONTINUOUS
10
2.61077
20
-1.54621
11
2.6043
21
-1.5475
0
LINE
8
BLACK
6
CONTINUOUS
10
2.6043
20
-1.5475
11
2.5977
21
-1.5475
0
LINE
8
BLACK
6
CONTINUOUS
10
2.5977
20
-1.5475
11
2.59123
21
-1.54621
0
LINE
8
BLACK
6
CONTINUOUS
10
2.59123
20
-1.54621
11
2.58513
21
-1.54368
0
LINE
8
BLACK
6
CONTINUOUS
10
2.58513
20
-1.54368
11
2.57965
21
-1.54002
0
LINE
8
BLACK
6
CONTINUOUS
10
2.57965
20
-1.54002
11
2.57498
21
-1.53535
0
LINE
8
BLACK
6
CONTINUOUS
10
2.57498
20
-1.53535
11
2.57132
21
-1.52987
0
LINE
8
BLACK
6
CONTINUOUS
10
2.57132
20
-1.52987
11
2.56879
21
-1.52377
0
LINE
8
BLACK
6
CONTINUOUS
10
2.56879
20
-1.52377
11
2.5675
21
-1.5173
0
LINE
8
BLACK
6
CONTINUOUS
10
2.5675
20
-1.5173
11
2.5675
21
-1.5107
0
LINE
8
BLACK
6
CONTINUOUS
10
2.5675
20
-1.5107
11
2.56879
21
-1.50423
0
LINE
8
BLACK
6
CONTINUOUS
10
2.56879
20
-1.50423
11
2.57132
21
-1.49813
0
LINE
8
BLACK
6
CONTINUOUS
10
2.57132
20
-1.49813
11
2.57498
21
-1.49265
0
LINE
8
BLACK
6
CONTINUOUS
10
2.57498
20
-1.49265
11
2.57965
21
-1.48798
0
LINE
8
BLACK
6
CONTINUOUS
10
2.57965
20
-1.48798
11
2.58513
21
-1.48432
0
LINE
8
BLACK
6
CONTINUOUS
10
2.58513
20
-1.48432
11
2.59123
21
-1.48179
0
LINE
8
BLACK
6
CONTINUOUS
10
2.59123
20
-1.48179
11
2.5977
21
-1.4805
0
LINE
8
BLACK
6
CONTINUOUS
10
2.5977
20
-1.4805
11
2.6043
21
-1.4805
0
LINE
8
BLACK
6
CONTINUOUS
10
2.6043
20
-1.4805
11
2.61077
21
-1.48179
0
LINE
8
BLACK
6
CONTINUOUS
10
2.51077
20
-1.48179
11
2.51687
21
-1.48432
0
LINE
8
BLACK
6
CONTINUOUS
10
2.51687
20
-1.48432
11
2.52235
21
-1.48798
0
LINE
8
BLACK
6
CONTINUOUS
10
2.52235
20
-1.48798
11
2.52702
21
-1.49265
0
LINE
8
BLACK
6
CONTINUOUS
10
2.52702
20
-1.49265
11
2.53068
21
-1.49813
0
LINE
8
BLACK
6
CONTINUOUS
10
2.53068
20
-1.49813
11
2.53321
21
-1.50423
0
LINE
8
BLACK
6
CONTINUOUS
10
2.53321
20
-1.50423
11
2.5345
21
-1.5107
0
LINE
8
BLACK
6
CONTINUOUS
10
2.5345
20
-1.5107
11
2.5345
21
-1.5173
0
LINE
8
BLACK
6
CONTINUOUS
10
2.5345
20
-1.5173
11
2.53321
21
-1.52377
0
LINE
8
BLACK
6
CONTINUOUS
10
2.53321
20
-1.52377
11
2.53068
21
-1.52987
0
LINE
8
BLACK
6
CONTINUOUS
10
2.53068
20
-1.52987
11
2.52702
21
-1.53535
0
LINE
8
BLACK
6
CONTINUOUS
10
2.52702
20
-1.53535
11
2.52235
21
-1.54002
0
LINE
8
BLACK
6
CONTINUOUS
10
2.52235
20
-1.54002
11
2.51687
21
-1.54368
0
LINE
8
BLACK
6
CONTINUOUS
10
2.51687
20
-1.54368
11
2.51077
21
-1.54621
0
LINE
8
BLACK
6
CONTINUOUS
10
2.51077
20
-1.54621
11
2.5043
21
-1.5475
0
LINE
8
BLACK
6
CONTINUOUS
10
2.5043
20
-1.5475
11
2.4977
21
-1.5475
0
LINE
8
BLACK
6
CONTINUOUS
10
2.4977
20
-1.5475
11
2.49123
21
-1.54621
0
LINE
8
BLACK
6
CONTINUOUS
10
2.49123
20
-1.54621
11
2.48513
21
-1.54368
0
LINE
8
BLACK
6
CONTINUOUS
10
2.48513
20
-1.54368
11
2.47965
21
-1.54002
0
LINE
8
BLACK
6
CONTINUOUS
10
2.47965
20
-1.54002
11
2.47498
21
-1.53535
0
LINE
8
BLACK
6
CONTINUOUS
10
2.47498
20
-1.53535
11
2.47132
21
-1.52987
0
LINE
8
BLACK
6
CONTINUOUS
10
2.47132
20
-1.52987
11
2.46879
21
-1.52377
0
LINE
8
BLACK
6
CONTINUOUS
10
2.46879
20
-1.52377
11
2.4675
21
-1.5173
0
LINE
8
BLACK
6
CONTINUOUS
10
2.4675
20
-1.5173
11
2.4675
21
-1.5107
0
LINE
8
BLACK
6
CONTINUOUS
10
2.4675
20
-1.5107
11
2.46879
21
-1.50423
0
LINE
8
BLACK
6
CONTINUOUS
10
2.46879
20
-1.50423
11
2.47132
21
-1.49813
0
LINE
8
BLACK
6
CONTINUOUS
10
2.47132
20
-1.49813
11
2.47498
21
-1.49265
0
LINE
8
BLACK
6
CONTINUOUS
10
2.47498
20
-1.49265
11
2.47965
21
-1.48798
0
LINE
8
BLACK
6
CONTINUOUS
10
2.47965
20
-1.48798
11
2.48513
21
-1.48432
0
LINE
8
BLACK
6
CONTINUOUS
10
2.48513
20
-1.48432
11
2.49123
21
-1.48179
0
LINE
8
BLACK
6
CONTINUOUS
10
2.49123
20
-1.48179
11
2.4977
21
-1.4805
0
LINE
8
BLACK
6
CONTINUOUS
10
2.4977
20
-1.4805
11
2.5043
21
-1.4805
0
LINE
8
BLACK
6
CONTINUOUS
10
2.5043
20
-1.4805
11
2.51077
21
-1.48179
0
LINE
8
BLACK
6
CONTINUOUS
10
2.41077
20
-1.48179
11
2.41687
21
-1.48432
0
LINE
8
BLACK
6
CONTINUOUS
10
2.41687
20
-1.48432
11
2.42235
21
-1.48798
0
LINE
8
BLACK
6
CONTINUOUS
10
2.42235
20
-1.48798
11
2.42702
21
-1.49265
0
LINE
8
BLACK
6
CONTINUOUS
10
2.42702
20
-1.49265
11
2.43068
21
-1.49813
0
LINE
8
BLACK
6
CONTINUOUS
10
2.43068
20
-1.49813
11
2.43321
21
-1.50423
0
LINE
8
BLACK
6
CONTINUOUS
10
2.43321
20
-1.50423
11
2.4345
21
-1.5107
0
LINE
8
BLACK
6
CONTINUOUS
10
2.4345
20
-1.5107
11
2.4345
21
-1.5173
0
LINE
8
BLACK
6
CONTINUOUS
10
2.4345
20
-1.5173
11
2.43321
21
-1.52377
0
LINE
8
BLACK
6
CONTINUOUS
10
2.43321
20
-1.52377
11
2.43068
21
-1.52987
0
LINE
8
BLACK
6
CONTINUOUS
10
2.43068
20
-1.52987
11
2.42702
21
-1.53535
0
LINE
8
BLACK
6
CONTINUOUS
10
2.42702
20
-1.53535
11
2.42235
21
-1.54002
0
LINE
8
BLACK
6
CONTINUOUS
10
2.42235
20
-1.54002
11
2.41687
21
-1.54368
0
LINE
8
BLACK
6
CONTINUOUS
10
2.41687
20
-1.54368
11
2.41077
21
-1.54621
0
LINE
8
BLACK
6
CONTINUOUS
10
2.41077
20
-1.54621
11
2.4043
21
-1.5475
0
LINE
8
BLACK
6
CONTINUOUS
10
2.4043
20
-1.5475
11
2.3977
21
-1.5475
0
LINE
8
BLACK
6
CONTINUOUS
10
2.3977
20
-1.5475
11
2.39123
21
-1.54621
0
LINE
8
BLACK
6
CONTINUOUS
10
2.39123
20
-1.54621
11
2.38513
21
-1.54368
0
LINE
8
BLACK
6
CONTINUOUS
10
2.38513
20
-1.54368
11
2.37965
21
-1.54002
0
LINE
8
BLACK
6
CONTINUOUS
10
2.37965
20
-1.54002
11
2.37498
21
-1.53535
0
LINE
8
BLACK
6
CONTINUOUS
10
2.37498
20
-1.53535
11
2.37132
21
-1.52987
0
LINE
8
BLACK
6
CONTINUOUS
10
2.37132
20
-1.52987
11
2.36879
21
-1.52377
0
LINE
8
BLACK
6
CONTINUOUS
10
2.36879
20
-1.52377
11
2.3675
21
-1.5173
0
LINE
8
BLACK
6
CONTINUOUS
10
2.3675
20
-1.5173
11
2.3675
21
-1.5107
0
LINE
8
BLACK
6
CONTINUOUS
10
2.3675
20
-1.5107
11
2.36879
21
-1.50423
0
LINE
8
BLACK
6
CONTINUOUS
10
2.36879
20
-1.50423
11
2.37132
21
-1.49813
0
LINE
8
BLACK
6
CONTINUOUS
10
2.37132
20
-1.49813
11
2.37498
21
-1.49265
0
LINE
8
BLACK
6
CONTINUOUS
10
2.37498
20
-1.49265
11
2.37965
21
-1.48798
0
LINE
8
BLACK
6
CONTINUOUS
10
2.37965
20
-1.48798
11
2.38513
21
-1.48432
0
LINE
8
BLACK
6
CONTINUOUS
10
2.38513
20
-1.48432
11
2.39123
21
-1.48179
0
LINE
8
BLACK
6
CONTINUOUS
10
2.39123
20
-1.48179
11
2.3977
21
-1.4805
0
LINE
8
BLACK
6
CONTINUOUS
10
2.3977
20
-1.4805
11
2.4043
21
-1.4805
0
LINE
8
BLACK
6
CONTINUOUS
10
2.4043
20
-1.4805
11
2.41077
21
-1.48179
0
LINE
8
BLACK
6
CONTINUOUS
10
2.31077
20
-1.48179
11
2.31687
21
-1.48432
0
LINE
8
BLACK
6
CONTINUOUS
10
2.31687
20
-1.48432
11
2.32235
21
-1.48798
0
LINE
8
BLACK
6
CONTINUOUS
10
2.32235
20
-1.48798
11
2.32702
21
-1.49265
0
LINE
8
BLACK
6
CONTINUOUS
10
2.32702
20
-1.49265
11
2.33068
21
-1.49813
0
LINE
8
BLACK
6
CONTINUOUS
10
2.33068
20
-1.49813
11
2.33321
21
-1.50423
0
LINE
8
BLACK
6
CONTINUOUS
10
2.33321
20
-1.50423
11
2.3345
21
-1.5107
0
LINE
8
BLACK
6
CONTINUOUS
10
2.3345
20
-1.5107
11
2.3345
21
-1.5173
0
LINE
8
BLACK
6
CONTINUOUS
10
2.3345
20
-1.5173
11
2.33321
21
-1.52377
0
LINE
8
BLACK
6
CONTINUOUS
10
2.33321
20
-1.52377
11
2.33068
21
-1.52987
0
LINE
8
BLACK
6
CONTINUOUS
10
2.33068
20
-1.52987
11
2.32702
21
-1.53535
0
LINE
8
BLACK
6
CONTINUOUS
10
2.32702
20
-1.53535
11
2.32235
21
-1.54002
0
LINE
8
BLACK
6
CONTINUOUS
10
2.32235
20
-1.54002
11
2.31687
21
-1.54368
0
LINE
8
BLACK
6
CONTINUOUS
10
2.31687
20
-1.54368
11
2.31077
21
-1.54621
0
LINE
8
BLACK
6
CONTINUOUS
10
2.31077
20
-1.54621
11
2.3043
21
-1.5475
0
LINE
8
BLACK
6
CONTINUOUS
10
2.3043
20
-1.5475
11
2.2977
21
-1.5475
0
LINE
8
BLACK
6
CONTINUOUS
10
2.2977
20
-1.5475
11
2.29123
21
-1.54621
0
LINE
8
BLACK
6
CONTINUOUS
10
2.29123
20
-1.54621
11
2.28513
21
-1.54368
0
LINE
8
BLACK
6
CONTINUOUS
10
2.28513
20
-1.54368
11
2.27965
21
-1.54002
0
LINE
8
BLACK
6
CONTINUOUS
10
2.27965
20
-1.54002
11
2.27498
21
-1.53535
0
LINE
8
BLACK
6
CONTINUOUS
10
2.27498
20
-1.53535
11
2.27132
21
-1.52987
0
LINE
8
BLACK
6
CONTINUOUS
10
2.27132
20
-1.52987
11
2.26879
21
-1.52377
0
LINE
8
BLACK
6
CONTINUOUS
10
2.26879
20
-1.52377
11
2.2675
21
-1.5173
0
LINE
8
BLACK
6
CONTINUOUS
10
2.2675
20
-1.5173
11
2.2675
21
-1.5107
0
LINE
8
BLACK
6
CONTINUOUS
10
2.2675
20
-1.5107
11
2.26879
21
-1.50423
0
LINE
8
BLACK
6
CONTINUOUS
10
2.26879
20
-1.50423
11
2.27132
21
-1.49813
0
LINE
8
BLACK
6
CONTINUOUS
10
2.27132
20
-1.49813
11
2.27498
21
-1.49265
0
LINE
8
BLACK
6
CONTINUOUS
10
2.27498
20
-1.49265
11
2.27965
21
-1.48798
0
LINE
8
BLACK
6
CONTINUOUS
10
2.27965
20
-1.48798
11
2.28513
21
-1.48432
0
LINE
8
BLACK
6
CONTINUOUS
10
2.28513
20
-1.48432
11
2.29123
21
-1.48179
0
LINE
8
BLACK
6
CONTINUOUS
10
2.29123
20
-1.48179
11
2.2977
21
-1.4805
0
LINE
8
BLACK
6
CONTINUOUS
10
2.2977
20
-1.4805
11
2.3043
21
-1.4805
0
LINE
8
BLACK
6
CONTINUOUS
10
2.3043
20
-1.4805
11
2.31077
21
-1.48179
0
LINE
8
BLACK
6
CONTINUOUS
10
2.21077
20
-1.48179
11
2.21687
21
-1.48432
0
LINE
8
BLACK
6
CONTINUOUS
10
2.21687
20
-1.48432
11
2.22235
21
-1.48798
0
LINE
8
BLACK
6
CONTINUOUS
10
2.22235
20
-1.48798
11
2.22702
21
-1.49265
0
LINE
8
BLACK
6
CONTINUOUS
10
2.22702
20
-1.49265
11
2.23068
21
-1.49813
0
LINE
8
BLACK
6
CONTINUOUS
10
2.23068
20
-1.49813
11
2.23321
21
-1.50423
0
LINE
8
BLACK
6
CONTINUOUS
10
2.23321
20
-1.50423
11
2.2345
21
-1.5107
0
LINE
8
BLACK
6
CONTINUOUS
10
2.2345
20
-1.5107
11
2.2345
21
-1.5173
0
LINE
8
BLACK
6
CONTINUOUS
10
2.2345
20
-1.5173
11
2.23321
21
-1.52377
0
LINE
8
BLACK
6
CONTINUOUS
10
2.23321
20
-1.52377
11
2.23068
21
-1.52987
0
LINE
8
BLACK
6
CONTINUOUS
10
2.23068
20
-1.52987
11
2.22702
21
-1.53535
0
LINE
8
BLACK
6
CONTINUOUS
10
2.22702
20
-1.53535
11
2.22235
21
-1.54002
0
LINE
8
BLACK
6
CONTINUOUS
10
2.22235
20
-1.54002
11
2.21687
21
-1.54368
0
LINE
8
BLACK
6
CONTINUOUS
10
2.21687
20
-1.54368
11
2.21077
21
-1.54621
0
LINE
8
BLACK
6
CONTINUOUS
10
2.21077
20
-1.54621
11
2.2043
21
-1.5475
0
LINE
8
BLACK
6
CONTINUOUS
10
2.2043
20
-1.5475
11
2.1977
21
-1.5475
0
LINE
8
BLACK
6
CONTINUOUS
10
2.1977
20
-1.5475
11
2.19123
21
-1.54621
0
LINE
8
BLACK
6
CONTINUOUS
10
2.19123
20
-1.54621
11
2.18513
21
-1.54368
0
LINE
8
BLACK
6
CONTINUOUS
10
2.18513
20
-1.54368
11
2.17965
21
-1.54002
0
LINE
8
BLACK
6
CONTINUOUS
10
2.17965
20
-1.54002
11
2.17498
21
-1.53535
0
LINE
8
BLACK
6
CONTINUOUS
10
2.17498
20
-1.53535
11
2.17132
21
-1.52987
0
LINE
8
BLACK
6
CONTINUOUS
10
2.17132
20
-1.52987
11
2.16879
21
-1.52377
0
LINE
8
BLACK
6
CONTINUOUS
10
2.16879
20
-1.52377
11
2.1675
21
-1.5173
0
LINE
8
BLACK
6
CONTINUOUS
10
2.1675
20
-1.5173
11
2.1675
21
-1.5107
0
LINE
8
BLACK
6
CONTINUOUS
10
2.1675
20
-1.5107
11
2.16879
21
-1.50423
0
LINE
8
BLACK
6
CONTINUOUS
10
2.16879
20
-1.50423
11
2.17132
21
-1.49813
0
LINE
8
BLACK
6
CONTINUOUS
10
2.17132
20
-1.49813
11
2.17498
21
-1.49265
0
LINE
8
BLACK
6
CONTINUOUS
10
2.17498
20
-1.49265
11
2.17965
21
-1.48798
0
LINE
8
BLACK
6
CONTINUOUS
10
2.17965
20
-1.48798
11
2.18513
21
-1.48432
0
LINE
8
BLACK
6
CONTINUOUS
10
2.18513
20
-1.48432
11
2.19123
21
-1.48179
0
LINE
8
BLACK
6
CONTINUOUS
10
2.19123
20
-1.48179
11
2.1977
21
-1.4805
0
LINE
8
BLACK
6
CONTINUOUS
10
2.1977
20
-1.4805
11
2.2043
21
-1.4805
0
LINE
8
BLACK
6
CONTINUOUS
10
2.2043
20
-1.4805
11
2.21077
21
-1.48179
0
LINE
8
BLACK
6
CONTINUOUS
10
2.11077
20
-1.48179
11
2.11687
21
-1.48432
0
LINE
8
BLACK
6
CONTINUOUS
10
2.11687
20
-1.48432
11
2.12235
21
-1.48798
0
LINE
8
BLACK
6
CONTINUOUS
10
2.12235
20
-1.48798
11
2.12702
21
-1.49265
0
LINE
8
BLACK
6
CONTINUOUS
10
2.12702
20
-1.49265
11
2.13068
21
-1.49813
0
LINE
8
BLACK
6
CONTINUOUS
10
2.13068
20
-1.49813
11
2.13321
21
-1.50423
0
LINE
8
BLACK
6
CONTINUOUS
10
2.13321
20
-1.50423
11
2.1345
21
-1.5107
0
LINE
8
BLACK
6
CONTINUOUS
10
2.1345
20
-1.5107
11
2.1345
21
-1.5173
0
LINE
8
BLACK
6
CONTINUOUS
10
2.1345
20
-1.5173
11
2.13321
21
-1.52377
0
LINE
8
BLACK
6
CONTINUOUS
10
2.13321
20
-1.52377
11
2.13068
21
-1.52987
0
LINE
8
BLACK
6
CONTINUOUS
10
2.13068
20
-1.52987
11
2.12702
21
-1.53535
0
LINE
8
BLACK
6
CONTINUOUS
10
2.12702
20
-1.53535
11
2.12235
21
-1.54002
0
LINE
8
BLACK
6
CONTINUOUS
10
2.12235
20
-1.54002
11
2.11687
21
-1.54368
0
LINE
8
BLACK
6
CONTINUOUS
10
2.11687
20
-1.54368
11
2.11077
21
-1.54621
0
LINE
8
BLACK
6
CONTINUOUS
10
2.11077
20
-1.54621
11
2.1043
21
-1.5475
0
LINE
8
BLACK
6
CONTINUOUS
10
2.1043
20
-1.5475
11
2.0977
21
-1.5475
0
LINE
8
BLACK
6
CONTINUOUS
10
2.0977
20
-1.5475
11
2.09123
21
-1.54621
0
LINE
8
BLACK
6
CONTINUOUS
10
2.09123
20
-1.54621
11
2.08513
21
-1.54368
0
LINE
8
BLACK
6
CONTINUOUS
10
2.08513
20
-1.54368
11
2.07965
21
-1.54002
0
LINE
8
BLACK
6
CONTINUOUS
10
2.07965
20
-1.54002
11
2.07498
21
-1.53535
0
LINE
8
BLACK
6
CONTINUOUS
10
2.07498
20
-1.53535
11
2.07132
21
-1.52987
0
LINE
8
BLACK
6
CONTINUOUS
10
2.07132
20
-1.52987
11
2.06879
21
-1.52377
0
LINE
8
BLACK
6
CONTINUOUS
10
2.06879
20
-1.52377
11
2.0675
21
-1.5173
0
LINE
8
BLACK
6
CONTINUOUS
10
2.0675
20
-1.5173
11
2.0675
21
-1.5107
0
LINE
8
BLACK
6
CONTINUOUS
10
2.0675
20
-1.5107
11
2.06879
21
-1.50423
0
LINE
8
BLACK
6
CONTINUOUS
10
2.06879
20
-1.50423
11
2.07132
21
-1.49813
0
LINE
8
BLACK
6
CONTINUOUS
10
2.07132
20
-1.49813
11
2.07498
21
-1.49265
0
LINE
8
BLACK
6
CONTINUOUS
10
2.07498
20
-1.49265
11
2.07965
21
-1.48798
0
LINE
8
BLACK
6
CONTINUOUS
10
2.07965
20
-1.48798
11
2.08513
21
-1.48432
0
LINE
8
BLACK
6
CONTINUOUS
10
2.08513
20
-1.48432
11
2.09123
21
-1.48179
0
LINE
8
BLACK
6
CONTINUOUS
10
2.09123
20
-1.48179
11
2.0977
21
-1.4805
0
LINE
8
BLACK
6
CONTINUOUS
10
2.0977
20
-1.4805
11
2.1043
21
-1.4805
0
LINE
8
BLACK
6
CONTINUOUS
10
2.1043
20
-1.4805
11
2.11077
21
-1.48179
0
LINE
8
BLACK
6
CONTINUOUS
10
1.91077
20
-1.48179
11
1.91687
21
-1.48432
0
LINE
8
BLACK
6
CONTINUOUS
10
1.91687
20
-1.48432
11
1.92235
21
-1.48798
0
LINE
8
BLACK
6
CONTINUOUS
10
1.92235
20
-1.48798
11
1.92702
21
-1.49265
0
LINE
8
BLACK
6
CONTINUOUS
10
1.92702
20
-1.49265
11
1.93068
21
-1.49813
0
LINE
8
BLACK
6
CONTINUOUS
10
1.93068
20
-1.49813
11
1.93321
21
-1.50423
0
LINE
8
BLACK
6
CONTINUOUS
10
1.93321
20
-1.50423
11
1.9345
21
-1.5107
0
LINE
8
BLACK
6
CONTINUOUS
10
1.9345
20
-1.5107
11
1.9345
21
-1.5173
0
LINE
8
BLACK
6
CONTINUOUS
10
1.9345
20
-1.5173
11
1.93321
21
-1.52377
0
LINE
8
BLACK
6
CONTINUOUS
10
1.93321
20
-1.52377
11
1.93068
21
-1.52987
0
LINE
8
BLACK
6
CONTINUOUS
10
1.93068
20
-1.52987
11
1.92702
21
-1.53535
0
LINE
8
BLACK
6
CONTINUOUS
10
1.92702
20
-1.53535
11
1.92235
21
-1.54002
0
LINE
8
BLACK
6
CONTINUOUS
10
1.92235
20
-1.54002
11
1.91687
21
-1.54368
0
LINE
8
BLACK
6
CONTINUOUS
10
1.91687
20
-1.54368
11
1.91077
21
-1.54621
0
LINE
8
BLACK
6
CONTINUOUS
10
1.91077
20
-1.54621
11
1.9043
21
-1.5475
0
LINE
8
BLACK
6
CONTINUOUS
10
1.9043
20
-1.5475
11
1.8977
21
-1.5475
0
LINE
8
BLACK
6
CONTINUOUS
10
1.8977
20
-1.5475
11
1.89123
21
-1.54621
0
LINE
8
BLACK
6
CONTINUOUS
10
1.89123
20
-1.54621
11
1.88513
21
-1.54368
0
LINE
8
BLACK
6
CONTINUOUS
10
1.88513
20
-1.54368
11
1.87965
21
-1.54002
0
LINE
8
BLACK
6
CONTINUOUS
10
1.87965
20
-1.54002
11
1.87498
21
-1.53535
0
LINE
8
BLACK
6
CONTINUOUS
10
1.87498
20
-1.53535
11
1.87132
21
-1.52987
0
LINE
8
BLACK
6
CONTINUOUS
10
1.87132
20
-1.52987
11
1.86879
21
-1.52377
0
LINE
8
BLACK
6
CONTINUOUS
10
1.86879
20
-1.52377
11
1.8675
21
-1.5173
0
LINE
8
BLACK
6
CONTINUOUS
10
1.8675
20
-1.5173
11
1.8675
21
-1.5107
0
LINE
8
BLACK
6
CONTINUOUS
10
1.8675
20
-1.5107
11
1.86879
21
-1.50423
0
LINE
8
BLACK
6
CONTINUOUS
10
1.86879
20
-1.50423
11
1.87132
21
-1.49813
0
LINE
8
BLACK
6
CONTINUOUS
10
1.87132
20
-1.49813
11
1.87498
21
-1.49265
0
LINE
8
BLACK
6
CONTINUOUS
10
1.87498
20
-1.49265
11
1.87965
21
-1.48798
0
LINE
8
BLACK
6
CONTINUOUS
10
1.87965
20
-1.48798
11
1.88513
21
-1.48432
0
LINE
8
BLACK
6
CONTINUOUS
10
1.88513
20
-1.48432
11
1.89123
21
-1.48179
0
LINE
8
BLACK
6
CONTINUOUS
10
1.89123
20
-1.48179
11
1.8977
21
-1.4805
0
LINE
8
BLACK
6
CONTINUOUS
10
1.8977
20
-1.4805
11
1.9043
21
-1.4805
0
LINE
8
BLACK
6
CONTINUOUS
10
1.9043
20
-1.4805
11
1.91077
21
-1.48179
0
LINE
8
BLACK
6
CONTINUOUS
10
1.81077
20
-1.48179
11
1.81687
21
-1.48432
0
LINE
8
BLACK
6
CONTINUOUS
10
1.81687
20
-1.48432
11
1.82235
21
-1.48798
0
LINE
8
BLACK
6
CONTINUOUS
10
1.82235
20
-1.48798
11
1.82702
21
-1.49265
0
LINE
8
BLACK
6
CONTINUOUS
10
1.82702
20
-1.49265
11
1.83068
21
-1.49813
0
LINE
8
BLACK
6
CONTINUOUS
10
1.83068
20
-1.49813
11
1.83321
21
-1.50423
0
LINE
8
BLACK
6
CONTINUOUS
10
1.83321
20
-1.50423
11
1.8345
21
-1.5107
0
LINE
8
BLACK
6
CONTINUOUS
10
1.8345
20
-1.5107
11
1.8345
21
-1.5173
0
LINE
8
BLACK
6
CONTINUOUS
10
1.8345
20
-1.5173
11
1.83321
21
-1.52377
0
LINE
8
BLACK
6
CONTINUOUS
10
1.83321
20
-1.52377
11
1.83068
21
-1.52987
0
LINE
8
BLACK
6
CONTINUOUS
10
1.83068
20
-1.52987
11
1.82702
21
-1.53535
0
LINE
8
BLACK
6
CONTINUOUS
10
1.82702
20
-1.53535
11
1.82235
21
-1.54002
0
LINE
8
BLACK
6
CONTINUOUS
10
1.82235
20
-1.54002
11
1.81687
21
-1.54368
0
LINE
8
BLACK
6
CONTINUOUS
10
1.81687
20
-1.54368
11
1.81077
21
-1.54621
0
LINE
8
BLACK
6
CONTINUOUS
10
1.81077
20
-1.54621
11
1.8043
21
-1.5475
0
LINE
8
BLACK
6
CONTINUOUS
10
1.8043
20
-1.5475
11
1.7977
21
-1.5475
0
LINE
8
BLACK
6
CONTINUOUS
10
1.7977
20
-1.5475
11
1.79123
21
-1.54621
0
LINE
8
BLACK
6
CONTINUOUS
10
1.79123
20
-1.54621
11
1.78513
21
-1.54368
0
LINE
8
BLACK
6
CONTINUOUS
10
1.78513
20
-1.54368
11
1.77965
21
-1.54002
0
LINE
8
BLACK
6
CONTINUOUS
10
1.77965
20
-1.54002
11
1.77498
21
-1.53535
0
LINE
8
BLACK
6
CONTINUOUS
10
1.77498
20
-1.53535
11
1.77132
21
-1.52987
0
LINE
8
BLACK
6
CONTINUOUS
10
1.77132
20
-1.52987
11
1.76879
21
-1.52377
0
LINE
8
BLACK
6
CONTINUOUS
10
1.76879
20
-1.52377
11
1.7675
21
-1.5173
0
LINE
8
BLACK
6
CONTINUOUS
10
1.7675
20
-1.5173
11
1.7675
21
-1.5107
0
LINE
8
BLACK
6
CONTINUOUS
10
1.7675
20
-1.5107
11
1.76879
21
-1.50423
0
LINE
8
BLACK
6
CONTINUOUS
10
1.76879
20
-1.50423
11
1.77132
21
-1.49813
0
LINE
8
BLACK
6
CONTINUOUS
10
1.77132
20
-1.49813
11
1.77498
21
-1.49265
0
LINE
8
BLACK
6
CONTINUOUS
10
1.77498
20
-1.49265
11
1.77965
21
-1.48798
0
LINE
8
BLACK
6
CONTINUOUS
10
1.77965
20
-1.48798
11
1.78513
21
-1.48432
0
LINE
8
BLACK
6
CONTINUOUS
10
1.78513
20
-1.48432
11
1.79123
21
-1.48179
0
LINE
8
BLACK
6
CONTINUOUS
10
1.79123
20
-1.48179
11
1.7977
21
-1.4805
0
LINE
8
BLACK
6
CONTINUOUS
10
1.7977
20
-1.4805
11
1.8043
21
-1.4805
0
LINE
8
BLACK
6
CONTINUOUS
10
1.8043
20
-1.4805
11
1.81077
21
-1.48179
0
LINE
8
BLACK
6
CONTINUOUS
10
3.21077
20
-1.48179
11
3.21687
21
-1.48432
0
LINE
8
BLACK
6
CONTINUOUS
10
3.21687
20
-1.48432
11
3.22235
21
-1.48798
0
LINE
8
BLACK
6
CONTINUOUS
10
3.22235
20
-1.48798
11
3.22702
21
-1.49265
0
LINE
8
BLACK
6
CONTINUOUS
10
3.22702
20
-1.49265
11
3.23068
21
-1.49813
0
LINE
8
BLACK
6
CONTINUOUS
10
3.23068
20
-1.49813
11
3.23321
21
-1.50423
0
LINE
8
BLACK
6
CONTINUOUS
10
3.23321
20
-1.50423
11
3.2345
21
-1.5107
0
LINE
8
BLACK
6
CONTINUOUS
10
3.2345
20
-1.5107
11
3.2345
21
-1.5173
0
LINE
8
BLACK
6
CONTINUOUS
10
3.2345
20
-1.5173
11
3.23321
21
-1.52377
0
LINE
8
BLACK
6
CONTINUOUS
10
3.23321
20
-1.52377
11
3.23068
21
-1.52987
0
LINE
8
BLACK
6
CONTINUOUS
10
3.23068
20
-1.52987
11
3.22702
21
-1.53535
0
LINE
8
BLACK
6
CONTINUOUS
10
3.22702
20
-1.53535
11
3.22235
21
-1.54002
0
LINE
8
BLACK
6
CONTINUOUS
10
3.22235
20
-1.54002
11
3.21687
21
-1.54368
0
LINE
8
BLACK
6
CONTINUOUS
10
3.21687
20
-1.54368
11
3.21077
21
-1.54621
0
LINE
8
BLACK
6
CONTINUOUS
10
3.21077
20
-1.54621
11
3.2043
21
-1.5475
0
LINE
8
BLACK
6
CONTINUOUS
10
3.2043
20
-1.5475
11
3.1977
21
-1.5475
0
LINE
8
BLACK
6
CONTINUOUS
10
3.1977
20
-1.5475
11
3.19123
21
-1.54621
0
LINE
8
BLACK
6
CONTINUOUS
10
3.19123
20
-1.54621
11
3.18513
21
-1.54368
0
LINE
8
BLACK
6
CONTINUOUS
10
3.18513
20
-1.54368
11
3.17965
21
-1.54002
0
LINE
8
BLACK
6
CONTINUOUS
10
3.17965
20
-1.54002
11
3.17498
21
-1.53535
0
LINE
8
BLACK
6
CONTINUOUS
10
3.17498
20
-1.53535
11
3.17132
21
-1.52987
0
LINE
8
BLACK
6
CONTINUOUS
10
3.17132
20
-1.52987
11
3.16879
21
-1.52377
0
LINE
8
BLACK
6
CONTINUOUS
10
3.16879
20
-1.52377
11
3.1675
21
-1.5173
0
LINE
8
BLACK
6
CONTINUOUS
10
3.1675
20
-1.5173
11
3.1675
21
-1.5107
0
LINE
8
BLACK
6
CONTINUOUS
10
3.1675
20
-1.5107
11
3.16879
21
-1.50423
0
LINE
8
BLACK
6
CONTINUOUS
10
3.16879
20
-1.50423
11
3.17132
21
-1.49813
0
LINE
8
BLACK
6
CONTINUOUS
10
3.17132
20
-1.49813
11
3.17498
21
-1.49265
0
LINE
8
BLACK
6
CONTINUOUS
10
3.17498
20
-1.49265
11
3.17965
21
-1.48798
0
LINE
8
BLACK
6
CONTINUOUS
10
3.17965
20
-1.48798
11
3.18513
21
-1.48432
0
LINE
8
BLACK
6
CONTINUOUS
10
3.18513
20
-1.48432
11
3.19123
21
-1.48179
0
LINE
8
BLACK
6
CONTINUOUS
10
3.19123
20
-1.48179
11
3.1977
21
-1.4805
0
LINE
8
BLACK
6
CONTINUOUS
10
3.1977
20
-1.4805
11
3.2043
21
-1.4805
0
LINE
8
BLACK
6
CONTINUOUS
10
3.2043
20
-1.4805
11
3.21077
21
-1.48179
0
LINE
8
BLACK
6
CONTINUOUS
10
1.86622
20
-1.33143
11
1.87446
21
-1.33485
0
LINE
8
BLACK
6
CONTINUOUS
10
1.87446
20
-1.33485
11
1.88188
21
-1.33981
0
LINE
8
BLACK
6
CONTINUOUS
10
1.88188
20
-1.33981
11
1.88819
21
-1.34612
0
LINE
8
BLACK
6
CONTINUOUS
10
1.88819
20
-1.34612
11
1.89315
21
-1.35354
0
LINE
8
BLACK
6
CONTINUOUS
10
1.89315
20
-1.35354
11
1.89657
21
-1.36178
0
LINE
8
BLACK
6
CONTINUOUS
10
1.89657
20
-1.36178
11
1.89831
21
-1.37054
0
LINE
8
BLACK
6
CONTINUOUS
10
1.89831
20
-1.37054
11
1.89831
21
-1.37946
0
LINE
8
BLACK
6
CONTINUOUS
10
1.89831
20
-1.37946
11
1.89657
21
-1.38822
0
LINE
8
BLACK
6
CONTINUOUS
10
1.89657
20
-1.38822
11
1.89315
21
-1.39646
0
LINE
8
BLACK
6
CONTINUOUS
10
1.89315
20
-1.39646
11
1.88819
21
-1.40388
0
LINE
8
BLACK
6
CONTINUOUS
10
1.88819
20
-1.40388
11
1.88188
21
-1.41019
0
LINE
8
BLACK
6
CONTINUOUS
10
1.88188
20
-1.41019
11
1.87446
21
-1.41515
0
LINE
8
BLACK
6
CONTINUOUS
10
1.87446
20
-1.41515
11
1.86622
21
-1.41857
0
LINE
8
BLACK
6
CONTINUOUS
10
1.86622
20
-1.41857
11
1.85746
21
-1.42031
0
LINE
8
BLACK
6
CONTINUOUS
10
1.85746
20
-1.42031
11
1.84854
21
-1.42031
0
LINE
8
BLACK
6
CONTINUOUS
10
1.84854
20
-1.42031
11
1.83978
21
-1.41857
0
LINE
8
BLACK
6
CONTINUOUS
10
1.83978
20
-1.41857
11
1.83154
21
-1.41515
0
LINE
8
BLACK
6
CONTINUOUS
10
1.83154
20
-1.41515
11
1.82412
21
-1.41019
0
LINE
8
BLACK
6
CONTINUOUS
10
1.82412
20
-1.41019
11
1.81781
21
-1.40388
0
LINE
8
BLACK
6
CONTINUOUS
10
1.81781
20
-1.40388
11
1.81285
21
-1.39646
0
LINE
8
BLACK
6
CONTINUOUS
10
1.81285
20
-1.39646
11
1.80943
21
-1.38822
0
LINE
8
BLACK
6
CONTINUOUS
10
1.80943
20
-1.38822
11
1.80769
21
-1.37946
0
LINE
8
BLACK
6
CONTINUOUS
10
1.80769
20
-1.37946
11
1.80769
21
-1.37054
0
LINE
8
BLACK
6
CONTINUOUS
10
1.80769
20
-1.37054
11
1.80943
21
-1.36178
0
LINE
8
BLACK
6
CONTINUOUS
10
1.80943
20
-1.36178
11
1.81285
21
-1.35354
0
LINE
8
BLACK
6
CONTINUOUS
10
1.81285
20
-1.35354
11
1.81781
21
-1.34612
0
LINE
8
BLACK
6
CONTINUOUS
10
1.81781
20
-1.34612
11
1.82412
21
-1.33981
0
LINE
8
BLACK
6
CONTINUOUS
10
1.82412
20
-1.33981
11
1.83154
21
-1.33485
0
LINE
8
BLACK
6
CONTINUOUS
10
1.83154
20
-1.33485
11
1.83978
21
-1.33143
0
LINE
8
BLACK
6
CONTINUOUS
10
1.83978
20
-1.33143
11
1.84854
21
-1.32969
0
LINE
8
BLACK
6
CONTINUOUS
10
1.84854
20
-1.32969
11
1.85746
21
-1.32969
0
LINE
8
BLACK
6
CONTINUOUS
10
1.85746
20
-1.32969
11
1.86622
21
-1.33143
0
LINE
8
BLACK
6
CONTINUOUS
10
2.29831
20
-1.42031
11
2.20769
21
-1.42031
0
LINE
8
BLACK
6
CONTINUOUS
10
2.20769
20
-1.42031
11
2.20769
21
-1.32969
0
LINE
8
BLACK
6
CONTINUOUS
10
2.20769
20
-1.32969
11
2.29831
21
-1.32969
0
LINE
8
BLACK
6
CONTINUOUS
10
2.29831
20
-1.32969
11
2.29831
21
-1.42031
0
LINE
8
BLACK
6
CONTINUOUS
10
2.86431
20
-1.41531
11
2.77369
21
-1.41531
0
LINE
8
BLACK
6
CONTINUOUS
10
2.77369
20
-1.41531
11
2.77369
21
-1.32469
0
LINE
8
BLACK
6
CONTINUOUS
10
2.77369
20
-1.32469
11
2.86431
21
-1.32469
0
LINE
8
BLACK
6
CONTINUOUS
10
2.86431
20
-1.32469
11
2.86431
21
-1.41531
0
LINE
8
BLACK
6
CONTINUOUS
10
2.43222
20
-1.32643
11
2.44046
21
-1.32985
0
LINE
8
BLACK
6
CONTINUOUS
10
2.44046
20
-1.32985
11
2.44788
21
-1.33481
0
LINE
8
BLACK
6
CONTINUOUS
10
2.44788
20
-1.33481
11
2.45419
21
-1.34112
0
LINE
8
BLACK
6
CONTINUOUS
10
2.45419
20
-1.34112
11
2.45915
21
-1.34854
0
LINE
8
BLACK
6
CONTINUOUS
10
2.45915
20
-1.34854
11
2.46257
21
-1.35678
0
LINE
8
BLACK
6
CONTINUOUS
10
2.46257
20
-1.35678
11
2.46431
21
-1.36554
0
LINE
8
BLACK
6
CONTINUOUS
10
2.46431
20
-1.36554
11
2.46431
21
-1.37446
0
LINE
8
BLACK
6
CONTINUOUS
10
2.46431
20
-1.37446
11
2.46257
21
-1.38322
0
LINE
8
BLACK
6
CONTINUOUS
10
2.46257
20
-1.38322
11
2.45915
21
-1.39146
0
LINE
8
BLACK
6
CONTINUOUS
10
2.45915
20
-1.39146
11
2.45419
21
-1.39888
0
LINE
8
BLACK
6
CONTINUOUS
10
2.45419
20
-1.39888
11
2.44788
21
-1.40519
0
LINE
8
BLACK
6
CONTINUOUS
10
2.44788
20
-1.40519
11
2.44046
21
-1.41015
0
LINE
8
BLACK
6
CONTINUOUS
10
2.44046
20
-1.41015
11
2.43222
21
-1.41357
0
LINE
8
BLACK
6
CONTINUOUS
10
2.43222
20
-1.41357
11
2.42346
21
-1.41531
0
LINE
8
BLACK
6
CONTINUOUS
10
2.42346
20
-1.41531
11
2.41454
21
-1.41531
0
LINE
8
BLACK
6
CONTINUOUS
10
2.41454
20
-1.41531
11
2.40578
21
-1.41357
0
LINE
8
BLACK
6
CONTINUOUS
10
2.40578
20
-1.41357
11
2.39754
21
-1.41015
0
LINE
8
BLACK
6
CONTINUOUS
10
2.39754
20
-1.41015
11
2.39012
21
-1.40519
0
LINE
8
BLACK
6
CONTINUOUS
10
2.39012
20
-1.40519
11
2.38381
21
-1.39888
0
LINE
8
BLACK
6
CONTINUOUS
10
2.38381
20
-1.39888
11
2.37885
21
-1.39146
0
LINE
8
BLACK
6
CONTINUOUS
10
2.37885
20
-1.39146
11
2.37543
21
-1.38322
0
LINE
8
BLACK
6
CONTINUOUS
10
2.37543
20
-1.38322
11
2.37369
21
-1.37446
0
LINE
8
BLACK
6
CONTINUOUS
10
2.37369
20
-1.37446
11
2.37369
21
-1.36554
0
LINE
8
BLACK
6
CONTINUOUS
10
2.37369
20
-1.36554
11
2.37543
21
-1.35678
0
LINE
8
BLACK
6
CONTINUOUS
10
2.37543
20
-1.35678
11
2.37885
21
-1.34854
0
LINE
8
BLACK
6
CONTINUOUS
10
2.37885
20
-1.34854
11
2.38381
21
-1.34112
0
LINE
8
BLACK
6
CONTINUOUS
10
2.38381
20
-1.34112
11
2.39012
21
-1.33481
0
LINE
8
BLACK
6
CONTINUOUS
10
2.39012
20
-1.33481
11
2.39754
21
-1.32985
0
LINE
8
BLACK
6
CONTINUOUS
10
2.39754
20
-1.32985
11
2.40578
21
-1.32643
0
LINE
8
BLACK
6
CONTINUOUS
10
2.40578
20
-1.32643
11
2.41454
21
-1.32469
0
LINE
8
BLACK
6
CONTINUOUS
10
2.41454
20
-1.32469
11
2.42346
21
-1.32469
0
LINE
8
BLACK
6
CONTINUOUS
10
2.42346
20
-1.32469
11
2.43222
21
-1.32643
0
LINE
8
BLACK
6
CONTINUOUS
10
2.94377
20
-1.34079
11
2.94987
21
-1.34332
0
LINE
8
BLACK
6
CONTINUOUS
10
2.94987
20
-1.34332
11
2.95535
21
-1.34698
0
LINE
8
BLACK
6
CONTINUOUS
10
2.95535
20
-1.34698
11
2.96002
21
-1.35165
0
LINE
8
BLACK
6
CONTINUOUS
10
2.96002
20
-1.35165
11
2.96368
21
-1.35713
0
LINE
8
BLACK
6
CONTINUOUS
10
2.96368
20
-1.35713
11
2.96621
21
-1.36323
0
LINE
8
BLACK
6
CONTINUOUS
10
2.96621
20
-1.36323
11
2.9675
21
-1.3697
0
LINE
8
BLACK
6
CONTINUOUS
10
2.9675
20
-1.3697
11
2.9675
21
-1.3763
0
LINE
8
BLACK
6
CONTINUOUS
10
2.9675
20
-1.3763
11
2.96621
21
-1.38277
0
LINE
8
BLACK
6
CONTINUOUS
10
2.96621
20
-1.38277
11
2.96368
21
-1.38887
0
LINE
8
BLACK
6
CONTINUOUS
10
2.96368
20
-1.38887
11
2.96002
21
-1.39435
0
LINE
8
BLACK
6
CONTINUOUS
10
2.96002
20
-1.39435
11
2.95535
21
-1.39902
0
LINE
8
BLACK
6
CONTINUOUS
10
2.95535
20
-1.39902
11
2.94987
21
-1.40268
0
LINE
8
BLACK
6
CONTINUOUS
10
2.94987
20
-1.40268
11
2.94377
21
-1.40521
0
LINE
8
BLACK
6
CONTINUOUS
10
2.94377
20
-1.40521
11
2.9373
21
-1.4065
0
LINE
8
BLACK
6
CONTINUOUS
10
2.9373
20
-1.4065
11
2.9307
21
-1.4065
0
LINE
8
BLACK
6
CONTINUOUS
10
2.9307
20
-1.4065
11
2.92423
21
-1.40521
0
LINE
8
BLACK
6
CONTINUOUS
10
2.92423
20
-1.40521
11
2.91813
21
-1.40268
0
LINE
8
BLACK
6
CONTINUOUS
10
2.91813
20
-1.40268
11
2.91265
21
-1.39902
0
LINE
8
BLACK
6
CONTINUOUS
10
2.91265
20
-1.39902
11
2.90798
21
-1.39435
0
LINE
8
BLACK
6
CONTINUOUS
10
2.90798
20
-1.39435
11
2.90432
21
-1.38887
0
LINE
8
BLACK
6
CONTINUOUS
10
2.90432
20
-1.38887
11
2.90179
21
-1.38277
0
LINE
8
BLACK
6
CONTINUOUS
10
2.90179
20
-1.38277
11
2.9005
21
-1.3763
0
LINE
8
BLACK
6
CONTINUOUS
10
2.9005
20
-1.3763
11
2.9005
21
-1.3697
0
LINE
8
BLACK
6
CONTINUOUS
10
2.9005
20
-1.3697
11
2.90179
21
-1.36323
0
LINE
8
BLACK
6
CONTINUOUS
10
2.90179
20
-1.36323
11
2.90432
21
-1.35713
0
LINE
8
BLACK
6
CONTINUOUS
10
2.90432
20
-1.35713
11
2.90798
21
-1.35165
0
LINE
8
BLACK
6
CONTINUOUS
10
2.90798
20
-1.35165
11
2.91265
21
-1.34698
0
LINE
8
BLACK
6
CONTINUOUS
10
2.91265
20
-1.34698
11
2.91813
21
-1.34332
0
LINE
8
BLACK
6
CONTINUOUS
10
2.91813
20
-1.34332
11
2.92423
21
-1.34079
0
LINE
8
BLACK
6
CONTINUOUS
10
2.92423
20
-1.34079
11
2.9307
21
-1.3395
0
LINE
8
BLACK
6
CONTINUOUS
10
2.9307
20
-1.3395
11
2.9373
21
-1.3395
0
LINE
8
BLACK
6
CONTINUOUS
10
2.9373
20
-1.3395
11
2.94377
21
-1.34079
0
LINE
8
BLACK
6
CONTINUOUS
10
3.44377
20
-1.34079
11
3.44987
21
-1.34332
0
LINE
8
BLACK
6
CONTINUOUS
10
3.44987
20
-1.34332
11
3.45535
21
-1.34698
0
LINE
8
BLACK
6
CONTINUOUS
10
3.45535
20
-1.34698
11
3.46002
21
-1.35165
0
LINE
8
BLACK
6
CONTINUOUS
10
3.46002
20
-1.35165
11
3.46368
21
-1.35713
0
LINE
8
BLACK
6
CONTINUOUS
10
3.46368
20
-1.35713
11
3.46621
21
-1.36323
0
LINE
8
BLACK
6
CONTINUOUS
10
3.46621
20
-1.36323
11
3.4675
21
-1.3697
0
LINE
8
BLACK
6
CONTINUOUS
10
3.4675
20
-1.3697
11
3.4675
21
-1.3763
0
LINE
8
BLACK
6
CONTINUOUS
10
3.4675
20
-1.3763
11
3.46621
21
-1.38277
0
LINE
8
BLACK
6
CONTINUOUS
10
3.46621
20
-1.38277
11
3.46368
21
-1.38887
0
LINE
8
BLACK
6
CONTINUOUS
10
3.46368
20
-1.38887
11
3.46002
21
-1.39435
0
LINE
8
BLACK
6
CONTINUOUS
10
3.46002
20
-1.39435
11
3.45535
21
-1.39902
0
LINE
8
BLACK
6
CONTINUOUS
10
3.45535
20
-1.39902
11
3.44987
21
-1.40268
0
LINE
8
BLACK
6
CONTINUOUS
10
3.44987
20
-1.40268
11
3.44377
21
-1.40521
0
LINE
8
BLACK
6
CONTINUOUS
10
3.44377
20
-1.40521
11
3.4373
21
-1.4065
0
LINE
8
BLACK
6
CONTINUOUS
10
3.4373
20
-1.4065
11
3.4307
21
-1.4065
0
LINE
8
BLACK
6
CONTINUOUS
10
3.4307
20
-1.4065
11
3.42423
21
-1.40521
0
LINE
8
BLACK
6
CONTINUOUS
10
3.42423
20
-1.40521
11
3.41813
21
-1.40268
0
LINE
8
BLACK
6
CONTINUOUS
10
3.41813
20
-1.40268
11
3.41265
21
-1.39902
0
LINE
8
BLACK
6
CONTINUOUS
10
3.41265
20
-1.39902
11
3.40798
21
-1.39435
0
LINE
8
BLACK
6
CONTINUOUS
10
3.40798
20
-1.39435
11
3.40432
21
-1.38887
0
LINE
8
BLACK
6
CONTINUOUS
10
3.40432
20
-1.38887
11
3.40179
21
-1.38277
0
LINE
8
BLACK
6
CONTINUOUS
10
3.40179
20
-1.38277
11
3.4005
21
-1.3763
0
LINE
8
BLACK
6
CONTINUOUS
10
3.4005
20
-1.3763
11
3.4005
21
-1.3697
0
LINE
8
BLACK
6
CONTINUOUS
10
3.4005
20
-1.3697
11
3.40179
21
-1.36323
0
LINE
8
BLACK
6
CONTINUOUS
10
3.40179
20
-1.36323
11
3.40432
21
-1.35713
0
LINE
8
BLACK
6
CONTINUOUS
10
3.40432
20
-1.35713
11
3.40798
21
-1.35165
0
LINE
8
BLACK
6
CONTINUOUS
10
3.40798
20
-1.35165
11
3.41265
21
-1.34698
0
LINE
8
BLACK
6
CONTINUOUS
10
3.41265
20
-1.34698
11
3.41813
21
-1.34332
0
LINE
8
BLACK
6
CONTINUOUS
10
3.41813
20
-1.34332
11
3.42423
21
-1.34079
0
LINE
8
BLACK
6
CONTINUOUS
10
3.42423
20
-1.34079
11
3.4307
21
-1.3395
0
LINE
8
BLACK
6
CONTINUOUS
10
3.4307
20
-1.3395
11
3.4373
21
-1.3395
0
LINE
8
BLACK
6
CONTINUOUS
10
3.4373
20
-1.3395
11
3.44377
21
-1.34079
0
LINE
8
BLACK
6
CONTINUOUS
10
1.23207
20
-1.31222
11
1.2396
21
-1.31534
0
LINE
8
BLACK
6
CONTINUOUS
10
1.2396
20
-1.31534
11
1.24637
21
-1.31987
0
LINE
8
BLACK
6
CONTINUOUS
10
1.24637
20
-1.31987
11
1.25213
21
-1.32563
0
LINE
8
BLACK
6
CONTINUOUS
10
1.25213
20
-1.32563
11
1.25666
21
-1.3324
0
LINE
8
BLACK
6
CONTINUOUS
10
1.25666
20
-1.3324
11
1.25978
21
-1.33993
0
LINE
8
BLACK
6
CONTINUOUS
10
1.25978
20
-1.33993
11
1.26137
21
-1.34793
0
LINE
8
BLACK
6
CONTINUOUS
10
1.26137
20
-1.34793
11
1.26137
21
-1.35607
0
LINE
8
BLACK
6
CONTINUOUS
10
1.26137
20
-1.35607
11
1.25978
21
-1.36407
0
LINE
8
BLACK
6
CONTINUOUS
10
1.25978
20
-1.36407
11
1.25666
21
-1.3716
0
LINE
8
BLACK
6
CONTINUOUS
10
1.25666
20
-1.3716
11
1.25213
21
-1.37837
0
LINE
8
BLACK
6
CONTINUOUS
10
1.25213
20
-1.37837
11
1.24637
21
-1.38413
0
LINE
8
BLACK
6
CONTINUOUS
10
1.24637
20
-1.38413
11
1.2396
21
-1.38866
0
LINE
8
BLACK
6
CONTINUOUS
10
1.2396
20
-1.38866
11
1.23207
21
-1.39178
0
LINE
8
BLACK
6
CONTINUOUS
10
1.23207
20
-1.39178
11
1.22407
21
-1.39337
0
LINE
8
BLACK
6
CONTINUOUS
10
1.22407
20
-1.39337
11
1.21593
21
-1.39337
0
LINE
8
BLACK
6
CONTINUOUS
10
1.21593
20
-1.39337
11
1.20793
21
-1.39178
0
LINE
8
BLACK
6
CONTINUOUS
10
1.20793
20
-1.39178
11
1.2004
21
-1.38866
0
LINE
8
BLACK
6
CONTINUOUS
10
1.2004
20
-1.38866
11
1.19363
21
-1.38413
0
LINE
8
BLACK
6
CONTINUOUS
10
1.19363
20
-1.38413
11
1.18787
21
-1.37837
0
LINE
8
BLACK
6
CONTINUOUS
10
1.18787
20
-1.37837
11
1.18334
21
-1.3716
0
LINE
8
BLACK
6
CONTINUOUS
10
1.18334
20
-1.3716
11
1.18022
21
-1.36407
0
LINE
8
BLACK
6
CONTINUOUS
10
1.18022
20
-1.36407
11
1.17863
21
-1.35607
0
LINE
8
BLACK
6
CONTINUOUS
10
1.17863
20
-1.35607
11
1.17863
21
-1.34793
0
LINE
8
BLACK
6
CONTINUOUS
10
1.17863
20
-1.34793
11
1.18022
21
-1.33993
0
LINE
8
BLACK
6
CONTINUOUS
10
1.18022
20
-1.33993
11
1.18334
21
-1.3324
0
LINE
8
BLACK
6
CONTINUOUS
10
1.18334
20
-1.3324
11
1.18787
21
-1.32563
0
LINE
8
BLACK
6
CONTINUOUS
10
1.18787
20
-1.32563
11
1.19363
21
-1.31987
0
LINE
8
BLACK
6
CONTINUOUS
10
1.19363
20
-1.31987
11
1.2004
21
-1.31534
0
LINE
8
BLACK
6
CONTINUOUS
10
1.2004
20
-1.31534
11
1.20793
21
-1.31222
0
LINE
8
BLACK
6
CONTINUOUS
10
1.20793
20
-1.31222
11
1.21593
21
-1.31063
0
LINE
8
BLACK
6
CONTINUOUS
10
1.21593
20
-1.31063
11
1.22407
21
-1.31063
0
LINE
8
BLACK
6
CONTINUOUS
10
1.22407
20
-1.31063
11
1.23207
21
-1.31222
0
LINE
8
BLACK
6
CONTINUOUS
10
1.38207
20
-1.31222
11
1.3896
21
-1.31534
0
LINE
8
BLACK
6
CONTINUOUS
10
1.3896
20
-1.31534
11
1.39637
21
-1.31987
0
LINE
8
BLACK
6
CONTINUOUS
10
1.39637
20
-1.31987
11
1.40213
21
-1.32563
0
LINE
8
BLACK
6
CONTINUOUS
10
1.40213
20
-1.32563
11
1.40666
21
-1.3324
0
LINE
8
BLACK
6
CONTINUOUS
10
1.40666
20
-1.3324
11
1.40978
21
-1.33993
0
LINE
8
BLACK
6
CONTINUOUS
10
1.40978
20
-1.33993
11
1.41137
21
-1.34793
0
LINE
8
BLACK
6
CONTINUOUS
10
1.41137
20
-1.34793
11
1.41137
21
-1.35607
0
LINE
8
BLACK
6
CONTINUOUS
10
1.41137
20
-1.35607
11
1.40978
21
-1.36407
0
LINE
8
BLACK
6
CONTINUOUS
10
1.40978
20
-1.36407
11
1.40666
21
-1.3716
0
LINE
8
BLACK
6
CONTINUOUS
10
1.40666
20
-1.3716
11
1.40213
21
-1.37837
0
LINE
8
BLACK
6
CONTINUOUS
10
1.40213
20
-1.37837
11
1.39637
21
-1.38413
0
LINE
8
BLACK
6
CONTINUOUS
10
1.39637
20
-1.38413
11
1.3896
21
-1.38866
0
LINE
8
BLACK
6
CONTINUOUS
10
1.3896
20
-1.38866
11
1.38207
21
-1.39178
0
LINE
8
BLACK
6
CONTINUOUS
10
1.38207
20
-1.39178
11
1.37407
21
-1.39337
0
LINE
8
BLACK
6
CONTINUOUS
10
1.37407
20
-1.39337
11
1.36593
21
-1.39337
0
LINE
8
BLACK
6
CONTINUOUS
10
1.36593
20
-1.39337
11
1.35793
21
-1.39178
0
LINE
8
BLACK
6
CONTINUOUS
10
1.35793
20
-1.39178
11
1.3504
21
-1.38866
0
LINE
8
BLACK
6
CONTINUOUS
10
1.3504
20
-1.38866
11
1.34363
21
-1.38413
0
LINE
8
BLACK
6
CONTINUOUS
10
1.34363
20
-1.38413
11
1.33787
21
-1.37837
0
LINE
8
BLACK
6
CONTINUOUS
10
1.33787
20
-1.37837
11
1.33334
21
-1.3716
0
LINE
8
BLACK
6
CONTINUOUS
10
1.33334
20
-1.3716
11
1.33022
21
-1.36407
0
LINE
8
BLACK
6
CONTINUOUS
10
1.33022
20
-1.36407
11
1.32863
21
-1.35607
0
LINE
8
BLACK
6
CONTINUOUS
10
1.32863
20
-1.35607
11
1.32863
21
-1.34793
0
LINE
8
BLACK
6
CONTINUOUS
10
1.32863
20
-1.34793
11
1.33022
21
-1.33993
0
LINE
8
BLACK
6
CONTINUOUS
10
1.33022
20
-1.33993
11
1.33334
21
-1.3324
0
LINE
8
BLACK
6
CONTINUOUS
10
1.33334
20
-1.3324
11
1.33787
21
-1.32563
0
LINE
8
BLACK
6
CONTINUOUS
10
1.33787
20
-1.32563
11
1.34363
21
-1.31987
0
LINE
8
BLACK
6
CONTINUOUS
10
1.34363
20
-1.31987
11
1.3504
21
-1.31534
0
LINE
8
BLACK
6
CONTINUOUS
10
1.3504
20
-1.31534
11
1.35793
21
-1.31222
0
LINE
8
BLACK
6
CONTINUOUS
10
1.35793
20
-1.31222
11
1.36593
21
-1.31063
0
LINE
8
BLACK
6
CONTINUOUS
10
1.36593
20
-1.31063
11
1.37407
21
-1.31063
0
LINE
8
BLACK
6
CONTINUOUS
10
1.37407
20
-1.31063
11
1.38207
21
-1.31222
0
LINE
8
BLACK
6
CONTINUOUS
10
1.53207
20
-1.31222
11
1.5396
21
-1.31534
0
LINE
8
BLACK
6
CONTINUOUS
10
1.5396
20
-1.31534
11
1.54637
21
-1.31987
0
LINE
8
BLACK
6
CONTINUOUS
10
1.54637
20
-1.31987
11
1.55213
21
-1.32563
0
LINE
8
BLACK
6
CONTINUOUS
10
1.55213
20
-1.32563
11
1.55666
21
-1.3324
0
LINE
8
BLACK
6
CONTINUOUS
10
1.55666
20
-1.3324
11
1.55978
21
-1.33993
0
LINE
8
BLACK
6
CONTINUOUS
10
1.55978
20
-1.33993
11
1.56137
21
-1.34793
0
LINE
8
BLACK
6
CONTINUOUS
10
1.56137
20
-1.34793
11
1.56137
21
-1.35607
0
LINE
8
BLACK
6
CONTINUOUS
10
1.56137
20
-1.35607
11
1.55978
21
-1.36407
0
LINE
8
BLACK
6
CONTINUOUS
10
1.55978
20
-1.36407
11
1.55666
21
-1.3716
0
LINE
8
BLACK
6
CONTINUOUS
10
1.55666
20
-1.3716
11
1.55213
21
-1.37837
0
LINE
8
BLACK
6
CONTINUOUS
10
1.55213
20
-1.37837
11
1.54637
21
-1.38413
0
LINE
8
BLACK
6
CONTINUOUS
10
1.54637
20
-1.38413
11
1.5396
21
-1.38866
0
LINE
8
BLACK
6
CONTINUOUS
10
1.5396
20
-1.38866
11
1.53207
21
-1.39178
0
LINE
8
BLACK
6
CONTINUOUS
10
1.53207
20
-1.39178
11
1.52407
21
-1.39337
0
LINE
8
BLACK
6
CONTINUOUS
10
1.52407
20
-1.39337
11
1.51593
21
-1.39337
0
LINE
8
BLACK
6
CONTINUOUS
10
1.51593
20
-1.39337
11
1.50793
21
-1.39178
0
LINE
8
BLACK
6
CONTINUOUS
10
1.50793
20
-1.39178
11
1.5004
21
-1.38866
0
LINE
8
BLACK
6
CONTINUOUS
10
1.5004
20
-1.38866
11
1.49363
21
-1.38413
0
LINE
8
BLACK
6
CONTINUOUS
10
1.49363
20
-1.38413
11
1.48787
21
-1.37837
0
LINE
8
BLACK
6
CONTINUOUS
10
1.48787
20
-1.37837
11
1.48334
21
-1.3716
0
LINE
8
BLACK
6
CONTINUOUS
10
1.48334
20
-1.3716
11
1.48022
21
-1.36407
0
LINE
8
BLACK
6
CONTINUOUS
10
1.48022
20
-1.36407
11
1.47863
21
-1.35607
0
LINE
8
BLACK
6
CONTINUOUS
10
1.47863
20
-1.35607
11
1.47863
21
-1.34793
0
LINE
8
BLACK
6
CONTINUOUS
10
1.47863
20
-1.34793
11
1.48022
21
-1.33993
0
LINE
8
BLACK
6
CONTINUOUS
10
1.48022
20
-1.33993
11
1.48334
21
-1.3324
0
LINE
8
BLACK
6
CONTINUOUS
10
1.48334
20
-1.3324
11
1.48787
21
-1.32563
0
LINE
8
BLACK
6
CONTINUOUS
10
1.48787
20
-1.32563
11
1.49363
21
-1.31987
0
LINE
8
BLACK
6
CONTINUOUS
10
1.49363
20
-1.31987
11
1.5004
21
-1.31534
0
LINE
8
BLACK
6
CONTINUOUS
10
1.5004
20
-1.31534
11
1.50793
21
-1.31222
0
LINE
8
BLACK
6
CONTINUOUS
10
1.50793
20
-1.31222
11
1.51593
21
-1.31063
0
LINE
8
BLACK
6
CONTINUOUS
10
1.51593
20
-1.31063
11
1.52407
21
-1.31063
0
LINE
8
BLACK
6
CONTINUOUS
10
1.52407
20
-1.31063
11
1.53207
21
-1.31222
0
LINE
8
BLACK
6
CONTINUOUS
10
1.68207
20
-1.31222
11
1.6896
21
-1.31534
0
LINE
8
BLACK
6
CONTINUOUS
10
1.6896
20
-1.31534
11
1.69637
21
-1.31987
0
LINE
8
BLACK
6
CONTINUOUS
10
1.69637
20
-1.31987
11
1.70213
21
-1.32563
0
LINE
8
BLACK
6
CONTINUOUS
10
1.70213
20
-1.32563
11
1.70666
21
-1.3324
0
LINE
8
BLACK
6
CONTINUOUS
10
1.70666
20
-1.3324
11
1.70978
21
-1.33993
0
LINE
8
BLACK
6
CONTINUOUS
10
1.70978
20
-1.33993
11
1.71137
21
-1.34793
0
LINE
8
BLACK
6
CONTINUOUS
10
1.71137
20
-1.34793
11
1.71137
21
-1.35607
0
LINE
8
BLACK
6
CONTINUOUS
10
1.71137
20
-1.35607
11
1.70978
21
-1.36407
0
LINE
8
BLACK
6
CONTINUOUS
10
1.70978
20
-1.36407
11
1.70666
21
-1.3716
0
LINE
8
BLACK
6
CONTINUOUS
10
1.70666
20
-1.3716
11
1.70213
21
-1.37837
0
LINE
8
BLACK
6
CONTINUOUS
10
1.70213
20
-1.37837
11
1.69637
21
-1.38413
0
LINE
8
BLACK
6
CONTINUOUS
10
1.69637
20
-1.38413
11
1.6896
21
-1.38866
0
LINE
8
BLACK
6
CONTINUOUS
10
1.6896
20
-1.38866
11
1.68207
21
-1.39178
0
LINE
8
BLACK
6
CONTINUOUS
10
1.68207
20
-1.39178
11
1.67407
21
-1.39337
0
LINE
8
BLACK
6
CONTINUOUS
10
1.67407
20
-1.39337
11
1.66593
21
-1.39337
0
LINE
8
BLACK
6
CONTINUOUS
10
1.66593
20
-1.39337
11
1.65793
21
-1.39178
0
LINE
8
BLACK
6
CONTINUOUS
10
1.65793
20
-1.39178
11
1.6504
21
-1.38866
0
LINE
8
BLACK
6
CONTINUOUS
10
1.6504
20
-1.38866
11
1.64363
21
-1.38413
0
LINE
8
BLACK
6
CONTINUOUS
10
1.64363
20
-1.38413
11
1.63787
21
-1.37837
0
LINE
8
BLACK
6
CONTINUOUS
10
1.63787
20
-1.37837
11
1.63334
21
-1.3716
0
LINE
8
BLACK
6
CONTINUOUS
10
1.63334
20
-1.3716
11
1.63022
21
-1.36407
0
LINE
8
BLACK
6
CONTINUOUS
10
1.63022
20
-1.36407
11
1.62863
21
-1.35607
0
LINE
8
BLACK
6
CONTINUOUS
10
1.62863
20
-1.35607
11
1.62863
21
-1.34793
0
LINE
8
BLACK
6
CONTINUOUS
10
1.62863
20
-1.34793
11
1.63022
21
-1.33993
0
LINE
8
BLACK
6
CONTINUOUS
10
1.63022
20
-1.33993
11
1.63334
21
-1.3324
0
LINE
8
BLACK
6
CONTINUOUS
10
1.63334
20
-1.3324
11
1.63787
21
-1.32563
0
LINE
8
BLACK
6
CONTINUOUS
10
1.63787
20
-1.32563
11
1.64363
21
-1.31987
0
LINE
8
BLACK
6
CONTINUOUS
10
1.64363
20
-1.31987
11
1.6504
21
-1.31534
0
LINE
8
BLACK
6
CONTINUOUS
10
1.6504
20
-1.31534
11
1.65793
21
-1.31222
0
LINE
8
BLACK
6
CONTINUOUS
10
1.65793
20
-1.31222
11
1.66593
21
-1.31063
0
LINE
8
BLACK
6
CONTINUOUS
10
1.66593
20
-1.31063
11
1.67407
21
-1.31063
0
LINE
8
BLACK
6
CONTINUOUS
10
1.67407
20
-1.31063
11
1.68207
21
-1.31222
  0
ENDSEC
  0
EOF
