  0
SECTION
  2
HEADER
  9
$ANGBASE
  50
0.0
  9
$ANGDIR
  70
1
  9
$MEASUREMENT
  70
0
  0
ENDSEC
  0
SECTION
  2
TABLES
  0
TABLE
  2
LTYPE
  70
4
  0
LTYPE
  5
40F
  2
CONTINUOUS
  70
0
  3
Solid line
  72
65
  73
0
  40
0.0
  0
LTYPE
  5
410
  2
DASHDOT
 70
0
  3
Dash Dot ____ _ ____ _
 72
65
 73
4
 40
2.0
 49
1.25
 49
-0.25
 49
0.25
 49
-0.25
  0
LTYPE
  5
411
  2
DASHED
 70
0
  3
Dashed __ __ __ __ __
 72
65
 73
2
 40
0.75
 49
0.5
 49
-0.25
  0
LTYPE
  5
43B
  2
DOTTED
 70
0
  3
Dotted .  .  .  .
 72
65
 73
2
 40
0.2
 49
0.0
 49
-0.2
  0
ENDTAB
  0
TABLE
  2
STYLE
  70
4
  0
STYLE
  2
KICAD
  70
0
  40
0
  41
1
  42
1
  50
0
  71
0
  3
isocp.shx
  0
STYLE
  2
KICADB
  70
0
  40
0
  41
1
  42
1
  50
0
  71
0
  3
isocp.shx
  0
STYLE
  2
KICADI
  70
0
  40
0
  41
1
  42
1
  50
15
  71
0
  3
isocp.shx
  0
STYLE
  2
KICADBI
  70
0
  40
0
  41
1
  42
1
  50
15
  71
0
  3
isocp.shx
  0
ENDTAB
  0
TABLE
  2
LAYER
  70
1
  0
LAYER
  2
BLACK
  70
0
  62
7
  6
CONTINUOUS
  0
ENDTAB
  0
ENDSEC
  0
SECTION
  2
ENTITIES
0
LINE
8
BLACK
6
CONTINUOUS
10
3.56786
20
-1.23702
11
3.56786
21
-1.23702
0
LINE
8
BLACK
6
CONTINUOUS
10
3.56786
20
-1.23702
11
3.568
21
-1.23703
0
LINE
8
BLACK
6
CONTINUOUS
10
3.568
20
-1.23703
11
3.56819
21
-1.23709
0
LINE
8
BLACK
6
CONTINUOUS
10
3.56819
20
-1.23709
11
3.56836
21
-1.23718
0
LINE
8
BLACK
6
CONTINUOUS
10
3.56836
20
-1.23718
11
3.56851
21
-1.2373
0
LINE
8
BLACK
6
CONTINUOUS
10
3.56851
20
-1.2373
11
3.56863
21
-1.23745
0
LINE
8
BLACK
6
CONTINUOUS
10
3.56863
20
-1.23745
11
3.56872
21
-1.23762
0
LINE
8
BLACK
6
CONTINUOUS
10
3.56872
20
-1.23762
11
3.56878
21
-1.23781
0
LINE
8
BLACK
6
CONTINUOUS
10
3.56878
20
-1.23781
11
3.5688
21
-1.238
0
LINE
8
BLACK
6
CONTINUOUS
10
3.5688
20
-1.238
11
3.5688
21
-1.23805
0
LINE
8
BLACK
6
CONTINUOUS
10
3.5688
20
-1.23805
11
3.5688
21
-2.65285
0
LINE
8
BLACK
6
CONTINUOUS
10
3.5688
20
-2.65285
11
3.5688
21
-2.6529
0
LINE
8
BLACK
6
CONTINUOUS
10
3.5688
20
-2.6529
11
3.5688
21
-2.65295
0
LINE
8
BLACK
6
CONTINUOUS
10
3.5688
20
-2.65295
11
3.5688
21
-2.65295
0
LINE
8
BLACK
6
CONTINUOUS
10
3.5688
20
-2.65295
11
3.56878
21
-2.65309
0
LINE
8
BLACK
6
CONTINUOUS
10
3.56878
20
-2.65309
11
3.56872
21
-2.65328
0
LINE
8
BLACK
6
CONTINUOUS
10
3.56872
20
-2.65328
11
3.56863
21
-2.65345
0
LINE
8
BLACK
6
CONTINUOUS
10
3.56863
20
-2.65345
11
3.56851
21
-2.6536
0
LINE
8
BLACK
6
CONTINUOUS
10
3.56851
20
-2.6536
11
3.56836
21
-2.65372
0
LINE
8
BLACK
6
CONTINUOUS
10
3.56836
20
-2.65372
11
3.56819
21
-2.65381
0
LINE
8
BLACK
6
CONTINUOUS
10
3.56819
20
-2.65381
11
3.568
21
-2.65387
0
LINE
8
BLACK
6
CONTINUOUS
10
3.568
20
-2.65387
11
3.56781
21
-2.65389
0
LINE
8
BLACK
6
CONTINUOUS
10
3.56781
20
-2.65389
11
3.56776
21
-2.65388
0
LINE
8
BLACK
6
CONTINUOUS
10
3.56776
20
-2.65388
11
1.09205
21
-2.65398
0
LINE
8
BLACK
6
CONTINUOUS
10
1.09205
20
-2.65398
11
1.092
21
-2.65399
0
LINE
8
BLACK
6
CONTINUOUS
10
1.092
20
-2.65399
11
1.09195
21
-2.65398
0
LINE
8
BLACK
6
CONTINUOUS
10
1.09195
20
-2.65398
11
1.09181
21
-2.65397
0
LINE
8
BLACK
6
CONTINUOUS
10
1.09181
20
-2.65397
11
1.09181
21
-2.65397
0
LINE
8
BLACK
6
CONTINUOUS
10
1.09181
20
-2.65397
11
1.09181
21
-2.65397
0
LINE
8
BLACK
6
CONTINUOUS
10
1.09181
20
-2.65397
11
1.09172
21
-2.65394
0
LINE
8
BLACK
6
CONTINUOUS
10
1.09172
20
-2.65394
11
1.09162
21
-2.65391
0
LINE
8
BLACK
6
CONTINUOUS
10
1.09162
20
-2.65391
11
1.09162
21
-2.65391
0
LINE
8
BLACK
6
CONTINUOUS
10
1.09162
20
-2.65391
11
1.09162
21
-2.65391
0
LINE
8
BLACK
6
CONTINUOUS
10
1.09162
20
-2.65391
11
1.09153
21
-2.65387
0
LINE
8
BLACK
6
CONTINUOUS
10
1.09153
20
-2.65387
11
1.09145
21
-2.65382
0
LINE
8
BLACK
6
CONTINUOUS
10
1.09145
20
-2.65382
11
1.09145
21
-2.65382
0
LINE
8
BLACK
6
CONTINUOUS
10
1.09145
20
-2.65382
11
1.09145
21
-2.65382
0
LINE
8
BLACK
6
CONTINUOUS
10
1.09145
20
-2.65382
11
1.09138
21
-2.65376
0
LINE
8
BLACK
6
CONTINUOUS
10
1.09138
20
-2.65376
11
1.0913
21
-2.6537
0
LINE
8
BLACK
6
CONTINUOUS
10
1.0913
20
-2.6537
11
1.0913
21
-2.6537
0
LINE
8
BLACK
6
CONTINUOUS
10
1.0913
20
-2.6537
11
1.0913
21
-2.6537
0
LINE
8
BLACK
6
CONTINUOUS
10
1.0913
20
-2.6537
11
1.09124
21
-2.65362
0
LINE
8
BLACK
6
CONTINUOUS
10
1.09124
20
-2.65362
11
1.09118
21
-2.65355
0
LINE
8
BLACK
6
CONTINUOUS
10
1.09118
20
-2.65355
11
1.09118
21
-2.65355
0
LINE
8
BLACK
6
CONTINUOUS
10
1.09118
20
-2.65355
11
1.09118
21
-2.65355
0
LINE
8
BLACK
6
CONTINUOUS
10
1.09118
20
-2.65355
11
1.09113
21
-2.65347
0
LINE
8
BLACK
6
CONTINUOUS
10
1.09113
20
-2.65347
11
1.09109
21
-2.65338
0
LINE
8
BLACK
6
CONTINUOUS
10
1.09109
20
-2.65338
11
1.09109
21
-2.65338
0
LINE
8
BLACK
6
CONTINUOUS
10
1.09109
20
-2.65338
11
1.09109
21
-2.65338
0
LINE
8
BLACK
6
CONTINUOUS
10
1.09109
20
-2.65338
11
1.09106
21
-2.65328
0
LINE
8
BLACK
6
CONTINUOUS
10
1.09106
20
-2.65328
11
1.09103
21
-2.65319
0
LINE
8
BLACK
6
CONTINUOUS
10
1.09103
20
-2.65319
11
1.09103
21
-2.65319
0
LINE
8
BLACK
6
CONTINUOUS
10
1.09103
20
-2.65319
11
1.09103
21
-2.65319
0
LINE
8
BLACK
6
CONTINUOUS
10
1.09103
20
-2.65319
11
1.09102
21
-2.65305
0
LINE
8
BLACK
6
CONTINUOUS
10
1.09102
20
-2.65305
11
1.09101
21
-2.653
0
LINE
8
BLACK
6
CONTINUOUS
10
1.09101
20
-2.653
11
1.09102
21
-2.65295
0
LINE
8
BLACK
6
CONTINUOUS
10
1.09102
20
-2.65295
11
1.09202
21
-1.23805
0
LINE
8
BLACK
6
CONTINUOUS
10
1.09202
20
-1.23805
11
1.09201
21
-1.238
0
LINE
8
BLACK
6
CONTINUOUS
10
1.09201
20
-1.238
11
1.09202
21
-1.23795
0
LINE
8
BLACK
6
CONTINUOUS
10
1.09202
20
-1.23795
11
1.09202
21
-1.23795
0
LINE
8
BLACK
6
CONTINUOUS
10
1.09202
20
-1.23795
11
1.09202
21
-1.23787
0
LINE
8
BLACK
6
CONTINUOUS
10
1.09202
20
-1.23787
11
1.09203
21
-1.23781
0
LINE
8
BLACK
6
CONTINUOUS
10
1.09203
20
-1.23781
11
1.09203
21
-1.23781
0
LINE
8
BLACK
6
CONTINUOUS
10
1.09203
20
-1.23781
11
1.09203
21
-1.23781
0
LINE
8
BLACK
6
CONTINUOUS
10
1.09203
20
-1.23781
11
1.09207
21
-1.23769
0
LINE
8
BLACK
6
CONTINUOUS
10
1.09207
20
-1.23769
11
1.09209
21
-1.23762
0
LINE
8
BLACK
6
CONTINUOUS
10
1.09209
20
-1.23762
11
1.09209
21
-1.23762
0
LINE
8
BLACK
6
CONTINUOUS
10
1.09209
20
-1.23762
11
1.09209
21
-1.23762
0
LINE
8
BLACK
6
CONTINUOUS
10
1.09209
20
-1.23762
11
1.09214
21
-1.23751
0
LINE
8
BLACK
6
CONTINUOUS
10
1.09214
20
-1.23751
11
1.09218
21
-1.23745
0
LINE
8
BLACK
6
CONTINUOUS
10
1.09218
20
-1.23745
11
1.09218
21
-1.23745
0
LINE
8
BLACK
6
CONTINUOUS
10
1.09218
20
-1.23745
11
1.09218
21
-1.23745
0
LINE
8
BLACK
6
CONTINUOUS
10
1.09218
20
-1.23745
11
1.09224
21
-1.23737
0
LINE
8
BLACK
6
CONTINUOUS
10
1.09224
20
-1.23737
11
1.0923
21
-1.2373
0
LINE
8
BLACK
6
CONTINUOUS
10
1.0923
20
-1.2373
11
1.0923
21
-1.2373
0
LINE
8
BLACK
6
CONTINUOUS
10
1.0923
20
-1.2373
11
1.0923
21
-1.2373
0
LINE
8
BLACK
6
CONTINUOUS
10
1.0923
20
-1.2373
11
1.09237
21
-1.23724
0
LINE
8
BLACK
6
CONTINUOUS
10
1.09237
20
-1.23724
11
1.09245
21
-1.23718
0
LINE
8
BLACK
6
CONTINUOUS
10
1.09245
20
-1.23718
11
1.09245
21
-1.23718
0
LINE
8
BLACK
6
CONTINUOUS
10
1.09245
20
-1.23718
11
1.09245
21
-1.23718
0
LINE
8
BLACK
6
CONTINUOUS
10
1.09245
20
-1.23718
11
1.09251
21
-1.23714
0
LINE
8
BLACK
6
CONTINUOUS
10
1.09251
20
-1.23714
11
1.09262
21
-1.23709
0
LINE
8
BLACK
6
CONTINUOUS
10
1.09262
20
-1.23709
11
1.09262
21
-1.23709
0
LINE
8
BLACK
6
CONTINUOUS
10
1.09262
20
-1.23709
11
1.09262
21
-1.23709
0
LINE
8
BLACK
6
CONTINUOUS
10
1.09262
20
-1.23709
11
1.09269
21
-1.23707
0
LINE
8
BLACK
6
CONTINUOUS
10
1.09269
20
-1.23707
11
1.09281
21
-1.23703
0
LINE
8
BLACK
6
CONTINUOUS
10
1.09281
20
-1.23703
11
1.09281
21
-1.23703
0
LINE
8
BLACK
6
CONTINUOUS
10
1.09281
20
-1.23703
11
1.09281
21
-1.23703
0
LINE
8
BLACK
6
CONTINUOUS
10
1.09281
20
-1.23703
11
1.09289
21
-1.23702
0
LINE
8
BLACK
6
CONTINUOUS
10
1.09289
20
-1.23702
11
1.09295
21
-1.23702
0
LINE
8
BLACK
6
CONTINUOUS
10
1.09295
20
-1.23702
11
1.09295
21
-1.23702
0
LINE
8
BLACK
6
CONTINUOUS
10
1.09295
20
-1.23702
11
1.093
21
-1.23701
0
LINE
8
BLACK
6
CONTINUOUS
10
1.093
20
-1.23701
11
1.09305
21
-1.23702
0
LINE
8
BLACK
6
CONTINUOUS
10
1.09305
20
-1.23702
11
3.56776
21
-1.23702
0
LINE
8
BLACK
6
CONTINUOUS
10
3.56776
20
-1.23702
11
3.56781
21
-1.23701
0
LINE
8
BLACK
6
CONTINUOUS
10
3.56781
20
-1.23701
11
3.56786
21
-1.23702
0
LINE
8
BLACK
6
CONTINUOUS
10
1.09398
20
-1.23898
11
1.09298
21
-2.65202
0
LINE
8
BLACK
6
CONTINUOUS
10
1.09298
20
-2.65202
11
3.56683
21
-2.65191
0
LINE
8
BLACK
6
CONTINUOUS
10
3.56683
20
-2.65191
11
3.56683
21
-1.23898
0
LINE
8
BLACK
6
CONTINUOUS
10
3.56683
20
-1.23898
11
1.09398
21
-1.23898
  0
ENDSEC
  0
EOF
