M48
; DRILL file {KiCad (5.1.8)-1} date 01/24/21 12:58:55
; FORMAT={-:-/ absolute / inch / decimal}
; #@! TF.CreationDate,2021-01-24T12:58:55-05:00
; #@! TF.GenerationSoftware,Kicad,Pcbnew,(5.1.8)-1
; #@! TF.FileFunction,Plated,1,2,PTH
FMAT,2
INCH
T1C0.0150
T2C0.0236
T3C0.0276
T4C0.0315
T5C0.0354
T6C0.0394
T7C0.0433
%
G90
G05
T1
X2.9528Y-2.2047
X2.9528Y-2.2441
X2.9528Y-2.2835
X2.9528Y-2.3228
X2.9528Y-2.3622
X2.9528Y-2.4016
X2.9528Y-2.4409
X2.9528Y-2.4803
X2.9528Y-2.5197
X2.9528Y-2.5591
X2.9528Y-2.5984
X2.9528Y-2.624
X2.9921Y-2.1929
X3.0315Y-2.1929
X3.0709Y-2.1929
X3.1102Y-2.1929
X3.1496Y-2.1929
X3.189Y-2.1929
X3.2283Y-2.1929
X3.2677Y-2.1929
X3.3071Y-2.1929
X3.3465Y-2.1929
X3.3858Y-2.1929
X3.4252Y-2.1929
X3.4646Y-2.1929
X3.5039Y-2.1929
X3.535Y-2.193
T2
X3.2733Y-2.3423
X3.2733Y-2.4837
X3.4147Y-2.3423
X3.4147Y-2.4837
T3
X2.603Y-2.225
X2.603Y-2.425
X2.407Y-2.221
X2.407Y-2.421
X2.303Y-2.219
X2.303Y-2.419
X2.043Y-1.803
X2.243Y-1.803
X2.503Y-2.223
X2.503Y-2.423
X1.621Y-2.213
X1.621Y-2.413
X2.043Y-1.717
X2.243Y-1.717
T4
X2.6716Y-1.947
X2.77Y-1.947
X2.934Y-1.373
X3.434Y-1.373
X2.6756Y-1.734
X2.774Y-1.734
T5
X1.22Y-1.352
X1.37Y-1.352
X1.52Y-1.352
X1.67Y-1.352
T6
X1.801Y-1.514
X1.801Y-2.114
X1.901Y-1.514
X1.901Y-2.114
X2.001Y-1.514
X2.001Y-2.114
X2.101Y-1.514
X2.101Y-2.114
X2.201Y-1.514
X2.201Y-2.114
X2.301Y-1.514
X2.301Y-2.114
X2.401Y-1.514
X2.401Y-2.114
X2.501Y-1.514
X2.501Y-2.114
X2.601Y-1.514
X2.601Y-2.114
X2.701Y-1.514
X2.701Y-2.114
X2.801Y-1.514
X2.801Y-2.114
X2.901Y-1.514
X2.901Y-2.114
X3.001Y-1.514
X3.001Y-2.114
X3.101Y-1.514
X3.101Y-2.114
X3.201Y-1.514
X3.201Y-2.114
X3.353Y-1.689
X3.353Y-1.789
X3.353Y-1.889
X3.353Y-1.989
X3.058Y-2.265
X3.058Y-2.365
X3.058Y-2.465
X3.058Y-2.565
X1.818Y-1.765
X1.818Y-1.865
X1.384Y-2.294
X1.484Y-2.294
X1.762Y-2.239
X1.762Y-2.539
X1.862Y-2.239
X1.862Y-2.539
X1.962Y-2.239
X1.962Y-2.539
X2.062Y-2.239
X2.062Y-2.539
T7
X2.419Y-1.37
X2.819Y-1.37
X1.853Y-1.375
X2.253Y-1.375
X1.4183Y-1.743
X1.4183Y-1.873
X1.4951Y-1.7686
X1.4951Y-1.8474
T0
M30
