  0
SECTION
  2
HEADER
  9
$ANGBASE
  50
0.0
  9
$ANGDIR
  70
1
  9
$MEASUREMENT
  70
0
  0
ENDSEC
  0
SECTION
  2
TABLES
  0
TABLE
  2
LTYPE
  70
4
  0
LTYPE
  5
40F
  2
CONTINUOUS
  70
0
  3
Solid line
  72
65
  73
0
  40
0.0
  0
LTYPE
  5
410
  2
DASHDOT
 70
0
  3
Dash Dot ____ _ ____ _
 72
65
 73
4
 40
2.0
 49
1.25
 49
-0.25
 49
0.25
 49
-0.25
  0
LTYPE
  5
411
  2
DASHED
 70
0
  3
Dashed __ __ __ __ __
 72
65
 73
2
 40
0.75
 49
0.5
 49
-0.25
  0
LTYPE
  5
43B
  2
DOTTED
 70
0
  3
Dotted .  .  .  .
 72
65
 73
2
 40
0.2
 49
0.0
 49
-0.2
  0
ENDTAB
  0
TABLE
  2
STYLE
  70
4
  0
STYLE
  2
KICAD
  70
0
  40
0
  41
1
  42
1
  50
0
  71
0
  3
isocp.shx
  0
STYLE
  2
KICADB
  70
0
  40
0
  41
1
  42
1
  50
0
  71
0
  3
isocp.shx
  0
STYLE
  2
KICADI
  70
0
  40
0
  41
1
  42
1
  50
15
  71
0
  3
isocp.shx
  0
STYLE
  2
KICADBI
  70
0
  40
0
  41
1
  42
1
  50
15
  71
0
  3
isocp.shx
  0
ENDTAB
  0
TABLE
  2
LAYER
  70
1
  0
LAYER
  2
BLACK
  70
0
  62
7
  6
CONTINUOUS
  0
ENDTAB
  0
ENDSEC
  0
SECTION
  2
ENTITIES
0
LINE
8
BLACK
6
CONTINUOUS
10
3.52264
20
-2.16197
11
3.5232
21
-2.16214
0
LINE
8
BLACK
6
CONTINUOUS
10
3.5232
20
-2.16214
11
3.5237
21
-2.16241
0
LINE
8
BLACK
6
CONTINUOUS
10
3.5237
20
-2.16241
11
3.52415
21
-2.16278
0
LINE
8
BLACK
6
CONTINUOUS
10
3.52415
20
-2.16278
11
3.52602
21
-2.16465
0
LINE
8
BLACK
6
CONTINUOUS
10
3.52602
20
-2.16465
11
3.52605
21
-2.16468
0
LINE
8
BLACK
6
CONTINUOUS
10
3.52605
20
-2.16468
11
3.52616
21
-2.16481
0
LINE
8
BLACK
6
CONTINUOUS
10
3.52616
20
-2.16481
11
3.52627
21
-2.16493
0
LINE
8
BLACK
6
CONTINUOUS
10
3.52627
20
-2.16493
11
3.52634
21
-2.16504
0
LINE
8
BLACK
6
CONTINUOUS
10
3.52634
20
-2.16504
11
3.52641
21
-2.16513
0
LINE
8
BLACK
6
CONTINUOUS
10
3.52641
20
-2.16513
11
3.52649
21
-2.16528
0
LINE
8
BLACK
6
CONTINUOUS
10
3.52649
20
-2.16528
11
3.52658
21
-2.16542
0
LINE
8
BLACK
6
CONTINUOUS
10
3.52658
20
-2.16542
11
3.52845
21
-2.16917
0
LINE
8
BLACK
6
CONTINUOUS
10
3.52845
20
-2.16917
11
3.52847
21
-2.16921
0
LINE
8
BLACK
6
CONTINUOUS
10
3.52847
20
-2.16921
11
3.5285
21
-2.16929
0
LINE
8
BLACK
6
CONTINUOUS
10
3.5285
20
-2.16929
11
3.52854
21
-2.16936
0
LINE
8
BLACK
6
CONTINUOUS
10
3.52854
20
-2.16936
11
3.5286
21
-2.16956
0
LINE
8
BLACK
6
CONTINUOUS
10
3.5286
20
-2.16956
11
3.52867
21
-2.16975
0
LINE
8
BLACK
6
CONTINUOUS
10
3.52867
20
-2.16975
11
3.52868
21
-2.16983
0
LINE
8
BLACK
6
CONTINUOUS
10
3.52868
20
-2.16983
11
3.52871
21
-2.16992
0
LINE
8
BLACK
6
CONTINUOUS
10
3.52871
20
-2.16992
11
3.52873
21
-2.17012
0
LINE
8
BLACK
6
CONTINUOUS
10
3.52873
20
-2.17012
11
3.52876
21
-2.17032
0
LINE
8
BLACK
6
CONTINUOUS
10
3.52876
20
-2.17032
11
3.52875
21
-2.1704
0
LINE
8
BLACK
6
CONTINUOUS
10
3.52875
20
-2.1704
11
3.52876
21
-2.17049
0
LINE
8
BLACK
6
CONTINUOUS
10
3.52876
20
-2.17049
11
3.52876
21
-2.18174
0
LINE
8
BLACK
6
CONTINUOUS
10
3.52876
20
-2.18174
11
3.52876
21
-2.18178
0
LINE
8
BLACK
6
CONTINUOUS
10
3.52876
20
-2.18178
11
3.52875
21
-2.18187
0
LINE
8
BLACK
6
CONTINUOUS
10
3.52875
20
-2.18187
11
3.52876
21
-2.18195
0
LINE
8
BLACK
6
CONTINUOUS
10
3.52876
20
-2.18195
11
3.52872
21
-2.18215
0
LINE
8
BLACK
6
CONTINUOUS
10
3.52872
20
-2.18215
11
3.5287
21
-2.18235
0
LINE
8
BLACK
6
CONTINUOUS
10
3.5287
20
-2.18235
11
3.52867
21
-2.18243
0
LINE
8
BLACK
6
CONTINUOUS
10
3.52867
20
-2.18243
11
3.52866
21
-2.18252
0
LINE
8
BLACK
6
CONTINUOUS
10
3.52866
20
-2.18252
11
3.52859
21
-2.18271
0
LINE
8
BLACK
6
CONTINUOUS
10
3.52859
20
-2.18271
11
3.52852
21
-2.1829
0
LINE
8
BLACK
6
CONTINUOUS
10
3.52852
20
-2.1829
11
3.52848
21
-2.18298
0
LINE
8
BLACK
6
CONTINUOUS
10
3.52848
20
-2.18298
11
3.52845
21
-2.18306
0
LINE
8
BLACK
6
CONTINUOUS
10
3.52845
20
-2.18306
11
3.52658
21
-2.18681
0
LINE
8
BLACK
6
CONTINUOUS
10
3.52658
20
-2.18681
11
3.52656
21
-2.18685
0
LINE
8
BLACK
6
CONTINUOUS
10
3.52656
20
-2.18685
11
3.52647
21
-2.18698
0
LINE
8
BLACK
6
CONTINUOUS
10
3.52647
20
-2.18698
11
3.52639
21
-2.18713
0
LINE
8
BLACK
6
CONTINUOUS
10
3.52639
20
-2.18713
11
3.52631
21
-2.18723
0
LINE
8
BLACK
6
CONTINUOUS
10
3.52631
20
-2.18723
11
3.52624
21
-2.18733
0
LINE
8
BLACK
6
CONTINUOUS
10
3.52624
20
-2.18733
11
3.52613
21
-2.18745
0
LINE
8
BLACK
6
CONTINUOUS
10
3.52613
20
-2.18745
11
3.52602
21
-2.18758
0
LINE
8
BLACK
6
CONTINUOUS
10
3.52602
20
-2.18758
11
3.52415
21
-2.18945
0
LINE
8
BLACK
6
CONTINUOUS
10
3.52415
20
-2.18945
11
3.52412
21
-2.18948
0
LINE
8
BLACK
6
CONTINUOUS
10
3.52412
20
-2.18948
11
3.52399
21
-2.18958
0
LINE
8
BLACK
6
CONTINUOUS
10
3.52399
20
-2.18958
11
3.52387
21
-2.1897
0
LINE
8
BLACK
6
CONTINUOUS
10
3.52387
20
-2.1897
11
3.52376
21
-2.18976
0
LINE
8
BLACK
6
CONTINUOUS
10
3.52376
20
-2.18976
11
3.52367
21
-2.18984
0
LINE
8
BLACK
6
CONTINUOUS
10
3.52367
20
-2.18984
11
3.52352
21
-2.18992
0
LINE
8
BLACK
6
CONTINUOUS
10
3.52352
20
-2.18992
11
3.52338
21
-2.19
0
LINE
8
BLACK
6
CONTINUOUS
10
3.52338
20
-2.19
11
3.51963
21
-2.19188
0
LINE
8
BLACK
6
CONTINUOUS
10
3.51963
20
-2.19188
11
3.51959
21
-2.1919
0
LINE
8
BLACK
6
CONTINUOUS
10
3.51959
20
-2.1919
11
3.51951
21
-2.19193
0
LINE
8
BLACK
6
CONTINUOUS
10
3.51951
20
-2.19193
11
3.51944
21
-2.19197
0
LINE
8
BLACK
6
CONTINUOUS
10
3.51944
20
-2.19197
11
3.51924
21
-2.19203
0
LINE
8
BLACK
6
CONTINUOUS
10
3.51924
20
-2.19203
11
3.51905
21
-2.1921
0
LINE
8
BLACK
6
CONTINUOUS
10
3.51905
20
-2.1921
11
3.51897
21
-2.19211
0
LINE
8
BLACK
6
CONTINUOUS
10
3.51897
20
-2.19211
11
3.51888
21
-2.19213
0
LINE
8
BLACK
6
CONTINUOUS
10
3.51888
20
-2.19213
11
3.51868
21
-2.19215
0
LINE
8
BLACK
6
CONTINUOUS
10
3.51868
20
-2.19215
11
3.51848
21
-2.19218
0
LINE
8
BLACK
6
CONTINUOUS
10
3.51848
20
-2.19218
11
3.5184
21
-2.19218
0
LINE
8
BLACK
6
CONTINUOUS
10
3.5184
20
-2.19218
11
3.51831
21
-2.19219
0
LINE
8
BLACK
6
CONTINUOUS
10
3.51831
20
-2.19219
11
3.50894
21
-2.19219
0
LINE
8
BLACK
6
CONTINUOUS
10
3.50894
20
-2.19219
11
3.5089
21
-2.19219
0
LINE
8
BLACK
6
CONTINUOUS
10
3.5089
20
-2.19219
11
3.50881
21
-2.19218
0
LINE
8
BLACK
6
CONTINUOUS
10
3.50881
20
-2.19218
11
3.50872
21
-2.19218
0
LINE
8
BLACK
6
CONTINUOUS
10
3.50872
20
-2.19218
11
3.50852
21
-2.19215
0
LINE
8
BLACK
6
CONTINUOUS
10
3.50852
20
-2.19215
11
3.50832
21
-2.19213
0
LINE
8
BLACK
6
CONTINUOUS
10
3.50832
20
-2.19213
11
3.50824
21
-2.1921
0
LINE
8
BLACK
6
CONTINUOUS
10
3.50824
20
-2.1921
11
3.50815
21
-2.19208
0
LINE
8
BLACK
6
CONTINUOUS
10
3.50815
20
-2.19208
11
3.50797
21
-2.19201
0
LINE
8
BLACK
6
CONTINUOUS
10
3.50797
20
-2.19201
11
3.50777
21
-2.19195
0
LINE
8
BLACK
6
CONTINUOUS
10
3.50777
20
-2.19195
11
3.5077
21
-2.19191
0
LINE
8
BLACK
6
CONTINUOUS
10
3.5077
20
-2.19191
11
3.50762
21
-2.19188
0
LINE
8
BLACK
6
CONTINUOUS
10
3.50762
20
-2.19188
11
3.50387
21
-2.19
0
LINE
8
BLACK
6
CONTINUOUS
10
3.50387
20
-2.19
11
3.50383
21
-2.18998
0
LINE
8
BLACK
6
CONTINUOUS
10
3.50383
20
-2.18998
11
3.50369
21
-2.18989
0
LINE
8
BLACK
6
CONTINUOUS
10
3.50369
20
-2.18989
11
3.50355
21
-2.18982
0
LINE
8
BLACK
6
CONTINUOUS
10
3.50355
20
-2.18982
11
3.50345
21
-2.18974
0
LINE
8
BLACK
6
CONTINUOUS
10
3.50345
20
-2.18974
11
3.50335
21
-2.18967
0
LINE
8
BLACK
6
CONTINUOUS
10
3.50335
20
-2.18967
11
3.50323
21
-2.18956
0
LINE
8
BLACK
6
CONTINUOUS
10
3.50323
20
-2.18956
11
3.5031
21
-2.18945
0
LINE
8
BLACK
6
CONTINUOUS
10
3.5031
20
-2.18945
11
3.50123
21
-2.18758
0
LINE
8
BLACK
6
CONTINUOUS
10
3.50123
20
-2.18758
11
3.5012
21
-2.18755
0
LINE
8
BLACK
6
CONTINUOUS
10
3.5012
20
-2.18755
11
3.50109
21
-2.18742
0
LINE
8
BLACK
6
CONTINUOUS
10
3.50109
20
-2.18742
11
3.50098
21
-2.1873
0
LINE
8
BLACK
6
CONTINUOUS
10
3.50098
20
-2.1873
11
3.50091
21
-2.18719
0
LINE
8
BLACK
6
CONTINUOUS
10
3.50091
20
-2.18719
11
3.50084
21
-2.1871
0
LINE
8
BLACK
6
CONTINUOUS
10
3.50084
20
-2.1871
11
3.50076
21
-2.18695
0
LINE
8
BLACK
6
CONTINUOUS
10
3.50076
20
-2.18695
11
3.50067
21
-2.18681
0
LINE
8
BLACK
6
CONTINUOUS
10
3.50067
20
-2.18681
11
3.4988
21
-2.18306
0
LINE
8
BLACK
6
CONTINUOUS
10
3.4988
20
-2.18306
11
3.49878
21
-2.18302
0
LINE
8
BLACK
6
CONTINUOUS
10
3.49878
20
-2.18302
11
3.49875
21
-2.18294
0
LINE
8
BLACK
6
CONTINUOUS
10
3.49875
20
-2.18294
11
3.49871
21
-2.18286
0
LINE
8
BLACK
6
CONTINUOUS
10
3.49871
20
-2.18286
11
3.49865
21
-2.18267
0
LINE
8
BLACK
6
CONTINUOUS
10
3.49865
20
-2.18267
11
3.4986
21
-2.18252
0
LINE
8
BLACK
6
CONTINUOUS
10
3.4986
20
-2.18252
11
3.48838
21
-2.19146
0
LINE
8
BLACK
6
CONTINUOUS
10
3.48838
20
-2.19146
11
3.48835
21
-2.19149
0
LINE
8
BLACK
6
CONTINUOUS
10
3.48835
20
-2.19149
11
3.4882
21
-2.19159
0
LINE
8
BLACK
6
CONTINUOUS
10
3.4882
20
-2.19159
11
3.48806
21
-2.19171
0
LINE
8
BLACK
6
CONTINUOUS
10
3.48806
20
-2.19171
11
3.48797
21
-2.19176
0
LINE
8
BLACK
6
CONTINUOUS
10
3.48797
20
-2.19176
11
3.48788
21
-2.19182
0
LINE
8
BLACK
6
CONTINUOUS
10
3.48788
20
-2.19182
11
3.48771
21
-2.19189
0
LINE
8
BLACK
6
CONTINUOUS
10
3.48771
20
-2.19189
11
3.48755
21
-2.19198
0
LINE
8
BLACK
6
CONTINUOUS
10
3.48755
20
-2.19198
11
3.48745
21
-2.192
0
LINE
8
BLACK
6
CONTINUOUS
10
3.48745
20
-2.192
11
3.48735
21
-2.19205
0
LINE
8
BLACK
6
CONTINUOUS
10
3.48735
20
-2.19205
11
3.48717
21
-2.19209
0
LINE
8
BLACK
6
CONTINUOUS
10
3.48717
20
-2.19209
11
3.48699
21
-2.19214
0
LINE
8
BLACK
6
CONTINUOUS
10
3.48699
20
-2.19214
11
3.48689
21
-2.19215
0
LINE
8
BLACK
6
CONTINUOUS
10
3.48689
20
-2.19215
11
3.48679
21
-2.19217
0
LINE
8
BLACK
6
CONTINUOUS
10
3.48679
20
-2.19217
11
3.4866
21
-2.19217
0
LINE
8
BLACK
6
CONTINUOUS
10
3.4866
20
-2.19217
11
3.48642
21
-2.19219
0
LINE
8
BLACK
6
CONTINUOUS
10
3.48642
20
-2.19219
11
3.48632
21
-2.19218
0
LINE
8
BLACK
6
CONTINUOUS
10
3.48632
20
-2.19218
11
3.48621
21
-2.19218
0
LINE
8
BLACK
6
CONTINUOUS
10
3.48621
20
-2.19218
11
3.48603
21
-2.19215
0
LINE
8
BLACK
6
CONTINUOUS
10
3.48603
20
-2.19215
11
3.48585
21
-2.19213
0
LINE
8
BLACK
6
CONTINUOUS
10
3.48585
20
-2.19213
11
3.48575
21
-2.1921
0
LINE
8
BLACK
6
CONTINUOUS
10
3.48575
20
-2.1921
11
3.48565
21
-2.19208
0
LINE
8
BLACK
6
CONTINUOUS
10
3.48565
20
-2.19208
11
3.48547
21
-2.19201
0
LINE
8
BLACK
6
CONTINUOUS
10
3.48547
20
-2.19201
11
3.4853
21
-2.19196
0
LINE
8
BLACK
6
CONTINUOUS
10
3.4853
20
-2.19196
11
3.4852
21
-2.19191
0
LINE
8
BLACK
6
CONTINUOUS
10
3.4852
20
-2.19191
11
3.48511
21
-2.19187
0
LINE
8
BLACK
6
CONTINUOUS
10
3.48511
20
-2.19187
11
3.48495
21
-2.19177
0
LINE
8
BLACK
6
CONTINUOUS
10
3.48495
20
-2.19177
11
3.48479
21
-2.19169
0
LINE
8
BLACK
6
CONTINUOUS
10
3.48479
20
-2.19169
11
3.48471
21
-2.19162
0
LINE
8
BLACK
6
CONTINUOUS
10
3.48471
20
-2.19162
11
3.48462
21
-2.19156
0
LINE
8
BLACK
6
CONTINUOUS
10
3.48462
20
-2.19156
11
3.48449
21
-2.19144
0
LINE
8
BLACK
6
CONTINUOUS
10
3.48449
20
-2.19144
11
3.48434
21
-2.19132
0
LINE
8
BLACK
6
CONTINUOUS
10
3.48434
20
-2.19132
11
3.48428
21
-2.19124
0
LINE
8
BLACK
6
CONTINUOUS
10
3.48428
20
-2.19124
11
3.4842
21
-2.19117
0
LINE
8
BLACK
6
CONTINUOUS
10
3.4842
20
-2.19117
11
3.4841
21
-2.19101
0
LINE
8
BLACK
6
CONTINUOUS
10
3.4841
20
-2.19101
11
3.48398
21
-2.19087
0
LINE
8
BLACK
6
CONTINUOUS
10
3.48398
20
-2.19087
11
3.48393
21
-2.19078
0
LINE
8
BLACK
6
CONTINUOUS
10
3.48393
20
-2.19078
11
3.48387
21
-2.1907
0
LINE
8
BLACK
6
CONTINUOUS
10
3.48387
20
-2.1907
11
3.4838
21
-2.19053
0
LINE
8
BLACK
6
CONTINUOUS
10
3.4838
20
-2.19053
11
3.48371
21
-2.19036
0
LINE
8
BLACK
6
CONTINUOUS
10
3.48371
20
-2.19036
11
3.48368
21
-2.19026
0
LINE
8
BLACK
6
CONTINUOUS
10
3.48368
20
-2.19026
11
3.48364
21
-2.19017
0
LINE
8
BLACK
6
CONTINUOUS
10
3.48364
20
-2.19017
11
3.4836
21
-2.18999
0
LINE
8
BLACK
6
CONTINUOUS
10
3.4836
20
-2.18999
11
3.48354
21
-2.18981
0
LINE
8
BLACK
6
CONTINUOUS
10
3.48354
20
-2.18981
11
3.48353
21
-2.18971
0
LINE
8
BLACK
6
CONTINUOUS
10
3.48353
20
-2.18971
11
3.48351
21
-2.18961
0
LINE
8
BLACK
6
CONTINUOUS
10
3.48351
20
-2.18961
11
3.48351
21
-2.18942
0
LINE
8
BLACK
6
CONTINUOUS
10
3.48351
20
-2.18942
11
3.48349
21
-2.18924
0
LINE
8
BLACK
6
CONTINUOUS
10
3.48349
20
-2.18924
11
3.48349
21
-2.16487
0
LINE
8
BLACK
6
CONTINUOUS
10
3.48349
20
-2.16487
11
3.48349
21
-2.16482
0
LINE
8
BLACK
6
CONTINUOUS
10
3.48349
20
-2.16482
11
3.48355
21
-2.16425
0
LINE
8
BLACK
6
CONTINUOUS
10
3.48355
20
-2.16425
11
3.48373
21
-2.1637
0
LINE
8
BLACK
6
CONTINUOUS
10
3.48373
20
-2.1637
11
3.484
21
-2.1632
0
LINE
8
BLACK
6
CONTINUOUS
10
3.484
20
-2.1632
11
3.48437
21
-2.16276
0
LINE
8
BLACK
6
CONTINUOUS
10
3.48437
20
-2.16276
11
3.48482
21
-2.16239
0
LINE
8
BLACK
6
CONTINUOUS
10
3.48482
20
-2.16239
11
3.48533
21
-2.16213
0
LINE
8
BLACK
6
CONTINUOUS
10
3.48533
20
-2.16213
11
3.48589
21
-2.16196
0
LINE
8
BLACK
6
CONTINUOUS
10
3.48589
20
-2.16196
11
3.48646
21
-2.16191
0
LINE
8
BLACK
6
CONTINUOUS
10
3.48646
20
-2.16191
11
3.48703
21
-2.16197
0
LINE
8
BLACK
6
CONTINUOUS
10
3.48703
20
-2.16197
11
3.48758
21
-2.16214
0
LINE
8
BLACK
6
CONTINUOUS
10
3.48758
20
-2.16214
11
3.48809
21
-2.16242
0
LINE
8
BLACK
6
CONTINUOUS
10
3.48809
20
-2.16242
11
3.48854
21
-2.16278
0
LINE
8
BLACK
6
CONTINUOUS
10
3.48854
20
-2.16278
11
3.4889
21
-2.16323
0
LINE
8
BLACK
6
CONTINUOUS
10
3.4889
20
-2.16323
11
3.48917
21
-2.16374
0
LINE
8
BLACK
6
CONTINUOUS
10
3.48917
20
-2.16374
11
3.48934
21
-2.16429
0
LINE
8
BLACK
6
CONTINUOUS
10
3.48934
20
-2.16429
11
3.48939
21
-2.16487
0
LINE
8
BLACK
6
CONTINUOUS
10
3.48939
20
-2.16487
11
3.48939
21
-2.18273
0
LINE
8
BLACK
6
CONTINUOUS
10
3.48939
20
-2.18273
11
3.49949
21
-2.17389
0
LINE
8
BLACK
6
CONTINUOUS
10
3.49949
20
-2.17389
11
3.49953
21
-2.17386
0
LINE
8
BLACK
6
CONTINUOUS
10
3.49953
20
-2.17386
11
3.49968
21
-2.17376
0
LINE
8
BLACK
6
CONTINUOUS
10
3.49968
20
-2.17376
11
3.49982
21
-2.17364
0
LINE
8
BLACK
6
CONTINUOUS
10
3.49982
20
-2.17364
11
3.49991
21
-2.1736
0
LINE
8
BLACK
6
CONTINUOUS
10
3.49991
20
-2.1736
11
3.5
21
-2.17354
0
LINE
8
BLACK
6
CONTINUOUS
10
3.5
20
-2.17354
11
3.50017
21
-2.17346
0
LINE
8
BLACK
6
CONTINUOUS
10
3.50017
20
-2.17346
11
3.50033
21
-2.17338
0
LINE
8
BLACK
6
CONTINUOUS
10
3.50033
20
-2.17338
11
3.50043
21
-2.17335
0
LINE
8
BLACK
6
CONTINUOUS
10
3.50043
20
-2.17335
11
3.50053
21
-2.17331
0
LINE
8
BLACK
6
CONTINUOUS
10
3.50053
20
-2.17331
11
3.50071
21
-2.17327
0
LINE
8
BLACK
6
CONTINUOUS
10
3.50071
20
-2.17327
11
3.50088
21
-2.17321
0
LINE
8
BLACK
6
CONTINUOUS
10
3.50088
20
-2.17321
11
3.50099
21
-2.1732
0
LINE
8
BLACK
6
CONTINUOUS
10
3.50099
20
-2.1732
11
3.50109
21
-2.17318
0
LINE
8
BLACK
6
CONTINUOUS
10
3.50109
20
-2.17318
11
3.50128
21
-2.17318
0
LINE
8
BLACK
6
CONTINUOUS
10
3.50128
20
-2.17318
11
3.50146
21
-2.17316
0
LINE
8
BLACK
6
CONTINUOUS
10
3.50146
20
-2.17316
11
3.50156
21
-2.17317
0
LINE
8
BLACK
6
CONTINUOUS
10
3.50156
20
-2.17317
11
3.50167
21
-2.17317
0
LINE
8
BLACK
6
CONTINUOUS
10
3.50167
20
-2.17317
11
3.50185
21
-2.1732
0
LINE
8
BLACK
6
CONTINUOUS
10
3.50185
20
-2.1732
11
3.50203
21
-2.17322
0
LINE
8
BLACK
6
CONTINUOUS
10
3.50203
20
-2.17322
11
3.50213
21
-2.17325
0
LINE
8
BLACK
6
CONTINUOUS
10
3.50213
20
-2.17325
11
3.50223
21
-2.17327
0
LINE
8
BLACK
6
CONTINUOUS
10
3.50223
20
-2.17327
11
3.50241
21
-2.17334
0
LINE
8
BLACK
6
CONTINUOUS
10
3.50241
20
-2.17334
11
3.50258
21
-2.17339
0
LINE
8
BLACK
6
CONTINUOUS
10
3.50258
20
-2.17339
11
3.50267
21
-2.17344
0
LINE
8
BLACK
6
CONTINUOUS
10
3.50267
20
-2.17344
11
3.50277
21
-2.17348
0
LINE
8
BLACK
6
CONTINUOUS
10
3.50277
20
-2.17348
11
3.50293
21
-2.17358
0
LINE
8
BLACK
6
CONTINUOUS
10
3.50293
20
-2.17358
11
3.50309
21
-2.17367
0
LINE
8
BLACK
6
CONTINUOUS
10
3.50309
20
-2.17367
11
3.50317
21
-2.17373
0
LINE
8
BLACK
6
CONTINUOUS
10
3.50317
20
-2.17373
11
3.50326
21
-2.17379
0
LINE
8
BLACK
6
CONTINUOUS
10
3.50326
20
-2.17379
11
3.50339
21
-2.17392
0
LINE
8
BLACK
6
CONTINUOUS
10
3.50339
20
-2.17392
11
3.50353
21
-2.17403
0
LINE
8
BLACK
6
CONTINUOUS
10
3.50353
20
-2.17403
11
3.5036
21
-2.17411
0
LINE
8
BLACK
6
CONTINUOUS
10
3.5036
20
-2.17411
11
3.50367
21
-2.17419
0
LINE
8
BLACK
6
CONTINUOUS
10
3.50367
20
-2.17419
11
3.50378
21
-2.17434
0
LINE
8
BLACK
6
CONTINUOUS
10
3.50378
20
-2.17434
11
3.5039
21
-2.17448
0
LINE
8
BLACK
6
CONTINUOUS
10
3.5039
20
-2.17448
11
3.50395
21
-2.17457
0
LINE
8
BLACK
6
CONTINUOUS
10
3.50395
20
-2.17457
11
3.50401
21
-2.17466
0
LINE
8
BLACK
6
CONTINUOUS
10
3.50401
20
-2.17466
11
3.50408
21
-2.17483
0
LINE
8
BLACK
6
CONTINUOUS
10
3.50408
20
-2.17483
11
3.50417
21
-2.17499
0
LINE
8
BLACK
6
CONTINUOUS
10
3.50417
20
-2.17499
11
3.5042
21
-2.17509
0
LINE
8
BLACK
6
CONTINUOUS
10
3.5042
20
-2.17509
11
3.50424
21
-2.17518
0
LINE
8
BLACK
6
CONTINUOUS
10
3.50424
20
-2.17518
11
3.50428
21
-2.17536
0
LINE
8
BLACK
6
CONTINUOUS
10
3.50428
20
-2.17536
11
3.50433
21
-2.17554
0
LINE
8
BLACK
6
CONTINUOUS
10
3.50433
20
-2.17554
11
3.50434
21
-2.17564
0
LINE
8
BLACK
6
CONTINUOUS
10
3.50434
20
-2.17564
11
3.50437
21
-2.17574
0
LINE
8
BLACK
6
CONTINUOUS
10
3.50437
20
-2.17574
11
3.50437
21
-2.17593
0
LINE
8
BLACK
6
CONTINUOUS
10
3.50437
20
-2.17593
11
3.50439
21
-2.17611
0
LINE
8
BLACK
6
CONTINUOUS
10
3.50439
20
-2.17611
11
3.50439
21
-2.18104
0
LINE
8
BLACK
6
CONTINUOUS
10
3.50439
20
-2.18104
11
3.50574
21
-2.18374
0
LINE
8
BLACK
6
CONTINUOUS
10
3.50574
20
-2.18374
11
3.50694
21
-2.18494
0
LINE
8
BLACK
6
CONTINUOUS
10
3.50694
20
-2.18494
11
3.50963
21
-2.18628
0
LINE
8
BLACK
6
CONTINUOUS
10
3.50963
20
-2.18628
11
3.51761
21
-2.18628
0
LINE
8
BLACK
6
CONTINUOUS
10
3.51761
20
-2.18628
11
3.52031
21
-2.18494
0
LINE
8
BLACK
6
CONTINUOUS
10
3.52031
20
-2.18494
11
3.52151
21
-2.18374
0
LINE
8
BLACK
6
CONTINUOUS
10
3.52151
20
-2.18374
11
3.52286
21
-2.18104
0
LINE
8
BLACK
6
CONTINUOUS
10
3.52286
20
-2.18104
11
3.52286
21
-2.17119
0
LINE
8
BLACK
6
CONTINUOUS
10
3.52286
20
-2.17119
11
3.52151
21
-2.16849
0
LINE
8
BLACK
6
CONTINUOUS
10
3.52151
20
-2.16849
11
3.51997
21
-2.16695
0
LINE
8
BLACK
6
CONTINUOUS
10
3.51997
20
-2.16695
11
3.51994
21
-2.16692
0
LINE
8
BLACK
6
CONTINUOUS
10
3.51994
20
-2.16692
11
3.51958
21
-2.16647
0
LINE
8
BLACK
6
CONTINUOUS
10
3.51958
20
-2.16647
11
3.51932
21
-2.16596
0
LINE
8
BLACK
6
CONTINUOUS
10
3.51932
20
-2.16596
11
3.51916
21
-2.16541
0
LINE
8
BLACK
6
CONTINUOUS
10
3.51916
20
-2.16541
11
3.51911
21
-2.16483
0
LINE
8
BLACK
6
CONTINUOUS
10
3.51911
20
-2.16483
11
3.51917
21
-2.16426
0
LINE
8
BLACK
6
CONTINUOUS
10
3.51917
20
-2.16426
11
3.51934
21
-2.16371
0
LINE
8
BLACK
6
CONTINUOUS
10
3.51934
20
-2.16371
11
3.51962
21
-2.16321
0
LINE
8
BLACK
6
CONTINUOUS
10
3.51962
20
-2.16321
11
3.51999
21
-2.16276
0
LINE
8
BLACK
6
CONTINUOUS
10
3.51999
20
-2.16276
11
3.52044
21
-2.1624
0
LINE
8
BLACK
6
CONTINUOUS
10
3.52044
20
-2.1624
11
3.52095
21
-2.16213
0
LINE
8
BLACK
6
CONTINUOUS
10
3.52095
20
-2.16213
11
3.5215
21
-2.16197
0
LINE
8
BLACK
6
CONTINUOUS
10
3.5215
20
-2.16197
11
3.52207
21
-2.16191
0
LINE
8
BLACK
6
CONTINUOUS
10
3.52207
20
-2.16191
11
3.52264
21
-2.16197
0
LINE
8
BLACK
6
CONTINUOUS
10
3.5
20
-2.13195
11
3.50056
21
-2.13209
0
LINE
8
BLACK
6
CONTINUOUS
10
3.50056
20
-2.13209
11
3.5268
21
-2.14146
0
LINE
8
BLACK
6
CONTINUOUS
10
3.5268
20
-2.14146
11
3.52684
21
-2.14148
0
LINE
8
BLACK
6
CONTINUOUS
10
3.52684
20
-2.14148
11
3.52697
21
-2.14154
0
LINE
8
BLACK
6
CONTINUOUS
10
3.52697
20
-2.14154
11
3.5271
21
-2.14159
0
LINE
8
BLACK
6
CONTINUOUS
10
3.5271
20
-2.14159
11
3.52723
21
-2.14166
0
LINE
8
BLACK
6
CONTINUOUS
10
3.52723
20
-2.14166
11
3.52736
21
-2.14173
0
LINE
8
BLACK
6
CONTINUOUS
10
3.52736
20
-2.14173
11
3.52747
21
-2.14182
0
LINE
8
BLACK
6
CONTINUOUS
10
3.52747
20
-2.14182
11
3.52759
21
-2.14189
0
LINE
8
BLACK
6
CONTINUOUS
10
3.52759
20
-2.14189
11
3.5277
21
-2.14199
0
LINE
8
BLACK
6
CONTINUOUS
10
3.5277
20
-2.14199
11
3.52782
21
-2.14208
0
LINE
8
BLACK
6
CONTINUOUS
10
3.52782
20
-2.14208
11
3.52791
21
-2.14218
0
LINE
8
BLACK
6
CONTINUOUS
10
3.52791
20
-2.14218
11
3.52802
21
-2.14228
0
LINE
8
BLACK
6
CONTINUOUS
10
3.52802
20
-2.14228
11
3.5281
21
-2.1424
0
LINE
8
BLACK
6
CONTINUOUS
10
3.5281
20
-2.1424
11
3.5282
21
-2.14251
0
LINE
8
BLACK
6
CONTINUOUS
10
3.5282
20
-2.14251
11
3.52827
21
-2.14263
0
LINE
8
BLACK
6
CONTINUOUS
10
3.52827
20
-2.14263
11
3.52836
21
-2.14275
0
LINE
8
BLACK
6
CONTINUOUS
10
3.52836
20
-2.14275
11
3.52842
21
-2.14288
0
LINE
8
BLACK
6
CONTINUOUS
10
3.52842
20
-2.14288
11
3.52849
21
-2.14301
0
LINE
8
BLACK
6
CONTINUOUS
10
3.52849
20
-2.14301
11
3.52854
21
-2.14314
0
LINE
8
BLACK
6
CONTINUOUS
10
3.52854
20
-2.14314
11
3.5286
21
-2.14327
0
LINE
8
BLACK
6
CONTINUOUS
10
3.5286
20
-2.14327
11
3.52863
21
-2.14341
0
LINE
8
BLACK
6
CONTINUOUS
10
3.52863
20
-2.14341
11
3.52868
21
-2.14355
0
LINE
8
BLACK
6
CONTINUOUS
10
3.52868
20
-2.14355
11
3.5287
21
-2.14369
0
LINE
8
BLACK
6
CONTINUOUS
10
3.5287
20
-2.14369
11
3.52873
21
-2.14383
0
LINE
8
BLACK
6
CONTINUOUS
10
3.52873
20
-2.14383
11
3.52874
21
-2.14398
0
LINE
8
BLACK
6
CONTINUOUS
10
3.52874
20
-2.14398
11
3.52876
21
-2.14412
0
LINE
8
BLACK
6
CONTINUOUS
10
3.52876
20
-2.14412
11
3.52875
21
-2.14426
0
LINE
8
BLACK
6
CONTINUOUS
10
3.52875
20
-2.14426
11
3.52876
21
-2.14441
0
LINE
8
BLACK
6
CONTINUOUS
10
3.52876
20
-2.14441
11
3.52874
21
-2.14455
0
LINE
8
BLACK
6
CONTINUOUS
10
3.52874
20
-2.14455
11
3.52873
21
-2.1447
0
LINE
8
BLACK
6
CONTINUOUS
10
3.52873
20
-2.1447
11
3.52869
21
-2.14483
0
LINE
8
BLACK
6
CONTINUOUS
10
3.52869
20
-2.14483
11
3.52867
21
-2.14497
0
LINE
8
BLACK
6
CONTINUOUS
10
3.52867
20
-2.14497
11
3.52862
21
-2.14511
0
LINE
8
BLACK
6
CONTINUOUS
10
3.52862
20
-2.14511
11
3.52858
21
-2.14526
0
LINE
8
BLACK
6
CONTINUOUS
10
3.52858
20
-2.14526
11
3.52852
21
-2.14538
0
LINE
8
BLACK
6
CONTINUOUS
10
3.52852
20
-2.14538
11
3.52847
21
-2.14552
0
LINE
8
BLACK
6
CONTINUOUS
10
3.52847
20
-2.14552
11
3.5284
21
-2.14564
0
LINE
8
BLACK
6
CONTINUOUS
10
3.5284
20
-2.14564
11
3.52833
21
-2.14577
0
LINE
8
BLACK
6
CONTINUOUS
10
3.52833
20
-2.14577
11
3.52825
21
-2.14589
0
LINE
8
BLACK
6
CONTINUOUS
10
3.52825
20
-2.14589
11
3.52818
21
-2.14601
0
LINE
8
BLACK
6
CONTINUOUS
10
3.52818
20
-2.14601
11
3.52808
21
-2.14612
0
LINE
8
BLACK
6
CONTINUOUS
10
3.52808
20
-2.14612
11
3.52799
21
-2.14624
0
LINE
8
BLACK
6
CONTINUOUS
10
3.52799
20
-2.14624
11
3.52788
21
-2.14633
0
LINE
8
BLACK
6
CONTINUOUS
10
3.52788
20
-2.14633
11
3.52779
21
-2.14644
0
LINE
8
BLACK
6
CONTINUOUS
10
3.52779
20
-2.14644
11
3.52767
21
-2.14652
0
LINE
8
BLACK
6
CONTINUOUS
10
3.52767
20
-2.14652
11
3.52756
21
-2.14662
0
LINE
8
BLACK
6
CONTINUOUS
10
3.52756
20
-2.14662
11
3.52744
21
-2.14669
0
LINE
8
BLACK
6
CONTINUOUS
10
3.52744
20
-2.14669
11
3.52732
21
-2.14678
0
LINE
8
BLACK
6
CONTINUOUS
10
3.52732
20
-2.14678
11
3.52719
21
-2.14684
0
LINE
8
BLACK
6
CONTINUOUS
10
3.52719
20
-2.14684
11
3.52706
21
-2.14692
0
LINE
8
BLACK
6
CONTINUOUS
10
3.52706
20
-2.14692
11
3.52693
21
-2.14696
0
LINE
8
BLACK
6
CONTINUOUS
10
3.52693
20
-2.14696
11
3.5268
21
-2.14702
0
LINE
8
BLACK
6
CONTINUOUS
10
3.5268
20
-2.14702
11
3.50056
21
-2.1564
0
LINE
8
BLACK
6
CONTINUOUS
10
3.50056
20
-2.1564
11
3.50052
21
-2.15641
0
LINE
8
BLACK
6
CONTINUOUS
10
3.50052
20
-2.15641
11
3.49996
21
-2.15654
0
LINE
8
BLACK
6
CONTINUOUS
10
3.49996
20
-2.15654
11
3.49938
21
-2.15656
0
LINE
8
BLACK
6
CONTINUOUS
10
3.49938
20
-2.15656
11
3.49881
21
-2.15647
0
LINE
8
BLACK
6
CONTINUOUS
10
3.49881
20
-2.15647
11
3.49827
21
-2.15627
0
LINE
8
BLACK
6
CONTINUOUS
10
3.49827
20
-2.15627
11
3.49778
21
-2.15597
0
LINE
8
BLACK
6
CONTINUOUS
10
3.49778
20
-2.15597
11
3.49736
21
-2.15558
0
LINE
8
BLACK
6
CONTINUOUS
10
3.49736
20
-2.15558
11
3.49702
21
-2.15511
0
LINE
8
BLACK
6
CONTINUOUS
10
3.49702
20
-2.15511
11
3.49678
21
-2.15459
0
LINE
8
BLACK
6
CONTINUOUS
10
3.49678
20
-2.15459
11
3.49664
21
-2.15403
0
LINE
8
BLACK
6
CONTINUOUS
10
3.49664
20
-2.15403
11
3.49662
21
-2.15345
0
LINE
8
BLACK
6
CONTINUOUS
10
3.49662
20
-2.15345
11
3.4967
21
-2.15289
0
LINE
8
BLACK
6
CONTINUOUS
10
3.4967
20
-2.15289
11
3.4969
21
-2.15234
0
LINE
8
BLACK
6
CONTINUOUS
10
3.4969
20
-2.15234
11
3.4972
21
-2.15185
0
LINE
8
BLACK
6
CONTINUOUS
10
3.4972
20
-2.15185
11
3.49759
21
-2.15142
0
LINE
8
BLACK
6
CONTINUOUS
10
3.49759
20
-2.15142
11
3.49805
21
-2.15108
0
LINE
8
BLACK
6
CONTINUOUS
10
3.49805
20
-2.15108
11
3.49857
21
-2.15084
0
LINE
8
BLACK
6
CONTINUOUS
10
3.49857
20
-2.15084
11
3.51703
21
-2.14424
0
LINE
8
BLACK
6
CONTINUOUS
10
3.51703
20
-2.14424
11
3.49857
21
-2.13765
0
LINE
8
BLACK
6
CONTINUOUS
10
3.49857
20
-2.13765
11
3.49853
21
-2.13764
0
LINE
8
BLACK
6
CONTINUOUS
10
3.49853
20
-2.13764
11
3.49801
21
-2.13738
0
LINE
8
BLACK
6
CONTINUOUS
10
3.49801
20
-2.13738
11
3.49756
21
-2.13703
0
LINE
8
BLACK
6
CONTINUOUS
10
3.49756
20
-2.13703
11
3.49717
21
-2.1366
0
LINE
8
BLACK
6
CONTINUOUS
10
3.49717
20
-2.1366
11
3.49688
21
-2.13611
0
LINE
8
BLACK
6
CONTINUOUS
10
3.49688
20
-2.13611
11
3.49669
21
-2.13556
0
LINE
8
BLACK
6
CONTINUOUS
10
3.49669
20
-2.13556
11
3.49661
21
-2.13499
0
LINE
8
BLACK
6
CONTINUOUS
10
3.49661
20
-2.13499
11
3.49665
21
-2.13441
0
LINE
8
BLACK
6
CONTINUOUS
10
3.49665
20
-2.13441
11
3.49679
21
-2.13386
0
LINE
8
BLACK
6
CONTINUOUS
10
3.49679
20
-2.13386
11
3.49704
21
-2.13334
0
LINE
8
BLACK
6
CONTINUOUS
10
3.49704
20
-2.13334
11
3.49738
21
-2.13288
0
LINE
8
BLACK
6
CONTINUOUS
10
3.49738
20
-2.13288
11
3.49781
21
-2.13249
0
LINE
8
BLACK
6
CONTINUOUS
10
3.49781
20
-2.13249
11
3.49831
21
-2.1322
0
LINE
8
BLACK
6
CONTINUOUS
10
3.49831
20
-2.1322
11
3.49885
21
-2.132
0
LINE
8
BLACK
6
CONTINUOUS
10
3.49885
20
-2.132
11
3.49942
21
-2.13192
0
LINE
8
BLACK
6
CONTINUOUS
10
3.49942
20
-2.13192
11
3.5
21
-2.13195
0
LINE
8
BLACK
6
CONTINUOUS
10
3.5264
20
-2.09636
11
3.52695
21
-2.09653
0
LINE
8
BLACK
6
CONTINUOUS
10
3.52695
20
-2.09653
11
3.52746
21
-2.0968
0
LINE
8
BLACK
6
CONTINUOUS
10
3.52746
20
-2.0968
11
3.52791
21
-2.09717
0
LINE
8
BLACK
6
CONTINUOUS
10
3.52791
20
-2.09717
11
3.52827
21
-2.09761
0
LINE
8
BLACK
6
CONTINUOUS
10
3.52827
20
-2.09761
11
3.52854
21
-2.09812
0
LINE
8
BLACK
6
CONTINUOUS
10
3.52854
20
-2.09812
11
3.52871
21
-2.09868
0
LINE
8
BLACK
6
CONTINUOUS
10
3.52871
20
-2.09868
11
3.52876
21
-2.09925
0
LINE
8
BLACK
6
CONTINUOUS
10
3.52876
20
-2.09925
11
3.52876
21
-2.12175
0
LINE
8
BLACK
6
CONTINUOUS
10
3.52876
20
-2.12175
11
3.52876
21
-2.12179
0
LINE
8
BLACK
6
CONTINUOUS
10
3.52876
20
-2.12179
11
3.5287
21
-2.12236
0
LINE
8
BLACK
6
CONTINUOUS
10
3.5287
20
-2.12236
11
3.52852
21
-2.12291
0
LINE
8
BLACK
6
CONTINUOUS
10
3.52852
20
-2.12291
11
3.52825
21
-2.12341
0
LINE
8
BLACK
6
CONTINUOUS
10
3.52825
20
-2.12341
11
3.52788
21
-2.12386
0
LINE
8
BLACK
6
CONTINUOUS
10
3.52788
20
-2.12386
11
3.52743
21
-2.12422
0
LINE
8
BLACK
6
CONTINUOUS
10
3.52743
20
-2.12422
11
3.52692
21
-2.12448
0
LINE
8
BLACK
6
CONTINUOUS
10
3.52692
20
-2.12448
11
3.52636
21
-2.12465
0
LINE
8
BLACK
6
CONTINUOUS
10
3.52636
20
-2.12465
11
3.52579
21
-2.1247
0
LINE
8
BLACK
6
CONTINUOUS
10
3.52579
20
-2.1247
11
3.52522
21
-2.12464
0
LINE
8
BLACK
6
CONTINUOUS
10
3.52522
20
-2.12464
11
3.52467
21
-2.12447
0
LINE
8
BLACK
6
CONTINUOUS
10
3.52467
20
-2.12447
11
3.52416
21
-2.12419
0
LINE
8
BLACK
6
CONTINUOUS
10
3.52416
20
-2.12419
11
3.52372
21
-2.12383
0
LINE
8
BLACK
6
CONTINUOUS
10
3.52372
20
-2.12383
11
3.52335
21
-2.12338
0
LINE
8
BLACK
6
CONTINUOUS
10
3.52335
20
-2.12338
11
3.52308
21
-2.12287
0
LINE
8
BLACK
6
CONTINUOUS
10
3.52308
20
-2.12287
11
3.52291
21
-2.12232
0
LINE
8
BLACK
6
CONTINUOUS
10
3.52291
20
-2.12232
11
3.52286
21
-2.12175
0
LINE
8
BLACK
6
CONTINUOUS
10
3.52286
20
-2.12175
11
3.52286
21
-2.11345
0
LINE
8
BLACK
6
CONTINUOUS
10
3.52286
20
-2.11345
11
3.48644
21
-2.11345
0
LINE
8
BLACK
6
CONTINUOUS
10
3.48644
20
-2.11345
11
3.4864
21
-2.11345
0
LINE
8
BLACK
6
CONTINUOUS
10
3.4864
20
-2.11345
11
3.4864
21
-2.11345
0
LINE
8
BLACK
6
CONTINUOUS
10
3.4864
20
-2.11345
11
3.4864
21
-2.11345
0
LINE
8
BLACK
6
CONTINUOUS
10
3.4864
20
-2.11345
11
3.4864
21
-2.11345
0
LINE
8
BLACK
6
CONTINUOUS
10
3.4864
20
-2.11345
11
3.48612
21
-2.11342
0
LINE
8
BLACK
6
CONTINUOUS
10
3.48612
20
-2.11342
11
3.48583
21
-2.11339
0
LINE
8
BLACK
6
CONTINUOUS
10
3.48583
20
-2.11339
11
3.48583
21
-2.11339
0
LINE
8
BLACK
6
CONTINUOUS
10
3.48583
20
-2.11339
11
3.48583
21
-2.11339
0
LINE
8
BLACK
6
CONTINUOUS
10
3.48583
20
-2.11339
11
3.48554
21
-2.1133
0
LINE
8
BLACK
6
CONTINUOUS
10
3.48554
20
-2.1133
11
3.48528
21
-2.11321
0
LINE
8
BLACK
6
CONTINUOUS
10
3.48528
20
-2.11321
11
3.48528
21
-2.11321
0
LINE
8
BLACK
6
CONTINUOUS
10
3.48528
20
-2.11321
11
3.48528
21
-2.11321
0
LINE
8
BLACK
6
CONTINUOUS
10
3.48528
20
-2.11321
11
3.48502
21
-2.11307
0
LINE
8
BLACK
6
CONTINUOUS
10
3.48502
20
-2.11307
11
3.48478
21
-2.11294
0
LINE
8
BLACK
6
CONTINUOUS
10
3.48478
20
-2.11294
11
3.48477
21
-2.11293
0
LINE
8
BLACK
6
CONTINUOUS
10
3.48477
20
-2.11293
11
3.48477
21
-2.11293
0
LINE
8
BLACK
6
CONTINUOUS
10
3.48477
20
-2.11293
11
3.48455
21
-2.11275
0
LINE
8
BLACK
6
CONTINUOUS
10
3.48455
20
-2.11275
11
3.48433
21
-2.11257
0
LINE
8
BLACK
6
CONTINUOUS
10
3.48433
20
-2.11257
11
3.48433
21
-2.11256
0
LINE
8
BLACK
6
CONTINUOUS
10
3.48433
20
-2.11256
11
3.48433
21
-2.11256
0
LINE
8
BLACK
6
CONTINUOUS
10
3.48433
20
-2.11256
11
3.48415
21
-2.11234
0
LINE
8
BLACK
6
CONTINUOUS
10
3.48415
20
-2.11234
11
3.48397
21
-2.11212
0
LINE
8
BLACK
6
CONTINUOUS
10
3.48397
20
-2.11212
11
3.48397
21
-2.11212
0
LINE
8
BLACK
6
CONTINUOUS
10
3.48397
20
-2.11212
11
3.48397
21
-2.11211
0
LINE
8
BLACK
6
CONTINUOUS
10
3.48397
20
-2.11211
11
3.48384
21
-2.11186
0
LINE
8
BLACK
6
CONTINUOUS
10
3.48384
20
-2.11186
11
3.4837
21
-2.11161
0
LINE
8
BLACK
6
CONTINUOUS
10
3.4837
20
-2.11161
11
3.4837
21
-2.11161
0
LINE
8
BLACK
6
CONTINUOUS
10
3.4837
20
-2.11161
11
3.4837
21
-2.1116
0
LINE
8
BLACK
6
CONTINUOUS
10
3.4837
20
-2.1116
11
3.48362
21
-2.11133
0
LINE
8
BLACK
6
CONTINUOUS
10
3.48362
20
-2.11133
11
3.48354
21
-2.11105
0
LINE
8
BLACK
6
CONTINUOUS
10
3.48354
20
-2.11105
11
3.48354
21
-2.11105
0
LINE
8
BLACK
6
CONTINUOUS
10
3.48354
20
-2.11105
11
3.48354
21
-2.11105
0
LINE
8
BLACK
6
CONTINUOUS
10
3.48354
20
-2.11105
11
3.48351
21
-2.11077
0
LINE
8
BLACK
6
CONTINUOUS
10
3.48351
20
-2.11077
11
3.48349
21
-2.11048
0
LINE
8
BLACK
6
CONTINUOUS
10
3.48349
20
-2.11048
11
3.48349
21
-2.11048
0
LINE
8
BLACK
6
CONTINUOUS
10
3.48349
20
-2.11048
11
3.48349
21
-2.11048
0
LINE
8
BLACK
6
CONTINUOUS
10
3.48349
20
-2.11048
11
3.48352
21
-2.1102
0
LINE
8
BLACK
6
CONTINUOUS
10
3.48352
20
-2.1102
11
3.48355
21
-2.10991
0
LINE
8
BLACK
6
CONTINUOUS
10
3.48355
20
-2.10991
11
3.48355
21
-2.10991
0
LINE
8
BLACK
6
CONTINUOUS
10
3.48355
20
-2.10991
11
3.48355
21
-2.1099
0
LINE
8
BLACK
6
CONTINUOUS
10
3.48355
20
-2.1099
11
3.48363
21
-2.10962
0
LINE
8
BLACK
6
CONTINUOUS
10
3.48363
20
-2.10962
11
3.48372
21
-2.10936
0
LINE
8
BLACK
6
CONTINUOUS
10
3.48372
20
-2.10936
11
3.48372
21
-2.10936
0
LINE
8
BLACK
6
CONTINUOUS
10
3.48372
20
-2.10936
11
3.48372
21
-2.10935
0
LINE
8
BLACK
6
CONTINUOUS
10
3.48372
20
-2.10935
11
3.48386
21
-2.10909
0
LINE
8
BLACK
6
CONTINUOUS
10
3.48386
20
-2.10909
11
3.48399
21
-2.10885
0
LINE
8
BLACK
6
CONTINUOUS
10
3.48399
20
-2.10885
11
3.48399
21
-2.10885
0
LINE
8
BLACK
6
CONTINUOUS
10
3.48399
20
-2.10885
11
3.48399
21
-2.10885
0
LINE
8
BLACK
6
CONTINUOUS
10
3.48399
20
-2.10885
11
3.48417
21
-2.10863
0
LINE
8
BLACK
6
CONTINUOUS
10
3.48417
20
-2.10863
11
3.48436
21
-2.10841
0
LINE
8
BLACK
6
CONTINUOUS
10
3.48436
20
-2.10841
11
3.48436
21
-2.1084
0
LINE
8
BLACK
6
CONTINUOUS
10
3.48436
20
-2.1084
11
3.48436
21
-2.1084
0
LINE
8
BLACK
6
CONTINUOUS
10
3.48436
20
-2.1084
11
3.48458
21
-2.10823
0
LINE
8
BLACK
6
CONTINUOUS
10
3.48458
20
-2.10823
11
3.4848
21
-2.10804
0
LINE
8
BLACK
6
CONTINUOUS
10
3.4848
20
-2.10804
11
3.49018
21
-2.10445
0
LINE
8
BLACK
6
CONTINUOUS
10
3.49018
20
-2.10445
11
3.49339
21
-2.10125
0
LINE
8
BLACK
6
CONTINUOUS
10
3.49339
20
-2.10125
11
3.49505
21
-2.09793
0
LINE
8
BLACK
6
CONTINUOUS
10
3.49505
20
-2.09793
11
3.49507
21
-2.09789
0
LINE
8
BLACK
6
CONTINUOUS
10
3.49507
20
-2.09789
11
3.49538
21
-2.09741
0
LINE
8
BLACK
6
CONTINUOUS
10
3.49538
20
-2.09741
11
3.49578
21
-2.09699
0
LINE
8
BLACK
6
CONTINUOUS
10
3.49578
20
-2.09699
11
3.49626
21
-2.09667
0
LINE
8
BLACK
6
CONTINUOUS
10
3.49626
20
-2.09667
11
3.49678
21
-2.09644
0
LINE
8
BLACK
6
CONTINUOUS
10
3.49678
20
-2.09644
11
3.49735
21
-2.09632
0
LINE
8
BLACK
6
CONTINUOUS
10
3.49735
20
-2.09632
11
3.49792
21
-2.09631
0
LINE
8
BLACK
6
CONTINUOUS
10
3.49792
20
-2.09631
11
3.49849
21
-2.09641
0
LINE
8
BLACK
6
CONTINUOUS
10
3.49849
20
-2.09641
11
3.49903
21
-2.09662
0
LINE
8
BLACK
6
CONTINUOUS
10
3.49903
20
-2.09662
11
3.49951
21
-2.09693
0
LINE
8
BLACK
6
CONTINUOUS
10
3.49951
20
-2.09693
11
3.49993
21
-2.09733
0
LINE
8
BLACK
6
CONTINUOUS
10
3.49993
20
-2.09733
11
3.50026
21
-2.0978
0
LINE
8
BLACK
6
CONTINUOUS
10
3.50026
20
-2.0978
11
3.50049
21
-2.09832
0
LINE
8
BLACK
6
CONTINUOUS
10
3.50049
20
-2.09832
11
3.50062
21
-2.09889
0
LINE
8
BLACK
6
CONTINUOUS
10
3.50062
20
-2.09889
11
3.50063
21
-2.09946
0
LINE
8
BLACK
6
CONTINUOUS
10
3.50063
20
-2.09946
11
3.50054
21
-2.10003
0
LINE
8
BLACK
6
CONTINUOUS
10
3.50054
20
-2.10003
11
3.50033
21
-2.10057
0
LINE
8
BLACK
6
CONTINUOUS
10
3.50033
20
-2.10057
11
3.49846
21
-2.10432
0
LINE
8
BLACK
6
CONTINUOUS
10
3.49846
20
-2.10432
11
3.49844
21
-2.10436
0
LINE
8
BLACK
6
CONTINUOUS
10
3.49844
20
-2.10436
11
3.49835
21
-2.10449
0
LINE
8
BLACK
6
CONTINUOUS
10
3.49835
20
-2.10449
11
3.49827
21
-2.10464
0
LINE
8
BLACK
6
CONTINUOUS
10
3.49827
20
-2.10464
11
3.49819
21
-2.10474
0
LINE
8
BLACK
6
CONTINUOUS
10
3.49819
20
-2.10474
11
3.49812
21
-2.10484
0
LINE
8
BLACK
6
CONTINUOUS
10
3.49812
20
-2.10484
11
3.49801
21
-2.10496
0
LINE
8
BLACK
6
CONTINUOUS
10
3.49801
20
-2.10496
11
3.4979
21
-2.10509
0
LINE
8
BLACK
6
CONTINUOUS
10
3.4979
20
-2.10509
11
3.49544
21
-2.10754
0
LINE
8
BLACK
6
CONTINUOUS
10
3.49544
20
-2.10754
11
3.52286
21
-2.10754
0
LINE
8
BLACK
6
CONTINUOUS
10
3.52286
20
-2.10754
11
3.52286
21
-2.09925
0
LINE
8
BLACK
6
CONTINUOUS
10
3.52286
20
-2.09925
11
3.52286
21
-2.09921
0
LINE
8
BLACK
6
CONTINUOUS
10
3.52286
20
-2.09921
11
3.52292
21
-2.09863
0
LINE
8
BLACK
6
CONTINUOUS
10
3.52292
20
-2.09863
11
3.5231
21
-2.09809
0
LINE
8
BLACK
6
CONTINUOUS
10
3.5231
20
-2.09809
11
3.52337
21
-2.09758
0
LINE
8
BLACK
6
CONTINUOUS
10
3.52337
20
-2.09758
11
3.52374
21
-2.09714
0
LINE
8
BLACK
6
CONTINUOUS
10
3.52374
20
-2.09714
11
3.52419
21
-2.09678
0
LINE
8
BLACK
6
CONTINUOUS
10
3.52419
20
-2.09678
11
3.5247
21
-2.09651
0
LINE
8
BLACK
6
CONTINUOUS
10
3.5247
20
-2.09651
11
3.52526
21
-2.09635
0
LINE
8
BLACK
6
CONTINUOUS
10
3.52526
20
-2.09635
11
3.52583
21
-2.0963
0
LINE
8
BLACK
6
CONTINUOUS
10
3.52583
20
-2.0963
11
3.5264
21
-2.09636
0
LINE
8
BLACK
6
CONTINUOUS
10
3.52396
20
-2.07755
11
3.52397
21
-2.07755
0
LINE
8
BLACK
6
CONTINUOUS
10
3.52397
20
-2.07755
11
3.52424
21
-2.07758
0
LINE
8
BLACK
6
CONTINUOUS
10
3.52424
20
-2.07758
11
3.52452
21
-2.07761
0
LINE
8
BLACK
6
CONTINUOUS
10
3.52452
20
-2.07761
11
3.52453
21
-2.07761
0
LINE
8
BLACK
6
CONTINUOUS
10
3.52453
20
-2.07761
11
3.52454
21
-2.07761
0
LINE
8
BLACK
6
CONTINUOUS
10
3.52454
20
-2.07761
11
3.5248
21
-2.07769
0
LINE
8
BLACK
6
CONTINUOUS
10
3.5248
20
-2.07769
11
3.52507
21
-2.07777
0
LINE
8
BLACK
6
CONTINUOUS
10
3.52507
20
-2.07777
11
3.52508
21
-2.07778
0
LINE
8
BLACK
6
CONTINUOUS
10
3.52508
20
-2.07778
11
3.52509
21
-2.07778
0
LINE
8
BLACK
6
CONTINUOUS
10
3.52509
20
-2.07778
11
3.52533
21
-2.07791
0
LINE
8
BLACK
6
CONTINUOUS
10
3.52533
20
-2.07791
11
3.52558
21
-2.07805
0
LINE
8
BLACK
6
CONTINUOUS
10
3.52558
20
-2.07805
11
3.52559
21
-2.07805
0
LINE
8
BLACK
6
CONTINUOUS
10
3.52559
20
-2.07805
11
3.5256
21
-2.07806
0
LINE
8
BLACK
6
CONTINUOUS
10
3.5256
20
-2.07806
11
3.52581
21
-2.07824
0
LINE
8
BLACK
6
CONTINUOUS
10
3.52581
20
-2.07824
11
3.52602
21
-2.07841
0
LINE
8
BLACK
6
CONTINUOUS
10
3.52602
20
-2.07841
11
3.5279
21
-2.08029
0
LINE
8
BLACK
6
CONTINUOUS
10
3.5279
20
-2.08029
11
3.52791
21
-2.0803
0
LINE
8
BLACK
6
CONTINUOUS
10
3.52791
20
-2.0803
11
3.52791
21
-2.0803
0
LINE
8
BLACK
6
CONTINUOUS
10
3.52791
20
-2.0803
11
3.52791
21
-2.0803
0
LINE
8
BLACK
6
CONTINUOUS
10
3.52791
20
-2.0803
11
3.52792
21
-2.08031
0
LINE
8
BLACK
6
CONTINUOUS
10
3.52792
20
-2.08031
11
3.52792
21
-2.08031
0
LINE
8
BLACK
6
CONTINUOUS
10
3.52792
20
-2.08031
11
3.52792
21
-2.08031
0
LINE
8
BLACK
6
CONTINUOUS
10
3.52792
20
-2.08031
11
3.52793
21
-2.08032
0
LINE
8
BLACK
6
CONTINUOUS
10
3.52793
20
-2.08032
11
3.5281
21
-2.08054
0
LINE
8
BLACK
6
CONTINUOUS
10
3.5281
20
-2.08054
11
3.52828
21
-2.08075
0
LINE
8
BLACK
6
CONTINUOUS
10
3.52828
20
-2.08075
11
3.52828
21
-2.08075
0
LINE
8
BLACK
6
CONTINUOUS
10
3.52828
20
-2.08075
11
3.52828
21
-2.08076
0
LINE
8
BLACK
6
CONTINUOUS
10
3.52828
20
-2.08076
11
3.52828
21
-2.08076
0
LINE
8
BLACK
6
CONTINUOUS
10
3.52828
20
-2.08076
11
3.52829
21
-2.08077
0
LINE
8
BLACK
6
CONTINUOUS
10
3.52829
20
-2.08077
11
3.52841
21
-2.08102
0
LINE
8
BLACK
6
CONTINUOUS
10
3.52841
20
-2.08102
11
3.52854
21
-2.08126
0
LINE
8
BLACK
6
CONTINUOUS
10
3.52854
20
-2.08126
11
3.52855
21
-2.08126
0
LINE
8
BLACK
6
CONTINUOUS
10
3.52855
20
-2.08126
11
3.52855
21
-2.08127
0
LINE
8
BLACK
6
CONTINUOUS
10
3.52855
20
-2.08127
11
3.52855
21
-2.08127
0
LINE
8
BLACK
6
CONTINUOUS
10
3.52855
20
-2.08127
11
3.52855
21
-2.08128
0
LINE
8
BLACK
6
CONTINUOUS
10
3.52855
20
-2.08128
11
3.52863
21
-2.08155
0
LINE
8
BLACK
6
CONTINUOUS
10
3.52863
20
-2.08155
11
3.52871
21
-2.08181
0
LINE
8
BLACK
6
CONTINUOUS
10
3.52871
20
-2.08181
11
3.52871
21
-2.08182
0
LINE
8
BLACK
6
CONTINUOUS
10
3.52871
20
-2.08182
11
3.52871
21
-2.08182
0
LINE
8
BLACK
6
CONTINUOUS
10
3.52871
20
-2.08182
11
3.52871
21
-2.08183
0
LINE
8
BLACK
6
CONTINUOUS
10
3.52871
20
-2.08183
11
3.52871
21
-2.08183
0
LINE
8
BLACK
6
CONTINUOUS
10
3.52871
20
-2.08183
11
3.52874
21
-2.08211
0
LINE
8
BLACK
6
CONTINUOUS
10
3.52874
20
-2.08211
11
3.52876
21
-2.08239
0
LINE
8
BLACK
6
CONTINUOUS
10
3.52876
20
-2.08239
11
3.52876
21
-2.08239
0
LINE
8
BLACK
6
CONTINUOUS
10
3.52876
20
-2.08239
11
3.52876
21
-2.0824
0
LINE
8
BLACK
6
CONTINUOUS
10
3.52876
20
-2.0824
11
3.52876
21
-2.0824
0
LINE
8
BLACK
6
CONTINUOUS
10
3.52876
20
-2.0824
11
3.52876
21
-2.08241
0
LINE
8
BLACK
6
CONTINUOUS
10
3.52876
20
-2.08241
11
3.52873
21
-2.08268
0
LINE
8
BLACK
6
CONTINUOUS
10
3.52873
20
-2.08268
11
3.5287
21
-2.08296
0
LINE
8
BLACK
6
CONTINUOUS
10
3.5287
20
-2.08296
11
3.5287
21
-2.08296
0
LINE
8
BLACK
6
CONTINUOUS
10
3.5287
20
-2.08296
11
3.5287
21
-2.08297
0
LINE
8
BLACK
6
CONTINUOUS
10
3.5287
20
-2.08297
11
3.5287
21
-2.08297
0
LINE
8
BLACK
6
CONTINUOUS
10
3.5287
20
-2.08297
11
3.5287
21
-2.08298
0
LINE
8
BLACK
6
CONTINUOUS
10
3.5287
20
-2.08298
11
3.52862
21
-2.08324
0
LINE
8
BLACK
6
CONTINUOUS
10
3.52862
20
-2.08324
11
3.52862
21
-2.08324
0
LINE
8
BLACK
6
CONTINUOUS
10
3.52862
20
-2.08324
11
3.52854
21
-2.08351
0
LINE
8
BLACK
6
CONTINUOUS
10
3.52854
20
-2.08351
11
3.52853
21
-2.08351
0
LINE
8
BLACK
6
CONTINUOUS
10
3.52853
20
-2.08351
11
3.52853
21
-2.08352
0
LINE
8
BLACK
6
CONTINUOUS
10
3.52853
20
-2.08352
11
3.52853
21
-2.08352
0
LINE
8
BLACK
6
CONTINUOUS
10
3.52853
20
-2.08352
11
3.52853
21
-2.08353
0
LINE
8
BLACK
6
CONTINUOUS
10
3.52853
20
-2.08353
11
3.5284
21
-2.08377
0
LINE
8
BLACK
6
CONTINUOUS
10
3.5284
20
-2.08377
11
3.52826
21
-2.08402
0
LINE
8
BLACK
6
CONTINUOUS
10
3.52826
20
-2.08402
11
3.52826
21
-2.08402
0
LINE
8
BLACK
6
CONTINUOUS
10
3.52826
20
-2.08402
11
3.52826
21
-2.08403
0
LINE
8
BLACK
6
CONTINUOUS
10
3.52826
20
-2.08403
11
3.52825
21
-2.08403
0
LINE
8
BLACK
6
CONTINUOUS
10
3.52825
20
-2.08403
11
3.52825
21
-2.08404
0
LINE
8
BLACK
6
CONTINUOUS
10
3.52825
20
-2.08404
11
3.52808
21
-2.08425
0
LINE
8
BLACK
6
CONTINUOUS
10
3.52808
20
-2.08425
11
3.5279
21
-2.08446
0
LINE
8
BLACK
6
CONTINUOUS
10
3.5279
20
-2.08446
11
3.52602
21
-2.08634
0
LINE
8
BLACK
6
CONTINUOUS
10
3.52602
20
-2.08634
11
3.52601
21
-2.08635
0
LINE
8
BLACK
6
CONTINUOUS
10
3.52601
20
-2.08635
11
3.52601
21
-2.08635
0
LINE
8
BLACK
6
CONTINUOUS
10
3.52601
20
-2.08635
11
3.52601
21
-2.08635
0
LINE
8
BLACK
6
CONTINUOUS
10
3.52601
20
-2.08635
11
3.52599
21
-2.08637
0
LINE
8
BLACK
6
CONTINUOUS
10
3.52599
20
-2.08637
11
3.52578
21
-2.08654
0
LINE
8
BLACK
6
CONTINUOUS
10
3.52578
20
-2.08654
11
3.52556
21
-2.08672
0
LINE
8
BLACK
6
CONTINUOUS
10
3.52556
20
-2.08672
11
3.52555
21
-2.08672
0
LINE
8
BLACK
6
CONTINUOUS
10
3.52555
20
-2.08672
11
3.52554
21
-2.08673
0
LINE
8
BLACK
6
CONTINUOUS
10
3.52554
20
-2.08673
11
3.52529
21
-2.08686
0
LINE
8
BLACK
6
CONTINUOUS
10
3.52529
20
-2.08686
11
3.52505
21
-2.08698
0
LINE
8
BLACK
6
CONTINUOUS
10
3.52505
20
-2.08698
11
3.52504
21
-2.08699
0
LINE
8
BLACK
6
CONTINUOUS
10
3.52504
20
-2.08699
11
3.52503
21
-2.08699
0
LINE
8
BLACK
6
CONTINUOUS
10
3.52503
20
-2.08699
11
3.52476
21
-2.08707
0
LINE
8
BLACK
6
CONTINUOUS
10
3.52476
20
-2.08707
11
3.5245
21
-2.08715
0
LINE
8
BLACK
6
CONTINUOUS
10
3.5245
20
-2.08715
11
3.52449
21
-2.08715
0
LINE
8
BLACK
6
CONTINUOUS
10
3.52449
20
-2.08715
11
3.52448
21
-2.08715
0
LINE
8
BLACK
6
CONTINUOUS
10
3.52448
20
-2.08715
11
3.5242
21
-2.08718
0
LINE
8
BLACK
6
CONTINUOUS
10
3.5242
20
-2.08718
11
3.52393
21
-2.0872
0
LINE
8
BLACK
6
CONTINUOUS
10
3.52393
20
-2.0872
11
3.52391
21
-2.0872
0
LINE
8
BLACK
6
CONTINUOUS
10
3.52391
20
-2.0872
11
3.5239
21
-2.0872
0
LINE
8
BLACK
6
CONTINUOUS
10
3.5239
20
-2.0872
11
3.52363
21
-2.08717
0
LINE
8
BLACK
6
CONTINUOUS
10
3.52363
20
-2.08717
11
3.52335
21
-2.08714
0
LINE
8
BLACK
6
CONTINUOUS
10
3.52335
20
-2.08714
11
3.52334
21
-2.08714
0
LINE
8
BLACK
6
CONTINUOUS
10
3.52334
20
-2.08714
11
3.52333
21
-2.08714
0
LINE
8
BLACK
6
CONTINUOUS
10
3.52333
20
-2.08714
11
3.52306
21
-2.08706
0
LINE
8
BLACK
6
CONTINUOUS
10
3.52306
20
-2.08706
11
3.5228
21
-2.08698
0
LINE
8
BLACK
6
CONTINUOUS
10
3.5228
20
-2.08698
11
3.52279
21
-2.08697
0
LINE
8
BLACK
6
CONTINUOUS
10
3.52279
20
-2.08697
11
3.52278
21
-2.08697
0
LINE
8
BLACK
6
CONTINUOUS
10
3.52278
20
-2.08697
11
3.52254
21
-2.08683
0
LINE
8
BLACK
6
CONTINUOUS
10
3.52254
20
-2.08683
11
3.52229
21
-2.0867
0
LINE
8
BLACK
6
CONTINUOUS
10
3.52229
20
-2.0867
11
3.52228
21
-2.0867
0
LINE
8
BLACK
6
CONTINUOUS
10
3.52228
20
-2.0867
11
3.52228
21
-2.08669
0
LINE
8
BLACK
6
CONTINUOUS
10
3.52228
20
-2.08669
11
3.52206
21
-2.08651
0
LINE
8
BLACK
6
CONTINUOUS
10
3.52206
20
-2.08651
11
3.52185
21
-2.08634
0
LINE
8
BLACK
6
CONTINUOUS
10
3.52185
20
-2.08634
11
3.51997
21
-2.08446
0
LINE
8
BLACK
6
CONTINUOUS
10
3.51997
20
-2.08446
11
3.51996
21
-2.08445
0
LINE
8
BLACK
6
CONTINUOUS
10
3.51996
20
-2.08445
11
3.51996
21
-2.08445
0
LINE
8
BLACK
6
CONTINUOUS
10
3.51996
20
-2.08445
11
3.51996
21
-2.08445
0
LINE
8
BLACK
6
CONTINUOUS
10
3.51996
20
-2.08445
11
3.51995
21
-2.08444
0
LINE
8
BLACK
6
CONTINUOUS
10
3.51995
20
-2.08444
11
3.51995
21
-2.08444
0
LINE
8
BLACK
6
CONTINUOUS
10
3.51995
20
-2.08444
11
3.51995
21
-2.08444
0
LINE
8
BLACK
6
CONTINUOUS
10
3.51995
20
-2.08444
11
3.51994
21
-2.08443
0
LINE
8
BLACK
6
CONTINUOUS
10
3.51994
20
-2.08443
11
3.51977
21
-2.08422
0
LINE
8
BLACK
6
CONTINUOUS
10
3.51977
20
-2.08422
11
3.5196
21
-2.084
0
LINE
8
BLACK
6
CONTINUOUS
10
3.5196
20
-2.084
11
3.51959
21
-2.084
0
LINE
8
BLACK
6
CONTINUOUS
10
3.51959
20
-2.084
11
3.51959
21
-2.08399
0
LINE
8
BLACK
6
CONTINUOUS
10
3.51959
20
-2.08399
11
3.51959
21
-2.08399
0
LINE
8
BLACK
6
CONTINUOUS
10
3.51959
20
-2.08399
11
3.51958
21
-2.08398
0
LINE
8
BLACK
6
CONTINUOUS
10
3.51958
20
-2.08398
11
3.51946
21
-2.08374
0
LINE
8
BLACK
6
CONTINUOUS
10
3.51946
20
-2.08374
11
3.51933
21
-2.08349
0
LINE
8
BLACK
6
CONTINUOUS
10
3.51933
20
-2.08349
11
3.51933
21
-2.08349
0
LINE
8
BLACK
6
CONTINUOUS
10
3.51933
20
-2.08349
11
3.51932
21
-2.08348
0
LINE
8
BLACK
6
CONTINUOUS
10
3.51932
20
-2.08348
11
3.51932
21
-2.08348
0
LINE
8
BLACK
6
CONTINUOUS
10
3.51932
20
-2.08348
11
3.51932
21
-2.08347
0
LINE
8
BLACK
6
CONTINUOUS
10
3.51932
20
-2.08347
11
3.51924
21
-2.0832
0
LINE
8
BLACK
6
CONTINUOUS
10
3.51924
20
-2.0832
11
3.51916
21
-2.08294
0
LINE
8
BLACK
6
CONTINUOUS
10
3.51916
20
-2.08294
11
3.51916
21
-2.08293
0
LINE
8
BLACK
6
CONTINUOUS
10
3.51916
20
-2.08293
11
3.51916
21
-2.08293
0
LINE
8
BLACK
6
CONTINUOUS
10
3.51916
20
-2.08293
11
3.51916
21
-2.08292
0
LINE
8
BLACK
6
CONTINUOUS
10
3.51916
20
-2.08292
11
3.51916
21
-2.08292
0
LINE
8
BLACK
6
CONTINUOUS
10
3.51916
20
-2.08292
11
3.51913
21
-2.08264
0
LINE
8
BLACK
6
CONTINUOUS
10
3.51913
20
-2.08264
11
3.51911
21
-2.08237
0
LINE
8
BLACK
6
CONTINUOUS
10
3.51911
20
-2.08237
11
3.51911
21
-2.08236
0
LINE
8
BLACK
6
CONTINUOUS
10
3.51911
20
-2.08236
11
3.51911
21
-2.08236
0
LINE
8
BLACK
6
CONTINUOUS
10
3.51911
20
-2.08236
11
3.51911
21
-2.08235
0
LINE
8
BLACK
6
CONTINUOUS
10
3.51911
20
-2.08235
11
3.51911
21
-2.08234
0
LINE
8
BLACK
6
CONTINUOUS
10
3.51911
20
-2.08234
11
3.51914
21
-2.08207
0
LINE
8
BLACK
6
CONTINUOUS
10
3.51914
20
-2.08207
11
3.51917
21
-2.08179
0
LINE
8
BLACK
6
CONTINUOUS
10
3.51917
20
-2.08179
11
3.51917
21
-2.08179
0
LINE
8
BLACK
6
CONTINUOUS
10
3.51917
20
-2.08179
11
3.51917
21
-2.08178
0
LINE
8
BLACK
6
CONTINUOUS
10
3.51917
20
-2.08178
11
3.51917
21
-2.08178
0
LINE
8
BLACK
6
CONTINUOUS
10
3.51917
20
-2.08178
11
3.51917
21
-2.08177
0
LINE
8
BLACK
6
CONTINUOUS
10
3.51917
20
-2.08177
11
3.51925
21
-2.08151
0
LINE
8
BLACK
6
CONTINUOUS
10
3.51925
20
-2.08151
11
3.51933
21
-2.08124
0
LINE
8
BLACK
6
CONTINUOUS
10
3.51933
20
-2.08124
11
3.51934
21
-2.08124
0
LINE
8
BLACK
6
CONTINUOUS
10
3.51934
20
-2.08124
11
3.51934
21
-2.08123
0
LINE
8
BLACK
6
CONTINUOUS
10
3.51934
20
-2.08123
11
3.51934
21
-2.08123
0
LINE
8
BLACK
6
CONTINUOUS
10
3.51934
20
-2.08123
11
3.51934
21
-2.08122
0
LINE
8
BLACK
6
CONTINUOUS
10
3.51934
20
-2.08122
11
3.51948
21
-2.08098
0
LINE
8
BLACK
6
CONTINUOUS
10
3.51948
20
-2.08098
11
3.51961
21
-2.08073
0
LINE
8
BLACK
6
CONTINUOUS
10
3.51961
20
-2.08073
11
3.51961
21
-2.08073
0
LINE
8
BLACK
6
CONTINUOUS
10
3.51961
20
-2.08073
11
3.51961
21
-2.08072
0
LINE
8
BLACK
6
CONTINUOUS
10
3.51961
20
-2.08072
11
3.51962
21
-2.08072
0
LINE
8
BLACK
6
CONTINUOUS
10
3.51962
20
-2.08072
11
3.51962
21
-2.08072
0
LINE
8
BLACK
6
CONTINUOUS
10
3.51962
20
-2.08072
11
3.5198
21
-2.0805
0
LINE
8
BLACK
6
CONTINUOUS
10
3.5198
20
-2.0805
11
3.51997
21
-2.08029
0
LINE
8
BLACK
6
CONTINUOUS
10
3.51997
20
-2.08029
11
3.52185
21
-2.07841
0
LINE
8
BLACK
6
CONTINUOUS
10
3.52185
20
-2.07841
11
3.52186
21
-2.0784
0
LINE
8
BLACK
6
CONTINUOUS
10
3.52186
20
-2.0784
11
3.52186
21
-2.0784
0
LINE
8
BLACK
6
CONTINUOUS
10
3.52186
20
-2.0784
11
3.52186
21
-2.0784
0
LINE
8
BLACK
6
CONTINUOUS
10
3.52186
20
-2.0784
11
3.52188
21
-2.07838
0
LINE
8
BLACK
6
CONTINUOUS
10
3.52188
20
-2.07838
11
3.52209
21
-2.07821
0
LINE
8
BLACK
6
CONTINUOUS
10
3.52209
20
-2.07821
11
3.52231
21
-2.07804
0
LINE
8
BLACK
6
CONTINUOUS
10
3.52231
20
-2.07804
11
3.52232
21
-2.07803
0
LINE
8
BLACK
6
CONTINUOUS
10
3.52232
20
-2.07803
11
3.52233
21
-2.07802
0
LINE
8
BLACK
6
CONTINUOUS
10
3.52233
20
-2.07802
11
3.52257
21
-2.0779
0
LINE
8
BLACK
6
CONTINUOUS
10
3.52257
20
-2.0779
11
3.52282
21
-2.07777
0
LINE
8
BLACK
6
CONTINUOUS
10
3.52282
20
-2.07777
11
3.52283
21
-2.07776
0
LINE
8
BLACK
6
CONTINUOUS
10
3.52283
20
-2.07776
11
3.52284
21
-2.07776
0
LINE
8
BLACK
6
CONTINUOUS
10
3.52284
20
-2.07776
11
3.52311
21
-2.07768
0
LINE
8
BLACK
6
CONTINUOUS
10
3.52311
20
-2.07768
11
3.52337
21
-2.0776
0
LINE
8
BLACK
6
CONTINUOUS
10
3.52337
20
-2.0776
11
3.52338
21
-2.0776
0
LINE
8
BLACK
6
CONTINUOUS
10
3.52338
20
-2.0776
11
3.52339
21
-2.0776
0
LINE
8
BLACK
6
CONTINUOUS
10
3.52339
20
-2.0776
11
3.52367
21
-2.07757
0
LINE
8
BLACK
6
CONTINUOUS
10
3.52367
20
-2.07757
11
3.52395
21
-2.07755
0
LINE
8
BLACK
6
CONTINUOUS
10
3.52395
20
-2.07755
11
3.52396
21
-2.07755
0
LINE
8
BLACK
6
CONTINUOUS
10
3.52584
20
-2.03818
11
3.52584
21
-2.03818
0
LINE
8
BLACK
6
CONTINUOUS
10
3.52584
20
-2.03818
11
3.52612
21
-2.03821
0
LINE
8
BLACK
6
CONTINUOUS
10
3.52612
20
-2.03821
11
3.5264
21
-2.03824
0
LINE
8
BLACK
6
CONTINUOUS
10
3.5264
20
-2.03824
11
3.52641
21
-2.03824
0
LINE
8
BLACK
6
CONTINUOUS
10
3.52641
20
-2.03824
11
3.52641
21
-2.03824
0
LINE
8
BLACK
6
CONTINUOUS
10
3.52641
20
-2.03824
11
3.52668
21
-2.03832
0
LINE
8
BLACK
6
CONTINUOUS
10
3.52668
20
-2.03832
11
3.52695
21
-2.03841
0
LINE
8
BLACK
6
CONTINUOUS
10
3.52695
20
-2.03841
11
3.52696
21
-2.03841
0
LINE
8
BLACK
6
CONTINUOUS
10
3.52696
20
-2.03841
11
3.52696
21
-2.03841
0
LINE
8
BLACK
6
CONTINUOUS
10
3.52696
20
-2.03841
11
3.52722
21
-2.03855
0
LINE
8
BLACK
6
CONTINUOUS
10
3.52722
20
-2.03855
11
3.52746
21
-2.03868
0
LINE
8
BLACK
6
CONTINUOUS
10
3.52746
20
-2.03868
11
3.52747
21
-2.03869
0
LINE
8
BLACK
6
CONTINUOUS
10
3.52747
20
-2.03869
11
3.52747
21
-2.03869
0
LINE
8
BLACK
6
CONTINUOUS
10
3.52747
20
-2.03869
11
3.52769
21
-2.03887
0
LINE
8
BLACK
6
CONTINUOUS
10
3.52769
20
-2.03887
11
3.52791
21
-2.03905
0
LINE
8
BLACK
6
CONTINUOUS
10
3.52791
20
-2.03905
11
3.52791
21
-2.03905
0
LINE
8
BLACK
6
CONTINUOUS
10
3.52791
20
-2.03905
11
3.52791
21
-2.03906
0
LINE
8
BLACK
6
CONTINUOUS
10
3.52791
20
-2.03906
11
3.52809
21
-2.03928
0
LINE
8
BLACK
6
CONTINUOUS
10
3.52809
20
-2.03928
11
3.52827
21
-2.0395
0
LINE
8
BLACK
6
CONTINUOUS
10
3.52827
20
-2.0395
11
3.52827
21
-2.0395
0
LINE
8
BLACK
6
CONTINUOUS
10
3.52827
20
-2.0395
11
3.52828
21
-2.03951
0
LINE
8
BLACK
6
CONTINUOUS
10
3.52828
20
-2.03951
11
3.52841
21
-2.03976
0
LINE
8
BLACK
6
CONTINUOUS
10
3.52841
20
-2.03976
11
3.52854
21
-2.04001
0
LINE
8
BLACK
6
CONTINUOUS
10
3.52854
20
-2.04001
11
3.52854
21
-2.04001
0
LINE
8
BLACK
6
CONTINUOUS
10
3.52854
20
-2.04001
11
3.52854
21
-2.04002
0
LINE
8
BLACK
6
CONTINUOUS
10
3.52854
20
-2.04002
11
3.52863
21
-2.04029
0
LINE
8
BLACK
6
CONTINUOUS
10
3.52863
20
-2.04029
11
3.52871
21
-2.04056
0
LINE
8
BLACK
6
CONTINUOUS
10
3.52871
20
-2.04056
11
3.52871
21
-2.04056
0
LINE
8
BLACK
6
CONTINUOUS
10
3.52871
20
-2.04056
11
3.52871
21
-2.04057
0
LINE
8
BLACK
6
CONTINUOUS
10
3.52871
20
-2.04057
11
3.52874
21
-2.04085
0
LINE
8
BLACK
6
CONTINUOUS
10
3.52874
20
-2.04085
11
3.52876
21
-2.04113
0
LINE
8
BLACK
6
CONTINUOUS
10
3.52876
20
-2.04113
11
3.52876
21
-2.0655
0
LINE
8
BLACK
6
CONTINUOUS
10
3.52876
20
-2.0655
11
3.52876
21
-2.06554
0
LINE
8
BLACK
6
CONTINUOUS
10
3.52876
20
-2.06554
11
3.5287
21
-2.06612
0
LINE
8
BLACK
6
CONTINUOUS
10
3.5287
20
-2.06612
11
3.52852
21
-2.06667
0
LINE
8
BLACK
6
CONTINUOUS
10
3.52852
20
-2.06667
11
3.52825
21
-2.06717
0
LINE
8
BLACK
6
CONTINUOUS
10
3.52825
20
-2.06717
11
3.52788
21
-2.06761
0
LINE
8
BLACK
6
CONTINUOUS
10
3.52788
20
-2.06761
11
3.52743
21
-2.06797
0
LINE
8
BLACK
6
CONTINUOUS
10
3.52743
20
-2.06797
11
3.52692
21
-2.06824
0
LINE
8
BLACK
6
CONTINUOUS
10
3.52692
20
-2.06824
11
3.52636
21
-2.0684
0
LINE
8
BLACK
6
CONTINUOUS
10
3.52636
20
-2.0684
11
3.52579
21
-2.06846
0
LINE
8
BLACK
6
CONTINUOUS
10
3.52579
20
-2.06846
11
3.52522
21
-2.0684
0
LINE
8
BLACK
6
CONTINUOUS
10
3.52522
20
-2.0684
11
3.52467
21
-2.06822
0
LINE
8
BLACK
6
CONTINUOUS
10
3.52467
20
-2.06822
11
3.52416
21
-2.06795
0
LINE
8
BLACK
6
CONTINUOUS
10
3.52416
20
-2.06795
11
3.52372
21
-2.06758
0
LINE
8
BLACK
6
CONTINUOUS
10
3.52372
20
-2.06758
11
3.52335
21
-2.06714
0
LINE
8
BLACK
6
CONTINUOUS
10
3.52335
20
-2.06714
11
3.52308
21
-2.06663
0
LINE
8
BLACK
6
CONTINUOUS
10
3.52308
20
-2.06663
11
3.52291
21
-2.06608
0
LINE
8
BLACK
6
CONTINUOUS
10
3.52291
20
-2.06608
11
3.52286
21
-2.0655
0
LINE
8
BLACK
6
CONTINUOUS
10
3.52286
20
-2.0655
11
3.52286
21
-2.04826
0
LINE
8
BLACK
6
CONTINUOUS
10
3.52286
20
-2.04826
11
3.5054
21
-2.06572
0
LINE
8
BLACK
6
CONTINUOUS
10
3.5054
20
-2.06572
11
3.50537
21
-2.06574
0
LINE
8
BLACK
6
CONTINUOUS
10
3.50537
20
-2.06574
11
3.5053
21
-2.0658
0
LINE
8
BLACK
6
CONTINUOUS
10
3.5053
20
-2.0658
11
3.50524
21
-2.06586
0
LINE
8
BLACK
6
CONTINUOUS
10
3.50524
20
-2.06586
11
3.50508
21
-2.06598
0
LINE
8
BLACK
6
CONTINUOUS
10
3.50508
20
-2.06598
11
3.50492
21
-2.0661
0
LINE
8
BLACK
6
CONTINUOUS
10
3.50492
20
-2.0661
11
3.50484
21
-2.06614
0
LINE
8
BLACK
6
CONTINUOUS
10
3.50484
20
-2.06614
11
3.50477
21
-2.06619
0
LINE
8
BLACK
6
CONTINUOUS
10
3.50477
20
-2.06619
11
3.50459
21
-2.06628
0
LINE
8
BLACK
6
CONTINUOUS
10
3.50459
20
-2.06628
11
3.50441
21
-2.06637
0
LINE
8
BLACK
6
CONTINUOUS
10
3.50441
20
-2.06637
11
3.50433
21
-2.06639
0
LINE
8
BLACK
6
CONTINUOUS
10
3.50433
20
-2.06639
11
3.50425
21
-2.06643
0
LINE
8
BLACK
6
CONTINUOUS
10
3.50425
20
-2.06643
11
3.49862
21
-2.0683
0
LINE
8
BLACK
6
CONTINUOUS
10
3.49862
20
-2.0683
11
3.49858
21
-2.06832
0
LINE
8
BLACK
6
CONTINUOUS
10
3.49858
20
-2.06832
11
3.49842
21
-2.06835
0
LINE
8
BLACK
6
CONTINUOUS
10
3.49842
20
-2.06835
11
3.49826
21
-2.0684
0
LINE
8
BLACK
6
CONTINUOUS
10
3.49826
20
-2.0684
11
3.49814
21
-2.06841
0
LINE
8
BLACK
6
CONTINUOUS
10
3.49814
20
-2.06841
11
3.49802
21
-2.06844
0
LINE
8
BLACK
6
CONTINUOUS
10
3.49802
20
-2.06844
11
3.49785
21
-2.06844
0
LINE
8
BLACK
6
CONTINUOUS
10
3.49785
20
-2.06844
11
3.49769
21
-2.06846
0
LINE
8
BLACK
6
CONTINUOUS
10
3.49769
20
-2.06846
11
3.49394
21
-2.06846
0
LINE
8
BLACK
6
CONTINUOUS
10
3.49394
20
-2.06846
11
3.4939
21
-2.06846
0
LINE
8
BLACK
6
CONTINUOUS
10
3.4939
20
-2.06846
11
3.49381
21
-2.06845
0
LINE
8
BLACK
6
CONTINUOUS
10
3.49381
20
-2.06845
11
3.49372
21
-2.06845
0
LINE
8
BLACK
6
CONTINUOUS
10
3.49372
20
-2.06845
11
3.49353
21
-2.06841
0
LINE
8
BLACK
6
CONTINUOUS
10
3.49353
20
-2.06841
11
3.49333
21
-2.06839
0
LINE
8
BLACK
6
CONTINUOUS
10
3.49333
20
-2.06839
11
3.49324
21
-2.06836
0
LINE
8
BLACK
6
CONTINUOUS
10
3.49324
20
-2.06836
11
3.49316
21
-2.06835
0
LINE
8
BLACK
6
CONTINUOUS
10
3.49316
20
-2.06835
11
3.49297
21
-2.06828
0
LINE
8
BLACK
6
CONTINUOUS
10
3.49297
20
-2.06828
11
3.49278
21
-2.06822
0
LINE
8
BLACK
6
CONTINUOUS
10
3.49278
20
-2.06822
11
3.4927
21
-2.06817
0
LINE
8
BLACK
6
CONTINUOUS
10
3.4927
20
-2.06817
11
3.49262
21
-2.06814
0
LINE
8
BLACK
6
CONTINUOUS
10
3.49262
20
-2.06814
11
3.48887
21
-2.06627
0
LINE
8
BLACK
6
CONTINUOUS
10
3.48887
20
-2.06627
11
3.48883
21
-2.06625
0
LINE
8
BLACK
6
CONTINUOUS
10
3.48883
20
-2.06625
11
3.48869
21
-2.06616
0
LINE
8
BLACK
6
CONTINUOUS
10
3.48869
20
-2.06616
11
3.48855
21
-2.06608
0
LINE
8
BLACK
6
CONTINUOUS
10
3.48855
20
-2.06608
11
3.48845
21
-2.066
0
LINE
8
BLACK
6
CONTINUOUS
10
3.48845
20
-2.066
11
3.48835
21
-2.06594
0
LINE
8
BLACK
6
CONTINUOUS
10
3.48835
20
-2.06594
11
3.48823
21
-2.06582
0
LINE
8
BLACK
6
CONTINUOUS
10
3.48823
20
-2.06582
11
3.4881
21
-2.06572
0
LINE
8
BLACK
6
CONTINUOUS
10
3.4881
20
-2.06572
11
3.48623
21
-2.06384
0
LINE
8
BLACK
6
CONTINUOUS
10
3.48623
20
-2.06384
11
3.4862
21
-2.06381
0
LINE
8
BLACK
6
CONTINUOUS
10
3.4862
20
-2.06381
11
3.48609
21
-2.06368
0
LINE
8
BLACK
6
CONTINUOUS
10
3.48609
20
-2.06368
11
3.48598
21
-2.06356
0
LINE
8
BLACK
6
CONTINUOUS
10
3.48598
20
-2.06356
11
3.48592
21
-2.06346
0
LINE
8
BLACK
6
CONTINUOUS
10
3.48592
20
-2.06346
11
3.48584
21
-2.06336
0
LINE
8
BLACK
6
CONTINUOUS
10
3.48584
20
-2.06336
11
3.48576
21
-2.06321
0
LINE
8
BLACK
6
CONTINUOUS
10
3.48576
20
-2.06321
11
3.48567
21
-2.06307
0
LINE
8
BLACK
6
CONTINUOUS
10
3.48567
20
-2.06307
11
3.4838
21
-2.05932
0
LINE
8
BLACK
6
CONTINUOUS
10
3.4838
20
-2.05932
11
3.48378
21
-2.05929
0
LINE
8
BLACK
6
CONTINUOUS
10
3.48378
20
-2.05929
11
3.48375
21
-2.05921
0
LINE
8
BLACK
6
CONTINUOUS
10
3.48375
20
-2.05921
11
3.48371
21
-2.05913
0
LINE
8
BLACK
6
CONTINUOUS
10
3.48371
20
-2.05913
11
3.48365
21
-2.05894
0
LINE
8
BLACK
6
CONTINUOUS
10
3.48365
20
-2.05894
11
3.48358
21
-2.05875
0
LINE
8
BLACK
6
CONTINUOUS
10
3.48358
20
-2.05875
11
3.48357
21
-2.05866
0
LINE
8
BLACK
6
CONTINUOUS
10
3.48357
20
-2.05866
11
3.48354
21
-2.05858
0
LINE
8
BLACK
6
CONTINUOUS
10
3.48354
20
-2.05858
11
3.48352
21
-2.05838
0
LINE
8
BLACK
6
CONTINUOUS
10
3.48352
20
-2.05838
11
3.48349
21
-2.05818
0
LINE
8
BLACK
6
CONTINUOUS
10
3.48349
20
-2.05818
11
3.4835
21
-2.05809
0
LINE
8
BLACK
6
CONTINUOUS
10
3.4835
20
-2.05809
11
3.48349
21
-2.058
0
LINE
8
BLACK
6
CONTINUOUS
10
3.48349
20
-2.058
11
3.48349
21
-2.04863
0
LINE
8
BLACK
6
CONTINUOUS
10
3.48349
20
-2.04863
11
3.48349
21
-2.04859
0
LINE
8
BLACK
6
CONTINUOUS
10
3.48349
20
-2.04859
11
3.4835
21
-2.0485
0
LINE
8
BLACK
6
CONTINUOUS
10
3.4835
20
-2.0485
11
3.4835
21
-2.04842
0
LINE
8
BLACK
6
CONTINUOUS
10
3.4835
20
-2.04842
11
3.48353
21
-2.04822
0
LINE
8
BLACK
6
CONTINUOUS
10
3.48353
20
-2.04822
11
3.48355
21
-2.04802
0
LINE
8
BLACK
6
CONTINUOUS
10
3.48355
20
-2.04802
11
3.48358
21
-2.04793
0
LINE
8
BLACK
6
CONTINUOUS
10
3.48358
20
-2.04793
11
3.48359
21
-2.04785
0
LINE
8
BLACK
6
CONTINUOUS
10
3.48359
20
-2.04785
11
3.48367
21
-2.04766
0
LINE
8
BLACK
6
CONTINUOUS
10
3.48367
20
-2.04766
11
3.48373
21
-2.04747
0
LINE
8
BLACK
6
CONTINUOUS
10
3.48373
20
-2.04747
11
3.48377
21
-2.04739
0
LINE
8
BLACK
6
CONTINUOUS
10
3.48377
20
-2.04739
11
3.4838
21
-2.04731
0
LINE
8
BLACK
6
CONTINUOUS
10
3.4838
20
-2.04731
11
3.48567
21
-2.04356
0
LINE
8
BLACK
6
CONTINUOUS
10
3.48567
20
-2.04356
11
3.48569
21
-2.04352
0
LINE
8
BLACK
6
CONTINUOUS
10
3.48569
20
-2.04352
11
3.48578
21
-2.04338
0
LINE
8
BLACK
6
CONTINUOUS
10
3.48578
20
-2.04338
11
3.48586
21
-2.04324
0
LINE
8
BLACK
6
CONTINUOUS
10
3.48586
20
-2.04324
11
3.48594
21
-2.04314
0
LINE
8
BLACK
6
CONTINUOUS
10
3.48594
20
-2.04314
11
3.48601
21
-2.04304
0
LINE
8
BLACK
6
CONTINUOUS
10
3.48601
20
-2.04304
11
3.48612
21
-2.04292
0
LINE
8
BLACK
6
CONTINUOUS
10
3.48612
20
-2.04292
11
3.48623
21
-2.04279
0
LINE
8
BLACK
6
CONTINUOUS
10
3.48623
20
-2.04279
11
3.4881
21
-2.04092
0
LINE
8
BLACK
6
CONTINUOUS
10
3.4881
20
-2.04092
11
3.48813
21
-2.04089
0
LINE
8
BLACK
6
CONTINUOUS
10
3.48813
20
-2.04089
11
3.48858
21
-2.04053
0
LINE
8
BLACK
6
CONTINUOUS
10
3.48858
20
-2.04053
11
3.48909
21
-2.04026
0
LINE
8
BLACK
6
CONTINUOUS
10
3.48909
20
-2.04026
11
3.48965
21
-2.0401
0
LINE
8
BLACK
6
CONTINUOUS
10
3.48965
20
-2.0401
11
3.49022
21
-2.04005
0
LINE
8
BLACK
6
CONTINUOUS
10
3.49022
20
-2.04005
11
3.49079
21
-2.04012
0
LINE
8
BLACK
6
CONTINUOUS
10
3.49079
20
-2.04012
11
3.49134
21
-2.04029
0
LINE
8
BLACK
6
CONTINUOUS
10
3.49134
20
-2.04029
11
3.49185
21
-2.04056
0
LINE
8
BLACK
6
CONTINUOUS
10
3.49185
20
-2.04056
11
3.49229
21
-2.04093
0
LINE
8
BLACK
6
CONTINUOUS
10
3.49229
20
-2.04093
11
3.49265
21
-2.04138
0
LINE
8
BLACK
6
CONTINUOUS
10
3.49265
20
-2.04138
11
3.49292
21
-2.04189
0
LINE
8
BLACK
6
CONTINUOUS
10
3.49292
20
-2.04189
11
3.49309
21
-2.04244
0
LINE
8
BLACK
6
CONTINUOUS
10
3.49309
20
-2.04244
11
3.49314
21
-2.04302
0
LINE
8
BLACK
6
CONTINUOUS
10
3.49314
20
-2.04302
11
3.49308
21
-2.04359
0
LINE
8
BLACK
6
CONTINUOUS
10
3.49308
20
-2.04359
11
3.49292
21
-2.04414
0
LINE
8
BLACK
6
CONTINUOUS
10
3.49292
20
-2.04414
11
3.49264
21
-2.04465
0
LINE
8
BLACK
6
CONTINUOUS
10
3.49264
20
-2.04465
11
3.49228
21
-2.04509
0
LINE
8
BLACK
6
CONTINUOUS
10
3.49228
20
-2.04509
11
3.49074
21
-2.04663
0
LINE
8
BLACK
6
CONTINUOUS
10
3.49074
20
-2.04663
11
3.48939
21
-2.04933
0
LINE
8
BLACK
6
CONTINUOUS
10
3.48939
20
-2.04933
11
3.48939
21
-2.05731
0
LINE
8
BLACK
6
CONTINUOUS
10
3.48939
20
-2.05731
11
3.49074
21
-2.06
0
LINE
8
BLACK
6
CONTINUOUS
10
3.49074
20
-2.06
11
3.49194
21
-2.0612
0
LINE
8
BLACK
6
CONTINUOUS
10
3.49194
20
-2.0612
11
3.49464
21
-2.06255
0
LINE
8
BLACK
6
CONTINUOUS
10
3.49464
20
-2.06255
11
3.49721
21
-2.06255
0
LINE
8
BLACK
6
CONTINUOUS
10
3.49721
20
-2.06255
11
3.50172
21
-2.06105
0
LINE
8
BLACK
6
CONTINUOUS
10
3.50172
20
-2.06105
11
3.52372
21
-2.03904
0
LINE
8
BLACK
6
CONTINUOUS
10
3.52372
20
-2.03904
11
3.52374
21
-2.03902
0
LINE
8
BLACK
6
CONTINUOUS
10
3.52374
20
-2.03902
11
3.52374
21
-2.03902
0
LINE
8
BLACK
6
CONTINUOUS
10
3.52374
20
-2.03902
11
3.52374
21
-2.03902
0
LINE
8
BLACK
6
CONTINUOUS
10
3.52374
20
-2.03902
11
3.52375
21
-2.03901
0
LINE
8
BLACK
6
CONTINUOUS
10
3.52375
20
-2.03901
11
3.52398
21
-2.03884
0
LINE
8
BLACK
6
CONTINUOUS
10
3.52398
20
-2.03884
11
3.52419
21
-2.03866
0
LINE
8
BLACK
6
CONTINUOUS
10
3.52419
20
-2.03866
11
3.5242
21
-2.03866
0
LINE
8
BLACK
6
CONTINUOUS
10
3.5242
20
-2.03866
11
3.5242
21
-2.03865
0
LINE
8
BLACK
6
CONTINUOUS
10
3.5242
20
-2.03865
11
3.52446
21
-2.03852
0
LINE
8
BLACK
6
CONTINUOUS
10
3.52446
20
-2.03852
11
3.5247
21
-2.03839
0
LINE
8
BLACK
6
CONTINUOUS
10
3.5247
20
-2.03839
11
3.52471
21
-2.03839
0
LINE
8
BLACK
6
CONTINUOUS
10
3.52471
20
-2.03839
11
3.52471
21
-2.03839
0
LINE
8
BLACK
6
CONTINUOUS
10
3.52471
20
-2.03839
11
3.52499
21
-2.03831
0
LINE
8
BLACK
6
CONTINUOUS
10
3.52499
20
-2.03831
11
3.52526
21
-2.03823
0
LINE
8
BLACK
6
CONTINUOUS
10
3.52526
20
-2.03823
11
3.52526
21
-2.03823
0
LINE
8
BLACK
6
CONTINUOUS
10
3.52526
20
-2.03823
11
3.52527
21
-2.03823
0
LINE
8
BLACK
6
CONTINUOUS
10
3.52527
20
-2.03823
11
3.52555
21
-2.0382
0
LINE
8
BLACK
6
CONTINUOUS
10
3.52555
20
-2.0382
11
3.52583
21
-2.03818
0
LINE
8
BLACK
6
CONTINUOUS
10
3.52583
20
-2.03818
11
3.52584
21
-2.03818
0
LINE
8
BLACK
6
CONTINUOUS
10
3.52396
20
-2.02131
11
3.52397
21
-2.02131
0
LINE
8
BLACK
6
CONTINUOUS
10
3.52397
20
-2.02131
11
3.52424
21
-2.02133
0
LINE
8
BLACK
6
CONTINUOUS
10
3.52424
20
-2.02133
11
3.52452
21
-2.02136
0
LINE
8
BLACK
6
CONTINUOUS
10
3.52452
20
-2.02136
11
3.52453
21
-2.02137
0
LINE
8
BLACK
6
CONTINUOUS
10
3.52453
20
-2.02137
11
3.52454
21
-2.02137
0
LINE
8
BLACK
6
CONTINUOUS
10
3.52454
20
-2.02137
11
3.5248
21
-2.02145
0
LINE
8
BLACK
6
CONTINUOUS
10
3.5248
20
-2.02145
11
3.52507
21
-2.02153
0
LINE
8
BLACK
6
CONTINUOUS
10
3.52507
20
-2.02153
11
3.52508
21
-2.02154
0
LINE
8
BLACK
6
CONTINUOUS
10
3.52508
20
-2.02154
11
3.52509
21
-2.02154
0
LINE
8
BLACK
6
CONTINUOUS
10
3.52509
20
-2.02154
11
3.52533
21
-2.02167
0
LINE
8
BLACK
6
CONTINUOUS
10
3.52533
20
-2.02167
11
3.52558
21
-2.0218
0
LINE
8
BLACK
6
CONTINUOUS
10
3.52558
20
-2.0218
11
3.52559
21
-2.02181
0
LINE
8
BLACK
6
CONTINUOUS
10
3.52559
20
-2.02181
11
3.5256
21
-2.02182
0
LINE
8
BLACK
6
CONTINUOUS
10
3.5256
20
-2.02182
11
3.52581
21
-2.02199
0
LINE
8
BLACK
6
CONTINUOUS
10
3.52581
20
-2.02199
11
3.52602
21
-2.02217
0
LINE
8
BLACK
6
CONTINUOUS
10
3.52602
20
-2.02217
11
3.5279
21
-2.02404
0
LINE
8
BLACK
6
CONTINUOUS
10
3.5279
20
-2.02404
11
3.52791
21
-2.02406
0
LINE
8
BLACK
6
CONTINUOUS
10
3.52791
20
-2.02406
11
3.52791
21
-2.02406
0
LINE
8
BLACK
6
CONTINUOUS
10
3.52791
20
-2.02406
11
3.52791
21
-2.02406
0
LINE
8
BLACK
6
CONTINUOUS
10
3.52791
20
-2.02406
11
3.52792
21
-2.02407
0
LINE
8
BLACK
6
CONTINUOUS
10
3.52792
20
-2.02407
11
3.52792
21
-2.02407
0
LINE
8
BLACK
6
CONTINUOUS
10
3.52792
20
-2.02407
11
3.52792
21
-2.02407
0
LINE
8
BLACK
6
CONTINUOUS
10
3.52792
20
-2.02407
11
3.52793
21
-2.02407
0
LINE
8
BLACK
6
CONTINUOUS
10
3.52793
20
-2.02407
11
3.5281
21
-2.02429
0
LINE
8
BLACK
6
CONTINUOUS
10
3.5281
20
-2.02429
11
3.52828
21
-2.02451
0
LINE
8
BLACK
6
CONTINUOUS
10
3.52828
20
-2.02451
11
3.52828
21
-2.02451
0
LINE
8
BLACK
6
CONTINUOUS
10
3.52828
20
-2.02451
11
3.52828
21
-2.02452
0
LINE
8
BLACK
6
CONTINUOUS
10
3.52828
20
-2.02452
11
3.52828
21
-2.02452
0
LINE
8
BLACK
6
CONTINUOUS
10
3.52828
20
-2.02452
11
3.52829
21
-2.02452
0
LINE
8
BLACK
6
CONTINUOUS
10
3.52829
20
-2.02452
11
3.52841
21
-2.02477
0
LINE
8
BLACK
6
CONTINUOUS
10
3.52841
20
-2.02477
11
3.52854
21
-2.02502
0
LINE
8
BLACK
6
CONTINUOUS
10
3.52854
20
-2.02502
11
3.52855
21
-2.02502
0
LINE
8
BLACK
6
CONTINUOUS
10
3.52855
20
-2.02502
11
3.52855
21
-2.02503
0
LINE
8
BLACK
6
CONTINUOUS
10
3.52855
20
-2.02503
11
3.52855
21
-2.02503
0
LINE
8
BLACK
6
CONTINUOUS
10
3.52855
20
-2.02503
11
3.52855
21
-2.02504
0
LINE
8
BLACK
6
CONTINUOUS
10
3.52855
20
-2.02504
11
3.52863
21
-2.02531
0
LINE
8
BLACK
6
CONTINUOUS
10
3.52863
20
-2.02531
11
3.52871
21
-2.02557
0
LINE
8
BLACK
6
CONTINUOUS
10
3.52871
20
-2.02557
11
3.52871
21
-2.02557
0
LINE
8
BLACK
6
CONTINUOUS
10
3.52871
20
-2.02557
11
3.52871
21
-2.02558
0
LINE
8
BLACK
6
CONTINUOUS
10
3.52871
20
-2.02558
11
3.52871
21
-2.02558
0
LINE
8
BLACK
6
CONTINUOUS
10
3.52871
20
-2.02558
11
3.52871
21
-2.02559
0
LINE
8
BLACK
6
CONTINUOUS
10
3.52871
20
-2.02559
11
3.52874
21
-2.02587
0
LINE
8
BLACK
6
CONTINUOUS
10
3.52874
20
-2.02587
11
3.52876
21
-2.02614
0
LINE
8
BLACK
6
CONTINUOUS
10
3.52876
20
-2.02614
11
3.52876
21
-2.02615
0
LINE
8
BLACK
6
CONTINUOUS
10
3.52876
20
-2.02615
11
3.52876
21
-2.02615
0
LINE
8
BLACK
6
CONTINUOUS
10
3.52876
20
-2.02615
11
3.52876
21
-2.02616
0
LINE
8
BLACK
6
CONTINUOUS
10
3.52876
20
-2.02616
11
3.52876
21
-2.02616
0
LINE
8
BLACK
6
CONTINUOUS
10
3.52876
20
-2.02616
11
3.52873
21
-2.02643
0
LINE
8
BLACK
6
CONTINUOUS
10
3.52873
20
-2.02643
11
3.5287
21
-2.02672
0
LINE
8
BLACK
6
CONTINUOUS
10
3.5287
20
-2.02672
11
3.5287
21
-2.02672
0
LINE
8
BLACK
6
CONTINUOUS
10
3.5287
20
-2.02672
11
3.5287
21
-2.02673
0
LINE
8
BLACK
6
CONTINUOUS
10
3.5287
20
-2.02673
11
3.5287
21
-2.02673
0
LINE
8
BLACK
6
CONTINUOUS
10
3.5287
20
-2.02673
11
3.5287
21
-2.02674
0
LINE
8
BLACK
6
CONTINUOUS
10
3.5287
20
-2.02674
11
3.52862
21
-2.027
0
LINE
8
BLACK
6
CONTINUOUS
10
3.52862
20
-2.027
11
3.52862
21
-2.027
0
LINE
8
BLACK
6
CONTINUOUS
10
3.52862
20
-2.027
11
3.52854
21
-2.02727
0
LINE
8
BLACK
6
CONTINUOUS
10
3.52854
20
-2.02727
11
3.52853
21
-2.02727
0
LINE
8
BLACK
6
CONTINUOUS
10
3.52853
20
-2.02727
11
3.52853
21
-2.02728
0
LINE
8
BLACK
6
CONTINUOUS
10
3.52853
20
-2.02728
11
3.52853
21
-2.02728
0
LINE
8
BLACK
6
CONTINUOUS
10
3.52853
20
-2.02728
11
3.52853
21
-2.02729
0
LINE
8
BLACK
6
CONTINUOUS
10
3.52853
20
-2.02729
11
3.5284
21
-2.02753
0
LINE
8
BLACK
6
CONTINUOUS
10
3.5284
20
-2.02753
11
3.52826
21
-2.02778
0
LINE
8
BLACK
6
CONTINUOUS
10
3.52826
20
-2.02778
11
3.52826
21
-2.02778
0
LINE
8
BLACK
6
CONTINUOUS
10
3.52826
20
-2.02778
11
3.52826
21
-2.02778
0
LINE
8
BLACK
6
CONTINUOUS
10
3.52826
20
-2.02778
11
3.52825
21
-2.02779
0
LINE
8
BLACK
6
CONTINUOUS
10
3.52825
20
-2.02779
11
3.52825
21
-2.02779
0
LINE
8
BLACK
6
CONTINUOUS
10
3.52825
20
-2.02779
11
3.52808
21
-2.028
0
LINE
8
BLACK
6
CONTINUOUS
10
3.52808
20
-2.028
11
3.5279
21
-2.02822
0
LINE
8
BLACK
6
CONTINUOUS
10
3.5279
20
-2.02822
11
3.52602
21
-2.0301
0
LINE
8
BLACK
6
CONTINUOUS
10
3.52602
20
-2.0301
11
3.52601
21
-2.03011
0
LINE
8
BLACK
6
CONTINUOUS
10
3.52601
20
-2.03011
11
3.52601
21
-2.03011
0
LINE
8
BLACK
6
CONTINUOUS
10
3.52601
20
-2.03011
11
3.52601
21
-2.03011
0
LINE
8
BLACK
6
CONTINUOUS
10
3.52601
20
-2.03011
11
3.52599
21
-2.03012
0
LINE
8
BLACK
6
CONTINUOUS
10
3.52599
20
-2.03012
11
3.52578
21
-2.0303
0
LINE
8
BLACK
6
CONTINUOUS
10
3.52578
20
-2.0303
11
3.52556
21
-2.03047
0
LINE
8
BLACK
6
CONTINUOUS
10
3.52556
20
-2.03047
11
3.52555
21
-2.03048
0
LINE
8
BLACK
6
CONTINUOUS
10
3.52555
20
-2.03048
11
3.52554
21
-2.03048
0
LINE
8
BLACK
6
CONTINUOUS
10
3.52554
20
-2.03048
11
3.52529
21
-2.03061
0
LINE
8
BLACK
6
CONTINUOUS
10
3.52529
20
-2.03061
11
3.52505
21
-2.03074
0
LINE
8
BLACK
6
CONTINUOUS
10
3.52505
20
-2.03074
11
3.52504
21
-2.03074
0
LINE
8
BLACK
6
CONTINUOUS
10
3.52504
20
-2.03074
11
3.52503
21
-2.03075
0
LINE
8
BLACK
6
CONTINUOUS
10
3.52503
20
-2.03075
11
3.52476
21
-2.03083
0
LINE
8
BLACK
6
CONTINUOUS
10
3.52476
20
-2.03083
11
3.5245
21
-2.03091
0
LINE
8
BLACK
6
CONTINUOUS
10
3.5245
20
-2.03091
11
3.52449
21
-2.03091
0
LINE
8
BLACK
6
CONTINUOUS
10
3.52449
20
-2.03091
11
3.52448
21
-2.03091
0
LINE
8
BLACK
6
CONTINUOUS
10
3.52448
20
-2.03091
11
3.5242
21
-2.03093
0
LINE
8
BLACK
6
CONTINUOUS
10
3.5242
20
-2.03093
11
3.52393
21
-2.03096
0
LINE
8
BLACK
6
CONTINUOUS
10
3.52393
20
-2.03096
11
3.52391
21
-2.03096
0
LINE
8
BLACK
6
CONTINUOUS
10
3.52391
20
-2.03096
11
3.5239
21
-2.03096
0
LINE
8
BLACK
6
CONTINUOUS
10
3.5239
20
-2.03096
11
3.52363
21
-2.03093
0
LINE
8
BLACK
6
CONTINUOUS
10
3.52363
20
-2.03093
11
3.52335
21
-2.0309
0
LINE
8
BLACK
6
CONTINUOUS
10
3.52335
20
-2.0309
11
3.52334
21
-2.0309
0
LINE
8
BLACK
6
CONTINUOUS
10
3.52334
20
-2.0309
11
3.52333
21
-2.0309
0
LINE
8
BLACK
6
CONTINUOUS
10
3.52333
20
-2.0309
11
3.52306
21
-2.03081
0
LINE
8
BLACK
6
CONTINUOUS
10
3.52306
20
-2.03081
11
3.5228
21
-2.03073
0
LINE
8
BLACK
6
CONTINUOUS
10
3.5228
20
-2.03073
11
3.52279
21
-2.03073
0
LINE
8
BLACK
6
CONTINUOUS
10
3.52279
20
-2.03073
11
3.52278
21
-2.03073
0
LINE
8
BLACK
6
CONTINUOUS
10
3.52278
20
-2.03073
11
3.52254
21
-2.03059
0
LINE
8
BLACK
6
CONTINUOUS
10
3.52254
20
-2.03059
11
3.52229
21
-2.03046
0
LINE
8
BLACK
6
CONTINUOUS
10
3.52229
20
-2.03046
11
3.52228
21
-2.03045
0
LINE
8
BLACK
6
CONTINUOUS
10
3.52228
20
-2.03045
11
3.52228
21
-2.03045
0
LINE
8
BLACK
6
CONTINUOUS
10
3.52228
20
-2.03045
11
3.52206
21
-2.03027
0
LINE
8
BLACK
6
CONTINUOUS
10
3.52206
20
-2.03027
11
3.52185
21
-2.0301
0
LINE
8
BLACK
6
CONTINUOUS
10
3.52185
20
-2.0301
11
3.51997
21
-2.02822
0
LINE
8
BLACK
6
CONTINUOUS
10
3.51997
20
-2.02822
11
3.51996
21
-2.02821
0
LINE
8
BLACK
6
CONTINUOUS
10
3.51996
20
-2.02821
11
3.51996
21
-2.02821
0
LINE
8
BLACK
6
CONTINUOUS
10
3.51996
20
-2.02821
11
3.51996
21
-2.02821
0
LINE
8
BLACK
6
CONTINUOUS
10
3.51996
20
-2.02821
11
3.51995
21
-2.0282
0
LINE
8
BLACK
6
CONTINUOUS
10
3.51995
20
-2.0282
11
3.51995
21
-2.0282
0
LINE
8
BLACK
6
CONTINUOUS
10
3.51995
20
-2.0282
11
3.51995
21
-2.0282
0
LINE
8
BLACK
6
CONTINUOUS
10
3.51995
20
-2.0282
11
3.51994
21
-2.02819
0
LINE
8
BLACK
6
CONTINUOUS
10
3.51994
20
-2.02819
11
3.51977
21
-2.02797
0
LINE
8
BLACK
6
CONTINUOUS
10
3.51977
20
-2.02797
11
3.5196
21
-2.02776
0
LINE
8
BLACK
6
CONTINUOUS
10
3.5196
20
-2.02776
11
3.51959
21
-2.02775
0
LINE
8
BLACK
6
CONTINUOUS
10
3.51959
20
-2.02775
11
3.51959
21
-2.02775
0
LINE
8
BLACK
6
CONTINUOUS
10
3.51959
20
-2.02775
11
3.51959
21
-2.02774
0
LINE
8
BLACK
6
CONTINUOUS
10
3.51959
20
-2.02774
11
3.51958
21
-2.02774
0
LINE
8
BLACK
6
CONTINUOUS
10
3.51958
20
-2.02774
11
3.51946
21
-2.0275
0
LINE
8
BLACK
6
CONTINUOUS
10
3.51946
20
-2.0275
11
3.51933
21
-2.02725
0
LINE
8
BLACK
6
CONTINUOUS
10
3.51933
20
-2.02725
11
3.51933
21
-2.02724
0
LINE
8
BLACK
6
CONTINUOUS
10
3.51933
20
-2.02724
11
3.51932
21
-2.02724
0
LINE
8
BLACK
6
CONTINUOUS
10
3.51932
20
-2.02724
11
3.51932
21
-2.02723
0
LINE
8
BLACK
6
CONTINUOUS
10
3.51932
20
-2.02723
11
3.51932
21
-2.02723
0
LINE
8
BLACK
6
CONTINUOUS
10
3.51932
20
-2.02723
11
3.51924
21
-2.02696
0
LINE
8
BLACK
6
CONTINUOUS
10
3.51924
20
-2.02696
11
3.51916
21
-2.0267
0
LINE
8
BLACK
6
CONTINUOUS
10
3.51916
20
-2.0267
11
3.51916
21
-2.02669
0
LINE
8
BLACK
6
CONTINUOUS
10
3.51916
20
-2.02669
11
3.51916
21
-2.02669
0
LINE
8
BLACK
6
CONTINUOUS
10
3.51916
20
-2.02669
11
3.51916
21
-2.02668
0
LINE
8
BLACK
6
CONTINUOUS
10
3.51916
20
-2.02668
11
3.51916
21
-2.02668
0
LINE
8
BLACK
6
CONTINUOUS
10
3.51916
20
-2.02668
11
3.51913
21
-2.0264
0
LINE
8
BLACK
6
CONTINUOUS
10
3.51913
20
-2.0264
11
3.51911
21
-2.02612
0
LINE
8
BLACK
6
CONTINUOUS
10
3.51911
20
-2.02612
11
3.51911
21
-2.02612
0
LINE
8
BLACK
6
CONTINUOUS
10
3.51911
20
-2.02612
11
3.51911
21
-2.02611
0
LINE
8
BLACK
6
CONTINUOUS
10
3.51911
20
-2.02611
11
3.51911
21
-2.02611
0
LINE
8
BLACK
6
CONTINUOUS
10
3.51911
20
-2.02611
11
3.51911
21
-2.0261
0
LINE
8
BLACK
6
CONTINUOUS
10
3.51911
20
-2.0261
11
3.51914
21
-2.02583
0
LINE
8
BLACK
6
CONTINUOUS
10
3.51914
20
-2.02583
11
3.51917
21
-2.02555
0
LINE
8
BLACK
6
CONTINUOUS
10
3.51917
20
-2.02555
11
3.51917
21
-2.02554
0
LINE
8
BLACK
6
CONTINUOUS
10
3.51917
20
-2.02554
11
3.51917
21
-2.02554
0
LINE
8
BLACK
6
CONTINUOUS
10
3.51917
20
-2.02554
11
3.51917
21
-2.02553
0
LINE
8
BLACK
6
CONTINUOUS
10
3.51917
20
-2.02553
11
3.51917
21
-2.02553
0
LINE
8
BLACK
6
CONTINUOUS
10
3.51917
20
-2.02553
11
3.51925
21
-2.02526
0
LINE
8
BLACK
6
CONTINUOUS
10
3.51925
20
-2.02526
11
3.51933
21
-2.025
0
LINE
8
BLACK
6
CONTINUOUS
10
3.51933
20
-2.025
11
3.51934
21
-2.02499
0
LINE
8
BLACK
6
CONTINUOUS
10
3.51934
20
-2.02499
11
3.51934
21
-2.02499
0
LINE
8
BLACK
6
CONTINUOUS
10
3.51934
20
-2.02499
11
3.51934
21
-2.02498
0
LINE
8
BLACK
6
CONTINUOUS
10
3.51934
20
-2.02498
11
3.51934
21
-2.02498
0
LINE
8
BLACK
6
CONTINUOUS
10
3.51934
20
-2.02498
11
3.51948
21
-2.02473
0
LINE
8
BLACK
6
CONTINUOUS
10
3.51948
20
-2.02473
11
3.51961
21
-2.02449
0
LINE
8
BLACK
6
CONTINUOUS
10
3.51961
20
-2.02449
11
3.51961
21
-2.02449
0
LINE
8
BLACK
6
CONTINUOUS
10
3.51961
20
-2.02449
11
3.51961
21
-2.02448
0
LINE
8
BLACK
6
CONTINUOUS
10
3.51961
20
-2.02448
11
3.51962
21
-2.02448
0
LINE
8
BLACK
6
CONTINUOUS
10
3.51962
20
-2.02448
11
3.51962
21
-2.02447
0
LINE
8
BLACK
6
CONTINUOUS
10
3.51962
20
-2.02447
11
3.5198
21
-2.02426
0
LINE
8
BLACK
6
CONTINUOUS
10
3.5198
20
-2.02426
11
3.51997
21
-2.02404
0
LINE
8
BLACK
6
CONTINUOUS
10
3.51997
20
-2.02404
11
3.52185
21
-2.02217
0
LINE
8
BLACK
6
CONTINUOUS
10
3.52185
20
-2.02217
11
3.52186
21
-2.02216
0
LINE
8
BLACK
6
CONTINUOUS
10
3.52186
20
-2.02216
11
3.52186
21
-2.02216
0
LINE
8
BLACK
6
CONTINUOUS
10
3.52186
20
-2.02216
11
3.52186
21
-2.02216
0
LINE
8
BLACK
6
CONTINUOUS
10
3.52186
20
-2.02216
11
3.52188
21
-2.02214
0
LINE
8
BLACK
6
CONTINUOUS
10
3.52188
20
-2.02214
11
3.52209
21
-2.02197
0
LINE
8
BLACK
6
CONTINUOUS
10
3.52209
20
-2.02197
11
3.52231
21
-2.02179
0
LINE
8
BLACK
6
CONTINUOUS
10
3.52231
20
-2.02179
11
3.52232
21
-2.02179
0
LINE
8
BLACK
6
CONTINUOUS
10
3.52232
20
-2.02179
11
3.52233
21
-2.02178
0
LINE
8
BLACK
6
CONTINUOUS
10
3.52233
20
-2.02178
11
3.52257
21
-2.02166
0
LINE
8
BLACK
6
CONTINUOUS
10
3.52257
20
-2.02166
11
3.52282
21
-2.02152
0
LINE
8
BLACK
6
CONTINUOUS
10
3.52282
20
-2.02152
11
3.52283
21
-2.02152
0
LINE
8
BLACK
6
CONTINUOUS
10
3.52283
20
-2.02152
11
3.52284
21
-2.02152
0
LINE
8
BLACK
6
CONTINUOUS
10
3.52284
20
-2.02152
11
3.52311
21
-2.02144
0
LINE
8
BLACK
6
CONTINUOUS
10
3.52311
20
-2.02144
11
3.52337
21
-2.02136
0
LINE
8
BLACK
6
CONTINUOUS
10
3.52337
20
-2.02136
11
3.52338
21
-2.02136
0
LINE
8
BLACK
6
CONTINUOUS
10
3.52338
20
-2.02136
11
3.52339
21
-2.02136
0
LINE
8
BLACK
6
CONTINUOUS
10
3.52339
20
-2.02136
11
3.52367
21
-2.02133
0
LINE
8
BLACK
6
CONTINUOUS
10
3.52367
20
-2.02133
11
3.52395
21
-2.02131
0
LINE
8
BLACK
6
CONTINUOUS
10
3.52395
20
-2.02131
11
3.52396
21
-2.02131
0
LINE
8
BLACK
6
CONTINUOUS
10
3.51085
20
-1.98381
11
3.51091
21
-1.98382
0
LINE
8
BLACK
6
CONTINUOUS
10
3.51091
20
-1.98382
11
3.51096
21
-1.98381
0
LINE
8
BLACK
6
CONTINUOUS
10
3.51096
20
-1.98381
11
3.51119
21
-1.98385
0
LINE
8
BLACK
6
CONTINUOUS
10
3.51119
20
-1.98385
11
3.51143
21
-1.98387
0
LINE
8
BLACK
6
CONTINUOUS
10
3.51143
20
-1.98387
11
3.51148
21
-1.98389
0
LINE
8
BLACK
6
CONTINUOUS
10
3.51148
20
-1.98389
11
3.51153
21
-1.9839
0
LINE
8
BLACK
6
CONTINUOUS
10
3.51153
20
-1.9839
11
3.51903
21
-1.98577
0
LINE
8
BLACK
6
CONTINUOUS
10
3.51903
20
-1.98577
11
3.51907
21
-1.98578
0
LINE
8
BLACK
6
CONTINUOUS
10
3.51907
20
-1.98578
11
3.51908
21
-1.98579
0
LINE
8
BLACK
6
CONTINUOUS
10
3.51908
20
-1.98579
11
3.51909
21
-1.98579
0
LINE
8
BLACK
6
CONTINUOUS
10
3.51909
20
-1.98579
11
3.51935
21
-1.98589
0
LINE
8
BLACK
6
CONTINUOUS
10
3.51935
20
-1.98589
11
3.51961
21
-1.98598
0
LINE
8
BLACK
6
CONTINUOUS
10
3.51961
20
-1.98598
11
3.51962
21
-1.98599
0
LINE
8
BLACK
6
CONTINUOUS
10
3.51962
20
-1.98599
11
3.51963
21
-1.986
0
LINE
8
BLACK
6
CONTINUOUS
10
3.51963
20
-1.986
11
3.52338
21
-1.98787
0
LINE
8
BLACK
6
CONTINUOUS
10
3.52338
20
-1.98787
11
3.52342
21
-1.98789
0
LINE
8
BLACK
6
CONTINUOUS
10
3.52342
20
-1.98789
11
3.52356
21
-1.98798
0
LINE
8
BLACK
6
CONTINUOUS
10
3.52356
20
-1.98798
11
3.5237
21
-1.98806
0
LINE
8
BLACK
6
CONTINUOUS
10
3.5237
20
-1.98806
11
3.5238
21
-1.98814
0
LINE
8
BLACK
6
CONTINUOUS
10
3.5238
20
-1.98814
11
3.5239
21
-1.9882
0
LINE
8
BLACK
6
CONTINUOUS
10
3.5239
20
-1.9882
11
3.52402
21
-1.98832
0
LINE
8
BLACK
6
CONTINUOUS
10
3.52402
20
-1.98832
11
3.52415
21
-1.98842
0
LINE
8
BLACK
6
CONTINUOUS
10
3.52415
20
-1.98842
11
3.52602
21
-1.9903
0
LINE
8
BLACK
6
CONTINUOUS
10
3.52602
20
-1.9903
11
3.52605
21
-1.99033
0
LINE
8
BLACK
6
CONTINUOUS
10
3.52605
20
-1.99033
11
3.52616
21
-1.99046
0
LINE
8
BLACK
6
CONTINUOUS
10
3.52616
20
-1.99046
11
3.52627
21
-1.99058
0
LINE
8
BLACK
6
CONTINUOUS
10
3.52627
20
-1.99058
11
3.52634
21
-1.99068
0
LINE
8
BLACK
6
CONTINUOUS
10
3.52634
20
-1.99068
11
3.52641
21
-1.99078
0
LINE
8
BLACK
6
CONTINUOUS
10
3.52641
20
-1.99078
11
3.52649
21
-1.99093
0
LINE
8
BLACK
6
CONTINUOUS
10
3.52649
20
-1.99093
11
3.52658
21
-1.99107
0
LINE
8
BLACK
6
CONTINUOUS
10
3.52658
20
-1.99107
11
3.52845
21
-1.99482
0
LINE
8
BLACK
6
CONTINUOUS
10
3.52845
20
-1.99482
11
3.52847
21
-1.99485
0
LINE
8
BLACK
6
CONTINUOUS
10
3.52847
20
-1.99485
11
3.5285
21
-1.99493
0
LINE
8
BLACK
6
CONTINUOUS
10
3.5285
20
-1.99493
11
3.52854
21
-1.99501
0
LINE
8
BLACK
6
CONTINUOUS
10
3.52854
20
-1.99501
11
3.5286
21
-1.9952
0
LINE
8
BLACK
6
CONTINUOUS
10
3.5286
20
-1.9952
11
3.52867
21
-1.99539
0
LINE
8
BLACK
6
CONTINUOUS
10
3.52867
20
-1.99539
11
3.52868
21
-1.99548
0
LINE
8
BLACK
6
CONTINUOUS
10
3.52868
20
-1.99548
11
3.52871
21
-1.99556
0
LINE
8
BLACK
6
CONTINUOUS
10
3.52871
20
-1.99556
11
3.52873
21
-1.99576
0
LINE
8
BLACK
6
CONTINUOUS
10
3.52873
20
-1.99576
11
3.52876
21
-1.99596
0
LINE
8
BLACK
6
CONTINUOUS
10
3.52876
20
-1.99596
11
3.52875
21
-1.99605
0
LINE
8
BLACK
6
CONTINUOUS
10
3.52875
20
-1.99605
11
3.52876
21
-1.99614
0
LINE
8
BLACK
6
CONTINUOUS
10
3.52876
20
-1.99614
11
3.52876
21
-1.99989
0
LINE
8
BLACK
6
CONTINUOUS
10
3.52876
20
-1.99989
11
3.52876
21
-1.99993
0
LINE
8
BLACK
6
CONTINUOUS
10
3.52876
20
-1.99993
11
3.52875
21
-2.00001
0
LINE
8
BLACK
6
CONTINUOUS
10
3.52875
20
-2.00001
11
3.52876
21
-2.0001
0
LINE
8
BLACK
6
CONTINUOUS
10
3.52876
20
-2.0001
11
3.52872
21
-2.0003
0
LINE
8
BLACK
6
CONTINUOUS
10
3.52872
20
-2.0003
11
3.5287
21
-2.0005
0
LINE
8
BLACK
6
CONTINUOUS
10
3.5287
20
-2.0005
11
3.52867
21
-2.00058
0
LINE
8
BLACK
6
CONTINUOUS
10
3.52867
20
-2.00058
11
3.52866
21
-2.00067
0
LINE
8
BLACK
6
CONTINUOUS
10
3.52866
20
-2.00067
11
3.52859
21
-2.00086
0
LINE
8
BLACK
6
CONTINUOUS
10
3.52859
20
-2.00086
11
3.52852
21
-2.00105
0
LINE
8
BLACK
6
CONTINUOUS
10
3.52852
20
-2.00105
11
3.52848
21
-2.00113
0
LINE
8
BLACK
6
CONTINUOUS
10
3.52848
20
-2.00113
11
3.52845
21
-2.00121
0
LINE
8
BLACK
6
CONTINUOUS
10
3.52845
20
-2.00121
11
3.52658
21
-2.00496
0
LINE
8
BLACK
6
CONTINUOUS
10
3.52658
20
-2.00496
11
3.52656
21
-2.00499
0
LINE
8
BLACK
6
CONTINUOUS
10
3.52656
20
-2.00499
11
3.52647
21
-2.00513
0
LINE
8
BLACK
6
CONTINUOUS
10
3.52647
20
-2.00513
11
3.52639
21
-2.00528
0
LINE
8
BLACK
6
CONTINUOUS
10
3.52639
20
-2.00528
11
3.52631
21
-2.00537
0
LINE
8
BLACK
6
CONTINUOUS
10
3.52631
20
-2.00537
11
3.52624
21
-2.00548
0
LINE
8
BLACK
6
CONTINUOUS
10
3.52624
20
-2.00548
11
3.52613
21
-2.0056
0
LINE
8
BLACK
6
CONTINUOUS
10
3.52613
20
-2.0056
11
3.52602
21
-2.00572
0
LINE
8
BLACK
6
CONTINUOUS
10
3.52602
20
-2.00572
11
3.52415
21
-2.0076
0
LINE
8
BLACK
6
CONTINUOUS
10
3.52415
20
-2.0076
11
3.52412
21
-2.00763
0
LINE
8
BLACK
6
CONTINUOUS
10
3.52412
20
-2.00763
11
3.52399
21
-2.00773
0
LINE
8
BLACK
6
CONTINUOUS
10
3.52399
20
-2.00773
11
3.52387
21
-2.00784
0
LINE
8
BLACK
6
CONTINUOUS
10
3.52387
20
-2.00784
11
3.52376
21
-2.00791
0
LINE
8
BLACK
6
CONTINUOUS
10
3.52376
20
-2.00791
11
3.52367
21
-2.00799
0
LINE
8
BLACK
6
CONTINUOUS
10
3.52367
20
-2.00799
11
3.52352
21
-2.00806
0
LINE
8
BLACK
6
CONTINUOUS
10
3.52352
20
-2.00806
11
3.52338
21
-2.00815
0
LINE
8
BLACK
6
CONTINUOUS
10
3.52338
20
-2.00815
11
3.51963
21
-2.01003
0
LINE
8
BLACK
6
CONTINUOUS
10
3.51963
20
-2.01003
11
3.51959
21
-2.01004
0
LINE
8
BLACK
6
CONTINUOUS
10
3.51959
20
-2.01004
11
3.51958
21
-2.01005
0
LINE
8
BLACK
6
CONTINUOUS
10
3.51958
20
-2.01005
11
3.51957
21
-2.01006
0
LINE
8
BLACK
6
CONTINUOUS
10
3.51957
20
-2.01006
11
3.51931
21
-2.01015
0
LINE
8
BLACK
6
CONTINUOUS
10
3.51931
20
-2.01015
11
3.51905
21
-2.01024
0
LINE
8
BLACK
6
CONTINUOUS
10
3.51905
20
-2.01024
11
3.51904
21
-2.01024
0
LINE
8
BLACK
6
CONTINUOUS
10
3.51904
20
-2.01024
11
3.51903
21
-2.01025
0
LINE
8
BLACK
6
CONTINUOUS
10
3.51903
20
-2.01025
11
3.51153
21
-2.01212
0
LINE
8
BLACK
6
CONTINUOUS
10
3.51153
20
-2.01212
11
3.51149
21
-2.01213
0
LINE
8
BLACK
6
CONTINUOUS
10
3.51149
20
-2.01213
11
3.51144
21
-2.01214
0
LINE
8
BLACK
6
CONTINUOUS
10
3.51144
20
-2.01214
11
3.51139
21
-2.01216
0
LINE
8
BLACK
6
CONTINUOUS
10
3.51139
20
-2.01216
11
3.51115
21
-2.01218
0
LINE
8
BLACK
6
CONTINUOUS
10
3.51115
20
-2.01218
11
3.51092
21
-2.01221
0
LINE
8
BLACK
6
CONTINUOUS
10
3.51092
20
-2.01221
11
3.51086
21
-2.01221
0
LINE
8
BLACK
6
CONTINUOUS
10
3.51086
20
-2.01221
11
3.51081
21
-2.01221
0
LINE
8
BLACK
6
CONTINUOUS
10
3.51081
20
-2.01221
11
3.50144
21
-2.01221
0
LINE
8
BLACK
6
CONTINUOUS
10
3.50144
20
-2.01221
11
3.5014
21
-2.01221
0
LINE
8
BLACK
6
CONTINUOUS
10
3.5014
20
-2.01221
11
3.50134
21
-2.01221
0
LINE
8
BLACK
6
CONTINUOUS
10
3.50134
20
-2.01221
11
3.50129
21
-2.01221
0
LINE
8
BLACK
6
CONTINUOUS
10
3.50129
20
-2.01221
11
3.50106
21
-2.01217
0
LINE
8
BLACK
6
CONTINUOUS
10
3.50106
20
-2.01217
11
3.50082
21
-2.01215
0
LINE
8
BLACK
6
CONTINUOUS
10
3.50082
20
-2.01215
11
3.50077
21
-2.01213
0
LINE
8
BLACK
6
CONTINUOUS
10
3.50077
20
-2.01213
11
3.50072
21
-2.01212
0
LINE
8
BLACK
6
CONTINUOUS
10
3.50072
20
-2.01212
11
3.49322
21
-2.01025
0
LINE
8
BLACK
6
CONTINUOUS
10
3.49322
20
-2.01025
11
3.49318
21
-2.01024
0
LINE
8
BLACK
6
CONTINUOUS
10
3.49318
20
-2.01024
11
3.49317
21
-2.01023
0
LINE
8
BLACK
6
CONTINUOUS
10
3.49317
20
-2.01023
11
3.49316
21
-2.01023
0
LINE
8
BLACK
6
CONTINUOUS
10
3.49316
20
-2.01023
11
3.4929
21
-2.01013
0
LINE
8
BLACK
6
CONTINUOUS
10
3.4929
20
-2.01013
11
3.49264
21
-2.01004
0
LINE
8
BLACK
6
CONTINUOUS
10
3.49264
20
-2.01004
11
3.49263
21
-2.01003
0
LINE
8
BLACK
6
CONTINUOUS
10
3.49263
20
-2.01003
11
3.49262
21
-2.01003
0
LINE
8
BLACK
6
CONTINUOUS
10
3.49262
20
-2.01003
11
3.48887
21
-2.00815
0
LINE
8
BLACK
6
CONTINUOUS
10
3.48887
20
-2.00815
11
3.48883
21
-2.00813
0
LINE
8
BLACK
6
CONTINUOUS
10
3.48883
20
-2.00813
11
3.48869
21
-2.00804
0
LINE
8
BLACK
6
CONTINUOUS
10
3.48869
20
-2.00804
11
3.48855
21
-2.00796
0
LINE
8
BLACK
6
CONTINUOUS
10
3.48855
20
-2.00796
11
3.48845
21
-2.00789
0
LINE
8
BLACK
6
CONTINUOUS
10
3.48845
20
-2.00789
11
3.48835
21
-2.00782
0
LINE
8
BLACK
6
CONTINUOUS
10
3.48835
20
-2.00782
11
3.48823
21
-2.0077
0
LINE
8
BLACK
6
CONTINUOUS
10
3.48823
20
-2.0077
11
3.4881
21
-2.0076
0
LINE
8
BLACK
6
CONTINUOUS
10
3.4881
20
-2.0076
11
3.48623
21
-2.00572
0
LINE
8
BLACK
6
CONTINUOUS
10
3.48623
20
-2.00572
11
3.4862
21
-2.00569
0
LINE
8
BLACK
6
CONTINUOUS
10
3.4862
20
-2.00569
11
3.48609
21
-2.00556
0
LINE
8
BLACK
6
CONTINUOUS
10
3.48609
20
-2.00556
11
3.48598
21
-2.00544
0
LINE
8
BLACK
6
CONTINUOUS
10
3.48598
20
-2.00544
11
3.48592
21
-2.00534
0
LINE
8
BLACK
6
CONTINUOUS
10
3.48592
20
-2.00534
11
3.48584
21
-2.00524
0
LINE
8
BLACK
6
CONTINUOUS
10
3.48584
20
-2.00524
11
3.48576
21
-2.0051
0
LINE
8
BLACK
6
CONTINUOUS
10
3.48576
20
-2.0051
11
3.48567
21
-2.00496
0
LINE
8
BLACK
6
CONTINUOUS
10
3.48567
20
-2.00496
11
3.4838
21
-2.00121
0
LINE
8
BLACK
6
CONTINUOUS
10
3.4838
20
-2.00121
11
3.48378
21
-2.00117
0
LINE
8
BLACK
6
CONTINUOUS
10
3.48378
20
-2.00117
11
3.48375
21
-2.00109
0
LINE
8
BLACK
6
CONTINUOUS
10
3.48375
20
-2.00109
11
3.48371
21
-2.00101
0
LINE
8
BLACK
6
CONTINUOUS
10
3.48371
20
-2.00101
11
3.48365
21
-2.00082
0
LINE
8
BLACK
6
CONTINUOUS
10
3.48365
20
-2.00082
11
3.48358
21
-2.00063
0
LINE
8
BLACK
6
CONTINUOUS
10
3.48358
20
-2.00063
11
3.48357
21
-2.00054
0
LINE
8
BLACK
6
CONTINUOUS
10
3.48357
20
-2.00054
11
3.48354
21
-2.00046
0
LINE
8
BLACK
6
CONTINUOUS
10
3.48354
20
-2.00046
11
3.48352
21
-2.00026
0
LINE
8
BLACK
6
CONTINUOUS
10
3.48352
20
-2.00026
11
3.48349
21
-2.00006
0
LINE
8
BLACK
6
CONTINUOUS
10
3.48349
20
-2.00006
11
3.4835
21
-1.99997
0
LINE
8
BLACK
6
CONTINUOUS
10
3.4835
20
-1.99997
11
3.48349
21
-1.99989
0
LINE
8
BLACK
6
CONTINUOUS
10
3.48349
20
-1.99989
11
3.48349
21
-1.99614
0
LINE
8
BLACK
6
CONTINUOUS
10
3.48349
20
-1.99614
11
3.48349
21
-1.9961
0
LINE
8
BLACK
6
CONTINUOUS
10
3.48349
20
-1.9961
11
3.4835
21
-1.99601
0
LINE
8
BLACK
6
CONTINUOUS
10
3.4835
20
-1.99601
11
3.4835
21
-1.99592
0
LINE
8
BLACK
6
CONTINUOUS
10
3.4835
20
-1.99592
11
3.48353
21
-1.99572
0
LINE
8
BLACK
6
CONTINUOUS
10
3.48353
20
-1.99572
11
3.48355
21
-1.99552
0
LINE
8
BLACK
6
CONTINUOUS
10
3.48355
20
-1.99552
11
3.48358
21
-1.99544
0
LINE
8
BLACK
6
CONTINUOUS
10
3.48358
20
-1.99544
11
3.48359
21
-1.99535
0
LINE
8
BLACK
6
CONTINUOUS
10
3.48359
20
-1.99535
11
3.48367
21
-1.99517
0
LINE
8
BLACK
6
CONTINUOUS
10
3.48367
20
-1.99517
11
3.48373
21
-1.99497
0
LINE
8
BLACK
6
CONTINUOUS
10
3.48373
20
-1.99497
11
3.48377
21
-1.9949
0
LINE
8
BLACK
6
CONTINUOUS
10
3.48377
20
-1.9949
11
3.4838
21
-1.99482
0
LINE
8
BLACK
6
CONTINUOUS
10
3.4838
20
-1.99482
11
3.48567
21
-1.99107
0
LINE
8
BLACK
6
CONTINUOUS
10
3.48567
20
-1.99107
11
3.48569
21
-1.99103
0
LINE
8
BLACK
6
CONTINUOUS
10
3.48569
20
-1.99103
11
3.48578
21
-1.99089
0
LINE
8
BLACK
6
CONTINUOUS
10
3.48578
20
-1.99089
11
3.48586
21
-1.99074
0
LINE
8
BLACK
6
CONTINUOUS
10
3.48586
20
-1.99074
11
3.48594
21
-1.99065
0
LINE
8
BLACK
6
CONTINUOUS
10
3.48594
20
-1.99065
11
3.48601
21
-1.99055
0
LINE
8
BLACK
6
CONTINUOUS
10
3.48601
20
-1.99055
11
3.48612
21
-1.99043
0
LINE
8
BLACK
6
CONTINUOUS
10
3.48612
20
-1.99043
11
3.48623
21
-1.9903
0
LINE
8
BLACK
6
CONTINUOUS
10
3.48623
20
-1.9903
11
3.4881
21
-1.98842
0
LINE
8
BLACK
6
CONTINUOUS
10
3.4881
20
-1.98842
11
3.48813
21
-1.9884
0
LINE
8
BLACK
6
CONTINUOUS
10
3.48813
20
-1.9884
11
3.48826
21
-1.98829
0
LINE
8
BLACK
6
CONTINUOUS
10
3.48826
20
-1.98829
11
3.48838
21
-1.98818
0
LINE
8
BLACK
6
CONTINUOUS
10
3.48838
20
-1.98818
11
3.48849
21
-1.98811
0
LINE
8
BLACK
6
CONTINUOUS
10
3.48849
20
-1.98811
11
3.48858
21
-1.98804
0
LINE
8
BLACK
6
CONTINUOUS
10
3.48858
20
-1.98804
11
3.48873
21
-1.98796
0
LINE
8
BLACK
6
CONTINUOUS
10
3.48873
20
-1.98796
11
3.48887
21
-1.98787
0
LINE
8
BLACK
6
CONTINUOUS
10
3.48887
20
-1.98787
11
3.49262
21
-1.986
0
LINE
8
BLACK
6
CONTINUOUS
10
3.49262
20
-1.986
11
3.49266
21
-1.98598
0
LINE
8
BLACK
6
CONTINUOUS
10
3.49266
20
-1.98598
11
3.49267
21
-1.98597
0
LINE
8
BLACK
6
CONTINUOUS
10
3.49267
20
-1.98597
11
3.49268
21
-1.98597
0
LINE
8
BLACK
6
CONTINUOUS
10
3.49268
20
-1.98597
11
3.49294
21
-1.98587
0
LINE
8
BLACK
6
CONTINUOUS
10
3.49294
20
-1.98587
11
3.4932
21
-1.98578
0
LINE
8
BLACK
6
CONTINUOUS
10
3.4932
20
-1.98578
11
3.49321
21
-1.98578
0
LINE
8
BLACK
6
CONTINUOUS
10
3.49321
20
-1.98578
11
3.49322
21
-1.98577
0
LINE
8
BLACK
6
CONTINUOUS
10
3.49322
20
-1.98577
11
3.50072
21
-1.9839
0
LINE
8
BLACK
6
CONTINUOUS
10
3.50072
20
-1.9839
11
3.50076
21
-1.98389
0
LINE
8
BLACK
6
CONTINUOUS
10
3.50076
20
-1.98389
11
3.50081
21
-1.98388
0
LINE
8
BLACK
6
CONTINUOUS
10
3.50081
20
-1.98388
11
3.50086
21
-1.98387
0
LINE
8
BLACK
6
CONTINUOUS
10
3.50086
20
-1.98387
11
3.5011
21
-1.98384
0
LINE
8
BLACK
6
CONTINUOUS
10
3.5011
20
-1.98384
11
3.50133
21
-1.98381
0
LINE
8
BLACK
6
CONTINUOUS
10
3.50133
20
-1.98381
11
3.50139
21
-1.98382
0
LINE
8
BLACK
6
CONTINUOUS
10
3.50139
20
-1.98382
11
3.50144
21
-1.98381
0
LINE
8
BLACK
6
CONTINUOUS
10
3.50144
20
-1.98381
11
3.51081
21
-1.98381
0
LINE
8
BLACK
6
CONTINUOUS
10
3.51081
20
-1.98381
11
3.51085
21
-1.98381
0
LINE
8
BLACK
6
CONTINUOUS
10
3.5018
20
-1.98972
11
3.49497
21
-1.99142
0
LINE
8
BLACK
6
CONTINUOUS
10
3.49497
20
-1.99142
11
3.49194
21
-1.99294
0
LINE
8
BLACK
6
CONTINUOUS
10
3.49194
20
-1.99294
11
3.49074
21
-1.99414
0
LINE
8
BLACK
6
CONTINUOUS
10
3.49074
20
-1.99414
11
3.48939
21
-1.99683
0
LINE
8
BLACK
6
CONTINUOUS
10
3.48939
20
-1.99683
11
3.48939
21
-1.99919
0
LINE
8
BLACK
6
CONTINUOUS
10
3.48939
20
-1.99919
11
3.49074
21
-2.00189
0
LINE
8
BLACK
6
CONTINUOUS
10
3.49074
20
-2.00189
11
3.49194
21
-2.00308
0
LINE
8
BLACK
6
CONTINUOUS
10
3.49194
20
-2.00308
11
3.49497
21
-2.0046
0
LINE
8
BLACK
6
CONTINUOUS
10
3.49497
20
-2.0046
11
3.5018
21
-2.00631
0
LINE
8
BLACK
6
CONTINUOUS
10
3.5018
20
-2.00631
11
3.51045
21
-2.00631
0
LINE
8
BLACK
6
CONTINUOUS
10
3.51045
20
-2.00631
11
3.51728
21
-2.0046
0
LINE
8
BLACK
6
CONTINUOUS
10
3.51728
20
-2.0046
11
3.52031
21
-2.00308
0
LINE
8
BLACK
6
CONTINUOUS
10
3.52031
20
-2.00308
11
3.52151
21
-2.00189
0
LINE
8
BLACK
6
CONTINUOUS
10
3.52151
20
-2.00189
11
3.52286
21
-1.99919
0
LINE
8
BLACK
6
CONTINUOUS
10
3.52286
20
-1.99919
11
3.52286
21
-1.99683
0
LINE
8
BLACK
6
CONTINUOUS
10
3.52286
20
-1.99683
11
3.52151
21
-1.99414
0
LINE
8
BLACK
6
CONTINUOUS
10
3.52151
20
-1.99414
11
3.52031
21
-1.99294
0
LINE
8
BLACK
6
CONTINUOUS
10
3.52031
20
-1.99294
11
3.51728
21
-1.99142
0
LINE
8
BLACK
6
CONTINUOUS
10
3.51728
20
-1.99142
11
3.51045
21
-1.98972
0
LINE
8
BLACK
6
CONTINUOUS
10
3.51045
20
-1.98972
11
3.5018
21
-1.98972
0
LINE
8
BLACK
6
CONTINUOUS
10
2.21905
20
-1.83689
11
2.2195
21
-1.83703
0
LINE
8
BLACK
6
CONTINUOUS
10
2.2195
20
-1.83703
11
2.21991
21
-1.83725
0
LINE
8
BLACK
6
CONTINUOUS
10
2.21991
20
-1.83725
11
2.22027
21
-1.83754
0
LINE
8
BLACK
6
CONTINUOUS
10
2.22027
20
-1.83754
11
2.22056
21
-1.8379
0
LINE
8
BLACK
6
CONTINUOUS
10
2.22056
20
-1.8379
11
2.22078
21
-1.83831
0
LINE
8
BLACK
6
CONTINUOUS
10
2.22078
20
-1.83831
11
2.22092
21
-1.83876
0
LINE
8
BLACK
6
CONTINUOUS
10
2.22092
20
-1.83876
11
2.22096
21
-1.83922
0
LINE
8
BLACK
6
CONTINUOUS
10
2.22096
20
-1.83922
11
2.22092
21
-1.83968
0
LINE
8
BLACK
6
CONTINUOUS
10
2.22092
20
-1.83968
11
2.22078
21
-1.84013
0
LINE
8
BLACK
6
CONTINUOUS
10
2.22078
20
-1.84013
11
2.22056
21
-1.84054
0
LINE
8
BLACK
6
CONTINUOUS
10
2.22056
20
-1.84054
11
2.22027
21
-1.8409
0
LINE
8
BLACK
6
CONTINUOUS
10
2.22027
20
-1.8409
11
2.21991
21
-1.84119
0
LINE
8
BLACK
6
CONTINUOUS
10
2.21991
20
-1.84119
11
2.2195
21
-1.84141
0
LINE
8
BLACK
6
CONTINUOUS
10
2.2195
20
-1.84141
11
2.21905
21
-1.84155
0
LINE
8
BLACK
6
CONTINUOUS
10
2.21905
20
-1.84155
11
2.21871
21
-1.84158
0
LINE
8
BLACK
6
CONTINUOUS
10
2.21871
20
-1.84158
11
2.06729
21
-1.84158
0
LINE
8
BLACK
6
CONTINUOUS
10
2.06729
20
-1.84158
11
2.06695
21
-1.84155
0
LINE
8
BLACK
6
CONTINUOUS
10
2.06695
20
-1.84155
11
2.0665
21
-1.84141
0
LINE
8
BLACK
6
CONTINUOUS
10
2.0665
20
-1.84141
11
2.06609
21
-1.84119
0
LINE
8
BLACK
6
CONTINUOUS
10
2.06609
20
-1.84119
11
2.06573
21
-1.8409
0
LINE
8
BLACK
6
CONTINUOUS
10
2.06573
20
-1.8409
11
2.06544
21
-1.84054
0
LINE
8
BLACK
6
CONTINUOUS
10
2.06544
20
-1.84054
11
2.06522
21
-1.84013
0
LINE
8
BLACK
6
CONTINUOUS
10
2.06522
20
-1.84013
11
2.06508
21
-1.83968
0
LINE
8
BLACK
6
CONTINUOUS
10
2.06508
20
-1.83968
11
2.06504
21
-1.83922
0
LINE
8
BLACK
6
CONTINUOUS
10
2.06504
20
-1.83922
11
2.06508
21
-1.83876
0
LINE
8
BLACK
6
CONTINUOUS
10
2.06508
20
-1.83876
11
2.06522
21
-1.83831
0
LINE
8
BLACK
6
CONTINUOUS
10
2.06522
20
-1.83831
11
2.06544
21
-1.8379
0
LINE
8
BLACK
6
CONTINUOUS
10
2.06544
20
-1.8379
11
2.06573
21
-1.83754
0
LINE
8
BLACK
6
CONTINUOUS
10
2.06573
20
-1.83754
11
2.06609
21
-1.83725
0
LINE
8
BLACK
6
CONTINUOUS
10
2.06609
20
-1.83725
11
2.0665
21
-1.83703
0
LINE
8
BLACK
6
CONTINUOUS
10
2.0665
20
-1.83703
11
2.06695
21
-1.83689
0
LINE
8
BLACK
6
CONTINUOUS
10
2.06695
20
-1.83689
11
2.06729
21
-1.83686
0
LINE
8
BLACK
6
CONTINUOUS
10
2.06729
20
-1.83686
11
2.21871
21
-1.83686
0
LINE
8
BLACK
6
CONTINUOUS
10
2.21871
20
-1.83686
11
2.21905
21
-1.83689
0
LINE
8
BLACK
6
CONTINUOUS
10
2.10803
20
-1.82576
11
2.10745
21
-1.8257
0
LINE
8
BLACK
6
CONTINUOUS
10
2.10745
20
-1.8257
11
2.1069
21
-1.82552
0
LINE
8
BLACK
6
CONTINUOUS
10
2.1069
20
-1.82552
11
2.1064
21
-1.82525
0
LINE
8
BLACK
6
CONTINUOUS
10
2.1064
20
-1.82525
11
2.10596
21
-1.82488
0
LINE
8
BLACK
6
CONTINUOUS
10
2.10596
20
-1.82488
11
2.1056
21
-1.82443
0
LINE
8
BLACK
6
CONTINUOUS
10
2.1056
20
-1.82443
11
2.10533
21
-1.82392
0
LINE
8
BLACK
6
CONTINUOUS
10
2.10533
20
-1.82392
11
2.10517
21
-1.82336
0
LINE
8
BLACK
6
CONTINUOUS
10
2.10517
20
-1.82336
11
2.10511
21
-1.82279
0
LINE
8
BLACK
6
CONTINUOUS
10
2.10511
20
-1.82279
11
2.10517
21
-1.82222
0
LINE
8
BLACK
6
CONTINUOUS
10
2.10517
20
-1.82222
11
2.10534
21
-1.82167
0
LINE
8
BLACK
6
CONTINUOUS
10
2.10534
20
-1.82167
11
2.10562
21
-1.82116
0
LINE
8
BLACK
6
CONTINUOUS
10
2.10562
20
-1.82116
11
2.10599
21
-1.82072
0
LINE
8
BLACK
6
CONTINUOUS
10
2.10599
20
-1.82072
11
2.10643
21
-1.82035
0
LINE
8
BLACK
6
CONTINUOUS
10
2.10643
20
-1.82035
11
2.10694
21
-1.82008
0
LINE
8
BLACK
6
CONTINUOUS
10
2.10694
20
-1.82008
11
2.10749
21
-1.81991
0
LINE
8
BLACK
6
CONTINUOUS
10
2.10749
20
-1.81991
11
2.10807
21
-1.81986
0
LINE
8
BLACK
6
CONTINUOUS
10
2.10807
20
-1.81986
11
2.12531
21
-1.81986
0
LINE
8
BLACK
6
CONTINUOUS
10
2.12531
20
-1.81986
11
2.10785
21
-1.8024
0
LINE
8
BLACK
6
CONTINUOUS
10
2.10785
20
-1.8024
11
2.10782
21
-1.80237
0
LINE
8
BLACK
6
CONTINUOUS
10
2.10782
20
-1.80237
11
2.10777
21
-1.8023
0
LINE
8
BLACK
6
CONTINUOUS
10
2.10777
20
-1.8023
11
2.10771
21
-1.80224
0
LINE
8
BLACK
6
CONTINUOUS
10
2.10771
20
-1.80224
11
2.10759
21
-1.80208
0
LINE
8
BLACK
6
CONTINUOUS
10
2.10759
20
-1.80208
11
2.10746
21
-1.80192
0
LINE
8
BLACK
6
CONTINUOUS
10
2.10746
20
-1.80192
11
2.10742
21
-1.80184
0
LINE
8
BLACK
6
CONTINUOUS
10
2.10742
20
-1.80184
11
2.10737
21
-1.80177
0
LINE
8
BLACK
6
CONTINUOUS
10
2.10737
20
-1.80177
11
2.10729
21
-1.80159
0
LINE
8
BLACK
6
CONTINUOUS
10
2.10729
20
-1.80159
11
2.1072
21
-1.80141
0
LINE
8
BLACK
6
CONTINUOUS
10
2.1072
20
-1.80141
11
2.10718
21
-1.80133
0
LINE
8
BLACK
6
CONTINUOUS
10
2.10718
20
-1.80133
11
2.10714
21
-1.80125
0
LINE
8
BLACK
6
CONTINUOUS
10
2.10714
20
-1.80125
11
2.10527
21
-1.79562
0
LINE
8
BLACK
6
CONTINUOUS
10
2.10527
20
-1.79562
11
2.10525
21
-1.79558
0
LINE
8
BLACK
6
CONTINUOUS
10
2.10525
20
-1.79558
11
2.10522
21
-1.79542
0
LINE
8
BLACK
6
CONTINUOUS
10
2.10522
20
-1.79542
11
2.10517
21
-1.79526
0
LINE
8
BLACK
6
CONTINUOUS
10
2.10517
20
-1.79526
11
2.10516
21
-1.79514
0
LINE
8
BLACK
6
CONTINUOUS
10
2.10516
20
-1.79514
11
2.10513
21
-1.79502
0
LINE
8
BLACK
6
CONTINUOUS
10
2.10513
20
-1.79502
11
2.10513
21
-1.79485
0
LINE
8
BLACK
6
CONTINUOUS
10
2.10513
20
-1.79485
11
2.10511
21
-1.79469
0
LINE
8
BLACK
6
CONTINUOUS
10
2.10511
20
-1.79469
11
2.10511
21
-1.79094
0
LINE
8
BLACK
6
CONTINUOUS
10
2.10511
20
-1.79094
11
2.10511
21
-1.7909
0
LINE
8
BLACK
6
CONTINUOUS
10
2.10511
20
-1.7909
11
2.10512
21
-1.79081
0
LINE
8
BLACK
6
CONTINUOUS
10
2.10512
20
-1.79081
11
2.10512
21
-1.79072
0
LINE
8
BLACK
6
CONTINUOUS
10
2.10512
20
-1.79072
11
2.10516
21
-1.79053
0
LINE
8
BLACK
6
CONTINUOUS
10
2.10516
20
-1.79053
11
2.10518
21
-1.79033
0
LINE
8
BLACK
6
CONTINUOUS
10
2.10518
20
-1.79033
11
2.1052
21
-1.79024
0
LINE
8
BLACK
6
CONTINUOUS
10
2.1052
20
-1.79024
11
2.10522
21
-1.79016
0
LINE
8
BLACK
6
CONTINUOUS
10
2.10522
20
-1.79016
11
2.10529
21
-1.78997
0
LINE
8
BLACK
6
CONTINUOUS
10
2.10529
20
-1.78997
11
2.10535
21
-1.78978
0
LINE
8
BLACK
6
CONTINUOUS
10
2.10535
20
-1.78978
11
2.10539
21
-1.7897
0
LINE
8
BLACK
6
CONTINUOUS
10
2.10539
20
-1.7897
11
2.10543
21
-1.78962
0
LINE
8
BLACK
6
CONTINUOUS
10
2.10543
20
-1.78962
11
2.1073
21
-1.78587
0
LINE
8
BLACK
6
CONTINUOUS
10
2.1073
20
-1.78587
11
2.10732
21
-1.78583
0
LINE
8
BLACK
6
CONTINUOUS
10
2.10732
20
-1.78583
11
2.10741
21
-1.78569
0
LINE
8
BLACK
6
CONTINUOUS
10
2.10741
20
-1.78569
11
2.10749
21
-1.78555
0
LINE
8
BLACK
6
CONTINUOUS
10
2.10749
20
-1.78555
11
2.10757
21
-1.78545
0
LINE
8
BLACK
6
CONTINUOUS
10
2.10757
20
-1.78545
11
2.10763
21
-1.78535
0
LINE
8
BLACK
6
CONTINUOUS
10
2.10763
20
-1.78535
11
2.10775
21
-1.78523
0
LINE
8
BLACK
6
CONTINUOUS
10
2.10775
20
-1.78523
11
2.10785
21
-1.7851
0
LINE
8
BLACK
6
CONTINUOUS
10
2.10785
20
-1.7851
11
2.10973
21
-1.78323
0
LINE
8
BLACK
6
CONTINUOUS
10
2.10973
20
-1.78323
11
2.10976
21
-1.7832
0
LINE
8
BLACK
6
CONTINUOUS
10
2.10976
20
-1.7832
11
2.10989
21
-1.78309
0
LINE
8
BLACK
6
CONTINUOUS
10
2.10989
20
-1.78309
11
2.11001
21
-1.78298
0
LINE
8
BLACK
6
CONTINUOUS
10
2.11001
20
-1.78298
11
2.11011
21
-1.78292
0
LINE
8
BLACK
6
CONTINUOUS
10
2.11011
20
-1.78292
11
2.11021
21
-1.78284
0
LINE
8
BLACK
6
CONTINUOUS
10
2.11021
20
-1.78284
11
2.11035
21
-1.78276
0
LINE
8
BLACK
6
CONTINUOUS
10
2.11035
20
-1.78276
11
2.1105
21
-1.78267
0
LINE
8
BLACK
6
CONTINUOUS
10
2.1105
20
-1.78267
11
2.11424
21
-1.7808
0
LINE
8
BLACK
6
CONTINUOUS
10
2.11424
20
-1.7808
11
2.11428
21
-1.78078
0
LINE
8
BLACK
6
CONTINUOUS
10
2.11428
20
-1.78078
11
2.11436
21
-1.78075
0
LINE
8
BLACK
6
CONTINUOUS
10
2.11436
20
-1.78075
11
2.11444
21
-1.78071
0
LINE
8
BLACK
6
CONTINUOUS
10
2.11444
20
-1.78071
11
2.11463
21
-1.78065
0
LINE
8
BLACK
6
CONTINUOUS
10
2.11463
20
-1.78065
11
2.11482
21
-1.78058
0
LINE
8
BLACK
6
CONTINUOUS
10
2.11482
20
-1.78058
11
2.11491
21
-1.78057
0
LINE
8
BLACK
6
CONTINUOUS
10
2.11491
20
-1.78057
11
2.11499
21
-1.78054
0
LINE
8
BLACK
6
CONTINUOUS
10
2.11499
20
-1.78054
11
2.11519
21
-1.78052
0
LINE
8
BLACK
6
CONTINUOUS
10
2.11519
20
-1.78052
11
2.11539
21
-1.78049
0
LINE
8
BLACK
6
CONTINUOUS
10
2.11539
20
-1.78049
11
2.11548
21
-1.7805
0
LINE
8
BLACK
6
CONTINUOUS
10
2.11548
20
-1.7805
11
2.11557
21
-1.78049
0
LINE
8
BLACK
6
CONTINUOUS
10
2.11557
20
-1.78049
11
2.12494
21
-1.78049
0
LINE
8
BLACK
6
CONTINUOUS
10
2.12494
20
-1.78049
11
2.12498
21
-1.78049
0
LINE
8
BLACK
6
CONTINUOUS
10
2.12498
20
-1.78049
11
2.12507
21
-1.7805
0
LINE
8
BLACK
6
CONTINUOUS
10
2.12507
20
-1.7805
11
2.12515
21
-1.7805
0
LINE
8
BLACK
6
CONTINUOUS
10
2.12515
20
-1.7805
11
2.12535
21
-1.78053
0
LINE
8
BLACK
6
CONTINUOUS
10
2.12535
20
-1.78053
11
2.12555
21
-1.78055
0
LINE
8
BLACK
6
CONTINUOUS
10
2.12555
20
-1.78055
11
2.12564
21
-1.78058
0
LINE
8
BLACK
6
CONTINUOUS
10
2.12564
20
-1.78058
11
2.12572
21
-1.78059
0
LINE
8
BLACK
6
CONTINUOUS
10
2.12572
20
-1.78059
11
2.12591
21
-1.78067
0
LINE
8
BLACK
6
CONTINUOUS
10
2.12591
20
-1.78067
11
2.1261
21
-1.78073
0
LINE
8
BLACK
6
CONTINUOUS
10
2.1261
20
-1.78073
11
2.12618
21
-1.78077
0
LINE
8
BLACK
6
CONTINUOUS
10
2.12618
20
-1.78077
11
2.12626
21
-1.7808
0
LINE
8
BLACK
6
CONTINUOUS
10
2.12626
20
-1.7808
11
2.13001
21
-1.78267
0
LINE
8
BLACK
6
CONTINUOUS
10
2.13001
20
-1.78267
11
2.13005
21
-1.78269
0
LINE
8
BLACK
6
CONTINUOUS
10
2.13005
20
-1.78269
11
2.13019
21
-1.78278
0
LINE
8
BLACK
6
CONTINUOUS
10
2.13019
20
-1.78278
11
2.13033
21
-1.78286
0
LINE
8
BLACK
6
CONTINUOUS
10
2.13033
20
-1.78286
11
2.13043
21
-1.78294
0
LINE
8
BLACK
6
CONTINUOUS
10
2.13043
20
-1.78294
11
2.13053
21
-1.78301
0
LINE
8
BLACK
6
CONTINUOUS
10
2.13053
20
-1.78301
11
2.13065
21
-1.78312
0
LINE
8
BLACK
6
CONTINUOUS
10
2.13065
20
-1.78312
11
2.13078
21
-1.78323
0
LINE
8
BLACK
6
CONTINUOUS
10
2.13078
20
-1.78323
11
2.13265
21
-1.7851
0
LINE
8
BLACK
6
CONTINUOUS
10
2.13265
20
-1.7851
11
2.13268
21
-1.78513
0
LINE
8
BLACK
6
CONTINUOUS
10
2.13268
20
-1.78513
11
2.13304
21
-1.78558
0
LINE
8
BLACK
6
CONTINUOUS
10
2.13304
20
-1.78558
11
2.13331
21
-1.78609
0
LINE
8
BLACK
6
CONTINUOUS
10
2.13331
20
-1.78609
11
2.13347
21
-1.78665
0
LINE
8
BLACK
6
CONTINUOUS
10
2.13347
20
-1.78665
11
2.13352
21
-1.78722
0
LINE
8
BLACK
6
CONTINUOUS
10
2.13352
20
-1.78722
11
2.13345
21
-1.78779
0
LINE
8
BLACK
6
CONTINUOUS
10
2.13345
20
-1.78779
11
2.13328
21
-1.78834
0
LINE
8
BLACK
6
CONTINUOUS
10
2.13328
20
-1.78834
11
2.13301
21
-1.78885
0
LINE
8
BLACK
6
CONTINUOUS
10
2.13301
20
-1.78885
11
2.13264
21
-1.78929
0
LINE
8
BLACK
6
CONTINUOUS
10
2.13264
20
-1.78929
11
2.13219
21
-1.78965
0
LINE
8
BLACK
6
CONTINUOUS
10
2.13219
20
-1.78965
11
2.13168
21
-1.78992
0
LINE
8
BLACK
6
CONTINUOUS
10
2.13168
20
-1.78992
11
2.13113
21
-1.79009
0
LINE
8
BLACK
6
CONTINUOUS
10
2.13113
20
-1.79009
11
2.13055
21
-1.79014
0
LINE
8
BLACK
6
CONTINUOUS
10
2.13055
20
-1.79014
11
2.12998
21
-1.79008
0
LINE
8
BLACK
6
CONTINUOUS
10
2.12998
20
-1.79008
11
2.12943
21
-1.78992
0
LINE
8
BLACK
6
CONTINUOUS
10
2.12943
20
-1.78992
11
2.12892
21
-1.78964
0
LINE
8
BLACK
6
CONTINUOUS
10
2.12892
20
-1.78964
11
2.12848
21
-1.78928
0
LINE
8
BLACK
6
CONTINUOUS
10
2.12848
20
-1.78928
11
2.12694
21
-1.78774
0
LINE
8
BLACK
6
CONTINUOUS
10
2.12694
20
-1.78774
11
2.12424
21
-1.78639
0
LINE
8
BLACK
6
CONTINUOUS
10
2.12424
20
-1.78639
11
2.11626
21
-1.78639
0
LINE
8
BLACK
6
CONTINUOUS
10
2.11626
20
-1.78639
11
2.11356
21
-1.78774
0
LINE
8
BLACK
6
CONTINUOUS
10
2.11356
20
-1.78774
11
2.11237
21
-1.78894
0
LINE
8
BLACK
6
CONTINUOUS
10
2.11237
20
-1.78894
11
2.11102
21
-1.79164
0
LINE
8
BLACK
6
CONTINUOUS
10
2.11102
20
-1.79164
11
2.11102
21
-1.79421
0
LINE
8
BLACK
6
CONTINUOUS
10
2.11102
20
-1.79421
11
2.11252
21
-1.79872
0
LINE
8
BLACK
6
CONTINUOUS
10
2.11252
20
-1.79872
11
2.13453
21
-1.82072
0
LINE
8
BLACK
6
CONTINUOUS
10
2.13453
20
-1.82072
11
2.13455
21
-1.82074
0
LINE
8
BLACK
6
CONTINUOUS
10
2.13455
20
-1.82074
11
2.13455
21
-1.82074
0
LINE
8
BLACK
6
CONTINUOUS
10
2.13455
20
-1.82074
11
2.13455
21
-1.82074
0
LINE
8
BLACK
6
CONTINUOUS
10
2.13455
20
-1.82074
11
2.13456
21
-1.82075
0
LINE
8
BLACK
6
CONTINUOUS
10
2.13456
20
-1.82075
11
2.13473
21
-1.82098
0
LINE
8
BLACK
6
CONTINUOUS
10
2.13473
20
-1.82098
11
2.13491
21
-1.82119
0
LINE
8
BLACK
6
CONTINUOUS
10
2.13491
20
-1.82119
11
2.13491
21
-1.8212
0
LINE
8
BLACK
6
CONTINUOUS
10
2.13491
20
-1.8212
11
2.13491
21
-1.8212
0
LINE
8
BLACK
6
CONTINUOUS
10
2.13491
20
-1.8212
11
2.13505
21
-1.82146
0
LINE
8
BLACK
6
CONTINUOUS
10
2.13505
20
-1.82146
11
2.13518
21
-1.8217
0
LINE
8
BLACK
6
CONTINUOUS
10
2.13518
20
-1.8217
11
2.13518
21
-1.82171
0
LINE
8
BLACK
6
CONTINUOUS
10
2.13518
20
-1.82171
11
2.13518
21
-1.82171
0
LINE
8
BLACK
6
CONTINUOUS
10
2.13518
20
-1.82171
11
2.13526
21
-1.82199
0
LINE
8
BLACK
6
CONTINUOUS
10
2.13526
20
-1.82199
11
2.13534
21
-1.82226
0
LINE
8
BLACK
6
CONTINUOUS
10
2.13534
20
-1.82226
11
2.13534
21
-1.82226
0
LINE
8
BLACK
6
CONTINUOUS
10
2.13534
20
-1.82226
11
2.13534
21
-1.82227
0
LINE
8
BLACK
6
CONTINUOUS
10
2.13534
20
-1.82227
11
2.13537
21
-1.82255
0
LINE
8
BLACK
6
CONTINUOUS
10
2.13537
20
-1.82255
11
2.13539
21
-1.82283
0
LINE
8
BLACK
6
CONTINUOUS
10
2.13539
20
-1.82283
11
2.13539
21
-1.82284
0
LINE
8
BLACK
6
CONTINUOUS
10
2.13539
20
-1.82284
11
2.13539
21
-1.82284
0
LINE
8
BLACK
6
CONTINUOUS
10
2.13539
20
-1.82284
11
2.13536
21
-1.82312
0
LINE
8
BLACK
6
CONTINUOUS
10
2.13536
20
-1.82312
11
2.13533
21
-1.8234
0
LINE
8
BLACK
6
CONTINUOUS
10
2.13533
20
-1.8234
11
2.13533
21
-1.82341
0
LINE
8
BLACK
6
CONTINUOUS
10
2.13533
20
-1.82341
11
2.13533
21
-1.82341
0
LINE
8
BLACK
6
CONTINUOUS
10
2.13533
20
-1.82341
11
2.13524
21
-1.82368
0
LINE
8
BLACK
6
CONTINUOUS
10
2.13524
20
-1.82368
11
2.13516
21
-1.82395
0
LINE
8
BLACK
6
CONTINUOUS
10
2.13516
20
-1.82395
11
2.13516
21
-1.82396
0
LINE
8
BLACK
6
CONTINUOUS
10
2.13516
20
-1.82396
11
2.13516
21
-1.82396
0
LINE
8
BLACK
6
CONTINUOUS
10
2.13516
20
-1.82396
11
2.13502
21
-1.82422
0
LINE
8
BLACK
6
CONTINUOUS
10
2.13502
20
-1.82422
11
2.13489
21
-1.82446
0
LINE
8
BLACK
6
CONTINUOUS
10
2.13489
20
-1.82446
11
2.13488
21
-1.82447
0
LINE
8
BLACK
6
CONTINUOUS
10
2.13488
20
-1.82447
11
2.13488
21
-1.82447
0
LINE
8
BLACK
6
CONTINUOUS
10
2.13488
20
-1.82447
11
2.1347
21
-1.82469
0
LINE
8
BLACK
6
CONTINUOUS
10
2.1347
20
-1.82469
11
2.13452
21
-1.82491
0
LINE
8
BLACK
6
CONTINUOUS
10
2.13452
20
-1.82491
11
2.13451
21
-1.82491
0
LINE
8
BLACK
6
CONTINUOUS
10
2.13451
20
-1.82491
11
2.13451
21
-1.82491
0
LINE
8
BLACK
6
CONTINUOUS
10
2.13451
20
-1.82491
11
2.13429
21
-1.82509
0
LINE
8
BLACK
6
CONTINUOUS
10
2.13429
20
-1.82509
11
2.13407
21
-1.82527
0
LINE
8
BLACK
6
CONTINUOUS
10
2.13407
20
-1.82527
11
2.13407
21
-1.82527
0
LINE
8
BLACK
6
CONTINUOUS
10
2.13407
20
-1.82527
11
2.13406
21
-1.82528
0
LINE
8
BLACK
6
CONTINUOUS
10
2.13406
20
-1.82528
11
2.13381
21
-1.82541
0
LINE
8
BLACK
6
CONTINUOUS
10
2.13381
20
-1.82541
11
2.13356
21
-1.82554
0
LINE
8
BLACK
6
CONTINUOUS
10
2.13356
20
-1.82554
11
2.13356
21
-1.82554
0
LINE
8
BLACK
6
CONTINUOUS
10
2.13356
20
-1.82554
11
2.13355
21
-1.82554
0
LINE
8
BLACK
6
CONTINUOUS
10
2.13355
20
-1.82554
11
2.13328
21
-1.82563
0
LINE
8
BLACK
6
CONTINUOUS
10
2.13328
20
-1.82563
11
2.13301
21
-1.82571
0
LINE
8
BLACK
6
CONTINUOUS
10
2.13301
20
-1.82571
11
2.13301
21
-1.82571
0
LINE
8
BLACK
6
CONTINUOUS
10
2.13301
20
-1.82571
11
2.133
21
-1.82571
0
LINE
8
BLACK
6
CONTINUOUS
10
2.133
20
-1.82571
11
2.13272
21
-1.82574
0
LINE
8
BLACK
6
CONTINUOUS
10
2.13272
20
-1.82574
11
2.13244
21
-1.82576
0
LINE
8
BLACK
6
CONTINUOUS
10
2.13244
20
-1.82576
11
2.10807
21
-1.82576
0
LINE
8
BLACK
6
CONTINUOUS
10
2.10807
20
-1.82576
11
2.10803
21
-1.82576
0
LINE
8
BLACK
6
CONTINUOUS
10
2.16808
20
-1.78049
11
2.16808
21
-1.78049
0
LINE
8
BLACK
6
CONTINUOUS
10
2.16808
20
-1.78049
11
2.16808
21
-1.78049
0
LINE
8
BLACK
6
CONTINUOUS
10
2.16808
20
-1.78049
11
2.1681
21
-1.78049
0
LINE
8
BLACK
6
CONTINUOUS
10
2.1681
20
-1.78049
11
2.16838
21
-1.78052
0
LINE
8
BLACK
6
CONTINUOUS
10
2.16838
20
-1.78052
11
2.16865
21
-1.78055
0
LINE
8
BLACK
6
CONTINUOUS
10
2.16865
20
-1.78055
11
2.16866
21
-1.78055
0
LINE
8
BLACK
6
CONTINUOUS
10
2.16866
20
-1.78055
11
2.16867
21
-1.78055
0
LINE
8
BLACK
6
CONTINUOUS
10
2.16867
20
-1.78055
11
2.16894
21
-1.78064
0
LINE
8
BLACK
6
CONTINUOUS
10
2.16894
20
-1.78064
11
2.1692
21
-1.78072
0
LINE
8
BLACK
6
CONTINUOUS
10
2.1692
20
-1.78072
11
2.16921
21
-1.78072
0
LINE
8
BLACK
6
CONTINUOUS
10
2.16921
20
-1.78072
11
2.16922
21
-1.78073
0
LINE
8
BLACK
6
CONTINUOUS
10
2.16922
20
-1.78073
11
2.16947
21
-1.78086
0
LINE
8
BLACK
6
CONTINUOUS
10
2.16947
20
-1.78086
11
2.16971
21
-1.78099
0
LINE
8
BLACK
6
CONTINUOUS
10
2.16971
20
-1.78099
11
2.16972
21
-1.781
0
LINE
8
BLACK
6
CONTINUOUS
10
2.16972
20
-1.781
11
2.16973
21
-1.781
0
LINE
8
BLACK
6
CONTINUOUS
10
2.16973
20
-1.781
11
2.16994
21
-1.78118
0
LINE
8
BLACK
6
CONTINUOUS
10
2.16994
20
-1.78118
11
2.17015
21
-1.78136
0
LINE
8
BLACK
6
CONTINUOUS
10
2.17015
20
-1.78136
11
2.17016
21
-1.78137
0
LINE
8
BLACK
6
CONTINUOUS
10
2.17016
20
-1.78137
11
2.17017
21
-1.78137
0
LINE
8
BLACK
6
CONTINUOUS
10
2.17017
20
-1.78137
11
2.17034
21
-1.78159
0
LINE
8
BLACK
6
CONTINUOUS
10
2.17034
20
-1.78159
11
2.17052
21
-1.78181
0
LINE
8
BLACK
6
CONTINUOUS
10
2.17052
20
-1.78181
11
2.17052
21
-1.78182
0
LINE
8
BLACK
6
CONTINUOUS
10
2.17052
20
-1.78182
11
2.17053
21
-1.78182
0
LINE
8
BLACK
6
CONTINUOUS
10
2.17053
20
-1.78182
11
2.17066
21
-1.78207
0
LINE
8
BLACK
6
CONTINUOUS
10
2.17066
20
-1.78207
11
2.17079
21
-1.78231
0
LINE
8
BLACK
6
CONTINUOUS
10
2.17079
20
-1.78231
11
2.17079
21
-1.78232
0
LINE
8
BLACK
6
CONTINUOUS
10
2.17079
20
-1.78232
11
2.1708
21
-1.78233
0
LINE
8
BLACK
6
CONTINUOUS
10
2.1708
20
-1.78233
11
2.17088
21
-1.7826
0
LINE
8
BLACK
6
CONTINUOUS
10
2.17088
20
-1.7826
11
2.17096
21
-1.78287
0
LINE
8
BLACK
6
CONTINUOUS
10
2.17096
20
-1.78287
11
2.17096
21
-1.78288
0
LINE
8
BLACK
6
CONTINUOUS
10
2.17096
20
-1.78288
11
2.17096
21
-1.78289
0
LINE
8
BLACK
6
CONTINUOUS
10
2.17096
20
-1.78289
11
2.17098
21
-1.78316
0
LINE
8
BLACK
6
CONTINUOUS
10
2.17098
20
-1.78316
11
2.17101
21
-1.78344
0
LINE
8
BLACK
6
CONTINUOUS
10
2.17101
20
-1.78344
11
2.17101
21
-1.82281
0
LINE
8
BLACK
6
CONTINUOUS
10
2.17101
20
-1.82281
11
2.17101
21
-1.82285
0
LINE
8
BLACK
6
CONTINUOUS
10
2.17101
20
-1.82285
11
2.17095
21
-1.82342
0
LINE
8
BLACK
6
CONTINUOUS
10
2.17095
20
-1.82342
11
2.17077
21
-1.82397
0
LINE
8
BLACK
6
CONTINUOUS
10
2.17077
20
-1.82397
11
2.1705
21
-1.82448
0
LINE
8
BLACK
6
CONTINUOUS
10
2.1705
20
-1.82448
11
2.17012
21
-1.82492
0
LINE
8
BLACK
6
CONTINUOUS
10
2.17012
20
-1.82492
11
2.16968
21
-1.82528
0
LINE
8
BLACK
6
CONTINUOUS
10
2.16968
20
-1.82528
11
2.16916
21
-1.82555
0
LINE
8
BLACK
6
CONTINUOUS
10
2.16916
20
-1.82555
11
2.16861
21
-1.82571
0
LINE
8
BLACK
6
CONTINUOUS
10
2.16861
20
-1.82571
11
2.16804
21
-1.82576
0
LINE
8
BLACK
6
CONTINUOUS
10
2.16804
20
-1.82576
11
2.16747
21
-1.8257
0
LINE
8
BLACK
6
CONTINUOUS
10
2.16747
20
-1.8257
11
2.16691
21
-1.82553
0
LINE
8
BLACK
6
CONTINUOUS
10
2.16691
20
-1.82553
11
2.16641
21
-1.82526
0
LINE
8
BLACK
6
CONTINUOUS
10
2.16641
20
-1.82526
11
2.16596
21
-1.82489
0
LINE
8
BLACK
6
CONTINUOUS
10
2.16596
20
-1.82489
11
2.1656
21
-1.82444
0
LINE
8
BLACK
6
CONTINUOUS
10
2.1656
20
-1.82444
11
2.16533
21
-1.82394
0
LINE
8
BLACK
6
CONTINUOUS
10
2.16533
20
-1.82394
11
2.16516
21
-1.82338
0
LINE
8
BLACK
6
CONTINUOUS
10
2.16516
20
-1.82338
11
2.16511
21
-1.82281
0
LINE
8
BLACK
6
CONTINUOUS
10
2.16511
20
-1.82281
11
2.16511
21
-1.80702
0
LINE
8
BLACK
6
CONTINUOUS
10
2.16511
20
-1.80702
11
2.16022
21
-1.80702
0
LINE
8
BLACK
6
CONTINUOUS
10
2.16022
20
-1.80702
11
2.14798
21
-1.8245
0
LINE
8
BLACK
6
CONTINUOUS
10
2.14798
20
-1.8245
11
2.14796
21
-1.82454
0
LINE
8
BLACK
6
CONTINUOUS
10
2.14796
20
-1.82454
11
2.14758
21
-1.82497
0
LINE
8
BLACK
6
CONTINUOUS
10
2.14758
20
-1.82497
11
2.14712
21
-1.82532
0
LINE
8
BLACK
6
CONTINUOUS
10
2.14712
20
-1.82532
11
2.1466
21
-1.82557
0
LINE
8
BLACK
6
CONTINUOUS
10
2.1466
20
-1.82557
11
2.14604
21
-1.82572
0
LINE
8
BLACK
6
CONTINUOUS
10
2.14604
20
-1.82572
11
2.14547
21
-1.82576
0
LINE
8
BLACK
6
CONTINUOUS
10
2.14547
20
-1.82576
11
2.1449
21
-1.82569
0
LINE
8
BLACK
6
CONTINUOUS
10
2.1449
20
-1.82569
11
2.14435
21
-1.8255
0
LINE
8
BLACK
6
CONTINUOUS
10
2.14435
20
-1.8255
11
2.14385
21
-1.82522
0
LINE
8
BLACK
6
CONTINUOUS
10
2.14385
20
-1.82522
11
2.14342
21
-1.82484
0
LINE
8
BLACK
6
CONTINUOUS
10
2.14342
20
-1.82484
11
2.14306
21
-1.82438
0
LINE
8
BLACK
6
CONTINUOUS
10
2.14306
20
-1.82438
11
2.14281
21
-1.82387
0
LINE
8
BLACK
6
CONTINUOUS
10
2.14281
20
-1.82387
11
2.14265
21
-1.82331
0
LINE
8
BLACK
6
CONTINUOUS
10
2.14265
20
-1.82331
11
2.14261
21
-1.82274
0
LINE
8
BLACK
6
CONTINUOUS
10
2.14261
20
-1.82274
11
2.14268
21
-1.82217
0
LINE
8
BLACK
6
CONTINUOUS
10
2.14268
20
-1.82217
11
2.14286
21
-1.82162
0
LINE
8
BLACK
6
CONTINUOUS
10
2.14286
20
-1.82162
11
2.14314
21
-1.82112
0
LINE
8
BLACK
6
CONTINUOUS
10
2.14314
20
-1.82112
11
2.15301
21
-1.80701
0
LINE
8
BLACK
6
CONTINUOUS
10
2.15301
20
-1.80701
11
2.15293
21
-1.80701
0
LINE
8
BLACK
6
CONTINUOUS
10
2.15293
20
-1.80701
11
2.15285
21
-1.80701
0
LINE
8
BLACK
6
CONTINUOUS
10
2.15285
20
-1.80701
11
2.15265
21
-1.80697
0
LINE
8
BLACK
6
CONTINUOUS
10
2.15265
20
-1.80697
11
2.15245
21
-1.80695
0
LINE
8
BLACK
6
CONTINUOUS
10
2.15245
20
-1.80695
11
2.15236
21
-1.80692
0
LINE
8
BLACK
6
CONTINUOUS
10
2.15236
20
-1.80692
11
2.15228
21
-1.80691
0
LINE
8
BLACK
6
CONTINUOUS
10
2.15228
20
-1.80691
11
2.15209
21
-1.80684
0
LINE
8
BLACK
6
CONTINUOUS
10
2.15209
20
-1.80684
11
2.1519
21
-1.80678
0
LINE
8
BLACK
6
CONTINUOUS
10
2.1519
20
-1.80678
11
2.15182
21
-1.80673
0
LINE
8
BLACK
6
CONTINUOUS
10
2.15182
20
-1.80673
11
2.15174
21
-1.8067
0
LINE
8
BLACK
6
CONTINUOUS
10
2.15174
20
-1.8067
11
2.14799
21
-1.80483
0
LINE
8
BLACK
6
CONTINUOUS
10
2.14799
20
-1.80483
11
2.14795
21
-1.80481
0
LINE
8
BLACK
6
CONTINUOUS
10
2.14795
20
-1.80481
11
2.14781
21
-1.80472
0
LINE
8
BLACK
6
CONTINUOUS
10
2.14781
20
-1.80472
11
2.14767
21
-1.80464
0
LINE
8
BLACK
6
CONTINUOUS
10
2.14767
20
-1.80464
11
2.14757
21
-1.80456
0
LINE
8
BLACK
6
CONTINUOUS
10
2.14757
20
-1.80456
11
2.14747
21
-1.8045
0
LINE
8
BLACK
6
CONTINUOUS
10
2.14747
20
-1.8045
11
2.14735
21
-1.80438
0
LINE
8
BLACK
6
CONTINUOUS
10
2.14735
20
-1.80438
11
2.14722
21
-1.80428
0
LINE
8
BLACK
6
CONTINUOUS
10
2.14722
20
-1.80428
11
2.14535
21
-1.8024
0
LINE
8
BLACK
6
CONTINUOUS
10
2.14535
20
-1.8024
11
2.14532
21
-1.80237
0
LINE
8
BLACK
6
CONTINUOUS
10
2.14532
20
-1.80237
11
2.14522
21
-1.80224
0
LINE
8
BLACK
6
CONTINUOUS
10
2.14522
20
-1.80224
11
2.1451
21
-1.80212
0
LINE
8
BLACK
6
CONTINUOUS
10
2.1451
20
-1.80212
11
2.14504
21
-1.80202
0
LINE
8
BLACK
6
CONTINUOUS
10
2.14504
20
-1.80202
11
2.14496
21
-1.80192
0
LINE
8
BLACK
6
CONTINUOUS
10
2.14496
20
-1.80192
11
2.14488
21
-1.80177
0
LINE
8
BLACK
6
CONTINUOUS
10
2.14488
20
-1.80177
11
2.1448
21
-1.80163
0
LINE
8
BLACK
6
CONTINUOUS
10
2.1448
20
-1.80163
11
2.14292
21
-1.79788
0
LINE
8
BLACK
6
CONTINUOUS
10
2.14292
20
-1.79788
11
2.1429
21
-1.79785
0
LINE
8
BLACK
6
CONTINUOUS
10
2.1429
20
-1.79785
11
2.14287
21
-1.79777
0
LINE
8
BLACK
6
CONTINUOUS
10
2.14287
20
-1.79777
11
2.14283
21
-1.79769
0
LINE
8
BLACK
6
CONTINUOUS
10
2.14283
20
-1.79769
11
2.14277
21
-1.7975
0
LINE
8
BLACK
6
CONTINUOUS
10
2.14277
20
-1.7975
11
2.1427
21
-1.79731
0
LINE
8
BLACK
6
CONTINUOUS
10
2.1427
20
-1.79731
11
2.14269
21
-1.79722
0
LINE
8
BLACK
6
CONTINUOUS
10
2.14269
20
-1.79722
11
2.14267
21
-1.79714
0
LINE
8
BLACK
6
CONTINUOUS
10
2.14267
20
-1.79714
11
2.14265
21
-1.79694
0
LINE
8
BLACK
6
CONTINUOUS
10
2.14265
20
-1.79694
11
2.14261
21
-1.79674
0
LINE
8
BLACK
6
CONTINUOUS
10
2.14261
20
-1.79674
11
2.14262
21
-1.79665
0
LINE
8
BLACK
6
CONTINUOUS
10
2.14262
20
-1.79665
11
2.14261
21
-1.79656
0
LINE
8
BLACK
6
CONTINUOUS
10
2.14261
20
-1.79656
11
2.14261
21
-1.79094
0
LINE
8
BLACK
6
CONTINUOUS
10
2.14261
20
-1.79094
11
2.14261
21
-1.7909
0
LINE
8
BLACK
6
CONTINUOUS
10
2.14261
20
-1.7909
11
2.14262
21
-1.79081
0
LINE
8
BLACK
6
CONTINUOUS
10
2.14262
20
-1.79081
11
2.14262
21
-1.79072
0
LINE
8
BLACK
6
CONTINUOUS
10
2.14262
20
-1.79072
11
2.14265
21
-1.79053
0
LINE
8
BLACK
6
CONTINUOUS
10
2.14265
20
-1.79053
11
2.14267
21
-1.79033
0
LINE
8
BLACK
6
CONTINUOUS
10
2.14267
20
-1.79033
11
2.1427
21
-1.79024
0
LINE
8
BLACK
6
CONTINUOUS
10
2.1427
20
-1.79024
11
2.14271
21
-1.79016
0
LINE
8
BLACK
6
CONTINUOUS
10
2.14271
20
-1.79016
11
2.14279
21
-1.78997
0
LINE
8
BLACK
6
CONTINUOUS
10
2.14279
20
-1.78997
11
2.14285
21
-1.78978
0
LINE
8
BLACK
6
CONTINUOUS
10
2.14285
20
-1.78978
11
2.14289
21
-1.7897
0
LINE
8
BLACK
6
CONTINUOUS
10
2.14289
20
-1.7897
11
2.14292
21
-1.78962
0
LINE
8
BLACK
6
CONTINUOUS
10
2.14292
20
-1.78962
11
2.1448
21
-1.78587
0
LINE
8
BLACK
6
CONTINUOUS
10
2.1448
20
-1.78587
11
2.14481
21
-1.78583
0
LINE
8
BLACK
6
CONTINUOUS
10
2.14481
20
-1.78583
11
2.1449
21
-1.78569
0
LINE
8
BLACK
6
CONTINUOUS
10
2.1449
20
-1.78569
11
2.14498
21
-1.78555
0
LINE
8
BLACK
6
CONTINUOUS
10
2.14498
20
-1.78555
11
2.14506
21
-1.78545
0
LINE
8
BLACK
6
CONTINUOUS
10
2.14506
20
-1.78545
11
2.14513
21
-1.78535
0
LINE
8
BLACK
6
CONTINUOUS
10
2.14513
20
-1.78535
11
2.14524
21
-1.78523
0
LINE
8
BLACK
6
CONTINUOUS
10
2.14524
20
-1.78523
11
2.14535
21
-1.7851
0
LINE
8
BLACK
6
CONTINUOUS
10
2.14535
20
-1.7851
11
2.14722
21
-1.78323
0
LINE
8
BLACK
6
CONTINUOUS
10
2.14722
20
-1.78323
11
2.14725
21
-1.7832
0
LINE
8
BLACK
6
CONTINUOUS
10
2.14725
20
-1.7832
11
2.14738
21
-1.78309
0
LINE
8
BLACK
6
CONTINUOUS
10
2.14738
20
-1.78309
11
2.1475
21
-1.78298
0
LINE
8
BLACK
6
CONTINUOUS
10
2.1475
20
-1.78298
11
2.14761
21
-1.78292
0
LINE
8
BLACK
6
CONTINUOUS
10
2.14761
20
-1.78292
11
2.1477
21
-1.78284
0
LINE
8
BLACK
6
CONTINUOUS
10
2.1477
20
-1.78284
11
2.14785
21
-1.78276
0
LINE
8
BLACK
6
CONTINUOUS
10
2.14785
20
-1.78276
11
2.14799
21
-1.78267
0
LINE
8
BLACK
6
CONTINUOUS
10
2.14799
20
-1.78267
11
2.15174
21
-1.7808
0
LINE
8
BLACK
6
CONTINUOUS
10
2.15174
20
-1.7808
11
2.15178
21
-1.78078
0
LINE
8
BLACK
6
CONTINUOUS
10
2.15178
20
-1.78078
11
2.15186
21
-1.78075
0
LINE
8
BLACK
6
CONTINUOUS
10
2.15186
20
-1.78075
11
2.15194
21
-1.78071
0
LINE
8
BLACK
6
CONTINUOUS
10
2.15194
20
-1.78071
11
2.15213
21
-1.78065
0
LINE
8
BLACK
6
CONTINUOUS
10
2.15213
20
-1.78065
11
2.15232
21
-1.78058
0
LINE
8
BLACK
6
CONTINUOUS
10
2.15232
20
-1.78058
11
2.1524
21
-1.78057
0
LINE
8
BLACK
6
CONTINUOUS
10
2.1524
20
-1.78057
11
2.15249
21
-1.78054
0
LINE
8
BLACK
6
CONTINUOUS
10
2.15249
20
-1.78054
11
2.15269
21
-1.78052
0
LINE
8
BLACK
6
CONTINUOUS
10
2.15269
20
-1.78052
11
2.15289
21
-1.78049
0
LINE
8
BLACK
6
CONTINUOUS
10
2.15289
20
-1.78049
11
2.15297
21
-1.7805
0
LINE
8
BLACK
6
CONTINUOUS
10
2.15297
20
-1.7805
11
2.15306
21
-1.78049
0
LINE
8
BLACK
6
CONTINUOUS
10
2.15306
20
-1.78049
11
2.16806
21
-1.78049
0
LINE
8
BLACK
6
CONTINUOUS
10
2.16806
20
-1.78049
11
2.16808
21
-1.78049
0
LINE
8
BLACK
6
CONTINUOUS
10
2.15376
20
-1.78639
11
2.15106
21
-1.78774
0
LINE
8
BLACK
6
CONTINUOUS
10
2.15106
20
-1.78774
11
2.14986
21
-1.78894
0
LINE
8
BLACK
6
CONTINUOUS
10
2.14986
20
-1.78894
11
2.14851
21
-1.79164
0
LINE
8
BLACK
6
CONTINUOUS
10
2.14851
20
-1.79164
11
2.14851
21
-1.79587
0
LINE
8
BLACK
6
CONTINUOUS
10
2.14851
20
-1.79587
11
2.14986
21
-1.79856
0
LINE
8
BLACK
6
CONTINUOUS
10
2.14986
20
-1.79856
11
2.15106
21
-1.79976
0
LINE
8
BLACK
6
CONTINUOUS
10
2.15106
20
-1.79976
11
2.15376
21
-1.80111
0
LINE
8
BLACK
6
CONTINUOUS
10
2.15376
20
-1.80111
11
2.16511
21
-1.80111
0
LINE
8
BLACK
6
CONTINUOUS
10
2.16511
20
-1.80111
11
2.16511
21
-1.78639
0
LINE
8
BLACK
6
CONTINUOUS
10
2.16511
20
-1.78639
11
2.15376
21
-1.78639
0
LINE
8
BLACK
6
CONTINUOUS
10
2.21905
20
-1.76445
11
2.2195
21
-1.76459
0
LINE
8
BLACK
6
CONTINUOUS
10
2.2195
20
-1.76459
11
2.21991
21
-1.76481
0
LINE
8
BLACK
6
CONTINUOUS
10
2.21991
20
-1.76481
11
2.22027
21
-1.7651
0
LINE
8
BLACK
6
CONTINUOUS
10
2.22027
20
-1.7651
11
2.22056
21
-1.76546
0
LINE
8
BLACK
6
CONTINUOUS
10
2.22056
20
-1.76546
11
2.22078
21
-1.76587
0
LINE
8
BLACK
6
CONTINUOUS
10
2.22078
20
-1.76587
11
2.22092
21
-1.76632
0
LINE
8
BLACK
6
CONTINUOUS
10
2.22092
20
-1.76632
11
2.22096
21
-1.76678
0
LINE
8
BLACK
6
CONTINUOUS
10
2.22096
20
-1.76678
11
2.22092
21
-1.76724
0
LINE
8
BLACK
6
CONTINUOUS
10
2.22092
20
-1.76724
11
2.22078
21
-1.76769
0
LINE
8
BLACK
6
CONTINUOUS
10
2.22078
20
-1.76769
11
2.22056
21
-1.7681
0
LINE
8
BLACK
6
CONTINUOUS
10
2.22056
20
-1.7681
11
2.22027
21
-1.76846
0
LINE
8
BLACK
6
CONTINUOUS
10
2.22027
20
-1.76846
11
2.21991
21
-1.76875
0
LINE
8
BLACK
6
CONTINUOUS
10
2.21991
20
-1.76875
11
2.2195
21
-1.76897
0
LINE
8
BLACK
6
CONTINUOUS
10
2.2195
20
-1.76897
11
2.21905
21
-1.76911
0
LINE
8
BLACK
6
CONTINUOUS
10
2.21905
20
-1.76911
11
2.21871
21
-1.76914
0
LINE
8
BLACK
6
CONTINUOUS
10
2.21871
20
-1.76914
11
2.06729
21
-1.76914
0
LINE
8
BLACK
6
CONTINUOUS
10
2.06729
20
-1.76914
11
2.06695
21
-1.76911
0
LINE
8
BLACK
6
CONTINUOUS
10
2.06695
20
-1.76911
11
2.0665
21
-1.76897
0
LINE
8
BLACK
6
CONTINUOUS
10
2.0665
20
-1.76897
11
2.06609
21
-1.76875
0
LINE
8
BLACK
6
CONTINUOUS
10
2.06609
20
-1.76875
11
2.06573
21
-1.76846
0
LINE
8
BLACK
6
CONTINUOUS
10
2.06573
20
-1.76846
11
2.06544
21
-1.7681
0
LINE
8
BLACK
6
CONTINUOUS
10
2.06544
20
-1.7681
11
2.06522
21
-1.76769
0
LINE
8
BLACK
6
CONTINUOUS
10
2.06522
20
-1.76769
11
2.06508
21
-1.76724
0
LINE
8
BLACK
6
CONTINUOUS
10
2.06508
20
-1.76724
11
2.06504
21
-1.76678
0
LINE
8
BLACK
6
CONTINUOUS
10
2.06504
20
-1.76678
11
2.06508
21
-1.76632
0
LINE
8
BLACK
6
CONTINUOUS
10
2.06508
20
-1.76632
11
2.06522
21
-1.76587
0
LINE
8
BLACK
6
CONTINUOUS
10
2.06522
20
-1.76587
11
2.06544
21
-1.76546
0
LINE
8
BLACK
6
CONTINUOUS
10
2.06544
20
-1.76546
11
2.06573
21
-1.7651
0
LINE
8
BLACK
6
CONTINUOUS
10
2.06573
20
-1.7651
11
2.06609
21
-1.76481
0
LINE
8
BLACK
6
CONTINUOUS
10
2.06609
20
-1.76481
11
2.0665
21
-1.76459
0
LINE
8
BLACK
6
CONTINUOUS
10
2.0665
20
-1.76459
11
2.06695
21
-1.76445
0
LINE
8
BLACK
6
CONTINUOUS
10
2.06695
20
-1.76445
11
2.06729
21
-1.76442
0
LINE
8
BLACK
6
CONTINUOUS
10
2.06729
20
-1.76442
11
2.21871
21
-1.76442
0
LINE
8
BLACK
6
CONTINUOUS
10
2.21871
20
-1.76442
11
2.21905
21
-1.76445
0
LINE
8
BLACK
6
CONTINUOUS
10
2.21905
20
-1.75089
11
2.2195
21
-1.75103
0
LINE
8
BLACK
6
CONTINUOUS
10
2.2195
20
-1.75103
11
2.21991
21
-1.75125
0
LINE
8
BLACK
6
CONTINUOUS
10
2.21991
20
-1.75125
11
2.22027
21
-1.75154
0
LINE
8
BLACK
6
CONTINUOUS
10
2.22027
20
-1.75154
11
2.22056
21
-1.7519
0
LINE
8
BLACK
6
CONTINUOUS
10
2.22056
20
-1.7519
11
2.22078
21
-1.75231
0
LINE
8
BLACK
6
CONTINUOUS
10
2.22078
20
-1.75231
11
2.22092
21
-1.75276
0
LINE
8
BLACK
6
CONTINUOUS
10
2.22092
20
-1.75276
11
2.22096
21
-1.75322
0
LINE
8
BLACK
6
CONTINUOUS
10
2.22096
20
-1.75322
11
2.22092
21
-1.75368
0
LINE
8
BLACK
6
CONTINUOUS
10
2.22092
20
-1.75368
11
2.22078
21
-1.75413
0
LINE
8
BLACK
6
CONTINUOUS
10
2.22078
20
-1.75413
11
2.22056
21
-1.75454
0
LINE
8
BLACK
6
CONTINUOUS
10
2.22056
20
-1.75454
11
2.22027
21
-1.7549
0
LINE
8
BLACK
6
CONTINUOUS
10
2.22027
20
-1.7549
11
2.21991
21
-1.75519
0
LINE
8
BLACK
6
CONTINUOUS
10
2.21991
20
-1.75519
11
2.2195
21
-1.75541
0
LINE
8
BLACK
6
CONTINUOUS
10
2.2195
20
-1.75541
11
2.21905
21
-1.75555
0
LINE
8
BLACK
6
CONTINUOUS
10
2.21905
20
-1.75555
11
2.21871
21
-1.75558
0
LINE
8
BLACK
6
CONTINUOUS
10
2.21871
20
-1.75558
11
2.06729
21
-1.75558
0
LINE
8
BLACK
6
CONTINUOUS
10
2.06729
20
-1.75558
11
2.06695
21
-1.75555
0
LINE
8
BLACK
6
CONTINUOUS
10
2.06695
20
-1.75555
11
2.0665
21
-1.75541
0
LINE
8
BLACK
6
CONTINUOUS
10
2.0665
20
-1.75541
11
2.06609
21
-1.75519
0
LINE
8
BLACK
6
CONTINUOUS
10
2.06609
20
-1.75519
11
2.06573
21
-1.7549
0
LINE
8
BLACK
6
CONTINUOUS
10
2.06573
20
-1.7549
11
2.06544
21
-1.75454
0
LINE
8
BLACK
6
CONTINUOUS
10
2.06544
20
-1.75454
11
2.06522
21
-1.75413
0
LINE
8
BLACK
6
CONTINUOUS
10
2.06522
20
-1.75413
11
2.06508
21
-1.75368
0
LINE
8
BLACK
6
CONTINUOUS
10
2.06508
20
-1.75368
11
2.06504
21
-1.75322
0
LINE
8
BLACK
6
CONTINUOUS
10
2.06504
20
-1.75322
11
2.06508
21
-1.75276
0
LINE
8
BLACK
6
CONTINUOUS
10
2.06508
20
-1.75276
11
2.06522
21
-1.75231
0
LINE
8
BLACK
6
CONTINUOUS
10
2.06522
20
-1.75231
11
2.06544
21
-1.7519
0
LINE
8
BLACK
6
CONTINUOUS
10
2.06544
20
-1.7519
11
2.06573
21
-1.75154
0
LINE
8
BLACK
6
CONTINUOUS
10
2.06573
20
-1.75154
11
2.06609
21
-1.75125
0
LINE
8
BLACK
6
CONTINUOUS
10
2.06609
20
-1.75125
11
2.0665
21
-1.75103
0
LINE
8
BLACK
6
CONTINUOUS
10
2.0665
20
-1.75103
11
2.06695
21
-1.75089
0
LINE
8
BLACK
6
CONTINUOUS
10
2.06695
20
-1.75089
11
2.06729
21
-1.75086
0
LINE
8
BLACK
6
CONTINUOUS
10
2.06729
20
-1.75086
11
2.21871
21
-1.75086
0
LINE
8
BLACK
6
CONTINUOUS
10
2.21871
20
-1.75086
11
2.21905
21
-1.75089
0
LINE
8
BLACK
6
CONTINUOUS
10
2.13948
20
-1.69049
11
2.14005
21
-1.69055
0
LINE
8
BLACK
6
CONTINUOUS
10
2.14005
20
-1.69055
11
2.1406
21
-1.69073
0
LINE
8
BLACK
6
CONTINUOUS
10
2.1406
20
-1.69073
11
2.14111
21
-1.691
0
LINE
8
BLACK
6
CONTINUOUS
10
2.14111
20
-1.691
11
2.14155
21
-1.69137
0
LINE
8
BLACK
6
CONTINUOUS
10
2.14155
20
-1.69137
11
2.14191
21
-1.69182
0
LINE
8
BLACK
6
CONTINUOUS
10
2.14191
20
-1.69182
11
2.14218
21
-1.69233
0
LINE
8
BLACK
6
CONTINUOUS
10
2.14218
20
-1.69233
11
2.14234
21
-1.69289
0
LINE
8
BLACK
6
CONTINUOUS
10
2.14234
20
-1.69289
11
2.14239
21
-1.69346
0
LINE
8
BLACK
6
CONTINUOUS
10
2.14239
20
-1.69346
11
2.14233
21
-1.69403
0
LINE
8
BLACK
6
CONTINUOUS
10
2.14233
20
-1.69403
11
2.14216
21
-1.69458
0
LINE
8
BLACK
6
CONTINUOUS
10
2.14216
20
-1.69458
11
2.14189
21
-1.69509
0
LINE
8
BLACK
6
CONTINUOUS
10
2.14189
20
-1.69509
11
2.14152
21
-1.69554
0
LINE
8
BLACK
6
CONTINUOUS
10
2.14152
20
-1.69554
11
2.14107
21
-1.6959
0
LINE
8
BLACK
6
CONTINUOUS
10
2.14107
20
-1.6959
11
2.14056
21
-1.69617
0
LINE
8
BLACK
6
CONTINUOUS
10
2.14056
20
-1.69617
11
2.14001
21
-1.69634
0
LINE
8
BLACK
6
CONTINUOUS
10
2.14001
20
-1.69634
11
2.13944
21
-1.69639
0
LINE
8
BLACK
6
CONTINUOUS
10
2.13944
20
-1.69639
11
2.12157
21
-1.69639
0
LINE
8
BLACK
6
CONTINUOUS
10
2.12157
20
-1.69639
11
2.13041
21
-1.70649
0
LINE
8
BLACK
6
CONTINUOUS
10
2.13041
20
-1.70649
11
2.13044
21
-1.70653
0
LINE
8
BLACK
6
CONTINUOUS
10
2.13044
20
-1.70653
11
2.13054
21
-1.70668
0
LINE
8
BLACK
6
CONTINUOUS
10
2.13054
20
-1.70668
11
2.13066
21
-1.70682
0
LINE
8
BLACK
6
CONTINUOUS
10
2.13066
20
-1.70682
11
2.13071
21
-1.70691
0
LINE
8
BLACK
6
CONTINUOUS
10
2.13071
20
-1.70691
11
2.13077
21
-1.707
0
LINE
8
BLACK
6
CONTINUOUS
10
2.13077
20
-1.707
11
2.13084
21
-1.70717
0
LINE
8
BLACK
6
CONTINUOUS
10
2.13084
20
-1.70717
11
2.13093
21
-1.70733
0
LINE
8
BLACK
6
CONTINUOUS
10
2.13093
20
-1.70733
11
2.13096
21
-1.70743
0
LINE
8
BLACK
6
CONTINUOUS
10
2.13096
20
-1.70743
11
2.131
21
-1.70753
0
LINE
8
BLACK
6
CONTINUOUS
10
2.131
20
-1.70753
11
2.13104
21
-1.70771
0
LINE
8
BLACK
6
CONTINUOUS
10
2.13104
20
-1.70771
11
2.13109
21
-1.70788
0
LINE
8
BLACK
6
CONTINUOUS
10
2.13109
20
-1.70788
11
2.1311
21
-1.70799
0
LINE
8
BLACK
6
CONTINUOUS
10
2.1311
20
-1.70799
11
2.13112
21
-1.70809
0
LINE
8
BLACK
6
CONTINUOUS
10
2.13112
20
-1.70809
11
2.13113
21
-1.70827
0
LINE
8
BLACK
6
CONTINUOUS
10
2.13113
20
-1.70827
11
2.13114
21
-1.70846
0
LINE
8
BLACK
6
CONTINUOUS
10
2.13114
20
-1.70846
11
2.13113
21
-1.70856
0
LINE
8
BLACK
6
CONTINUOUS
10
2.13113
20
-1.70856
11
2.13113
21
-1.70867
0
LINE
8
BLACK
6
CONTINUOUS
10
2.13113
20
-1.70867
11
2.1311
21
-1.70885
0
LINE
8
BLACK
6
CONTINUOUS
10
2.1311
20
-1.70885
11
2.13108
21
-1.70903
0
LINE
8
BLACK
6
CONTINUOUS
10
2.13108
20
-1.70903
11
2.13105
21
-1.70913
0
LINE
8
BLACK
6
CONTINUOUS
10
2.13105
20
-1.70913
11
2.13103
21
-1.70923
0
LINE
8
BLACK
6
CONTINUOUS
10
2.13103
20
-1.70923
11
2.13097
21
-1.70941
0
LINE
8
BLACK
6
CONTINUOUS
10
2.13097
20
-1.70941
11
2.13091
21
-1.70958
0
LINE
8
BLACK
6
CONTINUOUS
10
2.13091
20
-1.70958
11
2.13086
21
-1.70967
0
LINE
8
BLACK
6
CONTINUOUS
10
2.13086
20
-1.70967
11
2.13082
21
-1.70977
0
LINE
8
BLACK
6
CONTINUOUS
10
2.13082
20
-1.70977
11
2.13073
21
-1.70993
0
LINE
8
BLACK
6
CONTINUOUS
10
2.13073
20
-1.70993
11
2.13064
21
-1.71009
0
LINE
8
BLACK
6
CONTINUOUS
10
2.13064
20
-1.71009
11
2.13057
21
-1.71017
0
LINE
8
BLACK
6
CONTINUOUS
10
2.13057
20
-1.71017
11
2.13052
21
-1.71026
0
LINE
8
BLACK
6
CONTINUOUS
10
2.13052
20
-1.71026
11
2.13039
21
-1.71039
0
LINE
8
BLACK
6
CONTINUOUS
10
2.13039
20
-1.71039
11
2.13027
21
-1.71053
0
LINE
8
BLACK
6
CONTINUOUS
10
2.13027
20
-1.71053
11
2.13019
21
-1.7106
0
LINE
8
BLACK
6
CONTINUOUS
10
2.13019
20
-1.7106
11
2.13012
21
-1.71067
0
LINE
8
BLACK
6
CONTINUOUS
10
2.13012
20
-1.71067
11
2.12997
21
-1.71078
0
LINE
8
BLACK
6
CONTINUOUS
10
2.12997
20
-1.71078
11
2.12982
21
-1.7109
0
LINE
8
BLACK
6
CONTINUOUS
10
2.12982
20
-1.7109
11
2.12973
21
-1.71095
0
LINE
8
BLACK
6
CONTINUOUS
10
2.12973
20
-1.71095
11
2.12965
21
-1.71101
0
LINE
8
BLACK
6
CONTINUOUS
10
2.12965
20
-1.71101
11
2.12948
21
-1.71108
0
LINE
8
BLACK
6
CONTINUOUS
10
2.12948
20
-1.71108
11
2.12931
21
-1.71117
0
LINE
8
BLACK
6
CONTINUOUS
10
2.12931
20
-1.71117
11
2.12922
21
-1.7112
0
LINE
8
BLACK
6
CONTINUOUS
10
2.12922
20
-1.7112
11
2.12912
21
-1.71124
0
LINE
8
BLACK
6
CONTINUOUS
10
2.12912
20
-1.71124
11
2.12894
21
-1.71128
0
LINE
8
BLACK
6
CONTINUOUS
10
2.12894
20
-1.71128
11
2.12876
21
-1.71133
0
LINE
8
BLACK
6
CONTINUOUS
10
2.12876
20
-1.71133
11
2.12866
21
-1.71134
0
LINE
8
BLACK
6
CONTINUOUS
10
2.12866
20
-1.71134
11
2.12856
21
-1.71137
0
LINE
8
BLACK
6
CONTINUOUS
10
2.12856
20
-1.71137
11
2.12837
21
-1.71137
0
LINE
8
BLACK
6
CONTINUOUS
10
2.12837
20
-1.71137
11
2.12819
21
-1.71139
0
LINE
8
BLACK
6
CONTINUOUS
10
2.12819
20
-1.71139
11
2.12326
21
-1.71139
0
LINE
8
BLACK
6
CONTINUOUS
10
2.12326
20
-1.71139
11
2.12056
21
-1.71274
0
LINE
8
BLACK
6
CONTINUOUS
10
2.12056
20
-1.71274
11
2.11937
21
-1.71394
0
LINE
8
BLACK
6
CONTINUOUS
10
2.11937
20
-1.71394
11
2.11802
21
-1.71663
0
LINE
8
BLACK
6
CONTINUOUS
10
2.11802
20
-1.71663
11
2.11802
21
-1.72461
0
LINE
8
BLACK
6
CONTINUOUS
10
2.11802
20
-1.72461
11
2.11937
21
-1.72731
0
LINE
8
BLACK
6
CONTINUOUS
10
2.11937
20
-1.72731
11
2.12056
21
-1.72851
0
LINE
8
BLACK
6
CONTINUOUS
10
2.12056
20
-1.72851
11
2.12326
21
-1.72986
0
LINE
8
BLACK
6
CONTINUOUS
10
2.12326
20
-1.72986
11
2.13312
21
-1.72986
0
LINE
8
BLACK
6
CONTINUOUS
10
2.13312
20
-1.72986
11
2.13581
21
-1.72851
0
LINE
8
BLACK
6
CONTINUOUS
10
2.13581
20
-1.72851
11
2.13735
21
-1.72697
0
LINE
8
BLACK
6
CONTINUOUS
10
2.13735
20
-1.72697
11
2.13738
21
-1.72694
0
LINE
8
BLACK
6
CONTINUOUS
10
2.13738
20
-1.72694
11
2.13783
21
-1.72658
0
LINE
8
BLACK
6
CONTINUOUS
10
2.13783
20
-1.72658
11
2.13834
21
-1.72632
0
LINE
8
BLACK
6
CONTINUOUS
10
2.13834
20
-1.72632
11
2.1389
21
-1.72616
0
LINE
8
BLACK
6
CONTINUOUS
10
2.1389
20
-1.72616
11
2.13947
21
-1.72611
0
LINE
8
BLACK
6
CONTINUOUS
10
2.13947
20
-1.72611
11
2.14004
21
-1.72617
0
LINE
8
BLACK
6
CONTINUOUS
10
2.14004
20
-1.72617
11
2.14059
21
-1.72634
0
LINE
8
BLACK
6
CONTINUOUS
10
2.14059
20
-1.72634
11
2.1411
21
-1.72662
0
LINE
8
BLACK
6
CONTINUOUS
10
2.1411
20
-1.72662
11
2.14154
21
-1.72699
0
LINE
8
BLACK
6
CONTINUOUS
10
2.14154
20
-1.72699
11
2.1419
21
-1.72744
0
LINE
8
BLACK
6
CONTINUOUS
10
2.1419
20
-1.72744
11
2.14217
21
-1.72795
0
LINE
8
BLACK
6
CONTINUOUS
10
2.14217
20
-1.72795
11
2.14234
21
-1.7285
0
LINE
8
BLACK
6
CONTINUOUS
10
2.14234
20
-1.7285
11
2.14239
21
-1.72907
0
LINE
8
BLACK
6
CONTINUOUS
10
2.14239
20
-1.72907
11
2.14233
21
-1.72964
0
LINE
8
BLACK
6
CONTINUOUS
10
2.14233
20
-1.72964
11
2.14216
21
-1.7302
0
LINE
8
BLACK
6
CONTINUOUS
10
2.14216
20
-1.7302
11
2.14189
21
-1.7307
0
LINE
8
BLACK
6
CONTINUOUS
10
2.14189
20
-1.7307
11
2.14153
21
-1.73115
0
LINE
8
BLACK
6
CONTINUOUS
10
2.14153
20
-1.73115
11
2.13965
21
-1.73302
0
LINE
8
BLACK
6
CONTINUOUS
10
2.13965
20
-1.73302
11
2.13962
21
-1.73305
0
LINE
8
BLACK
6
CONTINUOUS
10
2.13962
20
-1.73305
11
2.13949
21
-1.73316
0
LINE
8
BLACK
6
CONTINUOUS
10
2.13949
20
-1.73316
11
2.13937
21
-1.73327
0
LINE
8
BLACK
6
CONTINUOUS
10
2.13937
20
-1.73327
11
2.13927
21
-1.73334
0
LINE
8
BLACK
6
CONTINUOUS
10
2.13927
20
-1.73334
11
2.13917
21
-1.73341
0
LINE
8
BLACK
6
CONTINUOUS
10
2.13917
20
-1.73341
11
2.13902
21
-1.73349
0
LINE
8
BLACK
6
CONTINUOUS
10
2.13902
20
-1.73349
11
2.13888
21
-1.73358
0
LINE
8
BLACK
6
CONTINUOUS
10
2.13888
20
-1.73358
11
2.13513
21
-1.73545
0
LINE
8
BLACK
6
CONTINUOUS
10
2.13513
20
-1.73545
11
2.1351
21
-1.73547
0
LINE
8
BLACK
6
CONTINUOUS
10
2.1351
20
-1.73547
11
2.13502
21
-1.7355
0
LINE
8
BLACK
6
CONTINUOUS
10
2.13502
20
-1.7355
11
2.13494
21
-1.73554
0
LINE
8
BLACK
6
CONTINUOUS
10
2.13494
20
-1.73554
11
2.13475
21
-1.7356
0
LINE
8
BLACK
6
CONTINUOUS
10
2.13475
20
-1.7356
11
2.13456
21
-1.73567
0
LINE
8
BLACK
6
CONTINUOUS
10
2.13456
20
-1.73567
11
2.13447
21
-1.73568
0
LINE
8
BLACK
6
CONTINUOUS
10
2.13447
20
-1.73568
11
2.13439
21
-1.73571
0
LINE
8
BLACK
6
CONTINUOUS
10
2.13439
20
-1.73571
11
2.13419
21
-1.73573
0
LINE
8
BLACK
6
CONTINUOUS
10
2.13419
20
-1.73573
11
2.13399
21
-1.73576
0
LINE
8
BLACK
6
CONTINUOUS
10
2.13399
20
-1.73576
11
2.1339
21
-1.73575
0
LINE
8
BLACK
6
CONTINUOUS
10
2.1339
20
-1.73575
11
2.13381
21
-1.73576
0
LINE
8
BLACK
6
CONTINUOUS
10
2.13381
20
-1.73576
11
2.12257
21
-1.73576
0
LINE
8
BLACK
6
CONTINUOUS
10
2.12257
20
-1.73576
11
2.12252
21
-1.73576
0
LINE
8
BLACK
6
CONTINUOUS
10
2.12252
20
-1.73576
11
2.12244
21
-1.73575
0
LINE
8
BLACK
6
CONTINUOUS
10
2.12244
20
-1.73575
11
2.12235
21
-1.73576
0
LINE
8
BLACK
6
CONTINUOUS
10
2.12235
20
-1.73576
11
2.12215
21
-1.73572
0
LINE
8
BLACK
6
CONTINUOUS
10
2.12215
20
-1.73572
11
2.12195
21
-1.7357
0
LINE
8
BLACK
6
CONTINUOUS
10
2.12195
20
-1.7357
11
2.12187
21
-1.73567
0
LINE
8
BLACK
6
CONTINUOUS
10
2.12187
20
-1.73567
11
2.12178
21
-1.73566
0
LINE
8
BLACK
6
CONTINUOUS
10
2.12178
20
-1.73566
11
2.12159
21
-1.73559
0
LINE
8
BLACK
6
CONTINUOUS
10
2.12159
20
-1.73559
11
2.1214
21
-1.73552
0
LINE
8
BLACK
6
CONTINUOUS
10
2.1214
20
-1.73552
11
2.12133
21
-1.73548
0
LINE
8
BLACK
6
CONTINUOUS
10
2.12133
20
-1.73548
11
2.12124
21
-1.73545
0
LINE
8
BLACK
6
CONTINUOUS
10
2.12124
20
-1.73545
11
2.1175
21
-1.73358
0
LINE
8
BLACK
6
CONTINUOUS
10
2.1175
20
-1.73358
11
2.11746
21
-1.73356
0
LINE
8
BLACK
6
CONTINUOUS
10
2.11746
20
-1.73356
11
2.11732
21
-1.73347
0
LINE
8
BLACK
6
CONTINUOUS
10
2.11732
20
-1.73347
11
2.11717
21
-1.73339
0
LINE
8
BLACK
6
CONTINUOUS
10
2.11717
20
-1.73339
11
2.11708
21
-1.73331
0
LINE
8
BLACK
6
CONTINUOUS
10
2.11708
20
-1.73331
11
2.11698
21
-1.73324
0
LINE
8
BLACK
6
CONTINUOUS
10
2.11698
20
-1.73324
11
2.11686
21
-1.73313
0
LINE
8
BLACK
6
CONTINUOUS
10
2.11686
20
-1.73313
11
2.11673
21
-1.73302
0
LINE
8
BLACK
6
CONTINUOUS
10
2.11673
20
-1.73302
11
2.11485
21
-1.73115
0
LINE
8
BLACK
6
CONTINUOUS
10
2.11485
20
-1.73115
11
2.11482
21
-1.73112
0
LINE
8
BLACK
6
CONTINUOUS
10
2.11482
20
-1.73112
11
2.11472
21
-1.73099
0
LINE
8
BLACK
6
CONTINUOUS
10
2.11472
20
-1.73099
11
2.11461
21
-1.73087
0
LINE
8
BLACK
6
CONTINUOUS
10
2.11461
20
-1.73087
11
2.11454
21
-1.73076
0
LINE
8
BLACK
6
CONTINUOUS
10
2.11454
20
-1.73076
11
2.11446
21
-1.73067
0
LINE
8
BLACK
6
CONTINUOUS
10
2.11446
20
-1.73067
11
2.11439
21
-1.73052
0
LINE
8
BLACK
6
CONTINUOUS
10
2.11439
20
-1.73052
11
2.1143
21
-1.73038
0
LINE
8
BLACK
6
CONTINUOUS
10
2.1143
20
-1.73038
11
2.11243
21
-1.72663
0
LINE
8
BLACK
6
CONTINUOUS
10
2.11243
20
-1.72663
11
2.11241
21
-1.72659
0
LINE
8
BLACK
6
CONTINUOUS
10
2.11241
20
-1.72659
11
2.11238
21
-1.72651
0
LINE
8
BLACK
6
CONTINUOUS
10
2.11238
20
-1.72651
11
2.11234
21
-1.72644
0
LINE
8
BLACK
6
CONTINUOUS
10
2.11234
20
-1.72644
11
2.11228
21
-1.72624
0
LINE
8
BLACK
6
CONTINUOUS
10
2.11228
20
-1.72624
11
2.11221
21
-1.72605
0
LINE
8
BLACK
6
CONTINUOUS
10
2.11221
20
-1.72605
11
2.11219
21
-1.72597
0
LINE
8
BLACK
6
CONTINUOUS
10
2.11219
20
-1.72597
11
2.11217
21
-1.72588
0
LINE
8
BLACK
6
CONTINUOUS
10
2.11217
20
-1.72588
11
2.11215
21
-1.72568
0
LINE
8
BLACK
6
CONTINUOUS
10
2.11215
20
-1.72568
11
2.11212
21
-1.72548
0
LINE
8
BLACK
6
CONTINUOUS
10
2.11212
20
-1.72548
11
2.11212
21
-1.7254
0
LINE
8
BLACK
6
CONTINUOUS
10
2.11212
20
-1.7254
11
2.11211
21
-1.72531
0
LINE
8
BLACK
6
CONTINUOUS
10
2.11211
20
-1.72531
11
2.11211
21
-1.71594
0
LINE
8
BLACK
6
CONTINUOUS
10
2.11211
20
-1.71594
11
2.11211
21
-1.7159
0
LINE
8
BLACK
6
CONTINUOUS
10
2.11211
20
-1.7159
11
2.11212
21
-1.71581
0
LINE
8
BLACK
6
CONTINUOUS
10
2.11212
20
-1.71581
11
2.11212
21
-1.71572
0
LINE
8
BLACK
6
CONTINUOUS
10
2.11212
20
-1.71572
11
2.11216
21
-1.71552
0
LINE
8
BLACK
6
CONTINUOUS
10
2.11216
20
-1.71552
11
2.11218
21
-1.71532
0
LINE
8
BLACK
6
CONTINUOUS
10
2.11218
20
-1.71532
11
2.1122
21
-1.71524
0
LINE
8
BLACK
6
CONTINUOUS
10
2.1122
20
-1.71524
11
2.11222
21
-1.71515
0
LINE
8
BLACK
6
CONTINUOUS
10
2.11222
20
-1.71515
11
2.11229
21
-1.71497
0
LINE
8
BLACK
6
CONTINUOUS
10
2.11229
20
-1.71497
11
2.11235
21
-1.71477
0
LINE
8
BLACK
6
CONTINUOUS
10
2.11235
20
-1.71477
11
2.11239
21
-1.7147
0
LINE
8
BLACK
6
CONTINUOUS
10
2.11239
20
-1.7147
11
2.11243
21
-1.71462
0
LINE
8
BLACK
6
CONTINUOUS
10
2.11243
20
-1.71462
11
2.1143
21
-1.71087
0
LINE
8
BLACK
6
CONTINUOUS
10
2.1143
20
-1.71087
11
2.11432
21
-1.71083
0
LINE
8
BLACK
6
CONTINUOUS
10
2.11432
20
-1.71083
11
2.11441
21
-1.71069
0
LINE
8
BLACK
6
CONTINUOUS
10
2.11441
20
-1.71069
11
2.11449
21
-1.71055
0
LINE
8
BLACK
6
CONTINUOUS
10
2.11449
20
-1.71055
11
2.11457
21
-1.71045
0
LINE
8
BLACK
6
CONTINUOUS
10
2.11457
20
-1.71045
11
2.11463
21
-1.71035
0
LINE
8
BLACK
6
CONTINUOUS
10
2.11463
20
-1.71035
11
2.11475
21
-1.71023
0
LINE
8
BLACK
6
CONTINUOUS
10
2.11475
20
-1.71023
11
2.11485
21
-1.7101
0
LINE
8
BLACK
6
CONTINUOUS
10
2.11485
20
-1.7101
11
2.11673
21
-1.70823
0
LINE
8
BLACK
6
CONTINUOUS
10
2.11673
20
-1.70823
11
2.11676
21
-1.7082
0
LINE
8
BLACK
6
CONTINUOUS
10
2.11676
20
-1.7082
11
2.11689
21
-1.70809
0
LINE
8
BLACK
6
CONTINUOUS
10
2.11689
20
-1.70809
11
2.11701
21
-1.70798
0
LINE
8
BLACK
6
CONTINUOUS
10
2.11701
20
-1.70798
11
2.11711
21
-1.70791
0
LINE
8
BLACK
6
CONTINUOUS
10
2.11711
20
-1.70791
11
2.11721
21
-1.70784
0
LINE
8
BLACK
6
CONTINUOUS
10
2.11721
20
-1.70784
11
2.11735
21
-1.70776
0
LINE
8
BLACK
6
CONTINUOUS
10
2.11735
20
-1.70776
11
2.1175
21
-1.70767
0
LINE
8
BLACK
6
CONTINUOUS
10
2.1175
20
-1.70767
11
2.12124
21
-1.7058
0
LINE
8
BLACK
6
CONTINUOUS
10
2.12124
20
-1.7058
11
2.12128
21
-1.70578
0
LINE
8
BLACK
6
CONTINUOUS
10
2.12128
20
-1.70578
11
2.12136
21
-1.70575
0
LINE
8
BLACK
6
CONTINUOUS
10
2.12136
20
-1.70575
11
2.12144
21
-1.70571
0
LINE
8
BLACK
6
CONTINUOUS
10
2.12144
20
-1.70571
11
2.12163
21
-1.70565
0
LINE
8
BLACK
6
CONTINUOUS
10
2.12163
20
-1.70565
11
2.12178
21
-1.7056
0
LINE
8
BLACK
6
CONTINUOUS
10
2.12178
20
-1.7056
11
2.11284
21
-1.69538
0
LINE
8
BLACK
6
CONTINUOUS
10
2.11284
20
-1.69538
11
2.11282
21
-1.69535
0
LINE
8
BLACK
6
CONTINUOUS
10
2.11282
20
-1.69535
11
2.11271
21
-1.6952
0
LINE
8
BLACK
6
CONTINUOUS
10
2.11271
20
-1.6952
11
2.1126
21
-1.69506
0
LINE
8
BLACK
6
CONTINUOUS
10
2.1126
20
-1.69506
11
2.11255
21
-1.69497
0
LINE
8
BLACK
6
CONTINUOUS
10
2.11255
20
-1.69497
11
2.11249
21
-1.69488
0
LINE
8
BLACK
6
CONTINUOUS
10
2.11249
20
-1.69488
11
2.11241
21
-1.69471
0
LINE
8
BLACK
6
CONTINUOUS
10
2.11241
20
-1.69471
11
2.11233
21
-1.69455
0
LINE
8
BLACK
6
CONTINUOUS
10
2.11233
20
-1.69455
11
2.1123
21
-1.69445
0
LINE
8
BLACK
6
CONTINUOUS
10
2.1123
20
-1.69445
11
2.11226
21
-1.69435
0
LINE
8
BLACK
6
CONTINUOUS
10
2.11226
20
-1.69435
11
2.11222
21
-1.69417
0
LINE
8
BLACK
6
CONTINUOUS
10
2.11222
20
-1.69417
11
2.11217
21
-1.69399
0
LINE
8
BLACK
6
CONTINUOUS
10
2.11217
20
-1.69399
11
2.11216
21
-1.69389
0
LINE
8
BLACK
6
CONTINUOUS
10
2.11216
20
-1.69389
11
2.11213
21
-1.69379
0
LINE
8
BLACK
6
CONTINUOUS
10
2.11213
20
-1.69379
11
2.11213
21
-1.6936
0
LINE
8
BLACK
6
CONTINUOUS
10
2.11213
20
-1.6936
11
2.11211
21
-1.69342
0
LINE
8
BLACK
6
CONTINUOUS
10
2.11211
20
-1.69342
11
2.11212
21
-1.69332
0
LINE
8
BLACK
6
CONTINUOUS
10
2.11212
20
-1.69332
11
2.11212
21
-1.69321
0
LINE
8
BLACK
6
CONTINUOUS
10
2.11212
20
-1.69321
11
2.11215
21
-1.69303
0
LINE
8
BLACK
6
CONTINUOUS
10
2.11215
20
-1.69303
11
2.11217
21
-1.69285
0
LINE
8
BLACK
6
CONTINUOUS
10
2.11217
20
-1.69285
11
2.1122
21
-1.69275
0
LINE
8
BLACK
6
CONTINUOUS
10
2.1122
20
-1.69275
11
2.11222
21
-1.69265
0
LINE
8
BLACK
6
CONTINUOUS
10
2.11222
20
-1.69265
11
2.11229
21
-1.69247
0
LINE
8
BLACK
6
CONTINUOUS
10
2.11229
20
-1.69247
11
2.11234
21
-1.6923
0
LINE
8
BLACK
6
CONTINUOUS
10
2.11234
20
-1.6923
11
2.11239
21
-1.6922
0
LINE
8
BLACK
6
CONTINUOUS
10
2.11239
20
-1.6922
11
2.11243
21
-1.69211
0
LINE
8
BLACK
6
CONTINUOUS
10
2.11243
20
-1.69211
11
2.11253
21
-1.69195
0
LINE
8
BLACK
6
CONTINUOUS
10
2.11253
20
-1.69195
11
2.11262
21
-1.69179
0
LINE
8
BLACK
6
CONTINUOUS
10
2.11262
20
-1.69179
11
2.11268
21
-1.69171
0
LINE
8
BLACK
6
CONTINUOUS
10
2.11268
20
-1.69171
11
2.11274
21
-1.69162
0
LINE
8
BLACK
6
CONTINUOUS
10
2.11274
20
-1.69162
11
2.11287
21
-1.69149
0
LINE
8
BLACK
6
CONTINUOUS
10
2.11287
20
-1.69149
11
2.11299
21
-1.69134
0
LINE
8
BLACK
6
CONTINUOUS
10
2.11299
20
-1.69134
11
2.11307
21
-1.69128
0
LINE
8
BLACK
6
CONTINUOUS
10
2.11307
20
-1.69128
11
2.11314
21
-1.6912
0
LINE
8
BLACK
6
CONTINUOUS
10
2.11314
20
-1.6912
11
2.11329
21
-1.6911
0
LINE
8
BLACK
6
CONTINUOUS
10
2.11329
20
-1.6911
11
2.11343
21
-1.69098
0
LINE
8
BLACK
6
CONTINUOUS
10
2.11343
20
-1.69098
11
2.11352
21
-1.69093
0
LINE
8
BLACK
6
CONTINUOUS
10
2.11352
20
-1.69093
11
2.11361
21
-1.69087
0
LINE
8
BLACK
6
CONTINUOUS
10
2.11361
20
-1.69087
11
2.11378
21
-1.6908
0
LINE
8
BLACK
6
CONTINUOUS
10
2.11378
20
-1.6908
11
2.11394
21
-1.69071
0
LINE
8
BLACK
6
CONTINUOUS
10
2.11394
20
-1.69071
11
2.11404
21
-1.69068
0
LINE
8
BLACK
6
CONTINUOUS
10
2.11404
20
-1.69068
11
2.11414
21
-1.69064
0
LINE
8
BLACK
6
CONTINUOUS
10
2.11414
20
-1.69064
11
2.11432
21
-1.6906
0
LINE
8
BLACK
6
CONTINUOUS
10
2.11432
20
-1.6906
11
2.11449
21
-1.69054
0
LINE
8
BLACK
6
CONTINUOUS
10
2.11449
20
-1.69054
11
2.1146
21
-1.69053
0
LINE
8
BLACK
6
CONTINUOUS
10
2.1146
20
-1.69053
11
2.1147
21
-1.69051
0
LINE
8
BLACK
6
CONTINUOUS
10
2.1147
20
-1.69051
11
2.11488
21
-1.69051
0
LINE
8
BLACK
6
CONTINUOUS
10
2.11488
20
-1.69051
11
2.11507
21
-1.69049
0
LINE
8
BLACK
6
CONTINUOUS
10
2.11507
20
-1.69049
11
2.13944
21
-1.69049
0
LINE
8
BLACK
6
CONTINUOUS
10
2.13944
20
-1.69049
11
2.13948
21
-1.69049
0
LINE
8
BLACK
6
CONTINUOUS
10
2.17508
20
-1.69049
11
2.17508
21
-1.69049
0
LINE
8
BLACK
6
CONTINUOUS
10
2.17508
20
-1.69049
11
2.17508
21
-1.69049
0
LINE
8
BLACK
6
CONTINUOUS
10
2.17508
20
-1.69049
11
2.1751
21
-1.69049
0
LINE
8
BLACK
6
CONTINUOUS
10
2.1751
20
-1.69049
11
2.17538
21
-1.69052
0
LINE
8
BLACK
6
CONTINUOUS
10
2.17538
20
-1.69052
11
2.17565
21
-1.69055
0
LINE
8
BLACK
6
CONTINUOUS
10
2.17565
20
-1.69055
11
2.17566
21
-1.69055
0
LINE
8
BLACK
6
CONTINUOUS
10
2.17566
20
-1.69055
11
2.17567
21
-1.69055
0
LINE
8
BLACK
6
CONTINUOUS
10
2.17567
20
-1.69055
11
2.17594
21
-1.69064
0
LINE
8
BLACK
6
CONTINUOUS
10
2.17594
20
-1.69064
11
2.1762
21
-1.69072
0
LINE
8
BLACK
6
CONTINUOUS
10
2.1762
20
-1.69072
11
2.17621
21
-1.69072
0
LINE
8
BLACK
6
CONTINUOUS
10
2.17621
20
-1.69072
11
2.17622
21
-1.69073
0
LINE
8
BLACK
6
CONTINUOUS
10
2.17622
20
-1.69073
11
2.17647
21
-1.69086
0
LINE
8
BLACK
6
CONTINUOUS
10
2.17647
20
-1.69086
11
2.17671
21
-1.69099
0
LINE
8
BLACK
6
CONTINUOUS
10
2.17671
20
-1.69099
11
2.17672
21
-1.691
0
LINE
8
BLACK
6
CONTINUOUS
10
2.17672
20
-1.691
11
2.17673
21
-1.691
0
LINE
8
BLACK
6
CONTINUOUS
10
2.17673
20
-1.691
11
2.17694
21
-1.69118
0
LINE
8
BLACK
6
CONTINUOUS
10
2.17694
20
-1.69118
11
2.17715
21
-1.69136
0
LINE
8
BLACK
6
CONTINUOUS
10
2.17715
20
-1.69136
11
2.17716
21
-1.69137
0
LINE
8
BLACK
6
CONTINUOUS
10
2.17716
20
-1.69137
11
2.17717
21
-1.69137
0
LINE
8
BLACK
6
CONTINUOUS
10
2.17717
20
-1.69137
11
2.17734
21
-1.69159
0
LINE
8
BLACK
6
CONTINUOUS
10
2.17734
20
-1.69159
11
2.17752
21
-1.69181
0
LINE
8
BLACK
6
CONTINUOUS
10
2.17752
20
-1.69181
11
2.17752
21
-1.69182
0
LINE
8
BLACK
6
CONTINUOUS
10
2.17752
20
-1.69182
11
2.17753
21
-1.69182
0
LINE
8
BLACK
6
CONTINUOUS
10
2.17753
20
-1.69182
11
2.17766
21
-1.69207
0
LINE
8
BLACK
6
CONTINUOUS
10
2.17766
20
-1.69207
11
2.17779
21
-1.69231
0
LINE
8
BLACK
6
CONTINUOUS
10
2.17779
20
-1.69231
11
2.17779
21
-1.69232
0
LINE
8
BLACK
6
CONTINUOUS
10
2.17779
20
-1.69232
11
2.1778
21
-1.69233
0
LINE
8
BLACK
6
CONTINUOUS
10
2.1778
20
-1.69233
11
2.17788
21
-1.6926
0
LINE
8
BLACK
6
CONTINUOUS
10
2.17788
20
-1.6926
11
2.17796
21
-1.69287
0
LINE
8
BLACK
6
CONTINUOUS
10
2.17796
20
-1.69287
11
2.17796
21
-1.69288
0
LINE
8
BLACK
6
CONTINUOUS
10
2.17796
20
-1.69288
11
2.17796
21
-1.69289
0
LINE
8
BLACK
6
CONTINUOUS
10
2.17796
20
-1.69289
11
2.17798
21
-1.69316
0
LINE
8
BLACK
6
CONTINUOUS
10
2.17798
20
-1.69316
11
2.17801
21
-1.69344
0
LINE
8
BLACK
6
CONTINUOUS
10
2.17801
20
-1.69344
11
2.17801
21
-1.73281
0
LINE
8
BLACK
6
CONTINUOUS
10
2.17801
20
-1.73281
11
2.17801
21
-1.73285
0
LINE
8
BLACK
6
CONTINUOUS
10
2.17801
20
-1.73285
11
2.17795
21
-1.73342
0
LINE
8
BLACK
6
CONTINUOUS
10
2.17795
20
-1.73342
11
2.17777
21
-1.73397
0
LINE
8
BLACK
6
CONTINUOUS
10
2.17777
20
-1.73397
11
2.1775
21
-1.73448
0
LINE
8
BLACK
6
CONTINUOUS
10
2.1775
20
-1.73448
11
2.17712
21
-1.73492
0
LINE
8
BLACK
6
CONTINUOUS
10
2.17712
20
-1.73492
11
2.17668
21
-1.73528
0
LINE
8
BLACK
6
CONTINUOUS
10
2.17668
20
-1.73528
11
2.17616
21
-1.73555
0
LINE
8
BLACK
6
CONTINUOUS
10
2.17616
20
-1.73555
11
2.17561
21
-1.73571
0
LINE
8
BLACK
6
CONTINUOUS
10
2.17561
20
-1.73571
11
2.17504
21
-1.73576
0
LINE
8
BLACK
6
CONTINUOUS
10
2.17504
20
-1.73576
11
2.17447
21
-1.7357
0
LINE
8
BLACK
6
CONTINUOUS
10
2.17447
20
-1.7357
11
2.17391
21
-1.73553
0
LINE
8
BLACK
6
CONTINUOUS
10
2.17391
20
-1.73553
11
2.17341
21
-1.73526
0
LINE
8
BLACK
6
CONTINUOUS
10
2.17341
20
-1.73526
11
2.17296
21
-1.73489
0
LINE
8
BLACK
6
CONTINUOUS
10
2.17296
20
-1.73489
11
2.1726
21
-1.73444
0
LINE
8
BLACK
6
CONTINUOUS
10
2.1726
20
-1.73444
11
2.17233
21
-1.73394
0
LINE
8
BLACK
6
CONTINUOUS
10
2.17233
20
-1.73394
11
2.17216
21
-1.73338
0
LINE
8
BLACK
6
CONTINUOUS
10
2.17216
20
-1.73338
11
2.17211
21
-1.73281
0
LINE
8
BLACK
6
CONTINUOUS
10
2.17211
20
-1.73281
11
2.17211
21
-1.71702
0
LINE
8
BLACK
6
CONTINUOUS
10
2.17211
20
-1.71702
11
2.16722
21
-1.71702
0
LINE
8
BLACK
6
CONTINUOUS
10
2.16722
20
-1.71702
11
2.15498
21
-1.7345
0
LINE
8
BLACK
6
CONTINUOUS
10
2.15498
20
-1.7345
11
2.15496
21
-1.73454
0
LINE
8
BLACK
6
CONTINUOUS
10
2.15496
20
-1.73454
11
2.15458
21
-1.73497
0
LINE
8
BLACK
6
CONTINUOUS
10
2.15458
20
-1.73497
11
2.15412
21
-1.73532
0
LINE
8
BLACK
6
CONTINUOUS
10
2.15412
20
-1.73532
11
2.1536
21
-1.73557
0
LINE
8
BLACK
6
CONTINUOUS
10
2.1536
20
-1.73557
11
2.15304
21
-1.73572
0
LINE
8
BLACK
6
CONTINUOUS
10
2.15304
20
-1.73572
11
2.15247
21
-1.73576
0
LINE
8
BLACK
6
CONTINUOUS
10
2.15247
20
-1.73576
11
2.1519
21
-1.73569
0
LINE
8
BLACK
6
CONTINUOUS
10
2.1519
20
-1.73569
11
2.15135
21
-1.7355
0
LINE
8
BLACK
6
CONTINUOUS
10
2.15135
20
-1.7355
11
2.15085
21
-1.73522
0
LINE
8
BLACK
6
CONTINUOUS
10
2.15085
20
-1.73522
11
2.15042
21
-1.73484
0
LINE
8
BLACK
6
CONTINUOUS
10
2.15042
20
-1.73484
11
2.15006
21
-1.73438
0
LINE
8
BLACK
6
CONTINUOUS
10
2.15006
20
-1.73438
11
2.14981
21
-1.73387
0
LINE
8
BLACK
6
CONTINUOUS
10
2.14981
20
-1.73387
11
2.14965
21
-1.73331
0
LINE
8
BLACK
6
CONTINUOUS
10
2.14965
20
-1.73331
11
2.14961
21
-1.73274
0
LINE
8
BLACK
6
CONTINUOUS
10
2.14961
20
-1.73274
11
2.14968
21
-1.73217
0
LINE
8
BLACK
6
CONTINUOUS
10
2.14968
20
-1.73217
11
2.14986
21
-1.73162
0
LINE
8
BLACK
6
CONTINUOUS
10
2.14986
20
-1.73162
11
2.15014
21
-1.73112
0
LINE
8
BLACK
6
CONTINUOUS
10
2.15014
20
-1.73112
11
2.16001
21
-1.71701
0
LINE
8
BLACK
6
CONTINUOUS
10
2.16001
20
-1.71701
11
2.15993
21
-1.71701
0
LINE
8
BLACK
6
CONTINUOUS
10
2.15993
20
-1.71701
11
2.15985
21
-1.71701
0
LINE
8
BLACK
6
CONTINUOUS
10
2.15985
20
-1.71701
11
2.15965
21
-1.71697
0
LINE
8
BLACK
6
CONTINUOUS
10
2.15965
20
-1.71697
11
2.15945
21
-1.71695
0
LINE
8
BLACK
6
CONTINUOUS
10
2.15945
20
-1.71695
11
2.15936
21
-1.71692
0
LINE
8
BLACK
6
CONTINUOUS
10
2.15936
20
-1.71692
11
2.15928
21
-1.71691
0
LINE
8
BLACK
6
CONTINUOUS
10
2.15928
20
-1.71691
11
2.15909
21
-1.71684
0
LINE
8
BLACK
6
CONTINUOUS
10
2.15909
20
-1.71684
11
2.1589
21
-1.71678
0
LINE
8
BLACK
6
CONTINUOUS
10
2.1589
20
-1.71678
11
2.15882
21
-1.71673
0
LINE
8
BLACK
6
CONTINUOUS
10
2.15882
20
-1.71673
11
2.15874
21
-1.7167
0
LINE
8
BLACK
6
CONTINUOUS
10
2.15874
20
-1.7167
11
2.15499
21
-1.71483
0
LINE
8
BLACK
6
CONTINUOUS
10
2.15499
20
-1.71483
11
2.15495
21
-1.71481
0
LINE
8
BLACK
6
CONTINUOUS
10
2.15495
20
-1.71481
11
2.15481
21
-1.71472
0
LINE
8
BLACK
6
CONTINUOUS
10
2.15481
20
-1.71472
11
2.15467
21
-1.71464
0
LINE
8
BLACK
6
CONTINUOUS
10
2.15467
20
-1.71464
11
2.15457
21
-1.71456
0
LINE
8
BLACK
6
CONTINUOUS
10
2.15457
20
-1.71456
11
2.15447
21
-1.7145
0
LINE
8
BLACK
6
CONTINUOUS
10
2.15447
20
-1.7145
11
2.15435
21
-1.71438
0
LINE
8
BLACK
6
CONTINUOUS
10
2.15435
20
-1.71438
11
2.15422
21
-1.71428
0
LINE
8
BLACK
6
CONTINUOUS
10
2.15422
20
-1.71428
11
2.15235
21
-1.7124
0
LINE
8
BLACK
6
CONTINUOUS
10
2.15235
20
-1.7124
11
2.15232
21
-1.71237
0
LINE
8
BLACK
6
CONTINUOUS
10
2.15232
20
-1.71237
11
2.15222
21
-1.71224
0
LINE
8
BLACK
6
CONTINUOUS
10
2.15222
20
-1.71224
11
2.1521
21
-1.71212
0
LINE
8
BLACK
6
CONTINUOUS
10
2.1521
20
-1.71212
11
2.15204
21
-1.71202
0
LINE
8
BLACK
6
CONTINUOUS
10
2.15204
20
-1.71202
11
2.15196
21
-1.71192
0
LINE
8
BLACK
6
CONTINUOUS
10
2.15196
20
-1.71192
11
2.15188
21
-1.71177
0
LINE
8
BLACK
6
CONTINUOUS
10
2.15188
20
-1.71177
11
2.1518
21
-1.71163
0
LINE
8
BLACK
6
CONTINUOUS
10
2.1518
20
-1.71163
11
2.14992
21
-1.70788
0
LINE
8
BLACK
6
CONTINUOUS
10
2.14992
20
-1.70788
11
2.1499
21
-1.70785
0
LINE
8
BLACK
6
CONTINUOUS
10
2.1499
20
-1.70785
11
2.14987
21
-1.70777
0
LINE
8
BLACK
6
CONTINUOUS
10
2.14987
20
-1.70777
11
2.14983
21
-1.70769
0
LINE
8
BLACK
6
CONTINUOUS
10
2.14983
20
-1.70769
11
2.14977
21
-1.7075
0
LINE
8
BLACK
6
CONTINUOUS
10
2.14977
20
-1.7075
11
2.1497
21
-1.70731
0
LINE
8
BLACK
6
CONTINUOUS
10
2.1497
20
-1.70731
11
2.14969
21
-1.70722
0
LINE
8
BLACK
6
CONTINUOUS
10
2.14969
20
-1.70722
11
2.14967
21
-1.70714
0
LINE
8
BLACK
6
CONTINUOUS
10
2.14967
20
-1.70714
11
2.14965
21
-1.70694
0
LINE
8
BLACK
6
CONTINUOUS
10
2.14965
20
-1.70694
11
2.14961
21
-1.70674
0
LINE
8
BLACK
6
CONTINUOUS
10
2.14961
20
-1.70674
11
2.14962
21
-1.70665
0
LINE
8
BLACK
6
CONTINUOUS
10
2.14962
20
-1.70665
11
2.14961
21
-1.70656
0
LINE
8
BLACK
6
CONTINUOUS
10
2.14961
20
-1.70656
11
2.14961
21
-1.70094
0
LINE
8
BLACK
6
CONTINUOUS
10
2.14961
20
-1.70094
11
2.14961
21
-1.7009
0
LINE
8
BLACK
6
CONTINUOUS
10
2.14961
20
-1.7009
11
2.14962
21
-1.70081
0
LINE
8
BLACK
6
CONTINUOUS
10
2.14962
20
-1.70081
11
2.14962
21
-1.70072
0
LINE
8
BLACK
6
CONTINUOUS
10
2.14962
20
-1.70072
11
2.14965
21
-1.70053
0
LINE
8
BLACK
6
CONTINUOUS
10
2.14965
20
-1.70053
11
2.14967
21
-1.70033
0
LINE
8
BLACK
6
CONTINUOUS
10
2.14967
20
-1.70033
11
2.1497
21
-1.70024
0
LINE
8
BLACK
6
CONTINUOUS
10
2.1497
20
-1.70024
11
2.14971
21
-1.70016
0
LINE
8
BLACK
6
CONTINUOUS
10
2.14971
20
-1.70016
11
2.14979
21
-1.69997
0
LINE
8
BLACK
6
CONTINUOUS
10
2.14979
20
-1.69997
11
2.14985
21
-1.69978
0
LINE
8
BLACK
6
CONTINUOUS
10
2.14985
20
-1.69978
11
2.14989
21
-1.6997
0
LINE
8
BLACK
6
CONTINUOUS
10
2.14989
20
-1.6997
11
2.14992
21
-1.69962
0
LINE
8
BLACK
6
CONTINUOUS
10
2.14992
20
-1.69962
11
2.1518
21
-1.69587
0
LINE
8
BLACK
6
CONTINUOUS
10
2.1518
20
-1.69587
11
2.15181
21
-1.69583
0
LINE
8
BLACK
6
CONTINUOUS
10
2.15181
20
-1.69583
11
2.1519
21
-1.69569
0
LINE
8
BLACK
6
CONTINUOUS
10
2.1519
20
-1.69569
11
2.15198
21
-1.69555
0
LINE
8
BLACK
6
CONTINUOUS
10
2.15198
20
-1.69555
11
2.15206
21
-1.69545
0
LINE
8
BLACK
6
CONTINUOUS
10
2.15206
20
-1.69545
11
2.15213
21
-1.69535
0
LINE
8
BLACK
6
CONTINUOUS
10
2.15213
20
-1.69535
11
2.15224
21
-1.69523
0
LINE
8
BLACK
6
CONTINUOUS
10
2.15224
20
-1.69523
11
2.15235
21
-1.6951
0
LINE
8
BLACK
6
CONTINUOUS
10
2.15235
20
-1.6951
11
2.15422
21
-1.69323
0
LINE
8
BLACK
6
CONTINUOUS
10
2.15422
20
-1.69323
11
2.15425
21
-1.6932
0
LINE
8
BLACK
6
CONTINUOUS
10
2.15425
20
-1.6932
11
2.15438
21
-1.69309
0
LINE
8
BLACK
6
CONTINUOUS
10
2.15438
20
-1.69309
11
2.1545
21
-1.69298
0
LINE
8
BLACK
6
CONTINUOUS
10
2.1545
20
-1.69298
11
2.15461
21
-1.69292
0
LINE
8
BLACK
6
CONTINUOUS
10
2.15461
20
-1.69292
11
2.1547
21
-1.69284
0
LINE
8
BLACK
6
CONTINUOUS
10
2.1547
20
-1.69284
11
2.15485
21
-1.69276
0
LINE
8
BLACK
6
CONTINUOUS
10
2.15485
20
-1.69276
11
2.15499
21
-1.69267
0
LINE
8
BLACK
6
CONTINUOUS
10
2.15499
20
-1.69267
11
2.15874
21
-1.6908
0
LINE
8
BLACK
6
CONTINUOUS
10
2.15874
20
-1.6908
11
2.15878
21
-1.69078
0
LINE
8
BLACK
6
CONTINUOUS
10
2.15878
20
-1.69078
11
2.15886
21
-1.69075
0
LINE
8
BLACK
6
CONTINUOUS
10
2.15886
20
-1.69075
11
2.15894
21
-1.69071
0
LINE
8
BLACK
6
CONTINUOUS
10
2.15894
20
-1.69071
11
2.15913
21
-1.69065
0
LINE
8
BLACK
6
CONTINUOUS
10
2.15913
20
-1.69065
11
2.15932
21
-1.69058
0
LINE
8
BLACK
6
CONTINUOUS
10
2.15932
20
-1.69058
11
2.1594
21
-1.69057
0
LINE
8
BLACK
6
CONTINUOUS
10
2.1594
20
-1.69057
11
2.15949
21
-1.69054
0
LINE
8
BLACK
6
CONTINUOUS
10
2.15949
20
-1.69054
11
2.15969
21
-1.69052
0
LINE
8
BLACK
6
CONTINUOUS
10
2.15969
20
-1.69052
11
2.15989
21
-1.69049
0
LINE
8
BLACK
6
CONTINUOUS
10
2.15989
20
-1.69049
11
2.15997
21
-1.6905
0
LINE
8
BLACK
6
CONTINUOUS
10
2.15997
20
-1.6905
11
2.16006
21
-1.69049
0
LINE
8
BLACK
6
CONTINUOUS
10
2.16006
20
-1.69049
11
2.17506
21
-1.69049
0
LINE
8
BLACK
6
CONTINUOUS
10
2.17506
20
-1.69049
11
2.17508
21
-1.69049
0
LINE
8
BLACK
6
CONTINUOUS
10
2.16076
20
-1.69639
11
2.15806
21
-1.69774
0
LINE
8
BLACK
6
CONTINUOUS
10
2.15806
20
-1.69774
11
2.15686
21
-1.69894
0
LINE
8
BLACK
6
CONTINUOUS
10
2.15686
20
-1.69894
11
2.15551
21
-1.70164
0
LINE
8
BLACK
6
CONTINUOUS
10
2.15551
20
-1.70164
11
2.15551
21
-1.70587
0
LINE
8
BLACK
6
CONTINUOUS
10
2.15551
20
-1.70587
11
2.15686
21
-1.70856
0
LINE
8
BLACK
6
CONTINUOUS
10
2.15686
20
-1.70856
11
2.15806
21
-1.70976
0
LINE
8
BLACK
6
CONTINUOUS
10
2.15806
20
-1.70976
11
2.16076
21
-1.71111
0
LINE
8
BLACK
6
CONTINUOUS
10
2.16076
20
-1.71111
11
2.17211
21
-1.71111
0
LINE
8
BLACK
6
CONTINUOUS
10
2.17211
20
-1.71111
11
2.17211
21
-1.69639
0
LINE
8
BLACK
6
CONTINUOUS
10
2.17211
20
-1.69639
11
2.16076
21
-1.69639
0
LINE
8
BLACK
6
CONTINUOUS
10
2.21905
20
-1.67845
11
2.2195
21
-1.67859
0
LINE
8
BLACK
6
CONTINUOUS
10
2.2195
20
-1.67859
11
2.21991
21
-1.67881
0
LINE
8
BLACK
6
CONTINUOUS
10
2.21991
20
-1.67881
11
2.22027
21
-1.6791
0
LINE
8
BLACK
6
CONTINUOUS
10
2.22027
20
-1.6791
11
2.22056
21
-1.67946
0
LINE
8
BLACK
6
CONTINUOUS
10
2.22056
20
-1.67946
11
2.22078
21
-1.67987
0
LINE
8
BLACK
6
CONTINUOUS
10
2.22078
20
-1.67987
11
2.22092
21
-1.68032
0
LINE
8
BLACK
6
CONTINUOUS
10
2.22092
20
-1.68032
11
2.22096
21
-1.68078
0
LINE
8
BLACK
6
CONTINUOUS
10
2.22096
20
-1.68078
11
2.22092
21
-1.68124
0
LINE
8
BLACK
6
CONTINUOUS
10
2.22092
20
-1.68124
11
2.22078
21
-1.68169
0
LINE
8
BLACK
6
CONTINUOUS
10
2.22078
20
-1.68169
11
2.22056
21
-1.6821
0
LINE
8
BLACK
6
CONTINUOUS
10
2.22056
20
-1.6821
11
2.22027
21
-1.68246
0
LINE
8
BLACK
6
CONTINUOUS
10
2.22027
20
-1.68246
11
2.21991
21
-1.68275
0
LINE
8
BLACK
6
CONTINUOUS
10
2.21991
20
-1.68275
11
2.2195
21
-1.68297
0
LINE
8
BLACK
6
CONTINUOUS
10
2.2195
20
-1.68297
11
2.21905
21
-1.68311
0
LINE
8
BLACK
6
CONTINUOUS
10
2.21905
20
-1.68311
11
2.21871
21
-1.68314
0
LINE
8
BLACK
6
CONTINUOUS
10
2.21871
20
-1.68314
11
2.06729
21
-1.68314
0
LINE
8
BLACK
6
CONTINUOUS
10
2.06729
20
-1.68314
11
2.06695
21
-1.68311
0
LINE
8
BLACK
6
CONTINUOUS
10
2.06695
20
-1.68311
11
2.0665
21
-1.68297
0
LINE
8
BLACK
6
CONTINUOUS
10
2.0665
20
-1.68297
11
2.06609
21
-1.68275
0
LINE
8
BLACK
6
CONTINUOUS
10
2.06609
20
-1.68275
11
2.06573
21
-1.68246
0
LINE
8
BLACK
6
CONTINUOUS
10
2.06573
20
-1.68246
11
2.06544
21
-1.6821
0
LINE
8
BLACK
6
CONTINUOUS
10
2.06544
20
-1.6821
11
2.06522
21
-1.68169
0
LINE
8
BLACK
6
CONTINUOUS
10
2.06522
20
-1.68169
11
2.06508
21
-1.68124
0
LINE
8
BLACK
6
CONTINUOUS
10
2.06508
20
-1.68124
11
2.06504
21
-1.68078
0
LINE
8
BLACK
6
CONTINUOUS
10
2.06504
20
-1.68078
11
2.06508
21
-1.68032
0
LINE
8
BLACK
6
CONTINUOUS
10
2.06508
20
-1.68032
11
2.06522
21
-1.67987
0
LINE
8
BLACK
6
CONTINUOUS
10
2.06522
20
-1.67987
11
2.06544
21
-1.67946
0
LINE
8
BLACK
6
CONTINUOUS
10
2.06544
20
-1.67946
11
2.06573
21
-1.6791
0
LINE
8
BLACK
6
CONTINUOUS
10
2.06573
20
-1.6791
11
2.06609
21
-1.67881
0
LINE
8
BLACK
6
CONTINUOUS
10
2.06609
20
-1.67881
11
2.0665
21
-1.67859
0
LINE
8
BLACK
6
CONTINUOUS
10
2.0665
20
-1.67859
11
2.06695
21
-1.67845
0
LINE
8
BLACK
6
CONTINUOUS
10
2.06695
20
-1.67845
11
2.06729
21
-1.67842
0
LINE
8
BLACK
6
CONTINUOUS
10
2.06729
20
-1.67842
11
2.21871
21
-1.67842
0
LINE
8
BLACK
6
CONTINUOUS
10
2.21871
20
-1.67842
11
2.21905
21
-1.67845
  0
ENDSEC
  0
EOF
