%TF.GenerationSoftware,KiCad,Pcbnew,(5.1.8)-1*%
%TF.CreationDate,2021-02-21T20:08:29-05:00*%
%TF.ProjectId,Mega_Shield,4d656761-5f53-4686-9965-6c642e6b6963,rev?*%
%TF.SameCoordinates,Original*%
%TF.FileFunction,Legend,Top*%
%TF.FilePolarity,Positive*%
%FSLAX46Y46*%
G04 Gerber Fmt 4.6, Leading zero omitted, Abs format (unit mm)*
G04 Created by KiCad (PCBNEW (5.1.8)-1) date 2021-02-21 20:08:29*
%MOMM*%
%LPD*%
G01*
G04 APERTURE LIST*
%ADD10C,0.150000*%
%ADD11C,0.120000*%
%ADD12C,0.010000*%
%ADD13C,0.100000*%
G04 APERTURE END LIST*
D10*
X128206476Y-24852380D02*
X128016000Y-24852380D01*
X127920761Y-24900000D01*
X127873142Y-24947619D01*
X127777904Y-25090476D01*
X127730285Y-25280952D01*
X127730285Y-25661904D01*
X127777904Y-25757142D01*
X127825523Y-25804761D01*
X127920761Y-25852380D01*
X128111238Y-25852380D01*
X128206476Y-25804761D01*
X128254095Y-25757142D01*
X128301714Y-25661904D01*
X128301714Y-25423809D01*
X128254095Y-25328571D01*
X128206476Y-25280952D01*
X128111238Y-25233333D01*
X127920761Y-25233333D01*
X127825523Y-25280952D01*
X127777904Y-25328571D01*
X127730285Y-25423809D01*
X110172476Y-24852380D02*
X109982000Y-24852380D01*
X109886761Y-24900000D01*
X109839142Y-24947619D01*
X109743904Y-25090476D01*
X109696285Y-25280952D01*
X109696285Y-25661904D01*
X109743904Y-25757142D01*
X109791523Y-25804761D01*
X109886761Y-25852380D01*
X110077238Y-25852380D01*
X110172476Y-25804761D01*
X110220095Y-25757142D01*
X110267714Y-25661904D01*
X110267714Y-25423809D01*
X110220095Y-25328571D01*
X110172476Y-25280952D01*
X110077238Y-25233333D01*
X109886761Y-25233333D01*
X109791523Y-25280952D01*
X109743904Y-25328571D01*
X109696285Y-25423809D01*
X146661142Y-78755809D02*
X146708761Y-78803428D01*
X146756380Y-78946285D01*
X146756380Y-79041523D01*
X146708761Y-79184380D01*
X146613523Y-79279619D01*
X146518285Y-79327238D01*
X146327809Y-79374857D01*
X146184952Y-79374857D01*
X145994476Y-79327238D01*
X145899238Y-79279619D01*
X145804000Y-79184380D01*
X145756380Y-79041523D01*
X145756380Y-78946285D01*
X145804000Y-78803428D01*
X145851619Y-78755809D01*
X146470666Y-78374857D02*
X146470666Y-77898666D01*
X146756380Y-78470095D02*
X145756380Y-78136761D01*
X146756380Y-77803428D01*
X146756380Y-76993904D02*
X146756380Y-77470095D01*
X145756380Y-77470095D01*
X139279333Y-80970380D02*
X138946000Y-80494190D01*
X138707904Y-80970380D02*
X138707904Y-79970380D01*
X139088857Y-79970380D01*
X139184095Y-80018000D01*
X139231714Y-80065619D01*
X139279333Y-80160857D01*
X139279333Y-80303714D01*
X139231714Y-80398952D01*
X139184095Y-80446571D01*
X139088857Y-80494190D01*
X138707904Y-80494190D01*
X139612666Y-79970380D02*
X140279333Y-80970380D01*
X140279333Y-79970380D02*
X139612666Y-80970380D01*
X136144095Y-79970380D02*
X136715523Y-79970380D01*
X136429809Y-80970380D02*
X136429809Y-79970380D01*
X136953619Y-79970380D02*
X137620285Y-80970380D01*
X137620285Y-79970380D02*
X136953619Y-80970380D01*
X133032666Y-79970380D02*
X133366000Y-80970380D01*
X133699333Y-79970380D01*
X134604095Y-80875142D02*
X134556476Y-80922761D01*
X134413619Y-80970380D01*
X134318380Y-80970380D01*
X134175523Y-80922761D01*
X134080285Y-80827523D01*
X134032666Y-80732285D01*
X133985047Y-80541809D01*
X133985047Y-80398952D01*
X134032666Y-80208476D01*
X134080285Y-80113238D01*
X134175523Y-80018000D01*
X134318380Y-79970380D01*
X134413619Y-79970380D01*
X134556476Y-80018000D01*
X134604095Y-80065619D01*
X135604095Y-80875142D02*
X135556476Y-80922761D01*
X135413619Y-80970380D01*
X135318380Y-80970380D01*
X135175523Y-80922761D01*
X135080285Y-80827523D01*
X135032666Y-80732285D01*
X134985047Y-80541809D01*
X134985047Y-80398952D01*
X135032666Y-80208476D01*
X135080285Y-80113238D01*
X135175523Y-80018000D01*
X135318380Y-79970380D01*
X135413619Y-79970380D01*
X135556476Y-80018000D01*
X135604095Y-80065619D01*
X128524095Y-80018000D02*
X128428857Y-79970380D01*
X128286000Y-79970380D01*
X128143142Y-80018000D01*
X128047904Y-80113238D01*
X128000285Y-80208476D01*
X127952666Y-80398952D01*
X127952666Y-80541809D01*
X128000285Y-80732285D01*
X128047904Y-80827523D01*
X128143142Y-80922761D01*
X128286000Y-80970380D01*
X128381238Y-80970380D01*
X128524095Y-80922761D01*
X128571714Y-80875142D01*
X128571714Y-80541809D01*
X128381238Y-80541809D01*
X129000285Y-80970380D02*
X129000285Y-79970380D01*
X129571714Y-80970380D01*
X129571714Y-79970380D01*
X130047904Y-80970380D02*
X130047904Y-79970380D01*
X130286000Y-79970380D01*
X130428857Y-80018000D01*
X130524095Y-80113238D01*
X130571714Y-80208476D01*
X130619333Y-80398952D01*
X130619333Y-80541809D01*
X130571714Y-80732285D01*
X130524095Y-80827523D01*
X130428857Y-80922761D01*
X130286000Y-80970380D01*
X130047904Y-80970380D01*
D11*
%TO.C,D3*%
X101751000Y-45680000D02*
X100751000Y-44680000D01*
X100751000Y-44680000D02*
X100751000Y-40680000D01*
X100751000Y-40680000D02*
X117181000Y-40680000D01*
X117181000Y-40680000D02*
X117181000Y-45680000D01*
X117181000Y-45680000D02*
X101751000Y-45680000D01*
%TO.C,J7*%
X173441000Y-66421000D02*
X173441000Y-83057000D01*
X152441000Y-83057000D02*
X173441000Y-83057000D01*
X152441000Y-66421000D02*
X152441000Y-83057000D01*
X173441000Y-66421000D02*
X152441000Y-66421000D01*
%TO.C,J8*%
X141970800Y-48754000D02*
X101970800Y-48754000D01*
X101970800Y-48754000D02*
X101970800Y-78754000D01*
X141970800Y-78754000D02*
X101970800Y-78754000D01*
X141970800Y-48754000D02*
X141970800Y-78754000D01*
%TO.C,J2*%
X82600800Y-35966400D02*
X82600800Y-56984900D01*
X82600800Y-56984900D02*
X94602300Y-56984900D01*
X94602300Y-56984900D02*
X94602300Y-35966400D01*
X94602300Y-35966400D02*
X82600800Y-35966400D01*
%TO.C,J9*%
X156057600Y-30796400D02*
X156057600Y-19392900D01*
X181067100Y-30796400D02*
X156067100Y-30796400D01*
X156057600Y-19392900D02*
X181076600Y-19392900D01*
X181067100Y-30796400D02*
X181076600Y-19392900D01*
%TO.C,J6*%
X153301700Y-30886400D02*
X153301700Y-20853400D01*
X153301700Y-20853400D02*
X136918700Y-20853400D01*
X136918700Y-30886400D02*
X136918700Y-20853400D01*
X153301700Y-30886400D02*
X136918700Y-30886400D01*
%TO.C,U1*%
X166705600Y-40914000D02*
X156585600Y-40914000D01*
X156585600Y-40914000D02*
X156585600Y-51034000D01*
X156585600Y-51034000D02*
X166705600Y-51034000D01*
X166705600Y-51034000D02*
X166705600Y-47660666D01*
X166705600Y-47660666D02*
X166345600Y-47660666D01*
X166345600Y-47660666D02*
X166345600Y-44287334D01*
X166345600Y-44287334D02*
X166705600Y-44287334D01*
X166705600Y-44287334D02*
X166705600Y-40914000D01*
X166925600Y-40386000D02*
G75*
G03*
X166925600Y-40386000I-200000J0D01*
G01*
D12*
%TO.C,G\u002A\u002A\u002A*%
G36*
X89513972Y-70733126D02*
G01*
X89500036Y-70733598D01*
X89477587Y-70734045D01*
X89447259Y-70734464D01*
X89409688Y-70734850D01*
X89365508Y-70735198D01*
X89315355Y-70735505D01*
X89259863Y-70735766D01*
X89199670Y-70735977D01*
X89135408Y-70736132D01*
X89067714Y-70736228D01*
X88998598Y-70736260D01*
X88478437Y-70736260D01*
X88468404Y-70725253D01*
X88464060Y-70719415D01*
X88454930Y-70706331D01*
X88441575Y-70686844D01*
X88424557Y-70661794D01*
X88404438Y-70632023D01*
X88381779Y-70598374D01*
X88357143Y-70561687D01*
X88331090Y-70522806D01*
X88304184Y-70482571D01*
X88276986Y-70441825D01*
X88250056Y-70401409D01*
X88223959Y-70362165D01*
X88199254Y-70324935D01*
X88176504Y-70290561D01*
X88156271Y-70259884D01*
X88139116Y-70233747D01*
X88125601Y-70212990D01*
X88116289Y-70198457D01*
X88111740Y-70190988D01*
X88111414Y-70190326D01*
X88112071Y-70189221D01*
X88115280Y-70188237D01*
X88121553Y-70187369D01*
X88131404Y-70186609D01*
X88145345Y-70185950D01*
X88163889Y-70185386D01*
X88187548Y-70184909D01*
X88216835Y-70184514D01*
X88252262Y-70184193D01*
X88294343Y-70183939D01*
X88343590Y-70183747D01*
X88400516Y-70183608D01*
X88465632Y-70183517D01*
X88539453Y-70183465D01*
X88622490Y-70183448D01*
X89155169Y-70183448D01*
X89336963Y-70456229D01*
X89367856Y-70502636D01*
X89397094Y-70546660D01*
X89424235Y-70587627D01*
X89448831Y-70624859D01*
X89470440Y-70657680D01*
X89488614Y-70685412D01*
X89502910Y-70707379D01*
X89512881Y-70722905D01*
X89518084Y-70731312D01*
X89518758Y-70732635D01*
X89513972Y-70733126D01*
G37*
X89513972Y-70733126D02*
X89500036Y-70733598D01*
X89477587Y-70734045D01*
X89447259Y-70734464D01*
X89409688Y-70734850D01*
X89365508Y-70735198D01*
X89315355Y-70735505D01*
X89259863Y-70735766D01*
X89199670Y-70735977D01*
X89135408Y-70736132D01*
X89067714Y-70736228D01*
X88998598Y-70736260D01*
X88478437Y-70736260D01*
X88468404Y-70725253D01*
X88464060Y-70719415D01*
X88454930Y-70706331D01*
X88441575Y-70686844D01*
X88424557Y-70661794D01*
X88404438Y-70632023D01*
X88381779Y-70598374D01*
X88357143Y-70561687D01*
X88331090Y-70522806D01*
X88304184Y-70482571D01*
X88276986Y-70441825D01*
X88250056Y-70401409D01*
X88223959Y-70362165D01*
X88199254Y-70324935D01*
X88176504Y-70290561D01*
X88156271Y-70259884D01*
X88139116Y-70233747D01*
X88125601Y-70212990D01*
X88116289Y-70198457D01*
X88111740Y-70190988D01*
X88111414Y-70190326D01*
X88112071Y-70189221D01*
X88115280Y-70188237D01*
X88121553Y-70187369D01*
X88131404Y-70186609D01*
X88145345Y-70185950D01*
X88163889Y-70185386D01*
X88187548Y-70184909D01*
X88216835Y-70184514D01*
X88252262Y-70184193D01*
X88294343Y-70183939D01*
X88343590Y-70183747D01*
X88400516Y-70183608D01*
X88465632Y-70183517D01*
X88539453Y-70183465D01*
X88622490Y-70183448D01*
X89155169Y-70183448D01*
X89336963Y-70456229D01*
X89367856Y-70502636D01*
X89397094Y-70546660D01*
X89424235Y-70587627D01*
X89448831Y-70624859D01*
X89470440Y-70657680D01*
X89488614Y-70685412D01*
X89502910Y-70707379D01*
X89512881Y-70722905D01*
X89518084Y-70731312D01*
X89518758Y-70732635D01*
X89513972Y-70733126D01*
G36*
X88102123Y-70183227D02*
G01*
X88096912Y-70184120D01*
X88087373Y-70184911D01*
X88073043Y-70185603D01*
X88053461Y-70186203D01*
X88028164Y-70186716D01*
X87996690Y-70187147D01*
X87958576Y-70187503D01*
X87913361Y-70187787D01*
X87860582Y-70188006D01*
X87799778Y-70188166D01*
X87730485Y-70188271D01*
X87652241Y-70188327D01*
X87582531Y-70188340D01*
X87059087Y-70188340D01*
X86877540Y-69917171D01*
X86846628Y-69870959D01*
X86817376Y-69827148D01*
X86790229Y-69786413D01*
X86765636Y-69749428D01*
X86744043Y-69716868D01*
X86725897Y-69689408D01*
X86711646Y-69667723D01*
X86701737Y-69652487D01*
X86696617Y-69644376D01*
X86695992Y-69643211D01*
X86700779Y-69642834D01*
X86714716Y-69642472D01*
X86737172Y-69642129D01*
X86767512Y-69641807D01*
X86805103Y-69641510D01*
X86849312Y-69641242D01*
X86899506Y-69641006D01*
X86955051Y-69640805D01*
X87015315Y-69640642D01*
X87079663Y-69640522D01*
X87147463Y-69640447D01*
X87218082Y-69640420D01*
X87742647Y-69640420D01*
X87921803Y-69908265D01*
X87952576Y-69954307D01*
X87981754Y-69998029D01*
X88008877Y-70038741D01*
X88033489Y-70075752D01*
X88055130Y-70108371D01*
X88073344Y-70135907D01*
X88087672Y-70157671D01*
X88097656Y-70172970D01*
X88102838Y-70181115D01*
X88103468Y-70182225D01*
X88102123Y-70183227D01*
G37*
X88102123Y-70183227D02*
X88096912Y-70184120D01*
X88087373Y-70184911D01*
X88073043Y-70185603D01*
X88053461Y-70186203D01*
X88028164Y-70186716D01*
X87996690Y-70187147D01*
X87958576Y-70187503D01*
X87913361Y-70187787D01*
X87860582Y-70188006D01*
X87799778Y-70188166D01*
X87730485Y-70188271D01*
X87652241Y-70188327D01*
X87582531Y-70188340D01*
X87059087Y-70188340D01*
X86877540Y-69917171D01*
X86846628Y-69870959D01*
X86817376Y-69827148D01*
X86790229Y-69786413D01*
X86765636Y-69749428D01*
X86744043Y-69716868D01*
X86725897Y-69689408D01*
X86711646Y-69667723D01*
X86701737Y-69652487D01*
X86696617Y-69644376D01*
X86695992Y-69643211D01*
X86700779Y-69642834D01*
X86714716Y-69642472D01*
X86737172Y-69642129D01*
X86767512Y-69641807D01*
X86805103Y-69641510D01*
X86849312Y-69641242D01*
X86899506Y-69641006D01*
X86955051Y-69640805D01*
X87015315Y-69640642D01*
X87079663Y-69640522D01*
X87147463Y-69640447D01*
X87218082Y-69640420D01*
X87742647Y-69640420D01*
X87921803Y-69908265D01*
X87952576Y-69954307D01*
X87981754Y-69998029D01*
X88008877Y-70038741D01*
X88033489Y-70075752D01*
X88055130Y-70108371D01*
X88073344Y-70135907D01*
X88087672Y-70157671D01*
X88097656Y-70172970D01*
X88102838Y-70181115D01*
X88103468Y-70182225D01*
X88102123Y-70183227D01*
G36*
X89515407Y-69200681D02*
G01*
X89505174Y-69201481D01*
X89487786Y-69202171D01*
X89462972Y-69202751D01*
X89430459Y-69203226D01*
X89389976Y-69203595D01*
X89341251Y-69203863D01*
X89284012Y-69204030D01*
X89217988Y-69204099D01*
X89142905Y-69204072D01*
X89058493Y-69203951D01*
X88996522Y-69203819D01*
X88474286Y-69202573D01*
X88291555Y-68929837D01*
X88108825Y-68657100D01*
X87058055Y-68657100D01*
X86877023Y-68385619D01*
X86846201Y-68339360D01*
X86817033Y-68295513D01*
X86789964Y-68254752D01*
X86765442Y-68217751D01*
X86743910Y-68185187D01*
X86725816Y-68157733D01*
X86711605Y-68136064D01*
X86701723Y-68120855D01*
X86696617Y-68112781D01*
X86695992Y-68111637D01*
X86700779Y-68111311D01*
X86714717Y-68111020D01*
X86737175Y-68110766D01*
X86767520Y-68110550D01*
X86805119Y-68110373D01*
X86849341Y-68110238D01*
X86899552Y-68110145D01*
X86955120Y-68110097D01*
X87015413Y-68110094D01*
X87079798Y-68110139D01*
X87147643Y-68110232D01*
X87218316Y-68110375D01*
X87220674Y-68110381D01*
X87745357Y-68111626D01*
X87927744Y-68384363D01*
X88110132Y-68657100D01*
X88634659Y-68657181D01*
X89159186Y-68657263D01*
X89338972Y-68925868D01*
X89369748Y-68971927D01*
X89398861Y-69015648D01*
X89425861Y-69056346D01*
X89450296Y-69093335D01*
X89471718Y-69125928D01*
X89489675Y-69153440D01*
X89503718Y-69175185D01*
X89513396Y-69190476D01*
X89518259Y-69198629D01*
X89518758Y-69199769D01*
X89515407Y-69200681D01*
G37*
X89515407Y-69200681D02*
X89505174Y-69201481D01*
X89487786Y-69202171D01*
X89462972Y-69202751D01*
X89430459Y-69203226D01*
X89389976Y-69203595D01*
X89341251Y-69203863D01*
X89284012Y-69204030D01*
X89217988Y-69204099D01*
X89142905Y-69204072D01*
X89058493Y-69203951D01*
X88996522Y-69203819D01*
X88474286Y-69202573D01*
X88291555Y-68929837D01*
X88108825Y-68657100D01*
X87058055Y-68657100D01*
X86877023Y-68385619D01*
X86846201Y-68339360D01*
X86817033Y-68295513D01*
X86789964Y-68254752D01*
X86765442Y-68217751D01*
X86743910Y-68185187D01*
X86725816Y-68157733D01*
X86711605Y-68136064D01*
X86701723Y-68120855D01*
X86696617Y-68112781D01*
X86695992Y-68111637D01*
X86700779Y-68111311D01*
X86714717Y-68111020D01*
X86737175Y-68110766D01*
X86767520Y-68110550D01*
X86805119Y-68110373D01*
X86849341Y-68110238D01*
X86899552Y-68110145D01*
X86955120Y-68110097D01*
X87015413Y-68110094D01*
X87079798Y-68110139D01*
X87147643Y-68110232D01*
X87218316Y-68110375D01*
X87220674Y-68110381D01*
X87745357Y-68111626D01*
X87927744Y-68384363D01*
X88110132Y-68657100D01*
X88634659Y-68657181D01*
X89159186Y-68657263D01*
X89338972Y-68925868D01*
X89369748Y-68971927D01*
X89398861Y-69015648D01*
X89425861Y-69056346D01*
X89450296Y-69093335D01*
X89471718Y-69125928D01*
X89489675Y-69153440D01*
X89503718Y-69175185D01*
X89513396Y-69190476D01*
X89518259Y-69198629D01*
X89518758Y-69199769D01*
X89515407Y-69200681D01*
G36*
X86167601Y-74888029D02*
G01*
X86167449Y-74943874D01*
X86167133Y-74991716D01*
X86166604Y-75032447D01*
X86165811Y-75066957D01*
X86164704Y-75096137D01*
X86163232Y-75120878D01*
X86161345Y-75142071D01*
X86158994Y-75160605D01*
X86156127Y-75177373D01*
X86152694Y-75193266D01*
X86148645Y-75209173D01*
X86145129Y-75221806D01*
X86121772Y-75287241D01*
X86091064Y-75346534D01*
X86053508Y-75399377D01*
X86009608Y-75445463D01*
X85959867Y-75484485D01*
X85904787Y-75516135D01*
X85844874Y-75540105D01*
X85780629Y-75556087D01*
X85712557Y-75563775D01*
X85641160Y-75562860D01*
X85595260Y-75557810D01*
X85520929Y-75542608D01*
X85452274Y-75519754D01*
X85389589Y-75489497D01*
X85333164Y-75452084D01*
X85283291Y-75407764D01*
X85240262Y-75356783D01*
X85204368Y-75299389D01*
X85175900Y-75235831D01*
X85160789Y-75188691D01*
X85147931Y-75141634D01*
X85144697Y-74542346D01*
X86063316Y-74542346D01*
X86063316Y-74645081D01*
X85242415Y-74645081D01*
X85244277Y-74873789D01*
X85244732Y-74927371D01*
X85245180Y-74972157D01*
X85245666Y-75009132D01*
X85246237Y-75039283D01*
X85246939Y-75063599D01*
X85247820Y-75083064D01*
X85248924Y-75098667D01*
X85250300Y-75111394D01*
X85251994Y-75122233D01*
X85254051Y-75132169D01*
X85256519Y-75142191D01*
X85257010Y-75144080D01*
X85277484Y-75204450D01*
X85305716Y-75259330D01*
X85341292Y-75308216D01*
X85383797Y-75350602D01*
X85432817Y-75385982D01*
X85472966Y-75407321D01*
X85532810Y-75430191D01*
X85594171Y-75444810D01*
X85655930Y-75451269D01*
X85716966Y-75449658D01*
X85776159Y-75440068D01*
X85832388Y-75422589D01*
X85884534Y-75397313D01*
X85923418Y-75370866D01*
X85957291Y-75339055D01*
X85988442Y-75299726D01*
X86015524Y-75255049D01*
X86037191Y-75207192D01*
X86050016Y-75166930D01*
X86054934Y-75145983D01*
X86058966Y-75124485D01*
X86062167Y-75101345D01*
X86064590Y-75075474D01*
X86066292Y-75045782D01*
X86067325Y-75011177D01*
X86067747Y-74970571D01*
X86067610Y-74922872D01*
X86066970Y-74866992D01*
X86066520Y-74838157D01*
X86063316Y-74645081D01*
X86063316Y-74542346D01*
X86167641Y-74542346D01*
X86167641Y-74823290D01*
X86167601Y-74888029D01*
G37*
X86167601Y-74888029D02*
X86167449Y-74943874D01*
X86167133Y-74991716D01*
X86166604Y-75032447D01*
X86165811Y-75066957D01*
X86164704Y-75096137D01*
X86163232Y-75120878D01*
X86161345Y-75142071D01*
X86158994Y-75160605D01*
X86156127Y-75177373D01*
X86152694Y-75193266D01*
X86148645Y-75209173D01*
X86145129Y-75221806D01*
X86121772Y-75287241D01*
X86091064Y-75346534D01*
X86053508Y-75399377D01*
X86009608Y-75445463D01*
X85959867Y-75484485D01*
X85904787Y-75516135D01*
X85844874Y-75540105D01*
X85780629Y-75556087D01*
X85712557Y-75563775D01*
X85641160Y-75562860D01*
X85595260Y-75557810D01*
X85520929Y-75542608D01*
X85452274Y-75519754D01*
X85389589Y-75489497D01*
X85333164Y-75452084D01*
X85283291Y-75407764D01*
X85240262Y-75356783D01*
X85204368Y-75299389D01*
X85175900Y-75235831D01*
X85160789Y-75188691D01*
X85147931Y-75141634D01*
X85144697Y-74542346D01*
X86063316Y-74542346D01*
X86063316Y-74645081D01*
X85242415Y-74645081D01*
X85244277Y-74873789D01*
X85244732Y-74927371D01*
X85245180Y-74972157D01*
X85245666Y-75009132D01*
X85246237Y-75039283D01*
X85246939Y-75063599D01*
X85247820Y-75083064D01*
X85248924Y-75098667D01*
X85250300Y-75111394D01*
X85251994Y-75122233D01*
X85254051Y-75132169D01*
X85256519Y-75142191D01*
X85257010Y-75144080D01*
X85277484Y-75204450D01*
X85305716Y-75259330D01*
X85341292Y-75308216D01*
X85383797Y-75350602D01*
X85432817Y-75385982D01*
X85472966Y-75407321D01*
X85532810Y-75430191D01*
X85594171Y-75444810D01*
X85655930Y-75451269D01*
X85716966Y-75449658D01*
X85776159Y-75440068D01*
X85832388Y-75422589D01*
X85884534Y-75397313D01*
X85923418Y-75370866D01*
X85957291Y-75339055D01*
X85988442Y-75299726D01*
X86015524Y-75255049D01*
X86037191Y-75207192D01*
X86050016Y-75166930D01*
X86054934Y-75145983D01*
X86058966Y-75124485D01*
X86062167Y-75101345D01*
X86064590Y-75075474D01*
X86066292Y-75045782D01*
X86067325Y-75011177D01*
X86067747Y-74970571D01*
X86067610Y-74922872D01*
X86066970Y-74866992D01*
X86066520Y-74838157D01*
X86063316Y-74645081D01*
X86063316Y-74542346D01*
X86167641Y-74542346D01*
X86167641Y-74823290D01*
X86167601Y-74888029D01*
G36*
X86117496Y-73900424D02*
G01*
X86067352Y-73899030D01*
X86066101Y-73494205D01*
X86064849Y-73089380D01*
X85722456Y-73089380D01*
X85722456Y-73774280D01*
X85619721Y-73774280D01*
X85619721Y-73089380D01*
X85247973Y-73089380D01*
X85246723Y-73508881D01*
X85245472Y-73928382D01*
X85195328Y-73929777D01*
X85145183Y-73931171D01*
X85145183Y-72986645D01*
X86167641Y-72986645D01*
X86167641Y-73901818D01*
X86117496Y-73900424D01*
G37*
X86117496Y-73900424D02*
X86067352Y-73899030D01*
X86066101Y-73494205D01*
X86064849Y-73089380D01*
X85722456Y-73089380D01*
X85722456Y-73774280D01*
X85619721Y-73774280D01*
X85619721Y-73089380D01*
X85247973Y-73089380D01*
X85246723Y-73508881D01*
X85245472Y-73928382D01*
X85195328Y-73929777D01*
X85145183Y-73931171D01*
X85145183Y-72986645D01*
X86167641Y-72986645D01*
X86167641Y-73901818D01*
X86117496Y-73900424D01*
G36*
X86174979Y-70224439D02*
G01*
X85663750Y-70477640D01*
X85597512Y-70510433D01*
X85533711Y-70541994D01*
X85472894Y-70572054D01*
X85415611Y-70600342D01*
X85362410Y-70626588D01*
X85313839Y-70650522D01*
X85270447Y-70671875D01*
X85232783Y-70690376D01*
X85201395Y-70705755D01*
X85176831Y-70717742D01*
X85159640Y-70726067D01*
X85150370Y-70730461D01*
X85148852Y-70731104D01*
X85147395Y-70726647D01*
X85146211Y-70714346D01*
X85145432Y-70696140D01*
X85145183Y-70676277D01*
X85145183Y-70621186D01*
X85321300Y-70533236D01*
X85497418Y-70445286D01*
X85497418Y-69872688D01*
X85321300Y-69784738D01*
X85145183Y-69696788D01*
X85145183Y-69641698D01*
X85145457Y-69619797D01*
X85146201Y-69602023D01*
X85147297Y-69590325D01*
X85148487Y-69586607D01*
X85153253Y-69588729D01*
X85166173Y-69594898D01*
X85186634Y-69604811D01*
X85214024Y-69618168D01*
X85247732Y-69634669D01*
X85287144Y-69654014D01*
X85331649Y-69675900D01*
X85380634Y-69700029D01*
X85433487Y-69726099D01*
X85489595Y-69753809D01*
X85548348Y-69782860D01*
X85563096Y-69790158D01*
X85601845Y-69809326D01*
X85601845Y-69924164D01*
X85601507Y-69928899D01*
X85601191Y-69942472D01*
X85600905Y-69963938D01*
X85600655Y-69992350D01*
X85600448Y-70026764D01*
X85600290Y-70066233D01*
X85600190Y-70109811D01*
X85600153Y-70156554D01*
X85600152Y-70158772D01*
X85600152Y-70393380D01*
X85674758Y-70357455D01*
X85727486Y-70331972D01*
X85779028Y-70306886D01*
X85828653Y-70282564D01*
X85875629Y-70259374D01*
X85919227Y-70237684D01*
X85958715Y-70217862D01*
X85993362Y-70200274D01*
X86022439Y-70185289D01*
X86045214Y-70173274D01*
X86060956Y-70164597D01*
X86068935Y-70159626D01*
X86069798Y-70158701D01*
X86065574Y-70155984D01*
X86053555Y-70149433D01*
X86034723Y-70139538D01*
X86010058Y-70126791D01*
X85980543Y-70111685D01*
X85947157Y-70094711D01*
X85910883Y-70076360D01*
X85872701Y-70057125D01*
X85833592Y-70037498D01*
X85794538Y-70017969D01*
X85756520Y-69999031D01*
X85720519Y-69981175D01*
X85687515Y-69964894D01*
X85658491Y-69950678D01*
X85634426Y-69939021D01*
X85616304Y-69930412D01*
X85605103Y-69925345D01*
X85601845Y-69924164D01*
X85601845Y-69809326D01*
X85625101Y-69820831D01*
X85686514Y-69851189D01*
X85746514Y-69880827D01*
X85804277Y-69909339D01*
X85858982Y-69936320D01*
X85909806Y-69961365D01*
X85955927Y-69984068D01*
X85996522Y-70004024D01*
X86030769Y-70020828D01*
X86057845Y-70034074D01*
X86076046Y-70042931D01*
X86177691Y-70092153D01*
X86174979Y-70224439D01*
G37*
X86174979Y-70224439D02*
X85663750Y-70477640D01*
X85597512Y-70510433D01*
X85533711Y-70541994D01*
X85472894Y-70572054D01*
X85415611Y-70600342D01*
X85362410Y-70626588D01*
X85313839Y-70650522D01*
X85270447Y-70671875D01*
X85232783Y-70690376D01*
X85201395Y-70705755D01*
X85176831Y-70717742D01*
X85159640Y-70726067D01*
X85150370Y-70730461D01*
X85148852Y-70731104D01*
X85147395Y-70726647D01*
X85146211Y-70714346D01*
X85145432Y-70696140D01*
X85145183Y-70676277D01*
X85145183Y-70621186D01*
X85321300Y-70533236D01*
X85497418Y-70445286D01*
X85497418Y-69872688D01*
X85321300Y-69784738D01*
X85145183Y-69696788D01*
X85145183Y-69641698D01*
X85145457Y-69619797D01*
X85146201Y-69602023D01*
X85147297Y-69590325D01*
X85148487Y-69586607D01*
X85153253Y-69588729D01*
X85166173Y-69594898D01*
X85186634Y-69604811D01*
X85214024Y-69618168D01*
X85247732Y-69634669D01*
X85287144Y-69654014D01*
X85331649Y-69675900D01*
X85380634Y-69700029D01*
X85433487Y-69726099D01*
X85489595Y-69753809D01*
X85548348Y-69782860D01*
X85563096Y-69790158D01*
X85601845Y-69809326D01*
X85601845Y-69924164D01*
X85601507Y-69928899D01*
X85601191Y-69942472D01*
X85600905Y-69963938D01*
X85600655Y-69992350D01*
X85600448Y-70026764D01*
X85600290Y-70066233D01*
X85600190Y-70109811D01*
X85600153Y-70156554D01*
X85600152Y-70158772D01*
X85600152Y-70393380D01*
X85674758Y-70357455D01*
X85727486Y-70331972D01*
X85779028Y-70306886D01*
X85828653Y-70282564D01*
X85875629Y-70259374D01*
X85919227Y-70237684D01*
X85958715Y-70217862D01*
X85993362Y-70200274D01*
X86022439Y-70185289D01*
X86045214Y-70173274D01*
X86060956Y-70164597D01*
X86068935Y-70159626D01*
X86069798Y-70158701D01*
X86065574Y-70155984D01*
X86053555Y-70149433D01*
X86034723Y-70139538D01*
X86010058Y-70126791D01*
X85980543Y-70111685D01*
X85947157Y-70094711D01*
X85910883Y-70076360D01*
X85872701Y-70057125D01*
X85833592Y-70037498D01*
X85794538Y-70017969D01*
X85756520Y-69999031D01*
X85720519Y-69981175D01*
X85687515Y-69964894D01*
X85658491Y-69950678D01*
X85634426Y-69939021D01*
X85616304Y-69930412D01*
X85605103Y-69925345D01*
X85601845Y-69924164D01*
X85601845Y-69809326D01*
X85625101Y-69820831D01*
X85686514Y-69851189D01*
X85746514Y-69880827D01*
X85804277Y-69909339D01*
X85858982Y-69936320D01*
X85909806Y-69961365D01*
X85955927Y-69984068D01*
X85996522Y-70004024D01*
X86030769Y-70020828D01*
X86057845Y-70034074D01*
X86076046Y-70042931D01*
X86177691Y-70092153D01*
X86174979Y-70224439D01*
G36*
X86166374Y-63494667D02*
G01*
X86166042Y-63563810D01*
X86165712Y-63623873D01*
X86165365Y-63675559D01*
X86164982Y-63719571D01*
X86164546Y-63756613D01*
X86164037Y-63787389D01*
X86163438Y-63812601D01*
X86162728Y-63832955D01*
X86161891Y-63849153D01*
X86160908Y-63861899D01*
X86159759Y-63871896D01*
X86158427Y-63879848D01*
X86156893Y-63886459D01*
X86155977Y-63889708D01*
X86136860Y-63940496D01*
X86112014Y-63983801D01*
X86081673Y-64019379D01*
X86046069Y-64046982D01*
X86005436Y-64066364D01*
X85982321Y-64073131D01*
X85954332Y-64076936D01*
X85921392Y-64077136D01*
X85887532Y-64074008D01*
X85856781Y-64067830D01*
X85843571Y-64063586D01*
X85809932Y-64046765D01*
X85776768Y-64022832D01*
X85747076Y-63994128D01*
X85733864Y-63977906D01*
X85711068Y-63947106D01*
X85698417Y-63972090D01*
X85688930Y-63987344D01*
X85674854Y-64005888D01*
X85658787Y-64024372D01*
X85653966Y-64029405D01*
X85618278Y-64060097D01*
X85579644Y-64082136D01*
X85536938Y-64095976D01*
X85489036Y-64102070D01*
X85472516Y-64102458D01*
X85417833Y-64098001D01*
X85365459Y-64084929D01*
X85316437Y-64063917D01*
X85271809Y-64035643D01*
X85232619Y-64000783D01*
X85199909Y-63960014D01*
X85174722Y-63914011D01*
X85171952Y-63907430D01*
X85166983Y-63894952D01*
X85162670Y-63883156D01*
X85158966Y-63871279D01*
X85155826Y-63858557D01*
X85153202Y-63844227D01*
X85151049Y-63827525D01*
X85149320Y-63807686D01*
X85147968Y-63783948D01*
X85146948Y-63755547D01*
X85146212Y-63721720D01*
X85145715Y-63681702D01*
X85145410Y-63634729D01*
X85145251Y-63580039D01*
X85145191Y-63516868D01*
X85145183Y-63466743D01*
X85145183Y-63128979D01*
X85243026Y-63128979D01*
X85243026Y-63231714D01*
X85243084Y-63506897D01*
X85243148Y-63569626D01*
X85243321Y-63623269D01*
X85243619Y-63668524D01*
X85244057Y-63706090D01*
X85244651Y-63736663D01*
X85245415Y-63760943D01*
X85246366Y-63779627D01*
X85247518Y-63793413D01*
X85248887Y-63802999D01*
X85249686Y-63806541D01*
X85266363Y-63851360D01*
X85290468Y-63890717D01*
X85321080Y-63923891D01*
X85357281Y-63950157D01*
X85398150Y-63968795D01*
X85442767Y-63979082D01*
X85471772Y-63980949D01*
X85493893Y-63980562D01*
X85510194Y-63978704D01*
X85524621Y-63974545D01*
X85541117Y-63967256D01*
X85544264Y-63965718D01*
X85574986Y-63946142D01*
X85599671Y-63920306D01*
X85618827Y-63887462D01*
X85632964Y-63846863D01*
X85637038Y-63829665D01*
X85638591Y-63820510D01*
X85639911Y-63808355D01*
X85641015Y-63792445D01*
X85641918Y-63772023D01*
X85642639Y-63746333D01*
X85643195Y-63714618D01*
X85643601Y-63676124D01*
X85643876Y-63630094D01*
X85644036Y-63575771D01*
X85644097Y-63514236D01*
X85644182Y-63231714D01*
X85243026Y-63231714D01*
X85243026Y-63128979D01*
X86063336Y-63128979D01*
X86063336Y-63231714D01*
X85746917Y-63231714D01*
X85746917Y-63507453D01*
X85747007Y-63567304D01*
X85747272Y-63622228D01*
X85747698Y-63671529D01*
X85748275Y-63714518D01*
X85748992Y-63750499D01*
X85749837Y-63778782D01*
X85750799Y-63798673D01*
X85751866Y-63809481D01*
X85751877Y-63809542D01*
X85764311Y-63850564D01*
X85784906Y-63887583D01*
X85812635Y-63919175D01*
X85846470Y-63943917D01*
X85850528Y-63946163D01*
X85868544Y-63955155D01*
X85883353Y-63960182D01*
X85899463Y-63962354D01*
X85918142Y-63962783D01*
X85939357Y-63962181D01*
X85955035Y-63959714D01*
X85969380Y-63954419D01*
X85981149Y-63948368D01*
X86009783Y-63927604D01*
X86032524Y-63899780D01*
X86049570Y-63864543D01*
X86061116Y-63821543D01*
X86064711Y-63798445D01*
X86066327Y-63779612D01*
X86067629Y-63752073D01*
X86068613Y-63716902D01*
X86069275Y-63675172D01*
X86069610Y-63627958D01*
X86069614Y-63576332D01*
X86069282Y-63521370D01*
X86068609Y-63464143D01*
X86067591Y-63405727D01*
X86066557Y-63360133D01*
X86063336Y-63231714D01*
X86063336Y-63128979D01*
X86168050Y-63128979D01*
X86166374Y-63494667D01*
G37*
X86166374Y-63494667D02*
X86166042Y-63563810D01*
X86165712Y-63623873D01*
X86165365Y-63675559D01*
X86164982Y-63719571D01*
X86164546Y-63756613D01*
X86164037Y-63787389D01*
X86163438Y-63812601D01*
X86162728Y-63832955D01*
X86161891Y-63849153D01*
X86160908Y-63861899D01*
X86159759Y-63871896D01*
X86158427Y-63879848D01*
X86156893Y-63886459D01*
X86155977Y-63889708D01*
X86136860Y-63940496D01*
X86112014Y-63983801D01*
X86081673Y-64019379D01*
X86046069Y-64046982D01*
X86005436Y-64066364D01*
X85982321Y-64073131D01*
X85954332Y-64076936D01*
X85921392Y-64077136D01*
X85887532Y-64074008D01*
X85856781Y-64067830D01*
X85843571Y-64063586D01*
X85809932Y-64046765D01*
X85776768Y-64022832D01*
X85747076Y-63994128D01*
X85733864Y-63977906D01*
X85711068Y-63947106D01*
X85698417Y-63972090D01*
X85688930Y-63987344D01*
X85674854Y-64005888D01*
X85658787Y-64024372D01*
X85653966Y-64029405D01*
X85618278Y-64060097D01*
X85579644Y-64082136D01*
X85536938Y-64095976D01*
X85489036Y-64102070D01*
X85472516Y-64102458D01*
X85417833Y-64098001D01*
X85365459Y-64084929D01*
X85316437Y-64063917D01*
X85271809Y-64035643D01*
X85232619Y-64000783D01*
X85199909Y-63960014D01*
X85174722Y-63914011D01*
X85171952Y-63907430D01*
X85166983Y-63894952D01*
X85162670Y-63883156D01*
X85158966Y-63871279D01*
X85155826Y-63858557D01*
X85153202Y-63844227D01*
X85151049Y-63827525D01*
X85149320Y-63807686D01*
X85147968Y-63783948D01*
X85146948Y-63755547D01*
X85146212Y-63721720D01*
X85145715Y-63681702D01*
X85145410Y-63634729D01*
X85145251Y-63580039D01*
X85145191Y-63516868D01*
X85145183Y-63466743D01*
X85145183Y-63128979D01*
X85243026Y-63128979D01*
X85243026Y-63231714D01*
X85243084Y-63506897D01*
X85243148Y-63569626D01*
X85243321Y-63623269D01*
X85243619Y-63668524D01*
X85244057Y-63706090D01*
X85244651Y-63736663D01*
X85245415Y-63760943D01*
X85246366Y-63779627D01*
X85247518Y-63793413D01*
X85248887Y-63802999D01*
X85249686Y-63806541D01*
X85266363Y-63851360D01*
X85290468Y-63890717D01*
X85321080Y-63923891D01*
X85357281Y-63950157D01*
X85398150Y-63968795D01*
X85442767Y-63979082D01*
X85471772Y-63980949D01*
X85493893Y-63980562D01*
X85510194Y-63978704D01*
X85524621Y-63974545D01*
X85541117Y-63967256D01*
X85544264Y-63965718D01*
X85574986Y-63946142D01*
X85599671Y-63920306D01*
X85618827Y-63887462D01*
X85632964Y-63846863D01*
X85637038Y-63829665D01*
X85638591Y-63820510D01*
X85639911Y-63808355D01*
X85641015Y-63792445D01*
X85641918Y-63772023D01*
X85642639Y-63746333D01*
X85643195Y-63714618D01*
X85643601Y-63676124D01*
X85643876Y-63630094D01*
X85644036Y-63575771D01*
X85644097Y-63514236D01*
X85644182Y-63231714D01*
X85243026Y-63231714D01*
X85243026Y-63128979D01*
X86063336Y-63128979D01*
X86063336Y-63231714D01*
X85746917Y-63231714D01*
X85746917Y-63507453D01*
X85747007Y-63567304D01*
X85747272Y-63622228D01*
X85747698Y-63671529D01*
X85748275Y-63714518D01*
X85748992Y-63750499D01*
X85749837Y-63778782D01*
X85750799Y-63798673D01*
X85751866Y-63809481D01*
X85751877Y-63809542D01*
X85764311Y-63850564D01*
X85784906Y-63887583D01*
X85812635Y-63919175D01*
X85846470Y-63943917D01*
X85850528Y-63946163D01*
X85868544Y-63955155D01*
X85883353Y-63960182D01*
X85899463Y-63962354D01*
X85918142Y-63962783D01*
X85939357Y-63962181D01*
X85955035Y-63959714D01*
X85969380Y-63954419D01*
X85981149Y-63948368D01*
X86009783Y-63927604D01*
X86032524Y-63899780D01*
X86049570Y-63864543D01*
X86061116Y-63821543D01*
X86064711Y-63798445D01*
X86066327Y-63779612D01*
X86067629Y-63752073D01*
X86068613Y-63716902D01*
X86069275Y-63675172D01*
X86069610Y-63627958D01*
X86069614Y-63576332D01*
X86069282Y-63521370D01*
X86068609Y-63464143D01*
X86067591Y-63405727D01*
X86066557Y-63360133D01*
X86063336Y-63231714D01*
X86063336Y-63128979D01*
X86168050Y-63128979D01*
X86166374Y-63494667D01*
G36*
X86167612Y-71644975D02*
G01*
X86167568Y-71715118D01*
X86167440Y-71776182D01*
X86167215Y-71828874D01*
X86166880Y-71873899D01*
X86166422Y-71911964D01*
X86165829Y-71943773D01*
X86165087Y-71970034D01*
X86164184Y-71991451D01*
X86163107Y-72008731D01*
X86161843Y-72022580D01*
X86160536Y-72032677D01*
X86148483Y-72092891D01*
X86131602Y-72145263D01*
X86109505Y-72190670D01*
X86081805Y-72229989D01*
X86065087Y-72248289D01*
X86029837Y-72278279D01*
X85991458Y-72300030D01*
X85948789Y-72313990D01*
X85900667Y-72320610D01*
X85876558Y-72321314D01*
X85852279Y-72320430D01*
X85827669Y-72318086D01*
X85807236Y-72314742D01*
X85803432Y-72313837D01*
X85756707Y-72296695D01*
X85713698Y-72270891D01*
X85675187Y-72237094D01*
X85641953Y-72195976D01*
X85617657Y-72154197D01*
X85605929Y-72127980D01*
X85595094Y-72099416D01*
X85585951Y-72071060D01*
X85579301Y-72045470D01*
X85575942Y-72025205D01*
X85575692Y-72019953D01*
X85573730Y-72009881D01*
X85570711Y-72005716D01*
X85564203Y-72005820D01*
X85550042Y-72008460D01*
X85529892Y-72013186D01*
X85505419Y-72019548D01*
X85478286Y-72027096D01*
X85450157Y-72035380D01*
X85422699Y-72043949D01*
X85397574Y-72052354D01*
X85395283Y-72053158D01*
X85347200Y-72071909D01*
X85308191Y-72091284D01*
X85277546Y-72111878D01*
X85254556Y-72134286D01*
X85238509Y-72159104D01*
X85228696Y-72186926D01*
X85227215Y-72193983D01*
X85225288Y-72222901D01*
X85228746Y-72258997D01*
X85237481Y-72301351D01*
X85241131Y-72315199D01*
X85242154Y-72320184D01*
X85240793Y-72323377D01*
X85235378Y-72325179D01*
X85224237Y-72325986D01*
X85205703Y-72326198D01*
X85195022Y-72326206D01*
X85145878Y-72326206D01*
X85138542Y-72300522D01*
X85129119Y-72260716D01*
X85123194Y-72220715D01*
X85120906Y-72182812D01*
X85122398Y-72149299D01*
X85127582Y-72123182D01*
X85141223Y-72090258D01*
X85160567Y-72060624D01*
X85186285Y-72033782D01*
X85219051Y-72009232D01*
X85259537Y-71986474D01*
X85308417Y-71965010D01*
X85366363Y-71944339D01*
X85370264Y-71943075D01*
X85401691Y-71933232D01*
X85437044Y-71922630D01*
X85471768Y-71912610D01*
X85498641Y-71905222D01*
X85561015Y-71888662D01*
X85561015Y-71406483D01*
X85145183Y-71406483D01*
X85145183Y-71303748D01*
X86063311Y-71303748D01*
X86063311Y-71406483D01*
X85653476Y-71406483D01*
X85655112Y-71703681D01*
X85655472Y-71765599D01*
X85655834Y-71818521D01*
X85656225Y-71863238D01*
X85656670Y-71900537D01*
X85657193Y-71931209D01*
X85657822Y-71956042D01*
X85658582Y-71975825D01*
X85659497Y-71991348D01*
X85660594Y-72003400D01*
X85661898Y-72012769D01*
X85663435Y-72020245D01*
X85665230Y-72026617D01*
X85665608Y-72027785D01*
X85685494Y-72075425D01*
X85711405Y-72115491D01*
X85743639Y-72148342D01*
X85782492Y-72174339D01*
X85790304Y-72178364D01*
X85809668Y-72187498D01*
X85824765Y-72192933D01*
X85839684Y-72195614D01*
X85858512Y-72196486D01*
X85868948Y-72196541D01*
X85905439Y-72194468D01*
X85935528Y-72187647D01*
X85961817Y-72175161D01*
X85986908Y-72156092D01*
X85989016Y-72154186D01*
X86016056Y-72123033D01*
X86037488Y-72084405D01*
X86052567Y-72040221D01*
X86056408Y-72023465D01*
X86059635Y-72005200D01*
X86062280Y-71984569D01*
X86064374Y-71960717D01*
X86065947Y-71932785D01*
X86067033Y-71899916D01*
X86067661Y-71861255D01*
X86067864Y-71815942D01*
X86067672Y-71763123D01*
X86067117Y-71701939D01*
X86066576Y-71657206D01*
X86063311Y-71406483D01*
X86063311Y-71303748D01*
X86167641Y-71303748D01*
X86167612Y-71644975D01*
G37*
X86167612Y-71644975D02*
X86167568Y-71715118D01*
X86167440Y-71776182D01*
X86167215Y-71828874D01*
X86166880Y-71873899D01*
X86166422Y-71911964D01*
X86165829Y-71943773D01*
X86165087Y-71970034D01*
X86164184Y-71991451D01*
X86163107Y-72008731D01*
X86161843Y-72022580D01*
X86160536Y-72032677D01*
X86148483Y-72092891D01*
X86131602Y-72145263D01*
X86109505Y-72190670D01*
X86081805Y-72229989D01*
X86065087Y-72248289D01*
X86029837Y-72278279D01*
X85991458Y-72300030D01*
X85948789Y-72313990D01*
X85900667Y-72320610D01*
X85876558Y-72321314D01*
X85852279Y-72320430D01*
X85827669Y-72318086D01*
X85807236Y-72314742D01*
X85803432Y-72313837D01*
X85756707Y-72296695D01*
X85713698Y-72270891D01*
X85675187Y-72237094D01*
X85641953Y-72195976D01*
X85617657Y-72154197D01*
X85605929Y-72127980D01*
X85595094Y-72099416D01*
X85585951Y-72071060D01*
X85579301Y-72045470D01*
X85575942Y-72025205D01*
X85575692Y-72019953D01*
X85573730Y-72009881D01*
X85570711Y-72005716D01*
X85564203Y-72005820D01*
X85550042Y-72008460D01*
X85529892Y-72013186D01*
X85505419Y-72019548D01*
X85478286Y-72027096D01*
X85450157Y-72035380D01*
X85422699Y-72043949D01*
X85397574Y-72052354D01*
X85395283Y-72053158D01*
X85347200Y-72071909D01*
X85308191Y-72091284D01*
X85277546Y-72111878D01*
X85254556Y-72134286D01*
X85238509Y-72159104D01*
X85228696Y-72186926D01*
X85227215Y-72193983D01*
X85225288Y-72222901D01*
X85228746Y-72258997D01*
X85237481Y-72301351D01*
X85241131Y-72315199D01*
X85242154Y-72320184D01*
X85240793Y-72323377D01*
X85235378Y-72325179D01*
X85224237Y-72325986D01*
X85205703Y-72326198D01*
X85195022Y-72326206D01*
X85145878Y-72326206D01*
X85138542Y-72300522D01*
X85129119Y-72260716D01*
X85123194Y-72220715D01*
X85120906Y-72182812D01*
X85122398Y-72149299D01*
X85127582Y-72123182D01*
X85141223Y-72090258D01*
X85160567Y-72060624D01*
X85186285Y-72033782D01*
X85219051Y-72009232D01*
X85259537Y-71986474D01*
X85308417Y-71965010D01*
X85366363Y-71944339D01*
X85370264Y-71943075D01*
X85401691Y-71933232D01*
X85437044Y-71922630D01*
X85471768Y-71912610D01*
X85498641Y-71905222D01*
X85561015Y-71888662D01*
X85561015Y-71406483D01*
X85145183Y-71406483D01*
X85145183Y-71303748D01*
X86063311Y-71303748D01*
X86063311Y-71406483D01*
X85653476Y-71406483D01*
X85655112Y-71703681D01*
X85655472Y-71765599D01*
X85655834Y-71818521D01*
X85656225Y-71863238D01*
X85656670Y-71900537D01*
X85657193Y-71931209D01*
X85657822Y-71956042D01*
X85658582Y-71975825D01*
X85659497Y-71991348D01*
X85660594Y-72003400D01*
X85661898Y-72012769D01*
X85663435Y-72020245D01*
X85665230Y-72026617D01*
X85665608Y-72027785D01*
X85685494Y-72075425D01*
X85711405Y-72115491D01*
X85743639Y-72148342D01*
X85782492Y-72174339D01*
X85790304Y-72178364D01*
X85809668Y-72187498D01*
X85824765Y-72192933D01*
X85839684Y-72195614D01*
X85858512Y-72196486D01*
X85868948Y-72196541D01*
X85905439Y-72194468D01*
X85935528Y-72187647D01*
X85961817Y-72175161D01*
X85986908Y-72156092D01*
X85989016Y-72154186D01*
X86016056Y-72123033D01*
X86037488Y-72084405D01*
X86052567Y-72040221D01*
X86056408Y-72023465D01*
X86059635Y-72005200D01*
X86062280Y-71984569D01*
X86064374Y-71960717D01*
X86065947Y-71932785D01*
X86067033Y-71899916D01*
X86067661Y-71861255D01*
X86067864Y-71815942D01*
X86067672Y-71763123D01*
X86067117Y-71701939D01*
X86066576Y-71657206D01*
X86063311Y-71406483D01*
X86063311Y-71303748D01*
X86167641Y-71303748D01*
X86167612Y-71644975D01*
G36*
X85819076Y-68134782D02*
G01*
X85751810Y-68135099D01*
X85693608Y-68135414D01*
X85643751Y-68135749D01*
X85601519Y-68136123D01*
X85566191Y-68136556D01*
X85537048Y-68137069D01*
X85513371Y-68137681D01*
X85494438Y-68138412D01*
X85479531Y-68139283D01*
X85467929Y-68140313D01*
X85458913Y-68141523D01*
X85451763Y-68142932D01*
X85445759Y-68144562D01*
X85443604Y-68145251D01*
X85391635Y-68166967D01*
X85346479Y-68195536D01*
X85308037Y-68231078D01*
X85276211Y-68273713D01*
X85250901Y-68323560D01*
X85232010Y-68380739D01*
X85225226Y-68410657D01*
X85219920Y-68447946D01*
X85217036Y-68491436D01*
X85216545Y-68537858D01*
X85218418Y-68583940D01*
X85222626Y-68626412D01*
X85227361Y-68654227D01*
X85243486Y-68710866D01*
X85266352Y-68761970D01*
X85295464Y-68806838D01*
X85330327Y-68844773D01*
X85370446Y-68875074D01*
X85392236Y-68887101D01*
X85404105Y-68892931D01*
X85414786Y-68897991D01*
X85425037Y-68902336D01*
X85435617Y-68906027D01*
X85447283Y-68909120D01*
X85460795Y-68911674D01*
X85476910Y-68913746D01*
X85496387Y-68915395D01*
X85519983Y-68916678D01*
X85548458Y-68917654D01*
X85582569Y-68918380D01*
X85623074Y-68918914D01*
X85670732Y-68919315D01*
X85726301Y-68919639D01*
X85790539Y-68919946D01*
X85823968Y-68920101D01*
X86167641Y-68921707D01*
X86167641Y-69024368D01*
X85806845Y-69022833D01*
X85738842Y-69022540D01*
X85679898Y-69022265D01*
X85629288Y-69021984D01*
X85586288Y-69021675D01*
X85550173Y-69021314D01*
X85520217Y-69020877D01*
X85495696Y-69020342D01*
X85475886Y-69019685D01*
X85460060Y-69018883D01*
X85447495Y-69017913D01*
X85437466Y-69016752D01*
X85429246Y-69015375D01*
X85422113Y-69013761D01*
X85415340Y-69011885D01*
X85409359Y-69010078D01*
X85350182Y-68987273D01*
X85297318Y-68957020D01*
X85250828Y-68919396D01*
X85210771Y-68874478D01*
X85177210Y-68822346D01*
X85150205Y-68763075D01*
X85129816Y-68696744D01*
X85118137Y-68637531D01*
X85114877Y-68608331D01*
X85112760Y-68572578D01*
X85111812Y-68533444D01*
X85112061Y-68494096D01*
X85113534Y-68457704D01*
X85116261Y-68427436D01*
X85116295Y-68427169D01*
X85124135Y-68382753D01*
X85135988Y-68336253D01*
X85150699Y-68291646D01*
X85166783Y-68253578D01*
X85198521Y-68198119D01*
X85236052Y-68150511D01*
X85279615Y-68110545D01*
X85329450Y-68078017D01*
X85385797Y-68052718D01*
X85409359Y-68044838D01*
X85416392Y-68042723D01*
X85423173Y-68040889D01*
X85430427Y-68039313D01*
X85438878Y-68037971D01*
X85449252Y-68036841D01*
X85462274Y-68035898D01*
X85478668Y-68035120D01*
X85499158Y-68034484D01*
X85524471Y-68033966D01*
X85555331Y-68033542D01*
X85592463Y-68033190D01*
X85636591Y-68032887D01*
X85688441Y-68032609D01*
X85748737Y-68032332D01*
X85806845Y-68032083D01*
X86167641Y-68030547D01*
X86167641Y-68133214D01*
X85819076Y-68134782D01*
G37*
X85819076Y-68134782D02*
X85751810Y-68135099D01*
X85693608Y-68135414D01*
X85643751Y-68135749D01*
X85601519Y-68136123D01*
X85566191Y-68136556D01*
X85537048Y-68137069D01*
X85513371Y-68137681D01*
X85494438Y-68138412D01*
X85479531Y-68139283D01*
X85467929Y-68140313D01*
X85458913Y-68141523D01*
X85451763Y-68142932D01*
X85445759Y-68144562D01*
X85443604Y-68145251D01*
X85391635Y-68166967D01*
X85346479Y-68195536D01*
X85308037Y-68231078D01*
X85276211Y-68273713D01*
X85250901Y-68323560D01*
X85232010Y-68380739D01*
X85225226Y-68410657D01*
X85219920Y-68447946D01*
X85217036Y-68491436D01*
X85216545Y-68537858D01*
X85218418Y-68583940D01*
X85222626Y-68626412D01*
X85227361Y-68654227D01*
X85243486Y-68710866D01*
X85266352Y-68761970D01*
X85295464Y-68806838D01*
X85330327Y-68844773D01*
X85370446Y-68875074D01*
X85392236Y-68887101D01*
X85404105Y-68892931D01*
X85414786Y-68897991D01*
X85425037Y-68902336D01*
X85435617Y-68906027D01*
X85447283Y-68909120D01*
X85460795Y-68911674D01*
X85476910Y-68913746D01*
X85496387Y-68915395D01*
X85519983Y-68916678D01*
X85548458Y-68917654D01*
X85582569Y-68918380D01*
X85623074Y-68918914D01*
X85670732Y-68919315D01*
X85726301Y-68919639D01*
X85790539Y-68919946D01*
X85823968Y-68920101D01*
X86167641Y-68921707D01*
X86167641Y-69024368D01*
X85806845Y-69022833D01*
X85738842Y-69022540D01*
X85679898Y-69022265D01*
X85629288Y-69021984D01*
X85586288Y-69021675D01*
X85550173Y-69021314D01*
X85520217Y-69020877D01*
X85495696Y-69020342D01*
X85475886Y-69019685D01*
X85460060Y-69018883D01*
X85447495Y-69017913D01*
X85437466Y-69016752D01*
X85429246Y-69015375D01*
X85422113Y-69013761D01*
X85415340Y-69011885D01*
X85409359Y-69010078D01*
X85350182Y-68987273D01*
X85297318Y-68957020D01*
X85250828Y-68919396D01*
X85210771Y-68874478D01*
X85177210Y-68822346D01*
X85150205Y-68763075D01*
X85129816Y-68696744D01*
X85118137Y-68637531D01*
X85114877Y-68608331D01*
X85112760Y-68572578D01*
X85111812Y-68533444D01*
X85112061Y-68494096D01*
X85113534Y-68457704D01*
X85116261Y-68427436D01*
X85116295Y-68427169D01*
X85124135Y-68382753D01*
X85135988Y-68336253D01*
X85150699Y-68291646D01*
X85166783Y-68253578D01*
X85198521Y-68198119D01*
X85236052Y-68150511D01*
X85279615Y-68110545D01*
X85329450Y-68078017D01*
X85385797Y-68052718D01*
X85409359Y-68044838D01*
X85416392Y-68042723D01*
X85423173Y-68040889D01*
X85430427Y-68039313D01*
X85438878Y-68037971D01*
X85449252Y-68036841D01*
X85462274Y-68035898D01*
X85478668Y-68035120D01*
X85499158Y-68034484D01*
X85524471Y-68033966D01*
X85555331Y-68033542D01*
X85592463Y-68033190D01*
X85636591Y-68032887D01*
X85688441Y-68032609D01*
X85748737Y-68032332D01*
X85806845Y-68032083D01*
X86167641Y-68030547D01*
X86167641Y-68133214D01*
X85819076Y-68134782D01*
G36*
X86199735Y-65252347D02*
G01*
X86198009Y-65294846D01*
X86194918Y-65332395D01*
X86190520Y-65362242D01*
X86173313Y-65433406D01*
X86151544Y-65496206D01*
X86124972Y-65551054D01*
X86093356Y-65598363D01*
X86056457Y-65638547D01*
X86014034Y-65672019D01*
X86008091Y-65675905D01*
X85991795Y-65685221D01*
X85972229Y-65694758D01*
X85951468Y-65703715D01*
X85931583Y-65711292D01*
X85914647Y-65716687D01*
X85902734Y-65719098D01*
X85898238Y-65718369D01*
X85894894Y-65712366D01*
X85888995Y-65699477D01*
X85881540Y-65681935D01*
X85877257Y-65671410D01*
X85869365Y-65651228D01*
X85865007Y-65638278D01*
X85863839Y-65630807D01*
X85865516Y-65627064D01*
X85868276Y-65625699D01*
X85912712Y-65607800D01*
X85951483Y-65583724D01*
X85987213Y-65551791D01*
X85992449Y-65546244D01*
X86026067Y-65502833D01*
X86053446Y-65452086D01*
X86074503Y-65394277D01*
X86089153Y-65329678D01*
X86097312Y-65258562D01*
X86099122Y-65201538D01*
X86096541Y-65130783D01*
X86088956Y-65066474D01*
X86076506Y-65008990D01*
X86059335Y-64958711D01*
X86037583Y-64916016D01*
X86011393Y-64881287D01*
X85980905Y-64854901D01*
X85966575Y-64846249D01*
X85947391Y-64836850D01*
X85931450Y-64831721D01*
X85913917Y-64829611D01*
X85901019Y-64829277D01*
X85870511Y-64831598D01*
X85846203Y-64839888D01*
X85825781Y-64855295D01*
X85809998Y-64874491D01*
X85798911Y-64892280D01*
X85788973Y-64912864D01*
X85779994Y-64937099D01*
X85771786Y-64965841D01*
X85764163Y-64999947D01*
X85756936Y-65040273D01*
X85749917Y-65087673D01*
X85742918Y-65143006D01*
X85735751Y-65207126D01*
X85734611Y-65217924D01*
X85726479Y-65291167D01*
X85718310Y-65355469D01*
X85709908Y-65411672D01*
X85701082Y-65460618D01*
X85691637Y-65503149D01*
X85681380Y-65540106D01*
X85670117Y-65572333D01*
X85657655Y-65600670D01*
X85643801Y-65625959D01*
X85639139Y-65633396D01*
X85610508Y-65671191D01*
X85578971Y-65699899D01*
X85543659Y-65720002D01*
X85503697Y-65731984D01*
X85458216Y-65736328D01*
X85453388Y-65736361D01*
X85400069Y-65731928D01*
X85350770Y-65718596D01*
X85305202Y-65696250D01*
X85263076Y-65664774D01*
X85255202Y-65657529D01*
X85219163Y-65618288D01*
X85188433Y-65573755D01*
X85162597Y-65523060D01*
X85141240Y-65465335D01*
X85123949Y-65399708D01*
X85117618Y-65368615D01*
X85114710Y-65347558D01*
X85112239Y-65318972D01*
X85110264Y-65285106D01*
X85108839Y-65248207D01*
X85108023Y-65210524D01*
X85107872Y-65174304D01*
X85108443Y-65141797D01*
X85109794Y-65115250D01*
X85110913Y-65103815D01*
X85123459Y-65028491D01*
X85141308Y-64959787D01*
X85164264Y-64898059D01*
X85192132Y-64843660D01*
X85224718Y-64796946D01*
X85261826Y-64758272D01*
X85303262Y-64727992D01*
X85323247Y-64717210D01*
X85345766Y-64707306D01*
X85368004Y-64699272D01*
X85387945Y-64693656D01*
X85403568Y-64691004D01*
X85412857Y-64691863D01*
X85413925Y-64692659D01*
X85417359Y-64698832D01*
X85423393Y-64711802D01*
X85430986Y-64729287D01*
X85434927Y-64738732D01*
X85452154Y-64780552D01*
X85418276Y-64791226D01*
X85375390Y-64809745D01*
X85337180Y-64836620D01*
X85303807Y-64871531D01*
X85275428Y-64914156D01*
X85252200Y-64964175D01*
X85234284Y-65021265D01*
X85221836Y-65085106D01*
X85215016Y-65155377D01*
X85213673Y-65206450D01*
X85216018Y-65278809D01*
X85223220Y-65343841D01*
X85235535Y-65402853D01*
X85253217Y-65457151D01*
X85269827Y-65494903D01*
X85294929Y-65537582D01*
X85324235Y-65572244D01*
X85357259Y-65598362D01*
X85373430Y-65607298D01*
X85389256Y-65614284D01*
X85403513Y-65618484D01*
X85419782Y-65620591D01*
X85441643Y-65621295D01*
X85446050Y-65621324D01*
X85473065Y-65620593D01*
X85493301Y-65617386D01*
X85509668Y-65610616D01*
X85525073Y-65599193D01*
X85537621Y-65587047D01*
X85551921Y-65570110D01*
X85564685Y-65549954D01*
X85576090Y-65525844D01*
X85586311Y-65497042D01*
X85595523Y-65462812D01*
X85603902Y-65422418D01*
X85611623Y-65375123D01*
X85618863Y-65320190D01*
X85625796Y-65256883D01*
X85632018Y-65191017D01*
X85639224Y-65117706D01*
X85647070Y-65053323D01*
X85655724Y-64997026D01*
X85665352Y-64947970D01*
X85676123Y-64905313D01*
X85688203Y-64868210D01*
X85701759Y-64835818D01*
X85702878Y-64833477D01*
X85727049Y-64791498D01*
X85754901Y-64758467D01*
X85786768Y-64734141D01*
X85822984Y-64718272D01*
X85863885Y-64710617D01*
X85871108Y-64710126D01*
X85921938Y-64711901D01*
X85969097Y-64722665D01*
X86012464Y-64742291D01*
X86051922Y-64770650D01*
X86087349Y-64807615D01*
X86118626Y-64853057D01*
X86145633Y-64906850D01*
X86168251Y-64968864D01*
X86186360Y-65038973D01*
X86188449Y-65049029D01*
X86193309Y-65080522D01*
X86196884Y-65118984D01*
X86199157Y-65162032D01*
X86200113Y-65207280D01*
X86199735Y-65252347D01*
G37*
X86199735Y-65252347D02*
X86198009Y-65294846D01*
X86194918Y-65332395D01*
X86190520Y-65362242D01*
X86173313Y-65433406D01*
X86151544Y-65496206D01*
X86124972Y-65551054D01*
X86093356Y-65598363D01*
X86056457Y-65638547D01*
X86014034Y-65672019D01*
X86008091Y-65675905D01*
X85991795Y-65685221D01*
X85972229Y-65694758D01*
X85951468Y-65703715D01*
X85931583Y-65711292D01*
X85914647Y-65716687D01*
X85902734Y-65719098D01*
X85898238Y-65718369D01*
X85894894Y-65712366D01*
X85888995Y-65699477D01*
X85881540Y-65681935D01*
X85877257Y-65671410D01*
X85869365Y-65651228D01*
X85865007Y-65638278D01*
X85863839Y-65630807D01*
X85865516Y-65627064D01*
X85868276Y-65625699D01*
X85912712Y-65607800D01*
X85951483Y-65583724D01*
X85987213Y-65551791D01*
X85992449Y-65546244D01*
X86026067Y-65502833D01*
X86053446Y-65452086D01*
X86074503Y-65394277D01*
X86089153Y-65329678D01*
X86097312Y-65258562D01*
X86099122Y-65201538D01*
X86096541Y-65130783D01*
X86088956Y-65066474D01*
X86076506Y-65008990D01*
X86059335Y-64958711D01*
X86037583Y-64916016D01*
X86011393Y-64881287D01*
X85980905Y-64854901D01*
X85966575Y-64846249D01*
X85947391Y-64836850D01*
X85931450Y-64831721D01*
X85913917Y-64829611D01*
X85901019Y-64829277D01*
X85870511Y-64831598D01*
X85846203Y-64839888D01*
X85825781Y-64855295D01*
X85809998Y-64874491D01*
X85798911Y-64892280D01*
X85788973Y-64912864D01*
X85779994Y-64937099D01*
X85771786Y-64965841D01*
X85764163Y-64999947D01*
X85756936Y-65040273D01*
X85749917Y-65087673D01*
X85742918Y-65143006D01*
X85735751Y-65207126D01*
X85734611Y-65217924D01*
X85726479Y-65291167D01*
X85718310Y-65355469D01*
X85709908Y-65411672D01*
X85701082Y-65460618D01*
X85691637Y-65503149D01*
X85681380Y-65540106D01*
X85670117Y-65572333D01*
X85657655Y-65600670D01*
X85643801Y-65625959D01*
X85639139Y-65633396D01*
X85610508Y-65671191D01*
X85578971Y-65699899D01*
X85543659Y-65720002D01*
X85503697Y-65731984D01*
X85458216Y-65736328D01*
X85453388Y-65736361D01*
X85400069Y-65731928D01*
X85350770Y-65718596D01*
X85305202Y-65696250D01*
X85263076Y-65664774D01*
X85255202Y-65657529D01*
X85219163Y-65618288D01*
X85188433Y-65573755D01*
X85162597Y-65523060D01*
X85141240Y-65465335D01*
X85123949Y-65399708D01*
X85117618Y-65368615D01*
X85114710Y-65347558D01*
X85112239Y-65318972D01*
X85110264Y-65285106D01*
X85108839Y-65248207D01*
X85108023Y-65210524D01*
X85107872Y-65174304D01*
X85108443Y-65141797D01*
X85109794Y-65115250D01*
X85110913Y-65103815D01*
X85123459Y-65028491D01*
X85141308Y-64959787D01*
X85164264Y-64898059D01*
X85192132Y-64843660D01*
X85224718Y-64796946D01*
X85261826Y-64758272D01*
X85303262Y-64727992D01*
X85323247Y-64717210D01*
X85345766Y-64707306D01*
X85368004Y-64699272D01*
X85387945Y-64693656D01*
X85403568Y-64691004D01*
X85412857Y-64691863D01*
X85413925Y-64692659D01*
X85417359Y-64698832D01*
X85423393Y-64711802D01*
X85430986Y-64729287D01*
X85434927Y-64738732D01*
X85452154Y-64780552D01*
X85418276Y-64791226D01*
X85375390Y-64809745D01*
X85337180Y-64836620D01*
X85303807Y-64871531D01*
X85275428Y-64914156D01*
X85252200Y-64964175D01*
X85234284Y-65021265D01*
X85221836Y-65085106D01*
X85215016Y-65155377D01*
X85213673Y-65206450D01*
X85216018Y-65278809D01*
X85223220Y-65343841D01*
X85235535Y-65402853D01*
X85253217Y-65457151D01*
X85269827Y-65494903D01*
X85294929Y-65537582D01*
X85324235Y-65572244D01*
X85357259Y-65598362D01*
X85373430Y-65607298D01*
X85389256Y-65614284D01*
X85403513Y-65618484D01*
X85419782Y-65620591D01*
X85441643Y-65621295D01*
X85446050Y-65621324D01*
X85473065Y-65620593D01*
X85493301Y-65617386D01*
X85509668Y-65610616D01*
X85525073Y-65599193D01*
X85537621Y-65587047D01*
X85551921Y-65570110D01*
X85564685Y-65549954D01*
X85576090Y-65525844D01*
X85586311Y-65497042D01*
X85595523Y-65462812D01*
X85603902Y-65422418D01*
X85611623Y-65375123D01*
X85618863Y-65320190D01*
X85625796Y-65256883D01*
X85632018Y-65191017D01*
X85639224Y-65117706D01*
X85647070Y-65053323D01*
X85655724Y-64997026D01*
X85665352Y-64947970D01*
X85676123Y-64905313D01*
X85688203Y-64868210D01*
X85701759Y-64835818D01*
X85702878Y-64833477D01*
X85727049Y-64791498D01*
X85754901Y-64758467D01*
X85786768Y-64734141D01*
X85822984Y-64718272D01*
X85863885Y-64710617D01*
X85871108Y-64710126D01*
X85921938Y-64711901D01*
X85969097Y-64722665D01*
X86012464Y-64742291D01*
X86051922Y-64770650D01*
X86087349Y-64807615D01*
X86118626Y-64853057D01*
X86145633Y-64906850D01*
X86168251Y-64968864D01*
X86186360Y-65038973D01*
X86188449Y-65049029D01*
X86193309Y-65080522D01*
X86196884Y-65118984D01*
X86199157Y-65162032D01*
X86200113Y-65207280D01*
X86199735Y-65252347D01*
G36*
X86201032Y-66881295D02*
G01*
X86198175Y-66926610D01*
X86194872Y-66951947D01*
X86178643Y-67024808D01*
X86154835Y-67091592D01*
X86123324Y-67152558D01*
X86083988Y-67207964D01*
X86060525Y-67234532D01*
X86010597Y-67280974D01*
X85956465Y-67319191D01*
X85897479Y-67349501D01*
X85832991Y-67372224D01*
X85762352Y-67387678D01*
X85742789Y-67390559D01*
X85710985Y-67393291D01*
X85673032Y-67394174D01*
X85632005Y-67393338D01*
X85590980Y-67390915D01*
X85553032Y-67387037D01*
X85521237Y-67381835D01*
X85516986Y-67380902D01*
X85446319Y-67360138D01*
X85381490Y-67331745D01*
X85322821Y-67296027D01*
X85270634Y-67253288D01*
X85225252Y-67203835D01*
X85186997Y-67147972D01*
X85156192Y-67086003D01*
X85133159Y-67018235D01*
X85133017Y-67017710D01*
X85126990Y-66992827D01*
X85121738Y-66966745D01*
X85118147Y-66943999D01*
X85117477Y-66938002D01*
X85114289Y-66904248D01*
X85014771Y-66907069D01*
X84915253Y-66909891D01*
X84915253Y-66793908D01*
X85015542Y-66796751D01*
X85115830Y-66799595D01*
X85115830Y-66784704D01*
X85117253Y-66766771D01*
X85121124Y-66742388D01*
X85126845Y-66714402D01*
X85133820Y-66685663D01*
X85141450Y-66659018D01*
X85143551Y-66652534D01*
X85170187Y-66587390D01*
X85204306Y-66528187D01*
X85245384Y-66475243D01*
X85292894Y-66428875D01*
X85346315Y-66389401D01*
X85405120Y-66357139D01*
X85468786Y-66332405D01*
X85536788Y-66315518D01*
X85608602Y-66306795D01*
X85651082Y-66306659D01*
X85651082Y-66412217D01*
X85584002Y-66416957D01*
X85520566Y-66430074D01*
X85461316Y-66451300D01*
X85406793Y-66480366D01*
X85357539Y-66517003D01*
X85314094Y-66560943D01*
X85277001Y-66611916D01*
X85257877Y-66646048D01*
X85249278Y-66665799D01*
X85240442Y-66690598D01*
X85232160Y-66717650D01*
X85225226Y-66744157D01*
X85220431Y-66767321D01*
X85218568Y-66784346D01*
X85218565Y-66784802D01*
X85218565Y-66799617D01*
X85362884Y-66796744D01*
X85507202Y-66793871D01*
X85507202Y-66910062D01*
X85360020Y-66907104D01*
X85212839Y-66904147D01*
X85216100Y-66928167D01*
X85219118Y-66945618D01*
X85223780Y-66967487D01*
X85228607Y-66987200D01*
X85249054Y-67046850D01*
X85277116Y-67100585D01*
X85312395Y-67148107D01*
X85354498Y-67189120D01*
X85403027Y-67223329D01*
X85457588Y-67250436D01*
X85517785Y-67270146D01*
X85583223Y-67282163D01*
X85627059Y-67285653D01*
X85699087Y-67284615D01*
X85766049Y-67275233D01*
X85828048Y-67257473D01*
X85885186Y-67231301D01*
X85937565Y-67196681D01*
X85970186Y-67168609D01*
X86011732Y-67123531D01*
X86044881Y-67074944D01*
X86069858Y-67022247D01*
X86086888Y-66964837D01*
X86096195Y-66902115D01*
X86098006Y-66833477D01*
X86097824Y-66827439D01*
X86095096Y-66781024D01*
X86089941Y-66741403D01*
X86081702Y-66705746D01*
X86069722Y-66671224D01*
X86053344Y-66635008D01*
X86052943Y-66634199D01*
X86021410Y-66580639D01*
X85983614Y-66534513D01*
X85939489Y-66495777D01*
X85888968Y-66464387D01*
X85831984Y-66440300D01*
X85768471Y-66423472D01*
X85721264Y-66416123D01*
X85651082Y-66412217D01*
X85651082Y-66306659D01*
X85683704Y-66306553D01*
X85711407Y-66308600D01*
X85788579Y-66319991D01*
X85859898Y-66339005D01*
X85925163Y-66365476D01*
X85984173Y-66399239D01*
X86036727Y-66440130D01*
X86082624Y-66487983D01*
X86121662Y-66542633D01*
X86153641Y-66603916D01*
X86178359Y-66671665D01*
X86185490Y-66697797D01*
X86193181Y-66737524D01*
X86198415Y-66783510D01*
X86201072Y-66832514D01*
X86201032Y-66881295D01*
G37*
X86201032Y-66881295D02*
X86198175Y-66926610D01*
X86194872Y-66951947D01*
X86178643Y-67024808D01*
X86154835Y-67091592D01*
X86123324Y-67152558D01*
X86083988Y-67207964D01*
X86060525Y-67234532D01*
X86010597Y-67280974D01*
X85956465Y-67319191D01*
X85897479Y-67349501D01*
X85832991Y-67372224D01*
X85762352Y-67387678D01*
X85742789Y-67390559D01*
X85710985Y-67393291D01*
X85673032Y-67394174D01*
X85632005Y-67393338D01*
X85590980Y-67390915D01*
X85553032Y-67387037D01*
X85521237Y-67381835D01*
X85516986Y-67380902D01*
X85446319Y-67360138D01*
X85381490Y-67331745D01*
X85322821Y-67296027D01*
X85270634Y-67253288D01*
X85225252Y-67203835D01*
X85186997Y-67147972D01*
X85156192Y-67086003D01*
X85133159Y-67018235D01*
X85133017Y-67017710D01*
X85126990Y-66992827D01*
X85121738Y-66966745D01*
X85118147Y-66943999D01*
X85117477Y-66938002D01*
X85114289Y-66904248D01*
X85014771Y-66907069D01*
X84915253Y-66909891D01*
X84915253Y-66793908D01*
X85015542Y-66796751D01*
X85115830Y-66799595D01*
X85115830Y-66784704D01*
X85117253Y-66766771D01*
X85121124Y-66742388D01*
X85126845Y-66714402D01*
X85133820Y-66685663D01*
X85141450Y-66659018D01*
X85143551Y-66652534D01*
X85170187Y-66587390D01*
X85204306Y-66528187D01*
X85245384Y-66475243D01*
X85292894Y-66428875D01*
X85346315Y-66389401D01*
X85405120Y-66357139D01*
X85468786Y-66332405D01*
X85536788Y-66315518D01*
X85608602Y-66306795D01*
X85651082Y-66306659D01*
X85651082Y-66412217D01*
X85584002Y-66416957D01*
X85520566Y-66430074D01*
X85461316Y-66451300D01*
X85406793Y-66480366D01*
X85357539Y-66517003D01*
X85314094Y-66560943D01*
X85277001Y-66611916D01*
X85257877Y-66646048D01*
X85249278Y-66665799D01*
X85240442Y-66690598D01*
X85232160Y-66717650D01*
X85225226Y-66744157D01*
X85220431Y-66767321D01*
X85218568Y-66784346D01*
X85218565Y-66784802D01*
X85218565Y-66799617D01*
X85362884Y-66796744D01*
X85507202Y-66793871D01*
X85507202Y-66910062D01*
X85360020Y-66907104D01*
X85212839Y-66904147D01*
X85216100Y-66928167D01*
X85219118Y-66945618D01*
X85223780Y-66967487D01*
X85228607Y-66987200D01*
X85249054Y-67046850D01*
X85277116Y-67100585D01*
X85312395Y-67148107D01*
X85354498Y-67189120D01*
X85403027Y-67223329D01*
X85457588Y-67250436D01*
X85517785Y-67270146D01*
X85583223Y-67282163D01*
X85627059Y-67285653D01*
X85699087Y-67284615D01*
X85766049Y-67275233D01*
X85828048Y-67257473D01*
X85885186Y-67231301D01*
X85937565Y-67196681D01*
X85970186Y-67168609D01*
X86011732Y-67123531D01*
X86044881Y-67074944D01*
X86069858Y-67022247D01*
X86086888Y-66964837D01*
X86096195Y-66902115D01*
X86098006Y-66833477D01*
X86097824Y-66827439D01*
X86095096Y-66781024D01*
X86089941Y-66741403D01*
X86081702Y-66705746D01*
X86069722Y-66671224D01*
X86053344Y-66635008D01*
X86052943Y-66634199D01*
X86021410Y-66580639D01*
X85983614Y-66534513D01*
X85939489Y-66495777D01*
X85888968Y-66464387D01*
X85831984Y-66440300D01*
X85768471Y-66423472D01*
X85721264Y-66416123D01*
X85651082Y-66412217D01*
X85651082Y-66306659D01*
X85683704Y-66306553D01*
X85711407Y-66308600D01*
X85788579Y-66319991D01*
X85859898Y-66339005D01*
X85925163Y-66365476D01*
X85984173Y-66399239D01*
X86036727Y-66440130D01*
X86082624Y-66487983D01*
X86121662Y-66542633D01*
X86153641Y-66603916D01*
X86178359Y-66671665D01*
X86185490Y-66697797D01*
X86193181Y-66737524D01*
X86198415Y-66783510D01*
X86201072Y-66832514D01*
X86201032Y-66881295D01*
D10*
%TO.C,XA1*%
X82169000Y-35306000D02*
X179705000Y-35306000D01*
X82169000Y-88646000D02*
X179705000Y-88646000D01*
X179705000Y-35306000D02*
X181229000Y-36830000D01*
X181229000Y-48006000D02*
X181229000Y-36830000D01*
X82169000Y-35306000D02*
X82169000Y-88646000D01*
X181229000Y-48006000D02*
X181229000Y-87122000D01*
X179705000Y-88646000D02*
X181229000Y-87122000D01*
D11*
%TO.C,C1*%
X167775200Y-48966600D02*
X167775200Y-48261600D01*
X167775200Y-51001600D02*
X167775200Y-50296600D01*
X172015200Y-48966600D02*
X172015200Y-48261600D01*
X172015200Y-51001600D02*
X172015200Y-50296600D01*
X172015200Y-48261600D02*
X167775200Y-48261600D01*
X172015200Y-51001600D02*
X167775200Y-51001600D01*
%TO.C,R1*%
X158909000Y-53367000D02*
X158909000Y-53697000D01*
X165449000Y-53367000D02*
X158909000Y-53367000D01*
X165449000Y-53697000D02*
X165449000Y-53367000D01*
X158909000Y-56107000D02*
X158909000Y-55777000D01*
X165449000Y-56107000D02*
X158909000Y-56107000D01*
X165449000Y-55777000D02*
X165449000Y-56107000D01*
%TO.C,D1*%
X163890400Y-61058400D02*
X163890400Y-58118400D01*
X163650400Y-61058400D02*
X163650400Y-58118400D01*
X163770400Y-61058400D02*
X163770400Y-58118400D01*
X158210400Y-59588400D02*
X159230400Y-59588400D01*
X165690400Y-59588400D02*
X164670400Y-59588400D01*
X159230400Y-61058400D02*
X164670400Y-61058400D01*
X159230400Y-58118400D02*
X159230400Y-61058400D01*
X164670400Y-58118400D02*
X159230400Y-58118400D01*
X164670400Y-61058400D02*
X164670400Y-58118400D01*
%TO.C,D2*%
X155241600Y-51095200D02*
X152301600Y-51095200D01*
X155241600Y-51335200D02*
X152301600Y-51335200D01*
X155241600Y-51215200D02*
X152301600Y-51215200D01*
X153771600Y-56775200D02*
X153771600Y-55755200D01*
X153771600Y-49295200D02*
X153771600Y-50315200D01*
X155241600Y-55755200D02*
X155241600Y-50315200D01*
X152301600Y-55755200D02*
X155241600Y-55755200D01*
X152301600Y-50315200D02*
X152301600Y-55755200D01*
X155241600Y-50315200D02*
X152301600Y-50315200D01*
D13*
%TO.C,D4*%
X173253200Y-57026800D02*
X173253200Y-56776800D01*
X173253200Y-54326800D02*
X173253200Y-54576800D01*
X170653200Y-57526800D02*
G75*
G02*
X169803200Y-56676800I1000000J1850000D01*
G01*
X169803200Y-54676800D02*
G75*
G02*
X170653200Y-53826800I1850000J-1000000D01*
G01*
X173260485Y-57032947D02*
G75*
G02*
X172653200Y-57526800I-1607285J1356147D01*
G01*
X172648667Y-53835185D02*
G75*
G02*
X173253200Y-54326800I-995467J-1841615D01*
G01*
D11*
%TO.C,R2*%
X173640000Y-64048400D02*
X173640000Y-60208400D01*
X171800000Y-64048400D02*
X171800000Y-60208400D01*
D13*
%TO.C,D5*%
X146634000Y-66468000D02*
X146634000Y-66718000D01*
X146634000Y-69168000D02*
X146634000Y-68918000D01*
X144034000Y-69668000D02*
G75*
G02*
X143184000Y-68818000I1000000J1850000D01*
G01*
X143184000Y-66818000D02*
G75*
G02*
X144034000Y-65968000I1850000J-1000000D01*
G01*
X146641285Y-69174147D02*
G75*
G02*
X146034000Y-69668000I-1607285J1356147D01*
G01*
X146029467Y-65976385D02*
G75*
G02*
X146634000Y-66468000I-995467J-1841615D01*
G01*
D11*
%TO.C,J5*%
X145856000Y-76962000D02*
X143196000Y-76962000D01*
X145856000Y-76962000D02*
X145856000Y-71822000D01*
X145856000Y-71822000D02*
X143196000Y-71822000D01*
X143196000Y-76962000D02*
X143196000Y-71822000D01*
X143196000Y-79562000D02*
X143196000Y-78232000D01*
X144526000Y-79562000D02*
X143196000Y-79562000D01*
%TO.C,J10*%
X140716000Y-80966000D02*
X140716000Y-83626000D01*
X140716000Y-80966000D02*
X127956000Y-80966000D01*
X127956000Y-80966000D02*
X127956000Y-83626000D01*
X140716000Y-83626000D02*
X127956000Y-83626000D01*
X143316000Y-83626000D02*
X141986000Y-83626000D01*
X143316000Y-82296000D02*
X143316000Y-83626000D01*
%TO.C,R3*%
X148940000Y-73802000D02*
X148940000Y-69962000D01*
X150780000Y-73802000D02*
X150780000Y-69962000D01*
%TO.C,J3*%
X84268000Y-25400000D02*
X84268000Y-24070000D01*
X84268000Y-24070000D02*
X85598000Y-24070000D01*
X84268000Y-26670000D02*
X86868000Y-26670000D01*
X86868000Y-26670000D02*
X86868000Y-24070000D01*
X86868000Y-24070000D02*
X89468000Y-24070000D01*
X89468000Y-29270000D02*
X89468000Y-24070000D01*
X84268000Y-29270000D02*
X89468000Y-29270000D01*
X84268000Y-29270000D02*
X84268000Y-26670000D01*
%TO.C,J4*%
X104334000Y-25400000D02*
X104334000Y-24070000D01*
X104334000Y-24070000D02*
X105664000Y-24070000D01*
X104334000Y-26670000D02*
X106934000Y-26670000D01*
X106934000Y-26670000D02*
X106934000Y-24070000D01*
X106934000Y-24070000D02*
X109534000Y-24070000D01*
X109534000Y-29270000D02*
X109534000Y-24070000D01*
X104334000Y-29270000D02*
X109534000Y-29270000D01*
X104334000Y-29270000D02*
X104334000Y-26670000D01*
%TO.C,J1*%
X122368000Y-25400000D02*
X122368000Y-24070000D01*
X122368000Y-24070000D02*
X123698000Y-24070000D01*
X122368000Y-26670000D02*
X124968000Y-26670000D01*
X124968000Y-26670000D02*
X124968000Y-24070000D01*
X124968000Y-24070000D02*
X127568000Y-24070000D01*
X127568000Y-29270000D02*
X127568000Y-24070000D01*
X122368000Y-29270000D02*
X127568000Y-29270000D01*
X122368000Y-29270000D02*
X122368000Y-26670000D01*
%TO.C,J12*%
X93920000Y-29210000D02*
X93920000Y-27880000D01*
X93920000Y-27880000D02*
X95250000Y-27880000D01*
X96520000Y-27880000D02*
X101660000Y-27880000D01*
X101660000Y-30540000D02*
X101660000Y-27880000D01*
X96520000Y-30540000D02*
X101660000Y-30540000D01*
X96520000Y-30540000D02*
X96520000Y-27880000D01*
%TO.C,J11*%
X120710000Y-81788000D02*
X120710000Y-83118000D01*
X120710000Y-83118000D02*
X119380000Y-83118000D01*
X118110000Y-83118000D02*
X115510000Y-83118000D01*
X115510000Y-80458000D02*
X115510000Y-83118000D01*
X118110000Y-80458000D02*
X115510000Y-80458000D01*
X118110000Y-80458000D02*
X118110000Y-83118000D01*
%TD*%
%TO.C,D3*%
D10*
X108227904Y-40132380D02*
X108227904Y-39132380D01*
X108466000Y-39132380D01*
X108608857Y-39180000D01*
X108704095Y-39275238D01*
X108751714Y-39370476D01*
X108799333Y-39560952D01*
X108799333Y-39703809D01*
X108751714Y-39894285D01*
X108704095Y-39989523D01*
X108608857Y-40084761D01*
X108466000Y-40132380D01*
X108227904Y-40132380D01*
X109132666Y-39132380D02*
X109751714Y-39132380D01*
X109418380Y-39513333D01*
X109561238Y-39513333D01*
X109656476Y-39560952D01*
X109704095Y-39608571D01*
X109751714Y-39703809D01*
X109751714Y-39941904D01*
X109704095Y-40037142D01*
X109656476Y-40084761D01*
X109561238Y-40132380D01*
X109275523Y-40132380D01*
X109180285Y-40084761D01*
X109132666Y-40037142D01*
%TO.C,J7*%
X172132666Y-81748380D02*
X172132666Y-82462666D01*
X172085047Y-82605523D01*
X171989809Y-82700761D01*
X171846952Y-82748380D01*
X171751714Y-82748380D01*
X172513619Y-81748380D02*
X173180285Y-81748380D01*
X172751714Y-82748380D01*
%TO.C,J8*%
X140676380Y-50117333D02*
X141390666Y-50117333D01*
X141533523Y-50164952D01*
X141628761Y-50260190D01*
X141676380Y-50403047D01*
X141676380Y-50498285D01*
X141104952Y-49498285D02*
X141057333Y-49593523D01*
X141009714Y-49641142D01*
X140914476Y-49688761D01*
X140866857Y-49688761D01*
X140771619Y-49641142D01*
X140724000Y-49593523D01*
X140676380Y-49498285D01*
X140676380Y-49307809D01*
X140724000Y-49212571D01*
X140771619Y-49164952D01*
X140866857Y-49117333D01*
X140914476Y-49117333D01*
X141009714Y-49164952D01*
X141057333Y-49212571D01*
X141104952Y-49307809D01*
X141104952Y-49498285D01*
X141152571Y-49593523D01*
X141200190Y-49641142D01*
X141295428Y-49688761D01*
X141485904Y-49688761D01*
X141581142Y-49641142D01*
X141628761Y-49593523D01*
X141676380Y-49498285D01*
X141676380Y-49307809D01*
X141628761Y-49212571D01*
X141581142Y-49164952D01*
X141485904Y-49117333D01*
X141295428Y-49117333D01*
X141200190Y-49164952D01*
X141152571Y-49212571D01*
X141104952Y-49307809D01*
%TO.C,J2*%
X91982966Y-55611780D02*
X91982966Y-56326066D01*
X91935347Y-56468923D01*
X91840109Y-56564161D01*
X91697252Y-56611780D01*
X91602014Y-56611780D01*
X92411538Y-55707019D02*
X92459157Y-55659400D01*
X92554395Y-55611780D01*
X92792490Y-55611780D01*
X92887728Y-55659400D01*
X92935347Y-55707019D01*
X92982966Y-55802257D01*
X92982966Y-55897495D01*
X92935347Y-56040352D01*
X92363919Y-56611780D01*
X92982966Y-56611780D01*
%TO.C,J9*%
X156740266Y-19670780D02*
X156740266Y-20385066D01*
X156692647Y-20527923D01*
X156597409Y-20623161D01*
X156454552Y-20670780D01*
X156359314Y-20670780D01*
X157264076Y-20670780D02*
X157454552Y-20670780D01*
X157549790Y-20623161D01*
X157597409Y-20575542D01*
X157692647Y-20432685D01*
X157740266Y-20242209D01*
X157740266Y-19861257D01*
X157692647Y-19766019D01*
X157645028Y-19718400D01*
X157549790Y-19670780D01*
X157359314Y-19670780D01*
X157264076Y-19718400D01*
X157216457Y-19766019D01*
X157168838Y-19861257D01*
X157168838Y-20099352D01*
X157216457Y-20194590D01*
X157264076Y-20242209D01*
X157359314Y-20289828D01*
X157549790Y-20289828D01*
X157645028Y-20242209D01*
X157692647Y-20194590D01*
X157740266Y-20099352D01*
%TO.C,J6*%
X137664866Y-21194780D02*
X137664866Y-21909066D01*
X137617247Y-22051923D01*
X137522009Y-22147161D01*
X137379152Y-22194780D01*
X137283914Y-22194780D01*
X138569628Y-21194780D02*
X138379152Y-21194780D01*
X138283914Y-21242400D01*
X138236295Y-21290019D01*
X138141057Y-21432876D01*
X138093438Y-21623352D01*
X138093438Y-22004304D01*
X138141057Y-22099542D01*
X138188676Y-22147161D01*
X138283914Y-22194780D01*
X138474390Y-22194780D01*
X138569628Y-22147161D01*
X138617247Y-22099542D01*
X138664866Y-22004304D01*
X138664866Y-21766209D01*
X138617247Y-21670971D01*
X138569628Y-21623352D01*
X138474390Y-21575733D01*
X138283914Y-21575733D01*
X138188676Y-21623352D01*
X138141057Y-21670971D01*
X138093438Y-21766209D01*
%TO.C,U1*%
X164907980Y-46989904D02*
X165717504Y-46989904D01*
X165812742Y-46942285D01*
X165860361Y-46894666D01*
X165907980Y-46799428D01*
X165907980Y-46608952D01*
X165860361Y-46513714D01*
X165812742Y-46466095D01*
X165717504Y-46418476D01*
X164907980Y-46418476D01*
X165907980Y-45418476D02*
X165907980Y-45989904D01*
X165907980Y-45704190D02*
X164907980Y-45704190D01*
X165050838Y-45799428D01*
X165146076Y-45894666D01*
X165193695Y-45989904D01*
%TO.C,XA1*%
X83470904Y-33742380D02*
X84137571Y-34742380D01*
X84137571Y-33742380D02*
X83470904Y-34742380D01*
X84470904Y-34456666D02*
X84947095Y-34456666D01*
X84375666Y-34742380D02*
X84709000Y-33742380D01*
X85042333Y-34742380D01*
X85899476Y-34742380D02*
X85328047Y-34742380D01*
X85613761Y-34742380D02*
X85613761Y-33742380D01*
X85518523Y-33885238D01*
X85423285Y-33980476D01*
X85328047Y-34028095D01*
X144653000Y-56999142D02*
X144700619Y-57046761D01*
X144653000Y-57094380D01*
X144605380Y-57046761D01*
X144653000Y-56999142D01*
X144653000Y-57094380D01*
%TO.C,C1*%
X172959733Y-50090342D02*
X172912114Y-50137961D01*
X172769257Y-50185580D01*
X172674019Y-50185580D01*
X172531161Y-50137961D01*
X172435923Y-50042723D01*
X172388304Y-49947485D01*
X172340685Y-49757009D01*
X172340685Y-49614152D01*
X172388304Y-49423676D01*
X172435923Y-49328438D01*
X172531161Y-49233200D01*
X172674019Y-49185580D01*
X172769257Y-49185580D01*
X172912114Y-49233200D01*
X172959733Y-49280819D01*
X173912114Y-50185580D02*
X173340685Y-50185580D01*
X173626400Y-50185580D02*
X173626400Y-49185580D01*
X173531161Y-49328438D01*
X173435923Y-49423676D01*
X173340685Y-49471295D01*
%TO.C,R1*%
X162012333Y-55189380D02*
X161679000Y-54713190D01*
X161440904Y-55189380D02*
X161440904Y-54189380D01*
X161821857Y-54189380D01*
X161917095Y-54237000D01*
X161964714Y-54284619D01*
X162012333Y-54379857D01*
X162012333Y-54522714D01*
X161964714Y-54617952D01*
X161917095Y-54665571D01*
X161821857Y-54713190D01*
X161440904Y-54713190D01*
X162964714Y-55189380D02*
X162393285Y-55189380D01*
X162679000Y-55189380D02*
X162679000Y-54189380D01*
X162583761Y-54332238D01*
X162488523Y-54427476D01*
X162393285Y-54475095D01*
%TO.C,D1*%
X160809305Y-60014781D02*
X160809305Y-59014781D01*
X161047401Y-59014781D01*
X161190258Y-59062401D01*
X161285496Y-59157639D01*
X161333115Y-59252877D01*
X161380734Y-59443353D01*
X161380734Y-59586210D01*
X161333115Y-59776686D01*
X161285496Y-59871924D01*
X161190258Y-59967162D01*
X161047401Y-60014781D01*
X160809305Y-60014781D01*
X162333115Y-60014781D02*
X161761686Y-60014781D01*
X162047401Y-60014781D02*
X162047401Y-59014781D01*
X161952162Y-59157639D01*
X161856924Y-59252877D01*
X161761686Y-59300496D01*
X166768495Y-62140780D02*
X166768495Y-61140780D01*
X167339923Y-62140780D02*
X166911352Y-61569352D01*
X167339923Y-61140780D02*
X166768495Y-61712209D01*
%TO.C,D2*%
X154256981Y-54176294D02*
X153256981Y-54176294D01*
X153256981Y-53938199D01*
X153304601Y-53795341D01*
X153399839Y-53700103D01*
X153495077Y-53652484D01*
X153685553Y-53604865D01*
X153828410Y-53604865D01*
X154018886Y-53652484D01*
X154114124Y-53700103D01*
X154209362Y-53795341D01*
X154256981Y-53938199D01*
X154256981Y-54176294D01*
X153352220Y-53223913D02*
X153304601Y-53176294D01*
X153256981Y-53081056D01*
X153256981Y-52842960D01*
X153304601Y-52747722D01*
X153352220Y-52700103D01*
X153447458Y-52652484D01*
X153542696Y-52652484D01*
X153685553Y-52700103D01*
X154256981Y-53271532D01*
X154256981Y-52652484D01*
X156323980Y-48217104D02*
X155323980Y-48217104D01*
X156323980Y-47645676D02*
X155752552Y-48074247D01*
X155323980Y-47645676D02*
X155895409Y-48217104D01*
%TO.C,D4*%
X170965904Y-54198780D02*
X170965904Y-53198780D01*
X171204000Y-53198780D01*
X171346857Y-53246400D01*
X171442095Y-53341638D01*
X171489714Y-53436876D01*
X171537333Y-53627352D01*
X171537333Y-53770209D01*
X171489714Y-53960685D01*
X171442095Y-54055923D01*
X171346857Y-54151161D01*
X171204000Y-54198780D01*
X170965904Y-54198780D01*
X172394476Y-53532114D02*
X172394476Y-54198780D01*
X172156380Y-53151161D02*
X171918285Y-53865447D01*
X172537333Y-53865447D01*
%TO.C,R2*%
X173172380Y-62396666D02*
X172696190Y-62730000D01*
X173172380Y-62968095D02*
X172172380Y-62968095D01*
X172172380Y-62587142D01*
X172220000Y-62491904D01*
X172267619Y-62444285D01*
X172362857Y-62396666D01*
X172505714Y-62396666D01*
X172600952Y-62444285D01*
X172648571Y-62491904D01*
X172696190Y-62587142D01*
X172696190Y-62968095D01*
X172267619Y-62015714D02*
X172220000Y-61968095D01*
X172172380Y-61872857D01*
X172172380Y-61634761D01*
X172220000Y-61539523D01*
X172267619Y-61491904D01*
X172362857Y-61444285D01*
X172458095Y-61444285D01*
X172600952Y-61491904D01*
X173172380Y-62063333D01*
X173172380Y-61444285D01*
%TO.C,D5*%
X145565904Y-63190380D02*
X145565904Y-62190380D01*
X145804000Y-62190380D01*
X145946857Y-62238000D01*
X146042095Y-62333238D01*
X146089714Y-62428476D01*
X146137333Y-62618952D01*
X146137333Y-62761809D01*
X146089714Y-62952285D01*
X146042095Y-63047523D01*
X145946857Y-63142761D01*
X145804000Y-63190380D01*
X145565904Y-63190380D01*
X147042095Y-62190380D02*
X146565904Y-62190380D01*
X146518285Y-62666571D01*
X146565904Y-62618952D01*
X146661142Y-62571333D01*
X146899238Y-62571333D01*
X146994476Y-62618952D01*
X147042095Y-62666571D01*
X147089714Y-62761809D01*
X147089714Y-62999904D01*
X147042095Y-63095142D01*
X146994476Y-63142761D01*
X146899238Y-63190380D01*
X146661142Y-63190380D01*
X146565904Y-63142761D01*
X146518285Y-63095142D01*
%TO.C,J5*%
X144192666Y-70572380D02*
X144192666Y-71286666D01*
X144145047Y-71429523D01*
X144049809Y-71524761D01*
X143906952Y-71572380D01*
X143811714Y-71572380D01*
X145145047Y-70572380D02*
X144668857Y-70572380D01*
X144621238Y-71048571D01*
X144668857Y-71000952D01*
X144764095Y-70953333D01*
X145002190Y-70953333D01*
X145097428Y-71000952D01*
X145145047Y-71048571D01*
X145192666Y-71143809D01*
X145192666Y-71381904D01*
X145145047Y-71477142D01*
X145097428Y-71524761D01*
X145002190Y-71572380D01*
X144764095Y-71572380D01*
X144668857Y-71524761D01*
X144621238Y-71477142D01*
%TO.C,J10*%
X126198380Y-83105523D02*
X126912666Y-83105523D01*
X127055523Y-83153142D01*
X127150761Y-83248380D01*
X127198380Y-83391238D01*
X127198380Y-83486476D01*
X127198380Y-82105523D02*
X127198380Y-82676952D01*
X127198380Y-82391238D02*
X126198380Y-82391238D01*
X126341238Y-82486476D01*
X126436476Y-82581714D01*
X126484095Y-82676952D01*
X126198380Y-81486476D02*
X126198380Y-81391238D01*
X126246000Y-81296000D01*
X126293619Y-81248380D01*
X126388857Y-81200761D01*
X126579333Y-81153142D01*
X126817428Y-81153142D01*
X127007904Y-81200761D01*
X127103142Y-81248380D01*
X127150761Y-81296000D01*
X127198380Y-81391238D01*
X127198380Y-81486476D01*
X127150761Y-81581714D01*
X127103142Y-81629333D01*
X127007904Y-81676952D01*
X126817428Y-81724571D01*
X126579333Y-81724571D01*
X126388857Y-81676952D01*
X126293619Y-81629333D01*
X126246000Y-81581714D01*
X126198380Y-81486476D01*
%TO.C,R3*%
X150312380Y-72302666D02*
X149836190Y-72636000D01*
X150312380Y-72874095D02*
X149312380Y-72874095D01*
X149312380Y-72493142D01*
X149360000Y-72397904D01*
X149407619Y-72350285D01*
X149502857Y-72302666D01*
X149645714Y-72302666D01*
X149740952Y-72350285D01*
X149788571Y-72397904D01*
X149836190Y-72493142D01*
X149836190Y-72874095D01*
X149312380Y-71969333D02*
X149312380Y-71350285D01*
X149693333Y-71683619D01*
X149693333Y-71540761D01*
X149740952Y-71445523D01*
X149788571Y-71397904D01*
X149883809Y-71350285D01*
X150121904Y-71350285D01*
X150217142Y-71397904D01*
X150264761Y-71445523D01*
X150312380Y-71540761D01*
X150312380Y-71826476D01*
X150264761Y-71921714D01*
X150217142Y-71969333D01*
%TO.C,J3*%
X82280380Y-27003333D02*
X82994666Y-27003333D01*
X83137523Y-27050952D01*
X83232761Y-27146190D01*
X83280380Y-27289047D01*
X83280380Y-27384285D01*
X82280380Y-26622380D02*
X82280380Y-26003333D01*
X82661333Y-26336666D01*
X82661333Y-26193809D01*
X82708952Y-26098571D01*
X82756571Y-26050952D01*
X82851809Y-26003333D01*
X83089904Y-26003333D01*
X83185142Y-26050952D01*
X83232761Y-26098571D01*
X83280380Y-26193809D01*
X83280380Y-26479523D01*
X83232761Y-26574761D01*
X83185142Y-26622380D01*
%TO.C,J4*%
X102346380Y-27003333D02*
X103060666Y-27003333D01*
X103203523Y-27050952D01*
X103298761Y-27146190D01*
X103346380Y-27289047D01*
X103346380Y-27384285D01*
X102679714Y-26098571D02*
X103346380Y-26098571D01*
X102298761Y-26336666D02*
X103013047Y-26574761D01*
X103013047Y-25955714D01*
%TO.C,J1*%
X120380380Y-27003333D02*
X121094666Y-27003333D01*
X121237523Y-27050952D01*
X121332761Y-27146190D01*
X121380380Y-27289047D01*
X121380380Y-27384285D01*
X121380380Y-26003333D02*
X121380380Y-26574761D01*
X121380380Y-26289047D02*
X120380380Y-26289047D01*
X120523238Y-26384285D01*
X120618476Y-26479523D01*
X120666095Y-26574761D01*
%TO.C,J12*%
X91932380Y-30019523D02*
X92646666Y-30019523D01*
X92789523Y-30067142D01*
X92884761Y-30162380D01*
X92932380Y-30305238D01*
X92932380Y-30400476D01*
X92932380Y-29019523D02*
X92932380Y-29590952D01*
X92932380Y-29305238D02*
X91932380Y-29305238D01*
X92075238Y-29400476D01*
X92170476Y-29495714D01*
X92218095Y-29590952D01*
X92027619Y-28638571D02*
X91980000Y-28590952D01*
X91932380Y-28495714D01*
X91932380Y-28257619D01*
X91980000Y-28162380D01*
X92027619Y-28114761D01*
X92122857Y-28067142D01*
X92218095Y-28067142D01*
X92360952Y-28114761D01*
X92932380Y-28686190D01*
X92932380Y-28067142D01*
%TO.C,J11*%
X121602380Y-82597523D02*
X122316666Y-82597523D01*
X122459523Y-82645142D01*
X122554761Y-82740380D01*
X122602380Y-82883238D01*
X122602380Y-82978476D01*
X122602380Y-81597523D02*
X122602380Y-82168952D01*
X122602380Y-81883238D02*
X121602380Y-81883238D01*
X121745238Y-81978476D01*
X121840476Y-82073714D01*
X121888095Y-82168952D01*
X122602380Y-80645142D02*
X122602380Y-81216571D01*
X122602380Y-80930857D02*
X121602380Y-80930857D01*
X121745238Y-81026095D01*
X121840476Y-81121333D01*
X121888095Y-81216571D01*
%TD*%
M02*
