%TF.GenerationSoftware,KiCad,Pcbnew,(5.1.8)-1*%
%TF.CreationDate,2021-02-21T20:08:30-05:00*%
%TF.ProjectId,Mega_Shield,4d656761-5f53-4686-9965-6c642e6b6963,rev?*%
%TF.SameCoordinates,Original*%
%TF.FileFunction,Legend,Bot*%
%TF.FilePolarity,Positive*%
%FSLAX46Y46*%
G04 Gerber Fmt 4.6, Leading zero omitted, Abs format (unit mm)*
G04 Created by KiCad (PCBNEW (5.1.8)-1) date 2021-02-21 20:08:30*
%MOMM*%
%LPD*%
G01*
G04 APERTURE LIST*
%ADD10C,0.150000*%
%ADD11C,0.010000*%
G04 APERTURE END LIST*
D10*
X87304285Y-87082380D02*
X87209047Y-87082380D01*
X87113809Y-87130000D01*
X87066190Y-87177619D01*
X87018571Y-87272857D01*
X86970952Y-87463333D01*
X86970952Y-87701428D01*
X87018571Y-87891904D01*
X87066190Y-87987142D01*
X87113809Y-88034761D01*
X87209047Y-88082380D01*
X87304285Y-88082380D01*
X87399523Y-88034761D01*
X87447142Y-87987142D01*
X87494761Y-87891904D01*
X87542380Y-87701428D01*
X87542380Y-87463333D01*
X87494761Y-87272857D01*
X87447142Y-87177619D01*
X87399523Y-87130000D01*
X87304285Y-87082380D01*
X86542380Y-87987142D02*
X86494761Y-88034761D01*
X86542380Y-88082380D01*
X86590000Y-88034761D01*
X86542380Y-87987142D01*
X86542380Y-88082380D01*
X86113809Y-87177619D02*
X86066190Y-87130000D01*
X85970952Y-87082380D01*
X85732857Y-87082380D01*
X85637619Y-87130000D01*
X85590000Y-87177619D01*
X85542380Y-87272857D01*
X85542380Y-87368095D01*
X85590000Y-87510952D01*
X86161428Y-88082380D01*
X85542380Y-88082380D01*
X85113809Y-87987142D02*
X85066190Y-88034761D01*
X85113809Y-88082380D01*
X85161428Y-88034761D01*
X85113809Y-87987142D01*
X85113809Y-88082380D01*
X84113809Y-88082380D02*
X84685238Y-88082380D01*
X84399523Y-88082380D02*
X84399523Y-87082380D01*
X84494761Y-87225238D01*
X84590000Y-87320476D01*
X84685238Y-87368095D01*
X83685238Y-87987142D02*
X83637619Y-88034761D01*
X83685238Y-88082380D01*
X83732857Y-88034761D01*
X83685238Y-87987142D01*
X83685238Y-88082380D01*
X83209047Y-88082380D02*
X83209047Y-87082380D01*
X82970952Y-87082380D01*
X82828095Y-87130000D01*
X82732857Y-87225238D01*
X82685238Y-87320476D01*
X82637619Y-87510952D01*
X82637619Y-87653809D01*
X82685238Y-87844285D01*
X82732857Y-87939523D01*
X82828095Y-88034761D01*
X82970952Y-88082380D01*
X83209047Y-88082380D01*
D11*
%TO.C,G\u002A\u002A\u002A*%
G36*
X89513972Y-67950874D02*
G01*
X89500036Y-67950402D01*
X89477587Y-67949955D01*
X89447259Y-67949536D01*
X89409688Y-67949150D01*
X89365508Y-67948802D01*
X89315355Y-67948495D01*
X89259863Y-67948234D01*
X89199670Y-67948023D01*
X89135408Y-67947868D01*
X89067714Y-67947772D01*
X88998598Y-67947740D01*
X88478437Y-67947740D01*
X88468404Y-67958747D01*
X88464060Y-67964585D01*
X88454930Y-67977669D01*
X88441575Y-67997156D01*
X88424557Y-68022206D01*
X88404438Y-68051977D01*
X88381779Y-68085626D01*
X88357143Y-68122313D01*
X88331090Y-68161194D01*
X88304184Y-68201429D01*
X88276986Y-68242175D01*
X88250056Y-68282591D01*
X88223959Y-68321835D01*
X88199254Y-68359065D01*
X88176504Y-68393439D01*
X88156271Y-68424116D01*
X88139116Y-68450253D01*
X88125601Y-68471010D01*
X88116289Y-68485543D01*
X88111740Y-68493012D01*
X88111414Y-68493674D01*
X88112071Y-68494779D01*
X88115280Y-68495763D01*
X88121553Y-68496631D01*
X88131404Y-68497391D01*
X88145345Y-68498050D01*
X88163889Y-68498614D01*
X88187548Y-68499091D01*
X88216835Y-68499486D01*
X88252262Y-68499807D01*
X88294343Y-68500061D01*
X88343590Y-68500253D01*
X88400516Y-68500392D01*
X88465632Y-68500483D01*
X88539453Y-68500535D01*
X88622490Y-68500552D01*
X89155169Y-68500552D01*
X89336963Y-68227771D01*
X89367856Y-68181364D01*
X89397094Y-68137340D01*
X89424235Y-68096373D01*
X89448831Y-68059141D01*
X89470440Y-68026320D01*
X89488614Y-67998588D01*
X89502910Y-67976621D01*
X89512881Y-67961095D01*
X89518084Y-67952688D01*
X89518758Y-67951365D01*
X89513972Y-67950874D01*
G37*
X89513972Y-67950874D02*
X89500036Y-67950402D01*
X89477587Y-67949955D01*
X89447259Y-67949536D01*
X89409688Y-67949150D01*
X89365508Y-67948802D01*
X89315355Y-67948495D01*
X89259863Y-67948234D01*
X89199670Y-67948023D01*
X89135408Y-67947868D01*
X89067714Y-67947772D01*
X88998598Y-67947740D01*
X88478437Y-67947740D01*
X88468404Y-67958747D01*
X88464060Y-67964585D01*
X88454930Y-67977669D01*
X88441575Y-67997156D01*
X88424557Y-68022206D01*
X88404438Y-68051977D01*
X88381779Y-68085626D01*
X88357143Y-68122313D01*
X88331090Y-68161194D01*
X88304184Y-68201429D01*
X88276986Y-68242175D01*
X88250056Y-68282591D01*
X88223959Y-68321835D01*
X88199254Y-68359065D01*
X88176504Y-68393439D01*
X88156271Y-68424116D01*
X88139116Y-68450253D01*
X88125601Y-68471010D01*
X88116289Y-68485543D01*
X88111740Y-68493012D01*
X88111414Y-68493674D01*
X88112071Y-68494779D01*
X88115280Y-68495763D01*
X88121553Y-68496631D01*
X88131404Y-68497391D01*
X88145345Y-68498050D01*
X88163889Y-68498614D01*
X88187548Y-68499091D01*
X88216835Y-68499486D01*
X88252262Y-68499807D01*
X88294343Y-68500061D01*
X88343590Y-68500253D01*
X88400516Y-68500392D01*
X88465632Y-68500483D01*
X88539453Y-68500535D01*
X88622490Y-68500552D01*
X89155169Y-68500552D01*
X89336963Y-68227771D01*
X89367856Y-68181364D01*
X89397094Y-68137340D01*
X89424235Y-68096373D01*
X89448831Y-68059141D01*
X89470440Y-68026320D01*
X89488614Y-67998588D01*
X89502910Y-67976621D01*
X89512881Y-67961095D01*
X89518084Y-67952688D01*
X89518758Y-67951365D01*
X89513972Y-67950874D01*
G36*
X88102123Y-68500773D02*
G01*
X88096912Y-68499880D01*
X88087373Y-68499089D01*
X88073043Y-68498397D01*
X88053461Y-68497797D01*
X88028164Y-68497284D01*
X87996690Y-68496853D01*
X87958576Y-68496497D01*
X87913361Y-68496213D01*
X87860582Y-68495994D01*
X87799778Y-68495834D01*
X87730485Y-68495729D01*
X87652241Y-68495673D01*
X87582531Y-68495660D01*
X87059087Y-68495660D01*
X86877540Y-68766829D01*
X86846628Y-68813041D01*
X86817376Y-68856852D01*
X86790229Y-68897587D01*
X86765636Y-68934572D01*
X86744043Y-68967132D01*
X86725897Y-68994592D01*
X86711646Y-69016277D01*
X86701737Y-69031513D01*
X86696617Y-69039624D01*
X86695992Y-69040789D01*
X86700779Y-69041166D01*
X86714716Y-69041528D01*
X86737172Y-69041871D01*
X86767512Y-69042193D01*
X86805103Y-69042490D01*
X86849312Y-69042758D01*
X86899506Y-69042994D01*
X86955051Y-69043195D01*
X87015315Y-69043358D01*
X87079663Y-69043478D01*
X87147463Y-69043553D01*
X87218082Y-69043580D01*
X87742647Y-69043580D01*
X87921803Y-68775735D01*
X87952576Y-68729693D01*
X87981754Y-68685971D01*
X88008877Y-68645259D01*
X88033489Y-68608248D01*
X88055130Y-68575629D01*
X88073344Y-68548093D01*
X88087672Y-68526329D01*
X88097656Y-68511030D01*
X88102838Y-68502885D01*
X88103468Y-68501775D01*
X88102123Y-68500773D01*
G37*
X88102123Y-68500773D02*
X88096912Y-68499880D01*
X88087373Y-68499089D01*
X88073043Y-68498397D01*
X88053461Y-68497797D01*
X88028164Y-68497284D01*
X87996690Y-68496853D01*
X87958576Y-68496497D01*
X87913361Y-68496213D01*
X87860582Y-68495994D01*
X87799778Y-68495834D01*
X87730485Y-68495729D01*
X87652241Y-68495673D01*
X87582531Y-68495660D01*
X87059087Y-68495660D01*
X86877540Y-68766829D01*
X86846628Y-68813041D01*
X86817376Y-68856852D01*
X86790229Y-68897587D01*
X86765636Y-68934572D01*
X86744043Y-68967132D01*
X86725897Y-68994592D01*
X86711646Y-69016277D01*
X86701737Y-69031513D01*
X86696617Y-69039624D01*
X86695992Y-69040789D01*
X86700779Y-69041166D01*
X86714716Y-69041528D01*
X86737172Y-69041871D01*
X86767512Y-69042193D01*
X86805103Y-69042490D01*
X86849312Y-69042758D01*
X86899506Y-69042994D01*
X86955051Y-69043195D01*
X87015315Y-69043358D01*
X87079663Y-69043478D01*
X87147463Y-69043553D01*
X87218082Y-69043580D01*
X87742647Y-69043580D01*
X87921803Y-68775735D01*
X87952576Y-68729693D01*
X87981754Y-68685971D01*
X88008877Y-68645259D01*
X88033489Y-68608248D01*
X88055130Y-68575629D01*
X88073344Y-68548093D01*
X88087672Y-68526329D01*
X88097656Y-68511030D01*
X88102838Y-68502885D01*
X88103468Y-68501775D01*
X88102123Y-68500773D01*
G36*
X89515407Y-69483319D02*
G01*
X89505174Y-69482519D01*
X89487786Y-69481829D01*
X89462972Y-69481249D01*
X89430459Y-69480774D01*
X89389976Y-69480405D01*
X89341251Y-69480137D01*
X89284012Y-69479970D01*
X89217988Y-69479901D01*
X89142905Y-69479928D01*
X89058493Y-69480049D01*
X88996522Y-69480181D01*
X88474286Y-69481427D01*
X88291555Y-69754163D01*
X88108825Y-70026900D01*
X87058055Y-70026900D01*
X86877023Y-70298381D01*
X86846201Y-70344640D01*
X86817033Y-70388487D01*
X86789964Y-70429248D01*
X86765442Y-70466249D01*
X86743910Y-70498813D01*
X86725816Y-70526267D01*
X86711605Y-70547936D01*
X86701723Y-70563145D01*
X86696617Y-70571219D01*
X86695992Y-70572363D01*
X86700779Y-70572689D01*
X86714717Y-70572980D01*
X86737175Y-70573234D01*
X86767520Y-70573450D01*
X86805119Y-70573627D01*
X86849341Y-70573762D01*
X86899552Y-70573855D01*
X86955120Y-70573903D01*
X87015413Y-70573906D01*
X87079798Y-70573861D01*
X87147643Y-70573768D01*
X87218316Y-70573625D01*
X87220674Y-70573619D01*
X87745357Y-70572374D01*
X87927744Y-70299637D01*
X88110132Y-70026900D01*
X88634659Y-70026819D01*
X89159186Y-70026737D01*
X89338972Y-69758132D01*
X89369748Y-69712073D01*
X89398861Y-69668352D01*
X89425861Y-69627654D01*
X89450296Y-69590665D01*
X89471718Y-69558072D01*
X89489675Y-69530560D01*
X89503718Y-69508815D01*
X89513396Y-69493524D01*
X89518259Y-69485371D01*
X89518758Y-69484231D01*
X89515407Y-69483319D01*
G37*
X89515407Y-69483319D02*
X89505174Y-69482519D01*
X89487786Y-69481829D01*
X89462972Y-69481249D01*
X89430459Y-69480774D01*
X89389976Y-69480405D01*
X89341251Y-69480137D01*
X89284012Y-69479970D01*
X89217988Y-69479901D01*
X89142905Y-69479928D01*
X89058493Y-69480049D01*
X88996522Y-69480181D01*
X88474286Y-69481427D01*
X88291555Y-69754163D01*
X88108825Y-70026900D01*
X87058055Y-70026900D01*
X86877023Y-70298381D01*
X86846201Y-70344640D01*
X86817033Y-70388487D01*
X86789964Y-70429248D01*
X86765442Y-70466249D01*
X86743910Y-70498813D01*
X86725816Y-70526267D01*
X86711605Y-70547936D01*
X86701723Y-70563145D01*
X86696617Y-70571219D01*
X86695992Y-70572363D01*
X86700779Y-70572689D01*
X86714717Y-70572980D01*
X86737175Y-70573234D01*
X86767520Y-70573450D01*
X86805119Y-70573627D01*
X86849341Y-70573762D01*
X86899552Y-70573855D01*
X86955120Y-70573903D01*
X87015413Y-70573906D01*
X87079798Y-70573861D01*
X87147643Y-70573768D01*
X87218316Y-70573625D01*
X87220674Y-70573619D01*
X87745357Y-70572374D01*
X87927744Y-70299637D01*
X88110132Y-70026900D01*
X88634659Y-70026819D01*
X89159186Y-70026737D01*
X89338972Y-69758132D01*
X89369748Y-69712073D01*
X89398861Y-69668352D01*
X89425861Y-69627654D01*
X89450296Y-69590665D01*
X89471718Y-69558072D01*
X89489675Y-69530560D01*
X89503718Y-69508815D01*
X89513396Y-69493524D01*
X89518259Y-69485371D01*
X89518758Y-69484231D01*
X89515407Y-69483319D01*
G36*
X86167601Y-63795971D02*
G01*
X86167449Y-63740126D01*
X86167133Y-63692284D01*
X86166604Y-63651553D01*
X86165811Y-63617043D01*
X86164704Y-63587863D01*
X86163232Y-63563122D01*
X86161345Y-63541929D01*
X86158994Y-63523395D01*
X86156127Y-63506627D01*
X86152694Y-63490734D01*
X86148645Y-63474827D01*
X86145129Y-63462194D01*
X86121772Y-63396759D01*
X86091064Y-63337466D01*
X86053508Y-63284623D01*
X86009608Y-63238537D01*
X85959867Y-63199515D01*
X85904787Y-63167865D01*
X85844874Y-63143895D01*
X85780629Y-63127913D01*
X85712557Y-63120225D01*
X85641160Y-63121140D01*
X85595260Y-63126190D01*
X85520929Y-63141392D01*
X85452274Y-63164246D01*
X85389589Y-63194503D01*
X85333164Y-63231916D01*
X85283291Y-63276236D01*
X85240262Y-63327217D01*
X85204368Y-63384611D01*
X85175900Y-63448169D01*
X85160789Y-63495309D01*
X85147931Y-63542366D01*
X85144697Y-64141654D01*
X86063316Y-64141654D01*
X86063316Y-64038919D01*
X85242415Y-64038919D01*
X85244277Y-63810211D01*
X85244732Y-63756629D01*
X85245180Y-63711843D01*
X85245666Y-63674868D01*
X85246237Y-63644717D01*
X85246939Y-63620401D01*
X85247820Y-63600936D01*
X85248924Y-63585333D01*
X85250300Y-63572606D01*
X85251994Y-63561767D01*
X85254051Y-63551831D01*
X85256519Y-63541809D01*
X85257010Y-63539920D01*
X85277484Y-63479550D01*
X85305716Y-63424670D01*
X85341292Y-63375784D01*
X85383797Y-63333398D01*
X85432817Y-63298018D01*
X85472966Y-63276679D01*
X85532810Y-63253809D01*
X85594171Y-63239190D01*
X85655930Y-63232731D01*
X85716966Y-63234342D01*
X85776159Y-63243932D01*
X85832388Y-63261411D01*
X85884534Y-63286687D01*
X85923418Y-63313134D01*
X85957291Y-63344945D01*
X85988442Y-63384274D01*
X86015524Y-63428951D01*
X86037191Y-63476808D01*
X86050016Y-63517070D01*
X86054934Y-63538017D01*
X86058966Y-63559515D01*
X86062167Y-63582655D01*
X86064590Y-63608526D01*
X86066292Y-63638218D01*
X86067325Y-63672823D01*
X86067747Y-63713429D01*
X86067610Y-63761128D01*
X86066970Y-63817008D01*
X86066520Y-63845843D01*
X86063316Y-64038919D01*
X86063316Y-64141654D01*
X86167641Y-64141654D01*
X86167641Y-63860710D01*
X86167601Y-63795971D01*
G37*
X86167601Y-63795971D02*
X86167449Y-63740126D01*
X86167133Y-63692284D01*
X86166604Y-63651553D01*
X86165811Y-63617043D01*
X86164704Y-63587863D01*
X86163232Y-63563122D01*
X86161345Y-63541929D01*
X86158994Y-63523395D01*
X86156127Y-63506627D01*
X86152694Y-63490734D01*
X86148645Y-63474827D01*
X86145129Y-63462194D01*
X86121772Y-63396759D01*
X86091064Y-63337466D01*
X86053508Y-63284623D01*
X86009608Y-63238537D01*
X85959867Y-63199515D01*
X85904787Y-63167865D01*
X85844874Y-63143895D01*
X85780629Y-63127913D01*
X85712557Y-63120225D01*
X85641160Y-63121140D01*
X85595260Y-63126190D01*
X85520929Y-63141392D01*
X85452274Y-63164246D01*
X85389589Y-63194503D01*
X85333164Y-63231916D01*
X85283291Y-63276236D01*
X85240262Y-63327217D01*
X85204368Y-63384611D01*
X85175900Y-63448169D01*
X85160789Y-63495309D01*
X85147931Y-63542366D01*
X85144697Y-64141654D01*
X86063316Y-64141654D01*
X86063316Y-64038919D01*
X85242415Y-64038919D01*
X85244277Y-63810211D01*
X85244732Y-63756629D01*
X85245180Y-63711843D01*
X85245666Y-63674868D01*
X85246237Y-63644717D01*
X85246939Y-63620401D01*
X85247820Y-63600936D01*
X85248924Y-63585333D01*
X85250300Y-63572606D01*
X85251994Y-63561767D01*
X85254051Y-63551831D01*
X85256519Y-63541809D01*
X85257010Y-63539920D01*
X85277484Y-63479550D01*
X85305716Y-63424670D01*
X85341292Y-63375784D01*
X85383797Y-63333398D01*
X85432817Y-63298018D01*
X85472966Y-63276679D01*
X85532810Y-63253809D01*
X85594171Y-63239190D01*
X85655930Y-63232731D01*
X85716966Y-63234342D01*
X85776159Y-63243932D01*
X85832388Y-63261411D01*
X85884534Y-63286687D01*
X85923418Y-63313134D01*
X85957291Y-63344945D01*
X85988442Y-63384274D01*
X86015524Y-63428951D01*
X86037191Y-63476808D01*
X86050016Y-63517070D01*
X86054934Y-63538017D01*
X86058966Y-63559515D01*
X86062167Y-63582655D01*
X86064590Y-63608526D01*
X86066292Y-63638218D01*
X86067325Y-63672823D01*
X86067747Y-63713429D01*
X86067610Y-63761128D01*
X86066970Y-63817008D01*
X86066520Y-63845843D01*
X86063316Y-64038919D01*
X86063316Y-64141654D01*
X86167641Y-64141654D01*
X86167641Y-63860710D01*
X86167601Y-63795971D01*
G36*
X86117496Y-64783576D02*
G01*
X86067352Y-64784970D01*
X86066101Y-65189795D01*
X86064849Y-65594620D01*
X85722456Y-65594620D01*
X85722456Y-64909720D01*
X85619721Y-64909720D01*
X85619721Y-65594620D01*
X85247973Y-65594620D01*
X85246723Y-65175119D01*
X85245472Y-64755618D01*
X85195328Y-64754223D01*
X85145183Y-64752829D01*
X85145183Y-65697355D01*
X86167641Y-65697355D01*
X86167641Y-64782182D01*
X86117496Y-64783576D01*
G37*
X86117496Y-64783576D02*
X86067352Y-64784970D01*
X86066101Y-65189795D01*
X86064849Y-65594620D01*
X85722456Y-65594620D01*
X85722456Y-64909720D01*
X85619721Y-64909720D01*
X85619721Y-65594620D01*
X85247973Y-65594620D01*
X85246723Y-65175119D01*
X85245472Y-64755618D01*
X85195328Y-64754223D01*
X85145183Y-64752829D01*
X85145183Y-65697355D01*
X86167641Y-65697355D01*
X86167641Y-64782182D01*
X86117496Y-64783576D01*
G36*
X86174979Y-68459561D02*
G01*
X85663750Y-68206360D01*
X85597512Y-68173567D01*
X85533711Y-68142006D01*
X85472894Y-68111946D01*
X85415611Y-68083658D01*
X85362410Y-68057412D01*
X85313839Y-68033478D01*
X85270447Y-68012125D01*
X85232783Y-67993624D01*
X85201395Y-67978245D01*
X85176831Y-67966258D01*
X85159640Y-67957933D01*
X85150370Y-67953539D01*
X85148852Y-67952896D01*
X85147395Y-67957353D01*
X85146211Y-67969654D01*
X85145432Y-67987860D01*
X85145183Y-68007723D01*
X85145183Y-68062814D01*
X85321300Y-68150764D01*
X85497418Y-68238714D01*
X85497418Y-68811312D01*
X85321300Y-68899262D01*
X85145183Y-68987212D01*
X85145183Y-69042302D01*
X85145457Y-69064203D01*
X85146201Y-69081977D01*
X85147297Y-69093675D01*
X85148487Y-69097393D01*
X85153253Y-69095271D01*
X85166173Y-69089102D01*
X85186634Y-69079189D01*
X85214024Y-69065832D01*
X85247732Y-69049331D01*
X85287144Y-69029986D01*
X85331649Y-69008100D01*
X85380634Y-68983971D01*
X85433487Y-68957901D01*
X85489595Y-68930191D01*
X85548348Y-68901140D01*
X85563096Y-68893842D01*
X85601845Y-68874674D01*
X85601845Y-68759836D01*
X85601507Y-68755101D01*
X85601191Y-68741528D01*
X85600905Y-68720062D01*
X85600655Y-68691650D01*
X85600448Y-68657236D01*
X85600290Y-68617767D01*
X85600190Y-68574189D01*
X85600153Y-68527446D01*
X85600152Y-68525228D01*
X85600152Y-68290620D01*
X85674758Y-68326545D01*
X85727486Y-68352028D01*
X85779028Y-68377114D01*
X85828653Y-68401436D01*
X85875629Y-68424626D01*
X85919227Y-68446316D01*
X85958715Y-68466138D01*
X85993362Y-68483726D01*
X86022439Y-68498711D01*
X86045214Y-68510726D01*
X86060956Y-68519403D01*
X86068935Y-68524374D01*
X86069798Y-68525299D01*
X86065574Y-68528016D01*
X86053555Y-68534567D01*
X86034723Y-68544462D01*
X86010058Y-68557209D01*
X85980543Y-68572315D01*
X85947157Y-68589289D01*
X85910883Y-68607640D01*
X85872701Y-68626875D01*
X85833592Y-68646502D01*
X85794538Y-68666031D01*
X85756520Y-68684969D01*
X85720519Y-68702825D01*
X85687515Y-68719106D01*
X85658491Y-68733322D01*
X85634426Y-68744979D01*
X85616304Y-68753588D01*
X85605103Y-68758655D01*
X85601845Y-68759836D01*
X85601845Y-68874674D01*
X85625101Y-68863169D01*
X85686514Y-68832811D01*
X85746514Y-68803173D01*
X85804277Y-68774661D01*
X85858982Y-68747680D01*
X85909806Y-68722635D01*
X85955927Y-68699932D01*
X85996522Y-68679976D01*
X86030769Y-68663172D01*
X86057845Y-68649926D01*
X86076046Y-68641069D01*
X86177691Y-68591847D01*
X86174979Y-68459561D01*
G37*
X86174979Y-68459561D02*
X85663750Y-68206360D01*
X85597512Y-68173567D01*
X85533711Y-68142006D01*
X85472894Y-68111946D01*
X85415611Y-68083658D01*
X85362410Y-68057412D01*
X85313839Y-68033478D01*
X85270447Y-68012125D01*
X85232783Y-67993624D01*
X85201395Y-67978245D01*
X85176831Y-67966258D01*
X85159640Y-67957933D01*
X85150370Y-67953539D01*
X85148852Y-67952896D01*
X85147395Y-67957353D01*
X85146211Y-67969654D01*
X85145432Y-67987860D01*
X85145183Y-68007723D01*
X85145183Y-68062814D01*
X85321300Y-68150764D01*
X85497418Y-68238714D01*
X85497418Y-68811312D01*
X85321300Y-68899262D01*
X85145183Y-68987212D01*
X85145183Y-69042302D01*
X85145457Y-69064203D01*
X85146201Y-69081977D01*
X85147297Y-69093675D01*
X85148487Y-69097393D01*
X85153253Y-69095271D01*
X85166173Y-69089102D01*
X85186634Y-69079189D01*
X85214024Y-69065832D01*
X85247732Y-69049331D01*
X85287144Y-69029986D01*
X85331649Y-69008100D01*
X85380634Y-68983971D01*
X85433487Y-68957901D01*
X85489595Y-68930191D01*
X85548348Y-68901140D01*
X85563096Y-68893842D01*
X85601845Y-68874674D01*
X85601845Y-68759836D01*
X85601507Y-68755101D01*
X85601191Y-68741528D01*
X85600905Y-68720062D01*
X85600655Y-68691650D01*
X85600448Y-68657236D01*
X85600290Y-68617767D01*
X85600190Y-68574189D01*
X85600153Y-68527446D01*
X85600152Y-68525228D01*
X85600152Y-68290620D01*
X85674758Y-68326545D01*
X85727486Y-68352028D01*
X85779028Y-68377114D01*
X85828653Y-68401436D01*
X85875629Y-68424626D01*
X85919227Y-68446316D01*
X85958715Y-68466138D01*
X85993362Y-68483726D01*
X86022439Y-68498711D01*
X86045214Y-68510726D01*
X86060956Y-68519403D01*
X86068935Y-68524374D01*
X86069798Y-68525299D01*
X86065574Y-68528016D01*
X86053555Y-68534567D01*
X86034723Y-68544462D01*
X86010058Y-68557209D01*
X85980543Y-68572315D01*
X85947157Y-68589289D01*
X85910883Y-68607640D01*
X85872701Y-68626875D01*
X85833592Y-68646502D01*
X85794538Y-68666031D01*
X85756520Y-68684969D01*
X85720519Y-68702825D01*
X85687515Y-68719106D01*
X85658491Y-68733322D01*
X85634426Y-68744979D01*
X85616304Y-68753588D01*
X85605103Y-68758655D01*
X85601845Y-68759836D01*
X85601845Y-68874674D01*
X85625101Y-68863169D01*
X85686514Y-68832811D01*
X85746514Y-68803173D01*
X85804277Y-68774661D01*
X85858982Y-68747680D01*
X85909806Y-68722635D01*
X85955927Y-68699932D01*
X85996522Y-68679976D01*
X86030769Y-68663172D01*
X86057845Y-68649926D01*
X86076046Y-68641069D01*
X86177691Y-68591847D01*
X86174979Y-68459561D01*
G36*
X86166374Y-75189333D02*
G01*
X86166042Y-75120190D01*
X86165712Y-75060127D01*
X86165365Y-75008441D01*
X86164982Y-74964429D01*
X86164546Y-74927387D01*
X86164037Y-74896611D01*
X86163438Y-74871399D01*
X86162728Y-74851045D01*
X86161891Y-74834847D01*
X86160908Y-74822101D01*
X86159759Y-74812104D01*
X86158427Y-74804152D01*
X86156893Y-74797541D01*
X86155977Y-74794292D01*
X86136860Y-74743504D01*
X86112014Y-74700199D01*
X86081673Y-74664621D01*
X86046069Y-74637018D01*
X86005436Y-74617636D01*
X85982321Y-74610869D01*
X85954332Y-74607064D01*
X85921392Y-74606864D01*
X85887532Y-74609992D01*
X85856781Y-74616170D01*
X85843571Y-74620414D01*
X85809932Y-74637235D01*
X85776768Y-74661168D01*
X85747076Y-74689872D01*
X85733864Y-74706094D01*
X85711068Y-74736894D01*
X85698417Y-74711910D01*
X85688930Y-74696656D01*
X85674854Y-74678112D01*
X85658787Y-74659628D01*
X85653966Y-74654595D01*
X85618278Y-74623903D01*
X85579644Y-74601864D01*
X85536938Y-74588024D01*
X85489036Y-74581930D01*
X85472516Y-74581542D01*
X85417833Y-74585999D01*
X85365459Y-74599071D01*
X85316437Y-74620083D01*
X85271809Y-74648357D01*
X85232619Y-74683217D01*
X85199909Y-74723986D01*
X85174722Y-74769989D01*
X85171952Y-74776570D01*
X85166983Y-74789048D01*
X85162670Y-74800844D01*
X85158966Y-74812721D01*
X85155826Y-74825443D01*
X85153202Y-74839773D01*
X85151049Y-74856475D01*
X85149320Y-74876314D01*
X85147968Y-74900052D01*
X85146948Y-74928453D01*
X85146212Y-74962280D01*
X85145715Y-75002298D01*
X85145410Y-75049271D01*
X85145251Y-75103961D01*
X85145191Y-75167132D01*
X85145183Y-75217257D01*
X85145183Y-75555021D01*
X85243026Y-75555021D01*
X85243026Y-75452286D01*
X85243084Y-75177103D01*
X85243148Y-75114374D01*
X85243321Y-75060731D01*
X85243619Y-75015476D01*
X85244057Y-74977910D01*
X85244651Y-74947337D01*
X85245415Y-74923057D01*
X85246366Y-74904373D01*
X85247518Y-74890587D01*
X85248887Y-74881001D01*
X85249686Y-74877459D01*
X85266363Y-74832640D01*
X85290468Y-74793283D01*
X85321080Y-74760109D01*
X85357281Y-74733843D01*
X85398150Y-74715205D01*
X85442767Y-74704918D01*
X85471772Y-74703051D01*
X85493893Y-74703438D01*
X85510194Y-74705296D01*
X85524621Y-74709455D01*
X85541117Y-74716744D01*
X85544264Y-74718282D01*
X85574986Y-74737858D01*
X85599671Y-74763694D01*
X85618827Y-74796538D01*
X85632964Y-74837137D01*
X85637038Y-74854335D01*
X85638591Y-74863490D01*
X85639911Y-74875645D01*
X85641015Y-74891555D01*
X85641918Y-74911977D01*
X85642639Y-74937667D01*
X85643195Y-74969382D01*
X85643601Y-75007876D01*
X85643876Y-75053906D01*
X85644036Y-75108229D01*
X85644097Y-75169764D01*
X85644182Y-75452286D01*
X85243026Y-75452286D01*
X85243026Y-75555021D01*
X86063336Y-75555021D01*
X86063336Y-75452286D01*
X85746917Y-75452286D01*
X85746917Y-75176547D01*
X85747007Y-75116696D01*
X85747272Y-75061772D01*
X85747698Y-75012471D01*
X85748275Y-74969482D01*
X85748992Y-74933501D01*
X85749837Y-74905218D01*
X85750799Y-74885327D01*
X85751866Y-74874519D01*
X85751877Y-74874458D01*
X85764311Y-74833436D01*
X85784906Y-74796417D01*
X85812635Y-74764825D01*
X85846470Y-74740083D01*
X85850528Y-74737837D01*
X85868544Y-74728845D01*
X85883353Y-74723818D01*
X85899463Y-74721646D01*
X85918142Y-74721217D01*
X85939357Y-74721819D01*
X85955035Y-74724286D01*
X85969380Y-74729581D01*
X85981149Y-74735632D01*
X86009783Y-74756396D01*
X86032524Y-74784220D01*
X86049570Y-74819457D01*
X86061116Y-74862457D01*
X86064711Y-74885555D01*
X86066327Y-74904388D01*
X86067629Y-74931927D01*
X86068613Y-74967098D01*
X86069275Y-75008828D01*
X86069610Y-75056042D01*
X86069614Y-75107668D01*
X86069282Y-75162630D01*
X86068609Y-75219857D01*
X86067591Y-75278273D01*
X86066557Y-75323867D01*
X86063336Y-75452286D01*
X86063336Y-75555021D01*
X86168050Y-75555021D01*
X86166374Y-75189333D01*
G37*
X86166374Y-75189333D02*
X86166042Y-75120190D01*
X86165712Y-75060127D01*
X86165365Y-75008441D01*
X86164982Y-74964429D01*
X86164546Y-74927387D01*
X86164037Y-74896611D01*
X86163438Y-74871399D01*
X86162728Y-74851045D01*
X86161891Y-74834847D01*
X86160908Y-74822101D01*
X86159759Y-74812104D01*
X86158427Y-74804152D01*
X86156893Y-74797541D01*
X86155977Y-74794292D01*
X86136860Y-74743504D01*
X86112014Y-74700199D01*
X86081673Y-74664621D01*
X86046069Y-74637018D01*
X86005436Y-74617636D01*
X85982321Y-74610869D01*
X85954332Y-74607064D01*
X85921392Y-74606864D01*
X85887532Y-74609992D01*
X85856781Y-74616170D01*
X85843571Y-74620414D01*
X85809932Y-74637235D01*
X85776768Y-74661168D01*
X85747076Y-74689872D01*
X85733864Y-74706094D01*
X85711068Y-74736894D01*
X85698417Y-74711910D01*
X85688930Y-74696656D01*
X85674854Y-74678112D01*
X85658787Y-74659628D01*
X85653966Y-74654595D01*
X85618278Y-74623903D01*
X85579644Y-74601864D01*
X85536938Y-74588024D01*
X85489036Y-74581930D01*
X85472516Y-74581542D01*
X85417833Y-74585999D01*
X85365459Y-74599071D01*
X85316437Y-74620083D01*
X85271809Y-74648357D01*
X85232619Y-74683217D01*
X85199909Y-74723986D01*
X85174722Y-74769989D01*
X85171952Y-74776570D01*
X85166983Y-74789048D01*
X85162670Y-74800844D01*
X85158966Y-74812721D01*
X85155826Y-74825443D01*
X85153202Y-74839773D01*
X85151049Y-74856475D01*
X85149320Y-74876314D01*
X85147968Y-74900052D01*
X85146948Y-74928453D01*
X85146212Y-74962280D01*
X85145715Y-75002298D01*
X85145410Y-75049271D01*
X85145251Y-75103961D01*
X85145191Y-75167132D01*
X85145183Y-75217257D01*
X85145183Y-75555021D01*
X85243026Y-75555021D01*
X85243026Y-75452286D01*
X85243084Y-75177103D01*
X85243148Y-75114374D01*
X85243321Y-75060731D01*
X85243619Y-75015476D01*
X85244057Y-74977910D01*
X85244651Y-74947337D01*
X85245415Y-74923057D01*
X85246366Y-74904373D01*
X85247518Y-74890587D01*
X85248887Y-74881001D01*
X85249686Y-74877459D01*
X85266363Y-74832640D01*
X85290468Y-74793283D01*
X85321080Y-74760109D01*
X85357281Y-74733843D01*
X85398150Y-74715205D01*
X85442767Y-74704918D01*
X85471772Y-74703051D01*
X85493893Y-74703438D01*
X85510194Y-74705296D01*
X85524621Y-74709455D01*
X85541117Y-74716744D01*
X85544264Y-74718282D01*
X85574986Y-74737858D01*
X85599671Y-74763694D01*
X85618827Y-74796538D01*
X85632964Y-74837137D01*
X85637038Y-74854335D01*
X85638591Y-74863490D01*
X85639911Y-74875645D01*
X85641015Y-74891555D01*
X85641918Y-74911977D01*
X85642639Y-74937667D01*
X85643195Y-74969382D01*
X85643601Y-75007876D01*
X85643876Y-75053906D01*
X85644036Y-75108229D01*
X85644097Y-75169764D01*
X85644182Y-75452286D01*
X85243026Y-75452286D01*
X85243026Y-75555021D01*
X86063336Y-75555021D01*
X86063336Y-75452286D01*
X85746917Y-75452286D01*
X85746917Y-75176547D01*
X85747007Y-75116696D01*
X85747272Y-75061772D01*
X85747698Y-75012471D01*
X85748275Y-74969482D01*
X85748992Y-74933501D01*
X85749837Y-74905218D01*
X85750799Y-74885327D01*
X85751866Y-74874519D01*
X85751877Y-74874458D01*
X85764311Y-74833436D01*
X85784906Y-74796417D01*
X85812635Y-74764825D01*
X85846470Y-74740083D01*
X85850528Y-74737837D01*
X85868544Y-74728845D01*
X85883353Y-74723818D01*
X85899463Y-74721646D01*
X85918142Y-74721217D01*
X85939357Y-74721819D01*
X85955035Y-74724286D01*
X85969380Y-74729581D01*
X85981149Y-74735632D01*
X86009783Y-74756396D01*
X86032524Y-74784220D01*
X86049570Y-74819457D01*
X86061116Y-74862457D01*
X86064711Y-74885555D01*
X86066327Y-74904388D01*
X86067629Y-74931927D01*
X86068613Y-74967098D01*
X86069275Y-75008828D01*
X86069610Y-75056042D01*
X86069614Y-75107668D01*
X86069282Y-75162630D01*
X86068609Y-75219857D01*
X86067591Y-75278273D01*
X86066557Y-75323867D01*
X86063336Y-75452286D01*
X86063336Y-75555021D01*
X86168050Y-75555021D01*
X86166374Y-75189333D01*
G36*
X86167612Y-67039025D02*
G01*
X86167568Y-66968882D01*
X86167440Y-66907818D01*
X86167215Y-66855126D01*
X86166880Y-66810101D01*
X86166422Y-66772036D01*
X86165829Y-66740227D01*
X86165087Y-66713966D01*
X86164184Y-66692549D01*
X86163107Y-66675269D01*
X86161843Y-66661420D01*
X86160536Y-66651323D01*
X86148483Y-66591109D01*
X86131602Y-66538737D01*
X86109505Y-66493330D01*
X86081805Y-66454011D01*
X86065087Y-66435711D01*
X86029837Y-66405721D01*
X85991458Y-66383970D01*
X85948789Y-66370010D01*
X85900667Y-66363390D01*
X85876558Y-66362686D01*
X85852279Y-66363570D01*
X85827669Y-66365914D01*
X85807236Y-66369258D01*
X85803432Y-66370163D01*
X85756707Y-66387305D01*
X85713698Y-66413109D01*
X85675187Y-66446906D01*
X85641953Y-66488024D01*
X85617657Y-66529803D01*
X85605929Y-66556020D01*
X85595094Y-66584584D01*
X85585951Y-66612940D01*
X85579301Y-66638530D01*
X85575942Y-66658795D01*
X85575692Y-66664047D01*
X85573730Y-66674119D01*
X85570711Y-66678284D01*
X85564203Y-66678180D01*
X85550042Y-66675540D01*
X85529892Y-66670814D01*
X85505419Y-66664452D01*
X85478286Y-66656904D01*
X85450157Y-66648620D01*
X85422699Y-66640051D01*
X85397574Y-66631646D01*
X85395283Y-66630842D01*
X85347200Y-66612091D01*
X85308191Y-66592716D01*
X85277546Y-66572122D01*
X85254556Y-66549714D01*
X85238509Y-66524896D01*
X85228696Y-66497074D01*
X85227215Y-66490017D01*
X85225288Y-66461099D01*
X85228746Y-66425003D01*
X85237481Y-66382649D01*
X85241131Y-66368801D01*
X85242154Y-66363816D01*
X85240793Y-66360623D01*
X85235378Y-66358821D01*
X85224237Y-66358014D01*
X85205703Y-66357802D01*
X85195022Y-66357794D01*
X85145878Y-66357794D01*
X85138542Y-66383478D01*
X85129119Y-66423284D01*
X85123194Y-66463285D01*
X85120906Y-66501188D01*
X85122398Y-66534701D01*
X85127582Y-66560818D01*
X85141223Y-66593742D01*
X85160567Y-66623376D01*
X85186285Y-66650218D01*
X85219051Y-66674768D01*
X85259537Y-66697526D01*
X85308417Y-66718990D01*
X85366363Y-66739661D01*
X85370264Y-66740925D01*
X85401691Y-66750768D01*
X85437044Y-66761370D01*
X85471768Y-66771390D01*
X85498641Y-66778778D01*
X85561015Y-66795338D01*
X85561015Y-67277517D01*
X85145183Y-67277517D01*
X85145183Y-67380252D01*
X86063311Y-67380252D01*
X86063311Y-67277517D01*
X85653476Y-67277517D01*
X85655112Y-66980319D01*
X85655472Y-66918401D01*
X85655834Y-66865479D01*
X85656225Y-66820762D01*
X85656670Y-66783463D01*
X85657193Y-66752791D01*
X85657822Y-66727958D01*
X85658582Y-66708175D01*
X85659497Y-66692652D01*
X85660594Y-66680600D01*
X85661898Y-66671231D01*
X85663435Y-66663755D01*
X85665230Y-66657383D01*
X85665608Y-66656215D01*
X85685494Y-66608575D01*
X85711405Y-66568509D01*
X85743639Y-66535658D01*
X85782492Y-66509661D01*
X85790304Y-66505636D01*
X85809668Y-66496502D01*
X85824765Y-66491067D01*
X85839684Y-66488386D01*
X85858512Y-66487514D01*
X85868948Y-66487459D01*
X85905439Y-66489532D01*
X85935528Y-66496353D01*
X85961817Y-66508839D01*
X85986908Y-66527908D01*
X85989016Y-66529814D01*
X86016056Y-66560967D01*
X86037488Y-66599595D01*
X86052567Y-66643779D01*
X86056408Y-66660535D01*
X86059635Y-66678800D01*
X86062280Y-66699431D01*
X86064374Y-66723283D01*
X86065947Y-66751215D01*
X86067033Y-66784084D01*
X86067661Y-66822745D01*
X86067864Y-66868058D01*
X86067672Y-66920877D01*
X86067117Y-66982061D01*
X86066576Y-67026794D01*
X86063311Y-67277517D01*
X86063311Y-67380252D01*
X86167641Y-67380252D01*
X86167612Y-67039025D01*
G37*
X86167612Y-67039025D02*
X86167568Y-66968882D01*
X86167440Y-66907818D01*
X86167215Y-66855126D01*
X86166880Y-66810101D01*
X86166422Y-66772036D01*
X86165829Y-66740227D01*
X86165087Y-66713966D01*
X86164184Y-66692549D01*
X86163107Y-66675269D01*
X86161843Y-66661420D01*
X86160536Y-66651323D01*
X86148483Y-66591109D01*
X86131602Y-66538737D01*
X86109505Y-66493330D01*
X86081805Y-66454011D01*
X86065087Y-66435711D01*
X86029837Y-66405721D01*
X85991458Y-66383970D01*
X85948789Y-66370010D01*
X85900667Y-66363390D01*
X85876558Y-66362686D01*
X85852279Y-66363570D01*
X85827669Y-66365914D01*
X85807236Y-66369258D01*
X85803432Y-66370163D01*
X85756707Y-66387305D01*
X85713698Y-66413109D01*
X85675187Y-66446906D01*
X85641953Y-66488024D01*
X85617657Y-66529803D01*
X85605929Y-66556020D01*
X85595094Y-66584584D01*
X85585951Y-66612940D01*
X85579301Y-66638530D01*
X85575942Y-66658795D01*
X85575692Y-66664047D01*
X85573730Y-66674119D01*
X85570711Y-66678284D01*
X85564203Y-66678180D01*
X85550042Y-66675540D01*
X85529892Y-66670814D01*
X85505419Y-66664452D01*
X85478286Y-66656904D01*
X85450157Y-66648620D01*
X85422699Y-66640051D01*
X85397574Y-66631646D01*
X85395283Y-66630842D01*
X85347200Y-66612091D01*
X85308191Y-66592716D01*
X85277546Y-66572122D01*
X85254556Y-66549714D01*
X85238509Y-66524896D01*
X85228696Y-66497074D01*
X85227215Y-66490017D01*
X85225288Y-66461099D01*
X85228746Y-66425003D01*
X85237481Y-66382649D01*
X85241131Y-66368801D01*
X85242154Y-66363816D01*
X85240793Y-66360623D01*
X85235378Y-66358821D01*
X85224237Y-66358014D01*
X85205703Y-66357802D01*
X85195022Y-66357794D01*
X85145878Y-66357794D01*
X85138542Y-66383478D01*
X85129119Y-66423284D01*
X85123194Y-66463285D01*
X85120906Y-66501188D01*
X85122398Y-66534701D01*
X85127582Y-66560818D01*
X85141223Y-66593742D01*
X85160567Y-66623376D01*
X85186285Y-66650218D01*
X85219051Y-66674768D01*
X85259537Y-66697526D01*
X85308417Y-66718990D01*
X85366363Y-66739661D01*
X85370264Y-66740925D01*
X85401691Y-66750768D01*
X85437044Y-66761370D01*
X85471768Y-66771390D01*
X85498641Y-66778778D01*
X85561015Y-66795338D01*
X85561015Y-67277517D01*
X85145183Y-67277517D01*
X85145183Y-67380252D01*
X86063311Y-67380252D01*
X86063311Y-67277517D01*
X85653476Y-67277517D01*
X85655112Y-66980319D01*
X85655472Y-66918401D01*
X85655834Y-66865479D01*
X85656225Y-66820762D01*
X85656670Y-66783463D01*
X85657193Y-66752791D01*
X85657822Y-66727958D01*
X85658582Y-66708175D01*
X85659497Y-66692652D01*
X85660594Y-66680600D01*
X85661898Y-66671231D01*
X85663435Y-66663755D01*
X85665230Y-66657383D01*
X85665608Y-66656215D01*
X85685494Y-66608575D01*
X85711405Y-66568509D01*
X85743639Y-66535658D01*
X85782492Y-66509661D01*
X85790304Y-66505636D01*
X85809668Y-66496502D01*
X85824765Y-66491067D01*
X85839684Y-66488386D01*
X85858512Y-66487514D01*
X85868948Y-66487459D01*
X85905439Y-66489532D01*
X85935528Y-66496353D01*
X85961817Y-66508839D01*
X85986908Y-66527908D01*
X85989016Y-66529814D01*
X86016056Y-66560967D01*
X86037488Y-66599595D01*
X86052567Y-66643779D01*
X86056408Y-66660535D01*
X86059635Y-66678800D01*
X86062280Y-66699431D01*
X86064374Y-66723283D01*
X86065947Y-66751215D01*
X86067033Y-66784084D01*
X86067661Y-66822745D01*
X86067864Y-66868058D01*
X86067672Y-66920877D01*
X86067117Y-66982061D01*
X86066576Y-67026794D01*
X86063311Y-67277517D01*
X86063311Y-67380252D01*
X86167641Y-67380252D01*
X86167612Y-67039025D01*
G36*
X85819076Y-70549218D02*
G01*
X85751810Y-70548901D01*
X85693608Y-70548586D01*
X85643751Y-70548251D01*
X85601519Y-70547877D01*
X85566191Y-70547444D01*
X85537048Y-70546931D01*
X85513371Y-70546319D01*
X85494438Y-70545588D01*
X85479531Y-70544717D01*
X85467929Y-70543687D01*
X85458913Y-70542477D01*
X85451763Y-70541068D01*
X85445759Y-70539438D01*
X85443604Y-70538749D01*
X85391635Y-70517033D01*
X85346479Y-70488464D01*
X85308037Y-70452922D01*
X85276211Y-70410287D01*
X85250901Y-70360440D01*
X85232010Y-70303261D01*
X85225226Y-70273343D01*
X85219920Y-70236054D01*
X85217036Y-70192564D01*
X85216545Y-70146142D01*
X85218418Y-70100060D01*
X85222626Y-70057588D01*
X85227361Y-70029773D01*
X85243486Y-69973134D01*
X85266352Y-69922030D01*
X85295464Y-69877162D01*
X85330327Y-69839227D01*
X85370446Y-69808926D01*
X85392236Y-69796899D01*
X85404105Y-69791069D01*
X85414786Y-69786009D01*
X85425037Y-69781664D01*
X85435617Y-69777973D01*
X85447283Y-69774880D01*
X85460795Y-69772326D01*
X85476910Y-69770254D01*
X85496387Y-69768605D01*
X85519983Y-69767322D01*
X85548458Y-69766346D01*
X85582569Y-69765620D01*
X85623074Y-69765086D01*
X85670732Y-69764685D01*
X85726301Y-69764361D01*
X85790539Y-69764054D01*
X85823968Y-69763899D01*
X86167641Y-69762293D01*
X86167641Y-69659632D01*
X85806845Y-69661167D01*
X85738842Y-69661460D01*
X85679898Y-69661735D01*
X85629288Y-69662016D01*
X85586288Y-69662325D01*
X85550173Y-69662686D01*
X85520217Y-69663123D01*
X85495696Y-69663658D01*
X85475886Y-69664315D01*
X85460060Y-69665117D01*
X85447495Y-69666087D01*
X85437466Y-69667248D01*
X85429246Y-69668625D01*
X85422113Y-69670239D01*
X85415340Y-69672115D01*
X85409359Y-69673922D01*
X85350182Y-69696727D01*
X85297318Y-69726980D01*
X85250828Y-69764604D01*
X85210771Y-69809522D01*
X85177210Y-69861654D01*
X85150205Y-69920925D01*
X85129816Y-69987256D01*
X85118137Y-70046469D01*
X85114877Y-70075669D01*
X85112760Y-70111422D01*
X85111812Y-70150556D01*
X85112061Y-70189904D01*
X85113534Y-70226296D01*
X85116261Y-70256564D01*
X85116295Y-70256831D01*
X85124135Y-70301247D01*
X85135988Y-70347747D01*
X85150699Y-70392354D01*
X85166783Y-70430422D01*
X85198521Y-70485881D01*
X85236052Y-70533489D01*
X85279615Y-70573455D01*
X85329450Y-70605983D01*
X85385797Y-70631282D01*
X85409359Y-70639162D01*
X85416392Y-70641277D01*
X85423173Y-70643111D01*
X85430427Y-70644687D01*
X85438878Y-70646029D01*
X85449252Y-70647159D01*
X85462274Y-70648102D01*
X85478668Y-70648880D01*
X85499158Y-70649516D01*
X85524471Y-70650034D01*
X85555331Y-70650458D01*
X85592463Y-70650810D01*
X85636591Y-70651113D01*
X85688441Y-70651391D01*
X85748737Y-70651668D01*
X85806845Y-70651917D01*
X86167641Y-70653453D01*
X86167641Y-70550786D01*
X85819076Y-70549218D01*
G37*
X85819076Y-70549218D02*
X85751810Y-70548901D01*
X85693608Y-70548586D01*
X85643751Y-70548251D01*
X85601519Y-70547877D01*
X85566191Y-70547444D01*
X85537048Y-70546931D01*
X85513371Y-70546319D01*
X85494438Y-70545588D01*
X85479531Y-70544717D01*
X85467929Y-70543687D01*
X85458913Y-70542477D01*
X85451763Y-70541068D01*
X85445759Y-70539438D01*
X85443604Y-70538749D01*
X85391635Y-70517033D01*
X85346479Y-70488464D01*
X85308037Y-70452922D01*
X85276211Y-70410287D01*
X85250901Y-70360440D01*
X85232010Y-70303261D01*
X85225226Y-70273343D01*
X85219920Y-70236054D01*
X85217036Y-70192564D01*
X85216545Y-70146142D01*
X85218418Y-70100060D01*
X85222626Y-70057588D01*
X85227361Y-70029773D01*
X85243486Y-69973134D01*
X85266352Y-69922030D01*
X85295464Y-69877162D01*
X85330327Y-69839227D01*
X85370446Y-69808926D01*
X85392236Y-69796899D01*
X85404105Y-69791069D01*
X85414786Y-69786009D01*
X85425037Y-69781664D01*
X85435617Y-69777973D01*
X85447283Y-69774880D01*
X85460795Y-69772326D01*
X85476910Y-69770254D01*
X85496387Y-69768605D01*
X85519983Y-69767322D01*
X85548458Y-69766346D01*
X85582569Y-69765620D01*
X85623074Y-69765086D01*
X85670732Y-69764685D01*
X85726301Y-69764361D01*
X85790539Y-69764054D01*
X85823968Y-69763899D01*
X86167641Y-69762293D01*
X86167641Y-69659632D01*
X85806845Y-69661167D01*
X85738842Y-69661460D01*
X85679898Y-69661735D01*
X85629288Y-69662016D01*
X85586288Y-69662325D01*
X85550173Y-69662686D01*
X85520217Y-69663123D01*
X85495696Y-69663658D01*
X85475886Y-69664315D01*
X85460060Y-69665117D01*
X85447495Y-69666087D01*
X85437466Y-69667248D01*
X85429246Y-69668625D01*
X85422113Y-69670239D01*
X85415340Y-69672115D01*
X85409359Y-69673922D01*
X85350182Y-69696727D01*
X85297318Y-69726980D01*
X85250828Y-69764604D01*
X85210771Y-69809522D01*
X85177210Y-69861654D01*
X85150205Y-69920925D01*
X85129816Y-69987256D01*
X85118137Y-70046469D01*
X85114877Y-70075669D01*
X85112760Y-70111422D01*
X85111812Y-70150556D01*
X85112061Y-70189904D01*
X85113534Y-70226296D01*
X85116261Y-70256564D01*
X85116295Y-70256831D01*
X85124135Y-70301247D01*
X85135988Y-70347747D01*
X85150699Y-70392354D01*
X85166783Y-70430422D01*
X85198521Y-70485881D01*
X85236052Y-70533489D01*
X85279615Y-70573455D01*
X85329450Y-70605983D01*
X85385797Y-70631282D01*
X85409359Y-70639162D01*
X85416392Y-70641277D01*
X85423173Y-70643111D01*
X85430427Y-70644687D01*
X85438878Y-70646029D01*
X85449252Y-70647159D01*
X85462274Y-70648102D01*
X85478668Y-70648880D01*
X85499158Y-70649516D01*
X85524471Y-70650034D01*
X85555331Y-70650458D01*
X85592463Y-70650810D01*
X85636591Y-70651113D01*
X85688441Y-70651391D01*
X85748737Y-70651668D01*
X85806845Y-70651917D01*
X86167641Y-70653453D01*
X86167641Y-70550786D01*
X85819076Y-70549218D01*
G36*
X86199735Y-73431653D02*
G01*
X86198009Y-73389154D01*
X86194918Y-73351605D01*
X86190520Y-73321758D01*
X86173313Y-73250594D01*
X86151544Y-73187794D01*
X86124972Y-73132946D01*
X86093356Y-73085637D01*
X86056457Y-73045453D01*
X86014034Y-73011981D01*
X86008091Y-73008095D01*
X85991795Y-72998779D01*
X85972229Y-72989242D01*
X85951468Y-72980285D01*
X85931583Y-72972708D01*
X85914647Y-72967313D01*
X85902734Y-72964902D01*
X85898238Y-72965631D01*
X85894894Y-72971634D01*
X85888995Y-72984523D01*
X85881540Y-73002065D01*
X85877257Y-73012590D01*
X85869365Y-73032772D01*
X85865007Y-73045722D01*
X85863839Y-73053193D01*
X85865516Y-73056936D01*
X85868276Y-73058301D01*
X85912712Y-73076200D01*
X85951483Y-73100276D01*
X85987213Y-73132209D01*
X85992449Y-73137756D01*
X86026067Y-73181167D01*
X86053446Y-73231914D01*
X86074503Y-73289723D01*
X86089153Y-73354322D01*
X86097312Y-73425438D01*
X86099122Y-73482462D01*
X86096541Y-73553217D01*
X86088956Y-73617526D01*
X86076506Y-73675010D01*
X86059335Y-73725289D01*
X86037583Y-73767984D01*
X86011393Y-73802713D01*
X85980905Y-73829099D01*
X85966575Y-73837751D01*
X85947391Y-73847150D01*
X85931450Y-73852279D01*
X85913917Y-73854389D01*
X85901019Y-73854723D01*
X85870511Y-73852402D01*
X85846203Y-73844112D01*
X85825781Y-73828705D01*
X85809998Y-73809509D01*
X85798911Y-73791720D01*
X85788973Y-73771136D01*
X85779994Y-73746901D01*
X85771786Y-73718159D01*
X85764163Y-73684053D01*
X85756936Y-73643727D01*
X85749917Y-73596327D01*
X85742918Y-73540994D01*
X85735751Y-73476874D01*
X85734611Y-73466076D01*
X85726479Y-73392833D01*
X85718310Y-73328531D01*
X85709908Y-73272328D01*
X85701082Y-73223382D01*
X85691637Y-73180851D01*
X85681380Y-73143894D01*
X85670117Y-73111667D01*
X85657655Y-73083330D01*
X85643801Y-73058041D01*
X85639139Y-73050604D01*
X85610508Y-73012809D01*
X85578971Y-72984101D01*
X85543659Y-72963998D01*
X85503697Y-72952016D01*
X85458216Y-72947672D01*
X85453388Y-72947639D01*
X85400069Y-72952072D01*
X85350770Y-72965404D01*
X85305202Y-72987750D01*
X85263076Y-73019226D01*
X85255202Y-73026471D01*
X85219163Y-73065712D01*
X85188433Y-73110245D01*
X85162597Y-73160940D01*
X85141240Y-73218665D01*
X85123949Y-73284292D01*
X85117618Y-73315385D01*
X85114710Y-73336442D01*
X85112239Y-73365028D01*
X85110264Y-73398894D01*
X85108839Y-73435793D01*
X85108023Y-73473476D01*
X85107872Y-73509696D01*
X85108443Y-73542203D01*
X85109794Y-73568750D01*
X85110913Y-73580185D01*
X85123459Y-73655509D01*
X85141308Y-73724213D01*
X85164264Y-73785941D01*
X85192132Y-73840340D01*
X85224718Y-73887054D01*
X85261826Y-73925728D01*
X85303262Y-73956008D01*
X85323247Y-73966790D01*
X85345766Y-73976694D01*
X85368004Y-73984728D01*
X85387945Y-73990344D01*
X85403568Y-73992996D01*
X85412857Y-73992137D01*
X85413925Y-73991341D01*
X85417359Y-73985168D01*
X85423393Y-73972198D01*
X85430986Y-73954713D01*
X85434927Y-73945268D01*
X85452154Y-73903448D01*
X85418276Y-73892774D01*
X85375390Y-73874255D01*
X85337180Y-73847380D01*
X85303807Y-73812469D01*
X85275428Y-73769844D01*
X85252200Y-73719825D01*
X85234284Y-73662735D01*
X85221836Y-73598894D01*
X85215016Y-73528623D01*
X85213673Y-73477550D01*
X85216018Y-73405191D01*
X85223220Y-73340159D01*
X85235535Y-73281147D01*
X85253217Y-73226849D01*
X85269827Y-73189097D01*
X85294929Y-73146418D01*
X85324235Y-73111756D01*
X85357259Y-73085638D01*
X85373430Y-73076702D01*
X85389256Y-73069716D01*
X85403513Y-73065516D01*
X85419782Y-73063409D01*
X85441643Y-73062705D01*
X85446050Y-73062676D01*
X85473065Y-73063407D01*
X85493301Y-73066614D01*
X85509668Y-73073384D01*
X85525073Y-73084807D01*
X85537621Y-73096953D01*
X85551921Y-73113890D01*
X85564685Y-73134046D01*
X85576090Y-73158156D01*
X85586311Y-73186958D01*
X85595523Y-73221188D01*
X85603902Y-73261582D01*
X85611623Y-73308877D01*
X85618863Y-73363810D01*
X85625796Y-73427117D01*
X85632018Y-73492983D01*
X85639224Y-73566294D01*
X85647070Y-73630677D01*
X85655724Y-73686974D01*
X85665352Y-73736030D01*
X85676123Y-73778687D01*
X85688203Y-73815790D01*
X85701759Y-73848182D01*
X85702878Y-73850523D01*
X85727049Y-73892502D01*
X85754901Y-73925533D01*
X85786768Y-73949859D01*
X85822984Y-73965728D01*
X85863885Y-73973383D01*
X85871108Y-73973874D01*
X85921938Y-73972099D01*
X85969097Y-73961335D01*
X86012464Y-73941709D01*
X86051922Y-73913350D01*
X86087349Y-73876385D01*
X86118626Y-73830943D01*
X86145633Y-73777150D01*
X86168251Y-73715136D01*
X86186360Y-73645027D01*
X86188449Y-73634971D01*
X86193309Y-73603478D01*
X86196884Y-73565016D01*
X86199157Y-73521968D01*
X86200113Y-73476720D01*
X86199735Y-73431653D01*
G37*
X86199735Y-73431653D02*
X86198009Y-73389154D01*
X86194918Y-73351605D01*
X86190520Y-73321758D01*
X86173313Y-73250594D01*
X86151544Y-73187794D01*
X86124972Y-73132946D01*
X86093356Y-73085637D01*
X86056457Y-73045453D01*
X86014034Y-73011981D01*
X86008091Y-73008095D01*
X85991795Y-72998779D01*
X85972229Y-72989242D01*
X85951468Y-72980285D01*
X85931583Y-72972708D01*
X85914647Y-72967313D01*
X85902734Y-72964902D01*
X85898238Y-72965631D01*
X85894894Y-72971634D01*
X85888995Y-72984523D01*
X85881540Y-73002065D01*
X85877257Y-73012590D01*
X85869365Y-73032772D01*
X85865007Y-73045722D01*
X85863839Y-73053193D01*
X85865516Y-73056936D01*
X85868276Y-73058301D01*
X85912712Y-73076200D01*
X85951483Y-73100276D01*
X85987213Y-73132209D01*
X85992449Y-73137756D01*
X86026067Y-73181167D01*
X86053446Y-73231914D01*
X86074503Y-73289723D01*
X86089153Y-73354322D01*
X86097312Y-73425438D01*
X86099122Y-73482462D01*
X86096541Y-73553217D01*
X86088956Y-73617526D01*
X86076506Y-73675010D01*
X86059335Y-73725289D01*
X86037583Y-73767984D01*
X86011393Y-73802713D01*
X85980905Y-73829099D01*
X85966575Y-73837751D01*
X85947391Y-73847150D01*
X85931450Y-73852279D01*
X85913917Y-73854389D01*
X85901019Y-73854723D01*
X85870511Y-73852402D01*
X85846203Y-73844112D01*
X85825781Y-73828705D01*
X85809998Y-73809509D01*
X85798911Y-73791720D01*
X85788973Y-73771136D01*
X85779994Y-73746901D01*
X85771786Y-73718159D01*
X85764163Y-73684053D01*
X85756936Y-73643727D01*
X85749917Y-73596327D01*
X85742918Y-73540994D01*
X85735751Y-73476874D01*
X85734611Y-73466076D01*
X85726479Y-73392833D01*
X85718310Y-73328531D01*
X85709908Y-73272328D01*
X85701082Y-73223382D01*
X85691637Y-73180851D01*
X85681380Y-73143894D01*
X85670117Y-73111667D01*
X85657655Y-73083330D01*
X85643801Y-73058041D01*
X85639139Y-73050604D01*
X85610508Y-73012809D01*
X85578971Y-72984101D01*
X85543659Y-72963998D01*
X85503697Y-72952016D01*
X85458216Y-72947672D01*
X85453388Y-72947639D01*
X85400069Y-72952072D01*
X85350770Y-72965404D01*
X85305202Y-72987750D01*
X85263076Y-73019226D01*
X85255202Y-73026471D01*
X85219163Y-73065712D01*
X85188433Y-73110245D01*
X85162597Y-73160940D01*
X85141240Y-73218665D01*
X85123949Y-73284292D01*
X85117618Y-73315385D01*
X85114710Y-73336442D01*
X85112239Y-73365028D01*
X85110264Y-73398894D01*
X85108839Y-73435793D01*
X85108023Y-73473476D01*
X85107872Y-73509696D01*
X85108443Y-73542203D01*
X85109794Y-73568750D01*
X85110913Y-73580185D01*
X85123459Y-73655509D01*
X85141308Y-73724213D01*
X85164264Y-73785941D01*
X85192132Y-73840340D01*
X85224718Y-73887054D01*
X85261826Y-73925728D01*
X85303262Y-73956008D01*
X85323247Y-73966790D01*
X85345766Y-73976694D01*
X85368004Y-73984728D01*
X85387945Y-73990344D01*
X85403568Y-73992996D01*
X85412857Y-73992137D01*
X85413925Y-73991341D01*
X85417359Y-73985168D01*
X85423393Y-73972198D01*
X85430986Y-73954713D01*
X85434927Y-73945268D01*
X85452154Y-73903448D01*
X85418276Y-73892774D01*
X85375390Y-73874255D01*
X85337180Y-73847380D01*
X85303807Y-73812469D01*
X85275428Y-73769844D01*
X85252200Y-73719825D01*
X85234284Y-73662735D01*
X85221836Y-73598894D01*
X85215016Y-73528623D01*
X85213673Y-73477550D01*
X85216018Y-73405191D01*
X85223220Y-73340159D01*
X85235535Y-73281147D01*
X85253217Y-73226849D01*
X85269827Y-73189097D01*
X85294929Y-73146418D01*
X85324235Y-73111756D01*
X85357259Y-73085638D01*
X85373430Y-73076702D01*
X85389256Y-73069716D01*
X85403513Y-73065516D01*
X85419782Y-73063409D01*
X85441643Y-73062705D01*
X85446050Y-73062676D01*
X85473065Y-73063407D01*
X85493301Y-73066614D01*
X85509668Y-73073384D01*
X85525073Y-73084807D01*
X85537621Y-73096953D01*
X85551921Y-73113890D01*
X85564685Y-73134046D01*
X85576090Y-73158156D01*
X85586311Y-73186958D01*
X85595523Y-73221188D01*
X85603902Y-73261582D01*
X85611623Y-73308877D01*
X85618863Y-73363810D01*
X85625796Y-73427117D01*
X85632018Y-73492983D01*
X85639224Y-73566294D01*
X85647070Y-73630677D01*
X85655724Y-73686974D01*
X85665352Y-73736030D01*
X85676123Y-73778687D01*
X85688203Y-73815790D01*
X85701759Y-73848182D01*
X85702878Y-73850523D01*
X85727049Y-73892502D01*
X85754901Y-73925533D01*
X85786768Y-73949859D01*
X85822984Y-73965728D01*
X85863885Y-73973383D01*
X85871108Y-73973874D01*
X85921938Y-73972099D01*
X85969097Y-73961335D01*
X86012464Y-73941709D01*
X86051922Y-73913350D01*
X86087349Y-73876385D01*
X86118626Y-73830943D01*
X86145633Y-73777150D01*
X86168251Y-73715136D01*
X86186360Y-73645027D01*
X86188449Y-73634971D01*
X86193309Y-73603478D01*
X86196884Y-73565016D01*
X86199157Y-73521968D01*
X86200113Y-73476720D01*
X86199735Y-73431653D01*
G36*
X86201032Y-71802705D02*
G01*
X86198175Y-71757390D01*
X86194872Y-71732053D01*
X86178643Y-71659192D01*
X86154835Y-71592408D01*
X86123324Y-71531442D01*
X86083988Y-71476036D01*
X86060525Y-71449468D01*
X86010597Y-71403026D01*
X85956465Y-71364809D01*
X85897479Y-71334499D01*
X85832991Y-71311776D01*
X85762352Y-71296322D01*
X85742789Y-71293441D01*
X85710985Y-71290709D01*
X85673032Y-71289826D01*
X85632005Y-71290662D01*
X85590980Y-71293085D01*
X85553032Y-71296963D01*
X85521237Y-71302165D01*
X85516986Y-71303098D01*
X85446319Y-71323862D01*
X85381490Y-71352255D01*
X85322821Y-71387973D01*
X85270634Y-71430712D01*
X85225252Y-71480165D01*
X85186997Y-71536028D01*
X85156192Y-71597997D01*
X85133159Y-71665765D01*
X85133017Y-71666290D01*
X85126990Y-71691173D01*
X85121738Y-71717255D01*
X85118147Y-71740001D01*
X85117477Y-71745998D01*
X85114289Y-71779752D01*
X85014771Y-71776931D01*
X84915253Y-71774109D01*
X84915253Y-71890092D01*
X85015542Y-71887249D01*
X85115830Y-71884405D01*
X85115830Y-71899296D01*
X85117253Y-71917229D01*
X85121124Y-71941612D01*
X85126845Y-71969598D01*
X85133820Y-71998337D01*
X85141450Y-72024982D01*
X85143551Y-72031466D01*
X85170187Y-72096610D01*
X85204306Y-72155813D01*
X85245384Y-72208757D01*
X85292894Y-72255125D01*
X85346315Y-72294599D01*
X85405120Y-72326861D01*
X85468786Y-72351595D01*
X85536788Y-72368482D01*
X85608602Y-72377205D01*
X85651082Y-72377341D01*
X85651082Y-72271783D01*
X85584002Y-72267043D01*
X85520566Y-72253926D01*
X85461316Y-72232700D01*
X85406793Y-72203634D01*
X85357539Y-72166997D01*
X85314094Y-72123057D01*
X85277001Y-72072084D01*
X85257877Y-72037952D01*
X85249278Y-72018201D01*
X85240442Y-71993402D01*
X85232160Y-71966350D01*
X85225226Y-71939843D01*
X85220431Y-71916679D01*
X85218568Y-71899654D01*
X85218565Y-71899198D01*
X85218565Y-71884383D01*
X85362884Y-71887256D01*
X85507202Y-71890129D01*
X85507202Y-71773938D01*
X85360020Y-71776896D01*
X85212839Y-71779853D01*
X85216100Y-71755833D01*
X85219118Y-71738382D01*
X85223780Y-71716513D01*
X85228607Y-71696800D01*
X85249054Y-71637150D01*
X85277116Y-71583415D01*
X85312395Y-71535893D01*
X85354498Y-71494880D01*
X85403027Y-71460671D01*
X85457588Y-71433564D01*
X85517785Y-71413854D01*
X85583223Y-71401837D01*
X85627059Y-71398347D01*
X85699087Y-71399385D01*
X85766049Y-71408767D01*
X85828048Y-71426527D01*
X85885186Y-71452699D01*
X85937565Y-71487319D01*
X85970186Y-71515391D01*
X86011732Y-71560469D01*
X86044881Y-71609056D01*
X86069858Y-71661753D01*
X86086888Y-71719163D01*
X86096195Y-71781885D01*
X86098006Y-71850523D01*
X86097824Y-71856561D01*
X86095096Y-71902976D01*
X86089941Y-71942597D01*
X86081702Y-71978254D01*
X86069722Y-72012776D01*
X86053344Y-72048992D01*
X86052943Y-72049801D01*
X86021410Y-72103361D01*
X85983614Y-72149487D01*
X85939489Y-72188223D01*
X85888968Y-72219613D01*
X85831984Y-72243700D01*
X85768471Y-72260528D01*
X85721264Y-72267877D01*
X85651082Y-72271783D01*
X85651082Y-72377341D01*
X85683704Y-72377447D01*
X85711407Y-72375400D01*
X85788579Y-72364009D01*
X85859898Y-72344995D01*
X85925163Y-72318524D01*
X85984173Y-72284761D01*
X86036727Y-72243870D01*
X86082624Y-72196017D01*
X86121662Y-72141367D01*
X86153641Y-72080084D01*
X86178359Y-72012335D01*
X86185490Y-71986203D01*
X86193181Y-71946476D01*
X86198415Y-71900490D01*
X86201072Y-71851486D01*
X86201032Y-71802705D01*
G37*
X86201032Y-71802705D02*
X86198175Y-71757390D01*
X86194872Y-71732053D01*
X86178643Y-71659192D01*
X86154835Y-71592408D01*
X86123324Y-71531442D01*
X86083988Y-71476036D01*
X86060525Y-71449468D01*
X86010597Y-71403026D01*
X85956465Y-71364809D01*
X85897479Y-71334499D01*
X85832991Y-71311776D01*
X85762352Y-71296322D01*
X85742789Y-71293441D01*
X85710985Y-71290709D01*
X85673032Y-71289826D01*
X85632005Y-71290662D01*
X85590980Y-71293085D01*
X85553032Y-71296963D01*
X85521237Y-71302165D01*
X85516986Y-71303098D01*
X85446319Y-71323862D01*
X85381490Y-71352255D01*
X85322821Y-71387973D01*
X85270634Y-71430712D01*
X85225252Y-71480165D01*
X85186997Y-71536028D01*
X85156192Y-71597997D01*
X85133159Y-71665765D01*
X85133017Y-71666290D01*
X85126990Y-71691173D01*
X85121738Y-71717255D01*
X85118147Y-71740001D01*
X85117477Y-71745998D01*
X85114289Y-71779752D01*
X85014771Y-71776931D01*
X84915253Y-71774109D01*
X84915253Y-71890092D01*
X85015542Y-71887249D01*
X85115830Y-71884405D01*
X85115830Y-71899296D01*
X85117253Y-71917229D01*
X85121124Y-71941612D01*
X85126845Y-71969598D01*
X85133820Y-71998337D01*
X85141450Y-72024982D01*
X85143551Y-72031466D01*
X85170187Y-72096610D01*
X85204306Y-72155813D01*
X85245384Y-72208757D01*
X85292894Y-72255125D01*
X85346315Y-72294599D01*
X85405120Y-72326861D01*
X85468786Y-72351595D01*
X85536788Y-72368482D01*
X85608602Y-72377205D01*
X85651082Y-72377341D01*
X85651082Y-72271783D01*
X85584002Y-72267043D01*
X85520566Y-72253926D01*
X85461316Y-72232700D01*
X85406793Y-72203634D01*
X85357539Y-72166997D01*
X85314094Y-72123057D01*
X85277001Y-72072084D01*
X85257877Y-72037952D01*
X85249278Y-72018201D01*
X85240442Y-71993402D01*
X85232160Y-71966350D01*
X85225226Y-71939843D01*
X85220431Y-71916679D01*
X85218568Y-71899654D01*
X85218565Y-71899198D01*
X85218565Y-71884383D01*
X85362884Y-71887256D01*
X85507202Y-71890129D01*
X85507202Y-71773938D01*
X85360020Y-71776896D01*
X85212839Y-71779853D01*
X85216100Y-71755833D01*
X85219118Y-71738382D01*
X85223780Y-71716513D01*
X85228607Y-71696800D01*
X85249054Y-71637150D01*
X85277116Y-71583415D01*
X85312395Y-71535893D01*
X85354498Y-71494880D01*
X85403027Y-71460671D01*
X85457588Y-71433564D01*
X85517785Y-71413854D01*
X85583223Y-71401837D01*
X85627059Y-71398347D01*
X85699087Y-71399385D01*
X85766049Y-71408767D01*
X85828048Y-71426527D01*
X85885186Y-71452699D01*
X85937565Y-71487319D01*
X85970186Y-71515391D01*
X86011732Y-71560469D01*
X86044881Y-71609056D01*
X86069858Y-71661753D01*
X86086888Y-71719163D01*
X86096195Y-71781885D01*
X86098006Y-71850523D01*
X86097824Y-71856561D01*
X86095096Y-71902976D01*
X86089941Y-71942597D01*
X86081702Y-71978254D01*
X86069722Y-72012776D01*
X86053344Y-72048992D01*
X86052943Y-72049801D01*
X86021410Y-72103361D01*
X85983614Y-72149487D01*
X85939489Y-72188223D01*
X85888968Y-72219613D01*
X85831984Y-72243700D01*
X85768471Y-72260528D01*
X85721264Y-72267877D01*
X85651082Y-72271783D01*
X85651082Y-72377341D01*
X85683704Y-72377447D01*
X85711407Y-72375400D01*
X85788579Y-72364009D01*
X85859898Y-72344995D01*
X85925163Y-72318524D01*
X85984173Y-72284761D01*
X86036727Y-72243870D01*
X86082624Y-72196017D01*
X86121662Y-72141367D01*
X86153641Y-72080084D01*
X86178359Y-72012335D01*
X86185490Y-71986203D01*
X86193181Y-71946476D01*
X86198415Y-71900490D01*
X86201072Y-71851486D01*
X86201032Y-71802705D01*
%TD*%
M02*
