%TF.GenerationSoftware,KiCad,Pcbnew,(5.1.8)-1*%
%TF.CreationDate,2021-02-21T20:08:29-05:00*%
%TF.ProjectId,Mega_Shield,4d656761-5f53-4686-9965-6c642e6b6963,rev?*%
%TF.SameCoordinates,Original*%
%TF.FileFunction,Copper,L1,Top*%
%TF.FilePolarity,Positive*%
%FSLAX46Y46*%
G04 Gerber Fmt 4.6, Leading zero omitted, Abs format (unit mm)*
G04 Created by KiCad (PCBNEW (5.1.8)-1) date 2021-02-21 20:08:29*
%MOMM*%
%LPD*%
G01*
G04 APERTURE LIST*
%TA.AperFunction,ComponentPad*%
%ADD10R,2.000000X2.000000*%
%TD*%
%TA.AperFunction,ComponentPad*%
%ADD11O,2.000000X2.000000*%
%TD*%
%TA.AperFunction,ComponentPad*%
%ADD12C,1.700000*%
%TD*%
%TA.AperFunction,ComponentPad*%
%ADD13R,1.700000X1.700000*%
%TD*%
%TA.AperFunction,ComponentPad*%
%ADD14C,1.600000*%
%TD*%
%TA.AperFunction,ComponentPad*%
%ADD15R,1.600000X1.600000*%
%TD*%
%TA.AperFunction,ComponentPad*%
%ADD16O,1.727200X1.727200*%
%TD*%
%TA.AperFunction,ComponentPad*%
%ADD17O,1.600000X1.600000*%
%TD*%
%TA.AperFunction,ComponentPad*%
%ADD18O,2.200000X2.200000*%
%TD*%
%TA.AperFunction,ComponentPad*%
%ADD19R,2.200000X2.200000*%
%TD*%
%TA.AperFunction,ComponentPad*%
%ADD20C,2.000000*%
%TD*%
%TA.AperFunction,ComponentPad*%
%ADD21C,1.400000*%
%TD*%
%TA.AperFunction,ComponentPad*%
%ADD22O,1.400000X1.400000*%
%TD*%
%TA.AperFunction,ComponentPad*%
%ADD23O,1.700000X1.700000*%
%TD*%
%TA.AperFunction,Conductor*%
%ADD24C,0.254000*%
%TD*%
%TA.AperFunction,Conductor*%
%ADD25C,0.100000*%
%TD*%
G04 APERTURE END LIST*
D10*
%TO.P,D3,4*%
%TO.N,GND*%
X114681000Y-43180000D03*
D11*
%TO.P,D3,3*%
%TO.N,Net-(D3-Pad3)*%
X110871000Y-43180000D03*
%TO.P,D3,2*%
%TO.N,Net-(D3-Pad2)*%
X107061000Y-43180000D03*
%TO.P,D3,1*%
%TO.N,Net-(D3-Pad1)*%
X103251000Y-43180000D03*
%TD*%
D12*
%TO.P,J7,8*%
%TO.N,VCC*%
X171831000Y-68057000D03*
D13*
%TO.P,J7,7*%
%TO.N,GND*%
X169291000Y-68057000D03*
D12*
%TO.P,J7,6*%
%TO.N,/D21*%
X166751000Y-68057000D03*
%TO.P,J7,5*%
%TO.N,/D20*%
X164211000Y-68057000D03*
D13*
%TO.P,J7,4*%
%TO.N,GND*%
X161671000Y-68057000D03*
D12*
%TO.P,J7,3*%
%TO.N,/D2*%
X159131000Y-68057000D03*
%TO.P,J7,2*%
%TO.N,Net-(J7-Pad2)*%
X156591000Y-68057000D03*
%TO.P,J7,1*%
%TO.N,Net-(J7-Pad1)*%
X154051000Y-68057000D03*
%TD*%
D13*
%TO.P,J8,4*%
%TO.N,GND*%
X139970800Y-67484000D03*
D12*
%TO.P,J8,3*%
%TO.N,/D15*%
X139970800Y-65024000D03*
%TO.P,J8,2*%
%TO.N,/D14*%
X139970800Y-62484000D03*
%TO.P,J8,1*%
%TO.N,Net-(J5-Pad2)*%
X139970800Y-60024000D03*
%TD*%
%TO.P,J2,4*%
%TO.N,/VIN*%
X84886800Y-37187900D03*
D13*
%TO.P,J2,3*%
%TO.N,GND*%
X87426800Y-37187900D03*
D12*
%TO.P,J2,2*%
%TO.N,Net-(J12-Pad2)*%
X89966800Y-37187900D03*
%TO.P,J2,1*%
%TO.N,Net-(J2-Pad1)*%
X92506800Y-37187900D03*
%TD*%
D13*
%TO.P,J9,6*%
%TO.N,GND*%
X162280600Y-29510900D03*
D12*
%TO.P,J9,5*%
%TO.N,VCC*%
X164820600Y-29510900D03*
%TO.P,J9,4*%
%TO.N,/D50*%
X167360600Y-29510900D03*
%TO.P,J9,3*%
%TO.N,/D51*%
X169900600Y-29510900D03*
%TO.P,J9,2*%
%TO.N,/D52*%
X172440600Y-29510900D03*
%TO.P,J9,1*%
%TO.N,/D53*%
X174980600Y-29510900D03*
%TD*%
%TO.P,J6,6*%
%TO.N,Net-(J6-Pad6)*%
X151460200Y-29537900D03*
%TO.P,J6,5*%
%TO.N,VCC*%
X148920200Y-29537900D03*
D13*
%TO.P,J6,4*%
%TO.N,GND*%
X146380200Y-29537900D03*
D12*
%TO.P,J6,3*%
%TO.N,/D17*%
X143840200Y-29537900D03*
%TO.P,J6,2*%
%TO.N,/D16*%
X141300200Y-29537900D03*
%TO.P,J6,1*%
%TO.N,/D23*%
X138760200Y-29537900D03*
%TD*%
D14*
%TO.P,U1,4*%
%TO.N,/D18*%
X157835600Y-42164000D03*
D15*
%TO.P,U1,5*%
%TO.N,GND*%
X157835600Y-49784000D03*
D14*
%TO.P,U1,3*%
%TO.N,/D22*%
X160375600Y-42164000D03*
%TO.P,U1,6*%
%TO.N,Net-(D2-Pad1)*%
X160375600Y-49784000D03*
%TO.P,U1,2*%
%TO.N,/D22*%
X162915600Y-42164000D03*
%TO.P,U1,7*%
%TO.N,Net-(D1-Pad1)*%
X162915600Y-49784000D03*
%TO.P,U1,1*%
%TO.N,/D19*%
X165455600Y-42164000D03*
%TO.P,U1,8*%
%TO.N,VCC*%
X165455600Y-49784000D03*
%TD*%
D16*
%TO.P,XA1,MISO*%
%TO.N,Net-(XA1-PadMISO)*%
X145796000Y-58166000D03*
%TO.P,XA1,GND6*%
%TO.N,GND*%
X178689000Y-81026000D03*
%TO.P,XA1,GND5*%
X176149000Y-81026000D03*
%TO.P,XA1,D53*%
%TO.N,/D53*%
X178689000Y-78486000D03*
%TO.P,XA1,D52*%
%TO.N,/D52*%
X176149000Y-78486000D03*
%TO.P,XA1,D51*%
%TO.N,/D51*%
X178689000Y-75946000D03*
%TO.P,XA1,D50*%
%TO.N,/D50*%
X176149000Y-75946000D03*
%TO.P,XA1,D49*%
%TO.N,/D49*%
X178689000Y-73406000D03*
%TO.P,XA1,D48*%
%TO.N,/D48*%
X176149000Y-73406000D03*
%TO.P,XA1,D47*%
%TO.N,/D47*%
X178689000Y-70866000D03*
%TO.P,XA1,D46*%
%TO.N,/D46*%
X176149000Y-70866000D03*
%TO.P,XA1,D45*%
%TO.N,/D45*%
X178689000Y-68326000D03*
%TO.P,XA1,D44*%
%TO.N,/D44*%
X176149000Y-68326000D03*
%TO.P,XA1,D43*%
%TO.N,/D43*%
X178689000Y-65786000D03*
%TO.P,XA1,D42*%
%TO.N,/D42*%
X176149000Y-65786000D03*
%TO.P,XA1,D41*%
%TO.N,/D41*%
X178689000Y-63246000D03*
%TO.P,XA1,D40*%
%TO.N,/D40*%
X176149000Y-63246000D03*
%TO.P,XA1,D39*%
%TO.N,/D39*%
X178689000Y-60706000D03*
%TO.P,XA1,D38*%
%TO.N,/D38*%
X176149000Y-60706000D03*
%TO.P,XA1,D37*%
%TO.N,/D37*%
X178689000Y-58166000D03*
%TO.P,XA1,D36*%
%TO.N,/D36*%
X176149000Y-58166000D03*
%TO.P,XA1,D35*%
%TO.N,/D35*%
X178689000Y-55626000D03*
%TO.P,XA1,D34*%
%TO.N,/D34*%
X176149000Y-55626000D03*
%TO.P,XA1,D33*%
%TO.N,/D33*%
X178689000Y-53086000D03*
%TO.P,XA1,D32*%
%TO.N,/D32*%
X176149000Y-53086000D03*
%TO.P,XA1,D31*%
%TO.N,/D31*%
X178689000Y-50546000D03*
%TO.P,XA1,D30*%
%TO.N,/D30*%
X176149000Y-50546000D03*
%TO.P,XA1,D29*%
%TO.N,/D29*%
X178689000Y-48006000D03*
%TO.P,XA1,D28*%
%TO.N,/D28*%
X176149000Y-48006000D03*
%TO.P,XA1,D27*%
%TO.N,/D27*%
X178689000Y-45466000D03*
%TO.P,XA1,D26*%
%TO.N,/D26*%
X176149000Y-45466000D03*
%TO.P,XA1,D25*%
%TO.N,/D25*%
X178689000Y-42926000D03*
%TO.P,XA1,D24*%
%TO.N,/D24*%
X176149000Y-42926000D03*
%TO.P,XA1,D23*%
%TO.N,/D23*%
X178689000Y-40386000D03*
%TO.P,XA1,D22*%
%TO.N,/D22*%
X176149000Y-40386000D03*
%TO.P,XA1,5V4*%
%TO.N,VCC*%
X178689000Y-37846000D03*
%TO.P,XA1,5V3*%
X176149000Y-37846000D03*
%TO.P,XA1,A15*%
%TO.N,/A15*%
X173609000Y-86106000D03*
%TO.P,XA1,A14*%
%TO.N,/A14*%
X171069000Y-86106000D03*
%TO.P,XA1,A13*%
%TO.N,/A13*%
X168529000Y-86106000D03*
%TO.P,XA1,A12*%
%TO.N,/A12*%
X165989000Y-86106000D03*
%TO.P,XA1,A11*%
%TO.N,/A11*%
X163449000Y-86106000D03*
%TO.P,XA1,A10*%
%TO.N,/A10*%
X160909000Y-86106000D03*
%TO.P,XA1,A9*%
%TO.N,/A9*%
X158369000Y-86106000D03*
%TO.P,XA1,A8*%
%TO.N,/A8*%
X155829000Y-86106000D03*
%TO.P,XA1,A7*%
%TO.N,Net-(XA1-PadA7)*%
X150749000Y-86106000D03*
%TO.P,XA1,A6*%
%TO.N,/A6*%
X148209000Y-86106000D03*
%TO.P,XA1,A5*%
%TO.N,/A5*%
X145669000Y-86106000D03*
%TO.P,XA1,A4*%
%TO.N,/A4*%
X143129000Y-86106000D03*
%TO.P,XA1,A3*%
%TO.N,/A3*%
X140589000Y-86106000D03*
%TO.P,XA1,A2*%
%TO.N,/A2*%
X138049000Y-86106000D03*
%TO.P,XA1,A1*%
%TO.N,/A1*%
X135509000Y-86106000D03*
%TO.P,XA1,*%
%TO.N,*%
X110109000Y-86106000D03*
%TO.P,XA1,D11*%
%TO.N,/D11*%
X116205000Y-37846000D03*
%TO.P,XA1,D12*%
%TO.N,/D12*%
X113665000Y-37846000D03*
%TO.P,XA1,D13*%
%TO.N,/D13*%
X111125000Y-37846000D03*
%TO.P,XA1,AREF*%
%TO.N,/AREF*%
X106045000Y-37846000D03*
%TO.P,XA1,SDA*%
%TO.N,SDA*%
X103505000Y-37846000D03*
%TO.P,XA1,SCL*%
%TO.N,SCL*%
X100965000Y-37846000D03*
%TO.P,XA1,D10*%
%TO.N,/D10*%
X118745000Y-37846000D03*
%TO.P,XA1,D9*%
%TO.N,/D9*%
X121285000Y-37846000D03*
%TO.P,XA1,D8*%
%TO.N,/D8*%
X123825000Y-37846000D03*
%TO.P,XA1,GND1*%
%TO.N,GND*%
X108585000Y-37846000D03*
%TO.P,XA1,D7*%
%TO.N,/D7*%
X127889000Y-37846000D03*
%TO.P,XA1,D6*%
%TO.N,/D6*%
X130429000Y-37846000D03*
%TO.P,XA1,D5*%
%TO.N,/D5*%
X132969000Y-37846000D03*
%TO.P,XA1,D4*%
%TO.N,/D4*%
X135509000Y-37846000D03*
%TO.P,XA1,D3*%
%TO.N,/D3*%
X138049000Y-37846000D03*
%TO.P,XA1,D2*%
%TO.N,/D2*%
X140589000Y-37846000D03*
%TO.P,XA1,D1*%
%TO.N,/D1*%
X143129000Y-37846000D03*
%TO.P,XA1,D0*%
%TO.N,/D0*%
X145669000Y-37846000D03*
%TO.P,XA1,D14*%
%TO.N,/D14*%
X150749000Y-37846000D03*
%TO.P,XA1,D15*%
%TO.N,/D15*%
X153289000Y-37846000D03*
%TO.P,XA1,D16*%
%TO.N,/D16*%
X155829000Y-37846000D03*
%TO.P,XA1,D17*%
%TO.N,/D17*%
X158369000Y-37846000D03*
%TO.P,XA1,D18*%
%TO.N,/D18*%
X160909000Y-37846000D03*
%TO.P,XA1,D19*%
%TO.N,/D19*%
X163449000Y-37846000D03*
%TO.P,XA1,D20*%
%TO.N,/D20*%
X165989000Y-37846000D03*
%TO.P,XA1,D21*%
%TO.N,/D21*%
X168529000Y-37846000D03*
%TO.P,XA1,IORF*%
%TO.N,/IOREF*%
X112649000Y-86106000D03*
%TO.P,XA1,RST1*%
%TO.N,/RESET*%
X115189000Y-86106000D03*
%TO.P,XA1,3V3*%
%TO.N,VDD*%
X117729000Y-86106000D03*
%TO.P,XA1,5V1*%
%TO.N,VCC*%
X120269000Y-86106000D03*
%TO.P,XA1,GND2*%
%TO.N,GND*%
X122809000Y-86106000D03*
%TO.P,XA1,GND3*%
X125349000Y-86106000D03*
%TO.P,XA1,VIN*%
%TO.N,/VIN*%
X127889000Y-86106000D03*
%TO.P,XA1,A0*%
%TO.N,/A0*%
X132969000Y-86106000D03*
%TO.P,XA1,5V2*%
%TO.N,Net-(XA1-Pad5V2)*%
X148336000Y-58166000D03*
%TO.P,XA1,SCK*%
%TO.N,Net-(XA1-PadSCK)*%
X145796000Y-60706000D03*
%TO.P,XA1,MOSI*%
%TO.N,Net-(XA1-PadMOSI)*%
X148336000Y-60706000D03*
%TO.P,XA1,GND4*%
%TO.N,Net-(XA1-PadGND4)*%
X148336000Y-63246000D03*
%TO.P,XA1,RST2*%
%TO.N,Net-(XA1-PadRST2)*%
X145796000Y-63246000D03*
%TD*%
D14*
%TO.P,C1,2*%
%TO.N,VCC*%
X168645200Y-49631600D03*
%TO.P,C1,1*%
%TO.N,GND*%
X171145200Y-49631600D03*
%TD*%
D17*
%TO.P,R1,2*%
%TO.N,Net-(D2-Pad1)*%
X158369000Y-54737000D03*
D14*
%TO.P,R1,1*%
%TO.N,Net-(D1-Pad1)*%
X165989000Y-54737000D03*
%TD*%
D18*
%TO.P,D1,2*%
%TO.N,GND*%
X156870400Y-59588400D03*
D19*
%TO.P,D1,1*%
%TO.N,Net-(D1-Pad1)*%
X167030400Y-59588400D03*
%TD*%
D18*
%TO.P,D2,2*%
%TO.N,GND*%
X153771600Y-58115200D03*
D19*
%TO.P,D2,1*%
%TO.N,Net-(D2-Pad1)*%
X153771600Y-47955200D03*
%TD*%
D20*
%TO.P,D4,2*%
%TO.N,Net-(D4-Pad2)*%
X172923200Y-55676800D03*
D10*
%TO.P,D4,1*%
%TO.N,GND*%
X170383200Y-55676800D03*
%TD*%
D21*
%TO.P,R2,1*%
%TO.N,/D38*%
X172720000Y-64668400D03*
D22*
%TO.P,R2,2*%
%TO.N,Net-(D4-Pad2)*%
X172720000Y-59588400D03*
%TD*%
D20*
%TO.P,D5,2*%
%TO.N,Net-(D5-Pad2)*%
X146304000Y-67818000D03*
D10*
%TO.P,D5,1*%
%TO.N,GND*%
X143764000Y-67818000D03*
%TD*%
D13*
%TO.P,J5,1*%
%TO.N,Net-(J10-Pad4)*%
X144526000Y-78232000D03*
D23*
%TO.P,J5,2*%
%TO.N,Net-(J5-Pad2)*%
X144526000Y-75692000D03*
%TO.P,J5,3*%
%TO.N,VCC*%
X144526000Y-73152000D03*
%TD*%
D13*
%TO.P,J10,1*%
%TO.N,Net-(J10-Pad1)*%
X141986000Y-82296000D03*
D23*
%TO.P,J10,2*%
%TO.N,/D15*%
X139446000Y-82296000D03*
%TO.P,J10,3*%
%TO.N,/D14*%
X136906000Y-82296000D03*
%TO.P,J10,4*%
%TO.N,Net-(J10-Pad4)*%
X134366000Y-82296000D03*
%TO.P,J10,5*%
%TO.N,Net-(J10-Pad5)*%
X131826000Y-82296000D03*
D13*
%TO.P,J10,6*%
%TO.N,GND*%
X129286000Y-82296000D03*
%TD*%
D21*
%TO.P,R3,1*%
%TO.N,/D40*%
X149860000Y-74422000D03*
D22*
%TO.P,R3,2*%
%TO.N,Net-(D5-Pad2)*%
X149860000Y-69342000D03*
%TD*%
D13*
%TO.P,J3,1*%
%TO.N,Net-(D3-Pad2)*%
X85598000Y-25400000D03*
D23*
%TO.P,J3,2*%
%TO.N,Net-(D3-Pad3)*%
X85598000Y-27940000D03*
%TO.P,J3,3*%
%TO.N,GND*%
X88138000Y-25400000D03*
%TO.P,J3,4*%
%TO.N,Net-(D3-Pad1)*%
X88138000Y-27940000D03*
%TD*%
D13*
%TO.P,J4,1*%
%TO.N,GND*%
X105664000Y-25400000D03*
D23*
%TO.P,J4,2*%
%TO.N,/VIN*%
X105664000Y-27940000D03*
%TO.P,J4,3*%
%TO.N,Net-(D2-Pad1)*%
X108204000Y-25400000D03*
%TO.P,J4,4*%
%TO.N,Net-(D1-Pad1)*%
X108204000Y-27940000D03*
%TD*%
D13*
%TO.P,J1,1*%
%TO.N,GND*%
X123698000Y-25400000D03*
D23*
%TO.P,J1,2*%
%TO.N,/VIN*%
X123698000Y-27940000D03*
%TO.P,J1,3*%
%TO.N,Net-(D2-Pad1)*%
X126238000Y-25400000D03*
%TO.P,J1,4*%
%TO.N,Net-(D1-Pad1)*%
X126238000Y-27940000D03*
%TD*%
D13*
%TO.P,J12,1*%
%TO.N,Net-(D3-Pad1)*%
X95250000Y-29210000D03*
D23*
%TO.P,J12,2*%
%TO.N,Net-(J12-Pad2)*%
X97790000Y-29210000D03*
%TO.P,J12,3*%
%TO.N,GND*%
X100330000Y-29210000D03*
%TD*%
D13*
%TO.P,J11,1*%
%TO.N,GND*%
X119380000Y-81788000D03*
D23*
%TO.P,J11,2*%
%TO.N,/RESET*%
X116840000Y-81788000D03*
%TD*%
D24*
%TO.N,VCC*%
X165455600Y-49784000D02*
X166255601Y-48983999D01*
X167997599Y-48983999D02*
X168645200Y-49631600D01*
X166255601Y-48983999D02*
X167997599Y-48983999D01*
X169002199Y-49988599D02*
X168645200Y-49631600D01*
X169002199Y-63185799D02*
X169002199Y-49988599D01*
X171831000Y-66014600D02*
X169002199Y-63185799D01*
X171831000Y-68057000D02*
X171831000Y-66014600D01*
X167640000Y-73152000D02*
X144526000Y-73152000D01*
X171831000Y-68961000D02*
X167640000Y-73152000D01*
X171831000Y-68057000D02*
X171831000Y-68961000D01*
%TO.N,Net-(D1-Pad1)*%
X167030400Y-55778400D02*
X165989000Y-54737000D01*
X167030400Y-59588400D02*
X167030400Y-55778400D01*
X109435001Y-26708999D02*
X108204000Y-27940000D01*
X125006999Y-26708999D02*
X109435001Y-26708999D01*
X126238000Y-27940000D02*
X125006999Y-26708999D01*
X132689600Y-34391600D02*
X126238000Y-27940000D01*
X144056610Y-34391600D02*
X132689600Y-34391600D01*
X151630199Y-50284199D02*
X151630199Y-41965189D01*
X160934400Y-59588400D02*
X151630199Y-50284199D01*
X151630199Y-41965189D02*
X144056610Y-34391600D01*
X167030400Y-59588400D02*
X160934400Y-59588400D01*
X163068000Y-49936400D02*
X162915600Y-49784000D01*
X162915600Y-51663600D02*
X165989000Y-54737000D01*
X162915600Y-49784000D02*
X162915600Y-51663600D01*
%TO.N,Net-(D2-Pad1)*%
X153771600Y-50139600D02*
X158369000Y-54737000D01*
X153771600Y-47955200D02*
X153771600Y-50139600D01*
X153771600Y-47955200D02*
X153771600Y-43230800D01*
X133832600Y-32994600D02*
X143535400Y-32994600D01*
X126238000Y-25400000D02*
X133832600Y-32994600D01*
X153771600Y-43230800D02*
X143535400Y-32994600D01*
X109435001Y-24168999D02*
X108204000Y-25400000D01*
X125006999Y-24168999D02*
X109435001Y-24168999D01*
X126238000Y-25400000D02*
X125006999Y-24168999D01*
X160528000Y-49936400D02*
X160375600Y-49784000D01*
X160528000Y-52578000D02*
X160528000Y-49936400D01*
X158369000Y-54737000D02*
X160528000Y-52578000D01*
%TO.N,/VIN*%
X126127367Y-84344367D02*
X126127367Y-36719367D01*
X127889000Y-86106000D02*
X126127367Y-84344367D01*
X122466999Y-29171001D02*
X123698000Y-27940000D01*
X106895001Y-29171001D02*
X122466999Y-29171001D01*
X105664000Y-27940000D02*
X106895001Y-29171001D01*
X123698000Y-34290000D02*
X125984000Y-36576000D01*
X123698000Y-27940000D02*
X123698000Y-34290000D01*
X126127367Y-36719367D02*
X125984000Y-36576000D01*
%TO.N,Net-(D3-Pad2)*%
X105029000Y-45212000D02*
X107061000Y-43180000D01*
X82804000Y-40640000D02*
X87376000Y-45212000D01*
X82804000Y-28194000D02*
X82804000Y-40640000D01*
X87376000Y-45212000D02*
X105029000Y-45212000D01*
X85598000Y-25400000D02*
X82804000Y-28194000D01*
%TO.N,/D17*%
X152476200Y-31953200D02*
X158369000Y-37846000D01*
X146255500Y-31953200D02*
X152476200Y-31953200D01*
X143840200Y-29537900D02*
X146255500Y-31953200D01*
%TO.N,/D16*%
X141300200Y-29537900D02*
X144223500Y-32461200D01*
X150444200Y-32461200D02*
X155829000Y-37846000D01*
X144223500Y-32461200D02*
X150444200Y-32461200D01*
%TO.N,/D2*%
X140589000Y-48312919D02*
X140589000Y-37846000D01*
X159131000Y-66854919D02*
X140589000Y-48312919D01*
X159131000Y-68057000D02*
X159131000Y-66854919D01*
%TO.N,/D15*%
X138596001Y-66398799D02*
X139970800Y-65024000D01*
X138596001Y-81446001D02*
X138596001Y-66398799D01*
X139446000Y-82296000D02*
X138596001Y-81446001D01*
%TO.N,/D14*%
X136906000Y-65548800D02*
X139970800Y-62484000D01*
X136906000Y-82296000D02*
X136906000Y-65548800D01*
%TO.N,/D53*%
X178689000Y-78486000D02*
X180594011Y-76580989D01*
X180594011Y-76580989D02*
X180594011Y-35124311D01*
X180594011Y-35124311D02*
X174980600Y-29510900D01*
%TO.N,/D52*%
X173859100Y-28092400D02*
X172440600Y-29510900D01*
X175818800Y-28092400D02*
X173859100Y-28092400D01*
X181152800Y-33426400D02*
X175818800Y-28092400D01*
X181152800Y-77864210D02*
X181152800Y-33426400D01*
X179286409Y-79730601D02*
X181152800Y-77864210D01*
X177393601Y-79730601D02*
X179286409Y-79730601D01*
X176149000Y-78486000D02*
X177393601Y-79730601D01*
%TO.N,/D19*%
X163449000Y-40157400D02*
X165455600Y-42164000D01*
X163449000Y-37846000D02*
X163449000Y-40157400D01*
%TO.N,/D18*%
X160909000Y-39090600D02*
X157835600Y-42164000D01*
X160909000Y-37846000D02*
X160909000Y-39090600D01*
%TO.N,/D22*%
X160375600Y-42164000D02*
X162915600Y-42164000D01*
X172847000Y-43688000D02*
X176149000Y-40386000D01*
X164439600Y-43688000D02*
X172847000Y-43688000D01*
X162915600Y-42164000D02*
X164439600Y-43688000D01*
%TO.N,/D23*%
X140866100Y-27432000D02*
X138760200Y-29537900D01*
X176530000Y-32766000D02*
X159258000Y-32766000D01*
X180086000Y-36322000D02*
X176530000Y-32766000D01*
X159258000Y-32766000D02*
X153924000Y-27432000D01*
X180086000Y-38989000D02*
X180086000Y-36322000D01*
X153924000Y-27432000D02*
X140866100Y-27432000D01*
X178689000Y-40386000D02*
X180086000Y-38989000D01*
%TO.N,/D38*%
X176149000Y-61239400D02*
X176149000Y-60706000D01*
X172720000Y-64668400D02*
X176149000Y-61239400D01*
%TO.N,/D40*%
X168656000Y-74422000D02*
X149860000Y-74422000D01*
X174244000Y-68834000D02*
X168656000Y-74422000D01*
X174244000Y-65151000D02*
X174244000Y-68834000D01*
X176149000Y-63246000D02*
X174244000Y-65151000D01*
%TO.N,/RESET*%
X115189000Y-83439000D02*
X116840000Y-81788000D01*
X115189000Y-86106000D02*
X115189000Y-83439000D01*
%TO.N,Net-(D4-Pad2)*%
X172923200Y-59385200D02*
X172720000Y-59588400D01*
X172923200Y-55676800D02*
X172923200Y-59385200D01*
%TO.N,Net-(D3-Pad1)*%
X93980000Y-27940000D02*
X95250000Y-29210000D01*
X88138000Y-27940000D02*
X93980000Y-27940000D01*
%TO.N,Net-(D3-Pad3)*%
X85598000Y-27940000D02*
X83312011Y-30225989D01*
X83312011Y-30225989D02*
X83312011Y-39370011D01*
X83312011Y-39370011D02*
X85344000Y-41402000D01*
X85344000Y-41402000D02*
X109093000Y-41402000D01*
X109093000Y-41402000D02*
X110871000Y-43180000D01*
%TO.N,Net-(D5-Pad2)*%
X147828000Y-69342000D02*
X146304000Y-67818000D01*
X149860000Y-69342000D02*
X147828000Y-69342000D01*
%TO.N,Net-(J10-Pad4)*%
X136144000Y-84074000D02*
X134366000Y-82296000D01*
X143002000Y-84074000D02*
X136144000Y-84074000D01*
X144526000Y-82550000D02*
X143002000Y-84074000D01*
X144526000Y-78232000D02*
X144526000Y-82550000D01*
%TO.N,Net-(J5-Pad2)*%
X141732000Y-72898000D02*
X144526000Y-75692000D01*
X141732000Y-61785200D02*
X141732000Y-72898000D01*
X139970800Y-60024000D02*
X141732000Y-61785200D01*
%TO.N,Net-(J12-Pad2)*%
X97790000Y-29210000D02*
X97790000Y-31496000D01*
X97790000Y-31496000D02*
X96012000Y-33274000D01*
X93880700Y-33274000D02*
X89966800Y-37187900D01*
X96012000Y-33274000D02*
X93880700Y-33274000D01*
%TD*%
%TO.N,GND*%
X182220000Y-88875000D02*
X81559000Y-88875000D01*
X81559000Y-85885872D01*
X93904000Y-85885872D01*
X93904000Y-86326128D01*
X93989890Y-86757925D01*
X94158369Y-87164669D01*
X94402962Y-87530729D01*
X94714271Y-87842038D01*
X95080331Y-88086631D01*
X95487075Y-88255110D01*
X95918872Y-88341000D01*
X96359128Y-88341000D01*
X96790925Y-88255110D01*
X97197669Y-88086631D01*
X97563729Y-87842038D01*
X97875038Y-87530729D01*
X98119631Y-87164669D01*
X98288110Y-86757925D01*
X98374000Y-86326128D01*
X98374000Y-85958401D01*
X108610400Y-85958401D01*
X108610400Y-86253599D01*
X108667990Y-86543125D01*
X108780958Y-86815853D01*
X108944961Y-87061302D01*
X109153698Y-87270039D01*
X109399147Y-87434042D01*
X109671875Y-87547010D01*
X109961401Y-87604600D01*
X110256599Y-87604600D01*
X110546125Y-87547010D01*
X110818853Y-87434042D01*
X111064302Y-87270039D01*
X111273039Y-87061302D01*
X111379000Y-86902719D01*
X111484961Y-87061302D01*
X111693698Y-87270039D01*
X111939147Y-87434042D01*
X112211875Y-87547010D01*
X112501401Y-87604600D01*
X112796599Y-87604600D01*
X113086125Y-87547010D01*
X113358853Y-87434042D01*
X113604302Y-87270039D01*
X113813039Y-87061302D01*
X113919000Y-86902719D01*
X114024961Y-87061302D01*
X114233698Y-87270039D01*
X114479147Y-87434042D01*
X114751875Y-87547010D01*
X115041401Y-87604600D01*
X115336599Y-87604600D01*
X115626125Y-87547010D01*
X115898853Y-87434042D01*
X116144302Y-87270039D01*
X116353039Y-87061302D01*
X116459000Y-86902719D01*
X116564961Y-87061302D01*
X116773698Y-87270039D01*
X117019147Y-87434042D01*
X117291875Y-87547010D01*
X117581401Y-87604600D01*
X117876599Y-87604600D01*
X118166125Y-87547010D01*
X118438853Y-87434042D01*
X118684302Y-87270039D01*
X118893039Y-87061302D01*
X118999000Y-86902719D01*
X119104961Y-87061302D01*
X119313698Y-87270039D01*
X119559147Y-87434042D01*
X119831875Y-87547010D01*
X120121401Y-87604600D01*
X120416599Y-87604600D01*
X120706125Y-87547010D01*
X120978853Y-87434042D01*
X121224302Y-87270039D01*
X121433039Y-87061302D01*
X121540692Y-86900187D01*
X121702146Y-87116293D01*
X121920512Y-87312817D01*
X122173022Y-87462964D01*
X122449973Y-87560963D01*
X122682000Y-87440464D01*
X122682000Y-86233000D01*
X122936000Y-86233000D01*
X122936000Y-87440464D01*
X123168027Y-87560963D01*
X123444978Y-87462964D01*
X123697488Y-87312817D01*
X123915854Y-87116293D01*
X124079000Y-86897922D01*
X124242146Y-87116293D01*
X124460512Y-87312817D01*
X124713022Y-87462964D01*
X124989973Y-87560963D01*
X125222000Y-87440464D01*
X125222000Y-86233000D01*
X122936000Y-86233000D01*
X122682000Y-86233000D01*
X122662000Y-86233000D01*
X122662000Y-85979000D01*
X122682000Y-85979000D01*
X122682000Y-84771536D01*
X122936000Y-84771536D01*
X122936000Y-85979000D01*
X125222000Y-85979000D01*
X125222000Y-84771536D01*
X124989973Y-84651037D01*
X124713022Y-84749036D01*
X124460512Y-84899183D01*
X124242146Y-85095707D01*
X124079000Y-85314078D01*
X123915854Y-85095707D01*
X123697488Y-84899183D01*
X123444978Y-84749036D01*
X123168027Y-84651037D01*
X122936000Y-84771536D01*
X122682000Y-84771536D01*
X122449973Y-84651037D01*
X122173022Y-84749036D01*
X121920512Y-84899183D01*
X121702146Y-85095707D01*
X121540692Y-85311813D01*
X121433039Y-85150698D01*
X121224302Y-84941961D01*
X120978853Y-84777958D01*
X120706125Y-84664990D01*
X120416599Y-84607400D01*
X120121401Y-84607400D01*
X119831875Y-84664990D01*
X119559147Y-84777958D01*
X119313698Y-84941961D01*
X119104961Y-85150698D01*
X118999000Y-85309281D01*
X118893039Y-85150698D01*
X118684302Y-84941961D01*
X118438853Y-84777958D01*
X118166125Y-84664990D01*
X117876599Y-84607400D01*
X117581401Y-84607400D01*
X117291875Y-84664990D01*
X117019147Y-84777958D01*
X116773698Y-84941961D01*
X116564961Y-85150698D01*
X116459000Y-85309281D01*
X116353039Y-85150698D01*
X116144302Y-84941961D01*
X115951000Y-84812801D01*
X115951000Y-83754630D01*
X116475951Y-83229679D01*
X116693740Y-83273000D01*
X116986260Y-83273000D01*
X117273158Y-83215932D01*
X117543411Y-83103990D01*
X117786632Y-82941475D01*
X117918487Y-82809620D01*
X117940498Y-82882180D01*
X117999463Y-82992494D01*
X118078815Y-83089185D01*
X118175506Y-83168537D01*
X118285820Y-83227502D01*
X118405518Y-83263812D01*
X118530000Y-83276072D01*
X119094250Y-83273000D01*
X119253000Y-83114250D01*
X119253000Y-81915000D01*
X119507000Y-81915000D01*
X119507000Y-83114250D01*
X119665750Y-83273000D01*
X120230000Y-83276072D01*
X120354482Y-83263812D01*
X120474180Y-83227502D01*
X120584494Y-83168537D01*
X120681185Y-83089185D01*
X120760537Y-82992494D01*
X120819502Y-82882180D01*
X120855812Y-82762482D01*
X120868072Y-82638000D01*
X120865000Y-82073750D01*
X120706250Y-81915000D01*
X119507000Y-81915000D01*
X119253000Y-81915000D01*
X119233000Y-81915000D01*
X119233000Y-81661000D01*
X119253000Y-81661000D01*
X119253000Y-80461750D01*
X119507000Y-80461750D01*
X119507000Y-81661000D01*
X120706250Y-81661000D01*
X120865000Y-81502250D01*
X120868072Y-80938000D01*
X120855812Y-80813518D01*
X120819502Y-80693820D01*
X120760537Y-80583506D01*
X120681185Y-80486815D01*
X120584494Y-80407463D01*
X120474180Y-80348498D01*
X120354482Y-80312188D01*
X120230000Y-80299928D01*
X119665750Y-80303000D01*
X119507000Y-80461750D01*
X119253000Y-80461750D01*
X119094250Y-80303000D01*
X118530000Y-80299928D01*
X118405518Y-80312188D01*
X118285820Y-80348498D01*
X118175506Y-80407463D01*
X118078815Y-80486815D01*
X117999463Y-80583506D01*
X117940498Y-80693820D01*
X117918487Y-80766380D01*
X117786632Y-80634525D01*
X117543411Y-80472010D01*
X117273158Y-80360068D01*
X116986260Y-80303000D01*
X116693740Y-80303000D01*
X116406842Y-80360068D01*
X116136589Y-80472010D01*
X115893368Y-80634525D01*
X115686525Y-80841368D01*
X115524010Y-81084589D01*
X115412068Y-81354842D01*
X115355000Y-81641740D01*
X115355000Y-81934260D01*
X115398321Y-82152049D01*
X114676649Y-82873721D01*
X114647579Y-82897578D01*
X114623722Y-82926648D01*
X114623721Y-82926649D01*
X114552355Y-83013608D01*
X114481599Y-83145985D01*
X114438027Y-83289622D01*
X114423314Y-83439000D01*
X114427001Y-83476433D01*
X114427000Y-84812801D01*
X114233698Y-84941961D01*
X114024961Y-85150698D01*
X113919000Y-85309281D01*
X113813039Y-85150698D01*
X113604302Y-84941961D01*
X113358853Y-84777958D01*
X113086125Y-84664990D01*
X112796599Y-84607400D01*
X112501401Y-84607400D01*
X112211875Y-84664990D01*
X111939147Y-84777958D01*
X111693698Y-84941961D01*
X111484961Y-85150698D01*
X111379000Y-85309281D01*
X111273039Y-85150698D01*
X111064302Y-84941961D01*
X110818853Y-84777958D01*
X110546125Y-84664990D01*
X110256599Y-84607400D01*
X109961401Y-84607400D01*
X109671875Y-84664990D01*
X109399147Y-84777958D01*
X109153698Y-84941961D01*
X108944961Y-85150698D01*
X108780958Y-85396147D01*
X108667990Y-85668875D01*
X108610400Y-85958401D01*
X98374000Y-85958401D01*
X98374000Y-85885872D01*
X98288110Y-85454075D01*
X98119631Y-85047331D01*
X97875038Y-84681271D01*
X97563729Y-84369962D01*
X97197669Y-84125369D01*
X96790925Y-83956890D01*
X96359128Y-83871000D01*
X95918872Y-83871000D01*
X95487075Y-83956890D01*
X95080331Y-84125369D01*
X94714271Y-84369962D01*
X94402962Y-84681271D01*
X94158369Y-85047331D01*
X93989890Y-85454075D01*
X93904000Y-85885872D01*
X81559000Y-85885872D01*
X81559000Y-28194000D01*
X82038314Y-28194000D01*
X82042000Y-28231423D01*
X82042001Y-40602567D01*
X82038314Y-40640000D01*
X82053027Y-40789378D01*
X82096599Y-40933015D01*
X82167355Y-41065392D01*
X82238175Y-41151686D01*
X82262579Y-41181422D01*
X82291649Y-41205279D01*
X86810721Y-45724352D01*
X86834578Y-45753422D01*
X86950608Y-45848645D01*
X87082985Y-45919402D01*
X87226622Y-45962974D01*
X87338574Y-45974000D01*
X87338576Y-45974000D01*
X87375999Y-45977686D01*
X87413422Y-45974000D01*
X104991577Y-45974000D01*
X105029000Y-45977686D01*
X105066423Y-45974000D01*
X105066426Y-45974000D01*
X105178378Y-45962974D01*
X105322015Y-45919402D01*
X105454392Y-45848645D01*
X105570422Y-45753422D01*
X105594284Y-45724346D01*
X106571625Y-44747006D01*
X106584088Y-44752168D01*
X106899967Y-44815000D01*
X107222033Y-44815000D01*
X107537912Y-44752168D01*
X107835463Y-44628918D01*
X108103252Y-44449987D01*
X108330987Y-44222252D01*
X108509918Y-43954463D01*
X108633168Y-43656912D01*
X108696000Y-43341033D01*
X108696000Y-43018967D01*
X108633168Y-42703088D01*
X108509918Y-42405537D01*
X108348528Y-42164000D01*
X108777370Y-42164000D01*
X109303995Y-42690625D01*
X109298832Y-42703088D01*
X109236000Y-43018967D01*
X109236000Y-43341033D01*
X109298832Y-43656912D01*
X109422082Y-43954463D01*
X109601013Y-44222252D01*
X109828748Y-44449987D01*
X110096537Y-44628918D01*
X110394088Y-44752168D01*
X110709967Y-44815000D01*
X111032033Y-44815000D01*
X111347912Y-44752168D01*
X111645463Y-44628918D01*
X111913252Y-44449987D01*
X112140987Y-44222252D01*
X112169218Y-44180000D01*
X113042928Y-44180000D01*
X113055188Y-44304482D01*
X113091498Y-44424180D01*
X113150463Y-44534494D01*
X113229815Y-44631185D01*
X113326506Y-44710537D01*
X113436820Y-44769502D01*
X113556518Y-44805812D01*
X113681000Y-44818072D01*
X114395250Y-44815000D01*
X114554000Y-44656250D01*
X114554000Y-43307000D01*
X114808000Y-43307000D01*
X114808000Y-44656250D01*
X114966750Y-44815000D01*
X115681000Y-44818072D01*
X115805482Y-44805812D01*
X115925180Y-44769502D01*
X116035494Y-44710537D01*
X116132185Y-44631185D01*
X116211537Y-44534494D01*
X116270502Y-44424180D01*
X116306812Y-44304482D01*
X116319072Y-44180000D01*
X116316000Y-43465750D01*
X116157250Y-43307000D01*
X114808000Y-43307000D01*
X114554000Y-43307000D01*
X113204750Y-43307000D01*
X113046000Y-43465750D01*
X113042928Y-44180000D01*
X112169218Y-44180000D01*
X112319918Y-43954463D01*
X112443168Y-43656912D01*
X112506000Y-43341033D01*
X112506000Y-43018967D01*
X112443168Y-42703088D01*
X112319918Y-42405537D01*
X112169219Y-42180000D01*
X113042928Y-42180000D01*
X113046000Y-42894250D01*
X113204750Y-43053000D01*
X114554000Y-43053000D01*
X114554000Y-41703750D01*
X114808000Y-41703750D01*
X114808000Y-43053000D01*
X116157250Y-43053000D01*
X116316000Y-42894250D01*
X116319072Y-42180000D01*
X116306812Y-42055518D01*
X116270502Y-41935820D01*
X116211537Y-41825506D01*
X116132185Y-41728815D01*
X116035494Y-41649463D01*
X115925180Y-41590498D01*
X115805482Y-41554188D01*
X115681000Y-41541928D01*
X114966750Y-41545000D01*
X114808000Y-41703750D01*
X114554000Y-41703750D01*
X114395250Y-41545000D01*
X113681000Y-41541928D01*
X113556518Y-41554188D01*
X113436820Y-41590498D01*
X113326506Y-41649463D01*
X113229815Y-41728815D01*
X113150463Y-41825506D01*
X113091498Y-41935820D01*
X113055188Y-42055518D01*
X113042928Y-42180000D01*
X112169219Y-42180000D01*
X112140987Y-42137748D01*
X111913252Y-41910013D01*
X111645463Y-41731082D01*
X111347912Y-41607832D01*
X111032033Y-41545000D01*
X110709967Y-41545000D01*
X110394088Y-41607832D01*
X110381625Y-41612995D01*
X109658284Y-40889654D01*
X109634422Y-40860578D01*
X109518392Y-40765355D01*
X109386015Y-40694598D01*
X109242378Y-40651026D01*
X109130426Y-40640000D01*
X109130423Y-40640000D01*
X109093000Y-40636314D01*
X109055577Y-40640000D01*
X85659631Y-40640000D01*
X84074011Y-39054381D01*
X84074011Y-38430806D01*
X84183389Y-38503890D01*
X84453642Y-38615832D01*
X84740540Y-38672900D01*
X85033060Y-38672900D01*
X85319958Y-38615832D01*
X85590211Y-38503890D01*
X85833432Y-38341375D01*
X85965287Y-38209520D01*
X85987298Y-38282080D01*
X86046263Y-38392394D01*
X86125615Y-38489085D01*
X86222306Y-38568437D01*
X86332620Y-38627402D01*
X86452318Y-38663712D01*
X86576800Y-38675972D01*
X87141050Y-38672900D01*
X87299800Y-38514150D01*
X87299800Y-37314900D01*
X87279800Y-37314900D01*
X87279800Y-37060900D01*
X87299800Y-37060900D01*
X87299800Y-35861650D01*
X87141050Y-35702900D01*
X86576800Y-35699828D01*
X86452318Y-35712088D01*
X86332620Y-35748398D01*
X86222306Y-35807363D01*
X86125615Y-35886715D01*
X86046263Y-35983406D01*
X85987298Y-36093720D01*
X85965287Y-36166280D01*
X85833432Y-36034425D01*
X85590211Y-35871910D01*
X85319958Y-35759968D01*
X85033060Y-35702900D01*
X84740540Y-35702900D01*
X84453642Y-35759968D01*
X84183389Y-35871910D01*
X84074011Y-35944994D01*
X84074011Y-30541619D01*
X85233951Y-29381679D01*
X85451740Y-29425000D01*
X85744260Y-29425000D01*
X86031158Y-29367932D01*
X86301411Y-29255990D01*
X86544632Y-29093475D01*
X86751475Y-28886632D01*
X86868000Y-28712240D01*
X86984525Y-28886632D01*
X87191368Y-29093475D01*
X87434589Y-29255990D01*
X87704842Y-29367932D01*
X87991740Y-29425000D01*
X88284260Y-29425000D01*
X88571158Y-29367932D01*
X88841411Y-29255990D01*
X89084632Y-29093475D01*
X89291475Y-28886632D01*
X89414842Y-28702000D01*
X93664370Y-28702000D01*
X93761928Y-28799558D01*
X93761928Y-30060000D01*
X93774188Y-30184482D01*
X93810498Y-30304180D01*
X93869463Y-30414494D01*
X93948815Y-30511185D01*
X94045506Y-30590537D01*
X94155820Y-30649502D01*
X94275518Y-30685812D01*
X94400000Y-30698072D01*
X96100000Y-30698072D01*
X96224482Y-30685812D01*
X96344180Y-30649502D01*
X96454494Y-30590537D01*
X96551185Y-30511185D01*
X96630537Y-30414494D01*
X96689502Y-30304180D01*
X96711513Y-30231620D01*
X96843368Y-30363475D01*
X97028001Y-30486842D01*
X97028001Y-31180369D01*
X95696370Y-32512000D01*
X93918122Y-32512000D01*
X93880699Y-32508314D01*
X93843276Y-32512000D01*
X93843274Y-32512000D01*
X93731322Y-32523026D01*
X93587685Y-32566598D01*
X93455308Y-32637355D01*
X93339278Y-32732578D01*
X93315421Y-32761648D01*
X90330849Y-35746221D01*
X90113060Y-35702900D01*
X89820540Y-35702900D01*
X89533642Y-35759968D01*
X89263389Y-35871910D01*
X89020168Y-36034425D01*
X88888313Y-36166280D01*
X88866302Y-36093720D01*
X88807337Y-35983406D01*
X88727985Y-35886715D01*
X88631294Y-35807363D01*
X88520980Y-35748398D01*
X88401282Y-35712088D01*
X88276800Y-35699828D01*
X87712550Y-35702900D01*
X87553800Y-35861650D01*
X87553800Y-37060900D01*
X87573800Y-37060900D01*
X87573800Y-37314900D01*
X87553800Y-37314900D01*
X87553800Y-38514150D01*
X87712550Y-38672900D01*
X88276800Y-38675972D01*
X88401282Y-38663712D01*
X88520980Y-38627402D01*
X88631294Y-38568437D01*
X88727985Y-38489085D01*
X88807337Y-38392394D01*
X88866302Y-38282080D01*
X88888313Y-38209520D01*
X89020168Y-38341375D01*
X89263389Y-38503890D01*
X89533642Y-38615832D01*
X89820540Y-38672900D01*
X90113060Y-38672900D01*
X90399958Y-38615832D01*
X90670211Y-38503890D01*
X90913432Y-38341375D01*
X91120275Y-38134532D01*
X91236800Y-37960140D01*
X91353325Y-38134532D01*
X91560168Y-38341375D01*
X91803389Y-38503890D01*
X92073642Y-38615832D01*
X92360540Y-38672900D01*
X92653060Y-38672900D01*
X92939958Y-38615832D01*
X93210211Y-38503890D01*
X93453432Y-38341375D01*
X93660275Y-38134532D01*
X93822790Y-37891311D01*
X93932737Y-37625872D01*
X95174000Y-37625872D01*
X95174000Y-38066128D01*
X95259890Y-38497925D01*
X95428369Y-38904669D01*
X95672962Y-39270729D01*
X95984271Y-39582038D01*
X96350331Y-39826631D01*
X96757075Y-39995110D01*
X97188872Y-40081000D01*
X97629128Y-40081000D01*
X98060925Y-39995110D01*
X98467669Y-39826631D01*
X98833729Y-39582038D01*
X99145038Y-39270729D01*
X99389631Y-38904669D01*
X99558110Y-38497925D01*
X99575906Y-38408460D01*
X99636958Y-38555853D01*
X99800961Y-38801302D01*
X100009698Y-39010039D01*
X100255147Y-39174042D01*
X100527875Y-39287010D01*
X100817401Y-39344600D01*
X101112599Y-39344600D01*
X101402125Y-39287010D01*
X101674853Y-39174042D01*
X101920302Y-39010039D01*
X102129039Y-38801302D01*
X102235000Y-38642719D01*
X102340961Y-38801302D01*
X102549698Y-39010039D01*
X102795147Y-39174042D01*
X103067875Y-39287010D01*
X103357401Y-39344600D01*
X103652599Y-39344600D01*
X103942125Y-39287010D01*
X104214853Y-39174042D01*
X104460302Y-39010039D01*
X104669039Y-38801302D01*
X104775000Y-38642719D01*
X104880961Y-38801302D01*
X105089698Y-39010039D01*
X105335147Y-39174042D01*
X105607875Y-39287010D01*
X105897401Y-39344600D01*
X106192599Y-39344600D01*
X106482125Y-39287010D01*
X106754853Y-39174042D01*
X107000302Y-39010039D01*
X107209039Y-38801302D01*
X107316692Y-38640187D01*
X107478146Y-38856293D01*
X107696512Y-39052817D01*
X107949022Y-39202964D01*
X108225973Y-39300963D01*
X108458000Y-39180464D01*
X108458000Y-37973000D01*
X108438000Y-37973000D01*
X108438000Y-37719000D01*
X108458000Y-37719000D01*
X108458000Y-36511536D01*
X108712000Y-36511536D01*
X108712000Y-37719000D01*
X108732000Y-37719000D01*
X108732000Y-37973000D01*
X108712000Y-37973000D01*
X108712000Y-39180464D01*
X108944027Y-39300963D01*
X109220978Y-39202964D01*
X109473488Y-39052817D01*
X109691854Y-38856293D01*
X109853308Y-38640187D01*
X109960961Y-38801302D01*
X110169698Y-39010039D01*
X110415147Y-39174042D01*
X110687875Y-39287010D01*
X110977401Y-39344600D01*
X111272599Y-39344600D01*
X111562125Y-39287010D01*
X111834853Y-39174042D01*
X112080302Y-39010039D01*
X112289039Y-38801302D01*
X112395000Y-38642719D01*
X112500961Y-38801302D01*
X112709698Y-39010039D01*
X112955147Y-39174042D01*
X113227875Y-39287010D01*
X113517401Y-39344600D01*
X113812599Y-39344600D01*
X114102125Y-39287010D01*
X114374853Y-39174042D01*
X114620302Y-39010039D01*
X114829039Y-38801302D01*
X114935000Y-38642719D01*
X115040961Y-38801302D01*
X115249698Y-39010039D01*
X115495147Y-39174042D01*
X115767875Y-39287010D01*
X116057401Y-39344600D01*
X116352599Y-39344600D01*
X116642125Y-39287010D01*
X116914853Y-39174042D01*
X117160302Y-39010039D01*
X117369039Y-38801302D01*
X117475000Y-38642719D01*
X117580961Y-38801302D01*
X117789698Y-39010039D01*
X118035147Y-39174042D01*
X118307875Y-39287010D01*
X118597401Y-39344600D01*
X118892599Y-39344600D01*
X119182125Y-39287010D01*
X119454853Y-39174042D01*
X119700302Y-39010039D01*
X119909039Y-38801302D01*
X120015000Y-38642719D01*
X120120961Y-38801302D01*
X120329698Y-39010039D01*
X120575147Y-39174042D01*
X120847875Y-39287010D01*
X121137401Y-39344600D01*
X121432599Y-39344600D01*
X121722125Y-39287010D01*
X121994853Y-39174042D01*
X122240302Y-39010039D01*
X122449039Y-38801302D01*
X122555000Y-38642719D01*
X122660961Y-38801302D01*
X122869698Y-39010039D01*
X123115147Y-39174042D01*
X123387875Y-39287010D01*
X123677401Y-39344600D01*
X123972599Y-39344600D01*
X124262125Y-39287010D01*
X124534853Y-39174042D01*
X124780302Y-39010039D01*
X124989039Y-38801302D01*
X125153042Y-38555853D01*
X125266010Y-38283125D01*
X125323600Y-37993599D01*
X125323600Y-37698401D01*
X125266010Y-37408875D01*
X125153042Y-37136147D01*
X124989039Y-36890698D01*
X124780302Y-36681961D01*
X124534853Y-36517958D01*
X124262125Y-36404990D01*
X123972599Y-36347400D01*
X123677401Y-36347400D01*
X123387875Y-36404990D01*
X123115147Y-36517958D01*
X122869698Y-36681961D01*
X122660961Y-36890698D01*
X122555000Y-37049281D01*
X122449039Y-36890698D01*
X122240302Y-36681961D01*
X121994853Y-36517958D01*
X121722125Y-36404990D01*
X121432599Y-36347400D01*
X121137401Y-36347400D01*
X120847875Y-36404990D01*
X120575147Y-36517958D01*
X120329698Y-36681961D01*
X120120961Y-36890698D01*
X120015000Y-37049281D01*
X119909039Y-36890698D01*
X119700302Y-36681961D01*
X119454853Y-36517958D01*
X119182125Y-36404990D01*
X118892599Y-36347400D01*
X118597401Y-36347400D01*
X118307875Y-36404990D01*
X118035147Y-36517958D01*
X117789698Y-36681961D01*
X117580961Y-36890698D01*
X117475000Y-37049281D01*
X117369039Y-36890698D01*
X117160302Y-36681961D01*
X116914853Y-36517958D01*
X116642125Y-36404990D01*
X116352599Y-36347400D01*
X116057401Y-36347400D01*
X115767875Y-36404990D01*
X115495147Y-36517958D01*
X115249698Y-36681961D01*
X115040961Y-36890698D01*
X114935000Y-37049281D01*
X114829039Y-36890698D01*
X114620302Y-36681961D01*
X114374853Y-36517958D01*
X114102125Y-36404990D01*
X113812599Y-36347400D01*
X113517401Y-36347400D01*
X113227875Y-36404990D01*
X112955147Y-36517958D01*
X112709698Y-36681961D01*
X112500961Y-36890698D01*
X112395000Y-37049281D01*
X112289039Y-36890698D01*
X112080302Y-36681961D01*
X111834853Y-36517958D01*
X111562125Y-36404990D01*
X111272599Y-36347400D01*
X110977401Y-36347400D01*
X110687875Y-36404990D01*
X110415147Y-36517958D01*
X110169698Y-36681961D01*
X109960961Y-36890698D01*
X109853308Y-37051813D01*
X109691854Y-36835707D01*
X109473488Y-36639183D01*
X109220978Y-36489036D01*
X108944027Y-36391037D01*
X108712000Y-36511536D01*
X108458000Y-36511536D01*
X108225973Y-36391037D01*
X107949022Y-36489036D01*
X107696512Y-36639183D01*
X107478146Y-36835707D01*
X107316692Y-37051813D01*
X107209039Y-36890698D01*
X107000302Y-36681961D01*
X106754853Y-36517958D01*
X106482125Y-36404990D01*
X106192599Y-36347400D01*
X105897401Y-36347400D01*
X105607875Y-36404990D01*
X105335147Y-36517958D01*
X105089698Y-36681961D01*
X104880961Y-36890698D01*
X104775000Y-37049281D01*
X104669039Y-36890698D01*
X104460302Y-36681961D01*
X104214853Y-36517958D01*
X103942125Y-36404990D01*
X103652599Y-36347400D01*
X103357401Y-36347400D01*
X103067875Y-36404990D01*
X102795147Y-36517958D01*
X102549698Y-36681961D01*
X102340961Y-36890698D01*
X102235000Y-37049281D01*
X102129039Y-36890698D01*
X101920302Y-36681961D01*
X101674853Y-36517958D01*
X101402125Y-36404990D01*
X101112599Y-36347400D01*
X100817401Y-36347400D01*
X100527875Y-36404990D01*
X100255147Y-36517958D01*
X100009698Y-36681961D01*
X99800961Y-36890698D01*
X99636958Y-37136147D01*
X99575906Y-37283540D01*
X99558110Y-37194075D01*
X99389631Y-36787331D01*
X99145038Y-36421271D01*
X98833729Y-36109962D01*
X98467669Y-35865369D01*
X98060925Y-35696890D01*
X97629128Y-35611000D01*
X97188872Y-35611000D01*
X96757075Y-35696890D01*
X96350331Y-35865369D01*
X95984271Y-36109962D01*
X95672962Y-36421271D01*
X95428369Y-36787331D01*
X95259890Y-37194075D01*
X95174000Y-37625872D01*
X93932737Y-37625872D01*
X93934732Y-37621058D01*
X93991800Y-37334160D01*
X93991800Y-37041640D01*
X93934732Y-36754742D01*
X93822790Y-36484489D01*
X93660275Y-36241268D01*
X93453432Y-36034425D01*
X93210211Y-35871910D01*
X92939958Y-35759968D01*
X92653060Y-35702900D01*
X92529431Y-35702900D01*
X94196331Y-34036000D01*
X95974577Y-34036000D01*
X96012000Y-34039686D01*
X96049423Y-34036000D01*
X96049426Y-34036000D01*
X96161378Y-34024974D01*
X96305015Y-33981402D01*
X96437392Y-33910645D01*
X96553422Y-33815422D01*
X96577284Y-33786346D01*
X98302346Y-32061284D01*
X98331422Y-32037422D01*
X98404112Y-31948849D01*
X98426645Y-31921393D01*
X98497401Y-31789016D01*
X98497402Y-31789015D01*
X98540974Y-31645378D01*
X98552000Y-31533426D01*
X98552000Y-31533423D01*
X98555686Y-31496000D01*
X98552000Y-31458577D01*
X98552000Y-30486842D01*
X98736632Y-30363475D01*
X98943475Y-30156632D01*
X99065195Y-29974466D01*
X99134822Y-30091355D01*
X99329731Y-30307588D01*
X99563080Y-30481641D01*
X99825901Y-30606825D01*
X99973110Y-30651476D01*
X100203000Y-30530155D01*
X100203000Y-29337000D01*
X100457000Y-29337000D01*
X100457000Y-30530155D01*
X100686890Y-30651476D01*
X100834099Y-30606825D01*
X101096920Y-30481641D01*
X101330269Y-30307588D01*
X101525178Y-30091355D01*
X101674157Y-29841252D01*
X101771481Y-29566891D01*
X101650814Y-29337000D01*
X100457000Y-29337000D01*
X100203000Y-29337000D01*
X100183000Y-29337000D01*
X100183000Y-29083000D01*
X100203000Y-29083000D01*
X100203000Y-27889845D01*
X100457000Y-27889845D01*
X100457000Y-29083000D01*
X101650814Y-29083000D01*
X101771481Y-28853109D01*
X101674157Y-28578748D01*
X101525178Y-28328645D01*
X101330269Y-28112412D01*
X101096920Y-27938359D01*
X100834099Y-27813175D01*
X100686890Y-27768524D01*
X100457000Y-27889845D01*
X100203000Y-27889845D01*
X99973110Y-27768524D01*
X99825901Y-27813175D01*
X99563080Y-27938359D01*
X99329731Y-28112412D01*
X99134822Y-28328645D01*
X99065195Y-28445534D01*
X98943475Y-28263368D01*
X98736632Y-28056525D01*
X98493411Y-27894010D01*
X98223158Y-27782068D01*
X97936260Y-27725000D01*
X97643740Y-27725000D01*
X97356842Y-27782068D01*
X97086589Y-27894010D01*
X96843368Y-28056525D01*
X96711513Y-28188380D01*
X96689502Y-28115820D01*
X96630537Y-28005506D01*
X96551185Y-27908815D01*
X96454494Y-27829463D01*
X96344180Y-27770498D01*
X96224482Y-27734188D01*
X96100000Y-27721928D01*
X94839558Y-27721928D01*
X94545284Y-27427654D01*
X94521422Y-27398578D01*
X94405392Y-27303355D01*
X94273015Y-27232598D01*
X94129378Y-27189026D01*
X94017426Y-27178000D01*
X94017423Y-27178000D01*
X93980000Y-27174314D01*
X93942577Y-27178000D01*
X89414842Y-27178000D01*
X89291475Y-26993368D01*
X89084632Y-26786525D01*
X88908594Y-26668900D01*
X89138269Y-26497588D01*
X89333178Y-26281355D01*
X89351855Y-26250000D01*
X104175928Y-26250000D01*
X104188188Y-26374482D01*
X104224498Y-26494180D01*
X104283463Y-26604494D01*
X104362815Y-26701185D01*
X104459506Y-26780537D01*
X104569820Y-26839502D01*
X104642380Y-26861513D01*
X104510525Y-26993368D01*
X104348010Y-27236589D01*
X104236068Y-27506842D01*
X104179000Y-27793740D01*
X104179000Y-28086260D01*
X104236068Y-28373158D01*
X104348010Y-28643411D01*
X104510525Y-28886632D01*
X104717368Y-29093475D01*
X104960589Y-29255990D01*
X105230842Y-29367932D01*
X105517740Y-29425000D01*
X105810260Y-29425000D01*
X106028048Y-29381679D01*
X106329722Y-29683353D01*
X106353579Y-29712423D01*
X106469609Y-29807646D01*
X106601986Y-29878403D01*
X106745623Y-29921975D01*
X106857575Y-29933001D01*
X106857577Y-29933001D01*
X106895000Y-29936687D01*
X106932423Y-29933001D01*
X122429576Y-29933001D01*
X122466999Y-29936687D01*
X122504422Y-29933001D01*
X122504425Y-29933001D01*
X122616377Y-29921975D01*
X122760014Y-29878403D01*
X122892391Y-29807646D01*
X122936000Y-29771857D01*
X122936001Y-34252567D01*
X122932314Y-34290000D01*
X122947027Y-34439378D01*
X122990599Y-34583015D01*
X123061355Y-34715392D01*
X123132721Y-34802351D01*
X123156579Y-34831422D01*
X123185649Y-34855279D01*
X125365368Y-37034999D01*
X125365367Y-84306944D01*
X125361681Y-84344367D01*
X125365367Y-84381790D01*
X125365367Y-84381792D01*
X125376393Y-84493744D01*
X125419965Y-84637381D01*
X125443425Y-84681271D01*
X125488267Y-84765165D01*
X125476000Y-84771536D01*
X125476000Y-85979000D01*
X125496000Y-85979000D01*
X125496000Y-86233000D01*
X125476000Y-86233000D01*
X125476000Y-87440464D01*
X125708027Y-87560963D01*
X125984978Y-87462964D01*
X126237488Y-87312817D01*
X126455854Y-87116293D01*
X126617308Y-86900187D01*
X126724961Y-87061302D01*
X126933698Y-87270039D01*
X127179147Y-87434042D01*
X127451875Y-87547010D01*
X127741401Y-87604600D01*
X128036599Y-87604600D01*
X128326125Y-87547010D01*
X128598853Y-87434042D01*
X128844302Y-87270039D01*
X129053039Y-87061302D01*
X129217042Y-86815853D01*
X129330010Y-86543125D01*
X129387600Y-86253599D01*
X129387600Y-85958401D01*
X129330010Y-85668875D01*
X129217042Y-85396147D01*
X129053039Y-85150698D01*
X128844302Y-84941961D01*
X128598853Y-84777958D01*
X128326125Y-84664990D01*
X128036599Y-84607400D01*
X127741401Y-84607400D01*
X127513385Y-84652755D01*
X126889367Y-84028737D01*
X126889367Y-83146000D01*
X127797928Y-83146000D01*
X127810188Y-83270482D01*
X127846498Y-83390180D01*
X127905463Y-83500494D01*
X127984815Y-83597185D01*
X128081506Y-83676537D01*
X128191820Y-83735502D01*
X128311518Y-83771812D01*
X128436000Y-83784072D01*
X129000250Y-83781000D01*
X129159000Y-83622250D01*
X129159000Y-82423000D01*
X127959750Y-82423000D01*
X127801000Y-82581750D01*
X127797928Y-83146000D01*
X126889367Y-83146000D01*
X126889367Y-81446000D01*
X127797928Y-81446000D01*
X127801000Y-82010250D01*
X127959750Y-82169000D01*
X129159000Y-82169000D01*
X129159000Y-80969750D01*
X129000250Y-80811000D01*
X128436000Y-80807928D01*
X128311518Y-80820188D01*
X128191820Y-80856498D01*
X128081506Y-80915463D01*
X127984815Y-80994815D01*
X127905463Y-81091506D01*
X127846498Y-81201820D01*
X127810188Y-81321518D01*
X127797928Y-81446000D01*
X126889367Y-81446000D01*
X126889367Y-38965708D01*
X126933698Y-39010039D01*
X127179147Y-39174042D01*
X127451875Y-39287010D01*
X127741401Y-39344600D01*
X128036599Y-39344600D01*
X128326125Y-39287010D01*
X128598853Y-39174042D01*
X128844302Y-39010039D01*
X129053039Y-38801302D01*
X129159000Y-38642719D01*
X129264961Y-38801302D01*
X129473698Y-39010039D01*
X129719147Y-39174042D01*
X129991875Y-39287010D01*
X130281401Y-39344600D01*
X130576599Y-39344600D01*
X130866125Y-39287010D01*
X131138853Y-39174042D01*
X131384302Y-39010039D01*
X131593039Y-38801302D01*
X131699000Y-38642719D01*
X131804961Y-38801302D01*
X132013698Y-39010039D01*
X132259147Y-39174042D01*
X132531875Y-39287010D01*
X132821401Y-39344600D01*
X133116599Y-39344600D01*
X133406125Y-39287010D01*
X133678853Y-39174042D01*
X133924302Y-39010039D01*
X134133039Y-38801302D01*
X134239000Y-38642719D01*
X134344961Y-38801302D01*
X134553698Y-39010039D01*
X134799147Y-39174042D01*
X135071875Y-39287010D01*
X135361401Y-39344600D01*
X135656599Y-39344600D01*
X135946125Y-39287010D01*
X136218853Y-39174042D01*
X136464302Y-39010039D01*
X136673039Y-38801302D01*
X136779000Y-38642719D01*
X136884961Y-38801302D01*
X137093698Y-39010039D01*
X137339147Y-39174042D01*
X137611875Y-39287010D01*
X137901401Y-39344600D01*
X138196599Y-39344600D01*
X138486125Y-39287010D01*
X138758853Y-39174042D01*
X139004302Y-39010039D01*
X139213039Y-38801302D01*
X139319000Y-38642719D01*
X139424961Y-38801302D01*
X139633698Y-39010039D01*
X139827001Y-39139199D01*
X139827000Y-48275496D01*
X139823314Y-48312919D01*
X139827000Y-48350342D01*
X139827000Y-48350344D01*
X139838026Y-48462296D01*
X139881598Y-48605933D01*
X139881599Y-48605934D01*
X139952355Y-48738311D01*
X139991983Y-48786597D01*
X140047578Y-48854341D01*
X140076654Y-48878203D01*
X147919365Y-56720914D01*
X147898875Y-56724990D01*
X147626147Y-56837958D01*
X147380698Y-57001961D01*
X147171961Y-57210698D01*
X147066000Y-57369281D01*
X146960039Y-57210698D01*
X146751302Y-57001961D01*
X146505853Y-56837958D01*
X146233125Y-56724990D01*
X145943599Y-56667400D01*
X145648401Y-56667400D01*
X145358875Y-56724990D01*
X145086147Y-56837958D01*
X144840698Y-57001961D01*
X144631961Y-57210698D01*
X144467958Y-57456147D01*
X144354990Y-57728875D01*
X144297400Y-58018401D01*
X144297400Y-58313599D01*
X144354990Y-58603125D01*
X144467958Y-58875853D01*
X144631961Y-59121302D01*
X144840698Y-59330039D01*
X144999281Y-59436000D01*
X144840698Y-59541961D01*
X144631961Y-59750698D01*
X144467958Y-59996147D01*
X144354990Y-60268875D01*
X144297400Y-60558401D01*
X144297400Y-60853599D01*
X144354990Y-61143125D01*
X144467958Y-61415853D01*
X144631961Y-61661302D01*
X144840698Y-61870039D01*
X144999281Y-61976000D01*
X144840698Y-62081961D01*
X144631961Y-62290698D01*
X144467958Y-62536147D01*
X144354990Y-62808875D01*
X144297400Y-63098401D01*
X144297400Y-63393599D01*
X144354990Y-63683125D01*
X144467958Y-63955853D01*
X144631961Y-64201302D01*
X144840698Y-64410039D01*
X145086147Y-64574042D01*
X145358875Y-64687010D01*
X145648401Y-64744600D01*
X145943599Y-64744600D01*
X146233125Y-64687010D01*
X146505853Y-64574042D01*
X146751302Y-64410039D01*
X146960039Y-64201302D01*
X147066000Y-64042719D01*
X147171961Y-64201302D01*
X147380698Y-64410039D01*
X147626147Y-64574042D01*
X147898875Y-64687010D01*
X148188401Y-64744600D01*
X148483599Y-64744600D01*
X148773125Y-64687010D01*
X149045853Y-64574042D01*
X149291302Y-64410039D01*
X149500039Y-64201302D01*
X149664042Y-63955853D01*
X149777010Y-63683125D01*
X149834600Y-63393599D01*
X149834600Y-63098401D01*
X149777010Y-62808875D01*
X149664042Y-62536147D01*
X149500039Y-62290698D01*
X149291302Y-62081961D01*
X149132719Y-61976000D01*
X149291302Y-61870039D01*
X149500039Y-61661302D01*
X149664042Y-61415853D01*
X149777010Y-61143125D01*
X149834600Y-60853599D01*
X149834600Y-60558401D01*
X149777010Y-60268875D01*
X149664042Y-59996147D01*
X149500039Y-59750698D01*
X149291302Y-59541961D01*
X149132719Y-59436000D01*
X149291302Y-59330039D01*
X149500039Y-59121302D01*
X149664042Y-58875853D01*
X149777010Y-58603125D01*
X149781086Y-58582635D01*
X158143172Y-66944721D01*
X157977525Y-67110368D01*
X157861000Y-67284760D01*
X157744475Y-67110368D01*
X157537632Y-66903525D01*
X157294411Y-66741010D01*
X157024158Y-66629068D01*
X156737260Y-66572000D01*
X156444740Y-66572000D01*
X156157842Y-66629068D01*
X155887589Y-66741010D01*
X155644368Y-66903525D01*
X155437525Y-67110368D01*
X155321000Y-67284760D01*
X155204475Y-67110368D01*
X154997632Y-66903525D01*
X154754411Y-66741010D01*
X154484158Y-66629068D01*
X154197260Y-66572000D01*
X153904740Y-66572000D01*
X153617842Y-66629068D01*
X153347589Y-66741010D01*
X153104368Y-66903525D01*
X152897525Y-67110368D01*
X152735010Y-67353589D01*
X152623068Y-67623842D01*
X152566000Y-67910740D01*
X152566000Y-68203260D01*
X152623068Y-68490158D01*
X152735010Y-68760411D01*
X152897525Y-69003632D01*
X153104368Y-69210475D01*
X153347589Y-69372990D01*
X153617842Y-69484932D01*
X153904740Y-69542000D01*
X154197260Y-69542000D01*
X154484158Y-69484932D01*
X154754411Y-69372990D01*
X154997632Y-69210475D01*
X155204475Y-69003632D01*
X155321000Y-68829240D01*
X155437525Y-69003632D01*
X155644368Y-69210475D01*
X155887589Y-69372990D01*
X156157842Y-69484932D01*
X156444740Y-69542000D01*
X156737260Y-69542000D01*
X157024158Y-69484932D01*
X157294411Y-69372990D01*
X157537632Y-69210475D01*
X157744475Y-69003632D01*
X157861000Y-68829240D01*
X157977525Y-69003632D01*
X158184368Y-69210475D01*
X158427589Y-69372990D01*
X158697842Y-69484932D01*
X158984740Y-69542000D01*
X159277260Y-69542000D01*
X159564158Y-69484932D01*
X159834411Y-69372990D01*
X160077632Y-69210475D01*
X160209487Y-69078620D01*
X160231498Y-69151180D01*
X160290463Y-69261494D01*
X160369815Y-69358185D01*
X160466506Y-69437537D01*
X160576820Y-69496502D01*
X160696518Y-69532812D01*
X160821000Y-69545072D01*
X161385250Y-69542000D01*
X161544000Y-69383250D01*
X161544000Y-68184000D01*
X161524000Y-68184000D01*
X161524000Y-67930000D01*
X161544000Y-67930000D01*
X161544000Y-66730750D01*
X161798000Y-66730750D01*
X161798000Y-67930000D01*
X161818000Y-67930000D01*
X161818000Y-68184000D01*
X161798000Y-68184000D01*
X161798000Y-69383250D01*
X161956750Y-69542000D01*
X162521000Y-69545072D01*
X162645482Y-69532812D01*
X162765180Y-69496502D01*
X162875494Y-69437537D01*
X162972185Y-69358185D01*
X163051537Y-69261494D01*
X163110502Y-69151180D01*
X163132513Y-69078620D01*
X163264368Y-69210475D01*
X163507589Y-69372990D01*
X163777842Y-69484932D01*
X164064740Y-69542000D01*
X164357260Y-69542000D01*
X164644158Y-69484932D01*
X164914411Y-69372990D01*
X165157632Y-69210475D01*
X165364475Y-69003632D01*
X165481000Y-68829240D01*
X165597525Y-69003632D01*
X165804368Y-69210475D01*
X166047589Y-69372990D01*
X166317842Y-69484932D01*
X166604740Y-69542000D01*
X166897260Y-69542000D01*
X167184158Y-69484932D01*
X167454411Y-69372990D01*
X167697632Y-69210475D01*
X167829487Y-69078620D01*
X167851498Y-69151180D01*
X167910463Y-69261494D01*
X167989815Y-69358185D01*
X168086506Y-69437537D01*
X168196820Y-69496502D01*
X168316518Y-69532812D01*
X168441000Y-69545072D01*
X169005250Y-69542000D01*
X169164000Y-69383250D01*
X169164000Y-68184000D01*
X169144000Y-68184000D01*
X169144000Y-67930000D01*
X169164000Y-67930000D01*
X169164000Y-66730750D01*
X169005250Y-66572000D01*
X168441000Y-66568928D01*
X168316518Y-66581188D01*
X168196820Y-66617498D01*
X168086506Y-66676463D01*
X167989815Y-66755815D01*
X167910463Y-66852506D01*
X167851498Y-66962820D01*
X167829487Y-67035380D01*
X167697632Y-66903525D01*
X167454411Y-66741010D01*
X167184158Y-66629068D01*
X166897260Y-66572000D01*
X166604740Y-66572000D01*
X166317842Y-66629068D01*
X166047589Y-66741010D01*
X165804368Y-66903525D01*
X165597525Y-67110368D01*
X165481000Y-67284760D01*
X165364475Y-67110368D01*
X165157632Y-66903525D01*
X164914411Y-66741010D01*
X164644158Y-66629068D01*
X164357260Y-66572000D01*
X164064740Y-66572000D01*
X163777842Y-66629068D01*
X163507589Y-66741010D01*
X163264368Y-66903525D01*
X163132513Y-67035380D01*
X163110502Y-66962820D01*
X163051537Y-66852506D01*
X162972185Y-66755815D01*
X162875494Y-66676463D01*
X162765180Y-66617498D01*
X162645482Y-66581188D01*
X162521000Y-66568928D01*
X161956750Y-66572000D01*
X161798000Y-66730750D01*
X161544000Y-66730750D01*
X161385250Y-66572000D01*
X160821000Y-66568928D01*
X160696518Y-66581188D01*
X160576820Y-66617498D01*
X160466506Y-66676463D01*
X160369815Y-66755815D01*
X160290463Y-66852506D01*
X160231498Y-66962820D01*
X160209487Y-67035380D01*
X160077632Y-66903525D01*
X159889064Y-66777528D01*
X159881974Y-66705541D01*
X159838402Y-66561904D01*
X159773239Y-66439992D01*
X159767645Y-66429526D01*
X159696279Y-66342567D01*
X159672422Y-66313497D01*
X159643352Y-66289640D01*
X153338234Y-59984522D01*
X155181225Y-59984522D01*
X155245825Y-60197494D01*
X155395869Y-60502729D01*
X155602578Y-60772827D01*
X155858009Y-60997408D01*
X156152346Y-61167842D01*
X156474277Y-61277579D01*
X156743400Y-61160000D01*
X156743400Y-59715400D01*
X156997400Y-59715400D01*
X156997400Y-61160000D01*
X157266523Y-61277579D01*
X157588454Y-61167842D01*
X157882791Y-60997408D01*
X158138222Y-60772827D01*
X158344931Y-60502729D01*
X158494975Y-60197494D01*
X158559575Y-59984522D01*
X158441525Y-59715400D01*
X156997400Y-59715400D01*
X156743400Y-59715400D01*
X155299275Y-59715400D01*
X155181225Y-59984522D01*
X153338234Y-59984522D01*
X153026756Y-59673045D01*
X153162506Y-59739775D01*
X153375478Y-59804375D01*
X153644600Y-59686325D01*
X153644600Y-58242200D01*
X153898600Y-58242200D01*
X153898600Y-59686325D01*
X154167722Y-59804375D01*
X154380694Y-59739775D01*
X154685929Y-59589731D01*
X154956027Y-59383022D01*
X155180608Y-59127591D01*
X155223111Y-59054189D01*
X155181225Y-59192278D01*
X155299275Y-59461400D01*
X156743400Y-59461400D01*
X156743400Y-58016800D01*
X156997400Y-58016800D01*
X156997400Y-59461400D01*
X158441525Y-59461400D01*
X158559575Y-59192278D01*
X158494975Y-58979306D01*
X158344931Y-58674071D01*
X158138222Y-58403973D01*
X157882791Y-58179392D01*
X157588454Y-58008958D01*
X157266523Y-57899221D01*
X156997400Y-58016800D01*
X156743400Y-58016800D01*
X156474277Y-57899221D01*
X156152346Y-58008958D01*
X155858009Y-58179392D01*
X155602578Y-58403973D01*
X155412879Y-58651844D01*
X155460779Y-58511323D01*
X155343200Y-58242200D01*
X153898600Y-58242200D01*
X153644600Y-58242200D01*
X152200000Y-58242200D01*
X152082421Y-58511323D01*
X152192158Y-58833254D01*
X152199300Y-58845589D01*
X151072788Y-57719077D01*
X152082421Y-57719077D01*
X152200000Y-57988200D01*
X153644600Y-57988200D01*
X153644600Y-56544075D01*
X153898600Y-56544075D01*
X153898600Y-57988200D01*
X155343200Y-57988200D01*
X155460779Y-57719077D01*
X155351042Y-57397146D01*
X155180608Y-57102809D01*
X154956027Y-56847378D01*
X154685929Y-56640669D01*
X154380694Y-56490625D01*
X154167722Y-56426025D01*
X153898600Y-56544075D01*
X153644600Y-56544075D01*
X153375478Y-56426025D01*
X153162506Y-56490625D01*
X152857271Y-56640669D01*
X152587173Y-56847378D01*
X152362592Y-57102809D01*
X152192158Y-57397146D01*
X152082421Y-57719077D01*
X151072788Y-57719077D01*
X148633966Y-55280255D01*
X148860925Y-55235110D01*
X149267669Y-55066631D01*
X149633729Y-54822038D01*
X149945038Y-54510729D01*
X150189631Y-54144669D01*
X150358110Y-53737925D01*
X150444000Y-53306128D01*
X150444000Y-52865872D01*
X150358110Y-52434075D01*
X150189631Y-52027331D01*
X149945038Y-51661271D01*
X149633729Y-51349962D01*
X149267669Y-51105369D01*
X148860925Y-50936890D01*
X148429128Y-50851000D01*
X147988872Y-50851000D01*
X147557075Y-50936890D01*
X147150331Y-51105369D01*
X146784271Y-51349962D01*
X146472962Y-51661271D01*
X146228369Y-52027331D01*
X146059890Y-52434075D01*
X146014745Y-52661034D01*
X141351000Y-47997289D01*
X141351000Y-39139199D01*
X141544302Y-39010039D01*
X141753039Y-38801302D01*
X141859000Y-38642719D01*
X141964961Y-38801302D01*
X142173698Y-39010039D01*
X142419147Y-39174042D01*
X142691875Y-39287010D01*
X142981401Y-39344600D01*
X143276599Y-39344600D01*
X143566125Y-39287010D01*
X143838853Y-39174042D01*
X144084302Y-39010039D01*
X144293039Y-38801302D01*
X144399000Y-38642719D01*
X144504961Y-38801302D01*
X144713698Y-39010039D01*
X144959147Y-39174042D01*
X145231875Y-39287010D01*
X145521401Y-39344600D01*
X145816599Y-39344600D01*
X146106125Y-39287010D01*
X146378853Y-39174042D01*
X146624302Y-39010039D01*
X146833039Y-38801302D01*
X146997042Y-38555853D01*
X147039860Y-38452481D01*
X150868200Y-42280821D01*
X150868199Y-50246776D01*
X150864513Y-50284199D01*
X150868199Y-50321622D01*
X150868199Y-50321624D01*
X150879225Y-50433576D01*
X150922797Y-50577213D01*
X150922798Y-50577214D01*
X150993554Y-50709591D01*
X151018159Y-50739572D01*
X151088777Y-50825621D01*
X151117853Y-50849483D01*
X160369121Y-60100752D01*
X160392978Y-60129822D01*
X160509008Y-60225045D01*
X160641385Y-60295802D01*
X160785022Y-60339374D01*
X160896974Y-60350400D01*
X160896976Y-60350400D01*
X160934399Y-60354086D01*
X160971822Y-60350400D01*
X165292328Y-60350400D01*
X165292328Y-60688400D01*
X165304588Y-60812882D01*
X165340898Y-60932580D01*
X165399863Y-61042894D01*
X165479215Y-61139585D01*
X165575906Y-61218937D01*
X165686220Y-61277902D01*
X165805918Y-61314212D01*
X165930400Y-61326472D01*
X168130400Y-61326472D01*
X168240199Y-61315658D01*
X168240199Y-63148376D01*
X168236513Y-63185799D01*
X168240199Y-63223222D01*
X168240199Y-63223224D01*
X168251225Y-63335176D01*
X168294797Y-63478813D01*
X168326968Y-63539000D01*
X168365554Y-63611191D01*
X168387125Y-63637475D01*
X168460777Y-63727221D01*
X168489853Y-63751083D01*
X171069001Y-66330232D01*
X171069001Y-66780157D01*
X170884368Y-66903525D01*
X170752513Y-67035380D01*
X170730502Y-66962820D01*
X170671537Y-66852506D01*
X170592185Y-66755815D01*
X170495494Y-66676463D01*
X170385180Y-66617498D01*
X170265482Y-66581188D01*
X170141000Y-66568928D01*
X169576750Y-66572000D01*
X169418000Y-66730750D01*
X169418000Y-67930000D01*
X169438000Y-67930000D01*
X169438000Y-68184000D01*
X169418000Y-68184000D01*
X169418000Y-69383250D01*
X169576750Y-69542000D01*
X170141000Y-69545072D01*
X170172389Y-69541981D01*
X167324370Y-72390000D01*
X145802842Y-72390000D01*
X145679475Y-72205368D01*
X145472632Y-71998525D01*
X145229411Y-71836010D01*
X144959158Y-71724068D01*
X144672260Y-71667000D01*
X144379740Y-71667000D01*
X144092842Y-71724068D01*
X143822589Y-71836010D01*
X143579368Y-71998525D01*
X143372525Y-72205368D01*
X143210010Y-72448589D01*
X143098068Y-72718842D01*
X143041000Y-73005740D01*
X143041000Y-73129370D01*
X142494000Y-72582370D01*
X142494000Y-69393701D01*
X142519820Y-69407502D01*
X142639518Y-69443812D01*
X142764000Y-69456072D01*
X143478250Y-69453000D01*
X143637000Y-69294250D01*
X143637000Y-67945000D01*
X143617000Y-67945000D01*
X143617000Y-67691000D01*
X143637000Y-67691000D01*
X143637000Y-66341750D01*
X143891000Y-66341750D01*
X143891000Y-67691000D01*
X143911000Y-67691000D01*
X143911000Y-67945000D01*
X143891000Y-67945000D01*
X143891000Y-69294250D01*
X144049750Y-69453000D01*
X144764000Y-69456072D01*
X144888482Y-69443812D01*
X145008180Y-69407502D01*
X145118494Y-69348537D01*
X145215185Y-69269185D01*
X145294537Y-69172494D01*
X145319191Y-69126370D01*
X145529537Y-69266918D01*
X145827088Y-69390168D01*
X146142967Y-69453000D01*
X146465033Y-69453000D01*
X146780912Y-69390168D01*
X146793375Y-69385006D01*
X147262721Y-69854352D01*
X147286578Y-69883422D01*
X147402608Y-69978645D01*
X147534985Y-70049402D01*
X147678622Y-70092974D01*
X147790574Y-70104000D01*
X147790576Y-70104000D01*
X147827999Y-70107686D01*
X147865422Y-70104000D01*
X148763562Y-70104000D01*
X148823038Y-70193013D01*
X149008987Y-70378962D01*
X149227641Y-70525061D01*
X149470595Y-70625696D01*
X149728514Y-70677000D01*
X149991486Y-70677000D01*
X150249405Y-70625696D01*
X150492359Y-70525061D01*
X150711013Y-70378962D01*
X150896962Y-70193013D01*
X151043061Y-69974359D01*
X151143696Y-69731405D01*
X151195000Y-69473486D01*
X151195000Y-69210514D01*
X151143696Y-68952595D01*
X151043061Y-68709641D01*
X150896962Y-68490987D01*
X150711013Y-68305038D01*
X150492359Y-68158939D01*
X150249405Y-68058304D01*
X149991486Y-68007000D01*
X149728514Y-68007000D01*
X149470595Y-68058304D01*
X149227641Y-68158939D01*
X149008987Y-68305038D01*
X148823038Y-68490987D01*
X148763562Y-68580000D01*
X148143631Y-68580000D01*
X147871006Y-68307375D01*
X147876168Y-68294912D01*
X147939000Y-67979033D01*
X147939000Y-67656967D01*
X147876168Y-67341088D01*
X147752918Y-67043537D01*
X147573987Y-66775748D01*
X147346252Y-66548013D01*
X147078463Y-66369082D01*
X146780912Y-66245832D01*
X146465033Y-66183000D01*
X146142967Y-66183000D01*
X145827088Y-66245832D01*
X145529537Y-66369082D01*
X145319191Y-66509630D01*
X145294537Y-66463506D01*
X145215185Y-66366815D01*
X145118494Y-66287463D01*
X145008180Y-66228498D01*
X144888482Y-66192188D01*
X144764000Y-66179928D01*
X144049750Y-66183000D01*
X143891000Y-66341750D01*
X143637000Y-66341750D01*
X143478250Y-66183000D01*
X142764000Y-66179928D01*
X142639518Y-66192188D01*
X142519820Y-66228498D01*
X142494000Y-66242299D01*
X142494000Y-61822623D01*
X142497686Y-61785200D01*
X142493963Y-61747400D01*
X142482974Y-61635822D01*
X142439402Y-61492185D01*
X142398602Y-61415853D01*
X142368645Y-61359807D01*
X142297279Y-61272848D01*
X142273422Y-61243778D01*
X142244353Y-61219922D01*
X141412479Y-60388048D01*
X141455800Y-60170260D01*
X141455800Y-59877740D01*
X141398732Y-59590842D01*
X141286790Y-59320589D01*
X141124275Y-59077368D01*
X140917432Y-58870525D01*
X140674211Y-58708010D01*
X140403958Y-58596068D01*
X140117060Y-58539000D01*
X139824540Y-58539000D01*
X139537642Y-58596068D01*
X139267389Y-58708010D01*
X139024168Y-58870525D01*
X138817325Y-59077368D01*
X138654810Y-59320589D01*
X138542868Y-59590842D01*
X138485800Y-59877740D01*
X138485800Y-60170260D01*
X138542868Y-60457158D01*
X138654810Y-60727411D01*
X138817325Y-60970632D01*
X139024168Y-61177475D01*
X139138696Y-61254000D01*
X139024168Y-61330525D01*
X138817325Y-61537368D01*
X138654810Y-61780589D01*
X138542868Y-62050842D01*
X138485800Y-62337740D01*
X138485800Y-62630260D01*
X138529121Y-62848049D01*
X136393649Y-64983521D01*
X136364579Y-65007378D01*
X136340722Y-65036448D01*
X136340721Y-65036449D01*
X136269355Y-65123408D01*
X136198599Y-65255785D01*
X136155027Y-65399422D01*
X136140314Y-65548800D01*
X136144001Y-65586233D01*
X136144000Y-81019158D01*
X135959368Y-81142525D01*
X135752525Y-81349368D01*
X135636000Y-81523760D01*
X135519475Y-81349368D01*
X135312632Y-81142525D01*
X135069411Y-80980010D01*
X134799158Y-80868068D01*
X134512260Y-80811000D01*
X134219740Y-80811000D01*
X133932842Y-80868068D01*
X133662589Y-80980010D01*
X133419368Y-81142525D01*
X133212525Y-81349368D01*
X133096000Y-81523760D01*
X132979475Y-81349368D01*
X132772632Y-81142525D01*
X132529411Y-80980010D01*
X132259158Y-80868068D01*
X131972260Y-80811000D01*
X131679740Y-80811000D01*
X131392842Y-80868068D01*
X131122589Y-80980010D01*
X130879368Y-81142525D01*
X130747513Y-81274380D01*
X130725502Y-81201820D01*
X130666537Y-81091506D01*
X130587185Y-80994815D01*
X130490494Y-80915463D01*
X130380180Y-80856498D01*
X130260482Y-80820188D01*
X130136000Y-80807928D01*
X129571750Y-80811000D01*
X129413000Y-80969750D01*
X129413000Y-82169000D01*
X129433000Y-82169000D01*
X129433000Y-82423000D01*
X129413000Y-82423000D01*
X129413000Y-83622250D01*
X129571750Y-83781000D01*
X130136000Y-83784072D01*
X130260482Y-83771812D01*
X130380180Y-83735502D01*
X130490494Y-83676537D01*
X130587185Y-83597185D01*
X130666537Y-83500494D01*
X130725502Y-83390180D01*
X130747513Y-83317620D01*
X130879368Y-83449475D01*
X131122589Y-83611990D01*
X131392842Y-83723932D01*
X131679740Y-83781000D01*
X131972260Y-83781000D01*
X132259158Y-83723932D01*
X132529411Y-83611990D01*
X132772632Y-83449475D01*
X132979475Y-83242632D01*
X133096000Y-83068240D01*
X133212525Y-83242632D01*
X133419368Y-83449475D01*
X133662589Y-83611990D01*
X133932842Y-83723932D01*
X134219740Y-83781000D01*
X134512260Y-83781000D01*
X134730049Y-83737679D01*
X135578716Y-84586346D01*
X135595995Y-84607400D01*
X135361401Y-84607400D01*
X135071875Y-84664990D01*
X134799147Y-84777958D01*
X134553698Y-84941961D01*
X134344961Y-85150698D01*
X134239000Y-85309281D01*
X134133039Y-85150698D01*
X133924302Y-84941961D01*
X133678853Y-84777958D01*
X133406125Y-84664990D01*
X133116599Y-84607400D01*
X132821401Y-84607400D01*
X132531875Y-84664990D01*
X132259147Y-84777958D01*
X132013698Y-84941961D01*
X131804961Y-85150698D01*
X131640958Y-85396147D01*
X131527990Y-85668875D01*
X131470400Y-85958401D01*
X131470400Y-86253599D01*
X131527990Y-86543125D01*
X131640958Y-86815853D01*
X131804961Y-87061302D01*
X132013698Y-87270039D01*
X132259147Y-87434042D01*
X132531875Y-87547010D01*
X132821401Y-87604600D01*
X133116599Y-87604600D01*
X133406125Y-87547010D01*
X133678853Y-87434042D01*
X133924302Y-87270039D01*
X134133039Y-87061302D01*
X134239000Y-86902719D01*
X134344961Y-87061302D01*
X134553698Y-87270039D01*
X134799147Y-87434042D01*
X135071875Y-87547010D01*
X135361401Y-87604600D01*
X135656599Y-87604600D01*
X135946125Y-87547010D01*
X136218853Y-87434042D01*
X136464302Y-87270039D01*
X136673039Y-87061302D01*
X136779000Y-86902719D01*
X136884961Y-87061302D01*
X137093698Y-87270039D01*
X137339147Y-87434042D01*
X137611875Y-87547010D01*
X137901401Y-87604600D01*
X138196599Y-87604600D01*
X138486125Y-87547010D01*
X138758853Y-87434042D01*
X139004302Y-87270039D01*
X139213039Y-87061302D01*
X139319000Y-86902719D01*
X139424961Y-87061302D01*
X139633698Y-87270039D01*
X139879147Y-87434042D01*
X140151875Y-87547010D01*
X140441401Y-87604600D01*
X140736599Y-87604600D01*
X141026125Y-87547010D01*
X141298853Y-87434042D01*
X141544302Y-87270039D01*
X141753039Y-87061302D01*
X141859000Y-86902719D01*
X141964961Y-87061302D01*
X142173698Y-87270039D01*
X142419147Y-87434042D01*
X142691875Y-87547010D01*
X142981401Y-87604600D01*
X143276599Y-87604600D01*
X143566125Y-87547010D01*
X143838853Y-87434042D01*
X144084302Y-87270039D01*
X144293039Y-87061302D01*
X144399000Y-86902719D01*
X144504961Y-87061302D01*
X144713698Y-87270039D01*
X144959147Y-87434042D01*
X145231875Y-87547010D01*
X145521401Y-87604600D01*
X145816599Y-87604600D01*
X146106125Y-87547010D01*
X146378853Y-87434042D01*
X146624302Y-87270039D01*
X146833039Y-87061302D01*
X146939000Y-86902719D01*
X147044961Y-87061302D01*
X147253698Y-87270039D01*
X147499147Y-87434042D01*
X147771875Y-87547010D01*
X148061401Y-87604600D01*
X148356599Y-87604600D01*
X148646125Y-87547010D01*
X148918853Y-87434042D01*
X149164302Y-87270039D01*
X149373039Y-87061302D01*
X149479000Y-86902719D01*
X149584961Y-87061302D01*
X149793698Y-87270039D01*
X150039147Y-87434042D01*
X150311875Y-87547010D01*
X150601401Y-87604600D01*
X150896599Y-87604600D01*
X151186125Y-87547010D01*
X151458853Y-87434042D01*
X151704302Y-87270039D01*
X151913039Y-87061302D01*
X152077042Y-86815853D01*
X152190010Y-86543125D01*
X152247600Y-86253599D01*
X152247600Y-85958401D01*
X154330400Y-85958401D01*
X154330400Y-86253599D01*
X154387990Y-86543125D01*
X154500958Y-86815853D01*
X154664961Y-87061302D01*
X154873698Y-87270039D01*
X155119147Y-87434042D01*
X155391875Y-87547010D01*
X155681401Y-87604600D01*
X155976599Y-87604600D01*
X156266125Y-87547010D01*
X156538853Y-87434042D01*
X156784302Y-87270039D01*
X156993039Y-87061302D01*
X157099000Y-86902719D01*
X157204961Y-87061302D01*
X157413698Y-87270039D01*
X157659147Y-87434042D01*
X157931875Y-87547010D01*
X158221401Y-87604600D01*
X158516599Y-87604600D01*
X158806125Y-87547010D01*
X159078853Y-87434042D01*
X159324302Y-87270039D01*
X159533039Y-87061302D01*
X159639000Y-86902719D01*
X159744961Y-87061302D01*
X159953698Y-87270039D01*
X160199147Y-87434042D01*
X160471875Y-87547010D01*
X160761401Y-87604600D01*
X161056599Y-87604600D01*
X161346125Y-87547010D01*
X161618853Y-87434042D01*
X161864302Y-87270039D01*
X162073039Y-87061302D01*
X162179000Y-86902719D01*
X162284961Y-87061302D01*
X162493698Y-87270039D01*
X162739147Y-87434042D01*
X163011875Y-87547010D01*
X163301401Y-87604600D01*
X163596599Y-87604600D01*
X163886125Y-87547010D01*
X164158853Y-87434042D01*
X164404302Y-87270039D01*
X164613039Y-87061302D01*
X164719000Y-86902719D01*
X164824961Y-87061302D01*
X165033698Y-87270039D01*
X165279147Y-87434042D01*
X165551875Y-87547010D01*
X165841401Y-87604600D01*
X166136599Y-87604600D01*
X166426125Y-87547010D01*
X166698853Y-87434042D01*
X166944302Y-87270039D01*
X167153039Y-87061302D01*
X167259000Y-86902719D01*
X167364961Y-87061302D01*
X167573698Y-87270039D01*
X167819147Y-87434042D01*
X168091875Y-87547010D01*
X168381401Y-87604600D01*
X168676599Y-87604600D01*
X168966125Y-87547010D01*
X169238853Y-87434042D01*
X169484302Y-87270039D01*
X169693039Y-87061302D01*
X169799000Y-86902719D01*
X169904961Y-87061302D01*
X170113698Y-87270039D01*
X170359147Y-87434042D01*
X170631875Y-87547010D01*
X170921401Y-87604600D01*
X171216599Y-87604600D01*
X171506125Y-87547010D01*
X171778853Y-87434042D01*
X172024302Y-87270039D01*
X172233039Y-87061302D01*
X172339000Y-86902719D01*
X172444961Y-87061302D01*
X172653698Y-87270039D01*
X172899147Y-87434042D01*
X173171875Y-87547010D01*
X173461401Y-87604600D01*
X173756599Y-87604600D01*
X174046125Y-87547010D01*
X174318853Y-87434042D01*
X174564302Y-87270039D01*
X174773039Y-87061302D01*
X174937042Y-86815853D01*
X175050010Y-86543125D01*
X175107600Y-86253599D01*
X175107600Y-85958401D01*
X175093174Y-85885872D01*
X176454000Y-85885872D01*
X176454000Y-86326128D01*
X176539890Y-86757925D01*
X176708369Y-87164669D01*
X176952962Y-87530729D01*
X177264271Y-87842038D01*
X177630331Y-88086631D01*
X178037075Y-88255110D01*
X178468872Y-88341000D01*
X178909128Y-88341000D01*
X179340925Y-88255110D01*
X179747669Y-88086631D01*
X180113729Y-87842038D01*
X180425038Y-87530729D01*
X180669631Y-87164669D01*
X180838110Y-86757925D01*
X180924000Y-86326128D01*
X180924000Y-85885872D01*
X180838110Y-85454075D01*
X180669631Y-85047331D01*
X180425038Y-84681271D01*
X180113729Y-84369962D01*
X179747669Y-84125369D01*
X179340925Y-83956890D01*
X178909128Y-83871000D01*
X178468872Y-83871000D01*
X178037075Y-83956890D01*
X177630331Y-84125369D01*
X177264271Y-84369962D01*
X176952962Y-84681271D01*
X176708369Y-85047331D01*
X176539890Y-85454075D01*
X176454000Y-85885872D01*
X175093174Y-85885872D01*
X175050010Y-85668875D01*
X174937042Y-85396147D01*
X174773039Y-85150698D01*
X174564302Y-84941961D01*
X174318853Y-84777958D01*
X174046125Y-84664990D01*
X173756599Y-84607400D01*
X173461401Y-84607400D01*
X173171875Y-84664990D01*
X172899147Y-84777958D01*
X172653698Y-84941961D01*
X172444961Y-85150698D01*
X172339000Y-85309281D01*
X172233039Y-85150698D01*
X172024302Y-84941961D01*
X171778853Y-84777958D01*
X171506125Y-84664990D01*
X171216599Y-84607400D01*
X170921401Y-84607400D01*
X170631875Y-84664990D01*
X170359147Y-84777958D01*
X170113698Y-84941961D01*
X169904961Y-85150698D01*
X169799000Y-85309281D01*
X169693039Y-85150698D01*
X169484302Y-84941961D01*
X169238853Y-84777958D01*
X168966125Y-84664990D01*
X168676599Y-84607400D01*
X168381401Y-84607400D01*
X168091875Y-84664990D01*
X167819147Y-84777958D01*
X167573698Y-84941961D01*
X167364961Y-85150698D01*
X167259000Y-85309281D01*
X167153039Y-85150698D01*
X166944302Y-84941961D01*
X166698853Y-84777958D01*
X166426125Y-84664990D01*
X166136599Y-84607400D01*
X165841401Y-84607400D01*
X165551875Y-84664990D01*
X165279147Y-84777958D01*
X165033698Y-84941961D01*
X164824961Y-85150698D01*
X164719000Y-85309281D01*
X164613039Y-85150698D01*
X164404302Y-84941961D01*
X164158853Y-84777958D01*
X163886125Y-84664990D01*
X163596599Y-84607400D01*
X163301401Y-84607400D01*
X163011875Y-84664990D01*
X162739147Y-84777958D01*
X162493698Y-84941961D01*
X162284961Y-85150698D01*
X162179000Y-85309281D01*
X162073039Y-85150698D01*
X161864302Y-84941961D01*
X161618853Y-84777958D01*
X161346125Y-84664990D01*
X161056599Y-84607400D01*
X160761401Y-84607400D01*
X160471875Y-84664990D01*
X160199147Y-84777958D01*
X159953698Y-84941961D01*
X159744961Y-85150698D01*
X159639000Y-85309281D01*
X159533039Y-85150698D01*
X159324302Y-84941961D01*
X159078853Y-84777958D01*
X158806125Y-84664990D01*
X158516599Y-84607400D01*
X158221401Y-84607400D01*
X157931875Y-84664990D01*
X157659147Y-84777958D01*
X157413698Y-84941961D01*
X157204961Y-85150698D01*
X157099000Y-85309281D01*
X156993039Y-85150698D01*
X156784302Y-84941961D01*
X156538853Y-84777958D01*
X156266125Y-84664990D01*
X155976599Y-84607400D01*
X155681401Y-84607400D01*
X155391875Y-84664990D01*
X155119147Y-84777958D01*
X154873698Y-84941961D01*
X154664961Y-85150698D01*
X154500958Y-85396147D01*
X154387990Y-85668875D01*
X154330400Y-85958401D01*
X152247600Y-85958401D01*
X152190010Y-85668875D01*
X152077042Y-85396147D01*
X151913039Y-85150698D01*
X151704302Y-84941961D01*
X151458853Y-84777958D01*
X151186125Y-84664990D01*
X150896599Y-84607400D01*
X150601401Y-84607400D01*
X150311875Y-84664990D01*
X150039147Y-84777958D01*
X149793698Y-84941961D01*
X149584961Y-85150698D01*
X149479000Y-85309281D01*
X149373039Y-85150698D01*
X149164302Y-84941961D01*
X148918853Y-84777958D01*
X148646125Y-84664990D01*
X148356599Y-84607400D01*
X148061401Y-84607400D01*
X147771875Y-84664990D01*
X147499147Y-84777958D01*
X147253698Y-84941961D01*
X147044961Y-85150698D01*
X146939000Y-85309281D01*
X146833039Y-85150698D01*
X146624302Y-84941961D01*
X146378853Y-84777958D01*
X146106125Y-84664990D01*
X145816599Y-84607400D01*
X145521401Y-84607400D01*
X145231875Y-84664990D01*
X144959147Y-84777958D01*
X144713698Y-84941961D01*
X144504961Y-85150698D01*
X144399000Y-85309281D01*
X144293039Y-85150698D01*
X144084302Y-84941961D01*
X143838853Y-84777958D01*
X143566125Y-84664990D01*
X143499235Y-84651685D01*
X143543422Y-84615422D01*
X143567284Y-84586346D01*
X145038352Y-83115279D01*
X145067422Y-83091422D01*
X145162645Y-82975392D01*
X145233402Y-82843015D01*
X145276974Y-82699378D01*
X145288000Y-82587426D01*
X145288000Y-82587424D01*
X145291686Y-82550001D01*
X145288000Y-82512578D01*
X145288000Y-80805872D01*
X145974000Y-80805872D01*
X145974000Y-81246128D01*
X146059890Y-81677925D01*
X146228369Y-82084669D01*
X146472962Y-82450729D01*
X146784271Y-82762038D01*
X147150331Y-83006631D01*
X147557075Y-83175110D01*
X147988872Y-83261000D01*
X148429128Y-83261000D01*
X148860925Y-83175110D01*
X149267669Y-83006631D01*
X149633729Y-82762038D01*
X149945038Y-82450729D01*
X150189631Y-82084669D01*
X150358110Y-81677925D01*
X150416371Y-81385026D01*
X174694042Y-81385026D01*
X174739778Y-81535814D01*
X174866316Y-81800944D01*
X175042146Y-82036293D01*
X175260512Y-82232817D01*
X175513022Y-82382964D01*
X175789973Y-82480963D01*
X176022000Y-82360464D01*
X176022000Y-81153000D01*
X176276000Y-81153000D01*
X176276000Y-82360464D01*
X176508027Y-82480963D01*
X176784978Y-82382964D01*
X177037488Y-82232817D01*
X177255854Y-82036293D01*
X177419000Y-81817922D01*
X177582146Y-82036293D01*
X177800512Y-82232817D01*
X178053022Y-82382964D01*
X178329973Y-82480963D01*
X178562000Y-82360464D01*
X178562000Y-81153000D01*
X178816000Y-81153000D01*
X178816000Y-82360464D01*
X179048027Y-82480963D01*
X179324978Y-82382964D01*
X179577488Y-82232817D01*
X179795854Y-82036293D01*
X179971684Y-81800944D01*
X180098222Y-81535814D01*
X180143958Y-81385026D01*
X180022817Y-81153000D01*
X178816000Y-81153000D01*
X178562000Y-81153000D01*
X176276000Y-81153000D01*
X176022000Y-81153000D01*
X174815183Y-81153000D01*
X174694042Y-81385026D01*
X150416371Y-81385026D01*
X150444000Y-81246128D01*
X150444000Y-80805872D01*
X150358110Y-80374075D01*
X150189631Y-79967331D01*
X149945038Y-79601271D01*
X149633729Y-79289962D01*
X149267669Y-79045369D01*
X148860925Y-78876890D01*
X148429128Y-78791000D01*
X147988872Y-78791000D01*
X147557075Y-78876890D01*
X147150331Y-79045369D01*
X146784271Y-79289962D01*
X146472962Y-79601271D01*
X146228369Y-79967331D01*
X146059890Y-80374075D01*
X145974000Y-80805872D01*
X145288000Y-80805872D01*
X145288000Y-79720072D01*
X145376000Y-79720072D01*
X145500482Y-79707812D01*
X145620180Y-79671502D01*
X145730494Y-79612537D01*
X145827185Y-79533185D01*
X145906537Y-79436494D01*
X145965502Y-79326180D01*
X146001812Y-79206482D01*
X146014072Y-79082000D01*
X146014072Y-77382000D01*
X146001812Y-77257518D01*
X145965502Y-77137820D01*
X145906537Y-77027506D01*
X145827185Y-76930815D01*
X145730494Y-76851463D01*
X145620180Y-76792498D01*
X145547620Y-76770487D01*
X145679475Y-76638632D01*
X145841990Y-76395411D01*
X145953932Y-76125158D01*
X146011000Y-75838260D01*
X146011000Y-75545740D01*
X145953932Y-75258842D01*
X145841990Y-74988589D01*
X145679475Y-74745368D01*
X145472632Y-74538525D01*
X145298240Y-74422000D01*
X145472632Y-74305475D01*
X145679475Y-74098632D01*
X145802842Y-73914000D01*
X148625428Y-73914000D01*
X148576304Y-74032595D01*
X148525000Y-74290514D01*
X148525000Y-74553486D01*
X148576304Y-74811405D01*
X148676939Y-75054359D01*
X148823038Y-75273013D01*
X149008987Y-75458962D01*
X149227641Y-75605061D01*
X149470595Y-75705696D01*
X149728514Y-75757000D01*
X149991486Y-75757000D01*
X150249405Y-75705696D01*
X150492359Y-75605061D01*
X150711013Y-75458962D01*
X150896962Y-75273013D01*
X150956438Y-75184000D01*
X168618577Y-75184000D01*
X168656000Y-75187686D01*
X168693423Y-75184000D01*
X168693426Y-75184000D01*
X168805378Y-75172974D01*
X168949015Y-75129402D01*
X169081392Y-75058645D01*
X169197422Y-74963422D01*
X169221284Y-74934346D01*
X174756352Y-69399279D01*
X174785422Y-69375422D01*
X174880645Y-69259392D01*
X174920500Y-69184829D01*
X174984961Y-69281302D01*
X175193698Y-69490039D01*
X175352281Y-69596000D01*
X175193698Y-69701961D01*
X174984961Y-69910698D01*
X174820958Y-70156147D01*
X174707990Y-70428875D01*
X174650400Y-70718401D01*
X174650400Y-71013599D01*
X174707990Y-71303125D01*
X174820958Y-71575853D01*
X174984961Y-71821302D01*
X175193698Y-72030039D01*
X175352281Y-72136000D01*
X175193698Y-72241961D01*
X174984961Y-72450698D01*
X174820958Y-72696147D01*
X174707990Y-72968875D01*
X174650400Y-73258401D01*
X174650400Y-73553599D01*
X174707990Y-73843125D01*
X174820958Y-74115853D01*
X174984961Y-74361302D01*
X175193698Y-74570039D01*
X175352281Y-74676000D01*
X175193698Y-74781961D01*
X174984961Y-74990698D01*
X174820958Y-75236147D01*
X174707990Y-75508875D01*
X174650400Y-75798401D01*
X174650400Y-76093599D01*
X174707990Y-76383125D01*
X174820958Y-76655853D01*
X174984961Y-76901302D01*
X175193698Y-77110039D01*
X175352281Y-77216000D01*
X175193698Y-77321961D01*
X174984961Y-77530698D01*
X174820958Y-77776147D01*
X174707990Y-78048875D01*
X174650400Y-78338401D01*
X174650400Y-78633599D01*
X174707990Y-78923125D01*
X174820958Y-79195853D01*
X174984961Y-79441302D01*
X175193698Y-79650039D01*
X175359103Y-79760559D01*
X175260512Y-79819183D01*
X175042146Y-80015707D01*
X174866316Y-80251056D01*
X174739778Y-80516186D01*
X174694042Y-80666974D01*
X174815183Y-80899000D01*
X176022000Y-80899000D01*
X176022000Y-80879000D01*
X176276000Y-80879000D01*
X176276000Y-80899000D01*
X178562000Y-80899000D01*
X178562000Y-80879000D01*
X178816000Y-80879000D01*
X178816000Y-80899000D01*
X180022817Y-80899000D01*
X180143958Y-80666974D01*
X180098222Y-80516186D01*
X179971684Y-80251056D01*
X179916905Y-80177735D01*
X181665153Y-78429488D01*
X181694222Y-78405632D01*
X181789445Y-78289602D01*
X181860202Y-78157225D01*
X181903774Y-78013588D01*
X181914800Y-77901636D01*
X181914800Y-77901634D01*
X181918486Y-77864211D01*
X181914800Y-77826788D01*
X181914800Y-33463822D01*
X181918486Y-33426399D01*
X181914800Y-33388974D01*
X181903774Y-33277022D01*
X181860202Y-33133385D01*
X181789445Y-33001008D01*
X181694222Y-32884978D01*
X181665152Y-32861121D01*
X176384084Y-27580054D01*
X176360222Y-27550978D01*
X176244192Y-27455755D01*
X176111815Y-27384998D01*
X175968178Y-27341426D01*
X175856226Y-27330400D01*
X175856223Y-27330400D01*
X175818800Y-27326714D01*
X175781377Y-27330400D01*
X173896523Y-27330400D01*
X173859100Y-27326714D01*
X173821677Y-27330400D01*
X173821674Y-27330400D01*
X173709722Y-27341426D01*
X173566085Y-27384998D01*
X173540679Y-27398578D01*
X173433707Y-27455755D01*
X173371458Y-27506842D01*
X173317678Y-27550978D01*
X173293821Y-27580048D01*
X172804648Y-28069221D01*
X172586860Y-28025900D01*
X172294340Y-28025900D01*
X172007442Y-28082968D01*
X171737189Y-28194910D01*
X171493968Y-28357425D01*
X171287125Y-28564268D01*
X171170600Y-28738660D01*
X171054075Y-28564268D01*
X170847232Y-28357425D01*
X170604011Y-28194910D01*
X170333758Y-28082968D01*
X170046860Y-28025900D01*
X169754340Y-28025900D01*
X169467442Y-28082968D01*
X169197189Y-28194910D01*
X168953968Y-28357425D01*
X168747125Y-28564268D01*
X168630600Y-28738660D01*
X168514075Y-28564268D01*
X168307232Y-28357425D01*
X168064011Y-28194910D01*
X167793758Y-28082968D01*
X167506860Y-28025900D01*
X167214340Y-28025900D01*
X166927442Y-28082968D01*
X166657189Y-28194910D01*
X166413968Y-28357425D01*
X166207125Y-28564268D01*
X166090600Y-28738660D01*
X165974075Y-28564268D01*
X165767232Y-28357425D01*
X165524011Y-28194910D01*
X165253758Y-28082968D01*
X164966860Y-28025900D01*
X164674340Y-28025900D01*
X164387442Y-28082968D01*
X164117189Y-28194910D01*
X163873968Y-28357425D01*
X163742113Y-28489280D01*
X163720102Y-28416720D01*
X163661137Y-28306406D01*
X163581785Y-28209715D01*
X163485094Y-28130363D01*
X163374780Y-28071398D01*
X163255082Y-28035088D01*
X163130600Y-28022828D01*
X162566350Y-28025900D01*
X162407600Y-28184650D01*
X162407600Y-29383900D01*
X162427600Y-29383900D01*
X162427600Y-29637900D01*
X162407600Y-29637900D01*
X162407600Y-30837150D01*
X162566350Y-30995900D01*
X163130600Y-30998972D01*
X163255082Y-30986712D01*
X163374780Y-30950402D01*
X163485094Y-30891437D01*
X163581785Y-30812085D01*
X163661137Y-30715394D01*
X163720102Y-30605080D01*
X163742113Y-30532520D01*
X163873968Y-30664375D01*
X164117189Y-30826890D01*
X164387442Y-30938832D01*
X164674340Y-30995900D01*
X164966860Y-30995900D01*
X165253758Y-30938832D01*
X165524011Y-30826890D01*
X165767232Y-30664375D01*
X165974075Y-30457532D01*
X166090600Y-30283140D01*
X166207125Y-30457532D01*
X166413968Y-30664375D01*
X166657189Y-30826890D01*
X166927442Y-30938832D01*
X167214340Y-30995900D01*
X167506860Y-30995900D01*
X167793758Y-30938832D01*
X168064011Y-30826890D01*
X168307232Y-30664375D01*
X168514075Y-30457532D01*
X168630600Y-30283140D01*
X168747125Y-30457532D01*
X168953968Y-30664375D01*
X169197189Y-30826890D01*
X169467442Y-30938832D01*
X169754340Y-30995900D01*
X170046860Y-30995900D01*
X170333758Y-30938832D01*
X170604011Y-30826890D01*
X170847232Y-30664375D01*
X171054075Y-30457532D01*
X171170600Y-30283140D01*
X171287125Y-30457532D01*
X171493968Y-30664375D01*
X171737189Y-30826890D01*
X172007442Y-30938832D01*
X172294340Y-30995900D01*
X172586860Y-30995900D01*
X172873758Y-30938832D01*
X173144011Y-30826890D01*
X173387232Y-30664375D01*
X173594075Y-30457532D01*
X173710600Y-30283140D01*
X173827125Y-30457532D01*
X174033968Y-30664375D01*
X174277189Y-30826890D01*
X174547442Y-30938832D01*
X174834340Y-30995900D01*
X175126860Y-30995900D01*
X175344649Y-30952579D01*
X176396070Y-32004000D01*
X159573631Y-32004000D01*
X157930531Y-30360900D01*
X160792528Y-30360900D01*
X160804788Y-30485382D01*
X160841098Y-30605080D01*
X160900063Y-30715394D01*
X160979415Y-30812085D01*
X161076106Y-30891437D01*
X161186420Y-30950402D01*
X161306118Y-30986712D01*
X161430600Y-30998972D01*
X161994850Y-30995900D01*
X162153600Y-30837150D01*
X162153600Y-29637900D01*
X160954350Y-29637900D01*
X160795600Y-29796650D01*
X160792528Y-30360900D01*
X157930531Y-30360900D01*
X156230531Y-28660900D01*
X160792528Y-28660900D01*
X160795600Y-29225150D01*
X160954350Y-29383900D01*
X162153600Y-29383900D01*
X162153600Y-28184650D01*
X161994850Y-28025900D01*
X161430600Y-28022828D01*
X161306118Y-28035088D01*
X161186420Y-28071398D01*
X161076106Y-28130363D01*
X160979415Y-28209715D01*
X160900063Y-28306406D01*
X160841098Y-28416720D01*
X160804788Y-28536418D01*
X160792528Y-28660900D01*
X156230531Y-28660900D01*
X154489284Y-26919654D01*
X154465422Y-26890578D01*
X154349392Y-26795355D01*
X154217015Y-26724598D01*
X154073378Y-26681026D01*
X153961426Y-26670000D01*
X153961423Y-26670000D01*
X153924000Y-26666314D01*
X153886577Y-26670000D01*
X140903522Y-26670000D01*
X140866099Y-26666314D01*
X140828676Y-26670000D01*
X140828674Y-26670000D01*
X140716722Y-26681026D01*
X140573085Y-26724598D01*
X140440708Y-26795355D01*
X140324678Y-26890578D01*
X140300821Y-26919648D01*
X139124248Y-28096221D01*
X138906460Y-28052900D01*
X138613940Y-28052900D01*
X138327042Y-28109968D01*
X138056789Y-28221910D01*
X137813568Y-28384425D01*
X137606725Y-28591268D01*
X137444210Y-28834489D01*
X137332268Y-29104742D01*
X137275200Y-29391640D01*
X137275200Y-29684160D01*
X137332268Y-29971058D01*
X137444210Y-30241311D01*
X137606725Y-30484532D01*
X137813568Y-30691375D01*
X138056789Y-30853890D01*
X138327042Y-30965832D01*
X138613940Y-31022900D01*
X138906460Y-31022900D01*
X139193358Y-30965832D01*
X139463611Y-30853890D01*
X139706832Y-30691375D01*
X139913675Y-30484532D01*
X140030200Y-30310140D01*
X140146725Y-30484532D01*
X140353568Y-30691375D01*
X140596789Y-30853890D01*
X140867042Y-30965832D01*
X141153940Y-31022900D01*
X141446460Y-31022900D01*
X141664249Y-30979579D01*
X142917270Y-32232600D01*
X134148231Y-32232600D01*
X127679679Y-25764049D01*
X127723000Y-25546260D01*
X127723000Y-25253740D01*
X127665932Y-24966842D01*
X127553990Y-24696589D01*
X127391475Y-24453368D01*
X127184632Y-24246525D01*
X126941411Y-24084010D01*
X126671158Y-23972068D01*
X126384260Y-23915000D01*
X126091740Y-23915000D01*
X125873951Y-23958321D01*
X125572283Y-23656653D01*
X125548421Y-23627577D01*
X125432391Y-23532354D01*
X125300014Y-23461597D01*
X125156377Y-23418025D01*
X125044425Y-23406999D01*
X125044422Y-23406999D01*
X125006999Y-23403313D01*
X124969576Y-23406999D01*
X109472423Y-23406999D01*
X109435000Y-23403313D01*
X109397577Y-23406999D01*
X109397575Y-23406999D01*
X109285623Y-23418025D01*
X109141986Y-23461597D01*
X109009609Y-23532354D01*
X108893579Y-23627577D01*
X108869722Y-23656647D01*
X108568048Y-23958321D01*
X108350260Y-23915000D01*
X108057740Y-23915000D01*
X107770842Y-23972068D01*
X107500589Y-24084010D01*
X107257368Y-24246525D01*
X107125513Y-24378380D01*
X107103502Y-24305820D01*
X107044537Y-24195506D01*
X106965185Y-24098815D01*
X106868494Y-24019463D01*
X106758180Y-23960498D01*
X106638482Y-23924188D01*
X106514000Y-23911928D01*
X105949750Y-23915000D01*
X105791000Y-24073750D01*
X105791000Y-25273000D01*
X105811000Y-25273000D01*
X105811000Y-25527000D01*
X105791000Y-25527000D01*
X105791000Y-25547000D01*
X105537000Y-25547000D01*
X105537000Y-25527000D01*
X104337750Y-25527000D01*
X104179000Y-25685750D01*
X104175928Y-26250000D01*
X89351855Y-26250000D01*
X89482157Y-26031252D01*
X89579481Y-25756891D01*
X89458814Y-25527000D01*
X88265000Y-25527000D01*
X88265000Y-25547000D01*
X88011000Y-25547000D01*
X88011000Y-25527000D01*
X87991000Y-25527000D01*
X87991000Y-25273000D01*
X88011000Y-25273000D01*
X88011000Y-24079845D01*
X88265000Y-24079845D01*
X88265000Y-25273000D01*
X89458814Y-25273000D01*
X89579481Y-25043109D01*
X89482157Y-24768748D01*
X89351856Y-24550000D01*
X104175928Y-24550000D01*
X104179000Y-25114250D01*
X104337750Y-25273000D01*
X105537000Y-25273000D01*
X105537000Y-24073750D01*
X105378250Y-23915000D01*
X104814000Y-23911928D01*
X104689518Y-23924188D01*
X104569820Y-23960498D01*
X104459506Y-24019463D01*
X104362815Y-24098815D01*
X104283463Y-24195506D01*
X104224498Y-24305820D01*
X104188188Y-24425518D01*
X104175928Y-24550000D01*
X89351856Y-24550000D01*
X89333178Y-24518645D01*
X89138269Y-24302412D01*
X88904920Y-24128359D01*
X88642099Y-24003175D01*
X88494890Y-23958524D01*
X88265000Y-24079845D01*
X88011000Y-24079845D01*
X87781110Y-23958524D01*
X87633901Y-24003175D01*
X87371080Y-24128359D01*
X87137731Y-24302412D01*
X87061966Y-24386466D01*
X87037502Y-24305820D01*
X86978537Y-24195506D01*
X86899185Y-24098815D01*
X86802494Y-24019463D01*
X86692180Y-23960498D01*
X86572482Y-23924188D01*
X86448000Y-23911928D01*
X84748000Y-23911928D01*
X84623518Y-23924188D01*
X84503820Y-23960498D01*
X84393506Y-24019463D01*
X84296815Y-24098815D01*
X84217463Y-24195506D01*
X84158498Y-24305820D01*
X84122188Y-24425518D01*
X84109928Y-24550000D01*
X84109928Y-25810442D01*
X82291654Y-27628716D01*
X82262578Y-27652578D01*
X82206983Y-27720322D01*
X82167355Y-27768608D01*
X82155588Y-27790623D01*
X82096598Y-27900986D01*
X82053026Y-28044623D01*
X82042000Y-28156574D01*
X82038314Y-28194000D01*
X81559000Y-28194000D01*
X81559000Y-18440000D01*
X182220001Y-18440000D01*
X182220000Y-88875000D01*
%TA.AperFunction,Conductor*%
D25*
G36*
X182220000Y-88875000D02*
G01*
X81559000Y-88875000D01*
X81559000Y-85885872D01*
X93904000Y-85885872D01*
X93904000Y-86326128D01*
X93989890Y-86757925D01*
X94158369Y-87164669D01*
X94402962Y-87530729D01*
X94714271Y-87842038D01*
X95080331Y-88086631D01*
X95487075Y-88255110D01*
X95918872Y-88341000D01*
X96359128Y-88341000D01*
X96790925Y-88255110D01*
X97197669Y-88086631D01*
X97563729Y-87842038D01*
X97875038Y-87530729D01*
X98119631Y-87164669D01*
X98288110Y-86757925D01*
X98374000Y-86326128D01*
X98374000Y-85958401D01*
X108610400Y-85958401D01*
X108610400Y-86253599D01*
X108667990Y-86543125D01*
X108780958Y-86815853D01*
X108944961Y-87061302D01*
X109153698Y-87270039D01*
X109399147Y-87434042D01*
X109671875Y-87547010D01*
X109961401Y-87604600D01*
X110256599Y-87604600D01*
X110546125Y-87547010D01*
X110818853Y-87434042D01*
X111064302Y-87270039D01*
X111273039Y-87061302D01*
X111379000Y-86902719D01*
X111484961Y-87061302D01*
X111693698Y-87270039D01*
X111939147Y-87434042D01*
X112211875Y-87547010D01*
X112501401Y-87604600D01*
X112796599Y-87604600D01*
X113086125Y-87547010D01*
X113358853Y-87434042D01*
X113604302Y-87270039D01*
X113813039Y-87061302D01*
X113919000Y-86902719D01*
X114024961Y-87061302D01*
X114233698Y-87270039D01*
X114479147Y-87434042D01*
X114751875Y-87547010D01*
X115041401Y-87604600D01*
X115336599Y-87604600D01*
X115626125Y-87547010D01*
X115898853Y-87434042D01*
X116144302Y-87270039D01*
X116353039Y-87061302D01*
X116459000Y-86902719D01*
X116564961Y-87061302D01*
X116773698Y-87270039D01*
X117019147Y-87434042D01*
X117291875Y-87547010D01*
X117581401Y-87604600D01*
X117876599Y-87604600D01*
X118166125Y-87547010D01*
X118438853Y-87434042D01*
X118684302Y-87270039D01*
X118893039Y-87061302D01*
X118999000Y-86902719D01*
X119104961Y-87061302D01*
X119313698Y-87270039D01*
X119559147Y-87434042D01*
X119831875Y-87547010D01*
X120121401Y-87604600D01*
X120416599Y-87604600D01*
X120706125Y-87547010D01*
X120978853Y-87434042D01*
X121224302Y-87270039D01*
X121433039Y-87061302D01*
X121540692Y-86900187D01*
X121702146Y-87116293D01*
X121920512Y-87312817D01*
X122173022Y-87462964D01*
X122449973Y-87560963D01*
X122682000Y-87440464D01*
X122682000Y-86233000D01*
X122936000Y-86233000D01*
X122936000Y-87440464D01*
X123168027Y-87560963D01*
X123444978Y-87462964D01*
X123697488Y-87312817D01*
X123915854Y-87116293D01*
X124079000Y-86897922D01*
X124242146Y-87116293D01*
X124460512Y-87312817D01*
X124713022Y-87462964D01*
X124989973Y-87560963D01*
X125222000Y-87440464D01*
X125222000Y-86233000D01*
X122936000Y-86233000D01*
X122682000Y-86233000D01*
X122662000Y-86233000D01*
X122662000Y-85979000D01*
X122682000Y-85979000D01*
X122682000Y-84771536D01*
X122936000Y-84771536D01*
X122936000Y-85979000D01*
X125222000Y-85979000D01*
X125222000Y-84771536D01*
X124989973Y-84651037D01*
X124713022Y-84749036D01*
X124460512Y-84899183D01*
X124242146Y-85095707D01*
X124079000Y-85314078D01*
X123915854Y-85095707D01*
X123697488Y-84899183D01*
X123444978Y-84749036D01*
X123168027Y-84651037D01*
X122936000Y-84771536D01*
X122682000Y-84771536D01*
X122449973Y-84651037D01*
X122173022Y-84749036D01*
X121920512Y-84899183D01*
X121702146Y-85095707D01*
X121540692Y-85311813D01*
X121433039Y-85150698D01*
X121224302Y-84941961D01*
X120978853Y-84777958D01*
X120706125Y-84664990D01*
X120416599Y-84607400D01*
X120121401Y-84607400D01*
X119831875Y-84664990D01*
X119559147Y-84777958D01*
X119313698Y-84941961D01*
X119104961Y-85150698D01*
X118999000Y-85309281D01*
X118893039Y-85150698D01*
X118684302Y-84941961D01*
X118438853Y-84777958D01*
X118166125Y-84664990D01*
X117876599Y-84607400D01*
X117581401Y-84607400D01*
X117291875Y-84664990D01*
X117019147Y-84777958D01*
X116773698Y-84941961D01*
X116564961Y-85150698D01*
X116459000Y-85309281D01*
X116353039Y-85150698D01*
X116144302Y-84941961D01*
X115951000Y-84812801D01*
X115951000Y-83754630D01*
X116475951Y-83229679D01*
X116693740Y-83273000D01*
X116986260Y-83273000D01*
X117273158Y-83215932D01*
X117543411Y-83103990D01*
X117786632Y-82941475D01*
X117918487Y-82809620D01*
X117940498Y-82882180D01*
X117999463Y-82992494D01*
X118078815Y-83089185D01*
X118175506Y-83168537D01*
X118285820Y-83227502D01*
X118405518Y-83263812D01*
X118530000Y-83276072D01*
X119094250Y-83273000D01*
X119253000Y-83114250D01*
X119253000Y-81915000D01*
X119507000Y-81915000D01*
X119507000Y-83114250D01*
X119665750Y-83273000D01*
X120230000Y-83276072D01*
X120354482Y-83263812D01*
X120474180Y-83227502D01*
X120584494Y-83168537D01*
X120681185Y-83089185D01*
X120760537Y-82992494D01*
X120819502Y-82882180D01*
X120855812Y-82762482D01*
X120868072Y-82638000D01*
X120865000Y-82073750D01*
X120706250Y-81915000D01*
X119507000Y-81915000D01*
X119253000Y-81915000D01*
X119233000Y-81915000D01*
X119233000Y-81661000D01*
X119253000Y-81661000D01*
X119253000Y-80461750D01*
X119507000Y-80461750D01*
X119507000Y-81661000D01*
X120706250Y-81661000D01*
X120865000Y-81502250D01*
X120868072Y-80938000D01*
X120855812Y-80813518D01*
X120819502Y-80693820D01*
X120760537Y-80583506D01*
X120681185Y-80486815D01*
X120584494Y-80407463D01*
X120474180Y-80348498D01*
X120354482Y-80312188D01*
X120230000Y-80299928D01*
X119665750Y-80303000D01*
X119507000Y-80461750D01*
X119253000Y-80461750D01*
X119094250Y-80303000D01*
X118530000Y-80299928D01*
X118405518Y-80312188D01*
X118285820Y-80348498D01*
X118175506Y-80407463D01*
X118078815Y-80486815D01*
X117999463Y-80583506D01*
X117940498Y-80693820D01*
X117918487Y-80766380D01*
X117786632Y-80634525D01*
X117543411Y-80472010D01*
X117273158Y-80360068D01*
X116986260Y-80303000D01*
X116693740Y-80303000D01*
X116406842Y-80360068D01*
X116136589Y-80472010D01*
X115893368Y-80634525D01*
X115686525Y-80841368D01*
X115524010Y-81084589D01*
X115412068Y-81354842D01*
X115355000Y-81641740D01*
X115355000Y-81934260D01*
X115398321Y-82152049D01*
X114676649Y-82873721D01*
X114647579Y-82897578D01*
X114623722Y-82926648D01*
X114623721Y-82926649D01*
X114552355Y-83013608D01*
X114481599Y-83145985D01*
X114438027Y-83289622D01*
X114423314Y-83439000D01*
X114427001Y-83476433D01*
X114427000Y-84812801D01*
X114233698Y-84941961D01*
X114024961Y-85150698D01*
X113919000Y-85309281D01*
X113813039Y-85150698D01*
X113604302Y-84941961D01*
X113358853Y-84777958D01*
X113086125Y-84664990D01*
X112796599Y-84607400D01*
X112501401Y-84607400D01*
X112211875Y-84664990D01*
X111939147Y-84777958D01*
X111693698Y-84941961D01*
X111484961Y-85150698D01*
X111379000Y-85309281D01*
X111273039Y-85150698D01*
X111064302Y-84941961D01*
X110818853Y-84777958D01*
X110546125Y-84664990D01*
X110256599Y-84607400D01*
X109961401Y-84607400D01*
X109671875Y-84664990D01*
X109399147Y-84777958D01*
X109153698Y-84941961D01*
X108944961Y-85150698D01*
X108780958Y-85396147D01*
X108667990Y-85668875D01*
X108610400Y-85958401D01*
X98374000Y-85958401D01*
X98374000Y-85885872D01*
X98288110Y-85454075D01*
X98119631Y-85047331D01*
X97875038Y-84681271D01*
X97563729Y-84369962D01*
X97197669Y-84125369D01*
X96790925Y-83956890D01*
X96359128Y-83871000D01*
X95918872Y-83871000D01*
X95487075Y-83956890D01*
X95080331Y-84125369D01*
X94714271Y-84369962D01*
X94402962Y-84681271D01*
X94158369Y-85047331D01*
X93989890Y-85454075D01*
X93904000Y-85885872D01*
X81559000Y-85885872D01*
X81559000Y-28194000D01*
X82038314Y-28194000D01*
X82042000Y-28231423D01*
X82042001Y-40602567D01*
X82038314Y-40640000D01*
X82053027Y-40789378D01*
X82096599Y-40933015D01*
X82167355Y-41065392D01*
X82238175Y-41151686D01*
X82262579Y-41181422D01*
X82291649Y-41205279D01*
X86810721Y-45724352D01*
X86834578Y-45753422D01*
X86950608Y-45848645D01*
X87082985Y-45919402D01*
X87226622Y-45962974D01*
X87338574Y-45974000D01*
X87338576Y-45974000D01*
X87375999Y-45977686D01*
X87413422Y-45974000D01*
X104991577Y-45974000D01*
X105029000Y-45977686D01*
X105066423Y-45974000D01*
X105066426Y-45974000D01*
X105178378Y-45962974D01*
X105322015Y-45919402D01*
X105454392Y-45848645D01*
X105570422Y-45753422D01*
X105594284Y-45724346D01*
X106571625Y-44747006D01*
X106584088Y-44752168D01*
X106899967Y-44815000D01*
X107222033Y-44815000D01*
X107537912Y-44752168D01*
X107835463Y-44628918D01*
X108103252Y-44449987D01*
X108330987Y-44222252D01*
X108509918Y-43954463D01*
X108633168Y-43656912D01*
X108696000Y-43341033D01*
X108696000Y-43018967D01*
X108633168Y-42703088D01*
X108509918Y-42405537D01*
X108348528Y-42164000D01*
X108777370Y-42164000D01*
X109303995Y-42690625D01*
X109298832Y-42703088D01*
X109236000Y-43018967D01*
X109236000Y-43341033D01*
X109298832Y-43656912D01*
X109422082Y-43954463D01*
X109601013Y-44222252D01*
X109828748Y-44449987D01*
X110096537Y-44628918D01*
X110394088Y-44752168D01*
X110709967Y-44815000D01*
X111032033Y-44815000D01*
X111347912Y-44752168D01*
X111645463Y-44628918D01*
X111913252Y-44449987D01*
X112140987Y-44222252D01*
X112169218Y-44180000D01*
X113042928Y-44180000D01*
X113055188Y-44304482D01*
X113091498Y-44424180D01*
X113150463Y-44534494D01*
X113229815Y-44631185D01*
X113326506Y-44710537D01*
X113436820Y-44769502D01*
X113556518Y-44805812D01*
X113681000Y-44818072D01*
X114395250Y-44815000D01*
X114554000Y-44656250D01*
X114554000Y-43307000D01*
X114808000Y-43307000D01*
X114808000Y-44656250D01*
X114966750Y-44815000D01*
X115681000Y-44818072D01*
X115805482Y-44805812D01*
X115925180Y-44769502D01*
X116035494Y-44710537D01*
X116132185Y-44631185D01*
X116211537Y-44534494D01*
X116270502Y-44424180D01*
X116306812Y-44304482D01*
X116319072Y-44180000D01*
X116316000Y-43465750D01*
X116157250Y-43307000D01*
X114808000Y-43307000D01*
X114554000Y-43307000D01*
X113204750Y-43307000D01*
X113046000Y-43465750D01*
X113042928Y-44180000D01*
X112169218Y-44180000D01*
X112319918Y-43954463D01*
X112443168Y-43656912D01*
X112506000Y-43341033D01*
X112506000Y-43018967D01*
X112443168Y-42703088D01*
X112319918Y-42405537D01*
X112169219Y-42180000D01*
X113042928Y-42180000D01*
X113046000Y-42894250D01*
X113204750Y-43053000D01*
X114554000Y-43053000D01*
X114554000Y-41703750D01*
X114808000Y-41703750D01*
X114808000Y-43053000D01*
X116157250Y-43053000D01*
X116316000Y-42894250D01*
X116319072Y-42180000D01*
X116306812Y-42055518D01*
X116270502Y-41935820D01*
X116211537Y-41825506D01*
X116132185Y-41728815D01*
X116035494Y-41649463D01*
X115925180Y-41590498D01*
X115805482Y-41554188D01*
X115681000Y-41541928D01*
X114966750Y-41545000D01*
X114808000Y-41703750D01*
X114554000Y-41703750D01*
X114395250Y-41545000D01*
X113681000Y-41541928D01*
X113556518Y-41554188D01*
X113436820Y-41590498D01*
X113326506Y-41649463D01*
X113229815Y-41728815D01*
X113150463Y-41825506D01*
X113091498Y-41935820D01*
X113055188Y-42055518D01*
X113042928Y-42180000D01*
X112169219Y-42180000D01*
X112140987Y-42137748D01*
X111913252Y-41910013D01*
X111645463Y-41731082D01*
X111347912Y-41607832D01*
X111032033Y-41545000D01*
X110709967Y-41545000D01*
X110394088Y-41607832D01*
X110381625Y-41612995D01*
X109658284Y-40889654D01*
X109634422Y-40860578D01*
X109518392Y-40765355D01*
X109386015Y-40694598D01*
X109242378Y-40651026D01*
X109130426Y-40640000D01*
X109130423Y-40640000D01*
X109093000Y-40636314D01*
X109055577Y-40640000D01*
X85659631Y-40640000D01*
X84074011Y-39054381D01*
X84074011Y-38430806D01*
X84183389Y-38503890D01*
X84453642Y-38615832D01*
X84740540Y-38672900D01*
X85033060Y-38672900D01*
X85319958Y-38615832D01*
X85590211Y-38503890D01*
X85833432Y-38341375D01*
X85965287Y-38209520D01*
X85987298Y-38282080D01*
X86046263Y-38392394D01*
X86125615Y-38489085D01*
X86222306Y-38568437D01*
X86332620Y-38627402D01*
X86452318Y-38663712D01*
X86576800Y-38675972D01*
X87141050Y-38672900D01*
X87299800Y-38514150D01*
X87299800Y-37314900D01*
X87279800Y-37314900D01*
X87279800Y-37060900D01*
X87299800Y-37060900D01*
X87299800Y-35861650D01*
X87141050Y-35702900D01*
X86576800Y-35699828D01*
X86452318Y-35712088D01*
X86332620Y-35748398D01*
X86222306Y-35807363D01*
X86125615Y-35886715D01*
X86046263Y-35983406D01*
X85987298Y-36093720D01*
X85965287Y-36166280D01*
X85833432Y-36034425D01*
X85590211Y-35871910D01*
X85319958Y-35759968D01*
X85033060Y-35702900D01*
X84740540Y-35702900D01*
X84453642Y-35759968D01*
X84183389Y-35871910D01*
X84074011Y-35944994D01*
X84074011Y-30541619D01*
X85233951Y-29381679D01*
X85451740Y-29425000D01*
X85744260Y-29425000D01*
X86031158Y-29367932D01*
X86301411Y-29255990D01*
X86544632Y-29093475D01*
X86751475Y-28886632D01*
X86868000Y-28712240D01*
X86984525Y-28886632D01*
X87191368Y-29093475D01*
X87434589Y-29255990D01*
X87704842Y-29367932D01*
X87991740Y-29425000D01*
X88284260Y-29425000D01*
X88571158Y-29367932D01*
X88841411Y-29255990D01*
X89084632Y-29093475D01*
X89291475Y-28886632D01*
X89414842Y-28702000D01*
X93664370Y-28702000D01*
X93761928Y-28799558D01*
X93761928Y-30060000D01*
X93774188Y-30184482D01*
X93810498Y-30304180D01*
X93869463Y-30414494D01*
X93948815Y-30511185D01*
X94045506Y-30590537D01*
X94155820Y-30649502D01*
X94275518Y-30685812D01*
X94400000Y-30698072D01*
X96100000Y-30698072D01*
X96224482Y-30685812D01*
X96344180Y-30649502D01*
X96454494Y-30590537D01*
X96551185Y-30511185D01*
X96630537Y-30414494D01*
X96689502Y-30304180D01*
X96711513Y-30231620D01*
X96843368Y-30363475D01*
X97028001Y-30486842D01*
X97028001Y-31180369D01*
X95696370Y-32512000D01*
X93918122Y-32512000D01*
X93880699Y-32508314D01*
X93843276Y-32512000D01*
X93843274Y-32512000D01*
X93731322Y-32523026D01*
X93587685Y-32566598D01*
X93455308Y-32637355D01*
X93339278Y-32732578D01*
X93315421Y-32761648D01*
X90330849Y-35746221D01*
X90113060Y-35702900D01*
X89820540Y-35702900D01*
X89533642Y-35759968D01*
X89263389Y-35871910D01*
X89020168Y-36034425D01*
X88888313Y-36166280D01*
X88866302Y-36093720D01*
X88807337Y-35983406D01*
X88727985Y-35886715D01*
X88631294Y-35807363D01*
X88520980Y-35748398D01*
X88401282Y-35712088D01*
X88276800Y-35699828D01*
X87712550Y-35702900D01*
X87553800Y-35861650D01*
X87553800Y-37060900D01*
X87573800Y-37060900D01*
X87573800Y-37314900D01*
X87553800Y-37314900D01*
X87553800Y-38514150D01*
X87712550Y-38672900D01*
X88276800Y-38675972D01*
X88401282Y-38663712D01*
X88520980Y-38627402D01*
X88631294Y-38568437D01*
X88727985Y-38489085D01*
X88807337Y-38392394D01*
X88866302Y-38282080D01*
X88888313Y-38209520D01*
X89020168Y-38341375D01*
X89263389Y-38503890D01*
X89533642Y-38615832D01*
X89820540Y-38672900D01*
X90113060Y-38672900D01*
X90399958Y-38615832D01*
X90670211Y-38503890D01*
X90913432Y-38341375D01*
X91120275Y-38134532D01*
X91236800Y-37960140D01*
X91353325Y-38134532D01*
X91560168Y-38341375D01*
X91803389Y-38503890D01*
X92073642Y-38615832D01*
X92360540Y-38672900D01*
X92653060Y-38672900D01*
X92939958Y-38615832D01*
X93210211Y-38503890D01*
X93453432Y-38341375D01*
X93660275Y-38134532D01*
X93822790Y-37891311D01*
X93932737Y-37625872D01*
X95174000Y-37625872D01*
X95174000Y-38066128D01*
X95259890Y-38497925D01*
X95428369Y-38904669D01*
X95672962Y-39270729D01*
X95984271Y-39582038D01*
X96350331Y-39826631D01*
X96757075Y-39995110D01*
X97188872Y-40081000D01*
X97629128Y-40081000D01*
X98060925Y-39995110D01*
X98467669Y-39826631D01*
X98833729Y-39582038D01*
X99145038Y-39270729D01*
X99389631Y-38904669D01*
X99558110Y-38497925D01*
X99575906Y-38408460D01*
X99636958Y-38555853D01*
X99800961Y-38801302D01*
X100009698Y-39010039D01*
X100255147Y-39174042D01*
X100527875Y-39287010D01*
X100817401Y-39344600D01*
X101112599Y-39344600D01*
X101402125Y-39287010D01*
X101674853Y-39174042D01*
X101920302Y-39010039D01*
X102129039Y-38801302D01*
X102235000Y-38642719D01*
X102340961Y-38801302D01*
X102549698Y-39010039D01*
X102795147Y-39174042D01*
X103067875Y-39287010D01*
X103357401Y-39344600D01*
X103652599Y-39344600D01*
X103942125Y-39287010D01*
X104214853Y-39174042D01*
X104460302Y-39010039D01*
X104669039Y-38801302D01*
X104775000Y-38642719D01*
X104880961Y-38801302D01*
X105089698Y-39010039D01*
X105335147Y-39174042D01*
X105607875Y-39287010D01*
X105897401Y-39344600D01*
X106192599Y-39344600D01*
X106482125Y-39287010D01*
X106754853Y-39174042D01*
X107000302Y-39010039D01*
X107209039Y-38801302D01*
X107316692Y-38640187D01*
X107478146Y-38856293D01*
X107696512Y-39052817D01*
X107949022Y-39202964D01*
X108225973Y-39300963D01*
X108458000Y-39180464D01*
X108458000Y-37973000D01*
X108438000Y-37973000D01*
X108438000Y-37719000D01*
X108458000Y-37719000D01*
X108458000Y-36511536D01*
X108712000Y-36511536D01*
X108712000Y-37719000D01*
X108732000Y-37719000D01*
X108732000Y-37973000D01*
X108712000Y-37973000D01*
X108712000Y-39180464D01*
X108944027Y-39300963D01*
X109220978Y-39202964D01*
X109473488Y-39052817D01*
X109691854Y-38856293D01*
X109853308Y-38640187D01*
X109960961Y-38801302D01*
X110169698Y-39010039D01*
X110415147Y-39174042D01*
X110687875Y-39287010D01*
X110977401Y-39344600D01*
X111272599Y-39344600D01*
X111562125Y-39287010D01*
X111834853Y-39174042D01*
X112080302Y-39010039D01*
X112289039Y-38801302D01*
X112395000Y-38642719D01*
X112500961Y-38801302D01*
X112709698Y-39010039D01*
X112955147Y-39174042D01*
X113227875Y-39287010D01*
X113517401Y-39344600D01*
X113812599Y-39344600D01*
X114102125Y-39287010D01*
X114374853Y-39174042D01*
X114620302Y-39010039D01*
X114829039Y-38801302D01*
X114935000Y-38642719D01*
X115040961Y-38801302D01*
X115249698Y-39010039D01*
X115495147Y-39174042D01*
X115767875Y-39287010D01*
X116057401Y-39344600D01*
X116352599Y-39344600D01*
X116642125Y-39287010D01*
X116914853Y-39174042D01*
X117160302Y-39010039D01*
X117369039Y-38801302D01*
X117475000Y-38642719D01*
X117580961Y-38801302D01*
X117789698Y-39010039D01*
X118035147Y-39174042D01*
X118307875Y-39287010D01*
X118597401Y-39344600D01*
X118892599Y-39344600D01*
X119182125Y-39287010D01*
X119454853Y-39174042D01*
X119700302Y-39010039D01*
X119909039Y-38801302D01*
X120015000Y-38642719D01*
X120120961Y-38801302D01*
X120329698Y-39010039D01*
X120575147Y-39174042D01*
X120847875Y-39287010D01*
X121137401Y-39344600D01*
X121432599Y-39344600D01*
X121722125Y-39287010D01*
X121994853Y-39174042D01*
X122240302Y-39010039D01*
X122449039Y-38801302D01*
X122555000Y-38642719D01*
X122660961Y-38801302D01*
X122869698Y-39010039D01*
X123115147Y-39174042D01*
X123387875Y-39287010D01*
X123677401Y-39344600D01*
X123972599Y-39344600D01*
X124262125Y-39287010D01*
X124534853Y-39174042D01*
X124780302Y-39010039D01*
X124989039Y-38801302D01*
X125153042Y-38555853D01*
X125266010Y-38283125D01*
X125323600Y-37993599D01*
X125323600Y-37698401D01*
X125266010Y-37408875D01*
X125153042Y-37136147D01*
X124989039Y-36890698D01*
X124780302Y-36681961D01*
X124534853Y-36517958D01*
X124262125Y-36404990D01*
X123972599Y-36347400D01*
X123677401Y-36347400D01*
X123387875Y-36404990D01*
X123115147Y-36517958D01*
X122869698Y-36681961D01*
X122660961Y-36890698D01*
X122555000Y-37049281D01*
X122449039Y-36890698D01*
X122240302Y-36681961D01*
X121994853Y-36517958D01*
X121722125Y-36404990D01*
X121432599Y-36347400D01*
X121137401Y-36347400D01*
X120847875Y-36404990D01*
X120575147Y-36517958D01*
X120329698Y-36681961D01*
X120120961Y-36890698D01*
X120015000Y-37049281D01*
X119909039Y-36890698D01*
X119700302Y-36681961D01*
X119454853Y-36517958D01*
X119182125Y-36404990D01*
X118892599Y-36347400D01*
X118597401Y-36347400D01*
X118307875Y-36404990D01*
X118035147Y-36517958D01*
X117789698Y-36681961D01*
X117580961Y-36890698D01*
X117475000Y-37049281D01*
X117369039Y-36890698D01*
X117160302Y-36681961D01*
X116914853Y-36517958D01*
X116642125Y-36404990D01*
X116352599Y-36347400D01*
X116057401Y-36347400D01*
X115767875Y-36404990D01*
X115495147Y-36517958D01*
X115249698Y-36681961D01*
X115040961Y-36890698D01*
X114935000Y-37049281D01*
X114829039Y-36890698D01*
X114620302Y-36681961D01*
X114374853Y-36517958D01*
X114102125Y-36404990D01*
X113812599Y-36347400D01*
X113517401Y-36347400D01*
X113227875Y-36404990D01*
X112955147Y-36517958D01*
X112709698Y-36681961D01*
X112500961Y-36890698D01*
X112395000Y-37049281D01*
X112289039Y-36890698D01*
X112080302Y-36681961D01*
X111834853Y-36517958D01*
X111562125Y-36404990D01*
X111272599Y-36347400D01*
X110977401Y-36347400D01*
X110687875Y-36404990D01*
X110415147Y-36517958D01*
X110169698Y-36681961D01*
X109960961Y-36890698D01*
X109853308Y-37051813D01*
X109691854Y-36835707D01*
X109473488Y-36639183D01*
X109220978Y-36489036D01*
X108944027Y-36391037D01*
X108712000Y-36511536D01*
X108458000Y-36511536D01*
X108225973Y-36391037D01*
X107949022Y-36489036D01*
X107696512Y-36639183D01*
X107478146Y-36835707D01*
X107316692Y-37051813D01*
X107209039Y-36890698D01*
X107000302Y-36681961D01*
X106754853Y-36517958D01*
X106482125Y-36404990D01*
X106192599Y-36347400D01*
X105897401Y-36347400D01*
X105607875Y-36404990D01*
X105335147Y-36517958D01*
X105089698Y-36681961D01*
X104880961Y-36890698D01*
X104775000Y-37049281D01*
X104669039Y-36890698D01*
X104460302Y-36681961D01*
X104214853Y-36517958D01*
X103942125Y-36404990D01*
X103652599Y-36347400D01*
X103357401Y-36347400D01*
X103067875Y-36404990D01*
X102795147Y-36517958D01*
X102549698Y-36681961D01*
X102340961Y-36890698D01*
X102235000Y-37049281D01*
X102129039Y-36890698D01*
X101920302Y-36681961D01*
X101674853Y-36517958D01*
X101402125Y-36404990D01*
X101112599Y-36347400D01*
X100817401Y-36347400D01*
X100527875Y-36404990D01*
X100255147Y-36517958D01*
X100009698Y-36681961D01*
X99800961Y-36890698D01*
X99636958Y-37136147D01*
X99575906Y-37283540D01*
X99558110Y-37194075D01*
X99389631Y-36787331D01*
X99145038Y-36421271D01*
X98833729Y-36109962D01*
X98467669Y-35865369D01*
X98060925Y-35696890D01*
X97629128Y-35611000D01*
X97188872Y-35611000D01*
X96757075Y-35696890D01*
X96350331Y-35865369D01*
X95984271Y-36109962D01*
X95672962Y-36421271D01*
X95428369Y-36787331D01*
X95259890Y-37194075D01*
X95174000Y-37625872D01*
X93932737Y-37625872D01*
X93934732Y-37621058D01*
X93991800Y-37334160D01*
X93991800Y-37041640D01*
X93934732Y-36754742D01*
X93822790Y-36484489D01*
X93660275Y-36241268D01*
X93453432Y-36034425D01*
X93210211Y-35871910D01*
X92939958Y-35759968D01*
X92653060Y-35702900D01*
X92529431Y-35702900D01*
X94196331Y-34036000D01*
X95974577Y-34036000D01*
X96012000Y-34039686D01*
X96049423Y-34036000D01*
X96049426Y-34036000D01*
X96161378Y-34024974D01*
X96305015Y-33981402D01*
X96437392Y-33910645D01*
X96553422Y-33815422D01*
X96577284Y-33786346D01*
X98302346Y-32061284D01*
X98331422Y-32037422D01*
X98404112Y-31948849D01*
X98426645Y-31921393D01*
X98497401Y-31789016D01*
X98497402Y-31789015D01*
X98540974Y-31645378D01*
X98552000Y-31533426D01*
X98552000Y-31533423D01*
X98555686Y-31496000D01*
X98552000Y-31458577D01*
X98552000Y-30486842D01*
X98736632Y-30363475D01*
X98943475Y-30156632D01*
X99065195Y-29974466D01*
X99134822Y-30091355D01*
X99329731Y-30307588D01*
X99563080Y-30481641D01*
X99825901Y-30606825D01*
X99973110Y-30651476D01*
X100203000Y-30530155D01*
X100203000Y-29337000D01*
X100457000Y-29337000D01*
X100457000Y-30530155D01*
X100686890Y-30651476D01*
X100834099Y-30606825D01*
X101096920Y-30481641D01*
X101330269Y-30307588D01*
X101525178Y-30091355D01*
X101674157Y-29841252D01*
X101771481Y-29566891D01*
X101650814Y-29337000D01*
X100457000Y-29337000D01*
X100203000Y-29337000D01*
X100183000Y-29337000D01*
X100183000Y-29083000D01*
X100203000Y-29083000D01*
X100203000Y-27889845D01*
X100457000Y-27889845D01*
X100457000Y-29083000D01*
X101650814Y-29083000D01*
X101771481Y-28853109D01*
X101674157Y-28578748D01*
X101525178Y-28328645D01*
X101330269Y-28112412D01*
X101096920Y-27938359D01*
X100834099Y-27813175D01*
X100686890Y-27768524D01*
X100457000Y-27889845D01*
X100203000Y-27889845D01*
X99973110Y-27768524D01*
X99825901Y-27813175D01*
X99563080Y-27938359D01*
X99329731Y-28112412D01*
X99134822Y-28328645D01*
X99065195Y-28445534D01*
X98943475Y-28263368D01*
X98736632Y-28056525D01*
X98493411Y-27894010D01*
X98223158Y-27782068D01*
X97936260Y-27725000D01*
X97643740Y-27725000D01*
X97356842Y-27782068D01*
X97086589Y-27894010D01*
X96843368Y-28056525D01*
X96711513Y-28188380D01*
X96689502Y-28115820D01*
X96630537Y-28005506D01*
X96551185Y-27908815D01*
X96454494Y-27829463D01*
X96344180Y-27770498D01*
X96224482Y-27734188D01*
X96100000Y-27721928D01*
X94839558Y-27721928D01*
X94545284Y-27427654D01*
X94521422Y-27398578D01*
X94405392Y-27303355D01*
X94273015Y-27232598D01*
X94129378Y-27189026D01*
X94017426Y-27178000D01*
X94017423Y-27178000D01*
X93980000Y-27174314D01*
X93942577Y-27178000D01*
X89414842Y-27178000D01*
X89291475Y-26993368D01*
X89084632Y-26786525D01*
X88908594Y-26668900D01*
X89138269Y-26497588D01*
X89333178Y-26281355D01*
X89351855Y-26250000D01*
X104175928Y-26250000D01*
X104188188Y-26374482D01*
X104224498Y-26494180D01*
X104283463Y-26604494D01*
X104362815Y-26701185D01*
X104459506Y-26780537D01*
X104569820Y-26839502D01*
X104642380Y-26861513D01*
X104510525Y-26993368D01*
X104348010Y-27236589D01*
X104236068Y-27506842D01*
X104179000Y-27793740D01*
X104179000Y-28086260D01*
X104236068Y-28373158D01*
X104348010Y-28643411D01*
X104510525Y-28886632D01*
X104717368Y-29093475D01*
X104960589Y-29255990D01*
X105230842Y-29367932D01*
X105517740Y-29425000D01*
X105810260Y-29425000D01*
X106028048Y-29381679D01*
X106329722Y-29683353D01*
X106353579Y-29712423D01*
X106469609Y-29807646D01*
X106601986Y-29878403D01*
X106745623Y-29921975D01*
X106857575Y-29933001D01*
X106857577Y-29933001D01*
X106895000Y-29936687D01*
X106932423Y-29933001D01*
X122429576Y-29933001D01*
X122466999Y-29936687D01*
X122504422Y-29933001D01*
X122504425Y-29933001D01*
X122616377Y-29921975D01*
X122760014Y-29878403D01*
X122892391Y-29807646D01*
X122936000Y-29771857D01*
X122936001Y-34252567D01*
X122932314Y-34290000D01*
X122947027Y-34439378D01*
X122990599Y-34583015D01*
X123061355Y-34715392D01*
X123132721Y-34802351D01*
X123156579Y-34831422D01*
X123185649Y-34855279D01*
X125365368Y-37034999D01*
X125365367Y-84306944D01*
X125361681Y-84344367D01*
X125365367Y-84381790D01*
X125365367Y-84381792D01*
X125376393Y-84493744D01*
X125419965Y-84637381D01*
X125443425Y-84681271D01*
X125488267Y-84765165D01*
X125476000Y-84771536D01*
X125476000Y-85979000D01*
X125496000Y-85979000D01*
X125496000Y-86233000D01*
X125476000Y-86233000D01*
X125476000Y-87440464D01*
X125708027Y-87560963D01*
X125984978Y-87462964D01*
X126237488Y-87312817D01*
X126455854Y-87116293D01*
X126617308Y-86900187D01*
X126724961Y-87061302D01*
X126933698Y-87270039D01*
X127179147Y-87434042D01*
X127451875Y-87547010D01*
X127741401Y-87604600D01*
X128036599Y-87604600D01*
X128326125Y-87547010D01*
X128598853Y-87434042D01*
X128844302Y-87270039D01*
X129053039Y-87061302D01*
X129217042Y-86815853D01*
X129330010Y-86543125D01*
X129387600Y-86253599D01*
X129387600Y-85958401D01*
X129330010Y-85668875D01*
X129217042Y-85396147D01*
X129053039Y-85150698D01*
X128844302Y-84941961D01*
X128598853Y-84777958D01*
X128326125Y-84664990D01*
X128036599Y-84607400D01*
X127741401Y-84607400D01*
X127513385Y-84652755D01*
X126889367Y-84028737D01*
X126889367Y-83146000D01*
X127797928Y-83146000D01*
X127810188Y-83270482D01*
X127846498Y-83390180D01*
X127905463Y-83500494D01*
X127984815Y-83597185D01*
X128081506Y-83676537D01*
X128191820Y-83735502D01*
X128311518Y-83771812D01*
X128436000Y-83784072D01*
X129000250Y-83781000D01*
X129159000Y-83622250D01*
X129159000Y-82423000D01*
X127959750Y-82423000D01*
X127801000Y-82581750D01*
X127797928Y-83146000D01*
X126889367Y-83146000D01*
X126889367Y-81446000D01*
X127797928Y-81446000D01*
X127801000Y-82010250D01*
X127959750Y-82169000D01*
X129159000Y-82169000D01*
X129159000Y-80969750D01*
X129000250Y-80811000D01*
X128436000Y-80807928D01*
X128311518Y-80820188D01*
X128191820Y-80856498D01*
X128081506Y-80915463D01*
X127984815Y-80994815D01*
X127905463Y-81091506D01*
X127846498Y-81201820D01*
X127810188Y-81321518D01*
X127797928Y-81446000D01*
X126889367Y-81446000D01*
X126889367Y-38965708D01*
X126933698Y-39010039D01*
X127179147Y-39174042D01*
X127451875Y-39287010D01*
X127741401Y-39344600D01*
X128036599Y-39344600D01*
X128326125Y-39287010D01*
X128598853Y-39174042D01*
X128844302Y-39010039D01*
X129053039Y-38801302D01*
X129159000Y-38642719D01*
X129264961Y-38801302D01*
X129473698Y-39010039D01*
X129719147Y-39174042D01*
X129991875Y-39287010D01*
X130281401Y-39344600D01*
X130576599Y-39344600D01*
X130866125Y-39287010D01*
X131138853Y-39174042D01*
X131384302Y-39010039D01*
X131593039Y-38801302D01*
X131699000Y-38642719D01*
X131804961Y-38801302D01*
X132013698Y-39010039D01*
X132259147Y-39174042D01*
X132531875Y-39287010D01*
X132821401Y-39344600D01*
X133116599Y-39344600D01*
X133406125Y-39287010D01*
X133678853Y-39174042D01*
X133924302Y-39010039D01*
X134133039Y-38801302D01*
X134239000Y-38642719D01*
X134344961Y-38801302D01*
X134553698Y-39010039D01*
X134799147Y-39174042D01*
X135071875Y-39287010D01*
X135361401Y-39344600D01*
X135656599Y-39344600D01*
X135946125Y-39287010D01*
X136218853Y-39174042D01*
X136464302Y-39010039D01*
X136673039Y-38801302D01*
X136779000Y-38642719D01*
X136884961Y-38801302D01*
X137093698Y-39010039D01*
X137339147Y-39174042D01*
X137611875Y-39287010D01*
X137901401Y-39344600D01*
X138196599Y-39344600D01*
X138486125Y-39287010D01*
X138758853Y-39174042D01*
X139004302Y-39010039D01*
X139213039Y-38801302D01*
X139319000Y-38642719D01*
X139424961Y-38801302D01*
X139633698Y-39010039D01*
X139827001Y-39139199D01*
X139827000Y-48275496D01*
X139823314Y-48312919D01*
X139827000Y-48350342D01*
X139827000Y-48350344D01*
X139838026Y-48462296D01*
X139881598Y-48605933D01*
X139881599Y-48605934D01*
X139952355Y-48738311D01*
X139991983Y-48786597D01*
X140047578Y-48854341D01*
X140076654Y-48878203D01*
X147919365Y-56720914D01*
X147898875Y-56724990D01*
X147626147Y-56837958D01*
X147380698Y-57001961D01*
X147171961Y-57210698D01*
X147066000Y-57369281D01*
X146960039Y-57210698D01*
X146751302Y-57001961D01*
X146505853Y-56837958D01*
X146233125Y-56724990D01*
X145943599Y-56667400D01*
X145648401Y-56667400D01*
X145358875Y-56724990D01*
X145086147Y-56837958D01*
X144840698Y-57001961D01*
X144631961Y-57210698D01*
X144467958Y-57456147D01*
X144354990Y-57728875D01*
X144297400Y-58018401D01*
X144297400Y-58313599D01*
X144354990Y-58603125D01*
X144467958Y-58875853D01*
X144631961Y-59121302D01*
X144840698Y-59330039D01*
X144999281Y-59436000D01*
X144840698Y-59541961D01*
X144631961Y-59750698D01*
X144467958Y-59996147D01*
X144354990Y-60268875D01*
X144297400Y-60558401D01*
X144297400Y-60853599D01*
X144354990Y-61143125D01*
X144467958Y-61415853D01*
X144631961Y-61661302D01*
X144840698Y-61870039D01*
X144999281Y-61976000D01*
X144840698Y-62081961D01*
X144631961Y-62290698D01*
X144467958Y-62536147D01*
X144354990Y-62808875D01*
X144297400Y-63098401D01*
X144297400Y-63393599D01*
X144354990Y-63683125D01*
X144467958Y-63955853D01*
X144631961Y-64201302D01*
X144840698Y-64410039D01*
X145086147Y-64574042D01*
X145358875Y-64687010D01*
X145648401Y-64744600D01*
X145943599Y-64744600D01*
X146233125Y-64687010D01*
X146505853Y-64574042D01*
X146751302Y-64410039D01*
X146960039Y-64201302D01*
X147066000Y-64042719D01*
X147171961Y-64201302D01*
X147380698Y-64410039D01*
X147626147Y-64574042D01*
X147898875Y-64687010D01*
X148188401Y-64744600D01*
X148483599Y-64744600D01*
X148773125Y-64687010D01*
X149045853Y-64574042D01*
X149291302Y-64410039D01*
X149500039Y-64201302D01*
X149664042Y-63955853D01*
X149777010Y-63683125D01*
X149834600Y-63393599D01*
X149834600Y-63098401D01*
X149777010Y-62808875D01*
X149664042Y-62536147D01*
X149500039Y-62290698D01*
X149291302Y-62081961D01*
X149132719Y-61976000D01*
X149291302Y-61870039D01*
X149500039Y-61661302D01*
X149664042Y-61415853D01*
X149777010Y-61143125D01*
X149834600Y-60853599D01*
X149834600Y-60558401D01*
X149777010Y-60268875D01*
X149664042Y-59996147D01*
X149500039Y-59750698D01*
X149291302Y-59541961D01*
X149132719Y-59436000D01*
X149291302Y-59330039D01*
X149500039Y-59121302D01*
X149664042Y-58875853D01*
X149777010Y-58603125D01*
X149781086Y-58582635D01*
X158143172Y-66944721D01*
X157977525Y-67110368D01*
X157861000Y-67284760D01*
X157744475Y-67110368D01*
X157537632Y-66903525D01*
X157294411Y-66741010D01*
X157024158Y-66629068D01*
X156737260Y-66572000D01*
X156444740Y-66572000D01*
X156157842Y-66629068D01*
X155887589Y-66741010D01*
X155644368Y-66903525D01*
X155437525Y-67110368D01*
X155321000Y-67284760D01*
X155204475Y-67110368D01*
X154997632Y-66903525D01*
X154754411Y-66741010D01*
X154484158Y-66629068D01*
X154197260Y-66572000D01*
X153904740Y-66572000D01*
X153617842Y-66629068D01*
X153347589Y-66741010D01*
X153104368Y-66903525D01*
X152897525Y-67110368D01*
X152735010Y-67353589D01*
X152623068Y-67623842D01*
X152566000Y-67910740D01*
X152566000Y-68203260D01*
X152623068Y-68490158D01*
X152735010Y-68760411D01*
X152897525Y-69003632D01*
X153104368Y-69210475D01*
X153347589Y-69372990D01*
X153617842Y-69484932D01*
X153904740Y-69542000D01*
X154197260Y-69542000D01*
X154484158Y-69484932D01*
X154754411Y-69372990D01*
X154997632Y-69210475D01*
X155204475Y-69003632D01*
X155321000Y-68829240D01*
X155437525Y-69003632D01*
X155644368Y-69210475D01*
X155887589Y-69372990D01*
X156157842Y-69484932D01*
X156444740Y-69542000D01*
X156737260Y-69542000D01*
X157024158Y-69484932D01*
X157294411Y-69372990D01*
X157537632Y-69210475D01*
X157744475Y-69003632D01*
X157861000Y-68829240D01*
X157977525Y-69003632D01*
X158184368Y-69210475D01*
X158427589Y-69372990D01*
X158697842Y-69484932D01*
X158984740Y-69542000D01*
X159277260Y-69542000D01*
X159564158Y-69484932D01*
X159834411Y-69372990D01*
X160077632Y-69210475D01*
X160209487Y-69078620D01*
X160231498Y-69151180D01*
X160290463Y-69261494D01*
X160369815Y-69358185D01*
X160466506Y-69437537D01*
X160576820Y-69496502D01*
X160696518Y-69532812D01*
X160821000Y-69545072D01*
X161385250Y-69542000D01*
X161544000Y-69383250D01*
X161544000Y-68184000D01*
X161524000Y-68184000D01*
X161524000Y-67930000D01*
X161544000Y-67930000D01*
X161544000Y-66730750D01*
X161798000Y-66730750D01*
X161798000Y-67930000D01*
X161818000Y-67930000D01*
X161818000Y-68184000D01*
X161798000Y-68184000D01*
X161798000Y-69383250D01*
X161956750Y-69542000D01*
X162521000Y-69545072D01*
X162645482Y-69532812D01*
X162765180Y-69496502D01*
X162875494Y-69437537D01*
X162972185Y-69358185D01*
X163051537Y-69261494D01*
X163110502Y-69151180D01*
X163132513Y-69078620D01*
X163264368Y-69210475D01*
X163507589Y-69372990D01*
X163777842Y-69484932D01*
X164064740Y-69542000D01*
X164357260Y-69542000D01*
X164644158Y-69484932D01*
X164914411Y-69372990D01*
X165157632Y-69210475D01*
X165364475Y-69003632D01*
X165481000Y-68829240D01*
X165597525Y-69003632D01*
X165804368Y-69210475D01*
X166047589Y-69372990D01*
X166317842Y-69484932D01*
X166604740Y-69542000D01*
X166897260Y-69542000D01*
X167184158Y-69484932D01*
X167454411Y-69372990D01*
X167697632Y-69210475D01*
X167829487Y-69078620D01*
X167851498Y-69151180D01*
X167910463Y-69261494D01*
X167989815Y-69358185D01*
X168086506Y-69437537D01*
X168196820Y-69496502D01*
X168316518Y-69532812D01*
X168441000Y-69545072D01*
X169005250Y-69542000D01*
X169164000Y-69383250D01*
X169164000Y-68184000D01*
X169144000Y-68184000D01*
X169144000Y-67930000D01*
X169164000Y-67930000D01*
X169164000Y-66730750D01*
X169005250Y-66572000D01*
X168441000Y-66568928D01*
X168316518Y-66581188D01*
X168196820Y-66617498D01*
X168086506Y-66676463D01*
X167989815Y-66755815D01*
X167910463Y-66852506D01*
X167851498Y-66962820D01*
X167829487Y-67035380D01*
X167697632Y-66903525D01*
X167454411Y-66741010D01*
X167184158Y-66629068D01*
X166897260Y-66572000D01*
X166604740Y-66572000D01*
X166317842Y-66629068D01*
X166047589Y-66741010D01*
X165804368Y-66903525D01*
X165597525Y-67110368D01*
X165481000Y-67284760D01*
X165364475Y-67110368D01*
X165157632Y-66903525D01*
X164914411Y-66741010D01*
X164644158Y-66629068D01*
X164357260Y-66572000D01*
X164064740Y-66572000D01*
X163777842Y-66629068D01*
X163507589Y-66741010D01*
X163264368Y-66903525D01*
X163132513Y-67035380D01*
X163110502Y-66962820D01*
X163051537Y-66852506D01*
X162972185Y-66755815D01*
X162875494Y-66676463D01*
X162765180Y-66617498D01*
X162645482Y-66581188D01*
X162521000Y-66568928D01*
X161956750Y-66572000D01*
X161798000Y-66730750D01*
X161544000Y-66730750D01*
X161385250Y-66572000D01*
X160821000Y-66568928D01*
X160696518Y-66581188D01*
X160576820Y-66617498D01*
X160466506Y-66676463D01*
X160369815Y-66755815D01*
X160290463Y-66852506D01*
X160231498Y-66962820D01*
X160209487Y-67035380D01*
X160077632Y-66903525D01*
X159889064Y-66777528D01*
X159881974Y-66705541D01*
X159838402Y-66561904D01*
X159773239Y-66439992D01*
X159767645Y-66429526D01*
X159696279Y-66342567D01*
X159672422Y-66313497D01*
X159643352Y-66289640D01*
X153338234Y-59984522D01*
X155181225Y-59984522D01*
X155245825Y-60197494D01*
X155395869Y-60502729D01*
X155602578Y-60772827D01*
X155858009Y-60997408D01*
X156152346Y-61167842D01*
X156474277Y-61277579D01*
X156743400Y-61160000D01*
X156743400Y-59715400D01*
X156997400Y-59715400D01*
X156997400Y-61160000D01*
X157266523Y-61277579D01*
X157588454Y-61167842D01*
X157882791Y-60997408D01*
X158138222Y-60772827D01*
X158344931Y-60502729D01*
X158494975Y-60197494D01*
X158559575Y-59984522D01*
X158441525Y-59715400D01*
X156997400Y-59715400D01*
X156743400Y-59715400D01*
X155299275Y-59715400D01*
X155181225Y-59984522D01*
X153338234Y-59984522D01*
X153026756Y-59673045D01*
X153162506Y-59739775D01*
X153375478Y-59804375D01*
X153644600Y-59686325D01*
X153644600Y-58242200D01*
X153898600Y-58242200D01*
X153898600Y-59686325D01*
X154167722Y-59804375D01*
X154380694Y-59739775D01*
X154685929Y-59589731D01*
X154956027Y-59383022D01*
X155180608Y-59127591D01*
X155223111Y-59054189D01*
X155181225Y-59192278D01*
X155299275Y-59461400D01*
X156743400Y-59461400D01*
X156743400Y-58016800D01*
X156997400Y-58016800D01*
X156997400Y-59461400D01*
X158441525Y-59461400D01*
X158559575Y-59192278D01*
X158494975Y-58979306D01*
X158344931Y-58674071D01*
X158138222Y-58403973D01*
X157882791Y-58179392D01*
X157588454Y-58008958D01*
X157266523Y-57899221D01*
X156997400Y-58016800D01*
X156743400Y-58016800D01*
X156474277Y-57899221D01*
X156152346Y-58008958D01*
X155858009Y-58179392D01*
X155602578Y-58403973D01*
X155412879Y-58651844D01*
X155460779Y-58511323D01*
X155343200Y-58242200D01*
X153898600Y-58242200D01*
X153644600Y-58242200D01*
X152200000Y-58242200D01*
X152082421Y-58511323D01*
X152192158Y-58833254D01*
X152199300Y-58845589D01*
X151072788Y-57719077D01*
X152082421Y-57719077D01*
X152200000Y-57988200D01*
X153644600Y-57988200D01*
X153644600Y-56544075D01*
X153898600Y-56544075D01*
X153898600Y-57988200D01*
X155343200Y-57988200D01*
X155460779Y-57719077D01*
X155351042Y-57397146D01*
X155180608Y-57102809D01*
X154956027Y-56847378D01*
X154685929Y-56640669D01*
X154380694Y-56490625D01*
X154167722Y-56426025D01*
X153898600Y-56544075D01*
X153644600Y-56544075D01*
X153375478Y-56426025D01*
X153162506Y-56490625D01*
X152857271Y-56640669D01*
X152587173Y-56847378D01*
X152362592Y-57102809D01*
X152192158Y-57397146D01*
X152082421Y-57719077D01*
X151072788Y-57719077D01*
X148633966Y-55280255D01*
X148860925Y-55235110D01*
X149267669Y-55066631D01*
X149633729Y-54822038D01*
X149945038Y-54510729D01*
X150189631Y-54144669D01*
X150358110Y-53737925D01*
X150444000Y-53306128D01*
X150444000Y-52865872D01*
X150358110Y-52434075D01*
X150189631Y-52027331D01*
X149945038Y-51661271D01*
X149633729Y-51349962D01*
X149267669Y-51105369D01*
X148860925Y-50936890D01*
X148429128Y-50851000D01*
X147988872Y-50851000D01*
X147557075Y-50936890D01*
X147150331Y-51105369D01*
X146784271Y-51349962D01*
X146472962Y-51661271D01*
X146228369Y-52027331D01*
X146059890Y-52434075D01*
X146014745Y-52661034D01*
X141351000Y-47997289D01*
X141351000Y-39139199D01*
X141544302Y-39010039D01*
X141753039Y-38801302D01*
X141859000Y-38642719D01*
X141964961Y-38801302D01*
X142173698Y-39010039D01*
X142419147Y-39174042D01*
X142691875Y-39287010D01*
X142981401Y-39344600D01*
X143276599Y-39344600D01*
X143566125Y-39287010D01*
X143838853Y-39174042D01*
X144084302Y-39010039D01*
X144293039Y-38801302D01*
X144399000Y-38642719D01*
X144504961Y-38801302D01*
X144713698Y-39010039D01*
X144959147Y-39174042D01*
X145231875Y-39287010D01*
X145521401Y-39344600D01*
X145816599Y-39344600D01*
X146106125Y-39287010D01*
X146378853Y-39174042D01*
X146624302Y-39010039D01*
X146833039Y-38801302D01*
X146997042Y-38555853D01*
X147039860Y-38452481D01*
X150868200Y-42280821D01*
X150868199Y-50246776D01*
X150864513Y-50284199D01*
X150868199Y-50321622D01*
X150868199Y-50321624D01*
X150879225Y-50433576D01*
X150922797Y-50577213D01*
X150922798Y-50577214D01*
X150993554Y-50709591D01*
X151018159Y-50739572D01*
X151088777Y-50825621D01*
X151117853Y-50849483D01*
X160369121Y-60100752D01*
X160392978Y-60129822D01*
X160509008Y-60225045D01*
X160641385Y-60295802D01*
X160785022Y-60339374D01*
X160896974Y-60350400D01*
X160896976Y-60350400D01*
X160934399Y-60354086D01*
X160971822Y-60350400D01*
X165292328Y-60350400D01*
X165292328Y-60688400D01*
X165304588Y-60812882D01*
X165340898Y-60932580D01*
X165399863Y-61042894D01*
X165479215Y-61139585D01*
X165575906Y-61218937D01*
X165686220Y-61277902D01*
X165805918Y-61314212D01*
X165930400Y-61326472D01*
X168130400Y-61326472D01*
X168240199Y-61315658D01*
X168240199Y-63148376D01*
X168236513Y-63185799D01*
X168240199Y-63223222D01*
X168240199Y-63223224D01*
X168251225Y-63335176D01*
X168294797Y-63478813D01*
X168326968Y-63539000D01*
X168365554Y-63611191D01*
X168387125Y-63637475D01*
X168460777Y-63727221D01*
X168489853Y-63751083D01*
X171069001Y-66330232D01*
X171069001Y-66780157D01*
X170884368Y-66903525D01*
X170752513Y-67035380D01*
X170730502Y-66962820D01*
X170671537Y-66852506D01*
X170592185Y-66755815D01*
X170495494Y-66676463D01*
X170385180Y-66617498D01*
X170265482Y-66581188D01*
X170141000Y-66568928D01*
X169576750Y-66572000D01*
X169418000Y-66730750D01*
X169418000Y-67930000D01*
X169438000Y-67930000D01*
X169438000Y-68184000D01*
X169418000Y-68184000D01*
X169418000Y-69383250D01*
X169576750Y-69542000D01*
X170141000Y-69545072D01*
X170172389Y-69541981D01*
X167324370Y-72390000D01*
X145802842Y-72390000D01*
X145679475Y-72205368D01*
X145472632Y-71998525D01*
X145229411Y-71836010D01*
X144959158Y-71724068D01*
X144672260Y-71667000D01*
X144379740Y-71667000D01*
X144092842Y-71724068D01*
X143822589Y-71836010D01*
X143579368Y-71998525D01*
X143372525Y-72205368D01*
X143210010Y-72448589D01*
X143098068Y-72718842D01*
X143041000Y-73005740D01*
X143041000Y-73129370D01*
X142494000Y-72582370D01*
X142494000Y-69393701D01*
X142519820Y-69407502D01*
X142639518Y-69443812D01*
X142764000Y-69456072D01*
X143478250Y-69453000D01*
X143637000Y-69294250D01*
X143637000Y-67945000D01*
X143617000Y-67945000D01*
X143617000Y-67691000D01*
X143637000Y-67691000D01*
X143637000Y-66341750D01*
X143891000Y-66341750D01*
X143891000Y-67691000D01*
X143911000Y-67691000D01*
X143911000Y-67945000D01*
X143891000Y-67945000D01*
X143891000Y-69294250D01*
X144049750Y-69453000D01*
X144764000Y-69456072D01*
X144888482Y-69443812D01*
X145008180Y-69407502D01*
X145118494Y-69348537D01*
X145215185Y-69269185D01*
X145294537Y-69172494D01*
X145319191Y-69126370D01*
X145529537Y-69266918D01*
X145827088Y-69390168D01*
X146142967Y-69453000D01*
X146465033Y-69453000D01*
X146780912Y-69390168D01*
X146793375Y-69385006D01*
X147262721Y-69854352D01*
X147286578Y-69883422D01*
X147402608Y-69978645D01*
X147534985Y-70049402D01*
X147678622Y-70092974D01*
X147790574Y-70104000D01*
X147790576Y-70104000D01*
X147827999Y-70107686D01*
X147865422Y-70104000D01*
X148763562Y-70104000D01*
X148823038Y-70193013D01*
X149008987Y-70378962D01*
X149227641Y-70525061D01*
X149470595Y-70625696D01*
X149728514Y-70677000D01*
X149991486Y-70677000D01*
X150249405Y-70625696D01*
X150492359Y-70525061D01*
X150711013Y-70378962D01*
X150896962Y-70193013D01*
X151043061Y-69974359D01*
X151143696Y-69731405D01*
X151195000Y-69473486D01*
X151195000Y-69210514D01*
X151143696Y-68952595D01*
X151043061Y-68709641D01*
X150896962Y-68490987D01*
X150711013Y-68305038D01*
X150492359Y-68158939D01*
X150249405Y-68058304D01*
X149991486Y-68007000D01*
X149728514Y-68007000D01*
X149470595Y-68058304D01*
X149227641Y-68158939D01*
X149008987Y-68305038D01*
X148823038Y-68490987D01*
X148763562Y-68580000D01*
X148143631Y-68580000D01*
X147871006Y-68307375D01*
X147876168Y-68294912D01*
X147939000Y-67979033D01*
X147939000Y-67656967D01*
X147876168Y-67341088D01*
X147752918Y-67043537D01*
X147573987Y-66775748D01*
X147346252Y-66548013D01*
X147078463Y-66369082D01*
X146780912Y-66245832D01*
X146465033Y-66183000D01*
X146142967Y-66183000D01*
X145827088Y-66245832D01*
X145529537Y-66369082D01*
X145319191Y-66509630D01*
X145294537Y-66463506D01*
X145215185Y-66366815D01*
X145118494Y-66287463D01*
X145008180Y-66228498D01*
X144888482Y-66192188D01*
X144764000Y-66179928D01*
X144049750Y-66183000D01*
X143891000Y-66341750D01*
X143637000Y-66341750D01*
X143478250Y-66183000D01*
X142764000Y-66179928D01*
X142639518Y-66192188D01*
X142519820Y-66228498D01*
X142494000Y-66242299D01*
X142494000Y-61822623D01*
X142497686Y-61785200D01*
X142493963Y-61747400D01*
X142482974Y-61635822D01*
X142439402Y-61492185D01*
X142398602Y-61415853D01*
X142368645Y-61359807D01*
X142297279Y-61272848D01*
X142273422Y-61243778D01*
X142244353Y-61219922D01*
X141412479Y-60388048D01*
X141455800Y-60170260D01*
X141455800Y-59877740D01*
X141398732Y-59590842D01*
X141286790Y-59320589D01*
X141124275Y-59077368D01*
X140917432Y-58870525D01*
X140674211Y-58708010D01*
X140403958Y-58596068D01*
X140117060Y-58539000D01*
X139824540Y-58539000D01*
X139537642Y-58596068D01*
X139267389Y-58708010D01*
X139024168Y-58870525D01*
X138817325Y-59077368D01*
X138654810Y-59320589D01*
X138542868Y-59590842D01*
X138485800Y-59877740D01*
X138485800Y-60170260D01*
X138542868Y-60457158D01*
X138654810Y-60727411D01*
X138817325Y-60970632D01*
X139024168Y-61177475D01*
X139138696Y-61254000D01*
X139024168Y-61330525D01*
X138817325Y-61537368D01*
X138654810Y-61780589D01*
X138542868Y-62050842D01*
X138485800Y-62337740D01*
X138485800Y-62630260D01*
X138529121Y-62848049D01*
X136393649Y-64983521D01*
X136364579Y-65007378D01*
X136340722Y-65036448D01*
X136340721Y-65036449D01*
X136269355Y-65123408D01*
X136198599Y-65255785D01*
X136155027Y-65399422D01*
X136140314Y-65548800D01*
X136144001Y-65586233D01*
X136144000Y-81019158D01*
X135959368Y-81142525D01*
X135752525Y-81349368D01*
X135636000Y-81523760D01*
X135519475Y-81349368D01*
X135312632Y-81142525D01*
X135069411Y-80980010D01*
X134799158Y-80868068D01*
X134512260Y-80811000D01*
X134219740Y-80811000D01*
X133932842Y-80868068D01*
X133662589Y-80980010D01*
X133419368Y-81142525D01*
X133212525Y-81349368D01*
X133096000Y-81523760D01*
X132979475Y-81349368D01*
X132772632Y-81142525D01*
X132529411Y-80980010D01*
X132259158Y-80868068D01*
X131972260Y-80811000D01*
X131679740Y-80811000D01*
X131392842Y-80868068D01*
X131122589Y-80980010D01*
X130879368Y-81142525D01*
X130747513Y-81274380D01*
X130725502Y-81201820D01*
X130666537Y-81091506D01*
X130587185Y-80994815D01*
X130490494Y-80915463D01*
X130380180Y-80856498D01*
X130260482Y-80820188D01*
X130136000Y-80807928D01*
X129571750Y-80811000D01*
X129413000Y-80969750D01*
X129413000Y-82169000D01*
X129433000Y-82169000D01*
X129433000Y-82423000D01*
X129413000Y-82423000D01*
X129413000Y-83622250D01*
X129571750Y-83781000D01*
X130136000Y-83784072D01*
X130260482Y-83771812D01*
X130380180Y-83735502D01*
X130490494Y-83676537D01*
X130587185Y-83597185D01*
X130666537Y-83500494D01*
X130725502Y-83390180D01*
X130747513Y-83317620D01*
X130879368Y-83449475D01*
X131122589Y-83611990D01*
X131392842Y-83723932D01*
X131679740Y-83781000D01*
X131972260Y-83781000D01*
X132259158Y-83723932D01*
X132529411Y-83611990D01*
X132772632Y-83449475D01*
X132979475Y-83242632D01*
X133096000Y-83068240D01*
X133212525Y-83242632D01*
X133419368Y-83449475D01*
X133662589Y-83611990D01*
X133932842Y-83723932D01*
X134219740Y-83781000D01*
X134512260Y-83781000D01*
X134730049Y-83737679D01*
X135578716Y-84586346D01*
X135595995Y-84607400D01*
X135361401Y-84607400D01*
X135071875Y-84664990D01*
X134799147Y-84777958D01*
X134553698Y-84941961D01*
X134344961Y-85150698D01*
X134239000Y-85309281D01*
X134133039Y-85150698D01*
X133924302Y-84941961D01*
X133678853Y-84777958D01*
X133406125Y-84664990D01*
X133116599Y-84607400D01*
X132821401Y-84607400D01*
X132531875Y-84664990D01*
X132259147Y-84777958D01*
X132013698Y-84941961D01*
X131804961Y-85150698D01*
X131640958Y-85396147D01*
X131527990Y-85668875D01*
X131470400Y-85958401D01*
X131470400Y-86253599D01*
X131527990Y-86543125D01*
X131640958Y-86815853D01*
X131804961Y-87061302D01*
X132013698Y-87270039D01*
X132259147Y-87434042D01*
X132531875Y-87547010D01*
X132821401Y-87604600D01*
X133116599Y-87604600D01*
X133406125Y-87547010D01*
X133678853Y-87434042D01*
X133924302Y-87270039D01*
X134133039Y-87061302D01*
X134239000Y-86902719D01*
X134344961Y-87061302D01*
X134553698Y-87270039D01*
X134799147Y-87434042D01*
X135071875Y-87547010D01*
X135361401Y-87604600D01*
X135656599Y-87604600D01*
X135946125Y-87547010D01*
X136218853Y-87434042D01*
X136464302Y-87270039D01*
X136673039Y-87061302D01*
X136779000Y-86902719D01*
X136884961Y-87061302D01*
X137093698Y-87270039D01*
X137339147Y-87434042D01*
X137611875Y-87547010D01*
X137901401Y-87604600D01*
X138196599Y-87604600D01*
X138486125Y-87547010D01*
X138758853Y-87434042D01*
X139004302Y-87270039D01*
X139213039Y-87061302D01*
X139319000Y-86902719D01*
X139424961Y-87061302D01*
X139633698Y-87270039D01*
X139879147Y-87434042D01*
X140151875Y-87547010D01*
X140441401Y-87604600D01*
X140736599Y-87604600D01*
X141026125Y-87547010D01*
X141298853Y-87434042D01*
X141544302Y-87270039D01*
X141753039Y-87061302D01*
X141859000Y-86902719D01*
X141964961Y-87061302D01*
X142173698Y-87270039D01*
X142419147Y-87434042D01*
X142691875Y-87547010D01*
X142981401Y-87604600D01*
X143276599Y-87604600D01*
X143566125Y-87547010D01*
X143838853Y-87434042D01*
X144084302Y-87270039D01*
X144293039Y-87061302D01*
X144399000Y-86902719D01*
X144504961Y-87061302D01*
X144713698Y-87270039D01*
X144959147Y-87434042D01*
X145231875Y-87547010D01*
X145521401Y-87604600D01*
X145816599Y-87604600D01*
X146106125Y-87547010D01*
X146378853Y-87434042D01*
X146624302Y-87270039D01*
X146833039Y-87061302D01*
X146939000Y-86902719D01*
X147044961Y-87061302D01*
X147253698Y-87270039D01*
X147499147Y-87434042D01*
X147771875Y-87547010D01*
X148061401Y-87604600D01*
X148356599Y-87604600D01*
X148646125Y-87547010D01*
X148918853Y-87434042D01*
X149164302Y-87270039D01*
X149373039Y-87061302D01*
X149479000Y-86902719D01*
X149584961Y-87061302D01*
X149793698Y-87270039D01*
X150039147Y-87434042D01*
X150311875Y-87547010D01*
X150601401Y-87604600D01*
X150896599Y-87604600D01*
X151186125Y-87547010D01*
X151458853Y-87434042D01*
X151704302Y-87270039D01*
X151913039Y-87061302D01*
X152077042Y-86815853D01*
X152190010Y-86543125D01*
X152247600Y-86253599D01*
X152247600Y-85958401D01*
X154330400Y-85958401D01*
X154330400Y-86253599D01*
X154387990Y-86543125D01*
X154500958Y-86815853D01*
X154664961Y-87061302D01*
X154873698Y-87270039D01*
X155119147Y-87434042D01*
X155391875Y-87547010D01*
X155681401Y-87604600D01*
X155976599Y-87604600D01*
X156266125Y-87547010D01*
X156538853Y-87434042D01*
X156784302Y-87270039D01*
X156993039Y-87061302D01*
X157099000Y-86902719D01*
X157204961Y-87061302D01*
X157413698Y-87270039D01*
X157659147Y-87434042D01*
X157931875Y-87547010D01*
X158221401Y-87604600D01*
X158516599Y-87604600D01*
X158806125Y-87547010D01*
X159078853Y-87434042D01*
X159324302Y-87270039D01*
X159533039Y-87061302D01*
X159639000Y-86902719D01*
X159744961Y-87061302D01*
X159953698Y-87270039D01*
X160199147Y-87434042D01*
X160471875Y-87547010D01*
X160761401Y-87604600D01*
X161056599Y-87604600D01*
X161346125Y-87547010D01*
X161618853Y-87434042D01*
X161864302Y-87270039D01*
X162073039Y-87061302D01*
X162179000Y-86902719D01*
X162284961Y-87061302D01*
X162493698Y-87270039D01*
X162739147Y-87434042D01*
X163011875Y-87547010D01*
X163301401Y-87604600D01*
X163596599Y-87604600D01*
X163886125Y-87547010D01*
X164158853Y-87434042D01*
X164404302Y-87270039D01*
X164613039Y-87061302D01*
X164719000Y-86902719D01*
X164824961Y-87061302D01*
X165033698Y-87270039D01*
X165279147Y-87434042D01*
X165551875Y-87547010D01*
X165841401Y-87604600D01*
X166136599Y-87604600D01*
X166426125Y-87547010D01*
X166698853Y-87434042D01*
X166944302Y-87270039D01*
X167153039Y-87061302D01*
X167259000Y-86902719D01*
X167364961Y-87061302D01*
X167573698Y-87270039D01*
X167819147Y-87434042D01*
X168091875Y-87547010D01*
X168381401Y-87604600D01*
X168676599Y-87604600D01*
X168966125Y-87547010D01*
X169238853Y-87434042D01*
X169484302Y-87270039D01*
X169693039Y-87061302D01*
X169799000Y-86902719D01*
X169904961Y-87061302D01*
X170113698Y-87270039D01*
X170359147Y-87434042D01*
X170631875Y-87547010D01*
X170921401Y-87604600D01*
X171216599Y-87604600D01*
X171506125Y-87547010D01*
X171778853Y-87434042D01*
X172024302Y-87270039D01*
X172233039Y-87061302D01*
X172339000Y-86902719D01*
X172444961Y-87061302D01*
X172653698Y-87270039D01*
X172899147Y-87434042D01*
X173171875Y-87547010D01*
X173461401Y-87604600D01*
X173756599Y-87604600D01*
X174046125Y-87547010D01*
X174318853Y-87434042D01*
X174564302Y-87270039D01*
X174773039Y-87061302D01*
X174937042Y-86815853D01*
X175050010Y-86543125D01*
X175107600Y-86253599D01*
X175107600Y-85958401D01*
X175093174Y-85885872D01*
X176454000Y-85885872D01*
X176454000Y-86326128D01*
X176539890Y-86757925D01*
X176708369Y-87164669D01*
X176952962Y-87530729D01*
X177264271Y-87842038D01*
X177630331Y-88086631D01*
X178037075Y-88255110D01*
X178468872Y-88341000D01*
X178909128Y-88341000D01*
X179340925Y-88255110D01*
X179747669Y-88086631D01*
X180113729Y-87842038D01*
X180425038Y-87530729D01*
X180669631Y-87164669D01*
X180838110Y-86757925D01*
X180924000Y-86326128D01*
X180924000Y-85885872D01*
X180838110Y-85454075D01*
X180669631Y-85047331D01*
X180425038Y-84681271D01*
X180113729Y-84369962D01*
X179747669Y-84125369D01*
X179340925Y-83956890D01*
X178909128Y-83871000D01*
X178468872Y-83871000D01*
X178037075Y-83956890D01*
X177630331Y-84125369D01*
X177264271Y-84369962D01*
X176952962Y-84681271D01*
X176708369Y-85047331D01*
X176539890Y-85454075D01*
X176454000Y-85885872D01*
X175093174Y-85885872D01*
X175050010Y-85668875D01*
X174937042Y-85396147D01*
X174773039Y-85150698D01*
X174564302Y-84941961D01*
X174318853Y-84777958D01*
X174046125Y-84664990D01*
X173756599Y-84607400D01*
X173461401Y-84607400D01*
X173171875Y-84664990D01*
X172899147Y-84777958D01*
X172653698Y-84941961D01*
X172444961Y-85150698D01*
X172339000Y-85309281D01*
X172233039Y-85150698D01*
X172024302Y-84941961D01*
X171778853Y-84777958D01*
X171506125Y-84664990D01*
X171216599Y-84607400D01*
X170921401Y-84607400D01*
X170631875Y-84664990D01*
X170359147Y-84777958D01*
X170113698Y-84941961D01*
X169904961Y-85150698D01*
X169799000Y-85309281D01*
X169693039Y-85150698D01*
X169484302Y-84941961D01*
X169238853Y-84777958D01*
X168966125Y-84664990D01*
X168676599Y-84607400D01*
X168381401Y-84607400D01*
X168091875Y-84664990D01*
X167819147Y-84777958D01*
X167573698Y-84941961D01*
X167364961Y-85150698D01*
X167259000Y-85309281D01*
X167153039Y-85150698D01*
X166944302Y-84941961D01*
X166698853Y-84777958D01*
X166426125Y-84664990D01*
X166136599Y-84607400D01*
X165841401Y-84607400D01*
X165551875Y-84664990D01*
X165279147Y-84777958D01*
X165033698Y-84941961D01*
X164824961Y-85150698D01*
X164719000Y-85309281D01*
X164613039Y-85150698D01*
X164404302Y-84941961D01*
X164158853Y-84777958D01*
X163886125Y-84664990D01*
X163596599Y-84607400D01*
X163301401Y-84607400D01*
X163011875Y-84664990D01*
X162739147Y-84777958D01*
X162493698Y-84941961D01*
X162284961Y-85150698D01*
X162179000Y-85309281D01*
X162073039Y-85150698D01*
X161864302Y-84941961D01*
X161618853Y-84777958D01*
X161346125Y-84664990D01*
X161056599Y-84607400D01*
X160761401Y-84607400D01*
X160471875Y-84664990D01*
X160199147Y-84777958D01*
X159953698Y-84941961D01*
X159744961Y-85150698D01*
X159639000Y-85309281D01*
X159533039Y-85150698D01*
X159324302Y-84941961D01*
X159078853Y-84777958D01*
X158806125Y-84664990D01*
X158516599Y-84607400D01*
X158221401Y-84607400D01*
X157931875Y-84664990D01*
X157659147Y-84777958D01*
X157413698Y-84941961D01*
X157204961Y-85150698D01*
X157099000Y-85309281D01*
X156993039Y-85150698D01*
X156784302Y-84941961D01*
X156538853Y-84777958D01*
X156266125Y-84664990D01*
X155976599Y-84607400D01*
X155681401Y-84607400D01*
X155391875Y-84664990D01*
X155119147Y-84777958D01*
X154873698Y-84941961D01*
X154664961Y-85150698D01*
X154500958Y-85396147D01*
X154387990Y-85668875D01*
X154330400Y-85958401D01*
X152247600Y-85958401D01*
X152190010Y-85668875D01*
X152077042Y-85396147D01*
X151913039Y-85150698D01*
X151704302Y-84941961D01*
X151458853Y-84777958D01*
X151186125Y-84664990D01*
X150896599Y-84607400D01*
X150601401Y-84607400D01*
X150311875Y-84664990D01*
X150039147Y-84777958D01*
X149793698Y-84941961D01*
X149584961Y-85150698D01*
X149479000Y-85309281D01*
X149373039Y-85150698D01*
X149164302Y-84941961D01*
X148918853Y-84777958D01*
X148646125Y-84664990D01*
X148356599Y-84607400D01*
X148061401Y-84607400D01*
X147771875Y-84664990D01*
X147499147Y-84777958D01*
X147253698Y-84941961D01*
X147044961Y-85150698D01*
X146939000Y-85309281D01*
X146833039Y-85150698D01*
X146624302Y-84941961D01*
X146378853Y-84777958D01*
X146106125Y-84664990D01*
X145816599Y-84607400D01*
X145521401Y-84607400D01*
X145231875Y-84664990D01*
X144959147Y-84777958D01*
X144713698Y-84941961D01*
X144504961Y-85150698D01*
X144399000Y-85309281D01*
X144293039Y-85150698D01*
X144084302Y-84941961D01*
X143838853Y-84777958D01*
X143566125Y-84664990D01*
X143499235Y-84651685D01*
X143543422Y-84615422D01*
X143567284Y-84586346D01*
X145038352Y-83115279D01*
X145067422Y-83091422D01*
X145162645Y-82975392D01*
X145233402Y-82843015D01*
X145276974Y-82699378D01*
X145288000Y-82587426D01*
X145288000Y-82587424D01*
X145291686Y-82550001D01*
X145288000Y-82512578D01*
X145288000Y-80805872D01*
X145974000Y-80805872D01*
X145974000Y-81246128D01*
X146059890Y-81677925D01*
X146228369Y-82084669D01*
X146472962Y-82450729D01*
X146784271Y-82762038D01*
X147150331Y-83006631D01*
X147557075Y-83175110D01*
X147988872Y-83261000D01*
X148429128Y-83261000D01*
X148860925Y-83175110D01*
X149267669Y-83006631D01*
X149633729Y-82762038D01*
X149945038Y-82450729D01*
X150189631Y-82084669D01*
X150358110Y-81677925D01*
X150416371Y-81385026D01*
X174694042Y-81385026D01*
X174739778Y-81535814D01*
X174866316Y-81800944D01*
X175042146Y-82036293D01*
X175260512Y-82232817D01*
X175513022Y-82382964D01*
X175789973Y-82480963D01*
X176022000Y-82360464D01*
X176022000Y-81153000D01*
X176276000Y-81153000D01*
X176276000Y-82360464D01*
X176508027Y-82480963D01*
X176784978Y-82382964D01*
X177037488Y-82232817D01*
X177255854Y-82036293D01*
X177419000Y-81817922D01*
X177582146Y-82036293D01*
X177800512Y-82232817D01*
X178053022Y-82382964D01*
X178329973Y-82480963D01*
X178562000Y-82360464D01*
X178562000Y-81153000D01*
X178816000Y-81153000D01*
X178816000Y-82360464D01*
X179048027Y-82480963D01*
X179324978Y-82382964D01*
X179577488Y-82232817D01*
X179795854Y-82036293D01*
X179971684Y-81800944D01*
X180098222Y-81535814D01*
X180143958Y-81385026D01*
X180022817Y-81153000D01*
X178816000Y-81153000D01*
X178562000Y-81153000D01*
X176276000Y-81153000D01*
X176022000Y-81153000D01*
X174815183Y-81153000D01*
X174694042Y-81385026D01*
X150416371Y-81385026D01*
X150444000Y-81246128D01*
X150444000Y-80805872D01*
X150358110Y-80374075D01*
X150189631Y-79967331D01*
X149945038Y-79601271D01*
X149633729Y-79289962D01*
X149267669Y-79045369D01*
X148860925Y-78876890D01*
X148429128Y-78791000D01*
X147988872Y-78791000D01*
X147557075Y-78876890D01*
X147150331Y-79045369D01*
X146784271Y-79289962D01*
X146472962Y-79601271D01*
X146228369Y-79967331D01*
X146059890Y-80374075D01*
X145974000Y-80805872D01*
X145288000Y-80805872D01*
X145288000Y-79720072D01*
X145376000Y-79720072D01*
X145500482Y-79707812D01*
X145620180Y-79671502D01*
X145730494Y-79612537D01*
X145827185Y-79533185D01*
X145906537Y-79436494D01*
X145965502Y-79326180D01*
X146001812Y-79206482D01*
X146014072Y-79082000D01*
X146014072Y-77382000D01*
X146001812Y-77257518D01*
X145965502Y-77137820D01*
X145906537Y-77027506D01*
X145827185Y-76930815D01*
X145730494Y-76851463D01*
X145620180Y-76792498D01*
X145547620Y-76770487D01*
X145679475Y-76638632D01*
X145841990Y-76395411D01*
X145953932Y-76125158D01*
X146011000Y-75838260D01*
X146011000Y-75545740D01*
X145953932Y-75258842D01*
X145841990Y-74988589D01*
X145679475Y-74745368D01*
X145472632Y-74538525D01*
X145298240Y-74422000D01*
X145472632Y-74305475D01*
X145679475Y-74098632D01*
X145802842Y-73914000D01*
X148625428Y-73914000D01*
X148576304Y-74032595D01*
X148525000Y-74290514D01*
X148525000Y-74553486D01*
X148576304Y-74811405D01*
X148676939Y-75054359D01*
X148823038Y-75273013D01*
X149008987Y-75458962D01*
X149227641Y-75605061D01*
X149470595Y-75705696D01*
X149728514Y-75757000D01*
X149991486Y-75757000D01*
X150249405Y-75705696D01*
X150492359Y-75605061D01*
X150711013Y-75458962D01*
X150896962Y-75273013D01*
X150956438Y-75184000D01*
X168618577Y-75184000D01*
X168656000Y-75187686D01*
X168693423Y-75184000D01*
X168693426Y-75184000D01*
X168805378Y-75172974D01*
X168949015Y-75129402D01*
X169081392Y-75058645D01*
X169197422Y-74963422D01*
X169221284Y-74934346D01*
X174756352Y-69399279D01*
X174785422Y-69375422D01*
X174880645Y-69259392D01*
X174920500Y-69184829D01*
X174984961Y-69281302D01*
X175193698Y-69490039D01*
X175352281Y-69596000D01*
X175193698Y-69701961D01*
X174984961Y-69910698D01*
X174820958Y-70156147D01*
X174707990Y-70428875D01*
X174650400Y-70718401D01*
X174650400Y-71013599D01*
X174707990Y-71303125D01*
X174820958Y-71575853D01*
X174984961Y-71821302D01*
X175193698Y-72030039D01*
X175352281Y-72136000D01*
X175193698Y-72241961D01*
X174984961Y-72450698D01*
X174820958Y-72696147D01*
X174707990Y-72968875D01*
X174650400Y-73258401D01*
X174650400Y-73553599D01*
X174707990Y-73843125D01*
X174820958Y-74115853D01*
X174984961Y-74361302D01*
X175193698Y-74570039D01*
X175352281Y-74676000D01*
X175193698Y-74781961D01*
X174984961Y-74990698D01*
X174820958Y-75236147D01*
X174707990Y-75508875D01*
X174650400Y-75798401D01*
X174650400Y-76093599D01*
X174707990Y-76383125D01*
X174820958Y-76655853D01*
X174984961Y-76901302D01*
X175193698Y-77110039D01*
X175352281Y-77216000D01*
X175193698Y-77321961D01*
X174984961Y-77530698D01*
X174820958Y-77776147D01*
X174707990Y-78048875D01*
X174650400Y-78338401D01*
X174650400Y-78633599D01*
X174707990Y-78923125D01*
X174820958Y-79195853D01*
X174984961Y-79441302D01*
X175193698Y-79650039D01*
X175359103Y-79760559D01*
X175260512Y-79819183D01*
X175042146Y-80015707D01*
X174866316Y-80251056D01*
X174739778Y-80516186D01*
X174694042Y-80666974D01*
X174815183Y-80899000D01*
X176022000Y-80899000D01*
X176022000Y-80879000D01*
X176276000Y-80879000D01*
X176276000Y-80899000D01*
X178562000Y-80899000D01*
X178562000Y-80879000D01*
X178816000Y-80879000D01*
X178816000Y-80899000D01*
X180022817Y-80899000D01*
X180143958Y-80666974D01*
X180098222Y-80516186D01*
X179971684Y-80251056D01*
X179916905Y-80177735D01*
X181665153Y-78429488D01*
X181694222Y-78405632D01*
X181789445Y-78289602D01*
X181860202Y-78157225D01*
X181903774Y-78013588D01*
X181914800Y-77901636D01*
X181914800Y-77901634D01*
X181918486Y-77864211D01*
X181914800Y-77826788D01*
X181914800Y-33463822D01*
X181918486Y-33426399D01*
X181914800Y-33388974D01*
X181903774Y-33277022D01*
X181860202Y-33133385D01*
X181789445Y-33001008D01*
X181694222Y-32884978D01*
X181665152Y-32861121D01*
X176384084Y-27580054D01*
X176360222Y-27550978D01*
X176244192Y-27455755D01*
X176111815Y-27384998D01*
X175968178Y-27341426D01*
X175856226Y-27330400D01*
X175856223Y-27330400D01*
X175818800Y-27326714D01*
X175781377Y-27330400D01*
X173896523Y-27330400D01*
X173859100Y-27326714D01*
X173821677Y-27330400D01*
X173821674Y-27330400D01*
X173709722Y-27341426D01*
X173566085Y-27384998D01*
X173540679Y-27398578D01*
X173433707Y-27455755D01*
X173371458Y-27506842D01*
X173317678Y-27550978D01*
X173293821Y-27580048D01*
X172804648Y-28069221D01*
X172586860Y-28025900D01*
X172294340Y-28025900D01*
X172007442Y-28082968D01*
X171737189Y-28194910D01*
X171493968Y-28357425D01*
X171287125Y-28564268D01*
X171170600Y-28738660D01*
X171054075Y-28564268D01*
X170847232Y-28357425D01*
X170604011Y-28194910D01*
X170333758Y-28082968D01*
X170046860Y-28025900D01*
X169754340Y-28025900D01*
X169467442Y-28082968D01*
X169197189Y-28194910D01*
X168953968Y-28357425D01*
X168747125Y-28564268D01*
X168630600Y-28738660D01*
X168514075Y-28564268D01*
X168307232Y-28357425D01*
X168064011Y-28194910D01*
X167793758Y-28082968D01*
X167506860Y-28025900D01*
X167214340Y-28025900D01*
X166927442Y-28082968D01*
X166657189Y-28194910D01*
X166413968Y-28357425D01*
X166207125Y-28564268D01*
X166090600Y-28738660D01*
X165974075Y-28564268D01*
X165767232Y-28357425D01*
X165524011Y-28194910D01*
X165253758Y-28082968D01*
X164966860Y-28025900D01*
X164674340Y-28025900D01*
X164387442Y-28082968D01*
X164117189Y-28194910D01*
X163873968Y-28357425D01*
X163742113Y-28489280D01*
X163720102Y-28416720D01*
X163661137Y-28306406D01*
X163581785Y-28209715D01*
X163485094Y-28130363D01*
X163374780Y-28071398D01*
X163255082Y-28035088D01*
X163130600Y-28022828D01*
X162566350Y-28025900D01*
X162407600Y-28184650D01*
X162407600Y-29383900D01*
X162427600Y-29383900D01*
X162427600Y-29637900D01*
X162407600Y-29637900D01*
X162407600Y-30837150D01*
X162566350Y-30995900D01*
X163130600Y-30998972D01*
X163255082Y-30986712D01*
X163374780Y-30950402D01*
X163485094Y-30891437D01*
X163581785Y-30812085D01*
X163661137Y-30715394D01*
X163720102Y-30605080D01*
X163742113Y-30532520D01*
X163873968Y-30664375D01*
X164117189Y-30826890D01*
X164387442Y-30938832D01*
X164674340Y-30995900D01*
X164966860Y-30995900D01*
X165253758Y-30938832D01*
X165524011Y-30826890D01*
X165767232Y-30664375D01*
X165974075Y-30457532D01*
X166090600Y-30283140D01*
X166207125Y-30457532D01*
X166413968Y-30664375D01*
X166657189Y-30826890D01*
X166927442Y-30938832D01*
X167214340Y-30995900D01*
X167506860Y-30995900D01*
X167793758Y-30938832D01*
X168064011Y-30826890D01*
X168307232Y-30664375D01*
X168514075Y-30457532D01*
X168630600Y-30283140D01*
X168747125Y-30457532D01*
X168953968Y-30664375D01*
X169197189Y-30826890D01*
X169467442Y-30938832D01*
X169754340Y-30995900D01*
X170046860Y-30995900D01*
X170333758Y-30938832D01*
X170604011Y-30826890D01*
X170847232Y-30664375D01*
X171054075Y-30457532D01*
X171170600Y-30283140D01*
X171287125Y-30457532D01*
X171493968Y-30664375D01*
X171737189Y-30826890D01*
X172007442Y-30938832D01*
X172294340Y-30995900D01*
X172586860Y-30995900D01*
X172873758Y-30938832D01*
X173144011Y-30826890D01*
X173387232Y-30664375D01*
X173594075Y-30457532D01*
X173710600Y-30283140D01*
X173827125Y-30457532D01*
X174033968Y-30664375D01*
X174277189Y-30826890D01*
X174547442Y-30938832D01*
X174834340Y-30995900D01*
X175126860Y-30995900D01*
X175344649Y-30952579D01*
X176396070Y-32004000D01*
X159573631Y-32004000D01*
X157930531Y-30360900D01*
X160792528Y-30360900D01*
X160804788Y-30485382D01*
X160841098Y-30605080D01*
X160900063Y-30715394D01*
X160979415Y-30812085D01*
X161076106Y-30891437D01*
X161186420Y-30950402D01*
X161306118Y-30986712D01*
X161430600Y-30998972D01*
X161994850Y-30995900D01*
X162153600Y-30837150D01*
X162153600Y-29637900D01*
X160954350Y-29637900D01*
X160795600Y-29796650D01*
X160792528Y-30360900D01*
X157930531Y-30360900D01*
X156230531Y-28660900D01*
X160792528Y-28660900D01*
X160795600Y-29225150D01*
X160954350Y-29383900D01*
X162153600Y-29383900D01*
X162153600Y-28184650D01*
X161994850Y-28025900D01*
X161430600Y-28022828D01*
X161306118Y-28035088D01*
X161186420Y-28071398D01*
X161076106Y-28130363D01*
X160979415Y-28209715D01*
X160900063Y-28306406D01*
X160841098Y-28416720D01*
X160804788Y-28536418D01*
X160792528Y-28660900D01*
X156230531Y-28660900D01*
X154489284Y-26919654D01*
X154465422Y-26890578D01*
X154349392Y-26795355D01*
X154217015Y-26724598D01*
X154073378Y-26681026D01*
X153961426Y-26670000D01*
X153961423Y-26670000D01*
X153924000Y-26666314D01*
X153886577Y-26670000D01*
X140903522Y-26670000D01*
X140866099Y-26666314D01*
X140828676Y-26670000D01*
X140828674Y-26670000D01*
X140716722Y-26681026D01*
X140573085Y-26724598D01*
X140440708Y-26795355D01*
X140324678Y-26890578D01*
X140300821Y-26919648D01*
X139124248Y-28096221D01*
X138906460Y-28052900D01*
X138613940Y-28052900D01*
X138327042Y-28109968D01*
X138056789Y-28221910D01*
X137813568Y-28384425D01*
X137606725Y-28591268D01*
X137444210Y-28834489D01*
X137332268Y-29104742D01*
X137275200Y-29391640D01*
X137275200Y-29684160D01*
X137332268Y-29971058D01*
X137444210Y-30241311D01*
X137606725Y-30484532D01*
X137813568Y-30691375D01*
X138056789Y-30853890D01*
X138327042Y-30965832D01*
X138613940Y-31022900D01*
X138906460Y-31022900D01*
X139193358Y-30965832D01*
X139463611Y-30853890D01*
X139706832Y-30691375D01*
X139913675Y-30484532D01*
X140030200Y-30310140D01*
X140146725Y-30484532D01*
X140353568Y-30691375D01*
X140596789Y-30853890D01*
X140867042Y-30965832D01*
X141153940Y-31022900D01*
X141446460Y-31022900D01*
X141664249Y-30979579D01*
X142917270Y-32232600D01*
X134148231Y-32232600D01*
X127679679Y-25764049D01*
X127723000Y-25546260D01*
X127723000Y-25253740D01*
X127665932Y-24966842D01*
X127553990Y-24696589D01*
X127391475Y-24453368D01*
X127184632Y-24246525D01*
X126941411Y-24084010D01*
X126671158Y-23972068D01*
X126384260Y-23915000D01*
X126091740Y-23915000D01*
X125873951Y-23958321D01*
X125572283Y-23656653D01*
X125548421Y-23627577D01*
X125432391Y-23532354D01*
X125300014Y-23461597D01*
X125156377Y-23418025D01*
X125044425Y-23406999D01*
X125044422Y-23406999D01*
X125006999Y-23403313D01*
X124969576Y-23406999D01*
X109472423Y-23406999D01*
X109435000Y-23403313D01*
X109397577Y-23406999D01*
X109397575Y-23406999D01*
X109285623Y-23418025D01*
X109141986Y-23461597D01*
X109009609Y-23532354D01*
X108893579Y-23627577D01*
X108869722Y-23656647D01*
X108568048Y-23958321D01*
X108350260Y-23915000D01*
X108057740Y-23915000D01*
X107770842Y-23972068D01*
X107500589Y-24084010D01*
X107257368Y-24246525D01*
X107125513Y-24378380D01*
X107103502Y-24305820D01*
X107044537Y-24195506D01*
X106965185Y-24098815D01*
X106868494Y-24019463D01*
X106758180Y-23960498D01*
X106638482Y-23924188D01*
X106514000Y-23911928D01*
X105949750Y-23915000D01*
X105791000Y-24073750D01*
X105791000Y-25273000D01*
X105811000Y-25273000D01*
X105811000Y-25527000D01*
X105791000Y-25527000D01*
X105791000Y-25547000D01*
X105537000Y-25547000D01*
X105537000Y-25527000D01*
X104337750Y-25527000D01*
X104179000Y-25685750D01*
X104175928Y-26250000D01*
X89351855Y-26250000D01*
X89482157Y-26031252D01*
X89579481Y-25756891D01*
X89458814Y-25527000D01*
X88265000Y-25527000D01*
X88265000Y-25547000D01*
X88011000Y-25547000D01*
X88011000Y-25527000D01*
X87991000Y-25527000D01*
X87991000Y-25273000D01*
X88011000Y-25273000D01*
X88011000Y-24079845D01*
X88265000Y-24079845D01*
X88265000Y-25273000D01*
X89458814Y-25273000D01*
X89579481Y-25043109D01*
X89482157Y-24768748D01*
X89351856Y-24550000D01*
X104175928Y-24550000D01*
X104179000Y-25114250D01*
X104337750Y-25273000D01*
X105537000Y-25273000D01*
X105537000Y-24073750D01*
X105378250Y-23915000D01*
X104814000Y-23911928D01*
X104689518Y-23924188D01*
X104569820Y-23960498D01*
X104459506Y-24019463D01*
X104362815Y-24098815D01*
X104283463Y-24195506D01*
X104224498Y-24305820D01*
X104188188Y-24425518D01*
X104175928Y-24550000D01*
X89351856Y-24550000D01*
X89333178Y-24518645D01*
X89138269Y-24302412D01*
X88904920Y-24128359D01*
X88642099Y-24003175D01*
X88494890Y-23958524D01*
X88265000Y-24079845D01*
X88011000Y-24079845D01*
X87781110Y-23958524D01*
X87633901Y-24003175D01*
X87371080Y-24128359D01*
X87137731Y-24302412D01*
X87061966Y-24386466D01*
X87037502Y-24305820D01*
X86978537Y-24195506D01*
X86899185Y-24098815D01*
X86802494Y-24019463D01*
X86692180Y-23960498D01*
X86572482Y-23924188D01*
X86448000Y-23911928D01*
X84748000Y-23911928D01*
X84623518Y-23924188D01*
X84503820Y-23960498D01*
X84393506Y-24019463D01*
X84296815Y-24098815D01*
X84217463Y-24195506D01*
X84158498Y-24305820D01*
X84122188Y-24425518D01*
X84109928Y-24550000D01*
X84109928Y-25810442D01*
X82291654Y-27628716D01*
X82262578Y-27652578D01*
X82206983Y-27720322D01*
X82167355Y-27768608D01*
X82155588Y-27790623D01*
X82096598Y-27900986D01*
X82053026Y-28044623D01*
X82042000Y-28156574D01*
X82038314Y-28194000D01*
X81559000Y-28194000D01*
X81559000Y-18440000D01*
X182220001Y-18440000D01*
X182220000Y-88875000D01*
G37*
%TD.AperFunction*%
D24*
X140097800Y-67357000D02*
X140117800Y-67357000D01*
X140117800Y-67611000D01*
X140097800Y-67611000D01*
X140097800Y-68810250D01*
X140256550Y-68969000D01*
X140820800Y-68972072D01*
X140945282Y-68959812D01*
X140970001Y-68952314D01*
X140970001Y-72860567D01*
X140966314Y-72898000D01*
X140981027Y-73047378D01*
X141024599Y-73191015D01*
X141095355Y-73323392D01*
X141145947Y-73385038D01*
X141190579Y-73439422D01*
X141219649Y-73463279D01*
X143084321Y-75327951D01*
X143041000Y-75545740D01*
X143041000Y-75838260D01*
X143098068Y-76125158D01*
X143210010Y-76395411D01*
X143372525Y-76638632D01*
X143504380Y-76770487D01*
X143431820Y-76792498D01*
X143321506Y-76851463D01*
X143224815Y-76930815D01*
X143145463Y-77027506D01*
X143086498Y-77137820D01*
X143050188Y-77257518D01*
X143037928Y-77382000D01*
X143037928Y-79082000D01*
X143050188Y-79206482D01*
X143086498Y-79326180D01*
X143145463Y-79436494D01*
X143224815Y-79533185D01*
X143321506Y-79612537D01*
X143431820Y-79671502D01*
X143551518Y-79707812D01*
X143676000Y-79720072D01*
X143764000Y-79720072D01*
X143764001Y-82234368D01*
X143474072Y-82524297D01*
X143474072Y-81446000D01*
X143461812Y-81321518D01*
X143425502Y-81201820D01*
X143366537Y-81091506D01*
X143287185Y-80994815D01*
X143190494Y-80915463D01*
X143080180Y-80856498D01*
X142960482Y-80820188D01*
X142836000Y-80807928D01*
X141136000Y-80807928D01*
X141011518Y-80820188D01*
X140891820Y-80856498D01*
X140781506Y-80915463D01*
X140684815Y-80994815D01*
X140605463Y-81091506D01*
X140546498Y-81201820D01*
X140524487Y-81274380D01*
X140392632Y-81142525D01*
X140149411Y-80980010D01*
X139879158Y-80868068D01*
X139592260Y-80811000D01*
X139358001Y-80811000D01*
X139358001Y-68970781D01*
X139685050Y-68969000D01*
X139843800Y-68810250D01*
X139843800Y-67611000D01*
X139823800Y-67611000D01*
X139823800Y-67357000D01*
X139843800Y-67357000D01*
X139843800Y-67337000D01*
X140097800Y-67337000D01*
X140097800Y-67357000D01*
%TA.AperFunction,Conductor*%
D25*
G36*
X140097800Y-67357000D02*
G01*
X140117800Y-67357000D01*
X140117800Y-67611000D01*
X140097800Y-67611000D01*
X140097800Y-68810250D01*
X140256550Y-68969000D01*
X140820800Y-68972072D01*
X140945282Y-68959812D01*
X140970001Y-68952314D01*
X140970001Y-72860567D01*
X140966314Y-72898000D01*
X140981027Y-73047378D01*
X141024599Y-73191015D01*
X141095355Y-73323392D01*
X141145947Y-73385038D01*
X141190579Y-73439422D01*
X141219649Y-73463279D01*
X143084321Y-75327951D01*
X143041000Y-75545740D01*
X143041000Y-75838260D01*
X143098068Y-76125158D01*
X143210010Y-76395411D01*
X143372525Y-76638632D01*
X143504380Y-76770487D01*
X143431820Y-76792498D01*
X143321506Y-76851463D01*
X143224815Y-76930815D01*
X143145463Y-77027506D01*
X143086498Y-77137820D01*
X143050188Y-77257518D01*
X143037928Y-77382000D01*
X143037928Y-79082000D01*
X143050188Y-79206482D01*
X143086498Y-79326180D01*
X143145463Y-79436494D01*
X143224815Y-79533185D01*
X143321506Y-79612537D01*
X143431820Y-79671502D01*
X143551518Y-79707812D01*
X143676000Y-79720072D01*
X143764000Y-79720072D01*
X143764001Y-82234368D01*
X143474072Y-82524297D01*
X143474072Y-81446000D01*
X143461812Y-81321518D01*
X143425502Y-81201820D01*
X143366537Y-81091506D01*
X143287185Y-80994815D01*
X143190494Y-80915463D01*
X143080180Y-80856498D01*
X142960482Y-80820188D01*
X142836000Y-80807928D01*
X141136000Y-80807928D01*
X141011518Y-80820188D01*
X140891820Y-80856498D01*
X140781506Y-80915463D01*
X140684815Y-80994815D01*
X140605463Y-81091506D01*
X140546498Y-81201820D01*
X140524487Y-81274380D01*
X140392632Y-81142525D01*
X140149411Y-80980010D01*
X139879158Y-80868068D01*
X139592260Y-80811000D01*
X139358001Y-80811000D01*
X139358001Y-68970781D01*
X139685050Y-68969000D01*
X139843800Y-68810250D01*
X139843800Y-67611000D01*
X139823800Y-67611000D01*
X139823800Y-67357000D01*
X139843800Y-67357000D01*
X139843800Y-67337000D01*
X140097800Y-67337000D01*
X140097800Y-67357000D01*
G37*
%TD.AperFunction*%
D24*
X159744961Y-38801302D02*
X159932814Y-38989155D01*
X158157127Y-40764843D01*
X157976935Y-40729000D01*
X157694265Y-40729000D01*
X157417026Y-40784147D01*
X157155873Y-40892320D01*
X156920841Y-41049363D01*
X156720963Y-41249241D01*
X156563920Y-41484273D01*
X156455747Y-41745426D01*
X156400600Y-42022665D01*
X156400600Y-42305335D01*
X156455747Y-42582574D01*
X156563920Y-42843727D01*
X156720963Y-43078759D01*
X156920841Y-43278637D01*
X157155873Y-43435680D01*
X157417026Y-43543853D01*
X157694265Y-43599000D01*
X157976935Y-43599000D01*
X158254174Y-43543853D01*
X158515327Y-43435680D01*
X158750359Y-43278637D01*
X158950237Y-43078759D01*
X159105600Y-42846241D01*
X159260963Y-43078759D01*
X159460841Y-43278637D01*
X159695873Y-43435680D01*
X159957026Y-43543853D01*
X160234265Y-43599000D01*
X160516935Y-43599000D01*
X160794174Y-43543853D01*
X161055327Y-43435680D01*
X161290359Y-43278637D01*
X161490237Y-43078759D01*
X161592307Y-42926000D01*
X161698893Y-42926000D01*
X161800963Y-43078759D01*
X162000841Y-43278637D01*
X162235873Y-43435680D01*
X162497026Y-43543853D01*
X162774265Y-43599000D01*
X163056935Y-43599000D01*
X163237127Y-43563157D01*
X163874321Y-44200352D01*
X163898178Y-44229422D01*
X164014208Y-44324645D01*
X164146585Y-44395402D01*
X164290222Y-44438974D01*
X164402174Y-44450000D01*
X164402176Y-44450000D01*
X164439599Y-44453686D01*
X164477022Y-44450000D01*
X172809577Y-44450000D01*
X172847000Y-44453686D01*
X172884423Y-44450000D01*
X172884426Y-44450000D01*
X172996378Y-44438974D01*
X173140015Y-44395402D01*
X173272392Y-44324645D01*
X173388422Y-44229422D01*
X173412284Y-44200346D01*
X174650400Y-42962230D01*
X174650400Y-43073599D01*
X174707990Y-43363125D01*
X174820958Y-43635853D01*
X174984961Y-43881302D01*
X175193698Y-44090039D01*
X175352281Y-44196000D01*
X175193698Y-44301961D01*
X174984961Y-44510698D01*
X174820958Y-44756147D01*
X174707990Y-45028875D01*
X174650400Y-45318401D01*
X174650400Y-45613599D01*
X174707990Y-45903125D01*
X174820958Y-46175853D01*
X174984961Y-46421302D01*
X175193698Y-46630039D01*
X175352281Y-46736000D01*
X175193698Y-46841961D01*
X174984961Y-47050698D01*
X174820958Y-47296147D01*
X174707990Y-47568875D01*
X174650400Y-47858401D01*
X174650400Y-48153599D01*
X174707990Y-48443125D01*
X174820958Y-48715853D01*
X174984961Y-48961302D01*
X175193698Y-49170039D01*
X175352281Y-49276000D01*
X175193698Y-49381961D01*
X174984961Y-49590698D01*
X174820958Y-49836147D01*
X174707990Y-50108875D01*
X174650400Y-50398401D01*
X174650400Y-50693599D01*
X174707990Y-50983125D01*
X174820958Y-51255853D01*
X174984961Y-51501302D01*
X175193698Y-51710039D01*
X175352281Y-51816000D01*
X175193698Y-51921961D01*
X174984961Y-52130698D01*
X174820958Y-52376147D01*
X174707990Y-52648875D01*
X174650400Y-52938401D01*
X174650400Y-53233599D01*
X174707990Y-53523125D01*
X174820958Y-53795853D01*
X174984961Y-54041302D01*
X175193698Y-54250039D01*
X175352281Y-54356000D01*
X175193698Y-54461961D01*
X174984961Y-54670698D01*
X174820958Y-54916147D01*
X174707990Y-55188875D01*
X174650400Y-55478401D01*
X174650400Y-55773599D01*
X174707990Y-56063125D01*
X174820958Y-56335853D01*
X174984961Y-56581302D01*
X175193698Y-56790039D01*
X175352281Y-56896000D01*
X175193698Y-57001961D01*
X174984961Y-57210698D01*
X174820958Y-57456147D01*
X174707990Y-57728875D01*
X174650400Y-58018401D01*
X174650400Y-58313599D01*
X174707990Y-58603125D01*
X174820958Y-58875853D01*
X174984961Y-59121302D01*
X175193698Y-59330039D01*
X175352281Y-59436000D01*
X175193698Y-59541961D01*
X174984961Y-59750698D01*
X174820958Y-59996147D01*
X174707990Y-60268875D01*
X174650400Y-60558401D01*
X174650400Y-60853599D01*
X174707990Y-61143125D01*
X174820958Y-61415853D01*
X174850581Y-61460188D01*
X172956484Y-63354286D01*
X172851486Y-63333400D01*
X172588514Y-63333400D01*
X172330595Y-63384704D01*
X172087641Y-63485339D01*
X171868987Y-63631438D01*
X171683038Y-63817387D01*
X171536939Y-64036041D01*
X171436304Y-64278995D01*
X171392623Y-64498592D01*
X169764199Y-62870169D01*
X169764199Y-57313233D01*
X170097450Y-57311800D01*
X170256200Y-57153050D01*
X170256200Y-55803800D01*
X170236200Y-55803800D01*
X170236200Y-55549800D01*
X170256200Y-55549800D01*
X170256200Y-54200550D01*
X170510200Y-54200550D01*
X170510200Y-55549800D01*
X170530200Y-55549800D01*
X170530200Y-55803800D01*
X170510200Y-55803800D01*
X170510200Y-57153050D01*
X170668950Y-57311800D01*
X171383200Y-57314872D01*
X171507682Y-57302612D01*
X171627380Y-57266302D01*
X171737694Y-57207337D01*
X171834385Y-57127985D01*
X171913737Y-57031294D01*
X171938391Y-56985170D01*
X172148737Y-57125718D01*
X172161200Y-57130881D01*
X172161201Y-58374870D01*
X172087641Y-58405339D01*
X171868987Y-58551438D01*
X171683038Y-58737387D01*
X171536939Y-58956041D01*
X171436304Y-59198995D01*
X171385000Y-59456914D01*
X171385000Y-59719886D01*
X171436304Y-59977805D01*
X171536939Y-60220759D01*
X171683038Y-60439413D01*
X171868987Y-60625362D01*
X172087641Y-60771461D01*
X172330595Y-60872096D01*
X172588514Y-60923400D01*
X172851486Y-60923400D01*
X173109405Y-60872096D01*
X173352359Y-60771461D01*
X173571013Y-60625362D01*
X173756962Y-60439413D01*
X173903061Y-60220759D01*
X174003696Y-59977805D01*
X174055000Y-59719886D01*
X174055000Y-59456914D01*
X174003696Y-59198995D01*
X173903061Y-58956041D01*
X173756962Y-58737387D01*
X173685200Y-58665625D01*
X173685200Y-57130880D01*
X173697663Y-57125718D01*
X173965452Y-56946787D01*
X174193187Y-56719052D01*
X174372118Y-56451263D01*
X174495368Y-56153712D01*
X174558200Y-55837833D01*
X174558200Y-55515767D01*
X174495368Y-55199888D01*
X174372118Y-54902337D01*
X174193187Y-54634548D01*
X173965452Y-54406813D01*
X173697663Y-54227882D01*
X173400112Y-54104632D01*
X173084233Y-54041800D01*
X172762167Y-54041800D01*
X172446288Y-54104632D01*
X172148737Y-54227882D01*
X171938391Y-54368430D01*
X171913737Y-54322306D01*
X171834385Y-54225615D01*
X171737694Y-54146263D01*
X171627380Y-54087298D01*
X171507682Y-54050988D01*
X171383200Y-54038728D01*
X170668950Y-54041800D01*
X170510200Y-54200550D01*
X170256200Y-54200550D01*
X170097450Y-54041800D01*
X169764199Y-54040367D01*
X169764199Y-50624302D01*
X170332103Y-50624302D01*
X170403686Y-50868271D01*
X170659196Y-50989171D01*
X170933384Y-51057900D01*
X171215712Y-51071817D01*
X171495330Y-51030387D01*
X171761492Y-50935203D01*
X171886714Y-50868271D01*
X171958297Y-50624302D01*
X171145200Y-49811205D01*
X170332103Y-50624302D01*
X169764199Y-50624302D01*
X169764199Y-50539831D01*
X169893892Y-50345731D01*
X169908529Y-50373114D01*
X170152498Y-50444697D01*
X170965595Y-49631600D01*
X171324805Y-49631600D01*
X172137902Y-50444697D01*
X172381871Y-50373114D01*
X172502771Y-50117604D01*
X172571500Y-49843416D01*
X172585417Y-49561088D01*
X172543987Y-49281470D01*
X172448803Y-49015308D01*
X172381871Y-48890086D01*
X172137902Y-48818503D01*
X171324805Y-49631600D01*
X170965595Y-49631600D01*
X170152498Y-48818503D01*
X169908529Y-48890086D01*
X169894876Y-48918941D01*
X169759837Y-48716841D01*
X169681894Y-48638898D01*
X170332103Y-48638898D01*
X171145200Y-49451995D01*
X171958297Y-48638898D01*
X171886714Y-48394929D01*
X171631204Y-48274029D01*
X171357016Y-48205300D01*
X171074688Y-48191383D01*
X170795070Y-48232813D01*
X170528908Y-48327997D01*
X170403686Y-48394929D01*
X170332103Y-48638898D01*
X169681894Y-48638898D01*
X169559959Y-48516963D01*
X169324927Y-48359920D01*
X169063774Y-48251747D01*
X168786535Y-48196600D01*
X168503865Y-48196600D01*
X168226626Y-48251747D01*
X168219046Y-48254887D01*
X168146977Y-48233025D01*
X168035025Y-48221999D01*
X168035022Y-48221999D01*
X167997599Y-48218313D01*
X167960176Y-48221999D01*
X166293023Y-48221999D01*
X166255600Y-48218313D01*
X166218177Y-48221999D01*
X166218175Y-48221999D01*
X166106223Y-48233025D01*
X165962586Y-48276597D01*
X165830209Y-48347354D01*
X165783085Y-48386028D01*
X165596935Y-48349000D01*
X165314265Y-48349000D01*
X165037026Y-48404147D01*
X164775873Y-48512320D01*
X164540841Y-48669363D01*
X164340963Y-48869241D01*
X164185600Y-49101759D01*
X164030237Y-48869241D01*
X163830359Y-48669363D01*
X163595327Y-48512320D01*
X163334174Y-48404147D01*
X163056935Y-48349000D01*
X162774265Y-48349000D01*
X162497026Y-48404147D01*
X162235873Y-48512320D01*
X162000841Y-48669363D01*
X161800963Y-48869241D01*
X161645600Y-49101759D01*
X161490237Y-48869241D01*
X161290359Y-48669363D01*
X161055327Y-48512320D01*
X160794174Y-48404147D01*
X160516935Y-48349000D01*
X160234265Y-48349000D01*
X159957026Y-48404147D01*
X159695873Y-48512320D01*
X159460841Y-48669363D01*
X159262243Y-48867961D01*
X159261412Y-48859518D01*
X159225102Y-48739820D01*
X159166137Y-48629506D01*
X159086785Y-48532815D01*
X158990094Y-48453463D01*
X158879780Y-48394498D01*
X158760082Y-48358188D01*
X158635600Y-48345928D01*
X158121350Y-48349000D01*
X157962600Y-48507750D01*
X157962600Y-49657000D01*
X157982600Y-49657000D01*
X157982600Y-49911000D01*
X157962600Y-49911000D01*
X157962600Y-51060250D01*
X158121350Y-51219000D01*
X158635600Y-51222072D01*
X158760082Y-51209812D01*
X158879780Y-51173502D01*
X158990094Y-51114537D01*
X159086785Y-51035185D01*
X159166137Y-50938494D01*
X159225102Y-50828180D01*
X159261412Y-50708482D01*
X159262243Y-50700039D01*
X159460841Y-50898637D01*
X159695873Y-51055680D01*
X159766001Y-51084728D01*
X159766000Y-52262369D01*
X158690527Y-53337843D01*
X158510335Y-53302000D01*
X158227665Y-53302000D01*
X158047474Y-53337843D01*
X155293631Y-50584000D01*
X156397528Y-50584000D01*
X156409788Y-50708482D01*
X156446098Y-50828180D01*
X156505063Y-50938494D01*
X156584415Y-51035185D01*
X156681106Y-51114537D01*
X156791420Y-51173502D01*
X156911118Y-51209812D01*
X157035600Y-51222072D01*
X157549850Y-51219000D01*
X157708600Y-51060250D01*
X157708600Y-49911000D01*
X156559350Y-49911000D01*
X156400600Y-50069750D01*
X156397528Y-50584000D01*
X155293631Y-50584000D01*
X154533600Y-49823970D01*
X154533600Y-49693272D01*
X154871600Y-49693272D01*
X154996082Y-49681012D01*
X155115780Y-49644702D01*
X155226094Y-49585737D01*
X155322785Y-49506385D01*
X155402137Y-49409694D01*
X155461102Y-49299380D01*
X155497412Y-49179682D01*
X155509672Y-49055200D01*
X155509672Y-48984000D01*
X156397528Y-48984000D01*
X156400600Y-49498250D01*
X156559350Y-49657000D01*
X157708600Y-49657000D01*
X157708600Y-48507750D01*
X157549850Y-48349000D01*
X157035600Y-48345928D01*
X156911118Y-48358188D01*
X156791420Y-48394498D01*
X156681106Y-48453463D01*
X156584415Y-48532815D01*
X156505063Y-48629506D01*
X156446098Y-48739820D01*
X156409788Y-48859518D01*
X156397528Y-48984000D01*
X155509672Y-48984000D01*
X155509672Y-46855200D01*
X155497412Y-46730718D01*
X155461102Y-46611020D01*
X155402137Y-46500706D01*
X155322785Y-46404015D01*
X155226094Y-46324663D01*
X155115780Y-46265698D01*
X154996082Y-46229388D01*
X154871600Y-46217128D01*
X154533600Y-46217128D01*
X154533600Y-43268223D01*
X154537286Y-43230800D01*
X154533600Y-43193374D01*
X154522574Y-43081422D01*
X154479002Y-42937785D01*
X154428727Y-42843727D01*
X154408245Y-42805407D01*
X154336879Y-42718448D01*
X154313022Y-42689378D01*
X154283952Y-42665521D01*
X150952009Y-39333578D01*
X151186125Y-39287010D01*
X151458853Y-39174042D01*
X151704302Y-39010039D01*
X151913039Y-38801302D01*
X152019000Y-38642719D01*
X152124961Y-38801302D01*
X152333698Y-39010039D01*
X152579147Y-39174042D01*
X152851875Y-39287010D01*
X153141401Y-39344600D01*
X153436599Y-39344600D01*
X153726125Y-39287010D01*
X153998853Y-39174042D01*
X154244302Y-39010039D01*
X154453039Y-38801302D01*
X154559000Y-38642719D01*
X154664961Y-38801302D01*
X154873698Y-39010039D01*
X155119147Y-39174042D01*
X155391875Y-39287010D01*
X155681401Y-39344600D01*
X155976599Y-39344600D01*
X156266125Y-39287010D01*
X156538853Y-39174042D01*
X156784302Y-39010039D01*
X156993039Y-38801302D01*
X157099000Y-38642719D01*
X157204961Y-38801302D01*
X157413698Y-39010039D01*
X157659147Y-39174042D01*
X157931875Y-39287010D01*
X158221401Y-39344600D01*
X158516599Y-39344600D01*
X158806125Y-39287010D01*
X159078853Y-39174042D01*
X159324302Y-39010039D01*
X159533039Y-38801302D01*
X159639000Y-38642719D01*
X159744961Y-38801302D01*
%TA.AperFunction,Conductor*%
D25*
G36*
X159744961Y-38801302D02*
G01*
X159932814Y-38989155D01*
X158157127Y-40764843D01*
X157976935Y-40729000D01*
X157694265Y-40729000D01*
X157417026Y-40784147D01*
X157155873Y-40892320D01*
X156920841Y-41049363D01*
X156720963Y-41249241D01*
X156563920Y-41484273D01*
X156455747Y-41745426D01*
X156400600Y-42022665D01*
X156400600Y-42305335D01*
X156455747Y-42582574D01*
X156563920Y-42843727D01*
X156720963Y-43078759D01*
X156920841Y-43278637D01*
X157155873Y-43435680D01*
X157417026Y-43543853D01*
X157694265Y-43599000D01*
X157976935Y-43599000D01*
X158254174Y-43543853D01*
X158515327Y-43435680D01*
X158750359Y-43278637D01*
X158950237Y-43078759D01*
X159105600Y-42846241D01*
X159260963Y-43078759D01*
X159460841Y-43278637D01*
X159695873Y-43435680D01*
X159957026Y-43543853D01*
X160234265Y-43599000D01*
X160516935Y-43599000D01*
X160794174Y-43543853D01*
X161055327Y-43435680D01*
X161290359Y-43278637D01*
X161490237Y-43078759D01*
X161592307Y-42926000D01*
X161698893Y-42926000D01*
X161800963Y-43078759D01*
X162000841Y-43278637D01*
X162235873Y-43435680D01*
X162497026Y-43543853D01*
X162774265Y-43599000D01*
X163056935Y-43599000D01*
X163237127Y-43563157D01*
X163874321Y-44200352D01*
X163898178Y-44229422D01*
X164014208Y-44324645D01*
X164146585Y-44395402D01*
X164290222Y-44438974D01*
X164402174Y-44450000D01*
X164402176Y-44450000D01*
X164439599Y-44453686D01*
X164477022Y-44450000D01*
X172809577Y-44450000D01*
X172847000Y-44453686D01*
X172884423Y-44450000D01*
X172884426Y-44450000D01*
X172996378Y-44438974D01*
X173140015Y-44395402D01*
X173272392Y-44324645D01*
X173388422Y-44229422D01*
X173412284Y-44200346D01*
X174650400Y-42962230D01*
X174650400Y-43073599D01*
X174707990Y-43363125D01*
X174820958Y-43635853D01*
X174984961Y-43881302D01*
X175193698Y-44090039D01*
X175352281Y-44196000D01*
X175193698Y-44301961D01*
X174984961Y-44510698D01*
X174820958Y-44756147D01*
X174707990Y-45028875D01*
X174650400Y-45318401D01*
X174650400Y-45613599D01*
X174707990Y-45903125D01*
X174820958Y-46175853D01*
X174984961Y-46421302D01*
X175193698Y-46630039D01*
X175352281Y-46736000D01*
X175193698Y-46841961D01*
X174984961Y-47050698D01*
X174820958Y-47296147D01*
X174707990Y-47568875D01*
X174650400Y-47858401D01*
X174650400Y-48153599D01*
X174707990Y-48443125D01*
X174820958Y-48715853D01*
X174984961Y-48961302D01*
X175193698Y-49170039D01*
X175352281Y-49276000D01*
X175193698Y-49381961D01*
X174984961Y-49590698D01*
X174820958Y-49836147D01*
X174707990Y-50108875D01*
X174650400Y-50398401D01*
X174650400Y-50693599D01*
X174707990Y-50983125D01*
X174820958Y-51255853D01*
X174984961Y-51501302D01*
X175193698Y-51710039D01*
X175352281Y-51816000D01*
X175193698Y-51921961D01*
X174984961Y-52130698D01*
X174820958Y-52376147D01*
X174707990Y-52648875D01*
X174650400Y-52938401D01*
X174650400Y-53233599D01*
X174707990Y-53523125D01*
X174820958Y-53795853D01*
X174984961Y-54041302D01*
X175193698Y-54250039D01*
X175352281Y-54356000D01*
X175193698Y-54461961D01*
X174984961Y-54670698D01*
X174820958Y-54916147D01*
X174707990Y-55188875D01*
X174650400Y-55478401D01*
X174650400Y-55773599D01*
X174707990Y-56063125D01*
X174820958Y-56335853D01*
X174984961Y-56581302D01*
X175193698Y-56790039D01*
X175352281Y-56896000D01*
X175193698Y-57001961D01*
X174984961Y-57210698D01*
X174820958Y-57456147D01*
X174707990Y-57728875D01*
X174650400Y-58018401D01*
X174650400Y-58313599D01*
X174707990Y-58603125D01*
X174820958Y-58875853D01*
X174984961Y-59121302D01*
X175193698Y-59330039D01*
X175352281Y-59436000D01*
X175193698Y-59541961D01*
X174984961Y-59750698D01*
X174820958Y-59996147D01*
X174707990Y-60268875D01*
X174650400Y-60558401D01*
X174650400Y-60853599D01*
X174707990Y-61143125D01*
X174820958Y-61415853D01*
X174850581Y-61460188D01*
X172956484Y-63354286D01*
X172851486Y-63333400D01*
X172588514Y-63333400D01*
X172330595Y-63384704D01*
X172087641Y-63485339D01*
X171868987Y-63631438D01*
X171683038Y-63817387D01*
X171536939Y-64036041D01*
X171436304Y-64278995D01*
X171392623Y-64498592D01*
X169764199Y-62870169D01*
X169764199Y-57313233D01*
X170097450Y-57311800D01*
X170256200Y-57153050D01*
X170256200Y-55803800D01*
X170236200Y-55803800D01*
X170236200Y-55549800D01*
X170256200Y-55549800D01*
X170256200Y-54200550D01*
X170510200Y-54200550D01*
X170510200Y-55549800D01*
X170530200Y-55549800D01*
X170530200Y-55803800D01*
X170510200Y-55803800D01*
X170510200Y-57153050D01*
X170668950Y-57311800D01*
X171383200Y-57314872D01*
X171507682Y-57302612D01*
X171627380Y-57266302D01*
X171737694Y-57207337D01*
X171834385Y-57127985D01*
X171913737Y-57031294D01*
X171938391Y-56985170D01*
X172148737Y-57125718D01*
X172161200Y-57130881D01*
X172161201Y-58374870D01*
X172087641Y-58405339D01*
X171868987Y-58551438D01*
X171683038Y-58737387D01*
X171536939Y-58956041D01*
X171436304Y-59198995D01*
X171385000Y-59456914D01*
X171385000Y-59719886D01*
X171436304Y-59977805D01*
X171536939Y-60220759D01*
X171683038Y-60439413D01*
X171868987Y-60625362D01*
X172087641Y-60771461D01*
X172330595Y-60872096D01*
X172588514Y-60923400D01*
X172851486Y-60923400D01*
X173109405Y-60872096D01*
X173352359Y-60771461D01*
X173571013Y-60625362D01*
X173756962Y-60439413D01*
X173903061Y-60220759D01*
X174003696Y-59977805D01*
X174055000Y-59719886D01*
X174055000Y-59456914D01*
X174003696Y-59198995D01*
X173903061Y-58956041D01*
X173756962Y-58737387D01*
X173685200Y-58665625D01*
X173685200Y-57130880D01*
X173697663Y-57125718D01*
X173965452Y-56946787D01*
X174193187Y-56719052D01*
X174372118Y-56451263D01*
X174495368Y-56153712D01*
X174558200Y-55837833D01*
X174558200Y-55515767D01*
X174495368Y-55199888D01*
X174372118Y-54902337D01*
X174193187Y-54634548D01*
X173965452Y-54406813D01*
X173697663Y-54227882D01*
X173400112Y-54104632D01*
X173084233Y-54041800D01*
X172762167Y-54041800D01*
X172446288Y-54104632D01*
X172148737Y-54227882D01*
X171938391Y-54368430D01*
X171913737Y-54322306D01*
X171834385Y-54225615D01*
X171737694Y-54146263D01*
X171627380Y-54087298D01*
X171507682Y-54050988D01*
X171383200Y-54038728D01*
X170668950Y-54041800D01*
X170510200Y-54200550D01*
X170256200Y-54200550D01*
X170097450Y-54041800D01*
X169764199Y-54040367D01*
X169764199Y-50624302D01*
X170332103Y-50624302D01*
X170403686Y-50868271D01*
X170659196Y-50989171D01*
X170933384Y-51057900D01*
X171215712Y-51071817D01*
X171495330Y-51030387D01*
X171761492Y-50935203D01*
X171886714Y-50868271D01*
X171958297Y-50624302D01*
X171145200Y-49811205D01*
X170332103Y-50624302D01*
X169764199Y-50624302D01*
X169764199Y-50539831D01*
X169893892Y-50345731D01*
X169908529Y-50373114D01*
X170152498Y-50444697D01*
X170965595Y-49631600D01*
X171324805Y-49631600D01*
X172137902Y-50444697D01*
X172381871Y-50373114D01*
X172502771Y-50117604D01*
X172571500Y-49843416D01*
X172585417Y-49561088D01*
X172543987Y-49281470D01*
X172448803Y-49015308D01*
X172381871Y-48890086D01*
X172137902Y-48818503D01*
X171324805Y-49631600D01*
X170965595Y-49631600D01*
X170152498Y-48818503D01*
X169908529Y-48890086D01*
X169894876Y-48918941D01*
X169759837Y-48716841D01*
X169681894Y-48638898D01*
X170332103Y-48638898D01*
X171145200Y-49451995D01*
X171958297Y-48638898D01*
X171886714Y-48394929D01*
X171631204Y-48274029D01*
X171357016Y-48205300D01*
X171074688Y-48191383D01*
X170795070Y-48232813D01*
X170528908Y-48327997D01*
X170403686Y-48394929D01*
X170332103Y-48638898D01*
X169681894Y-48638898D01*
X169559959Y-48516963D01*
X169324927Y-48359920D01*
X169063774Y-48251747D01*
X168786535Y-48196600D01*
X168503865Y-48196600D01*
X168226626Y-48251747D01*
X168219046Y-48254887D01*
X168146977Y-48233025D01*
X168035025Y-48221999D01*
X168035022Y-48221999D01*
X167997599Y-48218313D01*
X167960176Y-48221999D01*
X166293023Y-48221999D01*
X166255600Y-48218313D01*
X166218177Y-48221999D01*
X166218175Y-48221999D01*
X166106223Y-48233025D01*
X165962586Y-48276597D01*
X165830209Y-48347354D01*
X165783085Y-48386028D01*
X165596935Y-48349000D01*
X165314265Y-48349000D01*
X165037026Y-48404147D01*
X164775873Y-48512320D01*
X164540841Y-48669363D01*
X164340963Y-48869241D01*
X164185600Y-49101759D01*
X164030237Y-48869241D01*
X163830359Y-48669363D01*
X163595327Y-48512320D01*
X163334174Y-48404147D01*
X163056935Y-48349000D01*
X162774265Y-48349000D01*
X162497026Y-48404147D01*
X162235873Y-48512320D01*
X162000841Y-48669363D01*
X161800963Y-48869241D01*
X161645600Y-49101759D01*
X161490237Y-48869241D01*
X161290359Y-48669363D01*
X161055327Y-48512320D01*
X160794174Y-48404147D01*
X160516935Y-48349000D01*
X160234265Y-48349000D01*
X159957026Y-48404147D01*
X159695873Y-48512320D01*
X159460841Y-48669363D01*
X159262243Y-48867961D01*
X159261412Y-48859518D01*
X159225102Y-48739820D01*
X159166137Y-48629506D01*
X159086785Y-48532815D01*
X158990094Y-48453463D01*
X158879780Y-48394498D01*
X158760082Y-48358188D01*
X158635600Y-48345928D01*
X158121350Y-48349000D01*
X157962600Y-48507750D01*
X157962600Y-49657000D01*
X157982600Y-49657000D01*
X157982600Y-49911000D01*
X157962600Y-49911000D01*
X157962600Y-51060250D01*
X158121350Y-51219000D01*
X158635600Y-51222072D01*
X158760082Y-51209812D01*
X158879780Y-51173502D01*
X158990094Y-51114537D01*
X159086785Y-51035185D01*
X159166137Y-50938494D01*
X159225102Y-50828180D01*
X159261412Y-50708482D01*
X159262243Y-50700039D01*
X159460841Y-50898637D01*
X159695873Y-51055680D01*
X159766001Y-51084728D01*
X159766000Y-52262369D01*
X158690527Y-53337843D01*
X158510335Y-53302000D01*
X158227665Y-53302000D01*
X158047474Y-53337843D01*
X155293631Y-50584000D01*
X156397528Y-50584000D01*
X156409788Y-50708482D01*
X156446098Y-50828180D01*
X156505063Y-50938494D01*
X156584415Y-51035185D01*
X156681106Y-51114537D01*
X156791420Y-51173502D01*
X156911118Y-51209812D01*
X157035600Y-51222072D01*
X157549850Y-51219000D01*
X157708600Y-51060250D01*
X157708600Y-49911000D01*
X156559350Y-49911000D01*
X156400600Y-50069750D01*
X156397528Y-50584000D01*
X155293631Y-50584000D01*
X154533600Y-49823970D01*
X154533600Y-49693272D01*
X154871600Y-49693272D01*
X154996082Y-49681012D01*
X155115780Y-49644702D01*
X155226094Y-49585737D01*
X155322785Y-49506385D01*
X155402137Y-49409694D01*
X155461102Y-49299380D01*
X155497412Y-49179682D01*
X155509672Y-49055200D01*
X155509672Y-48984000D01*
X156397528Y-48984000D01*
X156400600Y-49498250D01*
X156559350Y-49657000D01*
X157708600Y-49657000D01*
X157708600Y-48507750D01*
X157549850Y-48349000D01*
X157035600Y-48345928D01*
X156911118Y-48358188D01*
X156791420Y-48394498D01*
X156681106Y-48453463D01*
X156584415Y-48532815D01*
X156505063Y-48629506D01*
X156446098Y-48739820D01*
X156409788Y-48859518D01*
X156397528Y-48984000D01*
X155509672Y-48984000D01*
X155509672Y-46855200D01*
X155497412Y-46730718D01*
X155461102Y-46611020D01*
X155402137Y-46500706D01*
X155322785Y-46404015D01*
X155226094Y-46324663D01*
X155115780Y-46265698D01*
X154996082Y-46229388D01*
X154871600Y-46217128D01*
X154533600Y-46217128D01*
X154533600Y-43268223D01*
X154537286Y-43230800D01*
X154533600Y-43193374D01*
X154522574Y-43081422D01*
X154479002Y-42937785D01*
X154428727Y-42843727D01*
X154408245Y-42805407D01*
X154336879Y-42718448D01*
X154313022Y-42689378D01*
X154283952Y-42665521D01*
X150952009Y-39333578D01*
X151186125Y-39287010D01*
X151458853Y-39174042D01*
X151704302Y-39010039D01*
X151913039Y-38801302D01*
X152019000Y-38642719D01*
X152124961Y-38801302D01*
X152333698Y-39010039D01*
X152579147Y-39174042D01*
X152851875Y-39287010D01*
X153141401Y-39344600D01*
X153436599Y-39344600D01*
X153726125Y-39287010D01*
X153998853Y-39174042D01*
X154244302Y-39010039D01*
X154453039Y-38801302D01*
X154559000Y-38642719D01*
X154664961Y-38801302D01*
X154873698Y-39010039D01*
X155119147Y-39174042D01*
X155391875Y-39287010D01*
X155681401Y-39344600D01*
X155976599Y-39344600D01*
X156266125Y-39287010D01*
X156538853Y-39174042D01*
X156784302Y-39010039D01*
X156993039Y-38801302D01*
X157099000Y-38642719D01*
X157204961Y-38801302D01*
X157413698Y-39010039D01*
X157659147Y-39174042D01*
X157931875Y-39287010D01*
X158221401Y-39344600D01*
X158516599Y-39344600D01*
X158806125Y-39287010D01*
X159078853Y-39174042D01*
X159324302Y-39010039D01*
X159533039Y-38801302D01*
X159639000Y-38642719D01*
X159744961Y-38801302D01*
G37*
%TD.AperFunction*%
D24*
X146507200Y-29410900D02*
X146527200Y-29410900D01*
X146527200Y-29664900D01*
X146507200Y-29664900D01*
X146507200Y-29684900D01*
X146253200Y-29684900D01*
X146253200Y-29664900D01*
X146233200Y-29664900D01*
X146233200Y-29410900D01*
X146253200Y-29410900D01*
X146253200Y-29390900D01*
X146507200Y-29390900D01*
X146507200Y-29410900D01*
%TA.AperFunction,Conductor*%
D25*
G36*
X146507200Y-29410900D02*
G01*
X146527200Y-29410900D01*
X146527200Y-29664900D01*
X146507200Y-29664900D01*
X146507200Y-29684900D01*
X146253200Y-29684900D01*
X146253200Y-29664900D01*
X146233200Y-29664900D01*
X146233200Y-29410900D01*
X146253200Y-29410900D01*
X146253200Y-29390900D01*
X146507200Y-29390900D01*
X146507200Y-29410900D01*
G37*
%TD.AperFunction*%
D24*
X122213000Y-25114250D02*
X122371750Y-25273000D01*
X123571000Y-25273000D01*
X123571000Y-25253000D01*
X123825000Y-25253000D01*
X123825000Y-25273000D01*
X123845000Y-25273000D01*
X123845000Y-25527000D01*
X123825000Y-25527000D01*
X123825000Y-25547000D01*
X123571000Y-25547000D01*
X123571000Y-25527000D01*
X122371750Y-25527000D01*
X122213000Y-25685750D01*
X122211578Y-25946999D01*
X109584778Y-25946999D01*
X109631932Y-25833158D01*
X109689000Y-25546260D01*
X109689000Y-25253740D01*
X109645679Y-25035952D01*
X109750632Y-24930999D01*
X122212002Y-24930999D01*
X122213000Y-25114250D01*
%TA.AperFunction,Conductor*%
D25*
G36*
X122213000Y-25114250D02*
G01*
X122371750Y-25273000D01*
X123571000Y-25273000D01*
X123571000Y-25253000D01*
X123825000Y-25253000D01*
X123825000Y-25273000D01*
X123845000Y-25273000D01*
X123845000Y-25527000D01*
X123825000Y-25527000D01*
X123825000Y-25547000D01*
X123571000Y-25547000D01*
X123571000Y-25527000D01*
X122371750Y-25527000D01*
X122213000Y-25685750D01*
X122211578Y-25946999D01*
X109584778Y-25946999D01*
X109631932Y-25833158D01*
X109689000Y-25546260D01*
X109689000Y-25253740D01*
X109645679Y-25035952D01*
X109750632Y-24930999D01*
X122212002Y-24930999D01*
X122213000Y-25114250D01*
G37*
%TD.AperFunction*%
%TD*%
M02*
