M48
; DRILL file {KiCad (5.1.8)-1} date 02/21/21 20:08:10
; FORMAT={-:-/ absolute / inch / decimal}
; #@! TF.CreationDate,2021-02-21T20:08:10-05:00
; #@! TF.GenerationSoftware,Kicad,Pcbnew,(5.1.8)-1
; #@! TF.FileFunction,Plated,1,2,PTH
FMAT,2
INCH
T1C0.0276
T2C0.0315
T3C0.0354
T4C0.0394
T5C0.0400
T6C0.0433
%
G90
G05
T1
X6.8Y-2.346
X6.8Y-2.546
X5.9Y-2.73
X5.9Y-2.93
T2
X6.235Y-2.155
X6.535Y-2.155
X6.6396Y-1.954
X6.738Y-1.954
T3
X4.065Y-1.7
X4.215Y-1.7
X4.365Y-1.7
X4.515Y-1.7
T4
X5.09Y-3.24
X5.19Y-3.24
X5.29Y-3.24
X5.39Y-3.24
X5.49Y-3.24
X5.59Y-3.24
X3.37Y-1.0
X3.37Y-1.1
X3.47Y-1.0
X3.47Y-1.1
X3.75Y-1.15
X3.85Y-1.15
X3.95Y-1.15
X6.214Y-1.66
X6.214Y-1.96
X6.314Y-1.66
X6.314Y-1.96
X6.414Y-1.66
X6.414Y-1.96
X6.514Y-1.66
X6.514Y-1.96
X6.065Y-2.6794
X6.165Y-2.6794
X6.265Y-2.6794
X6.365Y-2.6794
X6.465Y-2.6794
X6.565Y-2.6794
X6.665Y-2.6794
X6.765Y-2.6794
X5.66Y-2.67
X5.76Y-2.67
X5.69Y-2.88
X5.69Y-2.98
X5.69Y-3.08
X4.6Y-3.22
X4.7Y-3.22
X5.463Y-1.1629
X5.563Y-1.1629
X5.663Y-1.1629
X5.763Y-1.1629
X5.863Y-1.1629
X5.963Y-1.1629
X4.16Y-1.0
X4.16Y-1.1
X4.26Y-1.0
X4.26Y-1.1
X4.87Y-1.0
X4.87Y-1.1
X4.97Y-1.0
X4.97Y-1.1
X6.389Y-1.1618
X6.489Y-1.1618
X6.589Y-1.1618
X6.689Y-1.1618
X6.789Y-1.1618
X6.889Y-1.1618
X5.5107Y-2.3631
X5.5107Y-2.46
X5.5107Y-2.56
X5.5107Y-2.6569
X3.342Y-1.4641
X3.442Y-1.4641
X3.542Y-1.4641
X3.642Y-1.4641
X6.708Y-2.192
X6.808Y-2.192
T5
X3.975Y-1.49
X4.075Y-1.49
X4.175Y-1.49
X4.275Y-1.49
X4.335Y-3.39
X4.375Y-1.49
X4.435Y-3.39
X4.475Y-1.49
X4.535Y-3.39
X4.575Y-1.49
X4.635Y-3.39
X4.675Y-1.49
X4.735Y-3.39
X4.775Y-1.49
X4.835Y-3.39
X4.875Y-1.49
X4.935Y-3.39
X5.035Y-1.49
X5.035Y-3.39
X5.135Y-1.49
X5.235Y-1.49
X5.235Y-3.39
X5.335Y-1.49
X5.335Y-3.39
X5.435Y-1.49
X5.435Y-3.39
X5.535Y-1.49
X5.535Y-3.39
X5.635Y-1.49
X5.635Y-3.39
X5.735Y-1.49
X5.735Y-3.39
X5.74Y-2.29
X5.74Y-2.39
X5.74Y-2.49
X5.835Y-3.39
X5.84Y-2.29
X5.84Y-2.39
X5.84Y-2.49
X5.935Y-1.49
X5.935Y-3.39
X6.035Y-1.49
X6.135Y-1.49
X6.135Y-3.39
X6.235Y-1.49
X6.235Y-3.39
X6.335Y-1.49
X6.335Y-3.39
X6.435Y-1.49
X6.435Y-3.39
X6.535Y-1.49
X6.535Y-3.39
X6.635Y-1.49
X6.635Y-3.39
X6.735Y-3.39
X6.835Y-3.39
X6.935Y-1.49
X6.935Y-1.59
X6.935Y-1.69
X6.935Y-1.79
X6.935Y-1.89
X6.935Y-1.99
X6.935Y-2.09
X6.935Y-2.19
X6.935Y-2.29
X6.935Y-2.39
X6.935Y-2.49
X6.935Y-2.59
X6.935Y-2.69
X6.935Y-2.79
X6.935Y-2.89
X6.935Y-2.99
X6.935Y-3.09
X6.935Y-3.19
X7.035Y-1.49
X7.035Y-1.59
X7.035Y-1.69
X7.035Y-1.79
X7.035Y-1.89
X7.035Y-1.99
X7.035Y-2.09
X7.035Y-2.19
X7.035Y-2.29
X7.035Y-2.39
X7.035Y-2.49
X7.035Y-2.59
X7.035Y-2.69
X7.035Y-2.79
X7.035Y-2.89
X7.035Y-2.99
X7.035Y-3.09
X7.035Y-3.19
T6
X6.176Y-2.346
X6.576Y-2.346
X6.054Y-1.888
X6.054Y-2.288
T0
M30
