%TF.GenerationSoftware,KiCad,Pcbnew,(5.1.8)-1*%
%TF.CreationDate,2021-01-21T21:37:33-05:00*%
%TF.ProjectId,TTS,5454532e-6b69-4636-9164-5f7063625858,rev?*%
%TF.SameCoordinates,Original*%
%TF.FileFunction,Legend,Top*%
%TF.FilePolarity,Positive*%
%FSLAX46Y46*%
G04 Gerber Fmt 4.6, Leading zero omitted, Abs format (unit mm)*
G04 Created by KiCad (PCBNEW (5.1.8)-1) date 2021-01-21 21:37:33*
%MOMM*%
%LPD*%
G01*
G04 APERTURE LIST*
%ADD10C,0.150000*%
%ADD11C,0.120000*%
%ADD12C,0.100000*%
G04 APERTURE END LIST*
D10*
X144830895Y-85047200D02*
X144735657Y-84999580D01*
X144592800Y-84999580D01*
X144449942Y-85047200D01*
X144354704Y-85142438D01*
X144307085Y-85237676D01*
X144259466Y-85428152D01*
X144259466Y-85571009D01*
X144307085Y-85761485D01*
X144354704Y-85856723D01*
X144449942Y-85951961D01*
X144592800Y-85999580D01*
X144688038Y-85999580D01*
X144830895Y-85951961D01*
X144878514Y-85904342D01*
X144878514Y-85571009D01*
X144688038Y-85571009D01*
X145307085Y-85999580D02*
X145307085Y-84999580D01*
X145878514Y-85999580D01*
X145878514Y-84999580D01*
X146354704Y-85999580D02*
X146354704Y-84999580D01*
X146592800Y-84999580D01*
X146735657Y-85047200D01*
X146830895Y-85142438D01*
X146878514Y-85237676D01*
X146926133Y-85428152D01*
X146926133Y-85571009D01*
X146878514Y-85761485D01*
X146830895Y-85856723D01*
X146735657Y-85951961D01*
X146592800Y-85999580D01*
X146354704Y-85999580D01*
X140981180Y-90792133D02*
X141981180Y-90458800D01*
X140981180Y-90125466D01*
X141981180Y-89792133D02*
X140981180Y-89792133D01*
X140981180Y-89554038D01*
X141028800Y-89411180D01*
X141124038Y-89315942D01*
X141219276Y-89268323D01*
X141409752Y-89220704D01*
X141552609Y-89220704D01*
X141743085Y-89268323D01*
X141838323Y-89315942D01*
X141933561Y-89411180D01*
X141981180Y-89554038D01*
X141981180Y-89792133D01*
X141981180Y-88792133D02*
X140981180Y-88792133D01*
X140981180Y-88554038D01*
X141028800Y-88411180D01*
X141124038Y-88315942D01*
X141219276Y-88268323D01*
X141409752Y-88220704D01*
X141552609Y-88220704D01*
X141743085Y-88268323D01*
X141838323Y-88315942D01*
X141933561Y-88411180D01*
X141981180Y-88554038D01*
X141981180Y-88792133D01*
D11*
%TO.C,SW1*%
X181109000Y-98809000D02*
X181109000Y-108709000D01*
X168649000Y-98809000D02*
X168649000Y-108709000D01*
X181109000Y-98809000D02*
X168649000Y-98809000D01*
X181109000Y-108709000D02*
X168649000Y-108709000D01*
X181349000Y-98569000D02*
X181349000Y-99953000D01*
X181349000Y-98569000D02*
X179966000Y-98569000D01*
X179324000Y-101729000D02*
X178054000Y-101729000D01*
X178054000Y-101729000D02*
X178054000Y-105789000D01*
X178054000Y-105789000D02*
X179324000Y-105789000D01*
X179324000Y-105789000D02*
X179324000Y-101729000D01*
X179204000Y-101729000D02*
X179204000Y-103082333D01*
X179084000Y-101729000D02*
X179084000Y-103082333D01*
X178964000Y-101729000D02*
X178964000Y-103082333D01*
X178844000Y-101729000D02*
X178844000Y-103082333D01*
X178724000Y-101729000D02*
X178724000Y-103082333D01*
X178604000Y-101729000D02*
X178604000Y-103082333D01*
X178484000Y-101729000D02*
X178484000Y-103082333D01*
X178364000Y-101729000D02*
X178364000Y-103082333D01*
X178244000Y-101729000D02*
X178244000Y-103082333D01*
X178124000Y-101729000D02*
X178124000Y-103082333D01*
X179324000Y-103082333D02*
X178054000Y-103082333D01*
X176784000Y-101729000D02*
X175514000Y-101729000D01*
X175514000Y-101729000D02*
X175514000Y-105789000D01*
X175514000Y-105789000D02*
X176784000Y-105789000D01*
X176784000Y-105789000D02*
X176784000Y-101729000D01*
X176664000Y-101729000D02*
X176664000Y-103082333D01*
X176544000Y-101729000D02*
X176544000Y-103082333D01*
X176424000Y-101729000D02*
X176424000Y-103082333D01*
X176304000Y-101729000D02*
X176304000Y-103082333D01*
X176184000Y-101729000D02*
X176184000Y-103082333D01*
X176064000Y-101729000D02*
X176064000Y-103082333D01*
X175944000Y-101729000D02*
X175944000Y-103082333D01*
X175824000Y-101729000D02*
X175824000Y-103082333D01*
X175704000Y-101729000D02*
X175704000Y-103082333D01*
X175584000Y-101729000D02*
X175584000Y-103082333D01*
X176784000Y-103082333D02*
X175514000Y-103082333D01*
X174244000Y-101729000D02*
X172974000Y-101729000D01*
X172974000Y-101729000D02*
X172974000Y-105789000D01*
X172974000Y-105789000D02*
X174244000Y-105789000D01*
X174244000Y-105789000D02*
X174244000Y-101729000D01*
X174124000Y-101729000D02*
X174124000Y-103082333D01*
X174004000Y-101729000D02*
X174004000Y-103082333D01*
X173884000Y-101729000D02*
X173884000Y-103082333D01*
X173764000Y-101729000D02*
X173764000Y-103082333D01*
X173644000Y-101729000D02*
X173644000Y-103082333D01*
X173524000Y-101729000D02*
X173524000Y-103082333D01*
X173404000Y-101729000D02*
X173404000Y-103082333D01*
X173284000Y-101729000D02*
X173284000Y-103082333D01*
X173164000Y-101729000D02*
X173164000Y-103082333D01*
X173044000Y-101729000D02*
X173044000Y-103082333D01*
X174244000Y-103082333D02*
X172974000Y-103082333D01*
X171704000Y-101729000D02*
X170434000Y-101729000D01*
X170434000Y-101729000D02*
X170434000Y-105789000D01*
X170434000Y-105789000D02*
X171704000Y-105789000D01*
X171704000Y-105789000D02*
X171704000Y-101729000D01*
X171584000Y-101729000D02*
X171584000Y-103082333D01*
X171464000Y-101729000D02*
X171464000Y-103082333D01*
X171344000Y-101729000D02*
X171344000Y-103082333D01*
X171224000Y-101729000D02*
X171224000Y-103082333D01*
X171104000Y-101729000D02*
X171104000Y-103082333D01*
X170984000Y-101729000D02*
X170984000Y-103082333D01*
X170864000Y-101729000D02*
X170864000Y-103082333D01*
X170744000Y-101729000D02*
X170744000Y-103082333D01*
X170624000Y-101729000D02*
X170624000Y-103082333D01*
X170504000Y-101729000D02*
X170504000Y-103082333D01*
X171704000Y-103082333D02*
X170434000Y-103082333D01*
%TO.C,A1*%
X159893000Y-94742000D02*
X157353000Y-94742000D01*
X157353000Y-94742000D02*
X157353000Y-97412000D01*
X159893000Y-97412000D02*
X198123000Y-97412000D01*
X154683000Y-97412000D02*
X157353000Y-97412000D01*
X157353000Y-82042000D02*
X157353000Y-79372000D01*
X157353000Y-82042000D02*
X195453000Y-82042000D01*
X195453000Y-82042000D02*
X195453000Y-79372000D01*
X159893000Y-94742000D02*
X159893000Y-97412000D01*
X159893000Y-94742000D02*
X195453000Y-94742000D01*
X195453000Y-94742000D02*
X195453000Y-97412000D01*
X198123000Y-97412000D02*
X198123000Y-79372000D01*
X198123000Y-79372000D02*
X154683000Y-79372000D01*
X154683000Y-79372000D02*
X154683000Y-97412000D01*
%TO.C,C1*%
X147302800Y-80462600D02*
X147302800Y-79757600D01*
X147302800Y-82497600D02*
X147302800Y-81792600D01*
X151542800Y-80462600D02*
X151542800Y-79757600D01*
X151542800Y-82497600D02*
X151542800Y-81792600D01*
X151542800Y-79757600D02*
X147302800Y-79757600D01*
X151542800Y-82497600D02*
X147302800Y-82497600D01*
%TO.C,C2*%
X151441200Y-79144800D02*
X147201200Y-79144800D01*
X151441200Y-76404800D02*
X147201200Y-76404800D01*
X151441200Y-79144800D02*
X151441200Y-78439800D01*
X151441200Y-77109800D02*
X151441200Y-76404800D01*
X147201200Y-79144800D02*
X147201200Y-78439800D01*
X147201200Y-77109800D02*
X147201200Y-76404800D01*
%TO.C,D3*%
X171397800Y-79004800D02*
X170397800Y-78004800D01*
X170397800Y-78004800D02*
X170397800Y-74004800D01*
X170397800Y-74004800D02*
X186827800Y-74004800D01*
X186827800Y-74004800D02*
X186827800Y-79004800D01*
X186827800Y-79004800D02*
X171397800Y-79004800D01*
D12*
%TO.C,D4*%
X142138600Y-104956600D02*
X142138600Y-104706600D01*
X142138600Y-102256600D02*
X142138600Y-102506600D01*
X144738600Y-101756600D02*
G75*
G02*
X145588600Y-102606600I-1000000J-1850000D01*
G01*
X145588600Y-104606600D02*
G75*
G02*
X144738600Y-105456600I-1850000J1000000D01*
G01*
X142131315Y-102250453D02*
G75*
G02*
X142738600Y-101756600I1607285J-1356147D01*
G01*
X142743133Y-105448215D02*
G75*
G02*
X142138600Y-104956600I995467J1841615D01*
G01*
D11*
%TO.C,J1*%
X186965000Y-103124000D02*
G75*
G03*
X186965000Y-103124000I-2180000J0D01*
G01*
X191965000Y-103124000D02*
G75*
G03*
X191965000Y-103124000I-2180000J0D01*
G01*
X196965000Y-103124000D02*
G75*
G03*
X196965000Y-103124000I-2180000J0D01*
G01*
X201965000Y-103124000D02*
G75*
G03*
X201965000Y-103124000I-2180000J0D01*
G01*
X182225000Y-107724000D02*
X202346000Y-107724000D01*
X182225000Y-106624000D02*
X202346000Y-106624000D01*
X182225000Y-99064000D02*
X202346000Y-99064000D01*
X182225000Y-108184000D02*
X202346000Y-108184000D01*
X182225000Y-99064000D02*
X182225000Y-108184000D01*
X202346000Y-99064000D02*
X202346000Y-108184000D01*
X186439000Y-101736000D02*
X186332000Y-101843000D01*
X183503000Y-104671000D02*
X183397000Y-104778000D01*
X186173000Y-101470000D02*
X186066000Y-101577000D01*
X183237000Y-104405000D02*
X183131000Y-104512000D01*
X191439000Y-101736000D02*
X191044000Y-102132000D01*
X188778000Y-104398000D02*
X188398000Y-104778000D01*
X191173000Y-101470000D02*
X190793000Y-101850000D01*
X188527000Y-104116000D02*
X188132000Y-104512000D01*
X196439000Y-101736000D02*
X196044000Y-102132000D01*
X193778000Y-104398000D02*
X193398000Y-104778000D01*
X196173000Y-101470000D02*
X195793000Y-101850000D01*
X193527000Y-104116000D02*
X193132000Y-104512000D01*
X201439000Y-101736000D02*
X201044000Y-102132000D01*
X198778000Y-104398000D02*
X198398000Y-104778000D01*
X201173000Y-101470000D02*
X200793000Y-101850000D01*
X198527000Y-104116000D02*
X198132000Y-104512000D01*
X181985000Y-107784000D02*
X181985000Y-108424000D01*
X181985000Y-108424000D02*
X182385000Y-108424000D01*
%TO.C,R1*%
X166672000Y-78580400D02*
X166672000Y-75140400D01*
X166672000Y-75140400D02*
X157432000Y-75140400D01*
X157432000Y-75140400D02*
X157432000Y-78580400D01*
X157432000Y-78580400D02*
X166672000Y-78580400D01*
X167362000Y-76860400D02*
X166672000Y-76860400D01*
X156742000Y-76860400D02*
X157432000Y-76860400D01*
%TO.C,R2*%
X152242000Y-81726800D02*
X152242000Y-77886800D01*
X154082000Y-81726800D02*
X154082000Y-77886800D01*
%TO.C,R3*%
X152242000Y-92187000D02*
X152242000Y-96027000D01*
X154082000Y-92187000D02*
X154082000Y-96027000D01*
%TO.C,R4*%
X154082000Y-88838800D02*
X154082000Y-84998800D01*
X152242000Y-88838800D02*
X152242000Y-84998800D01*
%TO.C,R8*%
X152338800Y-107041200D02*
X148498800Y-107041200D01*
X152338800Y-105201200D02*
X148498800Y-105201200D01*
%TO.C,U1*%
X154706000Y-108031600D02*
X164826000Y-108031600D01*
X164826000Y-108031600D02*
X164826000Y-97911600D01*
X164826000Y-97911600D02*
X154706000Y-97911600D01*
X154706000Y-97911600D02*
X154706000Y-101284934D01*
X154706000Y-101284934D02*
X155066000Y-101284934D01*
X155066000Y-101284934D02*
X155066000Y-104658266D01*
X155066000Y-104658266D02*
X154706000Y-104658266D01*
X154706000Y-104658266D02*
X154706000Y-108031600D01*
X154886000Y-108559600D02*
G75*
G03*
X154886000Y-108559600I-200000J0D01*
G01*
%TO.C,U2*%
X149907600Y-85496400D02*
G75*
G03*
X149907600Y-85496400I-200000J0D01*
G01*
X150793600Y-89560400D02*
G75*
G03*
X150793600Y-89560400I-5150000J0D01*
G01*
%TO.C,D1*%
X149768000Y-75993600D02*
X149768000Y-73053600D01*
X149528000Y-75993600D02*
X149528000Y-73053600D01*
X149648000Y-75993600D02*
X149648000Y-73053600D01*
X144088000Y-74523600D02*
X145108000Y-74523600D01*
X151568000Y-74523600D02*
X150548000Y-74523600D01*
X145108000Y-75993600D02*
X150548000Y-75993600D01*
X145108000Y-73053600D02*
X145108000Y-75993600D01*
X150548000Y-73053600D02*
X145108000Y-73053600D01*
X150548000Y-75993600D02*
X150548000Y-73053600D01*
%TO.C,D2*%
X196572800Y-78330400D02*
X196572800Y-75390400D01*
X196572800Y-75390400D02*
X191132800Y-75390400D01*
X191132800Y-75390400D02*
X191132800Y-78330400D01*
X191132800Y-78330400D02*
X196572800Y-78330400D01*
X197592800Y-76860400D02*
X196572800Y-76860400D01*
X190112800Y-76860400D02*
X191132800Y-76860400D01*
X195672800Y-78330400D02*
X195672800Y-75390400D01*
X195552800Y-78330400D02*
X195552800Y-75390400D01*
X195792800Y-78330400D02*
X195792800Y-75390400D01*
%TO.C,SW1*%
D10*
X182513761Y-105092333D02*
X182561380Y-104949476D01*
X182561380Y-104711380D01*
X182513761Y-104616142D01*
X182466142Y-104568523D01*
X182370904Y-104520904D01*
X182275666Y-104520904D01*
X182180428Y-104568523D01*
X182132809Y-104616142D01*
X182085190Y-104711380D01*
X182037571Y-104901857D01*
X181989952Y-104997095D01*
X181942333Y-105044714D01*
X181847095Y-105092333D01*
X181751857Y-105092333D01*
X181656619Y-105044714D01*
X181609000Y-104997095D01*
X181561380Y-104901857D01*
X181561380Y-104663761D01*
X181609000Y-104520904D01*
X181561380Y-104187571D02*
X182561380Y-103949476D01*
X181847095Y-103759000D01*
X182561380Y-103568523D01*
X181561380Y-103330428D01*
X182561380Y-102425666D02*
X182561380Y-102997095D01*
X182561380Y-102711380D02*
X181561380Y-102711380D01*
X181704238Y-102806619D01*
X181799476Y-102901857D01*
X181847095Y-102997095D01*
%TO.C,A1*%
X155868666Y-81283085D02*
X155868666Y-80806895D01*
X156154380Y-81378323D02*
X155154380Y-81044990D01*
X156154380Y-80711657D01*
X156154380Y-79854514D02*
X156154380Y-80425942D01*
X156154380Y-80140228D02*
X155154380Y-80140228D01*
X155297238Y-80235466D01*
X155392476Y-80330704D01*
X155440095Y-80425942D01*
%TO.C,C1*%
X146238933Y-81687942D02*
X146191314Y-81735561D01*
X146048457Y-81783180D01*
X145953219Y-81783180D01*
X145810361Y-81735561D01*
X145715123Y-81640323D01*
X145667504Y-81545085D01*
X145619885Y-81354609D01*
X145619885Y-81211752D01*
X145667504Y-81021276D01*
X145715123Y-80926038D01*
X145810361Y-80830800D01*
X145953219Y-80783180D01*
X146048457Y-80783180D01*
X146191314Y-80830800D01*
X146238933Y-80878419D01*
X147191314Y-81783180D02*
X146619885Y-81783180D01*
X146905600Y-81783180D02*
X146905600Y-80783180D01*
X146810361Y-80926038D01*
X146715123Y-81021276D01*
X146619885Y-81068895D01*
%TO.C,C2*%
X145832533Y-78182742D02*
X145784914Y-78230361D01*
X145642057Y-78277980D01*
X145546819Y-78277980D01*
X145403961Y-78230361D01*
X145308723Y-78135123D01*
X145261104Y-78039885D01*
X145213485Y-77849409D01*
X145213485Y-77706552D01*
X145261104Y-77516076D01*
X145308723Y-77420838D01*
X145403961Y-77325600D01*
X145546819Y-77277980D01*
X145642057Y-77277980D01*
X145784914Y-77325600D01*
X145832533Y-77373219D01*
X146213485Y-77373219D02*
X146261104Y-77325600D01*
X146356342Y-77277980D01*
X146594438Y-77277980D01*
X146689676Y-77325600D01*
X146737295Y-77373219D01*
X146784914Y-77468457D01*
X146784914Y-77563695D01*
X146737295Y-77706552D01*
X146165866Y-78277980D01*
X146784914Y-78277980D01*
%TO.C,D3*%
X177925504Y-75179180D02*
X177925504Y-74179180D01*
X178163600Y-74179180D01*
X178306457Y-74226800D01*
X178401695Y-74322038D01*
X178449314Y-74417276D01*
X178496933Y-74607752D01*
X178496933Y-74750609D01*
X178449314Y-74941085D01*
X178401695Y-75036323D01*
X178306457Y-75131561D01*
X178163600Y-75179180D01*
X177925504Y-75179180D01*
X178830266Y-74179180D02*
X179449314Y-74179180D01*
X179115980Y-74560133D01*
X179258838Y-74560133D01*
X179354076Y-74607752D01*
X179401695Y-74655371D01*
X179449314Y-74750609D01*
X179449314Y-74988704D01*
X179401695Y-75083942D01*
X179354076Y-75131561D01*
X179258838Y-75179180D01*
X178973123Y-75179180D01*
X178877885Y-75131561D01*
X178830266Y-75083942D01*
%TO.C,D4*%
X143178304Y-106827580D02*
X143178304Y-105827580D01*
X143416400Y-105827580D01*
X143559257Y-105875200D01*
X143654495Y-105970438D01*
X143702114Y-106065676D01*
X143749733Y-106256152D01*
X143749733Y-106399009D01*
X143702114Y-106589485D01*
X143654495Y-106684723D01*
X143559257Y-106779961D01*
X143416400Y-106827580D01*
X143178304Y-106827580D01*
X144606876Y-106160914D02*
X144606876Y-106827580D01*
X144368780Y-105779961D02*
X144130685Y-106494247D01*
X144749733Y-106494247D01*
%TO.C,J1*%
X191951666Y-97516380D02*
X191951666Y-98230666D01*
X191904047Y-98373523D01*
X191808809Y-98468761D01*
X191665952Y-98516380D01*
X191570714Y-98516380D01*
X192951666Y-98516380D02*
X192380238Y-98516380D01*
X192665952Y-98516380D02*
X192665952Y-97516380D01*
X192570714Y-97659238D01*
X192475476Y-97754476D01*
X192380238Y-97802095D01*
%TO.C,R1*%
X159319933Y-77312780D02*
X158986600Y-76836590D01*
X158748504Y-77312780D02*
X158748504Y-76312780D01*
X159129457Y-76312780D01*
X159224695Y-76360400D01*
X159272314Y-76408019D01*
X159319933Y-76503257D01*
X159319933Y-76646114D01*
X159272314Y-76741352D01*
X159224695Y-76788971D01*
X159129457Y-76836590D01*
X158748504Y-76836590D01*
X160272314Y-77312780D02*
X159700885Y-77312780D01*
X159986600Y-77312780D02*
X159986600Y-76312780D01*
X159891361Y-76455638D01*
X159796123Y-76550876D01*
X159700885Y-76598495D01*
%TO.C,R2*%
X153665180Y-79871866D02*
X153188990Y-80205200D01*
X153665180Y-80443295D02*
X152665180Y-80443295D01*
X152665180Y-80062342D01*
X152712800Y-79967104D01*
X152760419Y-79919485D01*
X152855657Y-79871866D01*
X152998514Y-79871866D01*
X153093752Y-79919485D01*
X153141371Y-79967104D01*
X153188990Y-80062342D01*
X153188990Y-80443295D01*
X152760419Y-79490914D02*
X152712800Y-79443295D01*
X152665180Y-79348057D01*
X152665180Y-79109961D01*
X152712800Y-79014723D01*
X152760419Y-78967104D01*
X152855657Y-78919485D01*
X152950895Y-78919485D01*
X153093752Y-78967104D01*
X153665180Y-79538533D01*
X153665180Y-78919485D01*
%TO.C,R3*%
X153665180Y-94197466D02*
X153188990Y-94530800D01*
X153665180Y-94768895D02*
X152665180Y-94768895D01*
X152665180Y-94387942D01*
X152712800Y-94292704D01*
X152760419Y-94245085D01*
X152855657Y-94197466D01*
X152998514Y-94197466D01*
X153093752Y-94245085D01*
X153141371Y-94292704D01*
X153188990Y-94387942D01*
X153188990Y-94768895D01*
X152665180Y-93864133D02*
X152665180Y-93245085D01*
X153046133Y-93578419D01*
X153046133Y-93435561D01*
X153093752Y-93340323D01*
X153141371Y-93292704D01*
X153236609Y-93245085D01*
X153474704Y-93245085D01*
X153569942Y-93292704D01*
X153617561Y-93340323D01*
X153665180Y-93435561D01*
X153665180Y-93721276D01*
X153617561Y-93816514D01*
X153569942Y-93864133D01*
%TO.C,R4*%
X153766780Y-86983866D02*
X153290590Y-87317200D01*
X153766780Y-87555295D02*
X152766780Y-87555295D01*
X152766780Y-87174342D01*
X152814400Y-87079104D01*
X152862019Y-87031485D01*
X152957257Y-86983866D01*
X153100114Y-86983866D01*
X153195352Y-87031485D01*
X153242971Y-87079104D01*
X153290590Y-87174342D01*
X153290590Y-87555295D01*
X153100114Y-86126723D02*
X153766780Y-86126723D01*
X152719161Y-86364819D02*
X153433447Y-86602914D01*
X153433447Y-85983866D01*
%TO.C,R8*%
X150353733Y-106624380D02*
X150020400Y-106148190D01*
X149782304Y-106624380D02*
X149782304Y-105624380D01*
X150163257Y-105624380D01*
X150258495Y-105672000D01*
X150306114Y-105719619D01*
X150353733Y-105814857D01*
X150353733Y-105957714D01*
X150306114Y-106052952D01*
X150258495Y-106100571D01*
X150163257Y-106148190D01*
X149782304Y-106148190D01*
X150925161Y-106052952D02*
X150829923Y-106005333D01*
X150782304Y-105957714D01*
X150734685Y-105862476D01*
X150734685Y-105814857D01*
X150782304Y-105719619D01*
X150829923Y-105672000D01*
X150925161Y-105624380D01*
X151115638Y-105624380D01*
X151210876Y-105672000D01*
X151258495Y-105719619D01*
X151306114Y-105814857D01*
X151306114Y-105862476D01*
X151258495Y-105957714D01*
X151210876Y-106005333D01*
X151115638Y-106052952D01*
X150925161Y-106052952D01*
X150829923Y-106100571D01*
X150782304Y-106148190D01*
X150734685Y-106243428D01*
X150734685Y-106433904D01*
X150782304Y-106529142D01*
X150829923Y-106576761D01*
X150925161Y-106624380D01*
X151115638Y-106624380D01*
X151210876Y-106576761D01*
X151258495Y-106529142D01*
X151306114Y-106433904D01*
X151306114Y-106243428D01*
X151258495Y-106148190D01*
X151210876Y-106100571D01*
X151115638Y-106052952D01*
%TO.C,U1*%
X153158380Y-103733504D02*
X153967904Y-103733504D01*
X154063142Y-103685885D01*
X154110761Y-103638266D01*
X154158380Y-103543028D01*
X154158380Y-103352552D01*
X154110761Y-103257314D01*
X154063142Y-103209695D01*
X153967904Y-103162076D01*
X153158380Y-103162076D01*
X154158380Y-102162076D02*
X154158380Y-102733504D01*
X154158380Y-102447790D02*
X153158380Y-102447790D01*
X153301238Y-102543028D01*
X153396476Y-102638266D01*
X153444095Y-102733504D01*
%TO.C,U2*%
X144729295Y-89012780D02*
X144729295Y-89822304D01*
X144776914Y-89917542D01*
X144824533Y-89965161D01*
X144919771Y-90012780D01*
X145110247Y-90012780D01*
X145205485Y-89965161D01*
X145253104Y-89917542D01*
X145300723Y-89822304D01*
X145300723Y-89012780D01*
X145729295Y-89108019D02*
X145776914Y-89060400D01*
X145872152Y-89012780D01*
X146110247Y-89012780D01*
X146205485Y-89060400D01*
X146253104Y-89108019D01*
X146300723Y-89203257D01*
X146300723Y-89298495D01*
X146253104Y-89441352D01*
X145681676Y-90012780D01*
X146300723Y-90012780D01*
%TO.C,D1*%
X146683504Y-74925180D02*
X146683504Y-73925180D01*
X146921600Y-73925180D01*
X147064457Y-73972800D01*
X147159695Y-74068038D01*
X147207314Y-74163276D01*
X147254933Y-74353752D01*
X147254933Y-74496609D01*
X147207314Y-74687085D01*
X147159695Y-74782323D01*
X147064457Y-74877561D01*
X146921600Y-74925180D01*
X146683504Y-74925180D01*
X148207314Y-74925180D02*
X147635885Y-74925180D01*
X147921600Y-74925180D02*
X147921600Y-73925180D01*
X147826361Y-74068038D01*
X147731123Y-74163276D01*
X147635885Y-74210895D01*
X154576495Y-74163180D02*
X154576495Y-73163180D01*
X155147923Y-74163180D02*
X154719352Y-73591752D01*
X155147923Y-73163180D02*
X154576495Y-73734609D01*
%TO.C,D2*%
X192809904Y-77414380D02*
X192809904Y-76414380D01*
X193048000Y-76414380D01*
X193190857Y-76462000D01*
X193286095Y-76557238D01*
X193333714Y-76652476D01*
X193381333Y-76842952D01*
X193381333Y-76985809D01*
X193333714Y-77176285D01*
X193286095Y-77271523D01*
X193190857Y-77366761D01*
X193048000Y-77414380D01*
X192809904Y-77414380D01*
X193762285Y-76509619D02*
X193809904Y-76462000D01*
X193905142Y-76414380D01*
X194143238Y-76414380D01*
X194238476Y-76462000D01*
X194286095Y-76509619D01*
X194333714Y-76604857D01*
X194333714Y-76700095D01*
X194286095Y-76842952D01*
X193714666Y-77414380D01*
X194333714Y-77414380D01*
X198670895Y-79412780D02*
X198670895Y-78412780D01*
X199242323Y-79412780D02*
X198813752Y-78841352D01*
X199242323Y-78412780D02*
X198670895Y-78984209D01*
%TD*%
M02*
