M48
; DRILL file {KiCad (5.1.8)-1} date 01/21/21 21:37:43
; FORMAT={-:-/ absolute / inch / decimal}
; #@! TF.CreationDate,2021-01-21T21:37:43-05:00
; #@! TF.GenerationSoftware,Kicad,Pcbnew,(5.1.8)-1
; #@! TF.FileFunction,Plated,1,2,PTH
FMAT,2
INCH
T1C0.0150
T2C0.0236
T3C0.0276
T4C0.0315
T5C0.0354
T6C0.0394
T7C0.0433
T8C0.0512
%
G90
G05
T1
X6.148Y-3.15
X6.2014Y-3.292
T2
X5.634Y-3.526
X5.734Y-3.426
X5.734Y-3.626
X5.834Y-3.526
T3
X6.14Y-3.904
X6.14Y-4.204
X6.24Y-3.904
X6.24Y-4.204
X6.34Y-3.904
X6.34Y-4.204
X6.44Y-3.904
X6.44Y-4.204
X5.822Y-4.178
X6.022Y-4.178
X6.03Y-3.322
X6.03Y-3.522
X6.03Y-3.042
X6.03Y-3.242
X6.03Y-3.605
X6.03Y-3.805
T4
X6.13Y-3.026
X6.63Y-3.026
X5.8296Y-3.062
X5.928Y-3.062
X5.8336Y-3.194
X5.932Y-3.194
X6.735Y-3.935
X6.735Y-4.235
X6.835Y-3.935
X6.835Y-4.235
X6.935Y-3.935
X6.935Y-4.235
X7.035Y-3.935
X7.035Y-4.235
T5
X6.807Y-3.012
X6.957Y-3.012
X7.107Y-3.012
X7.257Y-3.012
T6
X5.609Y-4.079
X5.709Y-4.079
X6.245Y-3.18
X6.245Y-3.78
X6.345Y-3.18
X6.345Y-3.78
X6.445Y-3.18
X6.445Y-3.78
X6.545Y-3.18
X6.545Y-3.78
X6.645Y-3.18
X6.645Y-3.78
X6.745Y-3.18
X6.745Y-3.78
X6.845Y-3.18
X6.845Y-3.78
X6.945Y-3.18
X6.945Y-3.78
X7.045Y-3.18
X7.045Y-3.78
X7.145Y-3.18
X7.145Y-3.78
X7.245Y-3.18
X7.245Y-3.78
X7.345Y-3.18
X7.345Y-3.78
X7.445Y-3.18
X7.445Y-3.78
X7.545Y-3.18
X7.545Y-3.78
X7.645Y-3.18
X7.645Y-3.78
T7
X7.432Y-3.026
X7.832Y-3.026
X5.62Y-2.934
X6.02Y-2.934
T8
X7.275Y-4.06
X7.4719Y-4.06
X7.6687Y-4.06
X7.8656Y-4.06
T0
M30
