%TF.GenerationSoftware,KiCad,Pcbnew,(5.1.8)-1*%
%TF.CreationDate,2021-01-21T21:37:33-05:00*%
%TF.ProjectId,TTS,5454532e-6b69-4636-9164-5f7063625858,rev?*%
%TF.SameCoordinates,Original*%
%TF.FileFunction,Soldermask,Bot*%
%TF.FilePolarity,Negative*%
%FSLAX46Y46*%
G04 Gerber Fmt 4.6, Leading zero omitted, Abs format (unit mm)*
G04 Created by KiCad (PCBNEW (5.1.8)-1) date 2021-01-21 21:37:33*
%MOMM*%
%LPD*%
G01*
G04 APERTURE LIST*
%ADD10O,1.701600X1.701600*%
%ADD11C,1.701600*%
%ADD12O,2.101600X2.101600*%
%ADD13C,2.101600*%
%ADD14C,2.701600*%
%ADD15C,1.501600*%
%ADD16O,1.501600X1.501600*%
%ADD17C,1.601600*%
%ADD18O,2.301600X2.301600*%
G04 APERTURE END LIST*
%TO.C,SW1*%
G36*
G01*
X177889000Y-99098200D02*
X179489000Y-99098200D01*
G75*
G02*
X179539800Y-99149000I0J-50800D01*
G01*
X179539800Y-100749000D01*
G75*
G02*
X179489000Y-100799800I-50800J0D01*
G01*
X177889000Y-100799800D01*
G75*
G02*
X177838200Y-100749000I0J50800D01*
G01*
X177838200Y-99149000D01*
G75*
G02*
X177889000Y-99098200I50800J0D01*
G01*
G37*
D10*
X171069000Y-107569000D03*
X176149000Y-99949000D03*
X173609000Y-107569000D03*
X173609000Y-99949000D03*
X176149000Y-107569000D03*
X171069000Y-99949000D03*
X178689000Y-107569000D03*
%TD*%
%TO.C,A1*%
G36*
G01*
X159423000Y-96862800D02*
X157823000Y-96862800D01*
G75*
G02*
X157772200Y-96812000I0J50800D01*
G01*
X157772200Y-95212000D01*
G75*
G02*
X157823000Y-95161200I50800J0D01*
G01*
X159423000Y-95161200D01*
G75*
G02*
X159473800Y-95212000I0J-50800D01*
G01*
X159473800Y-96812000D01*
G75*
G02*
X159423000Y-96862800I-50800J0D01*
G01*
G37*
X191643000Y-80772000D03*
X161163000Y-96012000D03*
X189103000Y-80772000D03*
X163703000Y-96012000D03*
X186563000Y-80772000D03*
X166243000Y-96012000D03*
X184023000Y-80772000D03*
X168783000Y-96012000D03*
X181483000Y-80772000D03*
X171323000Y-96012000D03*
X178943000Y-80772000D03*
X173863000Y-96012000D03*
X176403000Y-80772000D03*
X176403000Y-96012000D03*
X173863000Y-80772000D03*
X178943000Y-96012000D03*
X171323000Y-80772000D03*
X181483000Y-96012000D03*
X168783000Y-80772000D03*
X184023000Y-96012000D03*
X166243000Y-80772000D03*
X186563000Y-96012000D03*
X163703000Y-80772000D03*
X189103000Y-96012000D03*
X161163000Y-80772000D03*
X191643000Y-96012000D03*
X158623000Y-80772000D03*
X194183000Y-96012000D03*
X194183000Y-80772000D03*
%TD*%
D11*
%TO.C,C1*%
X148172800Y-81127600D03*
X150672800Y-81127600D03*
%TD*%
%TO.C,C2*%
X150571200Y-77774800D03*
X148071200Y-77774800D03*
%TD*%
D12*
%TO.C,D3*%
X172897800Y-76504800D03*
X176707800Y-76504800D03*
X180517800Y-76504800D03*
X184327800Y-76504800D03*
%TD*%
D13*
%TO.C,D4*%
X142468600Y-103606600D03*
G36*
G01*
X146059400Y-102606600D02*
X146059400Y-104606600D01*
G75*
G02*
X146008600Y-104657400I-50800J0D01*
G01*
X144008600Y-104657400D01*
G75*
G02*
X143957800Y-104606600I0J50800D01*
G01*
X143957800Y-102606600D01*
G75*
G02*
X144008600Y-102555800I50800J0D01*
G01*
X146008600Y-102555800D01*
G75*
G02*
X146059400Y-102606600I0J-50800D01*
G01*
G37*
%TD*%
%TO.C,J1*%
G36*
G01*
X183434200Y-104424000D02*
X183434200Y-101824000D01*
G75*
G02*
X183485000Y-101773200I50800J0D01*
G01*
X186085000Y-101773200D01*
G75*
G02*
X186135800Y-101824000I0J-50800D01*
G01*
X186135800Y-104424000D01*
G75*
G02*
X186085000Y-104474800I-50800J0D01*
G01*
X183485000Y-104474800D01*
G75*
G02*
X183434200Y-104424000I0J50800D01*
G01*
G37*
D14*
X189785000Y-103124000D03*
X194785000Y-103124000D03*
X199785000Y-103124000D03*
%TD*%
D11*
%TO.C,R1*%
X168402000Y-76860400D03*
D10*
X155702000Y-76860400D03*
%TD*%
D15*
%TO.C,R2*%
X153162000Y-82346800D03*
D16*
X153162000Y-77266800D03*
%TD*%
%TO.C,R3*%
X153162000Y-96647000D03*
D15*
X153162000Y-91567000D03*
%TD*%
D16*
%TO.C,R4*%
X153162000Y-84378800D03*
D15*
X153162000Y-89458800D03*
%TD*%
%TO.C,R8*%
X152958800Y-106121200D03*
D16*
X147878800Y-106121200D03*
%TD*%
D17*
%TO.C,U1*%
X155956000Y-99161600D03*
X155956000Y-106781600D03*
X158496000Y-99161600D03*
X158496000Y-106781600D03*
X161036000Y-99161600D03*
X161036000Y-106781600D03*
X163576000Y-99161600D03*
X163576000Y-106781600D03*
%TD*%
D11*
%TO.C,U2*%
X145643600Y-87020400D03*
X148183600Y-89560400D03*
X145643600Y-92100400D03*
X143103600Y-89560400D03*
%TD*%
%TO.C,D1*%
G36*
G01*
X154058800Y-73423600D02*
X154058800Y-75623600D01*
G75*
G02*
X154008000Y-75674400I-50800J0D01*
G01*
X151808000Y-75674400D01*
G75*
G02*
X151757200Y-75623600I0J50800D01*
G01*
X151757200Y-73423600D01*
G75*
G02*
X151808000Y-73372800I50800J0D01*
G01*
X154008000Y-73372800D01*
G75*
G02*
X154058800Y-73423600I0J-50800D01*
G01*
G37*
D18*
X142748000Y-74523600D03*
%TD*%
%TO.C,D2*%
X188772800Y-76860400D03*
G36*
G01*
X200083600Y-75760400D02*
X200083600Y-77960400D01*
G75*
G02*
X200032800Y-78011200I-50800J0D01*
G01*
X197832800Y-78011200D01*
G75*
G02*
X197782000Y-77960400I0J50800D01*
G01*
X197782000Y-75760400D01*
G75*
G02*
X197832800Y-75709600I50800J0D01*
G01*
X200032800Y-75709600D01*
G75*
G02*
X200083600Y-75760400I0J-50800D01*
G01*
G37*
%TD*%
M02*
