%TF.GenerationSoftware,KiCad,Pcbnew,(5.1.8)-1*%
%TF.CreationDate,2021-01-21T21:37:33-05:00*%
%TF.ProjectId,TTS,5454532e-6b69-4636-9164-5f7063625858,rev?*%
%TF.SameCoordinates,Original*%
%TF.FileFunction,Copper,L2,Bot*%
%TF.FilePolarity,Positive*%
%FSLAX46Y46*%
G04 Gerber Fmt 4.6, Leading zero omitted, Abs format (unit mm)*
G04 Created by KiCad (PCBNEW (5.1.8)-1) date 2021-01-21 21:37:33*
%MOMM*%
%LPD*%
G01*
G04 APERTURE LIST*
%TA.AperFunction,ComponentPad*%
%ADD10R,1.600000X1.600000*%
%TD*%
%TA.AperFunction,ComponentPad*%
%ADD11O,1.600000X1.600000*%
%TD*%
%TA.AperFunction,ComponentPad*%
%ADD12C,1.600000*%
%TD*%
%TA.AperFunction,ComponentPad*%
%ADD13O,2.000000X2.000000*%
%TD*%
%TA.AperFunction,ComponentPad*%
%ADD14C,2.000000*%
%TD*%
%TA.AperFunction,ComponentPad*%
%ADD15R,2.000000X2.000000*%
%TD*%
%TA.AperFunction,ComponentPad*%
%ADD16R,2.600000X2.600000*%
%TD*%
%TA.AperFunction,ComponentPad*%
%ADD17C,2.600000*%
%TD*%
%TA.AperFunction,ComponentPad*%
%ADD18C,1.400000*%
%TD*%
%TA.AperFunction,ComponentPad*%
%ADD19O,1.400000X1.400000*%
%TD*%
%TA.AperFunction,ComponentPad*%
%ADD20C,1.500000*%
%TD*%
%TA.AperFunction,ComponentPad*%
%ADD21R,2.200000X2.200000*%
%TD*%
%TA.AperFunction,ComponentPad*%
%ADD22O,2.200000X2.200000*%
%TD*%
%TA.AperFunction,ViaPad*%
%ADD23C,0.762000*%
%TD*%
%TA.AperFunction,Conductor*%
%ADD24C,0.254000*%
%TD*%
%TA.AperFunction,Conductor*%
%ADD25C,0.100000*%
%TD*%
G04 APERTURE END LIST*
D10*
%TO.P,SW1,1*%
%TO.N,/D6*%
X178689000Y-99949000D03*
D11*
%TO.P,SW1,5*%
%TO.N,Net-(R4-Pad1)*%
X171069000Y-107569000D03*
%TO.P,SW1,2*%
%TO.N,/D5*%
X176149000Y-99949000D03*
%TO.P,SW1,6*%
%TO.N,Net-(R4-Pad1)*%
X173609000Y-107569000D03*
%TO.P,SW1,3*%
%TO.N,/D4*%
X173609000Y-99949000D03*
%TO.P,SW1,7*%
%TO.N,Net-(R4-Pad1)*%
X176149000Y-107569000D03*
%TO.P,SW1,4*%
%TO.N,/D3*%
X171069000Y-99949000D03*
%TO.P,SW1,8*%
%TO.N,Net-(R4-Pad1)*%
X178689000Y-107569000D03*
%TD*%
D10*
%TO.P,A1,1*%
%TO.N,/TX*%
X158623000Y-96012000D03*
D11*
%TO.P,A1,17*%
%TO.N,VDD*%
X191643000Y-80772000D03*
%TO.P,A1,2*%
%TO.N,/RX*%
X161163000Y-96012000D03*
%TO.P,A1,18*%
%TO.N,/REF*%
X189103000Y-80772000D03*
%TO.P,A1,3*%
%TO.N,/RST_D*%
X163703000Y-96012000D03*
%TO.P,A1,19*%
%TO.N,/A0*%
X186563000Y-80772000D03*
%TO.P,A1,4*%
%TO.N,GND*%
X166243000Y-96012000D03*
%TO.P,A1,20*%
%TO.N,/A1*%
X184023000Y-80772000D03*
%TO.P,A1,5*%
%TO.N,/D2*%
X168783000Y-96012000D03*
%TO.P,A1,21*%
%TO.N,/A2*%
X181483000Y-80772000D03*
%TO.P,A1,6*%
%TO.N,/D3*%
X171323000Y-96012000D03*
%TO.P,A1,22*%
%TO.N,/A3*%
X178943000Y-80772000D03*
%TO.P,A1,7*%
%TO.N,/D4*%
X173863000Y-96012000D03*
%TO.P,A1,23*%
%TO.N,/A4*%
X176403000Y-80772000D03*
%TO.P,A1,8*%
%TO.N,/D5*%
X176403000Y-96012000D03*
%TO.P,A1,24*%
%TO.N,/A5*%
X173863000Y-80772000D03*
%TO.P,A1,9*%
%TO.N,/D6*%
X178943000Y-96012000D03*
%TO.P,A1,25*%
%TO.N,/A6*%
X171323000Y-80772000D03*
%TO.P,A1,10*%
%TO.N,/D7*%
X181483000Y-96012000D03*
%TO.P,A1,26*%
%TO.N,/A7*%
X168783000Y-80772000D03*
%TO.P,A1,11*%
%TO.N,/D8*%
X184023000Y-96012000D03*
%TO.P,A1,27*%
%TO.N,VCC*%
X166243000Y-80772000D03*
%TO.P,A1,12*%
%TO.N,/D9*%
X186563000Y-96012000D03*
%TO.P,A1,28*%
%TO.N,/RST_A*%
X163703000Y-80772000D03*
%TO.P,A1,13*%
%TO.N,/D10*%
X189103000Y-96012000D03*
%TO.P,A1,29*%
%TO.N,GND*%
X161163000Y-80772000D03*
%TO.P,A1,14*%
%TO.N,/D11*%
X191643000Y-96012000D03*
%TO.P,A1,30*%
%TO.N,/VIN*%
X158623000Y-80772000D03*
%TO.P,A1,15*%
%TO.N,/D12*%
X194183000Y-96012000D03*
%TO.P,A1,16*%
%TO.N,/D13*%
X194183000Y-80772000D03*
%TD*%
D12*
%TO.P,C1,2*%
%TO.N,GND*%
X148172800Y-81127600D03*
%TO.P,C1,1*%
%TO.N,VCC*%
X150672800Y-81127600D03*
%TD*%
%TO.P,C2,1*%
%TO.N,VDD*%
X150571200Y-77774800D03*
%TO.P,C2,2*%
%TO.N,GND*%
X148071200Y-77774800D03*
%TD*%
D13*
%TO.P,D3,1*%
%TO.N,/VIN*%
X172897800Y-76504800D03*
%TO.P,D3,2*%
%TO.N,Net-(D3-Pad2)*%
X176707800Y-76504800D03*
%TO.P,D3,3*%
%TO.N,Net-(D3-Pad3)*%
X180517800Y-76504800D03*
%TO.P,D3,4*%
%TO.N,GND*%
X184327800Y-76504800D03*
%TD*%
D14*
%TO.P,D4,2*%
%TO.N,VCC*%
X142468600Y-103606600D03*
D15*
%TO.P,D4,1*%
%TO.N,Net-(D4-Pad1)*%
X145008600Y-103606600D03*
%TD*%
D16*
%TO.P,J1,1*%
%TO.N,Net-(D3-Pad2)*%
X184785000Y-103124000D03*
D17*
%TO.P,J1,2*%
%TO.N,Net-(D2-Pad1)*%
X189785000Y-103124000D03*
%TO.P,J1,3*%
%TO.N,Net-(D1-Pad1)*%
X194785000Y-103124000D03*
%TO.P,J1,4*%
%TO.N,Net-(D3-Pad3)*%
X199785000Y-103124000D03*
%TD*%
D12*
%TO.P,R1,1*%
%TO.N,Net-(D2-Pad1)*%
X168402000Y-76860400D03*
D11*
%TO.P,R1,2*%
%TO.N,Net-(D1-Pad1)*%
X155702000Y-76860400D03*
%TD*%
D18*
%TO.P,R2,1*%
%TO.N,/A4*%
X153162000Y-82346800D03*
D19*
%TO.P,R2,2*%
%TO.N,VDD*%
X153162000Y-77266800D03*
%TD*%
%TO.P,R3,2*%
%TO.N,VDD*%
X153162000Y-96647000D03*
D18*
%TO.P,R3,1*%
%TO.N,/A5*%
X153162000Y-91567000D03*
%TD*%
D19*
%TO.P,R4,2*%
%TO.N,VCC*%
X153162000Y-84378800D03*
D18*
%TO.P,R4,1*%
%TO.N,Net-(R4-Pad1)*%
X153162000Y-89458800D03*
%TD*%
%TO.P,R8,1*%
%TO.N,/D7*%
X152958800Y-106121200D03*
D19*
%TO.P,R8,2*%
%TO.N,Net-(D4-Pad1)*%
X147878800Y-106121200D03*
%TD*%
D20*
%TO.P,U1,8*%
%TO.N,VCC*%
X155956000Y-99161600D03*
%TO.P,U1,1*%
%TO.N,/RX*%
X155956000Y-106781600D03*
%TO.P,U1,7*%
%TO.N,Net-(D1-Pad1)*%
X158496000Y-99161600D03*
%TO.P,U1,2*%
%TO.N,/D2*%
X158496000Y-106781600D03*
%TO.P,U1,6*%
%TO.N,Net-(D2-Pad1)*%
X161036000Y-99161600D03*
%TO.P,U1,3*%
%TO.N,/D2*%
X161036000Y-106781600D03*
%TO.P,U1,5*%
%TO.N,GND*%
X163576000Y-99161600D03*
%TO.P,U1,4*%
%TO.N,/TX*%
X163576000Y-106781600D03*
%TD*%
D12*
%TO.P,U2,4*%
%TO.N,GND*%
X145643600Y-87020400D03*
%TO.P,U2,1*%
%TO.N,/A5*%
X148183600Y-89560400D03*
%TO.P,U2,2*%
%TO.N,/A4*%
X145643600Y-92100400D03*
%TO.P,U2,3*%
%TO.N,VDD*%
X143103600Y-89560400D03*
%TD*%
D21*
%TO.P,D1,1*%
%TO.N,Net-(D1-Pad1)*%
X152908000Y-74523600D03*
D22*
%TO.P,D1,2*%
%TO.N,GND*%
X142748000Y-74523600D03*
%TD*%
%TO.P,D2,2*%
%TO.N,GND*%
X188772800Y-76860400D03*
D21*
%TO.P,D2,1*%
%TO.N,Net-(D2-Pad1)*%
X198932800Y-76860400D03*
%TD*%
D23*
%TO.N,Net-(D1-Pad1)*%
X156159200Y-80010000D03*
%TO.N,/A4*%
X157516473Y-83616800D03*
%TD*%
D24*
%TO.N,VDD*%
X190461999Y-79590999D02*
X191643000Y-80772000D01*
X169384717Y-79590999D02*
X190461999Y-79590999D01*
X165473117Y-75679399D02*
X169384717Y-79590999D01*
X165155519Y-75361801D02*
X165473117Y-75679399D01*
X155066999Y-75361801D02*
X165155519Y-75361801D01*
X153162000Y-77266800D02*
X155066999Y-75361801D01*
%TO.N,VCC*%
X150129999Y-104987601D02*
X155956000Y-99161600D01*
X143849601Y-104987601D02*
X150129999Y-104987601D01*
X142468600Y-103606600D02*
X143849601Y-104987601D01*
X155956000Y-87172800D02*
X155956000Y-99161600D01*
X153162000Y-84378800D02*
X155956000Y-87172800D01*
%TO.N,Net-(D1-Pad1)*%
X152908000Y-74523600D02*
X153365200Y-74523600D01*
X158496000Y-99161600D02*
X156464010Y-97129610D01*
X156464010Y-80314810D02*
X156159200Y-80010000D01*
X156464010Y-81330810D02*
X156464010Y-80314810D01*
X156464010Y-81330810D02*
X156464010Y-80568810D01*
X156464010Y-81330810D02*
X156464010Y-97129610D01*
%TO.N,Net-(D2-Pad1)*%
X198932800Y-76860400D02*
X198932800Y-93010082D01*
X169883001Y-78341401D02*
X194708599Y-78341401D01*
X168402000Y-76860400D02*
X169883001Y-78341401D01*
X196189600Y-76860400D02*
X198932800Y-76860400D01*
X194708599Y-78341401D02*
X196189600Y-76860400D01*
X189785000Y-103124000D02*
X191820800Y-103124000D01*
X198932800Y-96012000D02*
X198932800Y-93010082D01*
X191820800Y-103124000D02*
X198932800Y-96012000D01*
%TO.N,Net-(D3-Pad2)*%
X200292426Y-74615790D02*
X202082400Y-76405764D01*
X178596811Y-74615789D02*
X200292426Y-74615790D01*
X176707800Y-76504800D02*
X178596811Y-74615789D01*
X202082400Y-76405764D02*
X202082400Y-104902000D01*
X202082400Y-104902000D02*
X200558400Y-106426000D01*
X188087000Y-106426000D02*
X184785000Y-103124000D01*
X200558400Y-106426000D02*
X188087000Y-106426000D01*
%TO.N,/RX*%
X159904999Y-102832601D02*
X155956000Y-106781600D01*
X159904999Y-97270001D02*
X159904999Y-102832601D01*
X161163000Y-96012000D02*
X159904999Y-97270001D01*
%TO.N,/D2*%
X168783000Y-96748600D02*
X168783000Y-96012000D01*
X168783000Y-99034600D02*
X168783000Y-96012000D01*
X161036000Y-106781600D02*
X168783000Y-99034600D01*
%TO.N,/D3*%
X171323000Y-99695000D02*
X171069000Y-99949000D01*
X171323000Y-96012000D02*
X171323000Y-99695000D01*
%TO.N,/D4*%
X173609000Y-96266000D02*
X173863000Y-96012000D01*
X173609000Y-99949000D02*
X173609000Y-96266000D01*
%TO.N,/A4*%
X173558200Y-83616800D02*
X157516473Y-83616800D01*
X176403000Y-80772000D02*
X173558200Y-83616800D01*
%TO.N,/D5*%
X176403000Y-99695000D02*
X176149000Y-99949000D01*
X176403000Y-96012000D02*
X176403000Y-99695000D01*
%TO.N,/D6*%
X178689000Y-96266000D02*
X178943000Y-96012000D01*
X178689000Y-99949000D02*
X178689000Y-96266000D01*
%TO.N,/D7*%
X164118881Y-107912601D02*
X154750201Y-107912601D01*
X165643483Y-106387999D02*
X164118881Y-107912601D01*
X174535803Y-106387999D02*
X165643483Y-106387999D01*
X154750201Y-107912601D02*
X152958800Y-106121200D01*
X181483000Y-99440802D02*
X174535803Y-106387999D01*
X181483000Y-96012000D02*
X181483000Y-99440802D01*
%TO.N,Net-(D3-Pad3)*%
X200413801Y-102495199D02*
X199785000Y-103124000D01*
X200413801Y-75455599D02*
X200413801Y-102495199D01*
X200082001Y-75123799D02*
X200413801Y-75455599D01*
X181898801Y-75123799D02*
X200082001Y-75123799D01*
X180517800Y-76504800D02*
X181898801Y-75123799D01*
%TD*%
%TO.N,GND*%
X141480178Y-73339173D02*
X141273469Y-73609271D01*
X141123425Y-73914506D01*
X141058825Y-74127478D01*
X141176875Y-74396600D01*
X142621000Y-74396600D01*
X142621000Y-74376600D01*
X142875000Y-74376600D01*
X142875000Y-74396600D01*
X144319125Y-74396600D01*
X144437175Y-74127478D01*
X144372575Y-73914506D01*
X144222531Y-73609271D01*
X144015822Y-73339173D01*
X143812037Y-73160000D01*
X151228878Y-73160000D01*
X151218498Y-73179420D01*
X151182188Y-73299118D01*
X151169928Y-73423600D01*
X151169928Y-75623600D01*
X151182188Y-75748082D01*
X151218498Y-75867780D01*
X151277463Y-75978094D01*
X151356815Y-76074785D01*
X151453506Y-76154137D01*
X151563820Y-76213102D01*
X151683518Y-76249412D01*
X151808000Y-76261672D01*
X152279153Y-76261672D01*
X152125038Y-76415787D01*
X151978939Y-76634441D01*
X151878304Y-76877395D01*
X151836811Y-77085990D01*
X151685837Y-76860041D01*
X151485959Y-76660163D01*
X151250927Y-76503120D01*
X150989774Y-76394947D01*
X150712535Y-76339800D01*
X150429865Y-76339800D01*
X150152626Y-76394947D01*
X149891473Y-76503120D01*
X149656441Y-76660163D01*
X149456563Y-76860041D01*
X149322508Y-77060669D01*
X149307871Y-77033286D01*
X149063902Y-76961703D01*
X148250805Y-77774800D01*
X149063902Y-78587897D01*
X149307871Y-78516314D01*
X149321524Y-78487459D01*
X149456563Y-78689559D01*
X149656441Y-78889437D01*
X149891473Y-79046480D01*
X150152626Y-79154653D01*
X150429865Y-79209800D01*
X150712535Y-79209800D01*
X150989774Y-79154653D01*
X151250927Y-79046480D01*
X151485959Y-78889437D01*
X151685837Y-78689559D01*
X151842880Y-78454527D01*
X151951053Y-78193374D01*
X152002548Y-77934493D01*
X152125038Y-78117813D01*
X152310987Y-78303762D01*
X152529641Y-78449861D01*
X152772595Y-78550496D01*
X153030514Y-78601800D01*
X153293486Y-78601800D01*
X153551405Y-78550496D01*
X153794359Y-78449861D01*
X154013013Y-78303762D01*
X154198962Y-78117813D01*
X154345061Y-77899159D01*
X154445696Y-77656205D01*
X154459961Y-77584489D01*
X154587363Y-77775159D01*
X154787241Y-77975037D01*
X155022273Y-78132080D01*
X155283426Y-78240253D01*
X155560665Y-78295400D01*
X155843335Y-78295400D01*
X156120574Y-78240253D01*
X156381727Y-78132080D01*
X156616759Y-77975037D01*
X156816637Y-77775159D01*
X156973680Y-77540127D01*
X157081853Y-77278974D01*
X157137000Y-77001735D01*
X157137000Y-76719065D01*
X157081853Y-76441826D01*
X156973680Y-76180673D01*
X156935679Y-76123801D01*
X164839889Y-76123801D01*
X164907838Y-76191750D01*
X168183271Y-79467184D01*
X168103273Y-79500320D01*
X167868241Y-79657363D01*
X167668363Y-79857241D01*
X167513000Y-80089759D01*
X167357637Y-79857241D01*
X167157759Y-79657363D01*
X166922727Y-79500320D01*
X166661574Y-79392147D01*
X166384335Y-79337000D01*
X166101665Y-79337000D01*
X165824426Y-79392147D01*
X165563273Y-79500320D01*
X165328241Y-79657363D01*
X165128363Y-79857241D01*
X164973000Y-80089759D01*
X164817637Y-79857241D01*
X164617759Y-79657363D01*
X164382727Y-79500320D01*
X164121574Y-79392147D01*
X163844335Y-79337000D01*
X163561665Y-79337000D01*
X163284426Y-79392147D01*
X163023273Y-79500320D01*
X162788241Y-79657363D01*
X162588363Y-79857241D01*
X162431320Y-80092273D01*
X162426933Y-80102865D01*
X162315385Y-79916869D01*
X162126414Y-79708481D01*
X161900420Y-79540963D01*
X161646087Y-79420754D01*
X161512039Y-79380096D01*
X161290000Y-79502085D01*
X161290000Y-80645000D01*
X161310000Y-80645000D01*
X161310000Y-80899000D01*
X161290000Y-80899000D01*
X161290000Y-82041915D01*
X161512039Y-82163904D01*
X161646087Y-82123246D01*
X161900420Y-82003037D01*
X162126414Y-81835519D01*
X162315385Y-81627131D01*
X162426933Y-81441135D01*
X162431320Y-81451727D01*
X162588363Y-81686759D01*
X162788241Y-81886637D01*
X163023273Y-82043680D01*
X163284426Y-82151853D01*
X163561665Y-82207000D01*
X163844335Y-82207000D01*
X164121574Y-82151853D01*
X164382727Y-82043680D01*
X164617759Y-81886637D01*
X164817637Y-81686759D01*
X164973000Y-81454241D01*
X165128363Y-81686759D01*
X165328241Y-81886637D01*
X165563273Y-82043680D01*
X165824426Y-82151853D01*
X166101665Y-82207000D01*
X166384335Y-82207000D01*
X166661574Y-82151853D01*
X166922727Y-82043680D01*
X167157759Y-81886637D01*
X167357637Y-81686759D01*
X167513000Y-81454241D01*
X167668363Y-81686759D01*
X167868241Y-81886637D01*
X168103273Y-82043680D01*
X168364426Y-82151853D01*
X168641665Y-82207000D01*
X168924335Y-82207000D01*
X169201574Y-82151853D01*
X169462727Y-82043680D01*
X169697759Y-81886637D01*
X169897637Y-81686759D01*
X170053000Y-81454241D01*
X170208363Y-81686759D01*
X170408241Y-81886637D01*
X170643273Y-82043680D01*
X170904426Y-82151853D01*
X171181665Y-82207000D01*
X171464335Y-82207000D01*
X171741574Y-82151853D01*
X172002727Y-82043680D01*
X172237759Y-81886637D01*
X172437637Y-81686759D01*
X172593000Y-81454241D01*
X172748363Y-81686759D01*
X172948241Y-81886637D01*
X173183273Y-82043680D01*
X173444426Y-82151853D01*
X173721665Y-82207000D01*
X173890370Y-82207000D01*
X173242570Y-82854800D01*
X158191314Y-82854800D01*
X158164135Y-82827621D01*
X157997729Y-82716432D01*
X157812829Y-82639844D01*
X157616540Y-82600800D01*
X157416406Y-82600800D01*
X157226010Y-82638672D01*
X157226010Y-81104422D01*
X157243147Y-81190574D01*
X157351320Y-81451727D01*
X157508363Y-81686759D01*
X157708241Y-81886637D01*
X157943273Y-82043680D01*
X158204426Y-82151853D01*
X158481665Y-82207000D01*
X158764335Y-82207000D01*
X159041574Y-82151853D01*
X159302727Y-82043680D01*
X159537759Y-81886637D01*
X159737637Y-81686759D01*
X159894680Y-81451727D01*
X159899067Y-81441135D01*
X160010615Y-81627131D01*
X160199586Y-81835519D01*
X160425580Y-82003037D01*
X160679913Y-82123246D01*
X160813961Y-82163904D01*
X161036000Y-82041915D01*
X161036000Y-80899000D01*
X161016000Y-80899000D01*
X161016000Y-80645000D01*
X161036000Y-80645000D01*
X161036000Y-79502085D01*
X160813961Y-79380096D01*
X160679913Y-79420754D01*
X160425580Y-79540963D01*
X160199586Y-79708481D01*
X160010615Y-79916869D01*
X159899067Y-80102865D01*
X159894680Y-80092273D01*
X159737637Y-79857241D01*
X159537759Y-79657363D01*
X159302727Y-79500320D01*
X159041574Y-79392147D01*
X158764335Y-79337000D01*
X158481665Y-79337000D01*
X158204426Y-79392147D01*
X157943273Y-79500320D01*
X157708241Y-79657363D01*
X157508363Y-79857241D01*
X157351320Y-80092273D01*
X157243147Y-80353426D01*
X157226010Y-80439578D01*
X157226010Y-80352232D01*
X157229696Y-80314809D01*
X157226010Y-80277384D01*
X157214984Y-80165432D01*
X157175200Y-80034282D01*
X157175200Y-79909933D01*
X157136156Y-79713644D01*
X157059568Y-79528744D01*
X156948379Y-79362338D01*
X156806862Y-79220821D01*
X156640456Y-79109632D01*
X156455556Y-79033044D01*
X156259267Y-78994000D01*
X156059133Y-78994000D01*
X155862844Y-79033044D01*
X155677944Y-79109632D01*
X155511538Y-79220821D01*
X155370021Y-79362338D01*
X155258832Y-79528744D01*
X155182244Y-79713644D01*
X155143200Y-79909933D01*
X155143200Y-80110067D01*
X155182244Y-80306356D01*
X155258832Y-80491256D01*
X155370021Y-80657662D01*
X155511538Y-80799179D01*
X155677944Y-80910368D01*
X155702010Y-80920336D01*
X155702010Y-85841180D01*
X154476114Y-84615284D01*
X154497000Y-84510286D01*
X154497000Y-84247314D01*
X154445696Y-83989395D01*
X154345061Y-83746441D01*
X154198962Y-83527787D01*
X154033975Y-83362800D01*
X154198962Y-83197813D01*
X154345061Y-82979159D01*
X154445696Y-82736205D01*
X154497000Y-82478286D01*
X154497000Y-82215314D01*
X154445696Y-81957395D01*
X154345061Y-81714441D01*
X154198962Y-81495787D01*
X154013013Y-81309838D01*
X153794359Y-81163739D01*
X153551405Y-81063104D01*
X153293486Y-81011800D01*
X153030514Y-81011800D01*
X152772595Y-81063104D01*
X152529641Y-81163739D01*
X152310987Y-81309838D01*
X152125038Y-81495787D01*
X151989504Y-81698629D01*
X152052653Y-81546174D01*
X152107800Y-81268935D01*
X152107800Y-80986265D01*
X152052653Y-80709026D01*
X151944480Y-80447873D01*
X151787437Y-80212841D01*
X151587559Y-80012963D01*
X151352527Y-79855920D01*
X151091374Y-79747747D01*
X150814135Y-79692600D01*
X150531465Y-79692600D01*
X150254226Y-79747747D01*
X149993073Y-79855920D01*
X149758041Y-80012963D01*
X149558163Y-80212841D01*
X149424108Y-80413469D01*
X149409471Y-80386086D01*
X149165502Y-80314503D01*
X148352405Y-81127600D01*
X149165502Y-81940697D01*
X149409471Y-81869114D01*
X149423124Y-81840259D01*
X149558163Y-82042359D01*
X149758041Y-82242237D01*
X149993073Y-82399280D01*
X150254226Y-82507453D01*
X150531465Y-82562600D01*
X150814135Y-82562600D01*
X151091374Y-82507453D01*
X151352527Y-82399280D01*
X151587559Y-82242237D01*
X151787437Y-82042359D01*
X151933915Y-81823139D01*
X151878304Y-81957395D01*
X151827000Y-82215314D01*
X151827000Y-82478286D01*
X151878304Y-82736205D01*
X151978939Y-82979159D01*
X152125038Y-83197813D01*
X152290025Y-83362800D01*
X152125038Y-83527787D01*
X151978939Y-83746441D01*
X151878304Y-83989395D01*
X151827000Y-84247314D01*
X151827000Y-84510286D01*
X151878304Y-84768205D01*
X151978939Y-85011159D01*
X152125038Y-85229813D01*
X152310987Y-85415762D01*
X152529641Y-85561861D01*
X152772595Y-85662496D01*
X153030514Y-85713800D01*
X153293486Y-85713800D01*
X153398484Y-85692914D01*
X155194000Y-87488430D01*
X155194001Y-98005027D01*
X155073114Y-98085801D01*
X154880201Y-98278714D01*
X154728629Y-98505557D01*
X154624225Y-98757611D01*
X154571000Y-99025189D01*
X154571000Y-99298011D01*
X154599364Y-99440606D01*
X149814369Y-104225601D01*
X146646672Y-104225601D01*
X146646672Y-102606600D01*
X146634412Y-102482118D01*
X146598102Y-102362420D01*
X146539137Y-102252106D01*
X146459785Y-102155415D01*
X146363094Y-102076063D01*
X146252780Y-102017098D01*
X146133082Y-101980788D01*
X146008600Y-101968528D01*
X144008600Y-101968528D01*
X143884118Y-101980788D01*
X143764420Y-102017098D01*
X143654106Y-102076063D01*
X143557415Y-102155415D01*
X143478063Y-102252106D01*
X143453409Y-102298230D01*
X143243063Y-102157682D01*
X142945512Y-102034432D01*
X142629633Y-101971600D01*
X142307567Y-101971600D01*
X141991688Y-102034432D01*
X141694137Y-102157682D01*
X141426348Y-102336613D01*
X141198613Y-102564348D01*
X141019682Y-102832137D01*
X140896432Y-103129688D01*
X140833600Y-103445567D01*
X140833600Y-103767633D01*
X140896432Y-104083512D01*
X141019682Y-104381063D01*
X141198613Y-104648852D01*
X141426348Y-104876587D01*
X141694137Y-105055518D01*
X141991688Y-105178768D01*
X142307567Y-105241600D01*
X142629633Y-105241600D01*
X142945512Y-105178768D01*
X142957975Y-105173606D01*
X143284322Y-105499953D01*
X143308179Y-105529023D01*
X143424209Y-105624246D01*
X143556586Y-105695003D01*
X143700223Y-105738575D01*
X143812175Y-105749601D01*
X143812177Y-105749601D01*
X143849600Y-105753287D01*
X143887023Y-105749601D01*
X146591562Y-105749601D01*
X146543800Y-105989714D01*
X146543800Y-106252686D01*
X146595104Y-106510605D01*
X146695739Y-106753559D01*
X146841838Y-106972213D01*
X147027787Y-107158162D01*
X147246441Y-107304261D01*
X147489395Y-107404896D01*
X147747314Y-107456200D01*
X148010286Y-107456200D01*
X148268205Y-107404896D01*
X148511159Y-107304261D01*
X148729813Y-107158162D01*
X148915762Y-106972213D01*
X149061861Y-106753559D01*
X149162496Y-106510605D01*
X149213800Y-106252686D01*
X149213800Y-105989714D01*
X149166038Y-105749601D01*
X150092576Y-105749601D01*
X150129999Y-105753287D01*
X150167422Y-105749601D01*
X150167425Y-105749601D01*
X150279377Y-105738575D01*
X150423014Y-105695003D01*
X150555391Y-105624246D01*
X150671421Y-105529023D01*
X150695283Y-105499947D01*
X155676994Y-100518236D01*
X155819589Y-100546600D01*
X156092411Y-100546600D01*
X156359989Y-100493375D01*
X156612043Y-100388971D01*
X156838886Y-100237399D01*
X157031799Y-100044486D01*
X157183371Y-99817643D01*
X157226000Y-99714727D01*
X157268629Y-99817643D01*
X157420201Y-100044486D01*
X157613114Y-100237399D01*
X157839957Y-100388971D01*
X158092011Y-100493375D01*
X158359589Y-100546600D01*
X158632411Y-100546600D01*
X158899989Y-100493375D01*
X159143000Y-100392717D01*
X159143000Y-102516969D01*
X156235006Y-105424964D01*
X156092411Y-105396600D01*
X155819589Y-105396600D01*
X155552011Y-105449825D01*
X155299957Y-105554229D01*
X155073114Y-105705801D01*
X154880201Y-105898714D01*
X154728629Y-106125557D01*
X154624225Y-106377611D01*
X154571000Y-106645189D01*
X154571000Y-106655770D01*
X154272914Y-106357684D01*
X154293800Y-106252686D01*
X154293800Y-105989714D01*
X154242496Y-105731795D01*
X154141861Y-105488841D01*
X153995762Y-105270187D01*
X153809813Y-105084238D01*
X153591159Y-104938139D01*
X153348205Y-104837504D01*
X153090286Y-104786200D01*
X152827314Y-104786200D01*
X152569395Y-104837504D01*
X152326441Y-104938139D01*
X152107787Y-105084238D01*
X151921838Y-105270187D01*
X151775739Y-105488841D01*
X151675104Y-105731795D01*
X151623800Y-105989714D01*
X151623800Y-106252686D01*
X151675104Y-106510605D01*
X151775739Y-106753559D01*
X151921838Y-106972213D01*
X152107787Y-107158162D01*
X152326441Y-107304261D01*
X152569395Y-107404896D01*
X152827314Y-107456200D01*
X153090286Y-107456200D01*
X153195284Y-107435314D01*
X154184917Y-108424947D01*
X154208779Y-108454023D01*
X154245013Y-108483759D01*
X154324808Y-108549246D01*
X154395565Y-108587066D01*
X154457186Y-108620003D01*
X154600823Y-108663575D01*
X154712775Y-108674601D01*
X154712778Y-108674601D01*
X154750201Y-108678287D01*
X154787624Y-108674601D01*
X164081458Y-108674601D01*
X164118881Y-108678287D01*
X164156304Y-108674601D01*
X164156307Y-108674601D01*
X164268259Y-108663575D01*
X164411896Y-108620003D01*
X164544273Y-108549246D01*
X164660303Y-108454023D01*
X164684165Y-108424947D01*
X165959114Y-107149999D01*
X169689324Y-107149999D01*
X169689147Y-107150426D01*
X169634000Y-107427665D01*
X169634000Y-107710335D01*
X169689147Y-107987574D01*
X169797320Y-108248727D01*
X169954363Y-108483759D01*
X170154241Y-108683637D01*
X170389273Y-108840680D01*
X170650426Y-108948853D01*
X170927665Y-109004000D01*
X171210335Y-109004000D01*
X171487574Y-108948853D01*
X171748727Y-108840680D01*
X171983759Y-108683637D01*
X172183637Y-108483759D01*
X172339000Y-108251241D01*
X172494363Y-108483759D01*
X172694241Y-108683637D01*
X172929273Y-108840680D01*
X173190426Y-108948853D01*
X173467665Y-109004000D01*
X173750335Y-109004000D01*
X174027574Y-108948853D01*
X174288727Y-108840680D01*
X174523759Y-108683637D01*
X174723637Y-108483759D01*
X174879000Y-108251241D01*
X175034363Y-108483759D01*
X175234241Y-108683637D01*
X175469273Y-108840680D01*
X175730426Y-108948853D01*
X176007665Y-109004000D01*
X176290335Y-109004000D01*
X176567574Y-108948853D01*
X176828727Y-108840680D01*
X177063759Y-108683637D01*
X177263637Y-108483759D01*
X177419000Y-108251241D01*
X177574363Y-108483759D01*
X177774241Y-108683637D01*
X178009273Y-108840680D01*
X178270426Y-108948853D01*
X178547665Y-109004000D01*
X178830335Y-109004000D01*
X179107574Y-108948853D01*
X179368727Y-108840680D01*
X179603759Y-108683637D01*
X179803637Y-108483759D01*
X179960680Y-108248727D01*
X180068853Y-107987574D01*
X180124000Y-107710335D01*
X180124000Y-107427665D01*
X180068853Y-107150426D01*
X179960680Y-106889273D01*
X179803637Y-106654241D01*
X179603759Y-106454363D01*
X179368727Y-106297320D01*
X179107574Y-106189147D01*
X178830335Y-106134000D01*
X178547665Y-106134000D01*
X178270426Y-106189147D01*
X178009273Y-106297320D01*
X177774241Y-106454363D01*
X177574363Y-106654241D01*
X177419000Y-106886759D01*
X177263637Y-106654241D01*
X177063759Y-106454363D01*
X176828727Y-106297320D01*
X176567574Y-106189147D01*
X176290335Y-106134000D01*
X176007665Y-106134000D01*
X175832611Y-106168821D01*
X181995352Y-100006081D01*
X182024422Y-99982224D01*
X182119645Y-99866194D01*
X182190402Y-99733817D01*
X182233974Y-99590180D01*
X182245000Y-99478228D01*
X182245000Y-99478226D01*
X182248686Y-99440803D01*
X182245000Y-99403380D01*
X182245000Y-97228707D01*
X182397759Y-97126637D01*
X182597637Y-96926759D01*
X182753000Y-96694241D01*
X182908363Y-96926759D01*
X183108241Y-97126637D01*
X183343273Y-97283680D01*
X183604426Y-97391853D01*
X183881665Y-97447000D01*
X184164335Y-97447000D01*
X184441574Y-97391853D01*
X184702727Y-97283680D01*
X184937759Y-97126637D01*
X185137637Y-96926759D01*
X185293000Y-96694241D01*
X185448363Y-96926759D01*
X185648241Y-97126637D01*
X185883273Y-97283680D01*
X186144426Y-97391853D01*
X186421665Y-97447000D01*
X186704335Y-97447000D01*
X186981574Y-97391853D01*
X187242727Y-97283680D01*
X187477759Y-97126637D01*
X187677637Y-96926759D01*
X187833000Y-96694241D01*
X187988363Y-96926759D01*
X188188241Y-97126637D01*
X188423273Y-97283680D01*
X188684426Y-97391853D01*
X188961665Y-97447000D01*
X189244335Y-97447000D01*
X189521574Y-97391853D01*
X189782727Y-97283680D01*
X190017759Y-97126637D01*
X190217637Y-96926759D01*
X190373000Y-96694241D01*
X190528363Y-96926759D01*
X190728241Y-97126637D01*
X190963273Y-97283680D01*
X191224426Y-97391853D01*
X191501665Y-97447000D01*
X191784335Y-97447000D01*
X192061574Y-97391853D01*
X192322727Y-97283680D01*
X192557759Y-97126637D01*
X192757637Y-96926759D01*
X192913000Y-96694241D01*
X193068363Y-96926759D01*
X193268241Y-97126637D01*
X193503273Y-97283680D01*
X193764426Y-97391853D01*
X194041665Y-97447000D01*
X194324335Y-97447000D01*
X194601574Y-97391853D01*
X194862727Y-97283680D01*
X195097759Y-97126637D01*
X195297637Y-96926759D01*
X195454680Y-96691727D01*
X195562853Y-96430574D01*
X195618000Y-96153335D01*
X195618000Y-95870665D01*
X195562853Y-95593426D01*
X195454680Y-95332273D01*
X195297637Y-95097241D01*
X195097759Y-94897363D01*
X194862727Y-94740320D01*
X194601574Y-94632147D01*
X194324335Y-94577000D01*
X194041665Y-94577000D01*
X193764426Y-94632147D01*
X193503273Y-94740320D01*
X193268241Y-94897363D01*
X193068363Y-95097241D01*
X192913000Y-95329759D01*
X192757637Y-95097241D01*
X192557759Y-94897363D01*
X192322727Y-94740320D01*
X192061574Y-94632147D01*
X191784335Y-94577000D01*
X191501665Y-94577000D01*
X191224426Y-94632147D01*
X190963273Y-94740320D01*
X190728241Y-94897363D01*
X190528363Y-95097241D01*
X190373000Y-95329759D01*
X190217637Y-95097241D01*
X190017759Y-94897363D01*
X189782727Y-94740320D01*
X189521574Y-94632147D01*
X189244335Y-94577000D01*
X188961665Y-94577000D01*
X188684426Y-94632147D01*
X188423273Y-94740320D01*
X188188241Y-94897363D01*
X187988363Y-95097241D01*
X187833000Y-95329759D01*
X187677637Y-95097241D01*
X187477759Y-94897363D01*
X187242727Y-94740320D01*
X186981574Y-94632147D01*
X186704335Y-94577000D01*
X186421665Y-94577000D01*
X186144426Y-94632147D01*
X185883273Y-94740320D01*
X185648241Y-94897363D01*
X185448363Y-95097241D01*
X185293000Y-95329759D01*
X185137637Y-95097241D01*
X184937759Y-94897363D01*
X184702727Y-94740320D01*
X184441574Y-94632147D01*
X184164335Y-94577000D01*
X183881665Y-94577000D01*
X183604426Y-94632147D01*
X183343273Y-94740320D01*
X183108241Y-94897363D01*
X182908363Y-95097241D01*
X182753000Y-95329759D01*
X182597637Y-95097241D01*
X182397759Y-94897363D01*
X182162727Y-94740320D01*
X181901574Y-94632147D01*
X181624335Y-94577000D01*
X181341665Y-94577000D01*
X181064426Y-94632147D01*
X180803273Y-94740320D01*
X180568241Y-94897363D01*
X180368363Y-95097241D01*
X180213000Y-95329759D01*
X180057637Y-95097241D01*
X179857759Y-94897363D01*
X179622727Y-94740320D01*
X179361574Y-94632147D01*
X179084335Y-94577000D01*
X178801665Y-94577000D01*
X178524426Y-94632147D01*
X178263273Y-94740320D01*
X178028241Y-94897363D01*
X177828363Y-95097241D01*
X177673000Y-95329759D01*
X177517637Y-95097241D01*
X177317759Y-94897363D01*
X177082727Y-94740320D01*
X176821574Y-94632147D01*
X176544335Y-94577000D01*
X176261665Y-94577000D01*
X175984426Y-94632147D01*
X175723273Y-94740320D01*
X175488241Y-94897363D01*
X175288363Y-95097241D01*
X175133000Y-95329759D01*
X174977637Y-95097241D01*
X174777759Y-94897363D01*
X174542727Y-94740320D01*
X174281574Y-94632147D01*
X174004335Y-94577000D01*
X173721665Y-94577000D01*
X173444426Y-94632147D01*
X173183273Y-94740320D01*
X172948241Y-94897363D01*
X172748363Y-95097241D01*
X172593000Y-95329759D01*
X172437637Y-95097241D01*
X172237759Y-94897363D01*
X172002727Y-94740320D01*
X171741574Y-94632147D01*
X171464335Y-94577000D01*
X171181665Y-94577000D01*
X170904426Y-94632147D01*
X170643273Y-94740320D01*
X170408241Y-94897363D01*
X170208363Y-95097241D01*
X170053000Y-95329759D01*
X169897637Y-95097241D01*
X169697759Y-94897363D01*
X169462727Y-94740320D01*
X169201574Y-94632147D01*
X168924335Y-94577000D01*
X168641665Y-94577000D01*
X168364426Y-94632147D01*
X168103273Y-94740320D01*
X167868241Y-94897363D01*
X167668363Y-95097241D01*
X167511320Y-95332273D01*
X167506933Y-95342865D01*
X167395385Y-95156869D01*
X167206414Y-94948481D01*
X166980420Y-94780963D01*
X166726087Y-94660754D01*
X166592039Y-94620096D01*
X166370000Y-94742085D01*
X166370000Y-95885000D01*
X166390000Y-95885000D01*
X166390000Y-96139000D01*
X166370000Y-96139000D01*
X166370000Y-97281915D01*
X166592039Y-97403904D01*
X166726087Y-97363246D01*
X166980420Y-97243037D01*
X167206414Y-97075519D01*
X167395385Y-96867131D01*
X167506933Y-96681135D01*
X167511320Y-96691727D01*
X167668363Y-96926759D01*
X167868241Y-97126637D01*
X168021001Y-97228707D01*
X168021000Y-98718969D01*
X161315006Y-105424964D01*
X161172411Y-105396600D01*
X160899589Y-105396600D01*
X160632011Y-105449825D01*
X160379957Y-105554229D01*
X160153114Y-105705801D01*
X159960201Y-105898714D01*
X159808629Y-106125557D01*
X159766000Y-106228473D01*
X159723371Y-106125557D01*
X159571799Y-105898714D01*
X159378886Y-105705801D01*
X159152043Y-105554229D01*
X158899989Y-105449825D01*
X158632411Y-105396600D01*
X158418630Y-105396600D01*
X160417351Y-103397880D01*
X160446421Y-103374023D01*
X160496021Y-103313585D01*
X160541644Y-103257994D01*
X160612400Y-103125617D01*
X160612401Y-103125616D01*
X160655973Y-102981979D01*
X160666999Y-102870027D01*
X160666999Y-102870024D01*
X160670685Y-102832601D01*
X160666999Y-102795178D01*
X160666999Y-100500335D01*
X160899589Y-100546600D01*
X161172411Y-100546600D01*
X161439989Y-100493375D01*
X161692043Y-100388971D01*
X161918886Y-100237399D01*
X162037692Y-100118593D01*
X162798612Y-100118593D01*
X162864137Y-100357460D01*
X163111116Y-100473360D01*
X163375960Y-100538850D01*
X163648492Y-100551412D01*
X163918238Y-100510565D01*
X164174832Y-100417877D01*
X164287863Y-100357460D01*
X164353388Y-100118593D01*
X163576000Y-99341205D01*
X162798612Y-100118593D01*
X162037692Y-100118593D01*
X162111799Y-100044486D01*
X162263371Y-99817643D01*
X162304511Y-99718321D01*
X162319723Y-99760432D01*
X162380140Y-99873463D01*
X162619007Y-99938988D01*
X163396395Y-99161600D01*
X163755605Y-99161600D01*
X164532993Y-99938988D01*
X164771860Y-99873463D01*
X164887760Y-99626484D01*
X164953250Y-99361640D01*
X164965812Y-99089108D01*
X164924965Y-98819362D01*
X164832277Y-98562768D01*
X164771860Y-98449737D01*
X164532993Y-98384212D01*
X163755605Y-99161600D01*
X163396395Y-99161600D01*
X162619007Y-98384212D01*
X162380140Y-98449737D01*
X162305836Y-98608077D01*
X162263371Y-98505557D01*
X162111799Y-98278714D01*
X162037692Y-98204607D01*
X162798612Y-98204607D01*
X163576000Y-98981995D01*
X164353388Y-98204607D01*
X164287863Y-97965740D01*
X164040884Y-97849840D01*
X163776040Y-97784350D01*
X163503508Y-97771788D01*
X163233762Y-97812635D01*
X162977168Y-97905323D01*
X162864137Y-97965740D01*
X162798612Y-98204607D01*
X162037692Y-98204607D01*
X161918886Y-98085801D01*
X161692043Y-97934229D01*
X161439989Y-97829825D01*
X161172411Y-97776600D01*
X160899589Y-97776600D01*
X160666999Y-97822865D01*
X160666999Y-97585631D01*
X160841473Y-97411157D01*
X161021665Y-97447000D01*
X161304335Y-97447000D01*
X161581574Y-97391853D01*
X161842727Y-97283680D01*
X162077759Y-97126637D01*
X162277637Y-96926759D01*
X162433000Y-96694241D01*
X162588363Y-96926759D01*
X162788241Y-97126637D01*
X163023273Y-97283680D01*
X163284426Y-97391853D01*
X163561665Y-97447000D01*
X163844335Y-97447000D01*
X164121574Y-97391853D01*
X164382727Y-97283680D01*
X164617759Y-97126637D01*
X164817637Y-96926759D01*
X164974680Y-96691727D01*
X164979067Y-96681135D01*
X165090615Y-96867131D01*
X165279586Y-97075519D01*
X165505580Y-97243037D01*
X165759913Y-97363246D01*
X165893961Y-97403904D01*
X166116000Y-97281915D01*
X166116000Y-96139000D01*
X166096000Y-96139000D01*
X166096000Y-95885000D01*
X166116000Y-95885000D01*
X166116000Y-94742085D01*
X165893961Y-94620096D01*
X165759913Y-94660754D01*
X165505580Y-94780963D01*
X165279586Y-94948481D01*
X165090615Y-95156869D01*
X164979067Y-95342865D01*
X164974680Y-95332273D01*
X164817637Y-95097241D01*
X164617759Y-94897363D01*
X164382727Y-94740320D01*
X164121574Y-94632147D01*
X163844335Y-94577000D01*
X163561665Y-94577000D01*
X163284426Y-94632147D01*
X163023273Y-94740320D01*
X162788241Y-94897363D01*
X162588363Y-95097241D01*
X162433000Y-95329759D01*
X162277637Y-95097241D01*
X162077759Y-94897363D01*
X161842727Y-94740320D01*
X161581574Y-94632147D01*
X161304335Y-94577000D01*
X161021665Y-94577000D01*
X160744426Y-94632147D01*
X160483273Y-94740320D01*
X160248241Y-94897363D01*
X160049643Y-95095961D01*
X160048812Y-95087518D01*
X160012502Y-94967820D01*
X159953537Y-94857506D01*
X159874185Y-94760815D01*
X159777494Y-94681463D01*
X159667180Y-94622498D01*
X159547482Y-94586188D01*
X159423000Y-94573928D01*
X157823000Y-94573928D01*
X157698518Y-94586188D01*
X157578820Y-94622498D01*
X157468506Y-94681463D01*
X157371815Y-94760815D01*
X157292463Y-94857506D01*
X157233498Y-94967820D01*
X157226010Y-94992505D01*
X157226010Y-84594928D01*
X157416406Y-84632800D01*
X157616540Y-84632800D01*
X157812829Y-84593756D01*
X157997729Y-84517168D01*
X158164135Y-84405979D01*
X158191314Y-84378800D01*
X173520777Y-84378800D01*
X173558200Y-84382486D01*
X173595623Y-84378800D01*
X173595626Y-84378800D01*
X173707578Y-84367774D01*
X173851215Y-84324202D01*
X173983592Y-84253445D01*
X174099622Y-84158222D01*
X174123484Y-84129146D01*
X176081473Y-82171157D01*
X176261665Y-82207000D01*
X176544335Y-82207000D01*
X176821574Y-82151853D01*
X177082727Y-82043680D01*
X177317759Y-81886637D01*
X177517637Y-81686759D01*
X177673000Y-81454241D01*
X177828363Y-81686759D01*
X178028241Y-81886637D01*
X178263273Y-82043680D01*
X178524426Y-82151853D01*
X178801665Y-82207000D01*
X179084335Y-82207000D01*
X179361574Y-82151853D01*
X179622727Y-82043680D01*
X179857759Y-81886637D01*
X180057637Y-81686759D01*
X180213000Y-81454241D01*
X180368363Y-81686759D01*
X180568241Y-81886637D01*
X180803273Y-82043680D01*
X181064426Y-82151853D01*
X181341665Y-82207000D01*
X181624335Y-82207000D01*
X181901574Y-82151853D01*
X182162727Y-82043680D01*
X182397759Y-81886637D01*
X182597637Y-81686759D01*
X182753000Y-81454241D01*
X182908363Y-81686759D01*
X183108241Y-81886637D01*
X183343273Y-82043680D01*
X183604426Y-82151853D01*
X183881665Y-82207000D01*
X184164335Y-82207000D01*
X184441574Y-82151853D01*
X184702727Y-82043680D01*
X184937759Y-81886637D01*
X185137637Y-81686759D01*
X185293000Y-81454241D01*
X185448363Y-81686759D01*
X185648241Y-81886637D01*
X185883273Y-82043680D01*
X186144426Y-82151853D01*
X186421665Y-82207000D01*
X186704335Y-82207000D01*
X186981574Y-82151853D01*
X187242727Y-82043680D01*
X187477759Y-81886637D01*
X187677637Y-81686759D01*
X187833000Y-81454241D01*
X187988363Y-81686759D01*
X188188241Y-81886637D01*
X188423273Y-82043680D01*
X188684426Y-82151853D01*
X188961665Y-82207000D01*
X189244335Y-82207000D01*
X189521574Y-82151853D01*
X189782727Y-82043680D01*
X190017759Y-81886637D01*
X190217637Y-81686759D01*
X190373000Y-81454241D01*
X190528363Y-81686759D01*
X190728241Y-81886637D01*
X190963273Y-82043680D01*
X191224426Y-82151853D01*
X191501665Y-82207000D01*
X191784335Y-82207000D01*
X192061574Y-82151853D01*
X192322727Y-82043680D01*
X192557759Y-81886637D01*
X192757637Y-81686759D01*
X192913000Y-81454241D01*
X193068363Y-81686759D01*
X193268241Y-81886637D01*
X193503273Y-82043680D01*
X193764426Y-82151853D01*
X194041665Y-82207000D01*
X194324335Y-82207000D01*
X194601574Y-82151853D01*
X194862727Y-82043680D01*
X195097759Y-81886637D01*
X195297637Y-81686759D01*
X195454680Y-81451727D01*
X195562853Y-81190574D01*
X195618000Y-80913335D01*
X195618000Y-80630665D01*
X195562853Y-80353426D01*
X195454680Y-80092273D01*
X195297637Y-79857241D01*
X195097759Y-79657363D01*
X194862727Y-79500320D01*
X194601574Y-79392147D01*
X194324335Y-79337000D01*
X194041665Y-79337000D01*
X193764426Y-79392147D01*
X193503273Y-79500320D01*
X193268241Y-79657363D01*
X193068363Y-79857241D01*
X192913000Y-80089759D01*
X192757637Y-79857241D01*
X192557759Y-79657363D01*
X192322727Y-79500320D01*
X192061574Y-79392147D01*
X191784335Y-79337000D01*
X191501665Y-79337000D01*
X191321473Y-79372843D01*
X191052031Y-79103401D01*
X194671176Y-79103401D01*
X194708599Y-79107087D01*
X194746022Y-79103401D01*
X194746025Y-79103401D01*
X194857977Y-79092375D01*
X195001614Y-79048803D01*
X195133991Y-78978046D01*
X195250021Y-78882823D01*
X195273883Y-78853747D01*
X196505230Y-77622400D01*
X197194728Y-77622400D01*
X197194728Y-77960400D01*
X197206988Y-78084882D01*
X197243298Y-78204580D01*
X197302263Y-78314894D01*
X197381615Y-78411585D01*
X197478306Y-78490937D01*
X197588620Y-78549902D01*
X197708318Y-78586212D01*
X197832800Y-78598472D01*
X198170800Y-78598472D01*
X198170801Y-92972656D01*
X198170800Y-95696369D01*
X191546626Y-102320543D01*
X191499775Y-102207434D01*
X191288013Y-101890509D01*
X191018491Y-101620987D01*
X190701566Y-101409225D01*
X190349419Y-101263361D01*
X189975581Y-101189000D01*
X189594419Y-101189000D01*
X189220581Y-101263361D01*
X188868434Y-101409225D01*
X188551509Y-101620987D01*
X188281987Y-101890509D01*
X188070225Y-102207434D01*
X187924361Y-102559581D01*
X187850000Y-102933419D01*
X187850000Y-103314581D01*
X187924361Y-103688419D01*
X188070225Y-104040566D01*
X188281987Y-104357491D01*
X188551509Y-104627013D01*
X188868434Y-104838775D01*
X189220581Y-104984639D01*
X189594419Y-105059000D01*
X189975581Y-105059000D01*
X190349419Y-104984639D01*
X190701566Y-104838775D01*
X191018491Y-104627013D01*
X191288013Y-104357491D01*
X191499775Y-104040566D01*
X191563798Y-103886000D01*
X191783377Y-103886000D01*
X191820800Y-103889686D01*
X191858223Y-103886000D01*
X191858226Y-103886000D01*
X191970178Y-103874974D01*
X192113815Y-103831402D01*
X192246192Y-103760645D01*
X192362222Y-103665422D01*
X192386084Y-103636346D01*
X192850000Y-103172430D01*
X192850000Y-103314581D01*
X192924361Y-103688419D01*
X193070225Y-104040566D01*
X193281987Y-104357491D01*
X193551509Y-104627013D01*
X193868434Y-104838775D01*
X194220581Y-104984639D01*
X194594419Y-105059000D01*
X194975581Y-105059000D01*
X195349419Y-104984639D01*
X195701566Y-104838775D01*
X196018491Y-104627013D01*
X196288013Y-104357491D01*
X196499775Y-104040566D01*
X196645639Y-103688419D01*
X196720000Y-103314581D01*
X196720000Y-102933419D01*
X196645639Y-102559581D01*
X196499775Y-102207434D01*
X196288013Y-101890509D01*
X196018491Y-101620987D01*
X195701566Y-101409225D01*
X195349419Y-101263361D01*
X194975581Y-101189000D01*
X194833430Y-101189000D01*
X199445153Y-96577278D01*
X199474222Y-96553422D01*
X199523838Y-96492965D01*
X199569445Y-96437393D01*
X199640201Y-96305016D01*
X199640202Y-96305015D01*
X199651802Y-96266776D01*
X199651802Y-101189000D01*
X199594419Y-101189000D01*
X199220581Y-101263361D01*
X198868434Y-101409225D01*
X198551509Y-101620987D01*
X198281987Y-101890509D01*
X198070225Y-102207434D01*
X197924361Y-102559581D01*
X197850000Y-102933419D01*
X197850000Y-103314581D01*
X197924361Y-103688419D01*
X198070225Y-104040566D01*
X198281987Y-104357491D01*
X198551509Y-104627013D01*
X198868434Y-104838775D01*
X199220581Y-104984639D01*
X199594419Y-105059000D01*
X199975581Y-105059000D01*
X200349419Y-104984639D01*
X200701566Y-104838775D01*
X201018491Y-104627013D01*
X201288013Y-104357491D01*
X201320401Y-104309019D01*
X201320401Y-104586368D01*
X200242770Y-105664000D01*
X188402631Y-105664000D01*
X186723072Y-103984442D01*
X186723072Y-101824000D01*
X186710812Y-101699518D01*
X186674502Y-101579820D01*
X186615537Y-101469506D01*
X186536185Y-101372815D01*
X186439494Y-101293463D01*
X186329180Y-101234498D01*
X186209482Y-101198188D01*
X186085000Y-101185928D01*
X183485000Y-101185928D01*
X183360518Y-101198188D01*
X183240820Y-101234498D01*
X183130506Y-101293463D01*
X183033815Y-101372815D01*
X182954463Y-101469506D01*
X182895498Y-101579820D01*
X182859188Y-101699518D01*
X182846928Y-101824000D01*
X182846928Y-104424000D01*
X182859188Y-104548482D01*
X182895498Y-104668180D01*
X182954463Y-104778494D01*
X183033815Y-104875185D01*
X183130506Y-104954537D01*
X183240820Y-105013502D01*
X183360518Y-105049812D01*
X183485000Y-105062072D01*
X185645442Y-105062072D01*
X187521721Y-106938352D01*
X187545578Y-106967422D01*
X187661608Y-107062645D01*
X187793985Y-107133402D01*
X187937622Y-107176974D01*
X188049574Y-107188000D01*
X188049576Y-107188000D01*
X188086999Y-107191686D01*
X188124422Y-107188000D01*
X200520977Y-107188000D01*
X200558400Y-107191686D01*
X200595823Y-107188000D01*
X200595826Y-107188000D01*
X200707778Y-107176974D01*
X200851415Y-107133402D01*
X200983792Y-107062645D01*
X201099822Y-106967422D01*
X201123684Y-106938346D01*
X202594752Y-105467279D01*
X202623822Y-105443422D01*
X202719045Y-105327392D01*
X202789802Y-105195015D01*
X202833374Y-105051378D01*
X202840001Y-104984092D01*
X202840001Y-109040000D01*
X140660000Y-109040000D01*
X140660000Y-96515514D01*
X151827000Y-96515514D01*
X151827000Y-96778486D01*
X151878304Y-97036405D01*
X151978939Y-97279359D01*
X152125038Y-97498013D01*
X152310987Y-97683962D01*
X152529641Y-97830061D01*
X152772595Y-97930696D01*
X153030514Y-97982000D01*
X153293486Y-97982000D01*
X153551405Y-97930696D01*
X153794359Y-97830061D01*
X154013013Y-97683962D01*
X154198962Y-97498013D01*
X154345061Y-97279359D01*
X154445696Y-97036405D01*
X154497000Y-96778486D01*
X154497000Y-96515514D01*
X154445696Y-96257595D01*
X154345061Y-96014641D01*
X154198962Y-95795987D01*
X154013013Y-95610038D01*
X153794359Y-95463939D01*
X153551405Y-95363304D01*
X153293486Y-95312000D01*
X153030514Y-95312000D01*
X152772595Y-95363304D01*
X152529641Y-95463939D01*
X152310987Y-95610038D01*
X152125038Y-95795987D01*
X151978939Y-96014641D01*
X151878304Y-96257595D01*
X151827000Y-96515514D01*
X140660000Y-96515514D01*
X140660000Y-91959065D01*
X144208600Y-91959065D01*
X144208600Y-92241735D01*
X144263747Y-92518974D01*
X144371920Y-92780127D01*
X144528963Y-93015159D01*
X144728841Y-93215037D01*
X144963873Y-93372080D01*
X145225026Y-93480253D01*
X145502265Y-93535400D01*
X145784935Y-93535400D01*
X146062174Y-93480253D01*
X146323327Y-93372080D01*
X146558359Y-93215037D01*
X146758237Y-93015159D01*
X146915280Y-92780127D01*
X147023453Y-92518974D01*
X147078600Y-92241735D01*
X147078600Y-91959065D01*
X147023453Y-91681826D01*
X146915280Y-91420673D01*
X146758237Y-91185641D01*
X146558359Y-90985763D01*
X146323327Y-90828720D01*
X146062174Y-90720547D01*
X145784935Y-90665400D01*
X145502265Y-90665400D01*
X145225026Y-90720547D01*
X144963873Y-90828720D01*
X144728841Y-90985763D01*
X144528963Y-91185641D01*
X144371920Y-91420673D01*
X144263747Y-91681826D01*
X144208600Y-91959065D01*
X140660000Y-91959065D01*
X140660000Y-89419065D01*
X141668600Y-89419065D01*
X141668600Y-89701735D01*
X141723747Y-89978974D01*
X141831920Y-90240127D01*
X141988963Y-90475159D01*
X142188841Y-90675037D01*
X142423873Y-90832080D01*
X142685026Y-90940253D01*
X142962265Y-90995400D01*
X143244935Y-90995400D01*
X143522174Y-90940253D01*
X143783327Y-90832080D01*
X144018359Y-90675037D01*
X144218237Y-90475159D01*
X144375280Y-90240127D01*
X144483453Y-89978974D01*
X144538600Y-89701735D01*
X144538600Y-89419065D01*
X146748600Y-89419065D01*
X146748600Y-89701735D01*
X146803747Y-89978974D01*
X146911920Y-90240127D01*
X147068963Y-90475159D01*
X147268841Y-90675037D01*
X147503873Y-90832080D01*
X147765026Y-90940253D01*
X148042265Y-90995400D01*
X148324935Y-90995400D01*
X148602174Y-90940253D01*
X148863327Y-90832080D01*
X149098359Y-90675037D01*
X149298237Y-90475159D01*
X149455280Y-90240127D01*
X149563453Y-89978974D01*
X149618600Y-89701735D01*
X149618600Y-89419065D01*
X149600350Y-89327314D01*
X151827000Y-89327314D01*
X151827000Y-89590286D01*
X151878304Y-89848205D01*
X151978939Y-90091159D01*
X152125038Y-90309813D01*
X152310987Y-90495762D01*
X152336636Y-90512900D01*
X152310987Y-90530038D01*
X152125038Y-90715987D01*
X151978939Y-90934641D01*
X151878304Y-91177595D01*
X151827000Y-91435514D01*
X151827000Y-91698486D01*
X151878304Y-91956405D01*
X151978939Y-92199359D01*
X152125038Y-92418013D01*
X152310987Y-92603962D01*
X152529641Y-92750061D01*
X152772595Y-92850696D01*
X153030514Y-92902000D01*
X153293486Y-92902000D01*
X153551405Y-92850696D01*
X153794359Y-92750061D01*
X154013013Y-92603962D01*
X154198962Y-92418013D01*
X154345061Y-92199359D01*
X154445696Y-91956405D01*
X154497000Y-91698486D01*
X154497000Y-91435514D01*
X154445696Y-91177595D01*
X154345061Y-90934641D01*
X154198962Y-90715987D01*
X154013013Y-90530038D01*
X153987364Y-90512900D01*
X154013013Y-90495762D01*
X154198962Y-90309813D01*
X154345061Y-90091159D01*
X154445696Y-89848205D01*
X154497000Y-89590286D01*
X154497000Y-89327314D01*
X154445696Y-89069395D01*
X154345061Y-88826441D01*
X154198962Y-88607787D01*
X154013013Y-88421838D01*
X153794359Y-88275739D01*
X153551405Y-88175104D01*
X153293486Y-88123800D01*
X153030514Y-88123800D01*
X152772595Y-88175104D01*
X152529641Y-88275739D01*
X152310987Y-88421838D01*
X152125038Y-88607787D01*
X151978939Y-88826441D01*
X151878304Y-89069395D01*
X151827000Y-89327314D01*
X149600350Y-89327314D01*
X149563453Y-89141826D01*
X149455280Y-88880673D01*
X149298237Y-88645641D01*
X149098359Y-88445763D01*
X148863327Y-88288720D01*
X148602174Y-88180547D01*
X148324935Y-88125400D01*
X148042265Y-88125400D01*
X147765026Y-88180547D01*
X147503873Y-88288720D01*
X147268841Y-88445763D01*
X147068963Y-88645641D01*
X146911920Y-88880673D01*
X146803747Y-89141826D01*
X146748600Y-89419065D01*
X144538600Y-89419065D01*
X144483453Y-89141826D01*
X144375280Y-88880673D01*
X144218237Y-88645641D01*
X144018359Y-88445763D01*
X143783327Y-88288720D01*
X143522174Y-88180547D01*
X143244935Y-88125400D01*
X142962265Y-88125400D01*
X142685026Y-88180547D01*
X142423873Y-88288720D01*
X142188841Y-88445763D01*
X141988963Y-88645641D01*
X141831920Y-88880673D01*
X141723747Y-89141826D01*
X141668600Y-89419065D01*
X140660000Y-89419065D01*
X140660000Y-88013102D01*
X144830503Y-88013102D01*
X144902086Y-88257071D01*
X145157596Y-88377971D01*
X145431784Y-88446700D01*
X145714112Y-88460617D01*
X145993730Y-88419187D01*
X146259892Y-88324003D01*
X146385114Y-88257071D01*
X146456697Y-88013102D01*
X145643600Y-87200005D01*
X144830503Y-88013102D01*
X140660000Y-88013102D01*
X140660000Y-87090912D01*
X144203383Y-87090912D01*
X144244813Y-87370530D01*
X144339997Y-87636692D01*
X144406929Y-87761914D01*
X144650898Y-87833497D01*
X145463995Y-87020400D01*
X145823205Y-87020400D01*
X146636302Y-87833497D01*
X146880271Y-87761914D01*
X147001171Y-87506404D01*
X147069900Y-87232216D01*
X147083817Y-86949888D01*
X147042387Y-86670270D01*
X146947203Y-86404108D01*
X146880271Y-86278886D01*
X146636302Y-86207303D01*
X145823205Y-87020400D01*
X145463995Y-87020400D01*
X144650898Y-86207303D01*
X144406929Y-86278886D01*
X144286029Y-86534396D01*
X144217300Y-86808584D01*
X144203383Y-87090912D01*
X140660000Y-87090912D01*
X140660000Y-86027698D01*
X144830503Y-86027698D01*
X145643600Y-86840795D01*
X146456697Y-86027698D01*
X146385114Y-85783729D01*
X146129604Y-85662829D01*
X145855416Y-85594100D01*
X145573088Y-85580183D01*
X145293470Y-85621613D01*
X145027308Y-85716797D01*
X144902086Y-85783729D01*
X144830503Y-86027698D01*
X140660000Y-86027698D01*
X140660000Y-82120302D01*
X147359703Y-82120302D01*
X147431286Y-82364271D01*
X147686796Y-82485171D01*
X147960984Y-82553900D01*
X148243312Y-82567817D01*
X148522930Y-82526387D01*
X148789092Y-82431203D01*
X148914314Y-82364271D01*
X148985897Y-82120302D01*
X148172800Y-81307205D01*
X147359703Y-82120302D01*
X140660000Y-82120302D01*
X140660000Y-81198112D01*
X146732583Y-81198112D01*
X146774013Y-81477730D01*
X146869197Y-81743892D01*
X146936129Y-81869114D01*
X147180098Y-81940697D01*
X147993195Y-81127600D01*
X147180098Y-80314503D01*
X146936129Y-80386086D01*
X146815229Y-80641596D01*
X146746500Y-80915784D01*
X146732583Y-81198112D01*
X140660000Y-81198112D01*
X140660000Y-80134898D01*
X147359703Y-80134898D01*
X148172800Y-80947995D01*
X148985897Y-80134898D01*
X148914314Y-79890929D01*
X148658804Y-79770029D01*
X148384616Y-79701300D01*
X148102288Y-79687383D01*
X147822670Y-79728813D01*
X147556508Y-79823997D01*
X147431286Y-79890929D01*
X147359703Y-80134898D01*
X140660000Y-80134898D01*
X140660000Y-78767502D01*
X147258103Y-78767502D01*
X147329686Y-79011471D01*
X147585196Y-79132371D01*
X147859384Y-79201100D01*
X148141712Y-79215017D01*
X148421330Y-79173587D01*
X148687492Y-79078403D01*
X148812714Y-79011471D01*
X148884297Y-78767502D01*
X148071200Y-77954405D01*
X147258103Y-78767502D01*
X140660000Y-78767502D01*
X140660000Y-77845312D01*
X146630983Y-77845312D01*
X146672413Y-78124930D01*
X146767597Y-78391092D01*
X146834529Y-78516314D01*
X147078498Y-78587897D01*
X147891595Y-77774800D01*
X147078498Y-76961703D01*
X146834529Y-77033286D01*
X146713629Y-77288796D01*
X146644900Y-77562984D01*
X146630983Y-77845312D01*
X140660000Y-77845312D01*
X140660000Y-76782098D01*
X147258103Y-76782098D01*
X148071200Y-77595195D01*
X148884297Y-76782098D01*
X148812714Y-76538129D01*
X148557204Y-76417229D01*
X148283016Y-76348500D01*
X148000688Y-76334583D01*
X147721070Y-76376013D01*
X147454908Y-76471197D01*
X147329686Y-76538129D01*
X147258103Y-76782098D01*
X140660000Y-76782098D01*
X140660000Y-74919722D01*
X141058825Y-74919722D01*
X141123425Y-75132694D01*
X141273469Y-75437929D01*
X141480178Y-75708027D01*
X141735609Y-75932608D01*
X142029946Y-76103042D01*
X142351877Y-76212779D01*
X142621000Y-76095200D01*
X142621000Y-74650600D01*
X142875000Y-74650600D01*
X142875000Y-76095200D01*
X143144123Y-76212779D01*
X143466054Y-76103042D01*
X143760391Y-75932608D01*
X144015822Y-75708027D01*
X144222531Y-75437929D01*
X144372575Y-75132694D01*
X144437175Y-74919722D01*
X144319125Y-74650600D01*
X142875000Y-74650600D01*
X142621000Y-74650600D01*
X141176875Y-74650600D01*
X141058825Y-74919722D01*
X140660000Y-74919722D01*
X140660000Y-73160000D01*
X141683963Y-73160000D01*
X141480178Y-73339173D01*
%TA.AperFunction,Conductor*%
D25*
G36*
X141480178Y-73339173D02*
G01*
X141273469Y-73609271D01*
X141123425Y-73914506D01*
X141058825Y-74127478D01*
X141176875Y-74396600D01*
X142621000Y-74396600D01*
X142621000Y-74376600D01*
X142875000Y-74376600D01*
X142875000Y-74396600D01*
X144319125Y-74396600D01*
X144437175Y-74127478D01*
X144372575Y-73914506D01*
X144222531Y-73609271D01*
X144015822Y-73339173D01*
X143812037Y-73160000D01*
X151228878Y-73160000D01*
X151218498Y-73179420D01*
X151182188Y-73299118D01*
X151169928Y-73423600D01*
X151169928Y-75623600D01*
X151182188Y-75748082D01*
X151218498Y-75867780D01*
X151277463Y-75978094D01*
X151356815Y-76074785D01*
X151453506Y-76154137D01*
X151563820Y-76213102D01*
X151683518Y-76249412D01*
X151808000Y-76261672D01*
X152279153Y-76261672D01*
X152125038Y-76415787D01*
X151978939Y-76634441D01*
X151878304Y-76877395D01*
X151836811Y-77085990D01*
X151685837Y-76860041D01*
X151485959Y-76660163D01*
X151250927Y-76503120D01*
X150989774Y-76394947D01*
X150712535Y-76339800D01*
X150429865Y-76339800D01*
X150152626Y-76394947D01*
X149891473Y-76503120D01*
X149656441Y-76660163D01*
X149456563Y-76860041D01*
X149322508Y-77060669D01*
X149307871Y-77033286D01*
X149063902Y-76961703D01*
X148250805Y-77774800D01*
X149063902Y-78587897D01*
X149307871Y-78516314D01*
X149321524Y-78487459D01*
X149456563Y-78689559D01*
X149656441Y-78889437D01*
X149891473Y-79046480D01*
X150152626Y-79154653D01*
X150429865Y-79209800D01*
X150712535Y-79209800D01*
X150989774Y-79154653D01*
X151250927Y-79046480D01*
X151485959Y-78889437D01*
X151685837Y-78689559D01*
X151842880Y-78454527D01*
X151951053Y-78193374D01*
X152002548Y-77934493D01*
X152125038Y-78117813D01*
X152310987Y-78303762D01*
X152529641Y-78449861D01*
X152772595Y-78550496D01*
X153030514Y-78601800D01*
X153293486Y-78601800D01*
X153551405Y-78550496D01*
X153794359Y-78449861D01*
X154013013Y-78303762D01*
X154198962Y-78117813D01*
X154345061Y-77899159D01*
X154445696Y-77656205D01*
X154459961Y-77584489D01*
X154587363Y-77775159D01*
X154787241Y-77975037D01*
X155022273Y-78132080D01*
X155283426Y-78240253D01*
X155560665Y-78295400D01*
X155843335Y-78295400D01*
X156120574Y-78240253D01*
X156381727Y-78132080D01*
X156616759Y-77975037D01*
X156816637Y-77775159D01*
X156973680Y-77540127D01*
X157081853Y-77278974D01*
X157137000Y-77001735D01*
X157137000Y-76719065D01*
X157081853Y-76441826D01*
X156973680Y-76180673D01*
X156935679Y-76123801D01*
X164839889Y-76123801D01*
X164907838Y-76191750D01*
X168183271Y-79467184D01*
X168103273Y-79500320D01*
X167868241Y-79657363D01*
X167668363Y-79857241D01*
X167513000Y-80089759D01*
X167357637Y-79857241D01*
X167157759Y-79657363D01*
X166922727Y-79500320D01*
X166661574Y-79392147D01*
X166384335Y-79337000D01*
X166101665Y-79337000D01*
X165824426Y-79392147D01*
X165563273Y-79500320D01*
X165328241Y-79657363D01*
X165128363Y-79857241D01*
X164973000Y-80089759D01*
X164817637Y-79857241D01*
X164617759Y-79657363D01*
X164382727Y-79500320D01*
X164121574Y-79392147D01*
X163844335Y-79337000D01*
X163561665Y-79337000D01*
X163284426Y-79392147D01*
X163023273Y-79500320D01*
X162788241Y-79657363D01*
X162588363Y-79857241D01*
X162431320Y-80092273D01*
X162426933Y-80102865D01*
X162315385Y-79916869D01*
X162126414Y-79708481D01*
X161900420Y-79540963D01*
X161646087Y-79420754D01*
X161512039Y-79380096D01*
X161290000Y-79502085D01*
X161290000Y-80645000D01*
X161310000Y-80645000D01*
X161310000Y-80899000D01*
X161290000Y-80899000D01*
X161290000Y-82041915D01*
X161512039Y-82163904D01*
X161646087Y-82123246D01*
X161900420Y-82003037D01*
X162126414Y-81835519D01*
X162315385Y-81627131D01*
X162426933Y-81441135D01*
X162431320Y-81451727D01*
X162588363Y-81686759D01*
X162788241Y-81886637D01*
X163023273Y-82043680D01*
X163284426Y-82151853D01*
X163561665Y-82207000D01*
X163844335Y-82207000D01*
X164121574Y-82151853D01*
X164382727Y-82043680D01*
X164617759Y-81886637D01*
X164817637Y-81686759D01*
X164973000Y-81454241D01*
X165128363Y-81686759D01*
X165328241Y-81886637D01*
X165563273Y-82043680D01*
X165824426Y-82151853D01*
X166101665Y-82207000D01*
X166384335Y-82207000D01*
X166661574Y-82151853D01*
X166922727Y-82043680D01*
X167157759Y-81886637D01*
X167357637Y-81686759D01*
X167513000Y-81454241D01*
X167668363Y-81686759D01*
X167868241Y-81886637D01*
X168103273Y-82043680D01*
X168364426Y-82151853D01*
X168641665Y-82207000D01*
X168924335Y-82207000D01*
X169201574Y-82151853D01*
X169462727Y-82043680D01*
X169697759Y-81886637D01*
X169897637Y-81686759D01*
X170053000Y-81454241D01*
X170208363Y-81686759D01*
X170408241Y-81886637D01*
X170643273Y-82043680D01*
X170904426Y-82151853D01*
X171181665Y-82207000D01*
X171464335Y-82207000D01*
X171741574Y-82151853D01*
X172002727Y-82043680D01*
X172237759Y-81886637D01*
X172437637Y-81686759D01*
X172593000Y-81454241D01*
X172748363Y-81686759D01*
X172948241Y-81886637D01*
X173183273Y-82043680D01*
X173444426Y-82151853D01*
X173721665Y-82207000D01*
X173890370Y-82207000D01*
X173242570Y-82854800D01*
X158191314Y-82854800D01*
X158164135Y-82827621D01*
X157997729Y-82716432D01*
X157812829Y-82639844D01*
X157616540Y-82600800D01*
X157416406Y-82600800D01*
X157226010Y-82638672D01*
X157226010Y-81104422D01*
X157243147Y-81190574D01*
X157351320Y-81451727D01*
X157508363Y-81686759D01*
X157708241Y-81886637D01*
X157943273Y-82043680D01*
X158204426Y-82151853D01*
X158481665Y-82207000D01*
X158764335Y-82207000D01*
X159041574Y-82151853D01*
X159302727Y-82043680D01*
X159537759Y-81886637D01*
X159737637Y-81686759D01*
X159894680Y-81451727D01*
X159899067Y-81441135D01*
X160010615Y-81627131D01*
X160199586Y-81835519D01*
X160425580Y-82003037D01*
X160679913Y-82123246D01*
X160813961Y-82163904D01*
X161036000Y-82041915D01*
X161036000Y-80899000D01*
X161016000Y-80899000D01*
X161016000Y-80645000D01*
X161036000Y-80645000D01*
X161036000Y-79502085D01*
X160813961Y-79380096D01*
X160679913Y-79420754D01*
X160425580Y-79540963D01*
X160199586Y-79708481D01*
X160010615Y-79916869D01*
X159899067Y-80102865D01*
X159894680Y-80092273D01*
X159737637Y-79857241D01*
X159537759Y-79657363D01*
X159302727Y-79500320D01*
X159041574Y-79392147D01*
X158764335Y-79337000D01*
X158481665Y-79337000D01*
X158204426Y-79392147D01*
X157943273Y-79500320D01*
X157708241Y-79657363D01*
X157508363Y-79857241D01*
X157351320Y-80092273D01*
X157243147Y-80353426D01*
X157226010Y-80439578D01*
X157226010Y-80352232D01*
X157229696Y-80314809D01*
X157226010Y-80277384D01*
X157214984Y-80165432D01*
X157175200Y-80034282D01*
X157175200Y-79909933D01*
X157136156Y-79713644D01*
X157059568Y-79528744D01*
X156948379Y-79362338D01*
X156806862Y-79220821D01*
X156640456Y-79109632D01*
X156455556Y-79033044D01*
X156259267Y-78994000D01*
X156059133Y-78994000D01*
X155862844Y-79033044D01*
X155677944Y-79109632D01*
X155511538Y-79220821D01*
X155370021Y-79362338D01*
X155258832Y-79528744D01*
X155182244Y-79713644D01*
X155143200Y-79909933D01*
X155143200Y-80110067D01*
X155182244Y-80306356D01*
X155258832Y-80491256D01*
X155370021Y-80657662D01*
X155511538Y-80799179D01*
X155677944Y-80910368D01*
X155702010Y-80920336D01*
X155702010Y-85841180D01*
X154476114Y-84615284D01*
X154497000Y-84510286D01*
X154497000Y-84247314D01*
X154445696Y-83989395D01*
X154345061Y-83746441D01*
X154198962Y-83527787D01*
X154033975Y-83362800D01*
X154198962Y-83197813D01*
X154345061Y-82979159D01*
X154445696Y-82736205D01*
X154497000Y-82478286D01*
X154497000Y-82215314D01*
X154445696Y-81957395D01*
X154345061Y-81714441D01*
X154198962Y-81495787D01*
X154013013Y-81309838D01*
X153794359Y-81163739D01*
X153551405Y-81063104D01*
X153293486Y-81011800D01*
X153030514Y-81011800D01*
X152772595Y-81063104D01*
X152529641Y-81163739D01*
X152310987Y-81309838D01*
X152125038Y-81495787D01*
X151989504Y-81698629D01*
X152052653Y-81546174D01*
X152107800Y-81268935D01*
X152107800Y-80986265D01*
X152052653Y-80709026D01*
X151944480Y-80447873D01*
X151787437Y-80212841D01*
X151587559Y-80012963D01*
X151352527Y-79855920D01*
X151091374Y-79747747D01*
X150814135Y-79692600D01*
X150531465Y-79692600D01*
X150254226Y-79747747D01*
X149993073Y-79855920D01*
X149758041Y-80012963D01*
X149558163Y-80212841D01*
X149424108Y-80413469D01*
X149409471Y-80386086D01*
X149165502Y-80314503D01*
X148352405Y-81127600D01*
X149165502Y-81940697D01*
X149409471Y-81869114D01*
X149423124Y-81840259D01*
X149558163Y-82042359D01*
X149758041Y-82242237D01*
X149993073Y-82399280D01*
X150254226Y-82507453D01*
X150531465Y-82562600D01*
X150814135Y-82562600D01*
X151091374Y-82507453D01*
X151352527Y-82399280D01*
X151587559Y-82242237D01*
X151787437Y-82042359D01*
X151933915Y-81823139D01*
X151878304Y-81957395D01*
X151827000Y-82215314D01*
X151827000Y-82478286D01*
X151878304Y-82736205D01*
X151978939Y-82979159D01*
X152125038Y-83197813D01*
X152290025Y-83362800D01*
X152125038Y-83527787D01*
X151978939Y-83746441D01*
X151878304Y-83989395D01*
X151827000Y-84247314D01*
X151827000Y-84510286D01*
X151878304Y-84768205D01*
X151978939Y-85011159D01*
X152125038Y-85229813D01*
X152310987Y-85415762D01*
X152529641Y-85561861D01*
X152772595Y-85662496D01*
X153030514Y-85713800D01*
X153293486Y-85713800D01*
X153398484Y-85692914D01*
X155194000Y-87488430D01*
X155194001Y-98005027D01*
X155073114Y-98085801D01*
X154880201Y-98278714D01*
X154728629Y-98505557D01*
X154624225Y-98757611D01*
X154571000Y-99025189D01*
X154571000Y-99298011D01*
X154599364Y-99440606D01*
X149814369Y-104225601D01*
X146646672Y-104225601D01*
X146646672Y-102606600D01*
X146634412Y-102482118D01*
X146598102Y-102362420D01*
X146539137Y-102252106D01*
X146459785Y-102155415D01*
X146363094Y-102076063D01*
X146252780Y-102017098D01*
X146133082Y-101980788D01*
X146008600Y-101968528D01*
X144008600Y-101968528D01*
X143884118Y-101980788D01*
X143764420Y-102017098D01*
X143654106Y-102076063D01*
X143557415Y-102155415D01*
X143478063Y-102252106D01*
X143453409Y-102298230D01*
X143243063Y-102157682D01*
X142945512Y-102034432D01*
X142629633Y-101971600D01*
X142307567Y-101971600D01*
X141991688Y-102034432D01*
X141694137Y-102157682D01*
X141426348Y-102336613D01*
X141198613Y-102564348D01*
X141019682Y-102832137D01*
X140896432Y-103129688D01*
X140833600Y-103445567D01*
X140833600Y-103767633D01*
X140896432Y-104083512D01*
X141019682Y-104381063D01*
X141198613Y-104648852D01*
X141426348Y-104876587D01*
X141694137Y-105055518D01*
X141991688Y-105178768D01*
X142307567Y-105241600D01*
X142629633Y-105241600D01*
X142945512Y-105178768D01*
X142957975Y-105173606D01*
X143284322Y-105499953D01*
X143308179Y-105529023D01*
X143424209Y-105624246D01*
X143556586Y-105695003D01*
X143700223Y-105738575D01*
X143812175Y-105749601D01*
X143812177Y-105749601D01*
X143849600Y-105753287D01*
X143887023Y-105749601D01*
X146591562Y-105749601D01*
X146543800Y-105989714D01*
X146543800Y-106252686D01*
X146595104Y-106510605D01*
X146695739Y-106753559D01*
X146841838Y-106972213D01*
X147027787Y-107158162D01*
X147246441Y-107304261D01*
X147489395Y-107404896D01*
X147747314Y-107456200D01*
X148010286Y-107456200D01*
X148268205Y-107404896D01*
X148511159Y-107304261D01*
X148729813Y-107158162D01*
X148915762Y-106972213D01*
X149061861Y-106753559D01*
X149162496Y-106510605D01*
X149213800Y-106252686D01*
X149213800Y-105989714D01*
X149166038Y-105749601D01*
X150092576Y-105749601D01*
X150129999Y-105753287D01*
X150167422Y-105749601D01*
X150167425Y-105749601D01*
X150279377Y-105738575D01*
X150423014Y-105695003D01*
X150555391Y-105624246D01*
X150671421Y-105529023D01*
X150695283Y-105499947D01*
X155676994Y-100518236D01*
X155819589Y-100546600D01*
X156092411Y-100546600D01*
X156359989Y-100493375D01*
X156612043Y-100388971D01*
X156838886Y-100237399D01*
X157031799Y-100044486D01*
X157183371Y-99817643D01*
X157226000Y-99714727D01*
X157268629Y-99817643D01*
X157420201Y-100044486D01*
X157613114Y-100237399D01*
X157839957Y-100388971D01*
X158092011Y-100493375D01*
X158359589Y-100546600D01*
X158632411Y-100546600D01*
X158899989Y-100493375D01*
X159143000Y-100392717D01*
X159143000Y-102516969D01*
X156235006Y-105424964D01*
X156092411Y-105396600D01*
X155819589Y-105396600D01*
X155552011Y-105449825D01*
X155299957Y-105554229D01*
X155073114Y-105705801D01*
X154880201Y-105898714D01*
X154728629Y-106125557D01*
X154624225Y-106377611D01*
X154571000Y-106645189D01*
X154571000Y-106655770D01*
X154272914Y-106357684D01*
X154293800Y-106252686D01*
X154293800Y-105989714D01*
X154242496Y-105731795D01*
X154141861Y-105488841D01*
X153995762Y-105270187D01*
X153809813Y-105084238D01*
X153591159Y-104938139D01*
X153348205Y-104837504D01*
X153090286Y-104786200D01*
X152827314Y-104786200D01*
X152569395Y-104837504D01*
X152326441Y-104938139D01*
X152107787Y-105084238D01*
X151921838Y-105270187D01*
X151775739Y-105488841D01*
X151675104Y-105731795D01*
X151623800Y-105989714D01*
X151623800Y-106252686D01*
X151675104Y-106510605D01*
X151775739Y-106753559D01*
X151921838Y-106972213D01*
X152107787Y-107158162D01*
X152326441Y-107304261D01*
X152569395Y-107404896D01*
X152827314Y-107456200D01*
X153090286Y-107456200D01*
X153195284Y-107435314D01*
X154184917Y-108424947D01*
X154208779Y-108454023D01*
X154245013Y-108483759D01*
X154324808Y-108549246D01*
X154395565Y-108587066D01*
X154457186Y-108620003D01*
X154600823Y-108663575D01*
X154712775Y-108674601D01*
X154712778Y-108674601D01*
X154750201Y-108678287D01*
X154787624Y-108674601D01*
X164081458Y-108674601D01*
X164118881Y-108678287D01*
X164156304Y-108674601D01*
X164156307Y-108674601D01*
X164268259Y-108663575D01*
X164411896Y-108620003D01*
X164544273Y-108549246D01*
X164660303Y-108454023D01*
X164684165Y-108424947D01*
X165959114Y-107149999D01*
X169689324Y-107149999D01*
X169689147Y-107150426D01*
X169634000Y-107427665D01*
X169634000Y-107710335D01*
X169689147Y-107987574D01*
X169797320Y-108248727D01*
X169954363Y-108483759D01*
X170154241Y-108683637D01*
X170389273Y-108840680D01*
X170650426Y-108948853D01*
X170927665Y-109004000D01*
X171210335Y-109004000D01*
X171487574Y-108948853D01*
X171748727Y-108840680D01*
X171983759Y-108683637D01*
X172183637Y-108483759D01*
X172339000Y-108251241D01*
X172494363Y-108483759D01*
X172694241Y-108683637D01*
X172929273Y-108840680D01*
X173190426Y-108948853D01*
X173467665Y-109004000D01*
X173750335Y-109004000D01*
X174027574Y-108948853D01*
X174288727Y-108840680D01*
X174523759Y-108683637D01*
X174723637Y-108483759D01*
X174879000Y-108251241D01*
X175034363Y-108483759D01*
X175234241Y-108683637D01*
X175469273Y-108840680D01*
X175730426Y-108948853D01*
X176007665Y-109004000D01*
X176290335Y-109004000D01*
X176567574Y-108948853D01*
X176828727Y-108840680D01*
X177063759Y-108683637D01*
X177263637Y-108483759D01*
X177419000Y-108251241D01*
X177574363Y-108483759D01*
X177774241Y-108683637D01*
X178009273Y-108840680D01*
X178270426Y-108948853D01*
X178547665Y-109004000D01*
X178830335Y-109004000D01*
X179107574Y-108948853D01*
X179368727Y-108840680D01*
X179603759Y-108683637D01*
X179803637Y-108483759D01*
X179960680Y-108248727D01*
X180068853Y-107987574D01*
X180124000Y-107710335D01*
X180124000Y-107427665D01*
X180068853Y-107150426D01*
X179960680Y-106889273D01*
X179803637Y-106654241D01*
X179603759Y-106454363D01*
X179368727Y-106297320D01*
X179107574Y-106189147D01*
X178830335Y-106134000D01*
X178547665Y-106134000D01*
X178270426Y-106189147D01*
X178009273Y-106297320D01*
X177774241Y-106454363D01*
X177574363Y-106654241D01*
X177419000Y-106886759D01*
X177263637Y-106654241D01*
X177063759Y-106454363D01*
X176828727Y-106297320D01*
X176567574Y-106189147D01*
X176290335Y-106134000D01*
X176007665Y-106134000D01*
X175832611Y-106168821D01*
X181995352Y-100006081D01*
X182024422Y-99982224D01*
X182119645Y-99866194D01*
X182190402Y-99733817D01*
X182233974Y-99590180D01*
X182245000Y-99478228D01*
X182245000Y-99478226D01*
X182248686Y-99440803D01*
X182245000Y-99403380D01*
X182245000Y-97228707D01*
X182397759Y-97126637D01*
X182597637Y-96926759D01*
X182753000Y-96694241D01*
X182908363Y-96926759D01*
X183108241Y-97126637D01*
X183343273Y-97283680D01*
X183604426Y-97391853D01*
X183881665Y-97447000D01*
X184164335Y-97447000D01*
X184441574Y-97391853D01*
X184702727Y-97283680D01*
X184937759Y-97126637D01*
X185137637Y-96926759D01*
X185293000Y-96694241D01*
X185448363Y-96926759D01*
X185648241Y-97126637D01*
X185883273Y-97283680D01*
X186144426Y-97391853D01*
X186421665Y-97447000D01*
X186704335Y-97447000D01*
X186981574Y-97391853D01*
X187242727Y-97283680D01*
X187477759Y-97126637D01*
X187677637Y-96926759D01*
X187833000Y-96694241D01*
X187988363Y-96926759D01*
X188188241Y-97126637D01*
X188423273Y-97283680D01*
X188684426Y-97391853D01*
X188961665Y-97447000D01*
X189244335Y-97447000D01*
X189521574Y-97391853D01*
X189782727Y-97283680D01*
X190017759Y-97126637D01*
X190217637Y-96926759D01*
X190373000Y-96694241D01*
X190528363Y-96926759D01*
X190728241Y-97126637D01*
X190963273Y-97283680D01*
X191224426Y-97391853D01*
X191501665Y-97447000D01*
X191784335Y-97447000D01*
X192061574Y-97391853D01*
X192322727Y-97283680D01*
X192557759Y-97126637D01*
X192757637Y-96926759D01*
X192913000Y-96694241D01*
X193068363Y-96926759D01*
X193268241Y-97126637D01*
X193503273Y-97283680D01*
X193764426Y-97391853D01*
X194041665Y-97447000D01*
X194324335Y-97447000D01*
X194601574Y-97391853D01*
X194862727Y-97283680D01*
X195097759Y-97126637D01*
X195297637Y-96926759D01*
X195454680Y-96691727D01*
X195562853Y-96430574D01*
X195618000Y-96153335D01*
X195618000Y-95870665D01*
X195562853Y-95593426D01*
X195454680Y-95332273D01*
X195297637Y-95097241D01*
X195097759Y-94897363D01*
X194862727Y-94740320D01*
X194601574Y-94632147D01*
X194324335Y-94577000D01*
X194041665Y-94577000D01*
X193764426Y-94632147D01*
X193503273Y-94740320D01*
X193268241Y-94897363D01*
X193068363Y-95097241D01*
X192913000Y-95329759D01*
X192757637Y-95097241D01*
X192557759Y-94897363D01*
X192322727Y-94740320D01*
X192061574Y-94632147D01*
X191784335Y-94577000D01*
X191501665Y-94577000D01*
X191224426Y-94632147D01*
X190963273Y-94740320D01*
X190728241Y-94897363D01*
X190528363Y-95097241D01*
X190373000Y-95329759D01*
X190217637Y-95097241D01*
X190017759Y-94897363D01*
X189782727Y-94740320D01*
X189521574Y-94632147D01*
X189244335Y-94577000D01*
X188961665Y-94577000D01*
X188684426Y-94632147D01*
X188423273Y-94740320D01*
X188188241Y-94897363D01*
X187988363Y-95097241D01*
X187833000Y-95329759D01*
X187677637Y-95097241D01*
X187477759Y-94897363D01*
X187242727Y-94740320D01*
X186981574Y-94632147D01*
X186704335Y-94577000D01*
X186421665Y-94577000D01*
X186144426Y-94632147D01*
X185883273Y-94740320D01*
X185648241Y-94897363D01*
X185448363Y-95097241D01*
X185293000Y-95329759D01*
X185137637Y-95097241D01*
X184937759Y-94897363D01*
X184702727Y-94740320D01*
X184441574Y-94632147D01*
X184164335Y-94577000D01*
X183881665Y-94577000D01*
X183604426Y-94632147D01*
X183343273Y-94740320D01*
X183108241Y-94897363D01*
X182908363Y-95097241D01*
X182753000Y-95329759D01*
X182597637Y-95097241D01*
X182397759Y-94897363D01*
X182162727Y-94740320D01*
X181901574Y-94632147D01*
X181624335Y-94577000D01*
X181341665Y-94577000D01*
X181064426Y-94632147D01*
X180803273Y-94740320D01*
X180568241Y-94897363D01*
X180368363Y-95097241D01*
X180213000Y-95329759D01*
X180057637Y-95097241D01*
X179857759Y-94897363D01*
X179622727Y-94740320D01*
X179361574Y-94632147D01*
X179084335Y-94577000D01*
X178801665Y-94577000D01*
X178524426Y-94632147D01*
X178263273Y-94740320D01*
X178028241Y-94897363D01*
X177828363Y-95097241D01*
X177673000Y-95329759D01*
X177517637Y-95097241D01*
X177317759Y-94897363D01*
X177082727Y-94740320D01*
X176821574Y-94632147D01*
X176544335Y-94577000D01*
X176261665Y-94577000D01*
X175984426Y-94632147D01*
X175723273Y-94740320D01*
X175488241Y-94897363D01*
X175288363Y-95097241D01*
X175133000Y-95329759D01*
X174977637Y-95097241D01*
X174777759Y-94897363D01*
X174542727Y-94740320D01*
X174281574Y-94632147D01*
X174004335Y-94577000D01*
X173721665Y-94577000D01*
X173444426Y-94632147D01*
X173183273Y-94740320D01*
X172948241Y-94897363D01*
X172748363Y-95097241D01*
X172593000Y-95329759D01*
X172437637Y-95097241D01*
X172237759Y-94897363D01*
X172002727Y-94740320D01*
X171741574Y-94632147D01*
X171464335Y-94577000D01*
X171181665Y-94577000D01*
X170904426Y-94632147D01*
X170643273Y-94740320D01*
X170408241Y-94897363D01*
X170208363Y-95097241D01*
X170053000Y-95329759D01*
X169897637Y-95097241D01*
X169697759Y-94897363D01*
X169462727Y-94740320D01*
X169201574Y-94632147D01*
X168924335Y-94577000D01*
X168641665Y-94577000D01*
X168364426Y-94632147D01*
X168103273Y-94740320D01*
X167868241Y-94897363D01*
X167668363Y-95097241D01*
X167511320Y-95332273D01*
X167506933Y-95342865D01*
X167395385Y-95156869D01*
X167206414Y-94948481D01*
X166980420Y-94780963D01*
X166726087Y-94660754D01*
X166592039Y-94620096D01*
X166370000Y-94742085D01*
X166370000Y-95885000D01*
X166390000Y-95885000D01*
X166390000Y-96139000D01*
X166370000Y-96139000D01*
X166370000Y-97281915D01*
X166592039Y-97403904D01*
X166726087Y-97363246D01*
X166980420Y-97243037D01*
X167206414Y-97075519D01*
X167395385Y-96867131D01*
X167506933Y-96681135D01*
X167511320Y-96691727D01*
X167668363Y-96926759D01*
X167868241Y-97126637D01*
X168021001Y-97228707D01*
X168021000Y-98718969D01*
X161315006Y-105424964D01*
X161172411Y-105396600D01*
X160899589Y-105396600D01*
X160632011Y-105449825D01*
X160379957Y-105554229D01*
X160153114Y-105705801D01*
X159960201Y-105898714D01*
X159808629Y-106125557D01*
X159766000Y-106228473D01*
X159723371Y-106125557D01*
X159571799Y-105898714D01*
X159378886Y-105705801D01*
X159152043Y-105554229D01*
X158899989Y-105449825D01*
X158632411Y-105396600D01*
X158418630Y-105396600D01*
X160417351Y-103397880D01*
X160446421Y-103374023D01*
X160496021Y-103313585D01*
X160541644Y-103257994D01*
X160612400Y-103125617D01*
X160612401Y-103125616D01*
X160655973Y-102981979D01*
X160666999Y-102870027D01*
X160666999Y-102870024D01*
X160670685Y-102832601D01*
X160666999Y-102795178D01*
X160666999Y-100500335D01*
X160899589Y-100546600D01*
X161172411Y-100546600D01*
X161439989Y-100493375D01*
X161692043Y-100388971D01*
X161918886Y-100237399D01*
X162037692Y-100118593D01*
X162798612Y-100118593D01*
X162864137Y-100357460D01*
X163111116Y-100473360D01*
X163375960Y-100538850D01*
X163648492Y-100551412D01*
X163918238Y-100510565D01*
X164174832Y-100417877D01*
X164287863Y-100357460D01*
X164353388Y-100118593D01*
X163576000Y-99341205D01*
X162798612Y-100118593D01*
X162037692Y-100118593D01*
X162111799Y-100044486D01*
X162263371Y-99817643D01*
X162304511Y-99718321D01*
X162319723Y-99760432D01*
X162380140Y-99873463D01*
X162619007Y-99938988D01*
X163396395Y-99161600D01*
X163755605Y-99161600D01*
X164532993Y-99938988D01*
X164771860Y-99873463D01*
X164887760Y-99626484D01*
X164953250Y-99361640D01*
X164965812Y-99089108D01*
X164924965Y-98819362D01*
X164832277Y-98562768D01*
X164771860Y-98449737D01*
X164532993Y-98384212D01*
X163755605Y-99161600D01*
X163396395Y-99161600D01*
X162619007Y-98384212D01*
X162380140Y-98449737D01*
X162305836Y-98608077D01*
X162263371Y-98505557D01*
X162111799Y-98278714D01*
X162037692Y-98204607D01*
X162798612Y-98204607D01*
X163576000Y-98981995D01*
X164353388Y-98204607D01*
X164287863Y-97965740D01*
X164040884Y-97849840D01*
X163776040Y-97784350D01*
X163503508Y-97771788D01*
X163233762Y-97812635D01*
X162977168Y-97905323D01*
X162864137Y-97965740D01*
X162798612Y-98204607D01*
X162037692Y-98204607D01*
X161918886Y-98085801D01*
X161692043Y-97934229D01*
X161439989Y-97829825D01*
X161172411Y-97776600D01*
X160899589Y-97776600D01*
X160666999Y-97822865D01*
X160666999Y-97585631D01*
X160841473Y-97411157D01*
X161021665Y-97447000D01*
X161304335Y-97447000D01*
X161581574Y-97391853D01*
X161842727Y-97283680D01*
X162077759Y-97126637D01*
X162277637Y-96926759D01*
X162433000Y-96694241D01*
X162588363Y-96926759D01*
X162788241Y-97126637D01*
X163023273Y-97283680D01*
X163284426Y-97391853D01*
X163561665Y-97447000D01*
X163844335Y-97447000D01*
X164121574Y-97391853D01*
X164382727Y-97283680D01*
X164617759Y-97126637D01*
X164817637Y-96926759D01*
X164974680Y-96691727D01*
X164979067Y-96681135D01*
X165090615Y-96867131D01*
X165279586Y-97075519D01*
X165505580Y-97243037D01*
X165759913Y-97363246D01*
X165893961Y-97403904D01*
X166116000Y-97281915D01*
X166116000Y-96139000D01*
X166096000Y-96139000D01*
X166096000Y-95885000D01*
X166116000Y-95885000D01*
X166116000Y-94742085D01*
X165893961Y-94620096D01*
X165759913Y-94660754D01*
X165505580Y-94780963D01*
X165279586Y-94948481D01*
X165090615Y-95156869D01*
X164979067Y-95342865D01*
X164974680Y-95332273D01*
X164817637Y-95097241D01*
X164617759Y-94897363D01*
X164382727Y-94740320D01*
X164121574Y-94632147D01*
X163844335Y-94577000D01*
X163561665Y-94577000D01*
X163284426Y-94632147D01*
X163023273Y-94740320D01*
X162788241Y-94897363D01*
X162588363Y-95097241D01*
X162433000Y-95329759D01*
X162277637Y-95097241D01*
X162077759Y-94897363D01*
X161842727Y-94740320D01*
X161581574Y-94632147D01*
X161304335Y-94577000D01*
X161021665Y-94577000D01*
X160744426Y-94632147D01*
X160483273Y-94740320D01*
X160248241Y-94897363D01*
X160049643Y-95095961D01*
X160048812Y-95087518D01*
X160012502Y-94967820D01*
X159953537Y-94857506D01*
X159874185Y-94760815D01*
X159777494Y-94681463D01*
X159667180Y-94622498D01*
X159547482Y-94586188D01*
X159423000Y-94573928D01*
X157823000Y-94573928D01*
X157698518Y-94586188D01*
X157578820Y-94622498D01*
X157468506Y-94681463D01*
X157371815Y-94760815D01*
X157292463Y-94857506D01*
X157233498Y-94967820D01*
X157226010Y-94992505D01*
X157226010Y-84594928D01*
X157416406Y-84632800D01*
X157616540Y-84632800D01*
X157812829Y-84593756D01*
X157997729Y-84517168D01*
X158164135Y-84405979D01*
X158191314Y-84378800D01*
X173520777Y-84378800D01*
X173558200Y-84382486D01*
X173595623Y-84378800D01*
X173595626Y-84378800D01*
X173707578Y-84367774D01*
X173851215Y-84324202D01*
X173983592Y-84253445D01*
X174099622Y-84158222D01*
X174123484Y-84129146D01*
X176081473Y-82171157D01*
X176261665Y-82207000D01*
X176544335Y-82207000D01*
X176821574Y-82151853D01*
X177082727Y-82043680D01*
X177317759Y-81886637D01*
X177517637Y-81686759D01*
X177673000Y-81454241D01*
X177828363Y-81686759D01*
X178028241Y-81886637D01*
X178263273Y-82043680D01*
X178524426Y-82151853D01*
X178801665Y-82207000D01*
X179084335Y-82207000D01*
X179361574Y-82151853D01*
X179622727Y-82043680D01*
X179857759Y-81886637D01*
X180057637Y-81686759D01*
X180213000Y-81454241D01*
X180368363Y-81686759D01*
X180568241Y-81886637D01*
X180803273Y-82043680D01*
X181064426Y-82151853D01*
X181341665Y-82207000D01*
X181624335Y-82207000D01*
X181901574Y-82151853D01*
X182162727Y-82043680D01*
X182397759Y-81886637D01*
X182597637Y-81686759D01*
X182753000Y-81454241D01*
X182908363Y-81686759D01*
X183108241Y-81886637D01*
X183343273Y-82043680D01*
X183604426Y-82151853D01*
X183881665Y-82207000D01*
X184164335Y-82207000D01*
X184441574Y-82151853D01*
X184702727Y-82043680D01*
X184937759Y-81886637D01*
X185137637Y-81686759D01*
X185293000Y-81454241D01*
X185448363Y-81686759D01*
X185648241Y-81886637D01*
X185883273Y-82043680D01*
X186144426Y-82151853D01*
X186421665Y-82207000D01*
X186704335Y-82207000D01*
X186981574Y-82151853D01*
X187242727Y-82043680D01*
X187477759Y-81886637D01*
X187677637Y-81686759D01*
X187833000Y-81454241D01*
X187988363Y-81686759D01*
X188188241Y-81886637D01*
X188423273Y-82043680D01*
X188684426Y-82151853D01*
X188961665Y-82207000D01*
X189244335Y-82207000D01*
X189521574Y-82151853D01*
X189782727Y-82043680D01*
X190017759Y-81886637D01*
X190217637Y-81686759D01*
X190373000Y-81454241D01*
X190528363Y-81686759D01*
X190728241Y-81886637D01*
X190963273Y-82043680D01*
X191224426Y-82151853D01*
X191501665Y-82207000D01*
X191784335Y-82207000D01*
X192061574Y-82151853D01*
X192322727Y-82043680D01*
X192557759Y-81886637D01*
X192757637Y-81686759D01*
X192913000Y-81454241D01*
X193068363Y-81686759D01*
X193268241Y-81886637D01*
X193503273Y-82043680D01*
X193764426Y-82151853D01*
X194041665Y-82207000D01*
X194324335Y-82207000D01*
X194601574Y-82151853D01*
X194862727Y-82043680D01*
X195097759Y-81886637D01*
X195297637Y-81686759D01*
X195454680Y-81451727D01*
X195562853Y-81190574D01*
X195618000Y-80913335D01*
X195618000Y-80630665D01*
X195562853Y-80353426D01*
X195454680Y-80092273D01*
X195297637Y-79857241D01*
X195097759Y-79657363D01*
X194862727Y-79500320D01*
X194601574Y-79392147D01*
X194324335Y-79337000D01*
X194041665Y-79337000D01*
X193764426Y-79392147D01*
X193503273Y-79500320D01*
X193268241Y-79657363D01*
X193068363Y-79857241D01*
X192913000Y-80089759D01*
X192757637Y-79857241D01*
X192557759Y-79657363D01*
X192322727Y-79500320D01*
X192061574Y-79392147D01*
X191784335Y-79337000D01*
X191501665Y-79337000D01*
X191321473Y-79372843D01*
X191052031Y-79103401D01*
X194671176Y-79103401D01*
X194708599Y-79107087D01*
X194746022Y-79103401D01*
X194746025Y-79103401D01*
X194857977Y-79092375D01*
X195001614Y-79048803D01*
X195133991Y-78978046D01*
X195250021Y-78882823D01*
X195273883Y-78853747D01*
X196505230Y-77622400D01*
X197194728Y-77622400D01*
X197194728Y-77960400D01*
X197206988Y-78084882D01*
X197243298Y-78204580D01*
X197302263Y-78314894D01*
X197381615Y-78411585D01*
X197478306Y-78490937D01*
X197588620Y-78549902D01*
X197708318Y-78586212D01*
X197832800Y-78598472D01*
X198170800Y-78598472D01*
X198170801Y-92972656D01*
X198170800Y-95696369D01*
X191546626Y-102320543D01*
X191499775Y-102207434D01*
X191288013Y-101890509D01*
X191018491Y-101620987D01*
X190701566Y-101409225D01*
X190349419Y-101263361D01*
X189975581Y-101189000D01*
X189594419Y-101189000D01*
X189220581Y-101263361D01*
X188868434Y-101409225D01*
X188551509Y-101620987D01*
X188281987Y-101890509D01*
X188070225Y-102207434D01*
X187924361Y-102559581D01*
X187850000Y-102933419D01*
X187850000Y-103314581D01*
X187924361Y-103688419D01*
X188070225Y-104040566D01*
X188281987Y-104357491D01*
X188551509Y-104627013D01*
X188868434Y-104838775D01*
X189220581Y-104984639D01*
X189594419Y-105059000D01*
X189975581Y-105059000D01*
X190349419Y-104984639D01*
X190701566Y-104838775D01*
X191018491Y-104627013D01*
X191288013Y-104357491D01*
X191499775Y-104040566D01*
X191563798Y-103886000D01*
X191783377Y-103886000D01*
X191820800Y-103889686D01*
X191858223Y-103886000D01*
X191858226Y-103886000D01*
X191970178Y-103874974D01*
X192113815Y-103831402D01*
X192246192Y-103760645D01*
X192362222Y-103665422D01*
X192386084Y-103636346D01*
X192850000Y-103172430D01*
X192850000Y-103314581D01*
X192924361Y-103688419D01*
X193070225Y-104040566D01*
X193281987Y-104357491D01*
X193551509Y-104627013D01*
X193868434Y-104838775D01*
X194220581Y-104984639D01*
X194594419Y-105059000D01*
X194975581Y-105059000D01*
X195349419Y-104984639D01*
X195701566Y-104838775D01*
X196018491Y-104627013D01*
X196288013Y-104357491D01*
X196499775Y-104040566D01*
X196645639Y-103688419D01*
X196720000Y-103314581D01*
X196720000Y-102933419D01*
X196645639Y-102559581D01*
X196499775Y-102207434D01*
X196288013Y-101890509D01*
X196018491Y-101620987D01*
X195701566Y-101409225D01*
X195349419Y-101263361D01*
X194975581Y-101189000D01*
X194833430Y-101189000D01*
X199445153Y-96577278D01*
X199474222Y-96553422D01*
X199523838Y-96492965D01*
X199569445Y-96437393D01*
X199640201Y-96305016D01*
X199640202Y-96305015D01*
X199651802Y-96266776D01*
X199651802Y-101189000D01*
X199594419Y-101189000D01*
X199220581Y-101263361D01*
X198868434Y-101409225D01*
X198551509Y-101620987D01*
X198281987Y-101890509D01*
X198070225Y-102207434D01*
X197924361Y-102559581D01*
X197850000Y-102933419D01*
X197850000Y-103314581D01*
X197924361Y-103688419D01*
X198070225Y-104040566D01*
X198281987Y-104357491D01*
X198551509Y-104627013D01*
X198868434Y-104838775D01*
X199220581Y-104984639D01*
X199594419Y-105059000D01*
X199975581Y-105059000D01*
X200349419Y-104984639D01*
X200701566Y-104838775D01*
X201018491Y-104627013D01*
X201288013Y-104357491D01*
X201320401Y-104309019D01*
X201320401Y-104586368D01*
X200242770Y-105664000D01*
X188402631Y-105664000D01*
X186723072Y-103984442D01*
X186723072Y-101824000D01*
X186710812Y-101699518D01*
X186674502Y-101579820D01*
X186615537Y-101469506D01*
X186536185Y-101372815D01*
X186439494Y-101293463D01*
X186329180Y-101234498D01*
X186209482Y-101198188D01*
X186085000Y-101185928D01*
X183485000Y-101185928D01*
X183360518Y-101198188D01*
X183240820Y-101234498D01*
X183130506Y-101293463D01*
X183033815Y-101372815D01*
X182954463Y-101469506D01*
X182895498Y-101579820D01*
X182859188Y-101699518D01*
X182846928Y-101824000D01*
X182846928Y-104424000D01*
X182859188Y-104548482D01*
X182895498Y-104668180D01*
X182954463Y-104778494D01*
X183033815Y-104875185D01*
X183130506Y-104954537D01*
X183240820Y-105013502D01*
X183360518Y-105049812D01*
X183485000Y-105062072D01*
X185645442Y-105062072D01*
X187521721Y-106938352D01*
X187545578Y-106967422D01*
X187661608Y-107062645D01*
X187793985Y-107133402D01*
X187937622Y-107176974D01*
X188049574Y-107188000D01*
X188049576Y-107188000D01*
X188086999Y-107191686D01*
X188124422Y-107188000D01*
X200520977Y-107188000D01*
X200558400Y-107191686D01*
X200595823Y-107188000D01*
X200595826Y-107188000D01*
X200707778Y-107176974D01*
X200851415Y-107133402D01*
X200983792Y-107062645D01*
X201099822Y-106967422D01*
X201123684Y-106938346D01*
X202594752Y-105467279D01*
X202623822Y-105443422D01*
X202719045Y-105327392D01*
X202789802Y-105195015D01*
X202833374Y-105051378D01*
X202840001Y-104984092D01*
X202840001Y-109040000D01*
X140660000Y-109040000D01*
X140660000Y-96515514D01*
X151827000Y-96515514D01*
X151827000Y-96778486D01*
X151878304Y-97036405D01*
X151978939Y-97279359D01*
X152125038Y-97498013D01*
X152310987Y-97683962D01*
X152529641Y-97830061D01*
X152772595Y-97930696D01*
X153030514Y-97982000D01*
X153293486Y-97982000D01*
X153551405Y-97930696D01*
X153794359Y-97830061D01*
X154013013Y-97683962D01*
X154198962Y-97498013D01*
X154345061Y-97279359D01*
X154445696Y-97036405D01*
X154497000Y-96778486D01*
X154497000Y-96515514D01*
X154445696Y-96257595D01*
X154345061Y-96014641D01*
X154198962Y-95795987D01*
X154013013Y-95610038D01*
X153794359Y-95463939D01*
X153551405Y-95363304D01*
X153293486Y-95312000D01*
X153030514Y-95312000D01*
X152772595Y-95363304D01*
X152529641Y-95463939D01*
X152310987Y-95610038D01*
X152125038Y-95795987D01*
X151978939Y-96014641D01*
X151878304Y-96257595D01*
X151827000Y-96515514D01*
X140660000Y-96515514D01*
X140660000Y-91959065D01*
X144208600Y-91959065D01*
X144208600Y-92241735D01*
X144263747Y-92518974D01*
X144371920Y-92780127D01*
X144528963Y-93015159D01*
X144728841Y-93215037D01*
X144963873Y-93372080D01*
X145225026Y-93480253D01*
X145502265Y-93535400D01*
X145784935Y-93535400D01*
X146062174Y-93480253D01*
X146323327Y-93372080D01*
X146558359Y-93215037D01*
X146758237Y-93015159D01*
X146915280Y-92780127D01*
X147023453Y-92518974D01*
X147078600Y-92241735D01*
X147078600Y-91959065D01*
X147023453Y-91681826D01*
X146915280Y-91420673D01*
X146758237Y-91185641D01*
X146558359Y-90985763D01*
X146323327Y-90828720D01*
X146062174Y-90720547D01*
X145784935Y-90665400D01*
X145502265Y-90665400D01*
X145225026Y-90720547D01*
X144963873Y-90828720D01*
X144728841Y-90985763D01*
X144528963Y-91185641D01*
X144371920Y-91420673D01*
X144263747Y-91681826D01*
X144208600Y-91959065D01*
X140660000Y-91959065D01*
X140660000Y-89419065D01*
X141668600Y-89419065D01*
X141668600Y-89701735D01*
X141723747Y-89978974D01*
X141831920Y-90240127D01*
X141988963Y-90475159D01*
X142188841Y-90675037D01*
X142423873Y-90832080D01*
X142685026Y-90940253D01*
X142962265Y-90995400D01*
X143244935Y-90995400D01*
X143522174Y-90940253D01*
X143783327Y-90832080D01*
X144018359Y-90675037D01*
X144218237Y-90475159D01*
X144375280Y-90240127D01*
X144483453Y-89978974D01*
X144538600Y-89701735D01*
X144538600Y-89419065D01*
X146748600Y-89419065D01*
X146748600Y-89701735D01*
X146803747Y-89978974D01*
X146911920Y-90240127D01*
X147068963Y-90475159D01*
X147268841Y-90675037D01*
X147503873Y-90832080D01*
X147765026Y-90940253D01*
X148042265Y-90995400D01*
X148324935Y-90995400D01*
X148602174Y-90940253D01*
X148863327Y-90832080D01*
X149098359Y-90675037D01*
X149298237Y-90475159D01*
X149455280Y-90240127D01*
X149563453Y-89978974D01*
X149618600Y-89701735D01*
X149618600Y-89419065D01*
X149600350Y-89327314D01*
X151827000Y-89327314D01*
X151827000Y-89590286D01*
X151878304Y-89848205D01*
X151978939Y-90091159D01*
X152125038Y-90309813D01*
X152310987Y-90495762D01*
X152336636Y-90512900D01*
X152310987Y-90530038D01*
X152125038Y-90715987D01*
X151978939Y-90934641D01*
X151878304Y-91177595D01*
X151827000Y-91435514D01*
X151827000Y-91698486D01*
X151878304Y-91956405D01*
X151978939Y-92199359D01*
X152125038Y-92418013D01*
X152310987Y-92603962D01*
X152529641Y-92750061D01*
X152772595Y-92850696D01*
X153030514Y-92902000D01*
X153293486Y-92902000D01*
X153551405Y-92850696D01*
X153794359Y-92750061D01*
X154013013Y-92603962D01*
X154198962Y-92418013D01*
X154345061Y-92199359D01*
X154445696Y-91956405D01*
X154497000Y-91698486D01*
X154497000Y-91435514D01*
X154445696Y-91177595D01*
X154345061Y-90934641D01*
X154198962Y-90715987D01*
X154013013Y-90530038D01*
X153987364Y-90512900D01*
X154013013Y-90495762D01*
X154198962Y-90309813D01*
X154345061Y-90091159D01*
X154445696Y-89848205D01*
X154497000Y-89590286D01*
X154497000Y-89327314D01*
X154445696Y-89069395D01*
X154345061Y-88826441D01*
X154198962Y-88607787D01*
X154013013Y-88421838D01*
X153794359Y-88275739D01*
X153551405Y-88175104D01*
X153293486Y-88123800D01*
X153030514Y-88123800D01*
X152772595Y-88175104D01*
X152529641Y-88275739D01*
X152310987Y-88421838D01*
X152125038Y-88607787D01*
X151978939Y-88826441D01*
X151878304Y-89069395D01*
X151827000Y-89327314D01*
X149600350Y-89327314D01*
X149563453Y-89141826D01*
X149455280Y-88880673D01*
X149298237Y-88645641D01*
X149098359Y-88445763D01*
X148863327Y-88288720D01*
X148602174Y-88180547D01*
X148324935Y-88125400D01*
X148042265Y-88125400D01*
X147765026Y-88180547D01*
X147503873Y-88288720D01*
X147268841Y-88445763D01*
X147068963Y-88645641D01*
X146911920Y-88880673D01*
X146803747Y-89141826D01*
X146748600Y-89419065D01*
X144538600Y-89419065D01*
X144483453Y-89141826D01*
X144375280Y-88880673D01*
X144218237Y-88645641D01*
X144018359Y-88445763D01*
X143783327Y-88288720D01*
X143522174Y-88180547D01*
X143244935Y-88125400D01*
X142962265Y-88125400D01*
X142685026Y-88180547D01*
X142423873Y-88288720D01*
X142188841Y-88445763D01*
X141988963Y-88645641D01*
X141831920Y-88880673D01*
X141723747Y-89141826D01*
X141668600Y-89419065D01*
X140660000Y-89419065D01*
X140660000Y-88013102D01*
X144830503Y-88013102D01*
X144902086Y-88257071D01*
X145157596Y-88377971D01*
X145431784Y-88446700D01*
X145714112Y-88460617D01*
X145993730Y-88419187D01*
X146259892Y-88324003D01*
X146385114Y-88257071D01*
X146456697Y-88013102D01*
X145643600Y-87200005D01*
X144830503Y-88013102D01*
X140660000Y-88013102D01*
X140660000Y-87090912D01*
X144203383Y-87090912D01*
X144244813Y-87370530D01*
X144339997Y-87636692D01*
X144406929Y-87761914D01*
X144650898Y-87833497D01*
X145463995Y-87020400D01*
X145823205Y-87020400D01*
X146636302Y-87833497D01*
X146880271Y-87761914D01*
X147001171Y-87506404D01*
X147069900Y-87232216D01*
X147083817Y-86949888D01*
X147042387Y-86670270D01*
X146947203Y-86404108D01*
X146880271Y-86278886D01*
X146636302Y-86207303D01*
X145823205Y-87020400D01*
X145463995Y-87020400D01*
X144650898Y-86207303D01*
X144406929Y-86278886D01*
X144286029Y-86534396D01*
X144217300Y-86808584D01*
X144203383Y-87090912D01*
X140660000Y-87090912D01*
X140660000Y-86027698D01*
X144830503Y-86027698D01*
X145643600Y-86840795D01*
X146456697Y-86027698D01*
X146385114Y-85783729D01*
X146129604Y-85662829D01*
X145855416Y-85594100D01*
X145573088Y-85580183D01*
X145293470Y-85621613D01*
X145027308Y-85716797D01*
X144902086Y-85783729D01*
X144830503Y-86027698D01*
X140660000Y-86027698D01*
X140660000Y-82120302D01*
X147359703Y-82120302D01*
X147431286Y-82364271D01*
X147686796Y-82485171D01*
X147960984Y-82553900D01*
X148243312Y-82567817D01*
X148522930Y-82526387D01*
X148789092Y-82431203D01*
X148914314Y-82364271D01*
X148985897Y-82120302D01*
X148172800Y-81307205D01*
X147359703Y-82120302D01*
X140660000Y-82120302D01*
X140660000Y-81198112D01*
X146732583Y-81198112D01*
X146774013Y-81477730D01*
X146869197Y-81743892D01*
X146936129Y-81869114D01*
X147180098Y-81940697D01*
X147993195Y-81127600D01*
X147180098Y-80314503D01*
X146936129Y-80386086D01*
X146815229Y-80641596D01*
X146746500Y-80915784D01*
X146732583Y-81198112D01*
X140660000Y-81198112D01*
X140660000Y-80134898D01*
X147359703Y-80134898D01*
X148172800Y-80947995D01*
X148985897Y-80134898D01*
X148914314Y-79890929D01*
X148658804Y-79770029D01*
X148384616Y-79701300D01*
X148102288Y-79687383D01*
X147822670Y-79728813D01*
X147556508Y-79823997D01*
X147431286Y-79890929D01*
X147359703Y-80134898D01*
X140660000Y-80134898D01*
X140660000Y-78767502D01*
X147258103Y-78767502D01*
X147329686Y-79011471D01*
X147585196Y-79132371D01*
X147859384Y-79201100D01*
X148141712Y-79215017D01*
X148421330Y-79173587D01*
X148687492Y-79078403D01*
X148812714Y-79011471D01*
X148884297Y-78767502D01*
X148071200Y-77954405D01*
X147258103Y-78767502D01*
X140660000Y-78767502D01*
X140660000Y-77845312D01*
X146630983Y-77845312D01*
X146672413Y-78124930D01*
X146767597Y-78391092D01*
X146834529Y-78516314D01*
X147078498Y-78587897D01*
X147891595Y-77774800D01*
X147078498Y-76961703D01*
X146834529Y-77033286D01*
X146713629Y-77288796D01*
X146644900Y-77562984D01*
X146630983Y-77845312D01*
X140660000Y-77845312D01*
X140660000Y-76782098D01*
X147258103Y-76782098D01*
X148071200Y-77595195D01*
X148884297Y-76782098D01*
X148812714Y-76538129D01*
X148557204Y-76417229D01*
X148283016Y-76348500D01*
X148000688Y-76334583D01*
X147721070Y-76376013D01*
X147454908Y-76471197D01*
X147329686Y-76538129D01*
X147258103Y-76782098D01*
X140660000Y-76782098D01*
X140660000Y-74919722D01*
X141058825Y-74919722D01*
X141123425Y-75132694D01*
X141273469Y-75437929D01*
X141480178Y-75708027D01*
X141735609Y-75932608D01*
X142029946Y-76103042D01*
X142351877Y-76212779D01*
X142621000Y-76095200D01*
X142621000Y-74650600D01*
X142875000Y-74650600D01*
X142875000Y-76095200D01*
X143144123Y-76212779D01*
X143466054Y-76103042D01*
X143760391Y-75932608D01*
X144015822Y-75708027D01*
X144222531Y-75437929D01*
X144372575Y-75132694D01*
X144437175Y-74919722D01*
X144319125Y-74650600D01*
X142875000Y-74650600D01*
X142621000Y-74650600D01*
X141176875Y-74650600D01*
X141058825Y-74919722D01*
X140660000Y-74919722D01*
X140660000Y-73160000D01*
X141683963Y-73160000D01*
X141480178Y-73339173D01*
G37*
%TD.AperFunction*%
D24*
X182794298Y-75937693D02*
X182737676Y-76124366D01*
X182857023Y-76377800D01*
X184200800Y-76377800D01*
X184200800Y-76357800D01*
X184454800Y-76357800D01*
X184454800Y-76377800D01*
X185798577Y-76377800D01*
X185917924Y-76124366D01*
X185861302Y-75937693D01*
X185836081Y-75885799D01*
X187344396Y-75885799D01*
X187298269Y-75946071D01*
X187148225Y-76251306D01*
X187083625Y-76464278D01*
X187201675Y-76733400D01*
X188645800Y-76733400D01*
X188645800Y-76713400D01*
X188899800Y-76713400D01*
X188899800Y-76733400D01*
X190343925Y-76733400D01*
X190461975Y-76464278D01*
X190397375Y-76251306D01*
X190247331Y-75946071D01*
X190201204Y-75885799D01*
X197194728Y-75885799D01*
X197194728Y-76098400D01*
X196227023Y-76098400D01*
X196189600Y-76094714D01*
X196152177Y-76098400D01*
X196152174Y-76098400D01*
X196040222Y-76109426D01*
X195896585Y-76152998D01*
X195877873Y-76163000D01*
X195764207Y-76223755D01*
X195730637Y-76251306D01*
X195648178Y-76318978D01*
X195624316Y-76348054D01*
X194392969Y-77579401D01*
X190343348Y-77579401D01*
X190397375Y-77469494D01*
X190461975Y-77256522D01*
X190343925Y-76987400D01*
X188899800Y-76987400D01*
X188899800Y-77007400D01*
X188645800Y-77007400D01*
X188645800Y-76987400D01*
X187201675Y-76987400D01*
X187083625Y-77256522D01*
X187148225Y-77469494D01*
X187202252Y-77579401D01*
X185554983Y-77579401D01*
X185721199Y-77360182D01*
X185861302Y-77071907D01*
X185917924Y-76885234D01*
X185798577Y-76631800D01*
X184454800Y-76631800D01*
X184454800Y-76651800D01*
X184200800Y-76651800D01*
X184200800Y-76631800D01*
X182857023Y-76631800D01*
X182737676Y-76885234D01*
X182794298Y-77071907D01*
X182934401Y-77360182D01*
X183100617Y-77579401D01*
X181755438Y-77579401D01*
X181787787Y-77547052D01*
X181966718Y-77279263D01*
X182089968Y-76981712D01*
X182152800Y-76665833D01*
X182152800Y-76343767D01*
X182089968Y-76027888D01*
X182084806Y-76015425D01*
X182214432Y-75885799D01*
X182819519Y-75885799D01*
X182794298Y-75937693D01*
%TA.AperFunction,Conductor*%
D25*
G36*
X182794298Y-75937693D02*
G01*
X182737676Y-76124366D01*
X182857023Y-76377800D01*
X184200800Y-76377800D01*
X184200800Y-76357800D01*
X184454800Y-76357800D01*
X184454800Y-76377800D01*
X185798577Y-76377800D01*
X185917924Y-76124366D01*
X185861302Y-75937693D01*
X185836081Y-75885799D01*
X187344396Y-75885799D01*
X187298269Y-75946071D01*
X187148225Y-76251306D01*
X187083625Y-76464278D01*
X187201675Y-76733400D01*
X188645800Y-76733400D01*
X188645800Y-76713400D01*
X188899800Y-76713400D01*
X188899800Y-76733400D01*
X190343925Y-76733400D01*
X190461975Y-76464278D01*
X190397375Y-76251306D01*
X190247331Y-75946071D01*
X190201204Y-75885799D01*
X197194728Y-75885799D01*
X197194728Y-76098400D01*
X196227023Y-76098400D01*
X196189600Y-76094714D01*
X196152177Y-76098400D01*
X196152174Y-76098400D01*
X196040222Y-76109426D01*
X195896585Y-76152998D01*
X195877873Y-76163000D01*
X195764207Y-76223755D01*
X195730637Y-76251306D01*
X195648178Y-76318978D01*
X195624316Y-76348054D01*
X194392969Y-77579401D01*
X190343348Y-77579401D01*
X190397375Y-77469494D01*
X190461975Y-77256522D01*
X190343925Y-76987400D01*
X188899800Y-76987400D01*
X188899800Y-77007400D01*
X188645800Y-77007400D01*
X188645800Y-76987400D01*
X187201675Y-76987400D01*
X187083625Y-77256522D01*
X187148225Y-77469494D01*
X187202252Y-77579401D01*
X185554983Y-77579401D01*
X185721199Y-77360182D01*
X185861302Y-77071907D01*
X185917924Y-76885234D01*
X185798577Y-76631800D01*
X184454800Y-76631800D01*
X184454800Y-76651800D01*
X184200800Y-76651800D01*
X184200800Y-76631800D01*
X182857023Y-76631800D01*
X182737676Y-76885234D01*
X182794298Y-77071907D01*
X182934401Y-77360182D01*
X183100617Y-77579401D01*
X181755438Y-77579401D01*
X181787787Y-77547052D01*
X181966718Y-77279263D01*
X182089968Y-76981712D01*
X182152800Y-76665833D01*
X182152800Y-76343767D01*
X182089968Y-76027888D01*
X182084806Y-76015425D01*
X182214432Y-75885799D01*
X182819519Y-75885799D01*
X182794298Y-75937693D01*
G37*
%TD.AperFunction*%
%TD*%
M02*
