%TF.GenerationSoftware,KiCad,Pcbnew,(5.1.8)-1*%
%TF.CreationDate,2021-01-21T21:37:33-05:00*%
%TF.ProjectId,TTS,5454532e-6b69-4636-9164-5f7063625858,rev?*%
%TF.SameCoordinates,Original*%
%TF.FileFunction,Copper,L1,Top*%
%TF.FilePolarity,Positive*%
%FSLAX46Y46*%
G04 Gerber Fmt 4.6, Leading zero omitted, Abs format (unit mm)*
G04 Created by KiCad (PCBNEW (5.1.8)-1) date 2021-01-21 21:37:33*
%MOMM*%
%LPD*%
G01*
G04 APERTURE LIST*
%TA.AperFunction,ComponentPad*%
%ADD10R,1.600000X1.600000*%
%TD*%
%TA.AperFunction,ComponentPad*%
%ADD11O,1.600000X1.600000*%
%TD*%
%TA.AperFunction,ComponentPad*%
%ADD12C,1.600000*%
%TD*%
%TA.AperFunction,ComponentPad*%
%ADD13O,2.000000X2.000000*%
%TD*%
%TA.AperFunction,ComponentPad*%
%ADD14C,2.000000*%
%TD*%
%TA.AperFunction,ComponentPad*%
%ADD15R,2.000000X2.000000*%
%TD*%
%TA.AperFunction,ComponentPad*%
%ADD16R,2.600000X2.600000*%
%TD*%
%TA.AperFunction,ComponentPad*%
%ADD17C,2.600000*%
%TD*%
%TA.AperFunction,ComponentPad*%
%ADD18C,1.400000*%
%TD*%
%TA.AperFunction,ComponentPad*%
%ADD19O,1.400000X1.400000*%
%TD*%
%TA.AperFunction,ComponentPad*%
%ADD20C,1.500000*%
%TD*%
%TA.AperFunction,ComponentPad*%
%ADD21R,2.200000X2.200000*%
%TD*%
%TA.AperFunction,ComponentPad*%
%ADD22O,2.200000X2.200000*%
%TD*%
%TA.AperFunction,ViaPad*%
%ADD23C,0.762000*%
%TD*%
%TA.AperFunction,Conductor*%
%ADD24C,0.254000*%
%TD*%
%TA.AperFunction,Conductor*%
%ADD25C,0.100000*%
%TD*%
G04 APERTURE END LIST*
D10*
%TO.P,SW1,1*%
%TO.N,/D6*%
X178689000Y-99949000D03*
D11*
%TO.P,SW1,5*%
%TO.N,Net-(R4-Pad1)*%
X171069000Y-107569000D03*
%TO.P,SW1,2*%
%TO.N,/D5*%
X176149000Y-99949000D03*
%TO.P,SW1,6*%
%TO.N,Net-(R4-Pad1)*%
X173609000Y-107569000D03*
%TO.P,SW1,3*%
%TO.N,/D4*%
X173609000Y-99949000D03*
%TO.P,SW1,7*%
%TO.N,Net-(R4-Pad1)*%
X176149000Y-107569000D03*
%TO.P,SW1,4*%
%TO.N,/D3*%
X171069000Y-99949000D03*
%TO.P,SW1,8*%
%TO.N,Net-(R4-Pad1)*%
X178689000Y-107569000D03*
%TD*%
D10*
%TO.P,A1,1*%
%TO.N,/TX*%
X158623000Y-96012000D03*
D11*
%TO.P,A1,17*%
%TO.N,VDD*%
X191643000Y-80772000D03*
%TO.P,A1,2*%
%TO.N,/RX*%
X161163000Y-96012000D03*
%TO.P,A1,18*%
%TO.N,/REF*%
X189103000Y-80772000D03*
%TO.P,A1,3*%
%TO.N,/RST_D*%
X163703000Y-96012000D03*
%TO.P,A1,19*%
%TO.N,/A0*%
X186563000Y-80772000D03*
%TO.P,A1,4*%
%TO.N,GND*%
X166243000Y-96012000D03*
%TO.P,A1,20*%
%TO.N,/A1*%
X184023000Y-80772000D03*
%TO.P,A1,5*%
%TO.N,/D2*%
X168783000Y-96012000D03*
%TO.P,A1,21*%
%TO.N,/A2*%
X181483000Y-80772000D03*
%TO.P,A1,6*%
%TO.N,/D3*%
X171323000Y-96012000D03*
%TO.P,A1,22*%
%TO.N,/A3*%
X178943000Y-80772000D03*
%TO.P,A1,7*%
%TO.N,/D4*%
X173863000Y-96012000D03*
%TO.P,A1,23*%
%TO.N,/A4*%
X176403000Y-80772000D03*
%TO.P,A1,8*%
%TO.N,/D5*%
X176403000Y-96012000D03*
%TO.P,A1,24*%
%TO.N,/A5*%
X173863000Y-80772000D03*
%TO.P,A1,9*%
%TO.N,/D6*%
X178943000Y-96012000D03*
%TO.P,A1,25*%
%TO.N,/A6*%
X171323000Y-80772000D03*
%TO.P,A1,10*%
%TO.N,/D7*%
X181483000Y-96012000D03*
%TO.P,A1,26*%
%TO.N,/A7*%
X168783000Y-80772000D03*
%TO.P,A1,11*%
%TO.N,/D8*%
X184023000Y-96012000D03*
%TO.P,A1,27*%
%TO.N,VCC*%
X166243000Y-80772000D03*
%TO.P,A1,12*%
%TO.N,/D9*%
X186563000Y-96012000D03*
%TO.P,A1,28*%
%TO.N,/RST_A*%
X163703000Y-80772000D03*
%TO.P,A1,13*%
%TO.N,/D10*%
X189103000Y-96012000D03*
%TO.P,A1,29*%
%TO.N,GND*%
X161163000Y-80772000D03*
%TO.P,A1,14*%
%TO.N,/D11*%
X191643000Y-96012000D03*
%TO.P,A1,30*%
%TO.N,/VIN*%
X158623000Y-80772000D03*
%TO.P,A1,15*%
%TO.N,/D12*%
X194183000Y-96012000D03*
%TO.P,A1,16*%
%TO.N,/D13*%
X194183000Y-80772000D03*
%TD*%
D12*
%TO.P,C1,2*%
%TO.N,GND*%
X148172800Y-81127600D03*
%TO.P,C1,1*%
%TO.N,VCC*%
X150672800Y-81127600D03*
%TD*%
%TO.P,C2,1*%
%TO.N,VDD*%
X150571200Y-77774800D03*
%TO.P,C2,2*%
%TO.N,GND*%
X148071200Y-77774800D03*
%TD*%
D13*
%TO.P,D3,1*%
%TO.N,/VIN*%
X172897800Y-76504800D03*
%TO.P,D3,2*%
%TO.N,Net-(D3-Pad2)*%
X176707800Y-76504800D03*
%TO.P,D3,3*%
%TO.N,Net-(D3-Pad3)*%
X180517800Y-76504800D03*
%TO.P,D3,4*%
%TO.N,GND*%
X184327800Y-76504800D03*
%TD*%
D14*
%TO.P,D4,2*%
%TO.N,VCC*%
X142468600Y-103606600D03*
D15*
%TO.P,D4,1*%
%TO.N,Net-(D4-Pad1)*%
X145008600Y-103606600D03*
%TD*%
D16*
%TO.P,J1,1*%
%TO.N,Net-(D3-Pad2)*%
X184785000Y-103124000D03*
D17*
%TO.P,J1,2*%
%TO.N,Net-(D2-Pad1)*%
X189785000Y-103124000D03*
%TO.P,J1,3*%
%TO.N,Net-(D1-Pad1)*%
X194785000Y-103124000D03*
%TO.P,J1,4*%
%TO.N,Net-(D3-Pad3)*%
X199785000Y-103124000D03*
%TD*%
D12*
%TO.P,R1,1*%
%TO.N,Net-(D2-Pad1)*%
X168402000Y-76860400D03*
D11*
%TO.P,R1,2*%
%TO.N,Net-(D1-Pad1)*%
X155702000Y-76860400D03*
%TD*%
D18*
%TO.P,R2,1*%
%TO.N,/A4*%
X153162000Y-82346800D03*
D19*
%TO.P,R2,2*%
%TO.N,VDD*%
X153162000Y-77266800D03*
%TD*%
%TO.P,R3,2*%
%TO.N,VDD*%
X153162000Y-96647000D03*
D18*
%TO.P,R3,1*%
%TO.N,/A5*%
X153162000Y-91567000D03*
%TD*%
D19*
%TO.P,R4,2*%
%TO.N,VCC*%
X153162000Y-84378800D03*
D18*
%TO.P,R4,1*%
%TO.N,Net-(R4-Pad1)*%
X153162000Y-89458800D03*
%TD*%
%TO.P,R8,1*%
%TO.N,/D7*%
X152958800Y-106121200D03*
D19*
%TO.P,R8,2*%
%TO.N,Net-(D4-Pad1)*%
X147878800Y-106121200D03*
%TD*%
D20*
%TO.P,U1,8*%
%TO.N,VCC*%
X155956000Y-99161600D03*
%TO.P,U1,1*%
%TO.N,/RX*%
X155956000Y-106781600D03*
%TO.P,U1,7*%
%TO.N,Net-(D1-Pad1)*%
X158496000Y-99161600D03*
%TO.P,U1,2*%
%TO.N,/D2*%
X158496000Y-106781600D03*
%TO.P,U1,6*%
%TO.N,Net-(D2-Pad1)*%
X161036000Y-99161600D03*
%TO.P,U1,3*%
%TO.N,/D2*%
X161036000Y-106781600D03*
%TO.P,U1,5*%
%TO.N,GND*%
X163576000Y-99161600D03*
%TO.P,U1,4*%
%TO.N,/TX*%
X163576000Y-106781600D03*
%TD*%
D12*
%TO.P,U2,4*%
%TO.N,GND*%
X145643600Y-87020400D03*
%TO.P,U2,1*%
%TO.N,/A5*%
X148183600Y-89560400D03*
%TO.P,U2,2*%
%TO.N,/A4*%
X145643600Y-92100400D03*
%TO.P,U2,3*%
%TO.N,VDD*%
X143103600Y-89560400D03*
%TD*%
D21*
%TO.P,D1,1*%
%TO.N,Net-(D1-Pad1)*%
X152908000Y-74523600D03*
D22*
%TO.P,D1,2*%
%TO.N,GND*%
X142748000Y-74523600D03*
%TD*%
%TO.P,D2,2*%
%TO.N,GND*%
X188772800Y-76860400D03*
D21*
%TO.P,D2,1*%
%TO.N,Net-(D2-Pad1)*%
X198932800Y-76860400D03*
%TD*%
D23*
%TO.N,Net-(D1-Pad1)*%
X156159200Y-80010000D03*
%TO.N,/A4*%
X157516473Y-83616800D03*
%TD*%
D24*
%TO.N,VDD*%
X143103600Y-91308282D02*
X143103600Y-89560400D01*
X148442318Y-96647000D02*
X143103600Y-91308282D01*
X153162000Y-96647000D02*
X148442318Y-96647000D01*
X150571200Y-77774800D02*
X150571200Y-76911200D01*
X150571200Y-76911200D02*
X151028400Y-76454000D01*
X152349200Y-76454000D02*
X153162000Y-77266800D01*
X151028400Y-76454000D02*
X152349200Y-76454000D01*
X144851482Y-89560400D02*
X143103600Y-89560400D01*
X149353801Y-85058081D02*
X144851482Y-89560400D01*
X149353801Y-78992199D02*
X149353801Y-85058081D01*
X150571200Y-77774800D02*
X149353801Y-78992199D01*
%TO.N,VCC*%
X164149319Y-82865681D02*
X166243000Y-80772000D01*
X158042447Y-82865681D02*
X164149319Y-82865681D01*
X166243000Y-82677000D02*
X166243000Y-80772000D01*
X164541200Y-84378800D02*
X166243000Y-82677000D01*
X153162000Y-84378800D02*
X164541200Y-84378800D01*
X150672800Y-81127600D02*
X154998034Y-81127600D01*
X154998034Y-81127600D02*
X156725233Y-82854799D01*
X158031565Y-82854799D02*
X158042447Y-82865681D01*
X156725233Y-82854799D02*
X158031565Y-82854799D01*
%TO.N,Net-(D1-Pad1)*%
X192595989Y-105313011D02*
X166468976Y-105313010D01*
X194785000Y-103124000D02*
X192595989Y-105313011D01*
X166468976Y-105313010D02*
X161739966Y-100584000D01*
X159918400Y-100584000D02*
X158496000Y-99161600D01*
X161739966Y-100584000D02*
X159918400Y-100584000D01*
X153365200Y-74523600D02*
X155702000Y-76860400D01*
X152908000Y-74523600D02*
X153365200Y-74523600D01*
X155702000Y-79552800D02*
X155702000Y-76860400D01*
X156159200Y-80010000D02*
X155702000Y-79552800D01*
%TO.N,Net-(D2-Pad1)*%
X166679401Y-104805001D02*
X161036000Y-99161600D01*
X188103999Y-104805001D02*
X166679401Y-104805001D01*
X189785000Y-103124000D02*
X188103999Y-104805001D01*
%TO.N,/TX*%
X157364999Y-97270001D02*
X158623000Y-96012000D01*
X157364999Y-99704481D02*
X157364999Y-97270001D01*
X158752528Y-101092010D02*
X157364999Y-99704481D01*
X161503372Y-101092010D02*
X158752528Y-101092010D01*
X163576000Y-103164638D02*
X161503372Y-101092010D01*
X163576000Y-106781600D02*
X163576000Y-103164638D01*
%TO.N,/D2*%
X158496000Y-106781600D02*
X161036000Y-106781600D01*
%TO.N,/D3*%
X171323000Y-99695000D02*
X171069000Y-99949000D01*
%TO.N,/D4*%
X173609000Y-96266000D02*
X173863000Y-96012000D01*
%TO.N,/A4*%
X153162000Y-82778918D02*
X153162000Y-82346800D01*
X145643600Y-90297318D02*
X153162000Y-82778918D01*
X145643600Y-92100400D02*
X145643600Y-90297318D01*
X157516473Y-83616800D02*
X156768800Y-83616800D01*
X155498800Y-82346800D02*
X153162000Y-82346800D01*
X156768800Y-83616800D02*
X155498800Y-82346800D01*
%TO.N,/D5*%
X176403000Y-99695000D02*
X176149000Y-99949000D01*
%TO.N,/A5*%
X151155400Y-89560400D02*
X153162000Y-91567000D01*
X148183600Y-89560400D02*
X151155400Y-89560400D01*
X152284199Y-85459801D02*
X148183600Y-89560400D01*
X169175199Y-85459801D02*
X152284199Y-85459801D01*
X173863000Y-80772000D02*
X169175199Y-85459801D01*
%TO.N,/D6*%
X178689000Y-96266000D02*
X178943000Y-96012000D01*
%TO.N,/VIN*%
X170713400Y-78689200D02*
X172897800Y-76504800D01*
X160779484Y-78689200D02*
X170713400Y-78689200D01*
X158696684Y-80772000D02*
X160779484Y-78689200D01*
X158623000Y-80772000D02*
X158696684Y-80772000D01*
%TO.N,Net-(D4-Pad1)*%
X145364200Y-103606600D02*
X147878800Y-106121200D01*
X145008600Y-103606600D02*
X145364200Y-103606600D01*
%TO.N,Net-(R4-Pad1)*%
X178689000Y-107569000D02*
X176149000Y-107569000D01*
X176149000Y-107569000D02*
X173609000Y-107569000D01*
X173609000Y-107569000D02*
X171069000Y-107569000D01*
X170637200Y-108000800D02*
X171069000Y-107569000D01*
X155400520Y-108000800D02*
X170637200Y-108000800D01*
X154243001Y-106843281D02*
X155400520Y-108000800D01*
X154243001Y-90539801D02*
X154243001Y-106843281D01*
X153162000Y-89458800D02*
X154243001Y-90539801D01*
%TD*%
%TO.N,GND*%
X141480178Y-73339173D02*
X141273469Y-73609271D01*
X141123425Y-73914506D01*
X141058825Y-74127478D01*
X141176875Y-74396600D01*
X142621000Y-74396600D01*
X142621000Y-74376600D01*
X142875000Y-74376600D01*
X142875000Y-74396600D01*
X144319125Y-74396600D01*
X144437175Y-74127478D01*
X144372575Y-73914506D01*
X144222531Y-73609271D01*
X144015822Y-73339173D01*
X143812037Y-73160000D01*
X151228878Y-73160000D01*
X151218498Y-73179420D01*
X151182188Y-73299118D01*
X151169928Y-73423600D01*
X151169928Y-75623600D01*
X151176665Y-75692000D01*
X151065822Y-75692000D01*
X151028399Y-75688314D01*
X150990976Y-75692000D01*
X150990974Y-75692000D01*
X150879022Y-75703026D01*
X150735385Y-75746598D01*
X150603008Y-75817355D01*
X150486978Y-75912578D01*
X150463116Y-75941654D01*
X150058849Y-76345921D01*
X150029779Y-76369778D01*
X150005922Y-76398848D01*
X150005921Y-76398849D01*
X149935218Y-76485000D01*
X149891473Y-76503120D01*
X149656441Y-76660163D01*
X149456563Y-76860041D01*
X149322508Y-77060669D01*
X149307871Y-77033286D01*
X149063902Y-76961703D01*
X148250805Y-77774800D01*
X148264948Y-77788943D01*
X148085343Y-77968548D01*
X148071200Y-77954405D01*
X147258103Y-78767502D01*
X147329686Y-79011471D01*
X147585196Y-79132371D01*
X147859384Y-79201100D01*
X148141712Y-79215017D01*
X148421330Y-79173587D01*
X148591801Y-79112624D01*
X148591801Y-79753234D01*
X148384616Y-79701300D01*
X148102288Y-79687383D01*
X147822670Y-79728813D01*
X147556508Y-79823997D01*
X147431286Y-79890929D01*
X147359703Y-80134898D01*
X148172800Y-80947995D01*
X148186943Y-80933853D01*
X148366548Y-81113458D01*
X148352405Y-81127600D01*
X148366548Y-81141743D01*
X148186943Y-81321348D01*
X148172800Y-81307205D01*
X147359703Y-82120302D01*
X147431286Y-82364271D01*
X147686796Y-82485171D01*
X147960984Y-82553900D01*
X148243312Y-82567817D01*
X148522930Y-82526387D01*
X148591802Y-82501757D01*
X148591802Y-84742450D01*
X146941261Y-86392991D01*
X146880271Y-86278886D01*
X146636302Y-86207303D01*
X145823205Y-87020400D01*
X145837348Y-87034543D01*
X145657743Y-87214148D01*
X145643600Y-87200005D01*
X144830503Y-88013102D01*
X144902086Y-88257071D01*
X145020942Y-88313310D01*
X144535852Y-88798400D01*
X144320307Y-88798400D01*
X144218237Y-88645641D01*
X144018359Y-88445763D01*
X143783327Y-88288720D01*
X143522174Y-88180547D01*
X143244935Y-88125400D01*
X142962265Y-88125400D01*
X142685026Y-88180547D01*
X142423873Y-88288720D01*
X142188841Y-88445763D01*
X141988963Y-88645641D01*
X141831920Y-88880673D01*
X141723747Y-89141826D01*
X141668600Y-89419065D01*
X141668600Y-89701735D01*
X141723747Y-89978974D01*
X141831920Y-90240127D01*
X141988963Y-90475159D01*
X142188841Y-90675037D01*
X142341600Y-90777107D01*
X142341600Y-91270858D01*
X142337914Y-91308282D01*
X142341600Y-91345705D01*
X142341600Y-91345707D01*
X142352626Y-91457659D01*
X142396198Y-91601296D01*
X142396199Y-91601297D01*
X142466955Y-91733674D01*
X142506583Y-91781960D01*
X142562178Y-91849704D01*
X142591254Y-91873566D01*
X147877039Y-97159352D01*
X147900896Y-97188422D01*
X148016926Y-97283645D01*
X148149303Y-97354402D01*
X148292940Y-97397974D01*
X148404892Y-97409000D01*
X148404894Y-97409000D01*
X148442317Y-97412686D01*
X148479740Y-97409000D01*
X152065562Y-97409000D01*
X152125038Y-97498013D01*
X152310987Y-97683962D01*
X152529641Y-97830061D01*
X152772595Y-97930696D01*
X153030514Y-97982000D01*
X153293486Y-97982000D01*
X153481001Y-97944700D01*
X153481002Y-104892510D01*
X153348205Y-104837504D01*
X153090286Y-104786200D01*
X152827314Y-104786200D01*
X152569395Y-104837504D01*
X152326441Y-104938139D01*
X152107787Y-105084238D01*
X151921838Y-105270187D01*
X151775739Y-105488841D01*
X151675104Y-105731795D01*
X151623800Y-105989714D01*
X151623800Y-106252686D01*
X151675104Y-106510605D01*
X151775739Y-106753559D01*
X151921838Y-106972213D01*
X152107787Y-107158162D01*
X152326441Y-107304261D01*
X152569395Y-107404896D01*
X152827314Y-107456200D01*
X153090286Y-107456200D01*
X153348205Y-107404896D01*
X153591159Y-107304261D01*
X153619837Y-107285099D01*
X153677722Y-107355632D01*
X153701580Y-107384703D01*
X153730650Y-107408560D01*
X154835241Y-108513152D01*
X154859098Y-108542222D01*
X154975128Y-108637445D01*
X155107505Y-108708202D01*
X155251142Y-108751774D01*
X155363094Y-108762800D01*
X155363096Y-108762800D01*
X155400519Y-108766486D01*
X155437942Y-108762800D01*
X170272717Y-108762800D01*
X170389273Y-108840680D01*
X170650426Y-108948853D01*
X170927665Y-109004000D01*
X171210335Y-109004000D01*
X171487574Y-108948853D01*
X171748727Y-108840680D01*
X171983759Y-108683637D01*
X172183637Y-108483759D01*
X172285707Y-108331000D01*
X172392293Y-108331000D01*
X172494363Y-108483759D01*
X172694241Y-108683637D01*
X172929273Y-108840680D01*
X173190426Y-108948853D01*
X173467665Y-109004000D01*
X173750335Y-109004000D01*
X174027574Y-108948853D01*
X174288727Y-108840680D01*
X174523759Y-108683637D01*
X174723637Y-108483759D01*
X174825707Y-108331000D01*
X174932293Y-108331000D01*
X175034363Y-108483759D01*
X175234241Y-108683637D01*
X175469273Y-108840680D01*
X175730426Y-108948853D01*
X176007665Y-109004000D01*
X176290335Y-109004000D01*
X176567574Y-108948853D01*
X176828727Y-108840680D01*
X177063759Y-108683637D01*
X177263637Y-108483759D01*
X177365707Y-108331000D01*
X177472293Y-108331000D01*
X177574363Y-108483759D01*
X177774241Y-108683637D01*
X178009273Y-108840680D01*
X178270426Y-108948853D01*
X178547665Y-109004000D01*
X178830335Y-109004000D01*
X179107574Y-108948853D01*
X179368727Y-108840680D01*
X179603759Y-108683637D01*
X179803637Y-108483759D01*
X179960680Y-108248727D01*
X180068853Y-107987574D01*
X180124000Y-107710335D01*
X180124000Y-107427665D01*
X180068853Y-107150426D01*
X179960680Y-106889273D01*
X179803637Y-106654241D01*
X179603759Y-106454363D01*
X179368727Y-106297320D01*
X179107574Y-106189147D01*
X178830335Y-106134000D01*
X178547665Y-106134000D01*
X178270426Y-106189147D01*
X178009273Y-106297320D01*
X177774241Y-106454363D01*
X177574363Y-106654241D01*
X177472293Y-106807000D01*
X177365707Y-106807000D01*
X177263637Y-106654241D01*
X177063759Y-106454363D01*
X176828727Y-106297320D01*
X176567574Y-106189147D01*
X176290335Y-106134000D01*
X176007665Y-106134000D01*
X175730426Y-106189147D01*
X175469273Y-106297320D01*
X175234241Y-106454363D01*
X175034363Y-106654241D01*
X174932293Y-106807000D01*
X174825707Y-106807000D01*
X174723637Y-106654241D01*
X174523759Y-106454363D01*
X174288727Y-106297320D01*
X174027574Y-106189147D01*
X173750335Y-106134000D01*
X173467665Y-106134000D01*
X173190426Y-106189147D01*
X172929273Y-106297320D01*
X172694241Y-106454363D01*
X172494363Y-106654241D01*
X172392293Y-106807000D01*
X172285707Y-106807000D01*
X172183637Y-106654241D01*
X171983759Y-106454363D01*
X171748727Y-106297320D01*
X171487574Y-106189147D01*
X171210335Y-106134000D01*
X170927665Y-106134000D01*
X170650426Y-106189147D01*
X170389273Y-106297320D01*
X170154241Y-106454363D01*
X169954363Y-106654241D01*
X169797320Y-106889273D01*
X169689147Y-107150426D01*
X169671568Y-107238800D01*
X164885734Y-107238800D01*
X164907775Y-107185589D01*
X164961000Y-106918011D01*
X164961000Y-106645189D01*
X164907775Y-106377611D01*
X164803371Y-106125557D01*
X164651799Y-105898714D01*
X164458886Y-105705801D01*
X164338000Y-105625027D01*
X164338000Y-104259665D01*
X165903701Y-105825366D01*
X165927554Y-105854431D01*
X165956619Y-105878284D01*
X165956624Y-105878289D01*
X166043583Y-105949654D01*
X166175960Y-106020411D01*
X166319597Y-106063983D01*
X166468975Y-106078696D01*
X166506409Y-106075009D01*
X192558566Y-106075011D01*
X192595989Y-106078697D01*
X192633412Y-106075011D01*
X192633414Y-106075011D01*
X192745366Y-106063985D01*
X192889003Y-106020413D01*
X192950624Y-105987476D01*
X193021381Y-105949656D01*
X193108340Y-105878290D01*
X193108341Y-105878289D01*
X193137410Y-105854433D01*
X193161267Y-105825363D01*
X194066015Y-104920616D01*
X194220581Y-104984639D01*
X194594419Y-105059000D01*
X194975581Y-105059000D01*
X195349419Y-104984639D01*
X195701566Y-104838775D01*
X196018491Y-104627013D01*
X196288013Y-104357491D01*
X196499775Y-104040566D01*
X196645639Y-103688419D01*
X196720000Y-103314581D01*
X196720000Y-102933419D01*
X197850000Y-102933419D01*
X197850000Y-103314581D01*
X197924361Y-103688419D01*
X198070225Y-104040566D01*
X198281987Y-104357491D01*
X198551509Y-104627013D01*
X198868434Y-104838775D01*
X199220581Y-104984639D01*
X199594419Y-105059000D01*
X199975581Y-105059000D01*
X200349419Y-104984639D01*
X200701566Y-104838775D01*
X201018491Y-104627013D01*
X201288013Y-104357491D01*
X201499775Y-104040566D01*
X201645639Y-103688419D01*
X201720000Y-103314581D01*
X201720000Y-102933419D01*
X201645639Y-102559581D01*
X201499775Y-102207434D01*
X201288013Y-101890509D01*
X201018491Y-101620987D01*
X200701566Y-101409225D01*
X200349419Y-101263361D01*
X199975581Y-101189000D01*
X199594419Y-101189000D01*
X199220581Y-101263361D01*
X198868434Y-101409225D01*
X198551509Y-101620987D01*
X198281987Y-101890509D01*
X198070225Y-102207434D01*
X197924361Y-102559581D01*
X197850000Y-102933419D01*
X196720000Y-102933419D01*
X196645639Y-102559581D01*
X196499775Y-102207434D01*
X196288013Y-101890509D01*
X196018491Y-101620987D01*
X195701566Y-101409225D01*
X195349419Y-101263361D01*
X194975581Y-101189000D01*
X194594419Y-101189000D01*
X194220581Y-101263361D01*
X193868434Y-101409225D01*
X193551509Y-101620987D01*
X193281987Y-101890509D01*
X193070225Y-102207434D01*
X192924361Y-102559581D01*
X192850000Y-102933419D01*
X192850000Y-103314581D01*
X192924361Y-103688419D01*
X192988384Y-103842985D01*
X192280358Y-104551012D01*
X191094492Y-104551012D01*
X191288013Y-104357491D01*
X191499775Y-104040566D01*
X191645639Y-103688419D01*
X191720000Y-103314581D01*
X191720000Y-102933419D01*
X191645639Y-102559581D01*
X191499775Y-102207434D01*
X191288013Y-101890509D01*
X191018491Y-101620987D01*
X190701566Y-101409225D01*
X190349419Y-101263361D01*
X189975581Y-101189000D01*
X189594419Y-101189000D01*
X189220581Y-101263361D01*
X188868434Y-101409225D01*
X188551509Y-101620987D01*
X188281987Y-101890509D01*
X188070225Y-102207434D01*
X187924361Y-102559581D01*
X187850000Y-102933419D01*
X187850000Y-103314581D01*
X187924361Y-103688419D01*
X187988384Y-103842985D01*
X187788369Y-104043001D01*
X186723072Y-104043001D01*
X186723072Y-101824000D01*
X186710812Y-101699518D01*
X186674502Y-101579820D01*
X186615537Y-101469506D01*
X186536185Y-101372815D01*
X186439494Y-101293463D01*
X186329180Y-101234498D01*
X186209482Y-101198188D01*
X186085000Y-101185928D01*
X183485000Y-101185928D01*
X183360518Y-101198188D01*
X183240820Y-101234498D01*
X183130506Y-101293463D01*
X183033815Y-101372815D01*
X182954463Y-101469506D01*
X182895498Y-101579820D01*
X182859188Y-101699518D01*
X182846928Y-101824000D01*
X182846928Y-104043001D01*
X166995032Y-104043001D01*
X163496433Y-100544403D01*
X163648492Y-100551412D01*
X163918238Y-100510565D01*
X164174832Y-100417877D01*
X164287863Y-100357460D01*
X164353388Y-100118593D01*
X163576000Y-99341205D01*
X163561858Y-99355348D01*
X163382253Y-99175743D01*
X163396395Y-99161600D01*
X163755605Y-99161600D01*
X164532993Y-99938988D01*
X164771860Y-99873463D01*
X164802737Y-99807665D01*
X169634000Y-99807665D01*
X169634000Y-100090335D01*
X169689147Y-100367574D01*
X169797320Y-100628727D01*
X169954363Y-100863759D01*
X170154241Y-101063637D01*
X170389273Y-101220680D01*
X170650426Y-101328853D01*
X170927665Y-101384000D01*
X171210335Y-101384000D01*
X171487574Y-101328853D01*
X171748727Y-101220680D01*
X171983759Y-101063637D01*
X172183637Y-100863759D01*
X172339000Y-100631241D01*
X172494363Y-100863759D01*
X172694241Y-101063637D01*
X172929273Y-101220680D01*
X173190426Y-101328853D01*
X173467665Y-101384000D01*
X173750335Y-101384000D01*
X174027574Y-101328853D01*
X174288727Y-101220680D01*
X174523759Y-101063637D01*
X174723637Y-100863759D01*
X174879000Y-100631241D01*
X175034363Y-100863759D01*
X175234241Y-101063637D01*
X175469273Y-101220680D01*
X175730426Y-101328853D01*
X176007665Y-101384000D01*
X176290335Y-101384000D01*
X176567574Y-101328853D01*
X176828727Y-101220680D01*
X177063759Y-101063637D01*
X177262357Y-100865039D01*
X177263188Y-100873482D01*
X177299498Y-100993180D01*
X177358463Y-101103494D01*
X177437815Y-101200185D01*
X177534506Y-101279537D01*
X177644820Y-101338502D01*
X177764518Y-101374812D01*
X177889000Y-101387072D01*
X179489000Y-101387072D01*
X179613482Y-101374812D01*
X179733180Y-101338502D01*
X179843494Y-101279537D01*
X179940185Y-101200185D01*
X180019537Y-101103494D01*
X180078502Y-100993180D01*
X180114812Y-100873482D01*
X180127072Y-100749000D01*
X180127072Y-99149000D01*
X180114812Y-99024518D01*
X180078502Y-98904820D01*
X180019537Y-98794506D01*
X179940185Y-98697815D01*
X179843494Y-98618463D01*
X179733180Y-98559498D01*
X179613482Y-98523188D01*
X179489000Y-98510928D01*
X177889000Y-98510928D01*
X177764518Y-98523188D01*
X177644820Y-98559498D01*
X177534506Y-98618463D01*
X177437815Y-98697815D01*
X177358463Y-98794506D01*
X177299498Y-98904820D01*
X177263188Y-99024518D01*
X177262357Y-99032961D01*
X177063759Y-98834363D01*
X176828727Y-98677320D01*
X176567574Y-98569147D01*
X176290335Y-98514000D01*
X176007665Y-98514000D01*
X175730426Y-98569147D01*
X175469273Y-98677320D01*
X175234241Y-98834363D01*
X175034363Y-99034241D01*
X174879000Y-99266759D01*
X174723637Y-99034241D01*
X174523759Y-98834363D01*
X174288727Y-98677320D01*
X174027574Y-98569147D01*
X173750335Y-98514000D01*
X173467665Y-98514000D01*
X173190426Y-98569147D01*
X172929273Y-98677320D01*
X172694241Y-98834363D01*
X172494363Y-99034241D01*
X172339000Y-99266759D01*
X172183637Y-99034241D01*
X171983759Y-98834363D01*
X171748727Y-98677320D01*
X171487574Y-98569147D01*
X171210335Y-98514000D01*
X170927665Y-98514000D01*
X170650426Y-98569147D01*
X170389273Y-98677320D01*
X170154241Y-98834363D01*
X169954363Y-99034241D01*
X169797320Y-99269273D01*
X169689147Y-99530426D01*
X169634000Y-99807665D01*
X164802737Y-99807665D01*
X164887760Y-99626484D01*
X164953250Y-99361640D01*
X164965812Y-99089108D01*
X164924965Y-98819362D01*
X164832277Y-98562768D01*
X164771860Y-98449737D01*
X164532993Y-98384212D01*
X163755605Y-99161600D01*
X163396395Y-99161600D01*
X162619007Y-98384212D01*
X162380140Y-98449737D01*
X162305836Y-98608077D01*
X162263371Y-98505557D01*
X162111799Y-98278714D01*
X162037692Y-98204607D01*
X162798612Y-98204607D01*
X163576000Y-98981995D01*
X164353388Y-98204607D01*
X164287863Y-97965740D01*
X164040884Y-97849840D01*
X163776040Y-97784350D01*
X163503508Y-97771788D01*
X163233762Y-97812635D01*
X162977168Y-97905323D01*
X162864137Y-97965740D01*
X162798612Y-98204607D01*
X162037692Y-98204607D01*
X161918886Y-98085801D01*
X161692043Y-97934229D01*
X161439989Y-97829825D01*
X161172411Y-97776600D01*
X160899589Y-97776600D01*
X160632011Y-97829825D01*
X160379957Y-97934229D01*
X160153114Y-98085801D01*
X159960201Y-98278714D01*
X159808629Y-98505557D01*
X159766000Y-98608473D01*
X159723371Y-98505557D01*
X159571799Y-98278714D01*
X159378886Y-98085801D01*
X159152043Y-97934229D01*
X158899989Y-97829825D01*
X158632411Y-97776600D01*
X158359589Y-97776600D01*
X158126999Y-97822865D01*
X158126999Y-97585631D01*
X158262558Y-97450072D01*
X159423000Y-97450072D01*
X159547482Y-97437812D01*
X159667180Y-97401502D01*
X159777494Y-97342537D01*
X159874185Y-97263185D01*
X159953537Y-97166494D01*
X160012502Y-97056180D01*
X160048812Y-96936482D01*
X160049643Y-96928039D01*
X160248241Y-97126637D01*
X160483273Y-97283680D01*
X160744426Y-97391853D01*
X161021665Y-97447000D01*
X161304335Y-97447000D01*
X161581574Y-97391853D01*
X161842727Y-97283680D01*
X162077759Y-97126637D01*
X162277637Y-96926759D01*
X162433000Y-96694241D01*
X162588363Y-96926759D01*
X162788241Y-97126637D01*
X163023273Y-97283680D01*
X163284426Y-97391853D01*
X163561665Y-97447000D01*
X163844335Y-97447000D01*
X164121574Y-97391853D01*
X164382727Y-97283680D01*
X164617759Y-97126637D01*
X164817637Y-96926759D01*
X164974680Y-96691727D01*
X164979067Y-96681135D01*
X165090615Y-96867131D01*
X165279586Y-97075519D01*
X165505580Y-97243037D01*
X165759913Y-97363246D01*
X165893961Y-97403904D01*
X166116000Y-97281915D01*
X166116000Y-96139000D01*
X166096000Y-96139000D01*
X166096000Y-95885000D01*
X166116000Y-95885000D01*
X166116000Y-94742085D01*
X166370000Y-94742085D01*
X166370000Y-95885000D01*
X166390000Y-95885000D01*
X166390000Y-96139000D01*
X166370000Y-96139000D01*
X166370000Y-97281915D01*
X166592039Y-97403904D01*
X166726087Y-97363246D01*
X166980420Y-97243037D01*
X167206414Y-97075519D01*
X167395385Y-96867131D01*
X167506933Y-96681135D01*
X167511320Y-96691727D01*
X167668363Y-96926759D01*
X167868241Y-97126637D01*
X168103273Y-97283680D01*
X168364426Y-97391853D01*
X168641665Y-97447000D01*
X168924335Y-97447000D01*
X169201574Y-97391853D01*
X169462727Y-97283680D01*
X169697759Y-97126637D01*
X169897637Y-96926759D01*
X170053000Y-96694241D01*
X170208363Y-96926759D01*
X170408241Y-97126637D01*
X170643273Y-97283680D01*
X170904426Y-97391853D01*
X171181665Y-97447000D01*
X171464335Y-97447000D01*
X171741574Y-97391853D01*
X172002727Y-97283680D01*
X172237759Y-97126637D01*
X172437637Y-96926759D01*
X172593000Y-96694241D01*
X172748363Y-96926759D01*
X172948241Y-97126637D01*
X173183273Y-97283680D01*
X173444426Y-97391853D01*
X173721665Y-97447000D01*
X174004335Y-97447000D01*
X174281574Y-97391853D01*
X174542727Y-97283680D01*
X174777759Y-97126637D01*
X174977637Y-96926759D01*
X175133000Y-96694241D01*
X175288363Y-96926759D01*
X175488241Y-97126637D01*
X175723273Y-97283680D01*
X175984426Y-97391853D01*
X176261665Y-97447000D01*
X176544335Y-97447000D01*
X176821574Y-97391853D01*
X177082727Y-97283680D01*
X177317759Y-97126637D01*
X177517637Y-96926759D01*
X177673000Y-96694241D01*
X177828363Y-96926759D01*
X178028241Y-97126637D01*
X178263273Y-97283680D01*
X178524426Y-97391853D01*
X178801665Y-97447000D01*
X179084335Y-97447000D01*
X179361574Y-97391853D01*
X179622727Y-97283680D01*
X179857759Y-97126637D01*
X180057637Y-96926759D01*
X180213000Y-96694241D01*
X180368363Y-96926759D01*
X180568241Y-97126637D01*
X180803273Y-97283680D01*
X181064426Y-97391853D01*
X181341665Y-97447000D01*
X181624335Y-97447000D01*
X181901574Y-97391853D01*
X182162727Y-97283680D01*
X182397759Y-97126637D01*
X182597637Y-96926759D01*
X182753000Y-96694241D01*
X182908363Y-96926759D01*
X183108241Y-97126637D01*
X183343273Y-97283680D01*
X183604426Y-97391853D01*
X183881665Y-97447000D01*
X184164335Y-97447000D01*
X184441574Y-97391853D01*
X184702727Y-97283680D01*
X184937759Y-97126637D01*
X185137637Y-96926759D01*
X185293000Y-96694241D01*
X185448363Y-96926759D01*
X185648241Y-97126637D01*
X185883273Y-97283680D01*
X186144426Y-97391853D01*
X186421665Y-97447000D01*
X186704335Y-97447000D01*
X186981574Y-97391853D01*
X187242727Y-97283680D01*
X187477759Y-97126637D01*
X187677637Y-96926759D01*
X187833000Y-96694241D01*
X187988363Y-96926759D01*
X188188241Y-97126637D01*
X188423273Y-97283680D01*
X188684426Y-97391853D01*
X188961665Y-97447000D01*
X189244335Y-97447000D01*
X189521574Y-97391853D01*
X189782727Y-97283680D01*
X190017759Y-97126637D01*
X190217637Y-96926759D01*
X190373000Y-96694241D01*
X190528363Y-96926759D01*
X190728241Y-97126637D01*
X190963273Y-97283680D01*
X191224426Y-97391853D01*
X191501665Y-97447000D01*
X191784335Y-97447000D01*
X192061574Y-97391853D01*
X192322727Y-97283680D01*
X192557759Y-97126637D01*
X192757637Y-96926759D01*
X192913000Y-96694241D01*
X193068363Y-96926759D01*
X193268241Y-97126637D01*
X193503273Y-97283680D01*
X193764426Y-97391853D01*
X194041665Y-97447000D01*
X194324335Y-97447000D01*
X194601574Y-97391853D01*
X194862727Y-97283680D01*
X195097759Y-97126637D01*
X195297637Y-96926759D01*
X195454680Y-96691727D01*
X195562853Y-96430574D01*
X195618000Y-96153335D01*
X195618000Y-95870665D01*
X195562853Y-95593426D01*
X195454680Y-95332273D01*
X195297637Y-95097241D01*
X195097759Y-94897363D01*
X194862727Y-94740320D01*
X194601574Y-94632147D01*
X194324335Y-94577000D01*
X194041665Y-94577000D01*
X193764426Y-94632147D01*
X193503273Y-94740320D01*
X193268241Y-94897363D01*
X193068363Y-95097241D01*
X192913000Y-95329759D01*
X192757637Y-95097241D01*
X192557759Y-94897363D01*
X192322727Y-94740320D01*
X192061574Y-94632147D01*
X191784335Y-94577000D01*
X191501665Y-94577000D01*
X191224426Y-94632147D01*
X190963273Y-94740320D01*
X190728241Y-94897363D01*
X190528363Y-95097241D01*
X190373000Y-95329759D01*
X190217637Y-95097241D01*
X190017759Y-94897363D01*
X189782727Y-94740320D01*
X189521574Y-94632147D01*
X189244335Y-94577000D01*
X188961665Y-94577000D01*
X188684426Y-94632147D01*
X188423273Y-94740320D01*
X188188241Y-94897363D01*
X187988363Y-95097241D01*
X187833000Y-95329759D01*
X187677637Y-95097241D01*
X187477759Y-94897363D01*
X187242727Y-94740320D01*
X186981574Y-94632147D01*
X186704335Y-94577000D01*
X186421665Y-94577000D01*
X186144426Y-94632147D01*
X185883273Y-94740320D01*
X185648241Y-94897363D01*
X185448363Y-95097241D01*
X185293000Y-95329759D01*
X185137637Y-95097241D01*
X184937759Y-94897363D01*
X184702727Y-94740320D01*
X184441574Y-94632147D01*
X184164335Y-94577000D01*
X183881665Y-94577000D01*
X183604426Y-94632147D01*
X183343273Y-94740320D01*
X183108241Y-94897363D01*
X182908363Y-95097241D01*
X182753000Y-95329759D01*
X182597637Y-95097241D01*
X182397759Y-94897363D01*
X182162727Y-94740320D01*
X181901574Y-94632147D01*
X181624335Y-94577000D01*
X181341665Y-94577000D01*
X181064426Y-94632147D01*
X180803273Y-94740320D01*
X180568241Y-94897363D01*
X180368363Y-95097241D01*
X180213000Y-95329759D01*
X180057637Y-95097241D01*
X179857759Y-94897363D01*
X179622727Y-94740320D01*
X179361574Y-94632147D01*
X179084335Y-94577000D01*
X178801665Y-94577000D01*
X178524426Y-94632147D01*
X178263273Y-94740320D01*
X178028241Y-94897363D01*
X177828363Y-95097241D01*
X177673000Y-95329759D01*
X177517637Y-95097241D01*
X177317759Y-94897363D01*
X177082727Y-94740320D01*
X176821574Y-94632147D01*
X176544335Y-94577000D01*
X176261665Y-94577000D01*
X175984426Y-94632147D01*
X175723273Y-94740320D01*
X175488241Y-94897363D01*
X175288363Y-95097241D01*
X175133000Y-95329759D01*
X174977637Y-95097241D01*
X174777759Y-94897363D01*
X174542727Y-94740320D01*
X174281574Y-94632147D01*
X174004335Y-94577000D01*
X173721665Y-94577000D01*
X173444426Y-94632147D01*
X173183273Y-94740320D01*
X172948241Y-94897363D01*
X172748363Y-95097241D01*
X172593000Y-95329759D01*
X172437637Y-95097241D01*
X172237759Y-94897363D01*
X172002727Y-94740320D01*
X171741574Y-94632147D01*
X171464335Y-94577000D01*
X171181665Y-94577000D01*
X170904426Y-94632147D01*
X170643273Y-94740320D01*
X170408241Y-94897363D01*
X170208363Y-95097241D01*
X170053000Y-95329759D01*
X169897637Y-95097241D01*
X169697759Y-94897363D01*
X169462727Y-94740320D01*
X169201574Y-94632147D01*
X168924335Y-94577000D01*
X168641665Y-94577000D01*
X168364426Y-94632147D01*
X168103273Y-94740320D01*
X167868241Y-94897363D01*
X167668363Y-95097241D01*
X167511320Y-95332273D01*
X167506933Y-95342865D01*
X167395385Y-95156869D01*
X167206414Y-94948481D01*
X166980420Y-94780963D01*
X166726087Y-94660754D01*
X166592039Y-94620096D01*
X166370000Y-94742085D01*
X166116000Y-94742085D01*
X165893961Y-94620096D01*
X165759913Y-94660754D01*
X165505580Y-94780963D01*
X165279586Y-94948481D01*
X165090615Y-95156869D01*
X164979067Y-95342865D01*
X164974680Y-95332273D01*
X164817637Y-95097241D01*
X164617759Y-94897363D01*
X164382727Y-94740320D01*
X164121574Y-94632147D01*
X163844335Y-94577000D01*
X163561665Y-94577000D01*
X163284426Y-94632147D01*
X163023273Y-94740320D01*
X162788241Y-94897363D01*
X162588363Y-95097241D01*
X162433000Y-95329759D01*
X162277637Y-95097241D01*
X162077759Y-94897363D01*
X161842727Y-94740320D01*
X161581574Y-94632147D01*
X161304335Y-94577000D01*
X161021665Y-94577000D01*
X160744426Y-94632147D01*
X160483273Y-94740320D01*
X160248241Y-94897363D01*
X160049643Y-95095961D01*
X160048812Y-95087518D01*
X160012502Y-94967820D01*
X159953537Y-94857506D01*
X159874185Y-94760815D01*
X159777494Y-94681463D01*
X159667180Y-94622498D01*
X159547482Y-94586188D01*
X159423000Y-94573928D01*
X157823000Y-94573928D01*
X157698518Y-94586188D01*
X157578820Y-94622498D01*
X157468506Y-94681463D01*
X157371815Y-94760815D01*
X157292463Y-94857506D01*
X157233498Y-94967820D01*
X157197188Y-95087518D01*
X157184928Y-95212000D01*
X157184928Y-96372442D01*
X156852648Y-96704722D01*
X156823578Y-96728579D01*
X156799721Y-96757649D01*
X156799720Y-96757650D01*
X156728354Y-96844609D01*
X156657598Y-96976986D01*
X156614026Y-97120623D01*
X156599313Y-97270001D01*
X156603000Y-97307434D01*
X156603000Y-97930483D01*
X156359989Y-97829825D01*
X156092411Y-97776600D01*
X155819589Y-97776600D01*
X155552011Y-97829825D01*
X155299957Y-97934229D01*
X155073114Y-98085801D01*
X155005001Y-98153914D01*
X155005001Y-90577223D01*
X155008687Y-90539800D01*
X155005001Y-90502375D01*
X154993975Y-90390423D01*
X154950403Y-90246786D01*
X154879646Y-90114409D01*
X154784423Y-89998379D01*
X154755354Y-89974523D01*
X154476114Y-89695284D01*
X154497000Y-89590286D01*
X154497000Y-89327314D01*
X154445696Y-89069395D01*
X154345061Y-88826441D01*
X154198962Y-88607787D01*
X154013013Y-88421838D01*
X153794359Y-88275739D01*
X153551405Y-88175104D01*
X153293486Y-88123800D01*
X153030514Y-88123800D01*
X152772595Y-88175104D01*
X152529641Y-88275739D01*
X152310987Y-88421838D01*
X152125038Y-88607787D01*
X151978939Y-88826441D01*
X151878304Y-89069395D01*
X151855694Y-89183064D01*
X151720684Y-89048054D01*
X151696822Y-89018978D01*
X151580792Y-88923755D01*
X151448415Y-88852998D01*
X151304778Y-88809426D01*
X151192826Y-88798400D01*
X151192823Y-88798400D01*
X151155400Y-88794714D01*
X151117977Y-88798400D01*
X150023230Y-88798400D01*
X152599829Y-86221801D01*
X169137776Y-86221801D01*
X169175199Y-86225487D01*
X169212622Y-86221801D01*
X169212625Y-86221801D01*
X169324577Y-86210775D01*
X169468214Y-86167203D01*
X169600591Y-86096446D01*
X169716621Y-86001223D01*
X169740483Y-85972147D01*
X173541474Y-82171157D01*
X173721665Y-82207000D01*
X174004335Y-82207000D01*
X174281574Y-82151853D01*
X174542727Y-82043680D01*
X174777759Y-81886637D01*
X174977637Y-81686759D01*
X175133000Y-81454241D01*
X175288363Y-81686759D01*
X175488241Y-81886637D01*
X175723273Y-82043680D01*
X175984426Y-82151853D01*
X176261665Y-82207000D01*
X176544335Y-82207000D01*
X176821574Y-82151853D01*
X177082727Y-82043680D01*
X177317759Y-81886637D01*
X177517637Y-81686759D01*
X177673000Y-81454241D01*
X177828363Y-81686759D01*
X178028241Y-81886637D01*
X178263273Y-82043680D01*
X178524426Y-82151853D01*
X178801665Y-82207000D01*
X179084335Y-82207000D01*
X179361574Y-82151853D01*
X179622727Y-82043680D01*
X179857759Y-81886637D01*
X180057637Y-81686759D01*
X180213000Y-81454241D01*
X180368363Y-81686759D01*
X180568241Y-81886637D01*
X180803273Y-82043680D01*
X181064426Y-82151853D01*
X181341665Y-82207000D01*
X181624335Y-82207000D01*
X181901574Y-82151853D01*
X182162727Y-82043680D01*
X182397759Y-81886637D01*
X182597637Y-81686759D01*
X182753000Y-81454241D01*
X182908363Y-81686759D01*
X183108241Y-81886637D01*
X183343273Y-82043680D01*
X183604426Y-82151853D01*
X183881665Y-82207000D01*
X184164335Y-82207000D01*
X184441574Y-82151853D01*
X184702727Y-82043680D01*
X184937759Y-81886637D01*
X185137637Y-81686759D01*
X185293000Y-81454241D01*
X185448363Y-81686759D01*
X185648241Y-81886637D01*
X185883273Y-82043680D01*
X186144426Y-82151853D01*
X186421665Y-82207000D01*
X186704335Y-82207000D01*
X186981574Y-82151853D01*
X187242727Y-82043680D01*
X187477759Y-81886637D01*
X187677637Y-81686759D01*
X187833000Y-81454241D01*
X187988363Y-81686759D01*
X188188241Y-81886637D01*
X188423273Y-82043680D01*
X188684426Y-82151853D01*
X188961665Y-82207000D01*
X189244335Y-82207000D01*
X189521574Y-82151853D01*
X189782727Y-82043680D01*
X190017759Y-81886637D01*
X190217637Y-81686759D01*
X190373000Y-81454241D01*
X190528363Y-81686759D01*
X190728241Y-81886637D01*
X190963273Y-82043680D01*
X191224426Y-82151853D01*
X191501665Y-82207000D01*
X191784335Y-82207000D01*
X192061574Y-82151853D01*
X192322727Y-82043680D01*
X192557759Y-81886637D01*
X192757637Y-81686759D01*
X192913000Y-81454241D01*
X193068363Y-81686759D01*
X193268241Y-81886637D01*
X193503273Y-82043680D01*
X193764426Y-82151853D01*
X194041665Y-82207000D01*
X194324335Y-82207000D01*
X194601574Y-82151853D01*
X194862727Y-82043680D01*
X195097759Y-81886637D01*
X195297637Y-81686759D01*
X195454680Y-81451727D01*
X195562853Y-81190574D01*
X195618000Y-80913335D01*
X195618000Y-80630665D01*
X195562853Y-80353426D01*
X195454680Y-80092273D01*
X195297637Y-79857241D01*
X195097759Y-79657363D01*
X194862727Y-79500320D01*
X194601574Y-79392147D01*
X194324335Y-79337000D01*
X194041665Y-79337000D01*
X193764426Y-79392147D01*
X193503273Y-79500320D01*
X193268241Y-79657363D01*
X193068363Y-79857241D01*
X192913000Y-80089759D01*
X192757637Y-79857241D01*
X192557759Y-79657363D01*
X192322727Y-79500320D01*
X192061574Y-79392147D01*
X191784335Y-79337000D01*
X191501665Y-79337000D01*
X191224426Y-79392147D01*
X190963273Y-79500320D01*
X190728241Y-79657363D01*
X190528363Y-79857241D01*
X190373000Y-80089759D01*
X190217637Y-79857241D01*
X190017759Y-79657363D01*
X189782727Y-79500320D01*
X189521574Y-79392147D01*
X189244335Y-79337000D01*
X188961665Y-79337000D01*
X188684426Y-79392147D01*
X188423273Y-79500320D01*
X188188241Y-79657363D01*
X187988363Y-79857241D01*
X187833000Y-80089759D01*
X187677637Y-79857241D01*
X187477759Y-79657363D01*
X187242727Y-79500320D01*
X186981574Y-79392147D01*
X186704335Y-79337000D01*
X186421665Y-79337000D01*
X186144426Y-79392147D01*
X185883273Y-79500320D01*
X185648241Y-79657363D01*
X185448363Y-79857241D01*
X185293000Y-80089759D01*
X185137637Y-79857241D01*
X184937759Y-79657363D01*
X184702727Y-79500320D01*
X184441574Y-79392147D01*
X184164335Y-79337000D01*
X183881665Y-79337000D01*
X183604426Y-79392147D01*
X183343273Y-79500320D01*
X183108241Y-79657363D01*
X182908363Y-79857241D01*
X182753000Y-80089759D01*
X182597637Y-79857241D01*
X182397759Y-79657363D01*
X182162727Y-79500320D01*
X181901574Y-79392147D01*
X181624335Y-79337000D01*
X181341665Y-79337000D01*
X181064426Y-79392147D01*
X180803273Y-79500320D01*
X180568241Y-79657363D01*
X180368363Y-79857241D01*
X180213000Y-80089759D01*
X180057637Y-79857241D01*
X179857759Y-79657363D01*
X179622727Y-79500320D01*
X179361574Y-79392147D01*
X179084335Y-79337000D01*
X178801665Y-79337000D01*
X178524426Y-79392147D01*
X178263273Y-79500320D01*
X178028241Y-79657363D01*
X177828363Y-79857241D01*
X177673000Y-80089759D01*
X177517637Y-79857241D01*
X177317759Y-79657363D01*
X177082727Y-79500320D01*
X176821574Y-79392147D01*
X176544335Y-79337000D01*
X176261665Y-79337000D01*
X175984426Y-79392147D01*
X175723273Y-79500320D01*
X175488241Y-79657363D01*
X175288363Y-79857241D01*
X175133000Y-80089759D01*
X174977637Y-79857241D01*
X174777759Y-79657363D01*
X174542727Y-79500320D01*
X174281574Y-79392147D01*
X174004335Y-79337000D01*
X173721665Y-79337000D01*
X173444426Y-79392147D01*
X173183273Y-79500320D01*
X172948241Y-79657363D01*
X172748363Y-79857241D01*
X172593000Y-80089759D01*
X172437637Y-79857241D01*
X172237759Y-79657363D01*
X172002727Y-79500320D01*
X171741574Y-79392147D01*
X171464335Y-79337000D01*
X171181665Y-79337000D01*
X171080141Y-79357195D01*
X171138792Y-79325845D01*
X171254822Y-79230622D01*
X171278684Y-79201546D01*
X172408425Y-78071806D01*
X172420888Y-78076968D01*
X172736767Y-78139800D01*
X173058833Y-78139800D01*
X173374712Y-78076968D01*
X173672263Y-77953718D01*
X173940052Y-77774787D01*
X174167787Y-77547052D01*
X174346718Y-77279263D01*
X174469968Y-76981712D01*
X174532800Y-76665833D01*
X174532800Y-76343767D01*
X175072800Y-76343767D01*
X175072800Y-76665833D01*
X175135632Y-76981712D01*
X175258882Y-77279263D01*
X175437813Y-77547052D01*
X175665548Y-77774787D01*
X175933337Y-77953718D01*
X176230888Y-78076968D01*
X176546767Y-78139800D01*
X176868833Y-78139800D01*
X177184712Y-78076968D01*
X177482263Y-77953718D01*
X177750052Y-77774787D01*
X177977787Y-77547052D01*
X178156718Y-77279263D01*
X178279968Y-76981712D01*
X178342800Y-76665833D01*
X178342800Y-76343767D01*
X178882800Y-76343767D01*
X178882800Y-76665833D01*
X178945632Y-76981712D01*
X179068882Y-77279263D01*
X179247813Y-77547052D01*
X179475548Y-77774787D01*
X179743337Y-77953718D01*
X180040888Y-78076968D01*
X180356767Y-78139800D01*
X180678833Y-78139800D01*
X180994712Y-78076968D01*
X181292263Y-77953718D01*
X181560052Y-77774787D01*
X181787787Y-77547052D01*
X181966718Y-77279263D01*
X182089968Y-76981712D01*
X182109158Y-76885234D01*
X182737676Y-76885234D01*
X182794298Y-77071907D01*
X182934401Y-77360182D01*
X183128052Y-77615585D01*
X183367808Y-77828301D01*
X183644456Y-77990156D01*
X183947365Y-78094929D01*
X184200800Y-77976115D01*
X184200800Y-76631800D01*
X184454800Y-76631800D01*
X184454800Y-77976115D01*
X184708235Y-78094929D01*
X185011144Y-77990156D01*
X185287792Y-77828301D01*
X185527548Y-77615585D01*
X185721199Y-77360182D01*
X185771578Y-77256522D01*
X187083625Y-77256522D01*
X187148225Y-77469494D01*
X187298269Y-77774729D01*
X187504978Y-78044827D01*
X187760409Y-78269408D01*
X188054746Y-78439842D01*
X188376677Y-78549579D01*
X188645800Y-78432000D01*
X188645800Y-76987400D01*
X188899800Y-76987400D01*
X188899800Y-78432000D01*
X189168923Y-78549579D01*
X189490854Y-78439842D01*
X189785191Y-78269408D01*
X190040622Y-78044827D01*
X190247331Y-77774729D01*
X190397375Y-77469494D01*
X190461975Y-77256522D01*
X190343925Y-76987400D01*
X188899800Y-76987400D01*
X188645800Y-76987400D01*
X187201675Y-76987400D01*
X187083625Y-77256522D01*
X185771578Y-77256522D01*
X185861302Y-77071907D01*
X185917924Y-76885234D01*
X185798577Y-76631800D01*
X184454800Y-76631800D01*
X184200800Y-76631800D01*
X182857023Y-76631800D01*
X182737676Y-76885234D01*
X182109158Y-76885234D01*
X182152800Y-76665833D01*
X182152800Y-76464278D01*
X187083625Y-76464278D01*
X187201675Y-76733400D01*
X188645800Y-76733400D01*
X188645800Y-75288800D01*
X188899800Y-75288800D01*
X188899800Y-76733400D01*
X190343925Y-76733400D01*
X190461975Y-76464278D01*
X190397375Y-76251306D01*
X190247331Y-75946071D01*
X190105235Y-75760400D01*
X197194728Y-75760400D01*
X197194728Y-77960400D01*
X197206988Y-78084882D01*
X197243298Y-78204580D01*
X197302263Y-78314894D01*
X197381615Y-78411585D01*
X197478306Y-78490937D01*
X197588620Y-78549902D01*
X197708318Y-78586212D01*
X197832800Y-78598472D01*
X200032800Y-78598472D01*
X200157282Y-78586212D01*
X200276980Y-78549902D01*
X200387294Y-78490937D01*
X200483985Y-78411585D01*
X200563337Y-78314894D01*
X200622302Y-78204580D01*
X200658612Y-78084882D01*
X200670872Y-77960400D01*
X200670872Y-75760400D01*
X200658612Y-75635918D01*
X200622302Y-75516220D01*
X200563337Y-75405906D01*
X200483985Y-75309215D01*
X200387294Y-75229863D01*
X200276980Y-75170898D01*
X200157282Y-75134588D01*
X200032800Y-75122328D01*
X197832800Y-75122328D01*
X197708318Y-75134588D01*
X197588620Y-75170898D01*
X197478306Y-75229863D01*
X197381615Y-75309215D01*
X197302263Y-75405906D01*
X197243298Y-75516220D01*
X197206988Y-75635918D01*
X197194728Y-75760400D01*
X190105235Y-75760400D01*
X190040622Y-75675973D01*
X189785191Y-75451392D01*
X189490854Y-75280958D01*
X189168923Y-75171221D01*
X188899800Y-75288800D01*
X188645800Y-75288800D01*
X188376677Y-75171221D01*
X188054746Y-75280958D01*
X187760409Y-75451392D01*
X187504978Y-75675973D01*
X187298269Y-75946071D01*
X187148225Y-76251306D01*
X187083625Y-76464278D01*
X182152800Y-76464278D01*
X182152800Y-76343767D01*
X182109159Y-76124366D01*
X182737676Y-76124366D01*
X182857023Y-76377800D01*
X184200800Y-76377800D01*
X184200800Y-75033485D01*
X184454800Y-75033485D01*
X184454800Y-76377800D01*
X185798577Y-76377800D01*
X185917924Y-76124366D01*
X185861302Y-75937693D01*
X185721199Y-75649418D01*
X185527548Y-75394015D01*
X185287792Y-75181299D01*
X185011144Y-75019444D01*
X184708235Y-74914671D01*
X184454800Y-75033485D01*
X184200800Y-75033485D01*
X183947365Y-74914671D01*
X183644456Y-75019444D01*
X183367808Y-75181299D01*
X183128052Y-75394015D01*
X182934401Y-75649418D01*
X182794298Y-75937693D01*
X182737676Y-76124366D01*
X182109159Y-76124366D01*
X182089968Y-76027888D01*
X181966718Y-75730337D01*
X181787787Y-75462548D01*
X181560052Y-75234813D01*
X181292263Y-75055882D01*
X180994712Y-74932632D01*
X180678833Y-74869800D01*
X180356767Y-74869800D01*
X180040888Y-74932632D01*
X179743337Y-75055882D01*
X179475548Y-75234813D01*
X179247813Y-75462548D01*
X179068882Y-75730337D01*
X178945632Y-76027888D01*
X178882800Y-76343767D01*
X178342800Y-76343767D01*
X178279968Y-76027888D01*
X178156718Y-75730337D01*
X177977787Y-75462548D01*
X177750052Y-75234813D01*
X177482263Y-75055882D01*
X177184712Y-74932632D01*
X176868833Y-74869800D01*
X176546767Y-74869800D01*
X176230888Y-74932632D01*
X175933337Y-75055882D01*
X175665548Y-75234813D01*
X175437813Y-75462548D01*
X175258882Y-75730337D01*
X175135632Y-76027888D01*
X175072800Y-76343767D01*
X174532800Y-76343767D01*
X174469968Y-76027888D01*
X174346718Y-75730337D01*
X174167787Y-75462548D01*
X173940052Y-75234813D01*
X173672263Y-75055882D01*
X173374712Y-74932632D01*
X173058833Y-74869800D01*
X172736767Y-74869800D01*
X172420888Y-74932632D01*
X172123337Y-75055882D01*
X171855548Y-75234813D01*
X171627813Y-75462548D01*
X171448882Y-75730337D01*
X171325632Y-76027888D01*
X171262800Y-76343767D01*
X171262800Y-76665833D01*
X171325632Y-76981712D01*
X171330794Y-76994175D01*
X170397770Y-77927200D01*
X169364596Y-77927200D01*
X169516637Y-77775159D01*
X169673680Y-77540127D01*
X169781853Y-77278974D01*
X169837000Y-77001735D01*
X169837000Y-76719065D01*
X169781853Y-76441826D01*
X169673680Y-76180673D01*
X169516637Y-75945641D01*
X169316759Y-75745763D01*
X169081727Y-75588720D01*
X168820574Y-75480547D01*
X168543335Y-75425400D01*
X168260665Y-75425400D01*
X167983426Y-75480547D01*
X167722273Y-75588720D01*
X167487241Y-75745763D01*
X167287363Y-75945641D01*
X167130320Y-76180673D01*
X167022147Y-76441826D01*
X166967000Y-76719065D01*
X166967000Y-77001735D01*
X167022147Y-77278974D01*
X167130320Y-77540127D01*
X167287363Y-77775159D01*
X167439404Y-77927200D01*
X160816906Y-77927200D01*
X160779483Y-77923514D01*
X160742060Y-77927200D01*
X160742058Y-77927200D01*
X160630106Y-77938226D01*
X160486469Y-77981798D01*
X160354092Y-78052555D01*
X160238062Y-78147778D01*
X160214205Y-78176848D01*
X159005986Y-79385068D01*
X158764335Y-79337000D01*
X158481665Y-79337000D01*
X158204426Y-79392147D01*
X157943273Y-79500320D01*
X157708241Y-79657363D01*
X157508363Y-79857241D01*
X157351320Y-80092273D01*
X157243147Y-80353426D01*
X157188000Y-80630665D01*
X157188000Y-80913335D01*
X157243147Y-81190574D01*
X157351320Y-81451727D01*
X157508363Y-81686759D01*
X157708241Y-81886637D01*
X157943273Y-82043680D01*
X158059632Y-82091877D01*
X158031565Y-82089113D01*
X157994142Y-82092799D01*
X157040864Y-82092799D01*
X155952942Y-81004877D01*
X156059133Y-81026000D01*
X156259267Y-81026000D01*
X156455556Y-80986956D01*
X156640456Y-80910368D01*
X156806862Y-80799179D01*
X156948379Y-80657662D01*
X157059568Y-80491256D01*
X157136156Y-80306356D01*
X157175200Y-80110067D01*
X157175200Y-79909933D01*
X157136156Y-79713644D01*
X157059568Y-79528744D01*
X156948379Y-79362338D01*
X156806862Y-79220821D01*
X156640456Y-79109632D01*
X156464000Y-79036542D01*
X156464000Y-78077107D01*
X156616759Y-77975037D01*
X156816637Y-77775159D01*
X156973680Y-77540127D01*
X157081853Y-77278974D01*
X157137000Y-77001735D01*
X157137000Y-76719065D01*
X157081853Y-76441826D01*
X156973680Y-76180673D01*
X156816637Y-75945641D01*
X156616759Y-75745763D01*
X156381727Y-75588720D01*
X156120574Y-75480547D01*
X155843335Y-75425400D01*
X155560665Y-75425400D01*
X155380473Y-75461243D01*
X154646072Y-74726842D01*
X154646072Y-73423600D01*
X154633812Y-73299118D01*
X154597502Y-73179420D01*
X154587122Y-73160000D01*
X202840000Y-73160000D01*
X202840001Y-109040000D01*
X140660000Y-109040000D01*
X140660000Y-103445567D01*
X140833600Y-103445567D01*
X140833600Y-103767633D01*
X140896432Y-104083512D01*
X141019682Y-104381063D01*
X141198613Y-104648852D01*
X141426348Y-104876587D01*
X141694137Y-105055518D01*
X141991688Y-105178768D01*
X142307567Y-105241600D01*
X142629633Y-105241600D01*
X142945512Y-105178768D01*
X143243063Y-105055518D01*
X143453409Y-104914970D01*
X143478063Y-104961094D01*
X143557415Y-105057785D01*
X143654106Y-105137137D01*
X143764420Y-105196102D01*
X143884118Y-105232412D01*
X144008600Y-105244672D01*
X145924642Y-105244672D01*
X146564686Y-105884716D01*
X146543800Y-105989714D01*
X146543800Y-106252686D01*
X146595104Y-106510605D01*
X146695739Y-106753559D01*
X146841838Y-106972213D01*
X147027787Y-107158162D01*
X147246441Y-107304261D01*
X147489395Y-107404896D01*
X147747314Y-107456200D01*
X148010286Y-107456200D01*
X148268205Y-107404896D01*
X148511159Y-107304261D01*
X148729813Y-107158162D01*
X148915762Y-106972213D01*
X149061861Y-106753559D01*
X149162496Y-106510605D01*
X149213800Y-106252686D01*
X149213800Y-105989714D01*
X149162496Y-105731795D01*
X149061861Y-105488841D01*
X148915762Y-105270187D01*
X148729813Y-105084238D01*
X148511159Y-104938139D01*
X148268205Y-104837504D01*
X148010286Y-104786200D01*
X147747314Y-104786200D01*
X147642316Y-104807086D01*
X146646672Y-103811442D01*
X146646672Y-102606600D01*
X146634412Y-102482118D01*
X146598102Y-102362420D01*
X146539137Y-102252106D01*
X146459785Y-102155415D01*
X146363094Y-102076063D01*
X146252780Y-102017098D01*
X146133082Y-101980788D01*
X146008600Y-101968528D01*
X144008600Y-101968528D01*
X143884118Y-101980788D01*
X143764420Y-102017098D01*
X143654106Y-102076063D01*
X143557415Y-102155415D01*
X143478063Y-102252106D01*
X143453409Y-102298230D01*
X143243063Y-102157682D01*
X142945512Y-102034432D01*
X142629633Y-101971600D01*
X142307567Y-101971600D01*
X141991688Y-102034432D01*
X141694137Y-102157682D01*
X141426348Y-102336613D01*
X141198613Y-102564348D01*
X141019682Y-102832137D01*
X140896432Y-103129688D01*
X140833600Y-103445567D01*
X140660000Y-103445567D01*
X140660000Y-87090912D01*
X144203383Y-87090912D01*
X144244813Y-87370530D01*
X144339997Y-87636692D01*
X144406929Y-87761914D01*
X144650898Y-87833497D01*
X145463995Y-87020400D01*
X144650898Y-86207303D01*
X144406929Y-86278886D01*
X144286029Y-86534396D01*
X144217300Y-86808584D01*
X144203383Y-87090912D01*
X140660000Y-87090912D01*
X140660000Y-86027698D01*
X144830503Y-86027698D01*
X145643600Y-86840795D01*
X146456697Y-86027698D01*
X146385114Y-85783729D01*
X146129604Y-85662829D01*
X145855416Y-85594100D01*
X145573088Y-85580183D01*
X145293470Y-85621613D01*
X145027308Y-85716797D01*
X144902086Y-85783729D01*
X144830503Y-86027698D01*
X140660000Y-86027698D01*
X140660000Y-81198112D01*
X146732583Y-81198112D01*
X146774013Y-81477730D01*
X146869197Y-81743892D01*
X146936129Y-81869114D01*
X147180098Y-81940697D01*
X147993195Y-81127600D01*
X147180098Y-80314503D01*
X146936129Y-80386086D01*
X146815229Y-80641596D01*
X146746500Y-80915784D01*
X146732583Y-81198112D01*
X140660000Y-81198112D01*
X140660000Y-77845312D01*
X146630983Y-77845312D01*
X146672413Y-78124930D01*
X146767597Y-78391092D01*
X146834529Y-78516314D01*
X147078498Y-78587897D01*
X147891595Y-77774800D01*
X147078498Y-76961703D01*
X146834529Y-77033286D01*
X146713629Y-77288796D01*
X146644900Y-77562984D01*
X146630983Y-77845312D01*
X140660000Y-77845312D01*
X140660000Y-76782098D01*
X147258103Y-76782098D01*
X148071200Y-77595195D01*
X148884297Y-76782098D01*
X148812714Y-76538129D01*
X148557204Y-76417229D01*
X148283016Y-76348500D01*
X148000688Y-76334583D01*
X147721070Y-76376013D01*
X147454908Y-76471197D01*
X147329686Y-76538129D01*
X147258103Y-76782098D01*
X140660000Y-76782098D01*
X140660000Y-74919722D01*
X141058825Y-74919722D01*
X141123425Y-75132694D01*
X141273469Y-75437929D01*
X141480178Y-75708027D01*
X141735609Y-75932608D01*
X142029946Y-76103042D01*
X142351877Y-76212779D01*
X142621000Y-76095200D01*
X142621000Y-74650600D01*
X142875000Y-74650600D01*
X142875000Y-76095200D01*
X143144123Y-76212779D01*
X143466054Y-76103042D01*
X143760391Y-75932608D01*
X144015822Y-75708027D01*
X144222531Y-75437929D01*
X144372575Y-75132694D01*
X144437175Y-74919722D01*
X144319125Y-74650600D01*
X142875000Y-74650600D01*
X142621000Y-74650600D01*
X141176875Y-74650600D01*
X141058825Y-74919722D01*
X140660000Y-74919722D01*
X140660000Y-73160000D01*
X141683963Y-73160000D01*
X141480178Y-73339173D01*
%TA.AperFunction,Conductor*%
D25*
G36*
X141480178Y-73339173D02*
G01*
X141273469Y-73609271D01*
X141123425Y-73914506D01*
X141058825Y-74127478D01*
X141176875Y-74396600D01*
X142621000Y-74396600D01*
X142621000Y-74376600D01*
X142875000Y-74376600D01*
X142875000Y-74396600D01*
X144319125Y-74396600D01*
X144437175Y-74127478D01*
X144372575Y-73914506D01*
X144222531Y-73609271D01*
X144015822Y-73339173D01*
X143812037Y-73160000D01*
X151228878Y-73160000D01*
X151218498Y-73179420D01*
X151182188Y-73299118D01*
X151169928Y-73423600D01*
X151169928Y-75623600D01*
X151176665Y-75692000D01*
X151065822Y-75692000D01*
X151028399Y-75688314D01*
X150990976Y-75692000D01*
X150990974Y-75692000D01*
X150879022Y-75703026D01*
X150735385Y-75746598D01*
X150603008Y-75817355D01*
X150486978Y-75912578D01*
X150463116Y-75941654D01*
X150058849Y-76345921D01*
X150029779Y-76369778D01*
X150005922Y-76398848D01*
X150005921Y-76398849D01*
X149935218Y-76485000D01*
X149891473Y-76503120D01*
X149656441Y-76660163D01*
X149456563Y-76860041D01*
X149322508Y-77060669D01*
X149307871Y-77033286D01*
X149063902Y-76961703D01*
X148250805Y-77774800D01*
X148264948Y-77788943D01*
X148085343Y-77968548D01*
X148071200Y-77954405D01*
X147258103Y-78767502D01*
X147329686Y-79011471D01*
X147585196Y-79132371D01*
X147859384Y-79201100D01*
X148141712Y-79215017D01*
X148421330Y-79173587D01*
X148591801Y-79112624D01*
X148591801Y-79753234D01*
X148384616Y-79701300D01*
X148102288Y-79687383D01*
X147822670Y-79728813D01*
X147556508Y-79823997D01*
X147431286Y-79890929D01*
X147359703Y-80134898D01*
X148172800Y-80947995D01*
X148186943Y-80933853D01*
X148366548Y-81113458D01*
X148352405Y-81127600D01*
X148366548Y-81141743D01*
X148186943Y-81321348D01*
X148172800Y-81307205D01*
X147359703Y-82120302D01*
X147431286Y-82364271D01*
X147686796Y-82485171D01*
X147960984Y-82553900D01*
X148243312Y-82567817D01*
X148522930Y-82526387D01*
X148591802Y-82501757D01*
X148591802Y-84742450D01*
X146941261Y-86392991D01*
X146880271Y-86278886D01*
X146636302Y-86207303D01*
X145823205Y-87020400D01*
X145837348Y-87034543D01*
X145657743Y-87214148D01*
X145643600Y-87200005D01*
X144830503Y-88013102D01*
X144902086Y-88257071D01*
X145020942Y-88313310D01*
X144535852Y-88798400D01*
X144320307Y-88798400D01*
X144218237Y-88645641D01*
X144018359Y-88445763D01*
X143783327Y-88288720D01*
X143522174Y-88180547D01*
X143244935Y-88125400D01*
X142962265Y-88125400D01*
X142685026Y-88180547D01*
X142423873Y-88288720D01*
X142188841Y-88445763D01*
X141988963Y-88645641D01*
X141831920Y-88880673D01*
X141723747Y-89141826D01*
X141668600Y-89419065D01*
X141668600Y-89701735D01*
X141723747Y-89978974D01*
X141831920Y-90240127D01*
X141988963Y-90475159D01*
X142188841Y-90675037D01*
X142341600Y-90777107D01*
X142341600Y-91270858D01*
X142337914Y-91308282D01*
X142341600Y-91345705D01*
X142341600Y-91345707D01*
X142352626Y-91457659D01*
X142396198Y-91601296D01*
X142396199Y-91601297D01*
X142466955Y-91733674D01*
X142506583Y-91781960D01*
X142562178Y-91849704D01*
X142591254Y-91873566D01*
X147877039Y-97159352D01*
X147900896Y-97188422D01*
X148016926Y-97283645D01*
X148149303Y-97354402D01*
X148292940Y-97397974D01*
X148404892Y-97409000D01*
X148404894Y-97409000D01*
X148442317Y-97412686D01*
X148479740Y-97409000D01*
X152065562Y-97409000D01*
X152125038Y-97498013D01*
X152310987Y-97683962D01*
X152529641Y-97830061D01*
X152772595Y-97930696D01*
X153030514Y-97982000D01*
X153293486Y-97982000D01*
X153481001Y-97944700D01*
X153481002Y-104892510D01*
X153348205Y-104837504D01*
X153090286Y-104786200D01*
X152827314Y-104786200D01*
X152569395Y-104837504D01*
X152326441Y-104938139D01*
X152107787Y-105084238D01*
X151921838Y-105270187D01*
X151775739Y-105488841D01*
X151675104Y-105731795D01*
X151623800Y-105989714D01*
X151623800Y-106252686D01*
X151675104Y-106510605D01*
X151775739Y-106753559D01*
X151921838Y-106972213D01*
X152107787Y-107158162D01*
X152326441Y-107304261D01*
X152569395Y-107404896D01*
X152827314Y-107456200D01*
X153090286Y-107456200D01*
X153348205Y-107404896D01*
X153591159Y-107304261D01*
X153619837Y-107285099D01*
X153677722Y-107355632D01*
X153701580Y-107384703D01*
X153730650Y-107408560D01*
X154835241Y-108513152D01*
X154859098Y-108542222D01*
X154975128Y-108637445D01*
X155107505Y-108708202D01*
X155251142Y-108751774D01*
X155363094Y-108762800D01*
X155363096Y-108762800D01*
X155400519Y-108766486D01*
X155437942Y-108762800D01*
X170272717Y-108762800D01*
X170389273Y-108840680D01*
X170650426Y-108948853D01*
X170927665Y-109004000D01*
X171210335Y-109004000D01*
X171487574Y-108948853D01*
X171748727Y-108840680D01*
X171983759Y-108683637D01*
X172183637Y-108483759D01*
X172285707Y-108331000D01*
X172392293Y-108331000D01*
X172494363Y-108483759D01*
X172694241Y-108683637D01*
X172929273Y-108840680D01*
X173190426Y-108948853D01*
X173467665Y-109004000D01*
X173750335Y-109004000D01*
X174027574Y-108948853D01*
X174288727Y-108840680D01*
X174523759Y-108683637D01*
X174723637Y-108483759D01*
X174825707Y-108331000D01*
X174932293Y-108331000D01*
X175034363Y-108483759D01*
X175234241Y-108683637D01*
X175469273Y-108840680D01*
X175730426Y-108948853D01*
X176007665Y-109004000D01*
X176290335Y-109004000D01*
X176567574Y-108948853D01*
X176828727Y-108840680D01*
X177063759Y-108683637D01*
X177263637Y-108483759D01*
X177365707Y-108331000D01*
X177472293Y-108331000D01*
X177574363Y-108483759D01*
X177774241Y-108683637D01*
X178009273Y-108840680D01*
X178270426Y-108948853D01*
X178547665Y-109004000D01*
X178830335Y-109004000D01*
X179107574Y-108948853D01*
X179368727Y-108840680D01*
X179603759Y-108683637D01*
X179803637Y-108483759D01*
X179960680Y-108248727D01*
X180068853Y-107987574D01*
X180124000Y-107710335D01*
X180124000Y-107427665D01*
X180068853Y-107150426D01*
X179960680Y-106889273D01*
X179803637Y-106654241D01*
X179603759Y-106454363D01*
X179368727Y-106297320D01*
X179107574Y-106189147D01*
X178830335Y-106134000D01*
X178547665Y-106134000D01*
X178270426Y-106189147D01*
X178009273Y-106297320D01*
X177774241Y-106454363D01*
X177574363Y-106654241D01*
X177472293Y-106807000D01*
X177365707Y-106807000D01*
X177263637Y-106654241D01*
X177063759Y-106454363D01*
X176828727Y-106297320D01*
X176567574Y-106189147D01*
X176290335Y-106134000D01*
X176007665Y-106134000D01*
X175730426Y-106189147D01*
X175469273Y-106297320D01*
X175234241Y-106454363D01*
X175034363Y-106654241D01*
X174932293Y-106807000D01*
X174825707Y-106807000D01*
X174723637Y-106654241D01*
X174523759Y-106454363D01*
X174288727Y-106297320D01*
X174027574Y-106189147D01*
X173750335Y-106134000D01*
X173467665Y-106134000D01*
X173190426Y-106189147D01*
X172929273Y-106297320D01*
X172694241Y-106454363D01*
X172494363Y-106654241D01*
X172392293Y-106807000D01*
X172285707Y-106807000D01*
X172183637Y-106654241D01*
X171983759Y-106454363D01*
X171748727Y-106297320D01*
X171487574Y-106189147D01*
X171210335Y-106134000D01*
X170927665Y-106134000D01*
X170650426Y-106189147D01*
X170389273Y-106297320D01*
X170154241Y-106454363D01*
X169954363Y-106654241D01*
X169797320Y-106889273D01*
X169689147Y-107150426D01*
X169671568Y-107238800D01*
X164885734Y-107238800D01*
X164907775Y-107185589D01*
X164961000Y-106918011D01*
X164961000Y-106645189D01*
X164907775Y-106377611D01*
X164803371Y-106125557D01*
X164651799Y-105898714D01*
X164458886Y-105705801D01*
X164338000Y-105625027D01*
X164338000Y-104259665D01*
X165903701Y-105825366D01*
X165927554Y-105854431D01*
X165956619Y-105878284D01*
X165956624Y-105878289D01*
X166043583Y-105949654D01*
X166175960Y-106020411D01*
X166319597Y-106063983D01*
X166468975Y-106078696D01*
X166506409Y-106075009D01*
X192558566Y-106075011D01*
X192595989Y-106078697D01*
X192633412Y-106075011D01*
X192633414Y-106075011D01*
X192745366Y-106063985D01*
X192889003Y-106020413D01*
X192950624Y-105987476D01*
X193021381Y-105949656D01*
X193108340Y-105878290D01*
X193108341Y-105878289D01*
X193137410Y-105854433D01*
X193161267Y-105825363D01*
X194066015Y-104920616D01*
X194220581Y-104984639D01*
X194594419Y-105059000D01*
X194975581Y-105059000D01*
X195349419Y-104984639D01*
X195701566Y-104838775D01*
X196018491Y-104627013D01*
X196288013Y-104357491D01*
X196499775Y-104040566D01*
X196645639Y-103688419D01*
X196720000Y-103314581D01*
X196720000Y-102933419D01*
X197850000Y-102933419D01*
X197850000Y-103314581D01*
X197924361Y-103688419D01*
X198070225Y-104040566D01*
X198281987Y-104357491D01*
X198551509Y-104627013D01*
X198868434Y-104838775D01*
X199220581Y-104984639D01*
X199594419Y-105059000D01*
X199975581Y-105059000D01*
X200349419Y-104984639D01*
X200701566Y-104838775D01*
X201018491Y-104627013D01*
X201288013Y-104357491D01*
X201499775Y-104040566D01*
X201645639Y-103688419D01*
X201720000Y-103314581D01*
X201720000Y-102933419D01*
X201645639Y-102559581D01*
X201499775Y-102207434D01*
X201288013Y-101890509D01*
X201018491Y-101620987D01*
X200701566Y-101409225D01*
X200349419Y-101263361D01*
X199975581Y-101189000D01*
X199594419Y-101189000D01*
X199220581Y-101263361D01*
X198868434Y-101409225D01*
X198551509Y-101620987D01*
X198281987Y-101890509D01*
X198070225Y-102207434D01*
X197924361Y-102559581D01*
X197850000Y-102933419D01*
X196720000Y-102933419D01*
X196645639Y-102559581D01*
X196499775Y-102207434D01*
X196288013Y-101890509D01*
X196018491Y-101620987D01*
X195701566Y-101409225D01*
X195349419Y-101263361D01*
X194975581Y-101189000D01*
X194594419Y-101189000D01*
X194220581Y-101263361D01*
X193868434Y-101409225D01*
X193551509Y-101620987D01*
X193281987Y-101890509D01*
X193070225Y-102207434D01*
X192924361Y-102559581D01*
X192850000Y-102933419D01*
X192850000Y-103314581D01*
X192924361Y-103688419D01*
X192988384Y-103842985D01*
X192280358Y-104551012D01*
X191094492Y-104551012D01*
X191288013Y-104357491D01*
X191499775Y-104040566D01*
X191645639Y-103688419D01*
X191720000Y-103314581D01*
X191720000Y-102933419D01*
X191645639Y-102559581D01*
X191499775Y-102207434D01*
X191288013Y-101890509D01*
X191018491Y-101620987D01*
X190701566Y-101409225D01*
X190349419Y-101263361D01*
X189975581Y-101189000D01*
X189594419Y-101189000D01*
X189220581Y-101263361D01*
X188868434Y-101409225D01*
X188551509Y-101620987D01*
X188281987Y-101890509D01*
X188070225Y-102207434D01*
X187924361Y-102559581D01*
X187850000Y-102933419D01*
X187850000Y-103314581D01*
X187924361Y-103688419D01*
X187988384Y-103842985D01*
X187788369Y-104043001D01*
X186723072Y-104043001D01*
X186723072Y-101824000D01*
X186710812Y-101699518D01*
X186674502Y-101579820D01*
X186615537Y-101469506D01*
X186536185Y-101372815D01*
X186439494Y-101293463D01*
X186329180Y-101234498D01*
X186209482Y-101198188D01*
X186085000Y-101185928D01*
X183485000Y-101185928D01*
X183360518Y-101198188D01*
X183240820Y-101234498D01*
X183130506Y-101293463D01*
X183033815Y-101372815D01*
X182954463Y-101469506D01*
X182895498Y-101579820D01*
X182859188Y-101699518D01*
X182846928Y-101824000D01*
X182846928Y-104043001D01*
X166995032Y-104043001D01*
X163496433Y-100544403D01*
X163648492Y-100551412D01*
X163918238Y-100510565D01*
X164174832Y-100417877D01*
X164287863Y-100357460D01*
X164353388Y-100118593D01*
X163576000Y-99341205D01*
X163561858Y-99355348D01*
X163382253Y-99175743D01*
X163396395Y-99161600D01*
X163755605Y-99161600D01*
X164532993Y-99938988D01*
X164771860Y-99873463D01*
X164802737Y-99807665D01*
X169634000Y-99807665D01*
X169634000Y-100090335D01*
X169689147Y-100367574D01*
X169797320Y-100628727D01*
X169954363Y-100863759D01*
X170154241Y-101063637D01*
X170389273Y-101220680D01*
X170650426Y-101328853D01*
X170927665Y-101384000D01*
X171210335Y-101384000D01*
X171487574Y-101328853D01*
X171748727Y-101220680D01*
X171983759Y-101063637D01*
X172183637Y-100863759D01*
X172339000Y-100631241D01*
X172494363Y-100863759D01*
X172694241Y-101063637D01*
X172929273Y-101220680D01*
X173190426Y-101328853D01*
X173467665Y-101384000D01*
X173750335Y-101384000D01*
X174027574Y-101328853D01*
X174288727Y-101220680D01*
X174523759Y-101063637D01*
X174723637Y-100863759D01*
X174879000Y-100631241D01*
X175034363Y-100863759D01*
X175234241Y-101063637D01*
X175469273Y-101220680D01*
X175730426Y-101328853D01*
X176007665Y-101384000D01*
X176290335Y-101384000D01*
X176567574Y-101328853D01*
X176828727Y-101220680D01*
X177063759Y-101063637D01*
X177262357Y-100865039D01*
X177263188Y-100873482D01*
X177299498Y-100993180D01*
X177358463Y-101103494D01*
X177437815Y-101200185D01*
X177534506Y-101279537D01*
X177644820Y-101338502D01*
X177764518Y-101374812D01*
X177889000Y-101387072D01*
X179489000Y-101387072D01*
X179613482Y-101374812D01*
X179733180Y-101338502D01*
X179843494Y-101279537D01*
X179940185Y-101200185D01*
X180019537Y-101103494D01*
X180078502Y-100993180D01*
X180114812Y-100873482D01*
X180127072Y-100749000D01*
X180127072Y-99149000D01*
X180114812Y-99024518D01*
X180078502Y-98904820D01*
X180019537Y-98794506D01*
X179940185Y-98697815D01*
X179843494Y-98618463D01*
X179733180Y-98559498D01*
X179613482Y-98523188D01*
X179489000Y-98510928D01*
X177889000Y-98510928D01*
X177764518Y-98523188D01*
X177644820Y-98559498D01*
X177534506Y-98618463D01*
X177437815Y-98697815D01*
X177358463Y-98794506D01*
X177299498Y-98904820D01*
X177263188Y-99024518D01*
X177262357Y-99032961D01*
X177063759Y-98834363D01*
X176828727Y-98677320D01*
X176567574Y-98569147D01*
X176290335Y-98514000D01*
X176007665Y-98514000D01*
X175730426Y-98569147D01*
X175469273Y-98677320D01*
X175234241Y-98834363D01*
X175034363Y-99034241D01*
X174879000Y-99266759D01*
X174723637Y-99034241D01*
X174523759Y-98834363D01*
X174288727Y-98677320D01*
X174027574Y-98569147D01*
X173750335Y-98514000D01*
X173467665Y-98514000D01*
X173190426Y-98569147D01*
X172929273Y-98677320D01*
X172694241Y-98834363D01*
X172494363Y-99034241D01*
X172339000Y-99266759D01*
X172183637Y-99034241D01*
X171983759Y-98834363D01*
X171748727Y-98677320D01*
X171487574Y-98569147D01*
X171210335Y-98514000D01*
X170927665Y-98514000D01*
X170650426Y-98569147D01*
X170389273Y-98677320D01*
X170154241Y-98834363D01*
X169954363Y-99034241D01*
X169797320Y-99269273D01*
X169689147Y-99530426D01*
X169634000Y-99807665D01*
X164802737Y-99807665D01*
X164887760Y-99626484D01*
X164953250Y-99361640D01*
X164965812Y-99089108D01*
X164924965Y-98819362D01*
X164832277Y-98562768D01*
X164771860Y-98449737D01*
X164532993Y-98384212D01*
X163755605Y-99161600D01*
X163396395Y-99161600D01*
X162619007Y-98384212D01*
X162380140Y-98449737D01*
X162305836Y-98608077D01*
X162263371Y-98505557D01*
X162111799Y-98278714D01*
X162037692Y-98204607D01*
X162798612Y-98204607D01*
X163576000Y-98981995D01*
X164353388Y-98204607D01*
X164287863Y-97965740D01*
X164040884Y-97849840D01*
X163776040Y-97784350D01*
X163503508Y-97771788D01*
X163233762Y-97812635D01*
X162977168Y-97905323D01*
X162864137Y-97965740D01*
X162798612Y-98204607D01*
X162037692Y-98204607D01*
X161918886Y-98085801D01*
X161692043Y-97934229D01*
X161439989Y-97829825D01*
X161172411Y-97776600D01*
X160899589Y-97776600D01*
X160632011Y-97829825D01*
X160379957Y-97934229D01*
X160153114Y-98085801D01*
X159960201Y-98278714D01*
X159808629Y-98505557D01*
X159766000Y-98608473D01*
X159723371Y-98505557D01*
X159571799Y-98278714D01*
X159378886Y-98085801D01*
X159152043Y-97934229D01*
X158899989Y-97829825D01*
X158632411Y-97776600D01*
X158359589Y-97776600D01*
X158126999Y-97822865D01*
X158126999Y-97585631D01*
X158262558Y-97450072D01*
X159423000Y-97450072D01*
X159547482Y-97437812D01*
X159667180Y-97401502D01*
X159777494Y-97342537D01*
X159874185Y-97263185D01*
X159953537Y-97166494D01*
X160012502Y-97056180D01*
X160048812Y-96936482D01*
X160049643Y-96928039D01*
X160248241Y-97126637D01*
X160483273Y-97283680D01*
X160744426Y-97391853D01*
X161021665Y-97447000D01*
X161304335Y-97447000D01*
X161581574Y-97391853D01*
X161842727Y-97283680D01*
X162077759Y-97126637D01*
X162277637Y-96926759D01*
X162433000Y-96694241D01*
X162588363Y-96926759D01*
X162788241Y-97126637D01*
X163023273Y-97283680D01*
X163284426Y-97391853D01*
X163561665Y-97447000D01*
X163844335Y-97447000D01*
X164121574Y-97391853D01*
X164382727Y-97283680D01*
X164617759Y-97126637D01*
X164817637Y-96926759D01*
X164974680Y-96691727D01*
X164979067Y-96681135D01*
X165090615Y-96867131D01*
X165279586Y-97075519D01*
X165505580Y-97243037D01*
X165759913Y-97363246D01*
X165893961Y-97403904D01*
X166116000Y-97281915D01*
X166116000Y-96139000D01*
X166096000Y-96139000D01*
X166096000Y-95885000D01*
X166116000Y-95885000D01*
X166116000Y-94742085D01*
X166370000Y-94742085D01*
X166370000Y-95885000D01*
X166390000Y-95885000D01*
X166390000Y-96139000D01*
X166370000Y-96139000D01*
X166370000Y-97281915D01*
X166592039Y-97403904D01*
X166726087Y-97363246D01*
X166980420Y-97243037D01*
X167206414Y-97075519D01*
X167395385Y-96867131D01*
X167506933Y-96681135D01*
X167511320Y-96691727D01*
X167668363Y-96926759D01*
X167868241Y-97126637D01*
X168103273Y-97283680D01*
X168364426Y-97391853D01*
X168641665Y-97447000D01*
X168924335Y-97447000D01*
X169201574Y-97391853D01*
X169462727Y-97283680D01*
X169697759Y-97126637D01*
X169897637Y-96926759D01*
X170053000Y-96694241D01*
X170208363Y-96926759D01*
X170408241Y-97126637D01*
X170643273Y-97283680D01*
X170904426Y-97391853D01*
X171181665Y-97447000D01*
X171464335Y-97447000D01*
X171741574Y-97391853D01*
X172002727Y-97283680D01*
X172237759Y-97126637D01*
X172437637Y-96926759D01*
X172593000Y-96694241D01*
X172748363Y-96926759D01*
X172948241Y-97126637D01*
X173183273Y-97283680D01*
X173444426Y-97391853D01*
X173721665Y-97447000D01*
X174004335Y-97447000D01*
X174281574Y-97391853D01*
X174542727Y-97283680D01*
X174777759Y-97126637D01*
X174977637Y-96926759D01*
X175133000Y-96694241D01*
X175288363Y-96926759D01*
X175488241Y-97126637D01*
X175723273Y-97283680D01*
X175984426Y-97391853D01*
X176261665Y-97447000D01*
X176544335Y-97447000D01*
X176821574Y-97391853D01*
X177082727Y-97283680D01*
X177317759Y-97126637D01*
X177517637Y-96926759D01*
X177673000Y-96694241D01*
X177828363Y-96926759D01*
X178028241Y-97126637D01*
X178263273Y-97283680D01*
X178524426Y-97391853D01*
X178801665Y-97447000D01*
X179084335Y-97447000D01*
X179361574Y-97391853D01*
X179622727Y-97283680D01*
X179857759Y-97126637D01*
X180057637Y-96926759D01*
X180213000Y-96694241D01*
X180368363Y-96926759D01*
X180568241Y-97126637D01*
X180803273Y-97283680D01*
X181064426Y-97391853D01*
X181341665Y-97447000D01*
X181624335Y-97447000D01*
X181901574Y-97391853D01*
X182162727Y-97283680D01*
X182397759Y-97126637D01*
X182597637Y-96926759D01*
X182753000Y-96694241D01*
X182908363Y-96926759D01*
X183108241Y-97126637D01*
X183343273Y-97283680D01*
X183604426Y-97391853D01*
X183881665Y-97447000D01*
X184164335Y-97447000D01*
X184441574Y-97391853D01*
X184702727Y-97283680D01*
X184937759Y-97126637D01*
X185137637Y-96926759D01*
X185293000Y-96694241D01*
X185448363Y-96926759D01*
X185648241Y-97126637D01*
X185883273Y-97283680D01*
X186144426Y-97391853D01*
X186421665Y-97447000D01*
X186704335Y-97447000D01*
X186981574Y-97391853D01*
X187242727Y-97283680D01*
X187477759Y-97126637D01*
X187677637Y-96926759D01*
X187833000Y-96694241D01*
X187988363Y-96926759D01*
X188188241Y-97126637D01*
X188423273Y-97283680D01*
X188684426Y-97391853D01*
X188961665Y-97447000D01*
X189244335Y-97447000D01*
X189521574Y-97391853D01*
X189782727Y-97283680D01*
X190017759Y-97126637D01*
X190217637Y-96926759D01*
X190373000Y-96694241D01*
X190528363Y-96926759D01*
X190728241Y-97126637D01*
X190963273Y-97283680D01*
X191224426Y-97391853D01*
X191501665Y-97447000D01*
X191784335Y-97447000D01*
X192061574Y-97391853D01*
X192322727Y-97283680D01*
X192557759Y-97126637D01*
X192757637Y-96926759D01*
X192913000Y-96694241D01*
X193068363Y-96926759D01*
X193268241Y-97126637D01*
X193503273Y-97283680D01*
X193764426Y-97391853D01*
X194041665Y-97447000D01*
X194324335Y-97447000D01*
X194601574Y-97391853D01*
X194862727Y-97283680D01*
X195097759Y-97126637D01*
X195297637Y-96926759D01*
X195454680Y-96691727D01*
X195562853Y-96430574D01*
X195618000Y-96153335D01*
X195618000Y-95870665D01*
X195562853Y-95593426D01*
X195454680Y-95332273D01*
X195297637Y-95097241D01*
X195097759Y-94897363D01*
X194862727Y-94740320D01*
X194601574Y-94632147D01*
X194324335Y-94577000D01*
X194041665Y-94577000D01*
X193764426Y-94632147D01*
X193503273Y-94740320D01*
X193268241Y-94897363D01*
X193068363Y-95097241D01*
X192913000Y-95329759D01*
X192757637Y-95097241D01*
X192557759Y-94897363D01*
X192322727Y-94740320D01*
X192061574Y-94632147D01*
X191784335Y-94577000D01*
X191501665Y-94577000D01*
X191224426Y-94632147D01*
X190963273Y-94740320D01*
X190728241Y-94897363D01*
X190528363Y-95097241D01*
X190373000Y-95329759D01*
X190217637Y-95097241D01*
X190017759Y-94897363D01*
X189782727Y-94740320D01*
X189521574Y-94632147D01*
X189244335Y-94577000D01*
X188961665Y-94577000D01*
X188684426Y-94632147D01*
X188423273Y-94740320D01*
X188188241Y-94897363D01*
X187988363Y-95097241D01*
X187833000Y-95329759D01*
X187677637Y-95097241D01*
X187477759Y-94897363D01*
X187242727Y-94740320D01*
X186981574Y-94632147D01*
X186704335Y-94577000D01*
X186421665Y-94577000D01*
X186144426Y-94632147D01*
X185883273Y-94740320D01*
X185648241Y-94897363D01*
X185448363Y-95097241D01*
X185293000Y-95329759D01*
X185137637Y-95097241D01*
X184937759Y-94897363D01*
X184702727Y-94740320D01*
X184441574Y-94632147D01*
X184164335Y-94577000D01*
X183881665Y-94577000D01*
X183604426Y-94632147D01*
X183343273Y-94740320D01*
X183108241Y-94897363D01*
X182908363Y-95097241D01*
X182753000Y-95329759D01*
X182597637Y-95097241D01*
X182397759Y-94897363D01*
X182162727Y-94740320D01*
X181901574Y-94632147D01*
X181624335Y-94577000D01*
X181341665Y-94577000D01*
X181064426Y-94632147D01*
X180803273Y-94740320D01*
X180568241Y-94897363D01*
X180368363Y-95097241D01*
X180213000Y-95329759D01*
X180057637Y-95097241D01*
X179857759Y-94897363D01*
X179622727Y-94740320D01*
X179361574Y-94632147D01*
X179084335Y-94577000D01*
X178801665Y-94577000D01*
X178524426Y-94632147D01*
X178263273Y-94740320D01*
X178028241Y-94897363D01*
X177828363Y-95097241D01*
X177673000Y-95329759D01*
X177517637Y-95097241D01*
X177317759Y-94897363D01*
X177082727Y-94740320D01*
X176821574Y-94632147D01*
X176544335Y-94577000D01*
X176261665Y-94577000D01*
X175984426Y-94632147D01*
X175723273Y-94740320D01*
X175488241Y-94897363D01*
X175288363Y-95097241D01*
X175133000Y-95329759D01*
X174977637Y-95097241D01*
X174777759Y-94897363D01*
X174542727Y-94740320D01*
X174281574Y-94632147D01*
X174004335Y-94577000D01*
X173721665Y-94577000D01*
X173444426Y-94632147D01*
X173183273Y-94740320D01*
X172948241Y-94897363D01*
X172748363Y-95097241D01*
X172593000Y-95329759D01*
X172437637Y-95097241D01*
X172237759Y-94897363D01*
X172002727Y-94740320D01*
X171741574Y-94632147D01*
X171464335Y-94577000D01*
X171181665Y-94577000D01*
X170904426Y-94632147D01*
X170643273Y-94740320D01*
X170408241Y-94897363D01*
X170208363Y-95097241D01*
X170053000Y-95329759D01*
X169897637Y-95097241D01*
X169697759Y-94897363D01*
X169462727Y-94740320D01*
X169201574Y-94632147D01*
X168924335Y-94577000D01*
X168641665Y-94577000D01*
X168364426Y-94632147D01*
X168103273Y-94740320D01*
X167868241Y-94897363D01*
X167668363Y-95097241D01*
X167511320Y-95332273D01*
X167506933Y-95342865D01*
X167395385Y-95156869D01*
X167206414Y-94948481D01*
X166980420Y-94780963D01*
X166726087Y-94660754D01*
X166592039Y-94620096D01*
X166370000Y-94742085D01*
X166116000Y-94742085D01*
X165893961Y-94620096D01*
X165759913Y-94660754D01*
X165505580Y-94780963D01*
X165279586Y-94948481D01*
X165090615Y-95156869D01*
X164979067Y-95342865D01*
X164974680Y-95332273D01*
X164817637Y-95097241D01*
X164617759Y-94897363D01*
X164382727Y-94740320D01*
X164121574Y-94632147D01*
X163844335Y-94577000D01*
X163561665Y-94577000D01*
X163284426Y-94632147D01*
X163023273Y-94740320D01*
X162788241Y-94897363D01*
X162588363Y-95097241D01*
X162433000Y-95329759D01*
X162277637Y-95097241D01*
X162077759Y-94897363D01*
X161842727Y-94740320D01*
X161581574Y-94632147D01*
X161304335Y-94577000D01*
X161021665Y-94577000D01*
X160744426Y-94632147D01*
X160483273Y-94740320D01*
X160248241Y-94897363D01*
X160049643Y-95095961D01*
X160048812Y-95087518D01*
X160012502Y-94967820D01*
X159953537Y-94857506D01*
X159874185Y-94760815D01*
X159777494Y-94681463D01*
X159667180Y-94622498D01*
X159547482Y-94586188D01*
X159423000Y-94573928D01*
X157823000Y-94573928D01*
X157698518Y-94586188D01*
X157578820Y-94622498D01*
X157468506Y-94681463D01*
X157371815Y-94760815D01*
X157292463Y-94857506D01*
X157233498Y-94967820D01*
X157197188Y-95087518D01*
X157184928Y-95212000D01*
X157184928Y-96372442D01*
X156852648Y-96704722D01*
X156823578Y-96728579D01*
X156799721Y-96757649D01*
X156799720Y-96757650D01*
X156728354Y-96844609D01*
X156657598Y-96976986D01*
X156614026Y-97120623D01*
X156599313Y-97270001D01*
X156603000Y-97307434D01*
X156603000Y-97930483D01*
X156359989Y-97829825D01*
X156092411Y-97776600D01*
X155819589Y-97776600D01*
X155552011Y-97829825D01*
X155299957Y-97934229D01*
X155073114Y-98085801D01*
X155005001Y-98153914D01*
X155005001Y-90577223D01*
X155008687Y-90539800D01*
X155005001Y-90502375D01*
X154993975Y-90390423D01*
X154950403Y-90246786D01*
X154879646Y-90114409D01*
X154784423Y-89998379D01*
X154755354Y-89974523D01*
X154476114Y-89695284D01*
X154497000Y-89590286D01*
X154497000Y-89327314D01*
X154445696Y-89069395D01*
X154345061Y-88826441D01*
X154198962Y-88607787D01*
X154013013Y-88421838D01*
X153794359Y-88275739D01*
X153551405Y-88175104D01*
X153293486Y-88123800D01*
X153030514Y-88123800D01*
X152772595Y-88175104D01*
X152529641Y-88275739D01*
X152310987Y-88421838D01*
X152125038Y-88607787D01*
X151978939Y-88826441D01*
X151878304Y-89069395D01*
X151855694Y-89183064D01*
X151720684Y-89048054D01*
X151696822Y-89018978D01*
X151580792Y-88923755D01*
X151448415Y-88852998D01*
X151304778Y-88809426D01*
X151192826Y-88798400D01*
X151192823Y-88798400D01*
X151155400Y-88794714D01*
X151117977Y-88798400D01*
X150023230Y-88798400D01*
X152599829Y-86221801D01*
X169137776Y-86221801D01*
X169175199Y-86225487D01*
X169212622Y-86221801D01*
X169212625Y-86221801D01*
X169324577Y-86210775D01*
X169468214Y-86167203D01*
X169600591Y-86096446D01*
X169716621Y-86001223D01*
X169740483Y-85972147D01*
X173541474Y-82171157D01*
X173721665Y-82207000D01*
X174004335Y-82207000D01*
X174281574Y-82151853D01*
X174542727Y-82043680D01*
X174777759Y-81886637D01*
X174977637Y-81686759D01*
X175133000Y-81454241D01*
X175288363Y-81686759D01*
X175488241Y-81886637D01*
X175723273Y-82043680D01*
X175984426Y-82151853D01*
X176261665Y-82207000D01*
X176544335Y-82207000D01*
X176821574Y-82151853D01*
X177082727Y-82043680D01*
X177317759Y-81886637D01*
X177517637Y-81686759D01*
X177673000Y-81454241D01*
X177828363Y-81686759D01*
X178028241Y-81886637D01*
X178263273Y-82043680D01*
X178524426Y-82151853D01*
X178801665Y-82207000D01*
X179084335Y-82207000D01*
X179361574Y-82151853D01*
X179622727Y-82043680D01*
X179857759Y-81886637D01*
X180057637Y-81686759D01*
X180213000Y-81454241D01*
X180368363Y-81686759D01*
X180568241Y-81886637D01*
X180803273Y-82043680D01*
X181064426Y-82151853D01*
X181341665Y-82207000D01*
X181624335Y-82207000D01*
X181901574Y-82151853D01*
X182162727Y-82043680D01*
X182397759Y-81886637D01*
X182597637Y-81686759D01*
X182753000Y-81454241D01*
X182908363Y-81686759D01*
X183108241Y-81886637D01*
X183343273Y-82043680D01*
X183604426Y-82151853D01*
X183881665Y-82207000D01*
X184164335Y-82207000D01*
X184441574Y-82151853D01*
X184702727Y-82043680D01*
X184937759Y-81886637D01*
X185137637Y-81686759D01*
X185293000Y-81454241D01*
X185448363Y-81686759D01*
X185648241Y-81886637D01*
X185883273Y-82043680D01*
X186144426Y-82151853D01*
X186421665Y-82207000D01*
X186704335Y-82207000D01*
X186981574Y-82151853D01*
X187242727Y-82043680D01*
X187477759Y-81886637D01*
X187677637Y-81686759D01*
X187833000Y-81454241D01*
X187988363Y-81686759D01*
X188188241Y-81886637D01*
X188423273Y-82043680D01*
X188684426Y-82151853D01*
X188961665Y-82207000D01*
X189244335Y-82207000D01*
X189521574Y-82151853D01*
X189782727Y-82043680D01*
X190017759Y-81886637D01*
X190217637Y-81686759D01*
X190373000Y-81454241D01*
X190528363Y-81686759D01*
X190728241Y-81886637D01*
X190963273Y-82043680D01*
X191224426Y-82151853D01*
X191501665Y-82207000D01*
X191784335Y-82207000D01*
X192061574Y-82151853D01*
X192322727Y-82043680D01*
X192557759Y-81886637D01*
X192757637Y-81686759D01*
X192913000Y-81454241D01*
X193068363Y-81686759D01*
X193268241Y-81886637D01*
X193503273Y-82043680D01*
X193764426Y-82151853D01*
X194041665Y-82207000D01*
X194324335Y-82207000D01*
X194601574Y-82151853D01*
X194862727Y-82043680D01*
X195097759Y-81886637D01*
X195297637Y-81686759D01*
X195454680Y-81451727D01*
X195562853Y-81190574D01*
X195618000Y-80913335D01*
X195618000Y-80630665D01*
X195562853Y-80353426D01*
X195454680Y-80092273D01*
X195297637Y-79857241D01*
X195097759Y-79657363D01*
X194862727Y-79500320D01*
X194601574Y-79392147D01*
X194324335Y-79337000D01*
X194041665Y-79337000D01*
X193764426Y-79392147D01*
X193503273Y-79500320D01*
X193268241Y-79657363D01*
X193068363Y-79857241D01*
X192913000Y-80089759D01*
X192757637Y-79857241D01*
X192557759Y-79657363D01*
X192322727Y-79500320D01*
X192061574Y-79392147D01*
X191784335Y-79337000D01*
X191501665Y-79337000D01*
X191224426Y-79392147D01*
X190963273Y-79500320D01*
X190728241Y-79657363D01*
X190528363Y-79857241D01*
X190373000Y-80089759D01*
X190217637Y-79857241D01*
X190017759Y-79657363D01*
X189782727Y-79500320D01*
X189521574Y-79392147D01*
X189244335Y-79337000D01*
X188961665Y-79337000D01*
X188684426Y-79392147D01*
X188423273Y-79500320D01*
X188188241Y-79657363D01*
X187988363Y-79857241D01*
X187833000Y-80089759D01*
X187677637Y-79857241D01*
X187477759Y-79657363D01*
X187242727Y-79500320D01*
X186981574Y-79392147D01*
X186704335Y-79337000D01*
X186421665Y-79337000D01*
X186144426Y-79392147D01*
X185883273Y-79500320D01*
X185648241Y-79657363D01*
X185448363Y-79857241D01*
X185293000Y-80089759D01*
X185137637Y-79857241D01*
X184937759Y-79657363D01*
X184702727Y-79500320D01*
X184441574Y-79392147D01*
X184164335Y-79337000D01*
X183881665Y-79337000D01*
X183604426Y-79392147D01*
X183343273Y-79500320D01*
X183108241Y-79657363D01*
X182908363Y-79857241D01*
X182753000Y-80089759D01*
X182597637Y-79857241D01*
X182397759Y-79657363D01*
X182162727Y-79500320D01*
X181901574Y-79392147D01*
X181624335Y-79337000D01*
X181341665Y-79337000D01*
X181064426Y-79392147D01*
X180803273Y-79500320D01*
X180568241Y-79657363D01*
X180368363Y-79857241D01*
X180213000Y-80089759D01*
X180057637Y-79857241D01*
X179857759Y-79657363D01*
X179622727Y-79500320D01*
X179361574Y-79392147D01*
X179084335Y-79337000D01*
X178801665Y-79337000D01*
X178524426Y-79392147D01*
X178263273Y-79500320D01*
X178028241Y-79657363D01*
X177828363Y-79857241D01*
X177673000Y-80089759D01*
X177517637Y-79857241D01*
X177317759Y-79657363D01*
X177082727Y-79500320D01*
X176821574Y-79392147D01*
X176544335Y-79337000D01*
X176261665Y-79337000D01*
X175984426Y-79392147D01*
X175723273Y-79500320D01*
X175488241Y-79657363D01*
X175288363Y-79857241D01*
X175133000Y-80089759D01*
X174977637Y-79857241D01*
X174777759Y-79657363D01*
X174542727Y-79500320D01*
X174281574Y-79392147D01*
X174004335Y-79337000D01*
X173721665Y-79337000D01*
X173444426Y-79392147D01*
X173183273Y-79500320D01*
X172948241Y-79657363D01*
X172748363Y-79857241D01*
X172593000Y-80089759D01*
X172437637Y-79857241D01*
X172237759Y-79657363D01*
X172002727Y-79500320D01*
X171741574Y-79392147D01*
X171464335Y-79337000D01*
X171181665Y-79337000D01*
X171080141Y-79357195D01*
X171138792Y-79325845D01*
X171254822Y-79230622D01*
X171278684Y-79201546D01*
X172408425Y-78071806D01*
X172420888Y-78076968D01*
X172736767Y-78139800D01*
X173058833Y-78139800D01*
X173374712Y-78076968D01*
X173672263Y-77953718D01*
X173940052Y-77774787D01*
X174167787Y-77547052D01*
X174346718Y-77279263D01*
X174469968Y-76981712D01*
X174532800Y-76665833D01*
X174532800Y-76343767D01*
X175072800Y-76343767D01*
X175072800Y-76665833D01*
X175135632Y-76981712D01*
X175258882Y-77279263D01*
X175437813Y-77547052D01*
X175665548Y-77774787D01*
X175933337Y-77953718D01*
X176230888Y-78076968D01*
X176546767Y-78139800D01*
X176868833Y-78139800D01*
X177184712Y-78076968D01*
X177482263Y-77953718D01*
X177750052Y-77774787D01*
X177977787Y-77547052D01*
X178156718Y-77279263D01*
X178279968Y-76981712D01*
X178342800Y-76665833D01*
X178342800Y-76343767D01*
X178882800Y-76343767D01*
X178882800Y-76665833D01*
X178945632Y-76981712D01*
X179068882Y-77279263D01*
X179247813Y-77547052D01*
X179475548Y-77774787D01*
X179743337Y-77953718D01*
X180040888Y-78076968D01*
X180356767Y-78139800D01*
X180678833Y-78139800D01*
X180994712Y-78076968D01*
X181292263Y-77953718D01*
X181560052Y-77774787D01*
X181787787Y-77547052D01*
X181966718Y-77279263D01*
X182089968Y-76981712D01*
X182109158Y-76885234D01*
X182737676Y-76885234D01*
X182794298Y-77071907D01*
X182934401Y-77360182D01*
X183128052Y-77615585D01*
X183367808Y-77828301D01*
X183644456Y-77990156D01*
X183947365Y-78094929D01*
X184200800Y-77976115D01*
X184200800Y-76631800D01*
X184454800Y-76631800D01*
X184454800Y-77976115D01*
X184708235Y-78094929D01*
X185011144Y-77990156D01*
X185287792Y-77828301D01*
X185527548Y-77615585D01*
X185721199Y-77360182D01*
X185771578Y-77256522D01*
X187083625Y-77256522D01*
X187148225Y-77469494D01*
X187298269Y-77774729D01*
X187504978Y-78044827D01*
X187760409Y-78269408D01*
X188054746Y-78439842D01*
X188376677Y-78549579D01*
X188645800Y-78432000D01*
X188645800Y-76987400D01*
X188899800Y-76987400D01*
X188899800Y-78432000D01*
X189168923Y-78549579D01*
X189490854Y-78439842D01*
X189785191Y-78269408D01*
X190040622Y-78044827D01*
X190247331Y-77774729D01*
X190397375Y-77469494D01*
X190461975Y-77256522D01*
X190343925Y-76987400D01*
X188899800Y-76987400D01*
X188645800Y-76987400D01*
X187201675Y-76987400D01*
X187083625Y-77256522D01*
X185771578Y-77256522D01*
X185861302Y-77071907D01*
X185917924Y-76885234D01*
X185798577Y-76631800D01*
X184454800Y-76631800D01*
X184200800Y-76631800D01*
X182857023Y-76631800D01*
X182737676Y-76885234D01*
X182109158Y-76885234D01*
X182152800Y-76665833D01*
X182152800Y-76464278D01*
X187083625Y-76464278D01*
X187201675Y-76733400D01*
X188645800Y-76733400D01*
X188645800Y-75288800D01*
X188899800Y-75288800D01*
X188899800Y-76733400D01*
X190343925Y-76733400D01*
X190461975Y-76464278D01*
X190397375Y-76251306D01*
X190247331Y-75946071D01*
X190105235Y-75760400D01*
X197194728Y-75760400D01*
X197194728Y-77960400D01*
X197206988Y-78084882D01*
X197243298Y-78204580D01*
X197302263Y-78314894D01*
X197381615Y-78411585D01*
X197478306Y-78490937D01*
X197588620Y-78549902D01*
X197708318Y-78586212D01*
X197832800Y-78598472D01*
X200032800Y-78598472D01*
X200157282Y-78586212D01*
X200276980Y-78549902D01*
X200387294Y-78490937D01*
X200483985Y-78411585D01*
X200563337Y-78314894D01*
X200622302Y-78204580D01*
X200658612Y-78084882D01*
X200670872Y-77960400D01*
X200670872Y-75760400D01*
X200658612Y-75635918D01*
X200622302Y-75516220D01*
X200563337Y-75405906D01*
X200483985Y-75309215D01*
X200387294Y-75229863D01*
X200276980Y-75170898D01*
X200157282Y-75134588D01*
X200032800Y-75122328D01*
X197832800Y-75122328D01*
X197708318Y-75134588D01*
X197588620Y-75170898D01*
X197478306Y-75229863D01*
X197381615Y-75309215D01*
X197302263Y-75405906D01*
X197243298Y-75516220D01*
X197206988Y-75635918D01*
X197194728Y-75760400D01*
X190105235Y-75760400D01*
X190040622Y-75675973D01*
X189785191Y-75451392D01*
X189490854Y-75280958D01*
X189168923Y-75171221D01*
X188899800Y-75288800D01*
X188645800Y-75288800D01*
X188376677Y-75171221D01*
X188054746Y-75280958D01*
X187760409Y-75451392D01*
X187504978Y-75675973D01*
X187298269Y-75946071D01*
X187148225Y-76251306D01*
X187083625Y-76464278D01*
X182152800Y-76464278D01*
X182152800Y-76343767D01*
X182109159Y-76124366D01*
X182737676Y-76124366D01*
X182857023Y-76377800D01*
X184200800Y-76377800D01*
X184200800Y-75033485D01*
X184454800Y-75033485D01*
X184454800Y-76377800D01*
X185798577Y-76377800D01*
X185917924Y-76124366D01*
X185861302Y-75937693D01*
X185721199Y-75649418D01*
X185527548Y-75394015D01*
X185287792Y-75181299D01*
X185011144Y-75019444D01*
X184708235Y-74914671D01*
X184454800Y-75033485D01*
X184200800Y-75033485D01*
X183947365Y-74914671D01*
X183644456Y-75019444D01*
X183367808Y-75181299D01*
X183128052Y-75394015D01*
X182934401Y-75649418D01*
X182794298Y-75937693D01*
X182737676Y-76124366D01*
X182109159Y-76124366D01*
X182089968Y-76027888D01*
X181966718Y-75730337D01*
X181787787Y-75462548D01*
X181560052Y-75234813D01*
X181292263Y-75055882D01*
X180994712Y-74932632D01*
X180678833Y-74869800D01*
X180356767Y-74869800D01*
X180040888Y-74932632D01*
X179743337Y-75055882D01*
X179475548Y-75234813D01*
X179247813Y-75462548D01*
X179068882Y-75730337D01*
X178945632Y-76027888D01*
X178882800Y-76343767D01*
X178342800Y-76343767D01*
X178279968Y-76027888D01*
X178156718Y-75730337D01*
X177977787Y-75462548D01*
X177750052Y-75234813D01*
X177482263Y-75055882D01*
X177184712Y-74932632D01*
X176868833Y-74869800D01*
X176546767Y-74869800D01*
X176230888Y-74932632D01*
X175933337Y-75055882D01*
X175665548Y-75234813D01*
X175437813Y-75462548D01*
X175258882Y-75730337D01*
X175135632Y-76027888D01*
X175072800Y-76343767D01*
X174532800Y-76343767D01*
X174469968Y-76027888D01*
X174346718Y-75730337D01*
X174167787Y-75462548D01*
X173940052Y-75234813D01*
X173672263Y-75055882D01*
X173374712Y-74932632D01*
X173058833Y-74869800D01*
X172736767Y-74869800D01*
X172420888Y-74932632D01*
X172123337Y-75055882D01*
X171855548Y-75234813D01*
X171627813Y-75462548D01*
X171448882Y-75730337D01*
X171325632Y-76027888D01*
X171262800Y-76343767D01*
X171262800Y-76665833D01*
X171325632Y-76981712D01*
X171330794Y-76994175D01*
X170397770Y-77927200D01*
X169364596Y-77927200D01*
X169516637Y-77775159D01*
X169673680Y-77540127D01*
X169781853Y-77278974D01*
X169837000Y-77001735D01*
X169837000Y-76719065D01*
X169781853Y-76441826D01*
X169673680Y-76180673D01*
X169516637Y-75945641D01*
X169316759Y-75745763D01*
X169081727Y-75588720D01*
X168820574Y-75480547D01*
X168543335Y-75425400D01*
X168260665Y-75425400D01*
X167983426Y-75480547D01*
X167722273Y-75588720D01*
X167487241Y-75745763D01*
X167287363Y-75945641D01*
X167130320Y-76180673D01*
X167022147Y-76441826D01*
X166967000Y-76719065D01*
X166967000Y-77001735D01*
X167022147Y-77278974D01*
X167130320Y-77540127D01*
X167287363Y-77775159D01*
X167439404Y-77927200D01*
X160816906Y-77927200D01*
X160779483Y-77923514D01*
X160742060Y-77927200D01*
X160742058Y-77927200D01*
X160630106Y-77938226D01*
X160486469Y-77981798D01*
X160354092Y-78052555D01*
X160238062Y-78147778D01*
X160214205Y-78176848D01*
X159005986Y-79385068D01*
X158764335Y-79337000D01*
X158481665Y-79337000D01*
X158204426Y-79392147D01*
X157943273Y-79500320D01*
X157708241Y-79657363D01*
X157508363Y-79857241D01*
X157351320Y-80092273D01*
X157243147Y-80353426D01*
X157188000Y-80630665D01*
X157188000Y-80913335D01*
X157243147Y-81190574D01*
X157351320Y-81451727D01*
X157508363Y-81686759D01*
X157708241Y-81886637D01*
X157943273Y-82043680D01*
X158059632Y-82091877D01*
X158031565Y-82089113D01*
X157994142Y-82092799D01*
X157040864Y-82092799D01*
X155952942Y-81004877D01*
X156059133Y-81026000D01*
X156259267Y-81026000D01*
X156455556Y-80986956D01*
X156640456Y-80910368D01*
X156806862Y-80799179D01*
X156948379Y-80657662D01*
X157059568Y-80491256D01*
X157136156Y-80306356D01*
X157175200Y-80110067D01*
X157175200Y-79909933D01*
X157136156Y-79713644D01*
X157059568Y-79528744D01*
X156948379Y-79362338D01*
X156806862Y-79220821D01*
X156640456Y-79109632D01*
X156464000Y-79036542D01*
X156464000Y-78077107D01*
X156616759Y-77975037D01*
X156816637Y-77775159D01*
X156973680Y-77540127D01*
X157081853Y-77278974D01*
X157137000Y-77001735D01*
X157137000Y-76719065D01*
X157081853Y-76441826D01*
X156973680Y-76180673D01*
X156816637Y-75945641D01*
X156616759Y-75745763D01*
X156381727Y-75588720D01*
X156120574Y-75480547D01*
X155843335Y-75425400D01*
X155560665Y-75425400D01*
X155380473Y-75461243D01*
X154646072Y-74726842D01*
X154646072Y-73423600D01*
X154633812Y-73299118D01*
X154597502Y-73179420D01*
X154587122Y-73160000D01*
X202840000Y-73160000D01*
X202840001Y-109040000D01*
X140660000Y-109040000D01*
X140660000Y-103445567D01*
X140833600Y-103445567D01*
X140833600Y-103767633D01*
X140896432Y-104083512D01*
X141019682Y-104381063D01*
X141198613Y-104648852D01*
X141426348Y-104876587D01*
X141694137Y-105055518D01*
X141991688Y-105178768D01*
X142307567Y-105241600D01*
X142629633Y-105241600D01*
X142945512Y-105178768D01*
X143243063Y-105055518D01*
X143453409Y-104914970D01*
X143478063Y-104961094D01*
X143557415Y-105057785D01*
X143654106Y-105137137D01*
X143764420Y-105196102D01*
X143884118Y-105232412D01*
X144008600Y-105244672D01*
X145924642Y-105244672D01*
X146564686Y-105884716D01*
X146543800Y-105989714D01*
X146543800Y-106252686D01*
X146595104Y-106510605D01*
X146695739Y-106753559D01*
X146841838Y-106972213D01*
X147027787Y-107158162D01*
X147246441Y-107304261D01*
X147489395Y-107404896D01*
X147747314Y-107456200D01*
X148010286Y-107456200D01*
X148268205Y-107404896D01*
X148511159Y-107304261D01*
X148729813Y-107158162D01*
X148915762Y-106972213D01*
X149061861Y-106753559D01*
X149162496Y-106510605D01*
X149213800Y-106252686D01*
X149213800Y-105989714D01*
X149162496Y-105731795D01*
X149061861Y-105488841D01*
X148915762Y-105270187D01*
X148729813Y-105084238D01*
X148511159Y-104938139D01*
X148268205Y-104837504D01*
X148010286Y-104786200D01*
X147747314Y-104786200D01*
X147642316Y-104807086D01*
X146646672Y-103811442D01*
X146646672Y-102606600D01*
X146634412Y-102482118D01*
X146598102Y-102362420D01*
X146539137Y-102252106D01*
X146459785Y-102155415D01*
X146363094Y-102076063D01*
X146252780Y-102017098D01*
X146133082Y-101980788D01*
X146008600Y-101968528D01*
X144008600Y-101968528D01*
X143884118Y-101980788D01*
X143764420Y-102017098D01*
X143654106Y-102076063D01*
X143557415Y-102155415D01*
X143478063Y-102252106D01*
X143453409Y-102298230D01*
X143243063Y-102157682D01*
X142945512Y-102034432D01*
X142629633Y-101971600D01*
X142307567Y-101971600D01*
X141991688Y-102034432D01*
X141694137Y-102157682D01*
X141426348Y-102336613D01*
X141198613Y-102564348D01*
X141019682Y-102832137D01*
X140896432Y-103129688D01*
X140833600Y-103445567D01*
X140660000Y-103445567D01*
X140660000Y-87090912D01*
X144203383Y-87090912D01*
X144244813Y-87370530D01*
X144339997Y-87636692D01*
X144406929Y-87761914D01*
X144650898Y-87833497D01*
X145463995Y-87020400D01*
X144650898Y-86207303D01*
X144406929Y-86278886D01*
X144286029Y-86534396D01*
X144217300Y-86808584D01*
X144203383Y-87090912D01*
X140660000Y-87090912D01*
X140660000Y-86027698D01*
X144830503Y-86027698D01*
X145643600Y-86840795D01*
X146456697Y-86027698D01*
X146385114Y-85783729D01*
X146129604Y-85662829D01*
X145855416Y-85594100D01*
X145573088Y-85580183D01*
X145293470Y-85621613D01*
X145027308Y-85716797D01*
X144902086Y-85783729D01*
X144830503Y-86027698D01*
X140660000Y-86027698D01*
X140660000Y-81198112D01*
X146732583Y-81198112D01*
X146774013Y-81477730D01*
X146869197Y-81743892D01*
X146936129Y-81869114D01*
X147180098Y-81940697D01*
X147993195Y-81127600D01*
X147180098Y-80314503D01*
X146936129Y-80386086D01*
X146815229Y-80641596D01*
X146746500Y-80915784D01*
X146732583Y-81198112D01*
X140660000Y-81198112D01*
X140660000Y-77845312D01*
X146630983Y-77845312D01*
X146672413Y-78124930D01*
X146767597Y-78391092D01*
X146834529Y-78516314D01*
X147078498Y-78587897D01*
X147891595Y-77774800D01*
X147078498Y-76961703D01*
X146834529Y-77033286D01*
X146713629Y-77288796D01*
X146644900Y-77562984D01*
X146630983Y-77845312D01*
X140660000Y-77845312D01*
X140660000Y-76782098D01*
X147258103Y-76782098D01*
X148071200Y-77595195D01*
X148884297Y-76782098D01*
X148812714Y-76538129D01*
X148557204Y-76417229D01*
X148283016Y-76348500D01*
X148000688Y-76334583D01*
X147721070Y-76376013D01*
X147454908Y-76471197D01*
X147329686Y-76538129D01*
X147258103Y-76782098D01*
X140660000Y-76782098D01*
X140660000Y-74919722D01*
X141058825Y-74919722D01*
X141123425Y-75132694D01*
X141273469Y-75437929D01*
X141480178Y-75708027D01*
X141735609Y-75932608D01*
X142029946Y-76103042D01*
X142351877Y-76212779D01*
X142621000Y-76095200D01*
X142621000Y-74650600D01*
X142875000Y-74650600D01*
X142875000Y-76095200D01*
X143144123Y-76212779D01*
X143466054Y-76103042D01*
X143760391Y-75932608D01*
X144015822Y-75708027D01*
X144222531Y-75437929D01*
X144372575Y-75132694D01*
X144437175Y-74919722D01*
X144319125Y-74650600D01*
X142875000Y-74650600D01*
X142621000Y-74650600D01*
X141176875Y-74650600D01*
X141058825Y-74919722D01*
X140660000Y-74919722D01*
X140660000Y-73160000D01*
X141683963Y-73160000D01*
X141480178Y-73339173D01*
G37*
%TD.AperFunction*%
D24*
X161290000Y-80645000D02*
X161310000Y-80645000D01*
X161310000Y-80899000D01*
X161290000Y-80899000D01*
X161290000Y-80919000D01*
X161036000Y-80919000D01*
X161036000Y-80899000D01*
X161016000Y-80899000D01*
X161016000Y-80645000D01*
X161036000Y-80645000D01*
X161036000Y-80625000D01*
X161290000Y-80625000D01*
X161290000Y-80645000D01*
%TA.AperFunction,Conductor*%
D25*
G36*
X161290000Y-80645000D02*
G01*
X161310000Y-80645000D01*
X161310000Y-80899000D01*
X161290000Y-80899000D01*
X161290000Y-80919000D01*
X161036000Y-80919000D01*
X161036000Y-80899000D01*
X161016000Y-80899000D01*
X161016000Y-80645000D01*
X161036000Y-80645000D01*
X161036000Y-80625000D01*
X161290000Y-80625000D01*
X161290000Y-80645000D01*
G37*
%TD.AperFunction*%
%TD*%
M02*
