%TF.GenerationSoftware,KiCad,Pcbnew,(5.1.8)-1*%
%TF.CreationDate,2021-01-21T21:37:33-05:00*%
%TF.ProjectId,TTS,5454532e-6b69-4636-9164-5f7063625858,rev?*%
%TF.SameCoordinates,Original*%
%TF.FileFunction,Legend,Bot*%
%TF.FilePolarity,Positive*%
%FSLAX46Y46*%
G04 Gerber Fmt 4.6, Leading zero omitted, Abs format (unit mm)*
G04 Created by KiCad (PCBNEW (5.1.8)-1) date 2021-01-21 21:37:33*
%MOMM*%
%LPD*%
G01*
G04 APERTURE LIST*
%ADD10C,0.150000*%
G04 APERTURE END LIST*
D10*
X201433180Y-93018266D02*
X201433180Y-93113504D01*
X201480800Y-93208742D01*
X201528419Y-93256361D01*
X201623657Y-93303980D01*
X201814133Y-93351600D01*
X202052228Y-93351600D01*
X202242704Y-93303980D01*
X202337942Y-93256361D01*
X202385561Y-93208742D01*
X202433180Y-93113504D01*
X202433180Y-93018266D01*
X202385561Y-92923028D01*
X202337942Y-92875409D01*
X202242704Y-92827790D01*
X202052228Y-92780171D01*
X201814133Y-92780171D01*
X201623657Y-92827790D01*
X201528419Y-92875409D01*
X201480800Y-92923028D01*
X201433180Y-93018266D01*
X202337942Y-93780171D02*
X202385561Y-93827790D01*
X202433180Y-93780171D01*
X202385561Y-93732552D01*
X202337942Y-93780171D01*
X202433180Y-93780171D01*
X201528419Y-94208742D02*
X201480800Y-94256361D01*
X201433180Y-94351600D01*
X201433180Y-94589695D01*
X201480800Y-94684933D01*
X201528419Y-94732552D01*
X201623657Y-94780171D01*
X201718895Y-94780171D01*
X201861752Y-94732552D01*
X202433180Y-94161123D01*
X202433180Y-94780171D01*
X202337942Y-95208742D02*
X202385561Y-95256361D01*
X202433180Y-95208742D01*
X202385561Y-95161123D01*
X202337942Y-95208742D01*
X202433180Y-95208742D01*
X202433180Y-96208742D02*
X202433180Y-95637314D01*
X202433180Y-95923028D02*
X201433180Y-95923028D01*
X201576038Y-95827790D01*
X201671276Y-95732552D01*
X201718895Y-95637314D01*
X201766514Y-96542076D02*
X202433180Y-96780171D01*
X201766514Y-97018266D01*
X201433180Y-97303980D02*
X201433180Y-97923028D01*
X201814133Y-97589695D01*
X201814133Y-97732552D01*
X201861752Y-97827790D01*
X201909371Y-97875409D01*
X202004609Y-97923028D01*
X202242704Y-97923028D01*
X202337942Y-97875409D01*
X202385561Y-97827790D01*
X202433180Y-97732552D01*
X202433180Y-97446838D01*
X202385561Y-97351600D01*
X202337942Y-97303980D01*
M02*
